<?xml version="1.0" standalone="no"?><!DOCTYPE svg PUBLIC "-//W3C//DTD SVG 1.1//EN" "http://www.w3.org/Graphics/SVG/1.1/DTD/svg11.dtd"><svg t="1772951088802" class="icon" viewBox="0 0 1024 1024" version="1.1" xmlns="http://www.w3.org/2000/svg" p-id="1706" xmlns:xlink="http://www.w3.org/1999/xlink" width="200" height="200"><path d="M818.265345 848.63947a152.268705 152.268705 0 0 0 60.761562 20.351987C785.996565 964.607397 655.935846 1023.99936 511.999936 1023.99936a509.618881 509.618881 0 0 1-278.604626-82.367949 161.369499 161.369499 0 0 0 33.971179-45.798371A452.966117 452.966117 0 0 0 511.999936 967.116196c117.939126 0 225.407859-44.876772 306.265409-118.463926zM128.000176 654.233191l4.838397 4.147198c19.942388 17.574389 94.719941 88.166345 94.719941 158.7583 0 51.417568-44.569572 93.094342-99.558338 93.094342-54.988766 0-99.558338-41.676774-99.558338-93.094342C28.441838 735.67954 128.000176 654.220391 128.000176 654.220391z m383.99976-56.883164c91.891143 0 171.532693 69.350357 210.675068 170.662293 11.007993 28.518382-11.942393 56.883164-42.521573 56.883164H343.846441c-30.579181 0-53.542367-28.364782-42.521573-56.883164C340.480043 666.687583 420.108793 597.337227 511.999936 597.337227z m379.161363-52.735967l4.838397-4.159998 4.838397 4.159998c19.942388 17.561589 94.719941 88.153545 94.719941 158.7583 0 51.404768-44.569572 93.081542-99.558338 93.081542-54.988766 0-99.558338-41.676774-99.558338-93.081542 0-70.604756 74.777553-141.183912 94.719941-158.7583zM511.999936 0c282.764623 0 511.99968 229.235057 511.99968 511.99968 0 25.049584-1.791999 49.663969-5.273597 73.753554-15.155191-29.644781-33.663979-57.023964-51.660767-80.43515C963.481254 257.049439 761.11338 56.883164 511.999936 56.883164 260.646493 56.883164 56.88342 260.659037 56.88342 511.99968c0 32.46078 3.404798 64.12796 9.855994 94.655941a595.698828 595.698828 0 0 0-42.931173 60.134362A511.74368 511.74368 0 0 1 0.000256 511.99968C0.000256 229.235057 229.235313 0 511.999936 0z m-99.071938 352.42218c4.735997 1.177599 8.511995 4.671997 10.060794 9.279994 6.591996 19.583988 0.6912 46.028771-13.657592 67.737558-14.847991 22.476786-40.038375 42.137574-75.481553 47.37277-34.086379 5.030397-63.027161-2.073599-83.327948-15.078391-19.430388-12.441592-33.663979-32.56318-30.284781-53.555166a14.220791 14.220791 0 0 1 18.995188-11.059193c51.711968 19.199988 109.401532 7.295995 160.4863-41.203174a14.220791 14.220791 0 0 1 13.222392-3.494398z m198.886276 3.494398c51.071968 48.48637 108.761532 60.403162 160.486299 41.203174a14.207991 14.207991 0 0 1 18.982388 11.059193c3.391998 20.991987-10.841593 41.113574-30.271981 53.555166-20.300787 13.004792-49.254369 20.108787-83.327948 15.078391-35.455978-5.235197-60.633562-24.895984-75.481552-47.35997-14.348791-21.721586-20.262387-48.16637-13.670392-67.750358a14.233591 14.233591 0 0 1 23.283186-5.785596z" fill="#FF5308" p-id="1707"></path></svg>