<?xml version="1.0" standalone="no"?><!DOCTYPE svg PUBLIC "-//W3C//DTD SVG 1.1//EN" "http://www.w3.org/Graphics/SVG/1.1/DTD/svg11.dtd"><svg t="1772951094673" class="icon" viewBox="0 0 1024 1024" version="1.1" xmlns="http://www.w3.org/2000/svg" p-id="2026" xmlns:xlink="http://www.w3.org/1999/xlink" width="200" height="200"><path d="M124.1856 701.1584c69.9776 143.9872 217.344 243.2 387.8144 243.2 170.4832 0 317.8496-99.2128 387.8144-243.2h59.2C885.4144 875.8272 712.9856 998.4 512 998.4c-200.9856 0-373.4144-122.5728-447.0016-297.2416h59.1872z m513.1392 15.2064a26.9312 26.9312 0 0 1 34.6624 15.8848 27.0464 27.0464 0 0 1-15.8336 34.7648c-57.1264 21.3504-103.7184 34.2272-149.6064 34.8032-46.528 0.576-89.8944-11.5072-140.8256-35.712a27.0592 27.0592 0 0 1-12.8-35.9936 26.9184 26.9184 0 0 1 35.8784-12.8384c46.2592 21.9776 81.3312 30.9504 117.0816 30.5024 36.3904-0.448 75.9296-10.6624 131.4432-31.4112zM198.8992 214.7584C277.4912 131.5584 388.6976 79.6416 512 79.6416s234.5216 51.904 313.1008 135.1168h70.8736C807.2704 99.6864 668.2624 25.6 512 25.6 355.7376 25.6 216.7424 99.6992 128.0256 214.7584h70.8736zM369.2032 268.8a107.2896 107.2896 0 0 1 81.92 37.8368h121.7664a107.2896 107.2896 0 0 1 81.92-37.8368H1024v135.1168h-26.944V539.008c0 59.6992-48.256 108.096-107.7888 108.096H670.1952c-55.5648 0-102.0288-42.368-107.3024-97.8432l-15.3984-162.1376a108.8 108.8 0 0 1 0.704-26.4576h-72.3968a108.8 108.8 0 0 1 0.704 26.4576l-15.3984 162.1376c-5.2736 55.4752-51.7376 97.8432-107.3024 97.8432H134.7328c-59.52 0-107.776-48.3968-107.776-108.096V403.9168H0V268.8h369.2032z m0 54.0416H134.7328a53.9648 53.9648 0 0 0-53.888 54.0416v162.1376a53.9648 53.9648 0 0 0 53.888 54.0416h219.072a53.952 53.952 0 0 0 53.6448-48.9216l15.3984-162.1248c3.0208-31.744-21.8624-59.1744-53.6448-59.1744z m520.064 0H654.7968c-31.7824 0-56.6656 27.4432-53.6448 59.1744l15.3984 162.1248a53.952 53.952 0 0 0 53.6448 48.9216h219.072c29.76 0 53.888-24.192 53.888-54.0416V376.8832a53.9648 53.9648 0 0 0-53.888-54.0416z m-619.7888 54.0416c29.76 0 53.888 30.2464 53.888 67.5584 0 37.312-24.128 67.5584-53.888 67.5584-29.7728 0-53.888-30.2464-53.888-67.5584 0-37.312 24.1152-67.5584 53.888-67.5584z m485.0432 0c29.7728 0 53.888 30.2464 53.888 67.5584 0 37.312-24.1152 67.5584-53.888 67.5584-29.76 0-53.888-30.2464-53.888-67.5584 0-37.312 24.128-67.5584 53.888-67.5584z" fill="#FF5308" p-id="2027"></path></svg>