<?xml version="1.0" standalone="no"?><!DOCTYPE svg PUBLIC "-//W3C//DTD SVG 1.1//EN" "http://www.w3.org/Graphics/SVG/1.1/DTD/svg11.dtd"><svg t="1772951110846" class="icon" viewBox="0 0 1024 1024" version="1.1" xmlns="http://www.w3.org/2000/svg" p-id="2986" xmlns:xlink="http://www.w3.org/1999/xlink" width="200" height="200"><path d="M521.639552 0c25.5872 0 50.7136 1.92 75.264 5.632 89.7792-22.912 289.9968 94.1184 284.5824 147.1616A505.6128 505.6128 0 0 1 1024.001152 505.6C1024.001152 784.832 799.092352 1011.2 521.639552 1011.2 304.321152 1011.2 119.220352 872.3072 49.217152 677.9008c-53.0176 0.8704-73.8176-220.48-8.064-320.3328C104.065152 150.5536 295.386752 0 521.652352 0zM838.273152 188.672L409.882752 456.2944c-2.2016 58.8544-32.5376 105.4976-69.6448 105.4976-18.8672 0-35.9936-12.0576-48.5504-31.6544l-192.832 120.448c59.9168 177.0752 226.5728 304.448 422.784 304.448 246.6176 0 446.5408-201.216 446.5408-449.4208 0-123.6608-49.6256-235.648-129.92-316.928z m-319.616 457.3696c64.6912 0 121.2928 27.3536 152.2432 68.2112l4.5312 6.144c1.6128 2.176 3.2512 4.352 4.5824 6.6944 10.8288 19.008 17.664 70.528-16.6528 60.1088l-27.392-8.9472c-108.8-35.072-128.64-33.6768-253.8368 8.2304-46.144 14.592-34.048-44.5824-21.4016-64.128 29.3376-45.2992 89.0496-76.3136 157.9264-76.3136zM621.940352 58.88l-2.5344 0.064c-7.68 0.3456-10.7008 1.7408-11.072 1.92l-0.8192 0.5376-503.0016 309.376c-11.264 7.1808-24.832 25.2416-35.1104 59.072-9.8944 32.576-14.272 72.0768-13.4912 109.696 0.5504 26.7904 3.6608 49.8176 7.808 66.8672l745.216-465.536c-13.2352-11.4304-31.9488-24.6144-54.6944-37.4656-32.3712-18.2656-67.9296-33.024-98.4064-40.1152-13.824-3.2-25.2032-4.5056-33.9072-4.416z m81.1136 278.1824c38.528 0 69.76 50.304 69.76 112.3584 0 62.0544-31.232 112.3584-69.76 112.3584-38.528 0-69.7728-50.304-69.7728-112.3584 0-62.0544 31.232-112.3584 69.76-112.3584zM508.660352 56.3584c-163.1616 4.6976-304.4096 97.4848-378.432 232.7552L508.660352 56.3584z" fill="#FF5308" p-id="2987"></path></svg>