<?xml version="1.0" standalone="no"?><!DOCTYPE svg PUBLIC "-//W3C//DTD SVG 1.1//EN" "http://www.w3.org/Graphics/SVG/1.1/DTD/svg11.dtd"><svg t="1772951100039" class="icon" viewBox="0 0 1024 1024" version="1.1" xmlns="http://www.w3.org/2000/svg" p-id="2346" xmlns:xlink="http://www.w3.org/1999/xlink" width="200" height="200"><path d="M598.8096 851.968l1.408-7.8592 5.76 0.8448 5.2096 0.9088 4.9152 0.9472 8.3072 1.792 5.6576 1.3696 3.5456 0.9088c5.76 1.5104 12.032 3.328 18.5216 5.504l6.3232 2.1888 3.2256 1.1904 5.184 2.0224 6.9632 2.9312 5.568 2.5344 6.464 3.2 3.5456 1.8944 3.712 2.0864c1.5872 0.896 3.136 1.8432 4.6848 2.8032l3.2512 2.0736 3.4944 2.3552 3.1744 2.2784 4.5824 3.5456 3.0208 2.5088 2.88 2.5728 2.0992 1.984 2.3424 2.3296 2.2016 2.3424 2.9184 3.3536 1.408 1.7152 0.832 1.0752c0.8192 1.0624 1.6256 2.1376 2.3936 3.2384 23.5648 33.536 16.9216 79.3856-14.848 102.4256a67.7248 67.7248 0 0 1-37.6704 12.928l-2.816 0.0384c-22.6176-0.1536-45.184-11.3152-59.6864-31.936l-1.1264-1.6512-1.7536-2.7264-2.0352-3.4176-1.8944-3.5328-2.112-4.3392-1.8816-4.3136-1.4592-3.7248-1.3312-3.7504-1.5232-4.8-0.64-2.2016a154.752 154.752 0 0 1-1.9456-7.7056l-1.6-7.8976-0.64-3.84-0.9344-6.72-0.384-3.2768a232.3072 232.3072 0 0 1-1.2416-19.0848l-0.1024-8.4864a307.072 307.072 0 0 1 0.8064-20.6848l0.2944-3.8784c0.32-3.84 0.6912-7.424 1.0752-10.688l1.0112-7.808 0.8448-5.568zM511.6416 0c275.4944 0 498.8416 223.04 498.8416 498.1632 0 16.2176-0.768 32.256-2.304 48.0768a132.352 132.352 0 0 0-54.0416-19.3536c0.6016-9.4976 0.9216-19.072 0.9216-28.7232 0-244.5568-198.528-442.816-443.4176-442.816C266.752 55.3472 68.224 253.6064 68.224 498.176c0 244.5568 198.528 442.816 443.4176 442.816 11.8528 0 23.6032-0.4736 35.2128-1.3824 4.5824 18.112 11.7888 36.5312 22.976 53.376a504.8064 504.8064 0 0 1-58.1888 3.3536C236.1344 996.3264 12.8 773.2864 12.8 498.1504 12.8 223.0528 236.1344 0 511.6416 0zM867.712 765.184c31.6288 0.192 64.8064 5.4272 91.904 21.1328 48.5376 28.16 65.9072 88.8192 38.7712 135.488-17.1776 29.5296-48.0384 46.3744-80.6912 47.6416l-3.1744 0.0768a104.2432 104.2432 0 0 1-53.1968-14.208c-76.928-44.608-104.704-173.7216-104.704-173.7216l7.3216-2.0992c16-4.3648 56.192-14.0032 99.9936-14.2976h3.776zM539.3536 525.8496l3.6864 0.0512c74.8288 1.9584 134.8864 63.1424 134.8864 138.3296 0 76.416-62.0416 138.368-138.5728 138.368s-138.56-61.952-138.56-138.368c0-76.416 62.0288-138.368 138.56-138.368z m470.7968 117.4784c3.8144 38.0032-25.7536 71.936-66.048 75.8272-63.8208 6.144-134.5408-56.4992-134.5408-56.4992l2.8672-3.584c12.288-15.0144 62.4768-72.1664 117.8752-77.504 40.2816-3.8784 76.032 23.7696 79.8464 61.76zM360.7296 336.768l83.1488 55.3472a27.6736 27.6736 0 0 1 0 46.0672l-83.1488 55.3472a27.7376 27.7376 0 0 1-36.736-5.4144 27.648 27.648 0 0 1 1.6384-37.056c20.0576-20.3136 22.8608-29.8752 22.8224-34.8672-0.0384-5.5808-3.5712-15.8848-23.552-37.7216a27.648 27.648 0 0 1-0.576-36.6976 27.7376 27.7376 0 0 1 36.4032-5.0048z m412.672 0a27.7376 27.7376 0 0 1 36.4032 5.0048 27.648 27.648 0 0 1-0.576 36.6976c-19.1872 20.9536-23.1936 31.296-23.5264 37.0304l-0.0256 0.6912c-0.0384 4.992 2.7648 14.5536 22.8352 34.8672 9.984 10.112 10.6752 26.112 1.6384 37.056a27.7376 27.7376 0 0 1-36.7488 5.4144l-83.136-55.3472a27.6736 27.6736 0 0 1 0-46.0672l83.136-55.3472z" fill="#FF5308" p-id="2347"></path></svg>