<?xml version="1.0" standalone="no"?><!DOCTYPE svg PUBLIC "-//W3C//DTD SVG 1.1//EN" "http://www.w3.org/Graphics/SVG/1.1/DTD/svg11.dtd"><svg t="1772951115935" class="icon" viewBox="0 0 1024 1024" version="1.1" xmlns="http://www.w3.org/2000/svg" p-id="3306" xmlns:xlink="http://www.w3.org/1999/xlink" width="200" height="200"><path d="M512 0c275.711931 0 499.199875 223.039944 499.199875 498.163075a495.423876 495.423876 0 0 1-110.937572 313.139122A501.171075 501.171075 0 0 1 719.359948 951.449362l-9.049598 4.019199a495.910276 495.910276 0 0 1-90.879977 29.286393A165.939159 165.939159 0 0 1 512 1023.999744c-40.95999 0-78.43838-14.758396-107.430373-39.24479a496.230276 496.230276 0 0 1-83.199979-26.047994l-10.662398-4.543999-1.830399-0.806399C134.412894 875.711781 12.800125 701.107025 12.800125 498.175875 12.800125 223.039944 236.288069 0 512 0z m-27.737593 691.891027h-83.199979v166.054359c0 61.132785 49.663988 110.707172 110.937572 110.707172 61.260785 0 110.937572-49.574388 110.937572-110.707172V691.891027h-83.199979v110.707172c0 15.283196-12.415997 27.673593-27.737593 27.673593a27.699193 27.699193 0 0 1-27.737593-27.673593v-110.707172zM512 55.347186c-245.068739 0-443.737489 198.25915-443.737489 442.815889 0 189.299153 119.03997 350.847912 286.476728 414.207897A165.452759 165.452759 0 0 1 345.600042 857.932586v-58.726386c-25.510394-12.518397-43.199989-27.443193-55.462387-42.137589l-0.703999-0.832c-20.095995-24.473594-25.254394-48.127988-26.572794-58.662385l-0.256-2.176-0.1792-2.675199a25.510394 25.510394 0 0 1-0.0256-0.768l-0.435199-2.265599c-1.3952-8.447998-3.967999-38.96319 29.132792-49.535988l3.647999-1.0368 0.832-0.2176a94.911976 94.911976 0 0 1 22.284795-2.367999H719.999948c2.201599 0 4.313599 0.0896 6.348798 0.256l3.4176 0.3584c40.51199 5.388799 45.107189 44.223989 45.631988 52.991986l0.0384 1.9712c-0.384 3.123199-5.183999 36.607991-38.97599 69.823983l-3.699199 3.519999-1.1264 1.023999c-13.324797 12.108797-30.668792 23.987194-53.235187 34.150392v57.305586c0 19.059195-3.212799 37.375991-9.139197 54.412786A444.838289 444.838289 0 0 0 863.257512 768.767808l5.119999-6.732799 2.841599-3.865599a439.89749 439.89749 0 0 0 83.135979-224.857543c0.9088-11.596797 1.3824-23.321594 1.3824-35.148792C955.737489 253.606337 757.068739 55.347186 512 55.347186zM331.737645 332.108717c38.28479 0 69.324783 49.561588 69.324783 110.707172 0 61.132785-31.039992 110.694372-69.324783 110.694373-38.29759 0-69.337583-49.561588-69.337583-110.694373 0-61.145585 31.039992-110.719972 69.337583-110.719972z m360.52471 0c38.29759 0 69.337583 49.561588 69.337583 110.707172 0 61.132785-31.039992 110.694372-69.337583 110.694373-38.28479 0-69.324783-49.561588-69.324783-110.694373 0-61.145585 31.039992-110.719972 69.324783-110.719972z" fill="#FF5308" p-id="3307"></path></svg>