<?xml version="1.0" standalone="no"?><!DOCTYPE svg PUBLIC "-//W3C//DTD SVG 1.1//EN" "http://www.w3.org/Graphics/SVG/1.1/DTD/svg11.dtd"><svg t="1772951103313" class="icon" viewBox="0 0 1024 1024" version="1.1" xmlns="http://www.w3.org/2000/svg" p-id="2506" xmlns:xlink="http://www.w3.org/1999/xlink" width="200" height="200"><path d="M511.999744 0c282.764659 0 511.999744 229.235085 511.999744 511.999744 0 11.827194-0.3968 23.551988-1.190399 35.174382l-57.663972 7.372797c1.305599-14.003193 1.971199-28.198386 1.971199-42.547179 0-251.353474-203.775898-455.116572-455.116572-455.116572C260.64627 56.883172 56.883172 260.65907 56.883172 511.999744c0 251.353474 203.775898 455.116572 455.116572 455.116572 53.529573 0 104.895948-9.241595 152.601524-26.227186l59.55837 37.222381A510.130945 510.130945 0 0 1 511.999744 1023.999488C229.235085 1023.999488 0 794.764403 0 511.999744S229.235085 0 511.999744 0z m368.895816 914.789943l52.902373 57.151971c10.943995 11.827194 10.879995 29.990385-0.1536 40.57598-11.046394 10.585595-28.863986 9.587195-39.80798-2.239999l-52.902373-57.139172c-10.943995-11.827194-10.879995-30.003185 0.166399-40.575979 11.033594-10.598395 28.863986-9.599995 39.807981 2.227199z m-88.934356-96.076752l25.407987 27.443186c10.943995 11.827194 10.879995 30.003185-0.1664 40.57598-11.033594 10.598395-28.863986 9.599995-39.80798-2.227199l-25.407987-27.455987c-10.943995-11.827194-10.879995-29.990385 0.1664-40.575979 11.033594-10.585595 28.851186-9.587195 39.80798 2.239999z m-223.078288-278.271861c94.259153 0 170.675115 76.415962 170.675114 170.675114 0 94.246353-76.415962 170.662315-170.675114 170.662315-94.246353 0-170.662315-76.415962-170.662315-170.662315 0-94.259153 76.415962-170.675115 170.662315-170.675114z m429.311785 280.51186l4.927997 2.201598c14.489593 6.489597 21.695989 23.487988 16.076792 37.977581-5.631997 14.489593-21.926389 20.96639-36.415981 14.489593l-4.940798-2.214399c-14.489593-6.476797-21.683189-23.487988-16.063992-37.977581 5.619197-14.476793 21.926389-20.96639 36.415982-14.476792z m-174.502313-78.079961l93.055954 41.638379c14.502393 6.476797 21.695989 23.475188 16.076792 37.964781-5.619197 14.489593-21.926389 20.97919-36.415982 14.489593l-93.055954-41.63838c-14.502393-6.489597-21.695989-23.487988-16.076792-37.977581 5.619197-14.489593 21.926389-20.96639 36.415982-14.489592z m128.371136-79.270361l44.083178 3.251199c15.539192 1.151999 27.878386 14.911993 27.545586 30.732784-0.3328 15.833592-13.183993 27.737586-28.735985 26.598387l-44.083178-3.251198c-15.539192-1.151999-27.865586-14.911993-27.545587-30.732785 0.3328-15.833592 13.183993-27.737586 28.735986-26.598387z m-123.519938-9.100795l32.639983 2.393599c15.539192 1.151999 27.865586 14.911993 27.545587 30.745584-0.3328 15.833592-13.196793 27.737586-28.735986 26.585587l-32.639984-2.406399c-15.539192-1.139199-27.865586-14.899193-27.545586-30.732785 0.3328-15.833592 13.196793-27.737586 28.735986-26.585586zM357.119821 346.111827l85.324758 56.883172a28.441586 28.441586 0 0 1 0 47.334376l-85.337558 56.895971a28.441586 28.441586 0 0 1-36.031982-43.647978c20.60799-20.87679 23.475188-30.707185 23.423989-35.839982l-0.0768-1.471999c-0.64-6.041597-5.209597-16.639992-24.089588-37.299181A28.441586 28.441586 0 0 1 357.119821 346.111827z m423.551789 0a28.441586 28.441586 0 0 1 36.761581 42.854379c-20.50559 22.438389-24.127988 33.023983-24.166388 38.78398l0.0512 1.318399c0.4864 5.452797 4.428798 15.295992 23.372789 34.508783a28.441586 28.441586 0 0 1-36.019182 43.647978l-85.337558-56.895971a28.441586 28.441586 0 0 1 0-47.334376l85.337558-56.883172z" fill="#FF5308" p-id="2507"></path></svg>