<?xml version="1.0" standalone="no"?><!DOCTYPE svg PUBLIC "-//W3C//DTD SVG 1.1//EN" "http://www.w3.org/Graphics/SVG/1.1/DTD/svg11.dtd"><svg t="1772951134183" class="icon" viewBox="0 0 1024 1024" version="1.1" xmlns="http://www.w3.org/2000/svg" p-id="4426" xmlns:xlink="http://www.w3.org/1999/xlink" width="200" height="200"><path d="M512 0c282.7648 0 512 229.2352 512 512S794.7648 1024 512 1024 0 794.7648 0 512 229.2352 0 512 0z m0 56.8832C260.6464 56.8832 56.8832 260.6592 56.8832 512c0 251.3536 203.776 455.1168 455.1168 455.1168 251.3536 0 455.1168-203.776 455.1168-455.1168 0-251.3536-203.776-455.1168-455.1168-455.1168z m0 483.5584c114.8672 0 214.4256 69.3632 263.3472 170.6752 13.3376 27.6096-8.9984 56.8832-39.68 56.8832H288.3328c-30.6688 0-52.992-29.2736-39.6672-56.8832C297.5744 609.792 397.1328 540.4416 512 540.4416z m-99.072-188.0192c4.736 1.1776 8.512 4.672 10.0608 9.2672 6.592 19.5968 0.6912 46.0416-13.6576 67.7504-14.848 22.4768-40.0384 42.1376-75.4816 47.36-34.0864 5.0432-63.0272-2.0608-83.328-15.0656-19.4304-12.4416-33.664-32.576-30.2848-53.5552a14.2208 14.2208 0 0 1 18.9952-11.0592c51.712 19.2 109.4016 7.296 160.4864-41.216a14.2208 14.2208 0 0 1 13.2224-3.4816z m198.8864 3.4944c51.072 48.4864 108.7616 60.4032 160.4864 41.2032a14.2208 14.2208 0 0 1 18.9824 11.0592c3.392 20.992-10.8416 41.1136-30.272 53.5552-20.3008 13.0048-49.2544 20.1088-83.328 15.0784-35.456-5.2352-60.6336-24.896-75.4816-47.3728-14.3488-21.7088-20.2624-48.1536-13.6704-67.7504a14.2208 14.2208 0 0 1 23.2832-5.7728z" fill="#FF5308" p-id="4427"></path></svg>