<?xml version="1.0" standalone="no"?><!DOCTYPE svg PUBLIC "-//W3C//DTD SVG 1.1//EN" "http://www.w3.org/Graphics/SVG/1.1/DTD/svg11.dtd"><svg t="1772951113389" class="icon" viewBox="0 0 1024 1024" version="1.1" xmlns="http://www.w3.org/2000/svg" p-id="3146" xmlns:xlink="http://www.w3.org/1999/xlink" width="200" height="200"><path d="M511.99968 0c282.764623 0 511.99968 229.235057 511.99968 511.99968 0 4.761597-0.064 9.497594-0.192 14.220791h-56.921564c0.1536-4.723197 0.2304-9.471994 0.2304-14.220791 0-251.353443-203.775873-455.116516-455.116516-455.116516C260.646237 56.883164 56.883164 260.659037 56.883164 511.99968c0 251.353443 203.775873 455.116516 455.116516 455.116516a453.145317 453.145317 0 0 0 211.187068-51.865568l27.148783 50.009569A509.785281 509.785281 0 0 1 511.99968 1023.99936C229.235057 1023.99936 0 794.764303 0 511.99968S229.235057 0 511.99968 0z m341.337387 540.441262l5.606396 5.145597c22.911986 21.606386 108.159932 107.775933 108.159933 193.971079a113.779129 113.779129 0 0 1-227.545458 0c0-99.558338 113.779129-199.116676 113.779129-199.116676zM375.462165 750.937131c68.275157-91.020743 204.799872-91.020743 273.07503 0a28.441582 28.441582 0 0 1-45.516772 34.124778c-45.503972-60.671962-136.537515-60.671962-182.041486 0a28.441582 28.441582 0 0 1-45.516772-34.124778z m24.255985-309.683007a14.220791 14.220791 0 0 1 23.270386 5.772797c6.591996 19.583988 0.6912 46.028771-13.657592 67.750357-14.847991 22.476786-40.038375 42.137574-75.481553 47.359971-34.086379 5.043197-63.027161-2.060799-83.327948-15.065591-19.430388-12.441592-33.663979-32.57598-30.284781-53.555166a14.220791 14.220791 0 0 1 18.995188-11.071994c51.711968 19.199988 109.401532 7.295995 160.4863-41.190374z m212.095868 0c51.071968 48.48637 108.761532 60.403162 160.486299 41.190374a14.207991 14.207991 0 0 1 18.982388 11.071994c3.391998 20.991987-10.841593 41.113574-30.271981 53.555166-20.300787 13.004792-49.254369 20.095987-83.327948 15.078391-35.455978-5.235197-60.633562-24.895984-75.481552-47.372771-14.348791-21.721586-20.262387-48.15357-13.670392-67.750357a14.233591 14.233591 0 0 1 23.283186-5.772797z" fill="#FF5308" p-id="3147"></path></svg>