<?xml version="1.0" standalone="no"?><!DOCTYPE svg PUBLIC "-//W3C//DTD SVG 1.1//EN" "http://www.w3.org/Graphics/SVG/1.1/DTD/svg11.dtd"><svg t="1772951105661" class="icon" viewBox="0 0 1024 1024" version="1.1" xmlns="http://www.w3.org/2000/svg" p-id="2666" xmlns:xlink="http://www.w3.org/1999/xlink" width="200" height="200"><path d="M512 0c282.7648 0 512 229.2352 512 512S794.7648 1024 512 1024 0 794.7648 0 512 229.2352 0 512 0z m0 56.8832C260.6464 56.8832 56.8832 260.6592 56.8832 512c0 251.3536 203.776 455.1168 455.1168 455.1168 251.3536 0 455.1168-203.776 455.1168-455.1168 0-251.3536-203.776-455.1168-455.1168-455.1168z m-0.512 654.2336c85.8112 0 160.9856 21.3504 202.752 53.3504l2.048 1.5744c5.504 4.1856 11.1104 8.4224 15.04 14.08 12.1088 17.4336 16.1664 51.1744-26.0224 43.4944l-42.5344-8.256c-140.6208-26.7904-168.7552-25.2416-334.2464 7.7056-61.8368 11.6224-45.6448-35.5456-28.672-51.1232 39.3216-36.1088 119.3344-60.8256 211.648-60.8256zM181.9392 322.3424c32.9728 4.8512 82.8928 15.5264 132.8384 32 49.2672 16.256 101.888 39.232 137.6 70.1056l-37.1968 43.0336c-8.448-7.296-18.5472-14.2848-29.8752-20.9152 8.1536 18.5088 12.928 41.088 12.928 65.4336 0 62.848-31.8336 113.7792-71.104 113.7792C287.8336 625.7792 256 574.8352 256 512c0-45.9136 16.9984-85.4656 41.472-103.4496l-0.5376-0.1792c-46.6304-15.3856-93.3248-25.344-123.2768-29.7472l8.2688-56.2816z m645.9264 0l8.2688 56.2816-8.832 1.3824a798.6688 798.6688 0 0 0-105.3952 25.4464C748.8256 421.6448 768 463.232 768 512c0 62.848-31.8336 113.7792-71.1168 113.7792-39.2704 0-71.104-50.944-71.104-113.7792 0-29.1584 6.848-55.744 18.1248-75.8784-19.3408 9.6-36.2752 20.1216-49.28 31.36l-37.2096-43.0336c35.712-30.8736 88.3328-53.8368 137.6-70.1056 49.9456-16.4736 99.8656-27.1488 132.8384-32z" fill="#FF5308" p-id="2667"></path></svg>