<?xml version="1.0" standalone="no"?><!DOCTYPE svg PUBLIC "-//W3C//DTD SVG 1.1//EN" "http://www.w3.org/Graphics/SVG/1.1/DTD/svg11.dtd"><svg t="1772951140589" class="icon" viewBox="0 0 1024 1024" version="1.1" xmlns="http://www.w3.org/2000/svg" p-id="4746" xmlns:xlink="http://www.w3.org/1999/xlink" width="200" height="200"><path d="M512 0c282.7648 0 512 229.2352 512 512S794.7648 1024 512 1024 0 794.7648 0 512 229.2352 0 512 0z m0 56.8832C260.6464 56.8832 56.8832 260.6592 56.8832 512c0 251.3536 203.776 455.1168 455.1168 455.1168 251.3536 0 455.1168-203.776 455.1168-455.1168 0-251.3536-203.776-455.1168-455.1168-455.1168zM359.5776 641.664c49.4592-7.8336 113.28-0.7424 166.592 56.7424l215.1552 26.1248a28.4416 28.4416 0 0 1 13.6704 50.9824l-2.112 1.4336-4.224 2.5216-2.9696 1.664-4.224 2.24c-3.8912 2.0224-8.6656 4.352-14.208 6.8224-15.424 6.8352-37.3376 14.7712-62.8352 18.816-50.7904 8.0384-116.7232 0.3456-170.8672-61.4912l-3.3664-3.9296c-38.656-46.1952-83.968-51.712-121.728-45.7472a199.04 199.04 0 0 0-48.6784 14.6432l-4.9152 2.2656c-3.0592 1.4464-5.6576 2.7776-7.7568 3.8912l-3.5456 1.9584-2.2272 1.3184a28.4544 28.4544 0 0 1-32.2432-46.8224l2.0224-1.3824 4.224-2.5088 2.9696-1.664 4.224-2.24c3.8912-2.0224 8.6656-4.3648 14.208-6.8224 15.424-6.8352 37.3376-14.784 62.8352-18.816z m337.3056-300.3264c39.2832 0 71.1168 50.944 71.1168 113.7792 0 62.8352-31.8336 113.7664-71.1168 113.7664-39.2704 0-71.104-50.944-71.104-113.7664 0-62.848 31.8336-113.792 71.104-113.792zM428.16 412.8a14.2208 14.2208 0 0 1 23.2704 5.7856c6.592 19.584 0.6912 46.0288-13.6576 67.7376-14.848 22.4768-40.0384 42.1504-75.4688 47.3728-34.0992 5.0432-63.04-2.0736-83.3408-15.0784-19.4304-12.4416-33.664-32.5632-30.2848-53.5424a14.2208 14.2208 0 0 1 18.9952-11.072c51.712 19.2 109.4016 7.296 160.4864-41.2032z" fill="#FF5308" p-id="4747"></path></svg>