<?xml version="1.0" standalone="no"?><!DOCTYPE svg PUBLIC "-//W3C//DTD SVG 1.1//EN" "http://www.w3.org/Graphics/SVG/1.1/DTD/svg11.dtd"><svg t="1772951130679" class="icon" viewBox="0 0 1024 1024" version="1.1" xmlns="http://www.w3.org/2000/svg" p-id="4266" xmlns:xlink="http://www.w3.org/1999/xlink" width="200" height="200"><path d="M512 0v56.8832C260.6464 56.8832 56.8832 260.6592 56.8832 512c0 251.3536 203.776 455.1168 455.1168 455.1168 251.3536 0 455.1168-203.776 455.1168-455.1168 0-45.4656-6.6688-89.3824-19.072-130.816l54.4896-16.3456A512 512 0 0 1 1024 512c0 282.7648-229.2352 512-512 512S0 794.7648 0 512 229.2352 0 512 0z m-7.3728 625.1008c88.7552-23.7824 183.6416 22.6048 247.6672 110.336 18.0224 24.704 3.1872 58.0352-26.3552 65.9456l-324.8384 87.04c-29.5424 7.9232-59.0592-13.5296-55.808-43.9424 11.5968-107.9808 70.5792-195.584 159.3344-219.3792zM367.6416 496.6144c4.864-0.0896 9.4208 2.304 12.1088 6.3488 11.4304 17.216 12.5696 44.288 4.3392 68.9664-8.5248 25.5616-27.776 51.072-60.6464 65.2928-31.616 13.696-61.4272 14.3104-84.4032 7.0016-21.9776-6.9888-40.9472-22.7456-43.0976-43.8784a14.208 14.208 0 0 1 15.4752-15.616c54.9248 5.1712 107.5584-21.2736 144.3584-81.3312a14.208 14.208 0 0 1 11.8656-6.784z m370.6496-51.968c4.096 1.1136 7.488 4.0192 9.2288 7.8976 8.704 19.392 0.1664 42.5088-15.3856 59.5584-16.2432 17.8176-42.368 32.1792-76.5824 36.1344-35.584 4.1216-65.0112-8.3584-85.1712-26.2144-19.4816-17.2672-32.0256-41.28-30.72-61.9136a14.2208 14.2208 0 0 1 20.9792-11.5968c61.888 33.6128 120.6912 30.1824 165.6832-1.7408 3.456-2.4704 7.8592-3.2512 11.968-2.1248zM432.32 182.3616a28.4416 28.4416 0 0 1 42.4576 28.032l-12.8512 106.6752 36.1216-20.864a28.4544 28.4544 0 0 1 28.4416 49.28l-85.376 49.2928a28.4416 28.4416 0 0 1-42.4704-28.032l12.8512-106.6752-26.6368 15.3728a28.4416 28.4416 0 0 1-28.4416-49.2672l75.904-43.8144zM995.5584 0a28.4416 28.4416 0 0 1 24.1152 43.52l-115.0208 184.0384h90.9056a28.4416 28.4416 0 1 1 0 56.8832H853.3376a28.4416 28.4416 0 0 1-24.128-43.52l115.0208-184.0384h-75.0976a28.4416 28.4416 0 1 1 0-56.8832h126.4256zM722.3552 38.016c7.1424 8.064 9.1264 19.4688 5.12 29.4656L669.184 212.672l68.6976-18.4064a28.4416 28.4416 0 0 1 14.72 54.9504l-123.648 33.1264a28.4416 28.4416 0 0 1-33.7536-38.0672L653.4784 99.072l-54.9504 14.72A28.4416 28.4416 0 0 1 583.808 58.88l109.9008-29.4528a28.4416 28.4416 0 0 1 28.6464 8.6016z" fill="#FF5308" p-id="4267"></path></svg>