<?xml version="1.0" standalone="no"?><!DOCTYPE svg PUBLIC "-//W3C//DTD SVG 1.1//EN" "http://www.w3.org/Graphics/SVG/1.1/DTD/svg11.dtd"><svg t="1772951081158" class="icon" viewBox="0 0 1024 1024" version="1.1" xmlns="http://www.w3.org/2000/svg" p-id="1226" xmlns:xlink="http://www.w3.org/1999/xlink" width="200" height="200"><path d="M512 0c282.7648 0 512 229.2352 512 512S794.7648 1024 512 1024 0 794.7648 0 512 229.2352 0 512 0z m0 56.8832C260.6464 56.8832 56.8832 260.6592 56.8832 512c0 251.3536 203.776 455.1168 455.1168 455.1168 251.3536 0 455.1168-203.776 455.1168-455.1168 0-251.3536-203.776-455.1168-455.1168-455.1168z m243.712 647.1424a28.4416 28.4416 0 1 1-12.16 55.5776l-13.3888-2.8544c-94.1184-19.392-151.0656-17.856-191.232-6.9888-37.312 10.0864-62.6688 28.7104-93.312 53.3248l-11.1104 8.9856a28.4416 28.4416 0 0 1-35.8016-44.2112l11.904-9.6384c31.2448-25.1776 64.704-50.2016 113.4592-63.3856 54.6688-14.7712 125.4016-14.0544 231.6288 9.1904zM327.104 341.3376c39.2704 0 71.104 50.944 71.104 113.7792 0 62.8352-31.8336 113.7664-71.104 113.7664-39.2832 0-71.1168-50.944-71.1168-113.7664 0-62.848 31.8336-113.792 71.1168-113.792z m369.7664 0c39.2832 0 71.1168 50.944 71.1168 113.7792 0 62.8352-31.8336 113.7664-71.1168 113.7664-39.2704 0-71.104-50.944-71.104-113.7664 0-62.848 31.8336-113.792 71.104-113.792z" fill="#FF5308" p-id="1227"></path></svg>