<?xml version="1.0" standalone="no"?><!DOCTYPE svg PUBLIC "-//W3C//DTD SVG 1.1//EN" "http://www.w3.org/Graphics/SVG/1.1/DTD/svg11.dtd"><svg t="1772951118822" class="icon" viewBox="0 0 1024 1024" version="1.1" xmlns="http://www.w3.org/2000/svg" p-id="3466" xmlns:xlink="http://www.w3.org/1999/xlink" width="200" height="200"><path d="M512 0c282.7648 0 512 229.2352 512 512S794.7648 1024 512 1024 0 794.7648 0 512 229.2352 0 512 0z m0 56.8832C260.6464 56.8832 56.8832 260.6592 56.8832 512c0 251.3536 203.776 455.1168 455.1168 455.1168 251.3536 0 455.1168-203.776 455.1168-455.1168 0-251.3536-203.776-455.1168-455.1168-455.1168z m214.1056 540.4544c5.2736 0 10.368 0.704 15.1552 2.0352 28.1216 7.744 46.3744 36.4544 35.4816 65.408l-1.408 3.6608a415.296 415.296 0 0 1-38.016 75.3408c-5.8496 9.1264-12.0064 17.8816-18.4576 26.24-53.312 69.1328-126.336 111.744-206.8608 111.744-80.5376 0-153.5488-42.6112-206.848-111.744a374.4512 374.4512 0 0 1-18.4832-26.24 411.648 411.648 0 0 1-35.0592-67.8912l-2.944-7.4496-1.408-3.6608a47.2704 47.2704 0 0 1 4.352-42.7136 53.7856 53.7856 0 0 1 31.1296-22.6944 56.896 56.896 0 0 1 15.1552-2.048h428.2112z m-7.1424 58.9184H308.5056v8.128a354.432 354.432 0 0 0 25.984 48.768h355.0208a363.4176 363.4176 0 0 0 29.44-56.8832zM336.512 350.528c36.992 1.5616 64.384 23.2448 80.896 46.8352 8.2944 11.8272 14.1824 24.5632 17.3696 36.3776 3.072 11.3408 4.1728 23.7696 0.4736 33.9456a14.2336 14.2336 0 0 1-20.736 7.3088 175.7184 175.7184 0 0 1-17.536-12.48l-9.7792-7.8976c-5.12-4.1856-10.0864-8.2304-15.1808-12.0448-14.272-10.6752-25.6-16.2944-35.4048-15.8208-10.3168 0.512-22.7712 7.7056-38.7584 20.352-2.2528 1.7664-4.5952 3.6736-6.9888 5.6448l-17.024 14.1568c-8.1664 6.6944-16.576 13.2736-24.6912 18.4832a14.2208 14.2208 0 0 1-21.76-10.0352c-1.4336-10.368 0.7296-23.3472 4.7872-36.032a158.1568 158.1568 0 0 1 19.7632-40.2816c17.6384-25.8048 46.2592-50.112 84.5696-48.512z m348.544 0c38.3104-1.6 66.944 22.7072 84.5696 48.512 8.96 13.0944 15.6032 27.264 19.776 40.2816 4.0576 12.672 6.208 25.6512 4.7872 36.032a14.208 14.208 0 0 1-21.7728 10.0352c-8.1152-5.2096-16.5248-11.7888-24.6912-18.4832l-17.024-14.1568c-2.3936-1.9712-4.736-3.8784-6.9888-5.6576-16-12.6336-28.4288-19.84-38.7584-20.3392-9.792-0.4736-21.12 5.1456-35.392 15.8208-3.4048 2.5472-6.7456 5.1968-10.112 7.9104l-10.6368 8.6528c-6.9376 5.6064-14.3232 11.3664-21.76 15.872a14.2208 14.2208 0 0 1-20.736-7.3216c-3.6992-10.176-2.5856-22.6048 0.4736-33.9456 3.2-11.8144 9.088-24.5504 17.3568-36.3776 16.512-23.5904 43.904-45.2736 80.9088-46.8352z" fill="#FF5308" p-id="3467"></path></svg>