<?xml version="1.0" standalone="no"?><!DOCTYPE svg PUBLIC "-//W3C//DTD SVG 1.1//EN" "http://www.w3.org/Graphics/SVG/1.1/DTD/svg11.dtd"><svg t="1772951097181" class="icon" viewBox="0 0 1024 1024" version="1.1" xmlns="http://www.w3.org/2000/svg" p-id="2186" xmlns:xlink="http://www.w3.org/1999/xlink" width="200" height="200"><path d="M512 0c282.7648 0 512 229.2352 512 512S794.7648 1024 512 1024 0 794.7648 0 512 229.2352 0 512 0z m0 56.8832C260.6464 56.8832 56.8832 260.6592 56.8832 512c0 251.3536 203.776 455.1168 455.1168 455.1168 251.3536 0 455.1168-203.776 455.1168-455.1168 0-251.3536-203.776-455.1168-455.1168-455.1168z m199.1168 625.792a28.4416 28.4416 0 1 1 0 56.8832H312.8832a28.4416 28.4416 0 1 1 0-56.896h398.2336z m-384-369.792c39.2704 0 71.104 50.944 71.104 113.792 0 62.8224-31.8336 113.7664-71.104 113.7664-39.2832 0-71.1168-50.944-71.1168-113.7792 0-62.8352 31.8336-113.7792 71.1168-113.7792z m369.7664 0c39.2832 0 71.1168 50.944 71.1168 113.792 0 62.8224-31.8336 113.7664-71.1168 113.7664-39.2704 0-71.104-50.944-71.104-113.7792 0-62.8352 31.8336-113.7792 71.104-113.7792z" fill="#FF5308" p-id="2187"></path></svg>