<?xml version="1.0" standalone="no"?><!DOCTYPE svg PUBLIC "-//W3C//DTD SVG 1.1//EN" "http://www.w3.org/Graphics/SVG/1.1/DTD/svg11.dtd"><svg t="1772951128639" class="icon" viewBox="0 0 1024 1024" version="1.1" xmlns="http://www.w3.org/2000/svg" p-id="4106" xmlns:xlink="http://www.w3.org/1999/xlink" width="200" height="200"><path d="M512 0c282.7648 0 512 229.2352 512 512S794.7648 1024 512 1024 0 794.7648 0 512 229.2352 0 512 0z m0 56.8832C260.6464 56.8832 56.8832 260.6592 56.8832 512c0 251.3536 203.776 455.1168 455.1168 455.1168 251.3536 0 455.1168-203.776 455.1168-455.1168 0-251.3536-203.776-455.1168-455.1168-455.1168z m176.6784 575.488c15.6288 9.152 21.0304 24.4864 22.1568 36.352 1.1008 11.4688-1.28 22.6944-4.288 31.4752-3.0208 8.8192-7.616 17.8688-13.4016 24.96-36.608 44.8384-106.1504 71.296-180.7744 71.296-69.6576 0-134.5152-23.0016-172.6464-62.208l-6.3488-6.7072a80.8192 80.8192 0 0 1-7.3344-9.0496c-4.8512-7.2192-8.4096-15.8976-10.5728-24.32-2.1376-8.3456-3.456-18.6624-1.8816-29.0432 1.5872-10.4192 6.8352-24.32 20.9664-32.8192 12.7744-7.68 27.0336-7.424 39.3856-4.3904l20.0448 5.2096c55.4368 14.272 85.0816 20.736 114.5088 20.864l5.888-0.064c28.608-0.6912 59.6224-7.424 115.9168-22.1952l12.3904-3.2768c14.7968-3.712 31.5392-4.5184 45.9904 3.9296zM332.7232 369.408l3.8016 0.0768c36.992 1.536 64.384 23.232 80.896 46.8224 8.2944 11.8272 14.1824 24.5632 17.3696 36.3776 3.072 11.3408 4.1728 23.7696 0.4736 33.9456a14.2208 14.2208 0 0 1-20.736 7.3088 176.3328 176.3328 0 0 1-17.536-12.48L387.2512 473.6c-5.1712-4.224-10.112-8.2688-15.232-12.0832-14.2592-10.6752-25.6-16.2944-35.392-15.8208-10.3168 0.512-22.7712 7.7056-38.7584 20.352-2.2528 1.7664-4.5952 3.6736-6.9888 5.6448l-17.024 14.1568c-8.1664 6.6944-16.576 13.2736-24.6912 18.4832a14.208 14.208 0 0 1-21.76-10.0352c-1.4336-10.368 0.7296-23.3472 4.7872-36.032a158.208 158.208 0 0 1 19.7632-40.2816c17.0496-24.9344 44.3648-48.4864 80.768-48.576z m436.9152 48.576a158.208 158.208 0 0 1 19.776 40.2816c4.0576 12.672 6.208 25.664 4.7872 36.032a14.208 14.208 0 0 1-21.7728 10.0352c-8.1152-5.2096-16.5248-11.7888-24.6912-18.4832l-17.024-14.1568c-2.3936-1.9712-4.736-3.8784-6.9888-5.6576-16-12.6336-28.4288-19.8272-38.7584-20.3392-9.792-0.4736-21.12 5.1456-35.392 15.8208-3.4048 2.5472-6.7456 5.1968-10.112 7.9104l-10.6368 8.6656c-6.9376 5.5936-14.3232 11.3536-21.76 15.8464a14.2336 14.2336 0 0 1-20.736-7.3088c-3.6992-10.176-2.5856-22.6048 0.4736-33.9456 3.2-11.8144 9.088-24.5504 17.3568-36.3776 16.512-23.5904 43.904-45.2736 80.9088-46.8224 38.3104-1.6128 66.944 22.6944 84.5696 48.512z" fill="#FF5308" p-id="4107"></path></svg>