<?xml version="1.0" standalone="no"?><!DOCTYPE svg PUBLIC "-//W3C//DTD SVG 1.1//EN" "http://www.w3.org/Graphics/SVG/1.1/DTD/svg11.dtd"><svg t="1772951138431" class="icon" viewBox="0 0 1024 1024" version="1.1" xmlns="http://www.w3.org/2000/svg" p-id="4586" xmlns:xlink="http://www.w3.org/1999/xlink" width="200" height="200"><path d="M512 0c275.712 0 499.2 223.04 499.2 498.1632 0 146.304-63.1936 277.8624-163.84 368.9984 1.3952 1.1136 2.7392 2.2528 4.0192 3.4176 10.9824 9.9072 21.1584 24.2304 21.1584 42.7136 0 27.2896-21.504 45.3632-39.7824 56.1536-20.1344 11.8656-47.4112 21.6064-78.7072 29.4144C691.0464 1014.5792 605.4784 1024 512 1024c-93.4784 0-179.0464-9.4208-242.048-25.1392-31.296-7.808-58.5728-17.536-78.72-29.4144l-4.2496-2.624c-17.2032-11.008-35.52-28.3392-35.52-53.5296 0-18.4832 10.176-32.8064 21.1456-42.7136 1.2928-1.152 2.6368-2.304 4.0192-3.4176C75.9936 776.0256 12.8 644.4544 12.8 498.176 12.8 223.04 236.288 0 512 0z m0.2304 695.3472h-0.4608c-9.28 0-18.4832 0.2304-27.5072 0.6784v161.92c0 15.2832-12.416 27.6736-27.7248 27.6736a27.6992 27.6992 0 0 1-27.7376-27.6736V702.016c-8.5504 1.5232-16.5248 3.2896-23.7824 5.2992-14.1696 3.9296-23.6544 8.256-28.992 12.0704-1.344 0.96-2.1888 1.6896-2.688 2.1888v143.7696l-23.7696 3.4176c-48.576 7.0144-87.552 16.8704-113.6384 27.904-12.0576 5.12-20.0704 9.9328-24.8832 13.9136l-1.2416 1.0624c-0.704 0.64-1.2544 1.1904-1.7024 1.664 1.5744 1.728 4.8128 4.6208 11.3664 8.4864 13.5424 7.9872 34.9952 16.1408 63.936 23.36 57.4464 14.336 138.2784 23.5008 228.5952 23.5008 90.3168 0 171.1488-9.1648 228.608-23.5008 28.928-7.2192 50.3808-15.36 63.9232-23.36 6.5536-3.8656 9.792-6.7584 11.3664-8.4864l-1.0496-1.0496-0.6528-0.6144c-4.6336-4.1728-12.9792-9.408-26.112-14.976-26.0864-11.0336-65.0752-20.8896-113.6512-27.904l-23.7696-3.4176V721.5744l-1.024-0.9216a28.1472 28.1472 0 0 0-1.664-1.28c-5.3376-3.8016-14.8224-8.128-28.992-12.0576a260.8512 260.8512 0 0 0-23.7824-5.2992v155.9296c0 15.2832-12.416 27.6736-27.7376 27.6736a27.6992 27.6992 0 0 1-27.7248-27.6736v-161.92a561.9456 561.9456 0 0 0-27.5072-0.6784z m-0.2304-640c-245.0688 0-443.7376 198.2592-443.7376 442.816 0 137.5104 62.8096 260.3776 161.3568 341.5936 24.6784-8.8192 54.656-16.2048 88.2432-22.016v-10.5856c-17.664-21.8496-27.7248-46.9888-27.7248-73.7536 0-84.0576 99.328-152.2176 221.8624-152.2176 122.5344 0 221.8624 68.16 221.8624 152.2176 0 26.752-10.0608 51.904-27.7248 73.7536v10.5856c33.5744 5.8112 63.5648 13.1968 88.2432 22.016 98.5472-81.216 161.3568-204.0832 161.3568-341.5936C955.7376 253.6064 757.0688 55.3472 512 55.3472z m-206.4768 336.768l83.2 55.3472a27.6608 27.6608 0 0 1 0 46.0544l-83.2 55.3472a27.776 27.776 0 0 1-36.7744-5.4016 27.6352 27.6352 0 0 1 1.6384-37.056c20.0832-20.3264 22.8864-29.8752 22.848-34.88l-0.0896-1.4336c-0.6272-5.8624-5.0816-16.192-23.488-36.288a27.6352 27.6352 0 0 1-0.576-36.6976 27.776 27.776 0 0 1 36.4416-4.992z m449.3952 4.992c9.1264 10.624 8.8832 26.368-0.576 36.6976-20.0064 21.8368-23.5264 32.1408-23.5776 37.7216l0.0512 1.2928c0.4736 5.2992 4.3264 14.8864 22.7968 33.5872 9.984 10.112 10.688 26.112 1.6384 37.056a27.776 27.776 0 0 1-36.7744 5.4016l-83.2-55.3472a27.6608 27.6608 0 0 1 0-46.0544l83.2-55.36a27.776 27.776 0 0 1 36.4416 5.0048z" fill="#FF5308" p-id="4587"></path></svg>