<?xml version="1.0" standalone="no"?><!DOCTYPE svg PUBLIC "-//W3C//DTD SVG 1.1//EN" "http://www.w3.org/Graphics/SVG/1.1/DTD/svg11.dtd"><svg t="1772951086539" class="icon" viewBox="0 0 1024 1024" version="1.1" xmlns="http://www.w3.org/2000/svg" p-id="1546" xmlns:xlink="http://www.w3.org/1999/xlink" width="200" height="200"><path d="M512 0c282.7648 0 512 229.2352 512 512S794.7648 1024 512 1024 0 794.7648 0 512 229.2352 0 512 0z m0 56.8832C260.6464 56.8832 56.8832 260.6592 56.8832 512c0 251.3536 203.776 455.1168 455.1168 455.1168 251.3536 0 455.1168-203.776 455.1168-455.1168 0-251.3536-203.776-455.1168-455.1168-455.1168z m-3.072 568.896c73.5488 0 140.4672 30.9376 178.1504 80.7296l6.656 8.9984c1.4848 2.0992 3.1104 4.4928 4.3264 6.6304 4.672 8.128 8.064 18.1248 10.1504 27.6736 2.0992 9.6256 3.328 20.9664 2.1504 31.9616-1.0752 10.112-4.8384 25.6-18.2016 36.0704-14.0416 11.008-30.72 10.6624-44.672 6.336l-19.648-6.4c-56.576-18.2656-85.9776-26.24-114.9952-26.4064-29.9136-0.1792-60.992 7.9872-122.5472 28.2496l-11.9808 3.968c-15.9232 4.992-34.752 6.1312-50.3936-5.3376-15.0016-10.9824-19.008-27.776-19.8784-39.168-0.9088-12.0448 1.0624-24.3456 3.84-34.5216 2.7776-10.112 6.9888-20.4928 12.2624-28.5952 36.096-55.36 106.8032-90.1888 184.7936-90.1888z m-96-244.9024c4.736 1.1648 8.512 4.6592 10.0608 9.2672 6.592 19.584 0.6912 46.0288-13.6576 67.7376-14.848 22.4768-40.0384 42.1504-75.4816 47.3728-34.0864 5.0304-63.0272-2.0736-83.328-15.0784-19.4304-12.4416-33.664-32.5632-30.2848-53.5424a14.2208 14.2208 0 0 1 18.9952-11.072c51.712 19.2 109.4016 7.296 160.4864-41.2032a14.2208 14.2208 0 0 1 13.2224-3.4816z m185.664 0c4.7104-1.1776 9.6896 0.128 13.2224 3.4816 51.072 48.4864 108.7616 60.416 160.4864 41.2032a14.208 14.208 0 0 1 18.9824 11.072c3.392 20.9792-10.8416 41.1008-30.272 53.5424-20.3008 13.0048-49.2544 20.1088-83.328 15.0784-35.456-5.2224-60.6336-24.896-75.4816-47.36-14.3488-21.7216-20.2624-48.1664-13.6704-67.7504 1.5488-4.608 5.3376-8.1024 10.0608-9.2672z" fill="#FF5308" p-id="1547"></path></svg>