<?xml version="1.0" standalone="no"?><!DOCTYPE svg PUBLIC "-//W3C//DTD SVG 1.1//EN" "http://www.w3.org/Graphics/SVG/1.1/DTD/svg11.dtd"><svg t="1772951121827" class="icon" viewBox="0 0 1024 1024" version="1.1" xmlns="http://www.w3.org/2000/svg" p-id="3626" xmlns:xlink="http://www.w3.org/1999/xlink" width="200" height="200"><path d="M512 0c282.7648 0 512 229.2352 512 512S794.7648 1024 512 1024 0 794.7648 0 512 229.2352 0 512 0z m0 56.8832C260.6464 56.8832 56.8832 260.6592 56.8832 512c0 251.3536 203.776 455.1168 455.1168 455.1168 251.3536 0 455.1168-203.776 455.1168-455.1168 0-251.3536-203.776-455.1168-455.1168-455.1168zM373.376 684.6336l31.36 8.128c46.8992 11.9296 74.2912 17.5872 100.8128 18.0864l2.944 0.0256c28.3776 0.128 57.6-5.632 110.5024-19.3152l23.6928-6.2208c14.0288-3.5072 28.3648-4.7744 41.3696-1.408 14.1056 3.6608 26.9184 13.1328 32.2944 28.9024 4.8128 14.1568 1.8176 28.2624-2.7648 39.0656-4.7616 11.2-12.48 21.9904-21.9648 31.872-36.7616 38.272-101.1968 69.568-179.2512 69.568-77.8624 0-143.2704-31.1936-179.4816-69.824-9.2672-9.8816-16.704-20.5056-21.44-31.36-4.5312-10.4064-7.7056-23.6544-4.288-37.1328 3.8912-15.3856 15.2192-26.3808 29.9136-30.7968 11.84-3.5456 24.4736-2.56 36.288 0.4096z m39.552-218.432c4.7232 1.1776 8.512 4.672 10.0608 9.2672 6.592 19.584 0.6784 46.0288-13.6704 67.7504-14.848 22.4768-40.0256 42.1376-75.4688 47.3728-34.0864 5.0304-63.0272-2.0736-83.328-15.0784-19.4304-12.4416-33.664-32.576-30.2848-53.5552a14.2208 14.2208 0 0 1 18.9952-11.0592c51.712 19.2 109.4016 7.296 160.4864-41.216a14.2208 14.2208 0 0 1 13.2096-3.4816z m198.8736 3.4944c51.0848 48.4864 108.7744 60.4032 160.4864 41.2032a14.208 14.208 0 0 1 18.9952 11.0592c3.392 20.992-10.8544 41.1136-30.272 53.5552-20.3136 13.0048-49.2544 20.1088-83.3408 15.0784-35.4432-5.2352-60.6336-24.896-75.4816-47.36-14.336-21.7344-20.2496-48.1664-13.6576-67.7632a14.2208 14.2208 0 0 1 23.2704-5.7728z" fill="#FF5308" p-id="3627"></path></svg>