<?xml version="1.0" standalone="no"?><!DOCTYPE svg PUBLIC "-//W3C//DTD SVG 1.1//EN" "http://www.w3.org/Graphics/SVG/1.1/DTD/svg11.dtd"><svg t="1772951126649" class="icon" viewBox="0 0 1024 1024" version="1.1" xmlns="http://www.w3.org/2000/svg" p-id="3946" xmlns:xlink="http://www.w3.org/1999/xlink" width="200" height="200"><path d="M512 0c275.712 0 499.2 223.04 499.2 498.1632 0 154.944-70.8864 293.376-182.0672 384.7424l9.4336 1.856c72.7424 14.784 117.1712 34.5344 117.1712 56.2176 0 45.3888-194.7136 82.2784-436.4032 83.008L512 1024c-245.0688 0-443.7376-37.1712-443.7376-83.0208 0-22.6176 48.2816-43.1104 126.592-58.0736C83.6992 791.5264 12.8 653.1072 12.8 498.1632 12.8 223.04 236.288 0 512 0z m0 55.3472c-245.0688 0-443.7376 198.2592-443.7376 442.816 0 119.8464 47.7056 228.5696 125.2096 308.288-3.8784-97.4976 19.3024-188.6464 54.4512-267.0592a262.4 262.4 0 0 0-26.624 16.384 13.888 13.888 0 0 1-20.3904-5.2224c-10.56-21.4144-3.3664-49.5232 15.2576-71.296 19.2256-22.4768 51.712-40.2304 97.024-43.4304 44.3904-3.1232 82.048 5.4272 108.5824 18.9184 13.2096 6.7328 24.1408 14.9376 31.6544 24.0256 7.36 8.9344 12.544 20.224 10.5984 32.2304a13.8496 13.8496 0 0 1-17.8688 10.9824 263.168 263.168 0 0 0-90.6752-12.1856c-0.896 3.072-2.1632 6.0672-3.8272 8.96-57.2544 99.968-94.1568 226.8544-65.3568 360.7296A442.368 442.368 0 0 0 512 940.9792a442.4064 442.4064 0 0 0 223.04-59.9296c29.44-134.4512-7.552-261.9392-65.024-362.2912a41.6768 41.6768 0 0 1-3.072-6.6432 250.0224 250.0224 0 0 0-88.8448 11.4688 13.9008 13.9008 0 0 1-17.8688-10.9824c-1.8944-11.712 3.1616-22.656 10.2528-31.232 7.232-8.768 17.7408-16.64 30.4-23.0912 25.408-12.928 61.44-21.12 103.8848-18.112 43.392 3.0592 74.5344 20.0448 92.992 41.6384 17.856 20.8896 24.8576 47.9744 14.6432 68.6976a13.8624 13.8624 0 0 1-20.4032 5.2224 251.6096 251.6096 0 0 0-15.4496-9.984c33.8688 77.6192 55.808 167.3728 51.5456 263.1808 78.9376-79.936 127.6416-189.6704 127.6416-310.7584C955.7376 253.6064 757.0688 55.3472 512 55.3472z m0 525.8368c61.2608 0 110.9376 49.5744 110.9376 110.72v55.3344c0 61.1456-49.664 110.7072-110.9376 110.7072-61.2608 0-110.9376-49.5616-110.9376-110.7072v-55.3472c0-61.1328 49.664-110.7072 110.9376-110.7072z m102.0928-337.472c20.288 18.8416 63.1296 48.2304 111.7056 75.008 48.7936 26.9056 99.2 48.8704 134.4 55.36l-10.0864 54.4384c-44.3264-8.1792-101.184-33.792-151.1424-61.3504-50.176-27.6736-97.536-59.6096-122.6624-82.9312l37.7856-40.5248z m-193.8304 0l37.7856 40.5248c-25.1264 23.3216-72.4864 55.2576-122.6624 82.944-49.9712 27.5456-106.816 53.1584-151.1552 61.3376l-10.0608-54.4384c35.1744-6.4896 85.5936-28.4544 134.3872-55.3472l10.3168-5.7856c44.2624-25.152 82.56-51.7504 101.3888-69.2352z" fill="#FF5308" p-id="3947"></path></svg>