<?xml version="1.0" standalone="no"?><!DOCTYPE svg PUBLIC "-//W3C//DTD SVG 1.1//EN" "http://www.w3.org/Graphics/SVG/1.1/DTD/svg11.dtd"><svg t="1772951076994" class="icon" viewBox="0 0 1024 1024" version="1.1" xmlns="http://www.w3.org/2000/svg" p-id="1066" xmlns:xlink="http://www.w3.org/1999/xlink" width="200" height="200"><path d="M512 0c282.7648 0 512 229.2352 512 512S794.7648 1024 512 1024 0 794.7648 0 512 229.2352 0 512 0z m0 56.8832C260.6464 56.8832 56.8832 260.6592 56.8832 512c0 251.3536 203.776 455.1168 455.1168 455.1168 251.3536 0 455.1168-203.776 455.1168-455.1168 0-251.3536-203.776-455.1168-455.1168-455.1168z m160 632.0256a28.4416 28.4416 0 0 1 4.4288 39.9872c-17.8176 22.2464-22.016 33.28-22.1952 40.4096-0.1536 6.016 2.5344 16.0896 21.0432 36.4544a28.4416 28.4416 0 1 1-42.112 38.272c-15.2704-16.8192-27.5712-34.1504-32.9216-53.3248a28.3136 28.3136 0 0 1-17.1264 5.7344H440.8832c-6.4256 0-12.352-2.1248-17.1264-5.7344-5.3504 19.1744-17.6512 36.5056-32.9344 53.312a28.4416 28.4416 0 1 1-42.0992-38.272c18.5088-20.352 21.1968-30.4384 21.0432-36.4416l-0.128-1.9584c-0.8704-7.168-5.7984-18.1376-22.0672-38.4512a28.4416 28.4416 0 0 1 44.416-35.5712c13.312 16.64 25.1904 33.8816 30.976 52.608 4.8896-3.9936 11.136-6.3744 17.92-6.3744h142.2336c6.784 0 13.0304 2.3808 17.92 6.3616 5.7856-18.7136 17.664-35.9424 30.976-52.5952a28.4416 28.4416 0 0 1 39.9872-4.416zM399.7184 441.2544a14.2208 14.2208 0 0 1 23.2704 5.7728c6.592 19.584 0.6912 46.0288-13.6576 67.7504-14.848 22.4768-40.0384 42.1376-75.4816 47.36-34.0864 5.0432-63.0272-2.0608-83.328-15.0656-19.4304-12.4416-33.664-32.576-30.2848-53.5552a14.2208 14.2208 0 0 1 18.9952-11.072c51.712 19.2 109.4016 7.296 160.4864-41.1904z m212.096 0c51.072 48.4864 108.7616 60.4032 160.4864 41.1904a14.208 14.208 0 0 1 18.9824 11.072c3.392 20.992-10.8416 41.1136-30.272 53.5552-20.3008 13.0048-49.2544 20.096-83.328 15.0784-35.456-5.2352-60.6336-24.896-75.4816-47.3728-14.3488-21.7216-20.2624-48.1536-13.6704-67.7504a14.2336 14.2336 0 0 1 23.2832-5.7728z" fill="#FF5308" p-id="1067"></path></svg>