<?xml version="1.0" standalone="no"?><!DOCTYPE svg PUBLIC "-//W3C//DTD SVG 1.1//EN" "http://www.w3.org/Graphics/SVG/1.1/DTD/svg11.dtd"><svg t="1772951107996" class="icon" viewBox="0 0 1024 1024" version="1.1" xmlns="http://www.w3.org/2000/svg" p-id="2826" xmlns:xlink="http://www.w3.org/1999/xlink" width="200" height="200"><path d="M512 0c282.7648 0 512 229.2352 512 512S794.7648 1024 512 1024 0 794.7648 0 512 229.2352 0 512 0z m0 56.8832a453.1456 453.1456 0 0 0-210.3296 51.4176 56.8832 56.8832 0 0 1-93.4528 64.8064C115.328 256.4352 56.8832 377.3952 56.8832 512c0 28.992 2.7136 57.3568 7.8976 84.8512a56.8832 56.8832 0 1 1 22.6304 79.36c52.7232 136.2304 169.1264 240.7552 312.704 277.0432a56.8832 56.8832 0 1 1 104.32 13.7984c2.5088 0.0384 5.0304 0.064 7.5648 0.064 251.3536 0 455.1168-203.776 455.1168-455.1168 0-132.672-56.7808-252.0832-147.3536-335.2704a42.6624 42.6624 0 1 1-67.0848-51.072A452.992 452.992 0 0 0 512 56.8832z m0 483.5584c114.8672 0 214.4256 69.3632 263.3472 170.6752 13.3376 27.6096-8.9984 56.8832-39.68 56.8832H288.3328c-30.6688 0-52.992-29.2736-39.6672-56.8832C297.5744 609.792 397.1328 540.4416 512 540.4416z m355.5584 28.4416a42.6624 42.6624 0 1 1 0 85.3376 42.6624 42.6624 0 0 1 0-85.3376z m-596.48-280.1152l113.7792 71.1168a28.4416 28.4416 0 0 1 0 48.2304l-113.792 71.1168a28.4416 28.4416 0 0 1-34.6624-44.736c27.9424-26.56 33.3824-40.4608 33.3184-49.1904-0.0768-9.3824-6.4128-24.192-34.0864-52.5568a28.4416 28.4416 0 0 1 35.4432-43.9808z m519.0656 6.272c9.0368 11.2128 8.2688 27.392-1.7792 37.7088-27.6736 28.3776-34.0096 43.1744-34.0864 52.5568-0.064 8.7296 5.376 22.6304 33.3184 49.1904a28.4416 28.4416 0 0 1-34.6752 44.736l-113.7792-71.1168a28.4416 28.4416 0 0 1 0-48.2304l113.792-71.1168a28.4416 28.4416 0 0 1 37.2096 6.272zM526.2208 142.2208a42.6624 42.6624 0 1 1 0 85.3376 42.6624 42.6624 0 0 1 0-85.3376z" fill="#FF5308" p-id="2827"></path></svg>