<?xml version="1.0" standalone="no"?><!DOCTYPE svg PUBLIC "-//W3C//DTD SVG 1.1//EN" "http://www.w3.org/Graphics/SVG/1.1/DTD/svg11.dtd"><svg t="1772951124302" class="icon" viewBox="0 0 1024 1024" version="1.1" xmlns="http://www.w3.org/2000/svg" p-id="3786" xmlns:xlink="http://www.w3.org/1999/xlink" width="200" height="200"><path d="M514.5216 38.4C723.1104 38.4 899.9936 173.312 961.536 360.1152c46.272 49.856 66.7264 94.7584 61.7088 135.4624-3.776 30.592-21.1968 53.3888-42.3168 70.1056-13.9008 107.6608-64.704 203.8528-139.392 275.6736l-0.448 1.664c-4.864 4.1984-9.7792 8.2944-14.72 12.288A470.272 470.272 0 0 1 514.5216 972.8c-106.752 0-205.1968-35.328-284.1344-94.8736a593.8816 593.8816 0 0 1-29.3888-21.9264l-1.024-3.072C119.488 780.928 64.1536 681.7536 48.64 569.92 25.088 552.896 4.8384 528.8448 0.7424 495.5776c-5.0816-41.2544 15.9872-86.8096 63.5776-137.472 1.6-1.7024 3.392-3.1488 5.2992-4.3264C133.056 170.2784 308.288 38.4 514.5216 38.4z m-0.1792 545.0752c-82.8288-0.2944-166.6176 10.2016-272.8448 33.1776-11.712 38.6176-16.64 68.6336-16.512 97.3824 0.1152 31.616 6.3232 64.7424 20.3008 109.2608 5.2352 4.3904 10.5856 8.6528 16.0384 12.7744 166.656 115.968 366.4128 112.2176 531.2-20.3264l2.1248-1.8944 3.0464-12.6208c8.6016-36.8896 12.5312-65.1136 11.776-92.16-0.768-27.0592-6.3232-55.3216-19.7376-91.6608l-21.2096-4.3264c-97.6-19.5072-176.3328-29.3248-254.1824-29.6064z m156.928 181.6832v51.904H357.76v-51.904h313.5232zM107.2256 599.5136a412.0576 412.0576 0 0 0 67.4688 147.9808c-4.736-42.0864-0.9472-81.3568 11.776-128.4096a505.0368 505.0368 0 0 1-23.8464-4.3264 417.408 417.408 0 0 1-55.3984-15.2448z m815.0656-2.0224c-21.4528 8.1024-43.0336 13.5808-60.8896 17.28-5.76 1.1776-11.2128 2.1888-16.2304 3.0592 14.272 43.9424 18.7008 80.8192 15.808 120.2304a411.7504 411.7504 0 0 0 61.312-140.5696z m-251.008 63.8464v51.904H357.76v-51.904h313.5232zM514.5344 90.3168C283.648 90.3168 96.4736 276.224 96.4736 505.6c0 11.2768 0.4608 22.4512 1.3568 33.4976 23.4624 12.032 51.6096 19.9296 75.4048 24.832 11.136 2.304 20.992 3.8784 28.48 4.928l8.2688 1.0624c0.5248 0.064 1.024 0.128 1.4976 0.1664 234.2144-52.5056 370.3424-50.1248 603.9424-0.3328l4.1728-0.5376c7.7312-1.024 18.624-2.688 31.168-5.2864 23.5264-4.8512 51.3024-12.608 74.6112-24.4224l6.0416-3.2128a418.816 418.816 0 0 0 1.1264-30.6944c0-229.3632-187.1488-415.2832-418.0224-415.2832zM349.8496 358.1952l3.4944 0.064c33.984 1.4208 59.136 21.2096 74.304 42.7264a107.9808 107.9808 0 0 1 15.9488 33.2032c2.816 10.3424 3.84 21.696 0.4352 30.976a13.0304 13.0304 0 0 1-7.936 7.808c-3.6864 1.28-7.7568 0.8704-11.0976-1.1392a161.408 161.408 0 0 1-16.128-11.392l-8.9856-7.2064c-4.7104-3.8144-9.2544-7.5008-13.9392-10.9824-13.1072-9.7408-23.5136-14.8736-32.512-14.4384-9.472 0.4608-20.9152 7.04-35.6096 18.56-2.0608 1.6256-4.2112 3.3536-6.4128 5.1584l-6.784 5.6064c-10.1248 8.4224-21.0944 17.536-31.5264 24.1792a13.1456 13.1456 0 0 1-12.5312 0.8704 12.9792 12.9792 0 0 1-7.4752-10.0352c-1.2928-9.472 0.6784-21.2992 4.4032-32.8704 3.84-11.8912 9.9456-24.8064 18.1632-36.7616 15.6544-22.7584 40.7424-44.2496 74.1888-44.3264z m401.3184 44.3264c8.2176 11.9552 14.3232 24.8704 18.1504 36.7616 3.7376 11.5712 5.7088 23.4112 4.4032 32.8704a12.9792 12.9792 0 0 1-7.4752 10.0352c-4.0448 1.856-8.768 1.5232-12.5184-0.8704-8.9472-5.7088-18.2784-13.2096-27.136-20.544l-11.1744-9.2416c-2.2016-1.792-4.352-3.5328-6.4256-5.1584-14.6944-11.52-26.112-18.0992-35.5968-18.56-8.9984-0.4352-19.4176 4.6976-32.512 14.4384-3.1232 2.3168-6.1952 4.736-9.28 7.2192l-9.7792 7.8976c-6.3744 5.12-13.1584 10.368-19.9936 14.464-3.3408 2.0096-7.424 2.432-11.1104 1.1392a13.0304 13.0304 0 0 1-7.936-7.808c-3.392-9.28-2.368-20.6336 0.4352-30.976 2.944-10.7776 8.3456-22.4 15.9488-33.2032 15.168-21.5168 40.3328-41.3056 74.3168-42.7264 35.2-1.4592 61.4784 20.7232 77.6832 44.2624z" fill="#FF5308" p-id="3787"></path></svg>