<?xml version="1.0" standalone="no"?><!DOCTYPE svg PUBLIC "-//W3C//DTD SVG 1.1//EN" "http://www.w3.org/Graphics/SVG/1.1/DTD/svg11.dtd"><svg t="1772951092237" class="icon" viewBox="0 0 1024 1024" version="1.1" xmlns="http://www.w3.org/2000/svg" p-id="1866" xmlns:xlink="http://www.w3.org/1999/xlink" width="200" height="200"><path d="M512 0c282.7648 0 512 229.2352 512 512S794.7648 1024 512 1024 0 794.7648 0 512 229.2352 0 512 0z m0 56.8832C260.6464 56.8832 56.8832 260.6592 56.8832 512c0 251.3536 203.776 455.1168 455.1168 455.1168 251.3536 0 455.1168-203.776 455.1168-455.1168 0-251.3536-203.776-455.1168-455.1168-455.1168z m0 512c109.9648 0 199.1168 76.416 199.1168 170.6752 0 92.9792-86.7584 113.2288-194.6752 113.7664H512c-109.9648 0-199.1168-19.5072-199.1168-113.7664S402.048 568.8832 512 568.8832z m276.1088-247.6672a28.4416 28.4416 0 0 1 0 40.2304l-50.9952 50.9952 50.9952 50.9952a28.4416 28.4416 0 0 1-40.2176 40.2304l-51.008-50.9952-50.9952 50.9952a28.4416 28.4416 0 0 1-40.2176-40.2304l50.9952-50.9952-50.9952-50.9952a28.4544 28.4544 0 0 1 40.2304-40.2304l50.9824 51.008 51.008-51.008a28.4416 28.4416 0 0 1 40.2176 0z m-369.7792 0a28.4416 28.4416 0 0 1 0 40.2304l-50.9952 50.9952 50.9952 50.9952a28.4544 28.4544 0 0 1-40.2304 40.2304l-50.9824-50.9952-50.9824 50.9696a28.4544 28.4544 0 1 1-40.2432-40.192l50.9952-51.008-50.9952-50.9952a28.4544 28.4544 0 0 1 40.2304-40.2304l50.9952 51.008 50.9952-51.008a28.4416 28.4416 0 0 1 40.2176 0z" fill="#FF5308" p-id="1867"></path></svg>