<?xml version="1.0" standalone="no"?><!DOCTYPE svg PUBLIC "-//W3C//DTD SVG 1.1//EN" "http://www.w3.org/Graphics/SVG/1.1/DTD/svg11.dtd"><svg t="1772951631178" class="icon" viewBox="0 0 1024 1024" version="1.1" xmlns="http://www.w3.org/2000/svg" p-id="8699" xmlns:xlink="http://www.w3.org/1999/xlink" width="200" height="200"><path d="M208.328038 296.0384c16.810667-1.092267 32.170667-0.4096 46.737067 8.763733l5.905067-53.9904c9.3696-41.156267 19.968-116.718933 64.1792-134.493866 26.564267-10.6752 51.131733 0.401067 75.1104 12.6208 34.2272 17.442133 64.554667 42.496 94.395733 66.295466 10.990933 5.137067 30.4128-2.901333 42.410667-4.317866 55.671467-6.570667 119.944533-4.164267 175.189333 2.909866 7.424 0.9472 13.892267 5.179733 23.057067 2.500267 26.112-23.569067 54.4768-46.455467 85.538133-63.453867 27.5456-15.0784 62.8224-30.9248 91.502933-10.5984 40.311467 28.5696 56.302933 117.137067 61.371734 163.592534 4.471467 40.917333-1.9456 87.432533 3.029333 125.525333 3.2512 24.9088 26.837333 70.7328 34.304 100.096 50.389333 198.0928-50.056533 325.1456-235.861333 379.178667-199.364267 57.975467-531.438933 4.590933-563.8912-245.5552-7.995733-61.661867 8.746667-133.5808 29.781333-192.145067 2.133333-5.9392 5.265067-12.4928 8.132267-18.158933 0.136533-2.628267-3.7888-1.390933-5.8368-1.450667-2.901333-0.085333-5.828267 0.162133-8.721067-0.0256l-0.093867-8.712533-14.557866-0.034134 17.527466-5.8368c15.906133-2.363733 27.912533-17.937067 33.6384-32.1024 13.568-33.536-8.507733-61.457067-39.483733-73.079466-0.1792-0.068267-0.341333-2.056533-1.911467-2.542934-2.9696-0.913067-6.613333-0.503467-9.7792-0.375466-1.92 0.0768-3.9936-0.2304-5.845333 0h-5.8368v-2.9184h8.7808l-0.034133-8.695467-8.746667-2.9952z m26.299734 353.5104c0.008533 24.0128 15.9744 68.829867 29.5936 88.789333 2.2528 3.3024 3.464533 3.0976 5.461333 4.701867 0.298667 4.778667 4.514133 10.871467 7.432533 14.481067 141.952 176.0512 529.169067 177.937067 673.365334 4.565333 4.539733-5.4528 12.305067-14.421333 11.630933-21.973333 9.7536-4.701867 31.377067-56.430933 34.449067-69.265067 2.090667-8.7296 4.4544-21.418667 3.5328-30.071467 5.0688-2.440533 2.8672-11.272533 2.909866-16.0768 0.426667-48.008533-5.0176-84.334933-18.901333-130.090666-6.3744-21.009067-25.506133-59.5456-27.793067-77.3888-3.268267-25.489067 1.416533-58.112 0.0768-84.804267-2.304-45.858133-13.184-123.392-33.655466-165.0176-7.210667-14.6688-23.714133-33.9456-41.096534-35.106133-14.062933-0.938667-53.2224 21.4528-66.619733 29.7728-27.963733 17.373867-51.950933 40.448-79.3088 58.112-70.306133-14.583467-142.609067-15.018667-213.248-5.922134-9.096533 1.169067-19.9168 4.608-29.243733 5.9904-38.5024-27.7504-75.963733-62.7456-121.224534-80.5888-23.765333-9.3696-42.154667-11.690667-58.077866 12.1344-23.406933 35.029333-34.039467 112.64-38.314667 154.496-2.167467 21.162667 15.291733 34.833067 17.3824 55.517867 2.005333 19.805867-7.210667 29.141333-13.115733 45.184-23.586133 64.0768-45.909333 129.2544-51.191467 197.393067-0.401067 5.137067 2.824533 20.224 3.037867 29.073066 0.119467 4.846933-2.210133 13.602133 2.9184 16.0768z" fill="#492921" p-id="8700"></path><path d="M208.328038 296.0384l8.746667 2.9952 0.034133 8.686933h-8.7808v2.9184h5.8368c-0.256 0.042667-0.4864 2.193067-4.224 2.961067-3.2768 0.674133-7.3728-0.4352-11.383466 0.426667-4.881067 1.0496-13.832533 8.9856-17.681067 8.149333-31.5136-35.3792-78.532267-30.4128-98.030933 13.448533-19.114667 3.063467-31.752533-2.6112-48.4096 10.018134-13.175467 9.992533-19.2256 22.178133-15.530667 39.022933 1.476267 6.724267 9.591467 14.267733 10.794667 18.423467 1.860267 6.468267-0.8192 13.806933 1.732266 21.640533 4.8384 14.830933 23.6032 22.050133 38.084267 20.2496 10.094933-1.2544 22.3744-13.2864 28.9024-11.409067 2.884267 0.827733 12.6208 10.8288 21.4272 13.7728 11.733333 3.9168 13.184 1.664 22.818133 0.674134 18.389333-1.877333 24.823467 15.9232 37.9136 26.231466 4.676267-4.189867-1.0752-11.793067-1.408-16.119466-0.392533-5.128533-0.785067-12.706133-0.145066-17.5616 1.28-9.685333 8.823467-5.5808 14.7712-8.6016 4.718933-2.397867 5.956267-11.605333 10.436266-12.936534 10.555733-1.664 23.133867 1.220267 33.314134-0.290133l-17.527467 5.8368 14.557867 0.034133 0.093866 8.712534c2.884267 0.187733 5.819733-0.059733 8.721067 0.0256-7.637333 6.784-21.444267 0.708267-30.3104 3.285333-4.974933 1.450667-8.8576 11.921067-16.170667 11.579733-6.442667 13.013333 17.2544 37.358933 17.365334 44.962134 0.059733 3.7888-1.732267 5.3504-4.718934 7.125333-12.757333 3.7632-39.0912-12.023467-49.4848-20.155733-4.215467-3.3024-10.9568-13.141333-14.9248-14.293334-13.883733-4.053333-34.7904 3.2512-49.7408-11.733333-31.342933 17.271467-75.665067 7.3728-82.7904-31.035733-0.802133-4.3264 0.529067-9.198933-0.512-14.097067-1.348267-6.3488-9.335467-14.976-10.743466-21.4016-9.480533-43.2384 32.290133-73.361067 72.302933-68.445867 18.440533-42.948267 78.208-49.2544 110.165333-17.476266 8.8064-3.387733 15.112533-5.026133 24.490667-5.632z" fill="#4E2D24" p-id="8701"></path><path d="M1000.084838 640.785067c-3.362133-31.325867-29.166933-55.099733-58.436266-61.354667-0.256-0.0512-0.520533-2.517333-4.215467-2.9696-8.1664-0.9984-22.340267-0.580267-30.848 0.042667l-9.915733 0.324266-1.7664 2.602667c-1.8688 0.264533-3.959467-0.238933-5.845334 0-18.346667 2.312533-32.9984 11.0848-49.664 17.527467-13.038933 5.0432-29.5936 13.678933-40.900266 17.527466-4.215467 1.4336-12.672 2.013867-17.527467 2.9184-5.632 1.058133-8.2432 2.850133-8.763733 2.9184-4.369067 0.5888-13.192533 0.6144-17.527467 0-0.503467-0.068267-4.5824-1.92-8.763733-2.9184-36.386133-8.738133-53.179733-38.289067-84.693334-51.165866-25.728-10.5216-65.408-10.410667-91.434666-0.785067-39.415467 14.574933-60.194133 58.530133-110.199467 54.869333-1.92-0.136533-3.959467 0.2304-5.845333 0-0.503467-0.059733-4.3008-1.911467-8.763734-2.9184-1.749333-0.401067-4.1984 0.4352-5.845333 0-2.909867-0.776533-14.293333-4.590933-17.527467-5.845333-27.0336-10.487467-50.286933-29.201067-81.809066-32.136533-1.92-0.1792-3.908267 0.110933-5.845334 0l-1.723733-2.602667c-11.921067-0.017067-24.840533-1.826133-36.258133 1.083733v1.518934c-36.241067 3.5328-61.371733 34.6368-61.354667 70.1184-5.12-2.466133-2.798933-11.229867-2.9184-16.0768-0.213333-8.840533-3.4304-23.927467-3.037867-29.073067 5.282133-68.138667 27.605333-133.316267 51.191467-197.393067 5.905067-16.042667 15.112533-25.3696 13.115733-45.184-2.090667-20.6848-19.549867-34.3552-17.3824-55.517866 4.2752-41.847467 14.907733-119.466667 38.314667-154.496 15.9232-23.825067 34.304-21.504 58.077867-12.1344 45.252267 17.8432 82.7136 52.829867 121.224533 80.5888 9.326933-1.3824 20.1472-4.821333 29.243733-5.9904 70.638933-9.105067 142.941867-8.669867 213.248 5.922133 27.357867-17.664 51.345067-40.738133 79.3088-58.112 13.397333-8.328533 52.565333-30.711467 66.619734-29.7728 17.390933 1.160533 33.885867 20.437333 41.096533 35.106133 20.471467 41.6256 31.351467 119.159467 33.655467 165.0176 1.339733 26.7008-3.345067 59.3152-0.0768 84.804267 2.286933 17.834667 21.418667 56.379733 27.793066 77.3888 13.883733 45.755733 19.319467 82.0736 18.901334 130.090667-0.042667 4.804267 2.158933 13.636267-2.909867 16.0768zM322.273638 268.279467c-1.6896 20.224 1.237333 42.376533 0 62.813866 5.0176 1.2032 5.8112-1.92 8.763734-4.386133 12.714667-10.581333 23.9616-25.4464 36.462933-36.573867l62.907733-42.359466c-0.093867-3.831467-3.464533-8.635733-5.8112-11.6992-9.4976-12.381867-46.020267-44.501333-60.416-47.684267-14.967467-3.3024-24.0128 7.159467-28.868266 19.8912-5.674667 14.882133-11.793067 44.9792-13.047467 59.997867z m536.6016-76.936534c-4.155733 0.904533-27.963733 18.756267-32.674133 22.8352-10.530133 9.105067-18.372267 20.548267-27.682133 30.737067 15.786667 13.866667 34.781867 23.424 51.1744 36.462933 6.016 4.7872 14.651733 12.330667 20.4544 17.527467 11.221333 10.052267 20.923733 22.024533 32.0768 32.1792 4.616533-3.1232 4.061867-5.384533 4.445866-10.154667 2.244267-28.2368-2.141867-71.236267-9.437866-98.781866-6.2208-23.5008-10.3168-36.906667-38.3488-30.805334zM464.447505 378.3168c-15.453867 3.387733-27.605333 22.9632-24.772267 38.417067 7.927467 43.264 85.358933 62.2848 97.476267 19.677866 10.5984-37.2736-39.7824-65.322667-72.704-58.094933z m268.8768 0.085333c-29.252267 5.051733-63.778133 37.4016-42.513067 67.694934 20.343467 28.9792 82.7904 8.1152 89.685334-23.441067 7.048533-32.238933-17.1008-49.442133-47.172267-44.245333zM396.778172 538.530133c12.731733 3.473067 39.4752-2.551467 54.050133 0 0.8192 3.575467-8.183467 4.727467-10.837333 5.239467-8.9088 1.706667-18.244267 1.544533-27.246934 4.8896-10.5984 3.933867-30.190933 17.194667-29.252266 29.269333 2.013867 25.8816 34.6368 5.486933 48.9472 2.1248 18.372267-4.317867 41.8816-4.770133 60.868266-3.6608 11.460267 0.674133 27.2128 9.582933 35.003734-5.632 8.456533-16.512-22.536533-44.1856-35.5328-52.2752-27.6736-17.2288-64.128-24.814933-92.689067-5.8368-5.742933 3.8144-9.2416 8.874667-10.786133 15.684267-0.196267 3.054933 5.7344 9.736533 7.458133 10.205867z m378.3424 0h51.131733c0.520533 0 6.5024-5.973333 6.997333-7.620266 4.676267-15.402667-24.149333-27.946667-36.8384-29.738667-18.304-2.5856-44.398933 5.085867-60.270933 14.4384-12.4416 7.338667-31.581867 22.391467-37.597867 35.447467-4.1216 8.96-2.816 16.418133 1.041067 25.028266 10.436267 7.048533 17.9456 0.699733 27.204267 0.298667 14.2592-0.6144 36.053333-1.373867 49.723733 0.196267 13.5168 1.553067 43.4176 15.402667 52.642133 14.728533 4.872533-0.3584 9.745067-5.597867 10.350934-10.376533 1.134933-18.261333-15.0016-25.821867-29.2864-32.221867l-35.106134-10.180267z" fill="#F6C07C" p-id="8702"></path><path d="M745.910972 617.412267l1.826133 2.602666 6.946133 0.324267c4.334933 0.6144 13.1584 0.5888 17.527467 0-0.162133 3.285333 0.571733 6.903467-0.042667 10.103467-2.517333 12.987733-1.3824 41.156267-0.0768 55.748266 1.988267 22.203733 21.111467 55.8848 39.970134 68.130134 22.2464 14.4384 78.634667 21.1968 104.721066 17.885866 20.002133-2.5344 25.8048-22.229333 39.543467-30.6944 2.432-1.493333 4.770133-0.904533 5.7856-1.399466 0.674133 7.543467-7.0912 16.512-11.630933 21.973333-144.196267 173.371733-531.413333 171.485867-673.365334-4.565333-2.909867-3.6096-7.133867-9.7024-7.432533-14.481067 6.050133 4.855467 26.641067 13.201067 35.012267 16.110933 46.0288 15.982933 109.269333 9.028267 140.3392-32.128 15.3856-20.3776 15.803733-45.6704 14.677333-70.306133-0.5376-11.690667-6.9888-23.1168-0.128-36.394667 50.005333 3.652267 70.784-40.2944 110.199467-54.869333 26.018133-9.6256 65.698133-9.736533 91.434666 0.785067 31.505067 12.8768 48.3072 42.427733 84.693334 51.165866z m-146.926934-37.358934c-18.9696 2.6624-46.72 14.839467-42.427733 38.272 4.599467 25.122133 38.749867 41.898667 62.395733 40.106667 27.656533-2.0992 64.494933-27.153067 48.708267-57.719467-9.787733-18.935467-49.399467-23.364267-68.667733-20.6592z m-72.618666 69.922134l-9.8304-3.490134c-7.483733 1.5872-9.7024 6.263467-10.308267 13.175467-3.2256 37.009067 38.306133 59.195733 71.1168 53.6064 13.166933-2.244267 23.466667-12.706133 35.643733-17.1264 8.6016 4.48 14.139733 10.9312 23.970134 14.148267 40.558933 13.2352 85.973333-10.666667 82.269866-55.9872l-9.8304-7.816534c-15.223467 1.928533-10.624 11.4176-13.627733 21.6064-1.4336 4.855467-10.146133 14.634667-14.984533 17.152-23.074133 11.997867-48.853333 3.012267-60.3648-19.771733-15.906133-7.176533-21.777067 10.026667-32.366934 17.604267-13.405867 9.591467-28.458667 9.796267-42.922666 2.167466-15.7952-8.337067-14.139733-20.266667-18.781867-35.268266z m57.3952 95.991466h58.436266c5.282133 0 10.350933-20.625067-8.772266-23.3728-10.743467-1.544533-54.109867-2.030933-56.832 10.513067l7.168 12.8512z" fill="#F8EEDB" p-id="8703"></path><path d="M214.173372 310.647467c1.851733-0.2304 3.925333 0.0768 5.845333 0l1.7664 2.602666 9.915733 0.324267c30.976 11.6224 53.0432 39.543467 39.483734 73.079467-5.725867 14.1568-17.732267 29.738667-33.6384 32.1024-10.180267 1.5104-22.7584-1.373867-33.314134 0.290133-4.48 1.3312-5.717333 10.530133-10.436266 12.936533-5.9392 3.0208-13.482667-1.083733-14.7712 8.6016-0.64 4.855467-0.247467 12.433067 0.145066 17.5616 0.3328 4.3264 6.075733 11.9296 1.408 16.119467-13.090133-10.308267-19.524267-28.117333-37.9136-26.231467-9.634133 0.981333-11.0848 3.242667-22.818133-0.674133-8.8064-2.944-18.5344-12.936533-21.4272-13.7728-6.528-1.877333-18.807467 10.154667-28.9024 11.409067-14.481067 1.800533-33.2544-5.418667-38.084267-20.2496-2.551467-7.8336 0.136533-15.1808-1.732266-21.640534-1.194667-4.155733-9.3184-11.6992-10.794667-18.423466-3.694933-16.8448 2.3552-29.0304 15.530667-39.022934 16.6656-12.637867 29.294933-6.954667 48.4096-10.018133 19.498667-43.8528 66.517333-48.827733 98.030933-13.448533 3.848533 0.8448 12.808533-7.0912 17.681067-8.149334 4.010667-0.861867 8.106667 0.238933 11.383466-0.426666 3.7376-0.768 3.968-2.926933 4.224-2.952534z m13.627733 29.704533c-25.565867 5.725867-21.034667 59.272533 13.653333 51.601067 20.241067-4.471467 16.733867-40.3968 2.013867-50.696534-4.5312-2.286933-10.8032-1.9968-15.6672-0.904533z m-43.835733 5.751467c-4.309333 0.964267-14.976 9.028267-16.170667 13.115733-4.4032 20.6848 4.923733 46.011733 29.943467 38.7072 12.322133-3.601067 12.398933-25.1648 10.112-35.669333-2.141867-9.8304-14.011733-18.3552-23.8848-16.1536z m-25.301334 5.435733c-5.307733-0.597333-8.686933-0.221867-11.630933 4.5312l2.875733 18.850133h-14.592c0.418133-5.905067-0.494933-12.928-4.386133-17.570133-4.113067-4.906667-5.051733 0.9984-10.248533 0.034133l8.840533 49.646934 8.6784 0.042666v-20.462933l14.583467 0.017067c0.145067 8.900267-0.008533 20.539733 11.707733 17.527466l-5.845333-52.608z m-35.063466 46.754133l-18.6112 2.722134c-12.9024-6.818133-13.815467-27.178667 1.006933-30.583467 3.515733-0.810667 6.980267 3.8144 10.308267-1.3568 5.888-8.9088-9.659733-9.463467-14.6176-8.763733-17.2544 2.440533-22.775467 27.204267-14.574934 40.866133 7.2448 12.074667 19.592533 12.791467 31.7184 8.405333 5.316267-1.928533 5.248-6.2464 4.770134-11.298133z m-69.8624 9.0112l15.556266-3.0464 9.0368 11.554134c9.122133-1.527467 8.2432-6.613333 4.9408-13.7216s-11.460267-21.930667-15.581866-28.2368c-6.459733-9.8816-14.6688-11.613867-18.705067 0.938666-1.681067 5.213867-7.5776 32.5888-7.355733 36.599467 0.221867 3.8912 3.720533 8.4992 7.458133 7.338667 5.1968-2.133333 3.6352-10.385067 4.642133-11.434667z" fill="#F4EDDE" p-id="8704"></path><path d="M941.657105 579.4304c29.269333 6.254933 55.074133 30.0288 58.436267 61.354667 0.930133 8.6528-1.442133 21.341867-3.5328 30.071466-3.072 12.842667-24.695467 64.5632-34.449067 69.265067-1.024 0.494933-3.3536-0.1024-5.7856 1.399467-13.7472 8.465067-19.541333 28.16-39.543467 30.6944-26.0864 3.310933-82.474667-3.447467-104.721066-17.885867-18.8672-12.245333-37.981867-45.9264-39.970134-68.130133-1.3056-14.592-2.440533-42.769067 0.0768-55.748267 0.622933-3.208533-0.119467-6.818133 0.042667-10.103467l8.763733-2.9184c4.855467-0.913067 13.312-1.4848 17.527467-2.9184l-8.763733 24.840534c0.571733 25.216-3.831467 47.675733 8.132266 70.741333 17.117867 33.015467 54.690133 44.501333 89.668267 44.561067 5.930667 0.008533 7.1936-0.6144 14.7712 0.068266 22.263467 2.013867 43.989333-27.52 65.297067-32.452266-0.759467-9.8048 8.328533-22.775467 9.181866-30.378667 0.7424-6.621867-2.645333-10.129067-2.944-14.626133-1.4592-22.0672 0.298667-49.28-14.609066-67.191467-8.046933-9.668267-21.486933-15.556267-29.2608-26.248533l11.682133-4.369067z" fill="#F6E8D4" p-id="8705"></path><path d="M295.982438 579.4304c5.5552-0.5376 11.784533 0.145067 17.527467 0-3.319467 7.645867-13.559467 7.031467-20.3264 10.350933-9.4464 4.642133-15.394133 12.032-19.2256 21.674667-10.965333 27.5968-16.6912 48.631467-18.824533 77.5936-1.109333 14.993067-0.0768 22.263467 11.767466 31.9488 10.180267 8.328533 27.989333 13.226667 32.349867 24.763733 25.685333 3.1232 43.861333 10.743467 71.176533 5.981867 63.889067-11.136 85.922133-62.139733 69.3248-121.787733-0.896-3.2256-7.867733-9.796267-0.605866-12.544 1.6384 0.4352 4.096-0.401067 5.845333 0l1.826133 2.602666 6.9376 0.324267c1.877333 0.2304 3.925333-0.136533 5.845334 0-6.8608 13.277867-0.4096 24.704 0.128 36.394667 1.1264 24.6272 0.708267 49.928533-14.677334 70.306133-31.069867 41.156267-94.3104 48.1024-140.3392 32.128-8.379733-2.909867-28.970667-11.264-35.012266-16.110933-2.005333-1.604267-3.208533-1.399467-5.461334-4.701867-13.627733-19.959467-29.585067-64.776533-29.5936-88.789333-0.017067-35.4816 25.1136-66.5856 61.354667-70.1184z" fill="#F8E4CD" p-id="8706"></path><path d="M231.700838 313.565867l-9.915733-0.324267-1.7664-2.602667c3.165867-0.128 6.8096-0.5376 9.7792 0.375467 1.5616 0.4864 1.732267 2.474667 1.911467 2.542933z" fill="#4E2D24" p-id="8707"></path><path d="M941.657105 579.4304l-11.682133 4.369067c7.773867 10.692267 21.213867 16.580267 29.2608 26.248533 14.907733 17.92 13.1584 45.124267 14.609066 67.191467 0.298667 4.497067 3.694933 8.004267 2.944 14.626133-0.853333 7.594667-9.941333 20.573867-9.181866 30.378667-21.307733 4.932267-43.0336 34.466133-65.297067 32.452266-7.5776-0.682667-8.840533-0.059733-14.7712-0.068266-34.978133-0.059733-72.558933-11.5456-89.668267-44.561067-11.963733-23.074133-7.560533-45.525333-8.132266-70.741333l8.763733-24.840534c11.306667-3.848533 27.861333-12.484267 40.900267-17.527466l-23.944534 35.950933c-2.730667 6.178133-8.132267 23.901867-8.157866 29.789867-0.034133 7.671467 9.966933 39.168 14.4128 46.395733 0.503467 0.810667 12.731733 10.368 14.890666 11.912533 5.0432 3.6096 16.887467 11.613867 22.263467 12.791467 6.485333 1.416533 43.076267 1.706667 48.776533 0.059733 1.544533-0.443733 25.5232-13.9008 28.091734-15.726933 27.1872-19.268267 27.153067-52.189867 16.964266-81.083733-5.469867-15.496533-30.856533-41.224533-45.9776-47.5136-5.597867-2.3296-19.3536-0.554667-17.655466-10.103467 1.885867-0.238933 3.976533 0.264533 5.845333 0 5.12-0.7168 11.050667-2.875733 11.690667-2.9184 8.507733-0.622933 22.6816-1.041067 30.848-0.042667 3.694933 0.452267 3.959467 2.909867 4.215466 2.9696z" fill="#F8DFC6" p-id="8708"></path><path d="M396.778172 538.530133c-1.723733-0.469333-7.6544-7.150933-7.458134-10.205866 1.544533-6.8096 5.0432-11.861333 10.786134-15.684267 28.561067-18.986667 65.015467-11.392 92.689066 5.8368 12.996267 8.0896 43.9808 35.7632 35.5328 52.2752-7.790933 15.214933-23.543467 6.306133-35.003733 5.632-18.986667-1.109333-42.496-0.6656-60.868267 3.6608-14.3104 3.362133-46.933333 23.7568-48.9472-2.1248-0.938667-12.066133 18.653867-25.335467 29.252267-29.269333 9.0112-3.345067 18.338133-3.182933 27.246933-4.8896 2.653867-0.503467 11.656533-1.664 10.837334-5.239467-14.574933-2.551467-41.3184 3.473067-54.050134 0z" fill="#4B2B24" p-id="8709"></path><path d="M775.120572 538.530133l35.106133 10.180267c14.2848 6.4 30.421333 13.960533 29.2864 32.221867-0.605867 4.770133-5.4784 10.018133-10.350933 10.376533-9.224533 0.674133-39.125333-13.166933-52.642134-14.728533-13.6704-1.578667-35.464533-0.8192-49.723733-0.196267-9.258667 0.401067-16.768 6.749867-27.204267-0.298667-3.857067-8.610133-5.162667-16.068267-1.041066-25.028266 6.016-13.056 25.147733-28.1088 37.597866-35.447467 15.872-9.361067 41.966933-17.024 60.270934-14.4384 12.689067 1.792 41.514667 14.336 36.8384 29.738667-0.503467 1.646933-6.485333 7.620267-6.997334 7.620266h-51.131733z" fill="#4C2B25" p-id="8710"></path><path d="M322.273638 268.279467c1.2544-15.018667 7.3728-45.115733 13.047467-59.997867 4.855467-12.731733 13.892267-23.1936 28.868267-19.8912 14.395733 3.1744 50.9184 35.3024 60.416 47.684267 2.3552 3.063467 5.717333 7.867733 5.8112 11.6992L367.508838 290.133333c-12.501333 11.136-23.748267 26.001067-36.462933 36.573867-2.961067 2.4576-3.746133 5.5808-8.763733 4.386133 1.237333-20.445867-1.6896-42.5984 0-62.813866z" fill="#F7C7B3" p-id="8711"></path><path d="M858.875238 191.342933c28.032-6.101333 32.128 7.304533 38.3488 30.805334 7.296 27.554133 11.682133 70.545067 9.437867 98.781866-0.375467 4.770133 0.170667 7.031467-4.445867 10.154667-11.1616-10.154667-20.864-22.135467-32.0768-32.1792-5.802667-5.1968-14.429867-12.740267-20.4544-17.527467-16.392533-13.038933-35.387733-22.596267-51.1744-36.462933 9.309867-10.1888 17.152-21.623467 27.682134-30.737067 4.7104-4.078933 28.5184-21.930667 32.674133-22.8352z" fill="#F7C7B4" p-id="8712"></path><path d="M889.066172 579.4304c-1.698133 9.5488 12.0576 7.773867 17.655466 10.103467 15.121067 6.289067 40.507733 32.008533 45.9776 47.5136 10.197333 28.893867 10.222933 61.815467-16.964266 81.083733-2.577067 1.826133-26.5472 15.2832-28.091734 15.726933-5.700267 1.646933-42.2912 1.3568-48.776533-0.059733-5.384533-1.1776-17.220267-9.181867-22.263467-12.791467-2.158933-1.544533-14.3872-11.101867-14.890666-11.912533-4.4544-7.227733-14.446933-38.715733-14.4128-46.395733 0.0256-5.888 5.4272-23.611733 8.157866-29.789867l23.944534-35.950933c16.6656-6.442667 31.317333-15.223467 49.664-17.527467z m40.3712 116.343467c8.576-19.310933 15.786667-24.6784 7.944533-46.327467-13.0304-35.933867-48.238933-59.921067-85.000533-40.968533-2.679467 6.903467-11.460267 12.714667-14.421334 17.7152-2.286933 3.874133-9.898667 23.739733-10.282666 27.8272-0.366933 3.7888 2.4064 21.2992 3.4304 25.736533 6.6304 28.4928 47.530667 40.866133 72.712533 32.750933 10.709333-3.447467 15.837867-12.6976 25.617067-16.7424z" fill="#F8D1B4" p-id="8713"></path><path d="M464.447505 378.3168c32.9216-7.227733 83.3024 20.821333 72.704 58.094933-12.1088 42.615467-89.5488 23.586133-97.476267-19.677866-2.833067-15.453867 9.309867-35.029333 24.772267-38.417067z" fill="#F6EEDC" p-id="8714"></path><path d="M421.610172 611.566933l11.784533 50.986667c-4.539733 10.385067-3.2512 24.183467-6.408533 34.7392-1.553067 5.1712-19.6864 27.272533-24.772267 30.737067-6.9888 4.753067-32.8192 15.0016-40.4992 14.984533-3.217067 0-7.005867-2.8928-11.639467-3.106133-5.768533-0.273067-10.4704 2.850133-14.114133 2.551466-5.4528-0.443733-25.0624-7.1424-31.3344-9.5232-3.310933-1.2544-18.884267-13.166933-21.9136-16.068266-9.5488-9.1392-15.189333-26.496-16.085333-39.4496-1.006933-14.481067 9.984-51.524267 18.0736-63.982934 12.689067-19.541333 29.7216-22.493867 50.833066-28.066133 5.956267-1.570133 10.0864 3.0976 4.2752-5.9392 31.5136 2.944 54.775467 21.649067 81.809067 32.136533z m-3.9168 50.747734c0-37.828267-30.6688-68.5056-68.5056-68.5056s-68.5056 30.6688-68.5056 68.5056 30.6688 68.5056 68.5056 68.5056 68.5056-30.6688 68.5056-68.5056z" fill="#F8D7BB" p-id="8715"></path><path d="M733.324305 378.402133c30.062933-5.188267 54.2208 12.0064 47.172267 44.245334-6.894933 31.5648-69.3504 52.420267-89.685334 23.441066-21.265067-30.293333 13.2608-62.6432 42.513067-67.694933z" fill="#F6ECD9" p-id="8716"></path><path d="M333.964305 579.4304c1.928533 0.110933 3.925333-0.1792 5.845333 0 5.8112 9.0368 1.6896 4.369067-4.2752 5.9392-21.111467 5.563733-38.144 8.5248-50.833066 28.066133-8.0896 12.458667-19.080533 49.501867-18.0736 63.982934 0.896 12.9536 6.536533 30.3104 16.085333 39.4496 3.029333 2.901333 18.594133 14.813867 21.9136 16.068266 6.280533 2.3808 25.890133 9.088 31.3344 9.5232 3.643733 0.290133 8.3456-2.824533 14.114133-2.551466 4.6336 0.221867 8.4224 3.0976 11.639467 3.106133 7.68 0.017067 33.518933-10.231467 40.4992-14.984533 5.085867-3.464533 23.227733-25.565867 24.772267-30.737067 3.157333-10.5472 1.8688-24.3456 6.408533-34.7392l-11.784533-50.986667c3.234133 1.2544 14.6176 5.0688 17.527466 5.845334-7.261867 2.756267-0.290133 9.326933 0.605867 12.544 16.597333 59.648-5.4272 110.6432-69.3248 121.787733-27.3152 4.7616-45.4912-2.858667-71.176533-5.981867-4.360533-11.537067-22.1696-16.4352-32.349867-24.763733-11.835733-9.685333-12.868267-16.9472-11.767467-31.9488 2.133333-28.962133 7.8592-49.9968 18.824534-77.5936 3.831467-9.6512 9.7792-17.041067 19.2256-21.674667 6.766933-3.319467 17.006933-2.705067 20.3264-10.350933 6.6816-0.170667 13.7984-0.384 20.4544 0z" fill="#F8E1C9" p-id="8717"></path><path d="M333.964305 579.4304c-6.647467-0.384-13.764267-0.170667-20.4544 0-5.742933 0.145067-11.972267-0.5376-17.527467 0v-1.518933c11.4176-2.909867 24.337067-1.1008 36.258134-1.083734l1.723733 2.602667z" fill="#F8D7BB" p-id="8718"></path><path d="M906.593638 576.512c-0.64 0.042667-6.562133 2.210133-11.690666 2.9184l1.7664-2.602667 9.915733-0.324266z" fill="#F8D1B4" p-id="8719"></path><path d="M453.746705 620.3392l-6.9376-0.324267-1.826133-2.602666c4.462933 1.015467 8.260267 2.858667 8.763733 2.9184z" fill="#F8E1C9" p-id="8720"></path><path d="M754.674705 620.3392l-6.946133-0.324267-1.826134-2.602666c4.189867 1.006933 8.260267 2.850133 8.763734 2.9184zM780.965905 617.412267l-8.763733 2.9184c0.520533-0.068267 3.131733-1.8688 8.763733-2.9184z" fill="#F8DFC6" p-id="8721"></path><path d="M598.984038 580.053333c19.268267-2.705067 58.888533 1.723733 68.667734 20.6592 15.786667 30.557867-21.051733 55.620267-48.708267 57.719467-23.645867 1.792-57.796267-14.984533-62.395733-40.106667-4.292267-23.424 23.458133-35.6096 42.427733-38.272z" fill="#4F2E26" p-id="8722"></path><path d="M526.365372 649.975467c4.6336 15.0016 2.978133 26.939733 18.781866 35.268266 14.455467 7.6288 29.5168 7.424 42.922667-2.167466 10.5984-7.5776 16.4608-24.7808 32.366933-17.604267 11.511467 22.784 37.290667 31.7696 60.3648 19.771733 4.8384-2.517333 13.550933-12.296533 14.984534-17.152 3.012267-10.180267-1.595733-19.677867 13.627733-21.6064l9.8304 7.816534c3.703467 45.312-41.710933 69.2224-82.269867 55.9872-9.838933-3.208533-15.368533-9.668267-23.970133-14.148267-12.1856 4.420267-22.485333 14.882133-35.643733 17.1264-32.8192 5.589333-74.350933-16.605867-71.1168-53.6064 0.605867-6.903467 2.816-11.579733 10.308266-13.175467l9.8304 3.490134z" fill="#512E26" p-id="8723"></path><path d="M583.760572 745.966933l-7.168-12.8512c2.722133-12.544 46.088533-12.0576 56.832-10.513066 19.1232 2.7392 14.0544 23.3728 8.772266 23.3728h-58.436266z" fill="#4B2B23" p-id="8724"></path><path d="M227.801105 340.352c4.864-1.092267 11.136-1.3824 15.6672 0.904533 14.72 10.308267 18.2272 46.225067-2.013867 50.696534-34.688 7.671467-39.2192-45.8752-13.653333-51.601067z m1.058133 40.3456l9.984-0.1024 4.309334-4.445867c3.575467-17.408-9.9584-37.6064-19.822934-13.917866l5.538134 18.466133z" fill="#5F3629" p-id="8725"></path><path d="M183.965372 346.103467c9.873067-2.2016 21.742933 6.3232 23.8848 16.1536 2.286933 10.504533 2.210133 32.068267-10.112 35.669333-25.019733 7.313067-34.346667-18.0224-29.943467-38.7072 1.186133-4.087467 11.861333-12.151467 16.170667-13.115733z m-1.851734 40.439466c19.396267 6.784 18.594133-25.4464 7.0656-29.090133-10.496-3.319467-12.433067 22.0672-7.0656 29.090133z" fill="#563027" p-id="8726"></path><path d="M158.664038 351.5392l5.845334 52.608c-11.716267 3.012267-11.562667-8.6272-11.707734-17.527467l-14.592-0.017066v20.462933l-8.6784-0.042667-8.840533-49.646933c5.1968 0.9728 6.135467-4.9408 10.248533-0.034133 3.882667 4.642133 4.804267 11.656533 4.386134 17.5616h14.592l-2.875734-18.8416c2.944-4.753067 6.3232-5.128533 11.630934-4.5312z" fill="#5A352C" p-id="8727"></path><path d="M53.738172 407.304533c-1.015467 1.041067 0.554667 9.301333-4.642134 11.434667-3.7376 1.160533-7.2448-3.447467-7.458133-7.338667-0.2304-4.010667 5.674667-31.3856 7.355733-36.599466 4.036267-12.552533 12.245333-10.811733 18.705067-0.938667 4.1216 6.306133 12.373333 21.341867 15.581867 28.2368s4.1728 12.1856-4.9408 13.7216L69.302972 404.266667l-15.556267 3.0464z m11.434666-11.938133l-2.926933-11.682133-5.828267 4.386133v7.296h8.7552z" fill="#59332B" p-id="8728"></path><path d="M123.600572 398.293333c0.477867 5.051733 0.546133 9.3696-4.770134 11.298134-12.125867 4.386133-24.4736 3.669333-31.7184-8.405334-8.200533-13.661867-2.679467-38.434133 14.574934-40.866133 4.957867-0.699733 20.5056-0.145067 14.6176 8.763733-3.328 5.1712-6.792533 0.546133-10.308267 1.3568-14.8224 3.413333-13.909333 23.773867-1.006933 30.583467l18.6112-2.722133z" fill="#5A342B" p-id="8729"></path><path d="M929.437372 695.773867c-9.7792 4.0448-14.907733 13.2864-25.617067 16.7424-25.181867 8.1152-66.090667-4.258133-72.712533-32.750934-1.032533-4.4288-3.797333-21.947733-3.4304-25.736533 0.392533-4.087467 7.995733-23.944533 10.282666-27.8272 2.952533-5.009067 11.741867-10.811733 14.421334-17.7152 36.7616-18.952533 71.970133 5.034667 85.000533 40.968533 7.850667 21.640533 0.631467 27.008-7.944533 46.327467z m-53.009067-74.9056c-17.117867 1.390933-30.190933 25.745067-28.228267 41.787733 4.1472 33.937067 47.4368 42.658133 65.621334 16.034133 11.793067-17.262933 3.157333-39.978667-13.141334-50.9696-4.352-2.935467-19.566933-7.236267-24.251733-6.852266z" fill="#F9C7A6" p-id="8730"></path><path d="M417.693372 662.314667c0 37.828267-30.6688 68.5056-68.5056 68.5056s-68.5056-30.6688-68.5056-68.5056 30.6688-68.5056 68.5056-68.5056 68.5056 30.6688 68.5056 68.5056z m-11.332267-1.902934c0-31.522133-25.557333-57.079467-57.079467-57.079466s-57.079467 25.557333-57.079466 57.079466 25.557333 57.079467 57.079466 57.079467 57.079467-25.557333 57.079467-57.079467z" fill="#F8D0B2" p-id="8731"></path><path d="M228.859238 380.6976l-5.538133-18.466133c9.864533-23.688533 23.3984-3.490133 19.822933 13.917866l-4.309333 4.445867-9.984 0.1024z" fill="#F0E9DC" p-id="8732"></path><path d="M182.113638 386.542933c-5.367467-7.022933-3.4304-32.4096 7.0656-29.090133 11.528533 3.643733 12.330667 35.8656-7.0656 29.090133z" fill="#EBE1D0" p-id="8733"></path><path d="M65.172838 395.3664H56.409105l0.008533-7.296 5.828267-4.386133 2.926933 11.682133z" fill="#E8E6E0" p-id="8734"></path><path d="M876.428305 620.868267c4.676267-0.384 19.8912 3.9168 24.251733 6.852266 16.298667 10.9824 24.9344 33.698133 13.141334 50.9696-18.184533 26.624-61.474133 17.902933-65.621334-16.034133-1.962667-16.042667 11.101867-40.3968 28.228267-41.787733z" fill="#FABD99" p-id="8735"></path><path d="M406.361105 660.411733c0 31.522133-25.557333 57.079467-57.079467 57.079467s-57.079467-25.557333-57.079466-57.079467 25.557333-57.079467 57.079466-57.079466 57.079467 25.557333 57.079467 57.079466z m-83.473067-30.6944c-7.936 7.8592-10.871467 27.9552-9.378133 38.818134 0.9216 6.698667 16.7424 25.7792 22.272 27.392 4.241067 1.237333 18.107733 1.024 23.005867 0.3584 12.245333-1.664 25.1904-19.831467 27.178666-31.232 4.932267-28.322133-18.926933-50.577067-47.146666-44.245334-1.723733 0.384-14.856533 7.8336-15.931734 8.900267z" fill="#F9C8A7" p-id="8736"></path><path d="M322.888038 629.717333c1.0752-1.066667 14.208-8.516267 15.931734-8.900266 28.219733-6.331733 52.087467 15.9232 47.146666 44.245333-1.988267 11.409067-14.933333 29.576533-27.178666 31.232-4.898133 0.6656-18.7648 0.8704-23.005867-0.3584-5.5296-1.6128-21.3504-20.693333-22.272-27.392-1.493333-10.862933 1.442133-30.958933 9.378133-38.818133z" fill="#FAB995" p-id="8737"></path></svg>