<?xml version="1.0" standalone="no"?><!DOCTYPE svg PUBLIC "-//W3C//DTD SVG 1.1//EN" "http://www.w3.org/Graphics/SVG/1.1/DTD/svg11.dtd"><svg t="1772951585813" class="icon" viewBox="0 0 1024 1024" version="1.1" xmlns="http://www.w3.org/2000/svg" p-id="5961" xmlns:xlink="http://www.w3.org/1999/xlink" width="200" height="200"><path d="M988.9024 717.056c0.042667-29.397333-19.566933-63.650133-46.549333-76.586667-8.8832-4.258133-16.418133-4.846933-25.437867-6.766933-0.324267-0.068267-0.674133-3.268267-5.461333-3.848533-49.186133-5.998933-90.026667 17.092267-134.724267 26.581333-17.373867 3.6864-35.3024 4.292267-53.0432 3.7888-58.427733-13.354667-52.8384-28.629333-92.757333-60.689067-20.864-16.750933-53.666133-27.554133-79.7696-30.2848-12.3904-1.297067-50.167467 7.671467-62.464 13.218134-19.652267 8.866133-39.406933 28.680533-59.451734 35.268266-19.541333 6.4256-53.367467 6.5792-73.070933 0.802134-5.0432-1.476267-20.334933-8.541867-26.5216-11.3664-29.6448-13.5424-53.5552-34.8928-87.1424-41.6768-2.2016-0.443733-5.0944 0.221867-7.5776 0l-2.363733-3.370667c-2.961067-0.981333-6.016-0.298667-9.002667-0.418133-38.016-1.536-72.149333-1.0752-94.72 34.0992-5.0176-0.2304-10.1376 0.170667-15.146667 0 5.137067-47.095467 18.116267-92.6464 35.925334-136.456534 11.3408-27.895467 26.257067-54.8352 39.236266-82.005333 1.629867-5.981867-0.187733-12.270933 0.674134-18.269867 10.897067-75.758933 20.3264-183.6032 59.818666-250.862933 26.180267-44.578133 48.1536-50.048 92.970667-23.296 42.922667 25.6256 78.8224 63.1552 114.730667 97.442133 14.455467 4.206933 28.526933-2.833067 41.0368-3.4816 54.596267-2.824533 120.055467 4.608 173.576533 16.196267 21.9648 4.753067 43.963733 11.298133 65.348267 18.2272 34.466133-21.256533 67.157333-45.525333 104.055466-62.737067 42.052267-19.618133 91.4944-41.762133 115.703467 13.243734 34.389333 78.148267 20.1216 206.737067 10.154667 289.211733l29.4656 133.393067c3.669333 36.317867 5.205333 69.623467 0 105.9328-0.964267 6.698667-3.5328 19.293867-7.5008 24.704zM382.651733 209.297067c0.802133-4.2496-0.136533-7.569067-1.629866-11.528534-5.4784-14.532267-44.8-54.869333-59.101867-62.1312-10.820267-5.495467-16.1024-7.150933-26.282667-0.059733-32.392533 22.587733-33.245867 86.007467-41.685333 121.216l-0.068267 32.119467c4.3776 4.770133 20.693333-15.9488 24.558934-19.003734 30.011733-23.7568 68.906667-45.952 104.2176-60.612266z m538.052267 144.042666c5.794133-19.694933 2.602667-38.775467 3.857067-58.6496 0.8192-12.9792 0.7936-13.713067 0-26.6752-1.1008-17.988267 1.732267-54.920533-11.281067-68.266666-4.736-4.855467-17.152-9.890133-23.9616-8.814934-21.6064 3.413333-58.350933 32.136533-72.8064 48.733867-2.286933 2.628267-6.946133 4.8896-5.632 9.301333 25.864533 22.144 53.0176 42.837333 75.8016 68.3008 7.441067 8.311467 15.112533 22.314667 22.5792 30.464 3.473067 3.7888 5.666133 6.784 11.4432 5.6064z m-508.970667 4.4032c-30.318933 6.656-35.157333 40.1152-19.473066 63.709867 20.846933 31.36 89.4464 46.754133 99.694933 1.3824 9.2928-41.130667-42.811733-73.2928-80.213333-65.083733z m295.637334 30.421334c-32.7424 5.546667-64.759467 43.272533-40.584534 73.224533 17.501867 21.6832 49.211733 17.493333 72.1408 7.586133 22.741333-9.8304 44.458667-38.673067 28.2368-62.4896-14.1824-20.8128-36.369067-22.280533-59.784533-18.312533zM339.933867 494.327467c-13.218133 1.834667-51.310933 14.574933-55.261867 28.0832-2.414933 8.251733-2.184533 18.577067 5.674667 23.671466 15.581867 10.094933 24.823467-3.959467 39.176533-9.130666 43.9296-15.8208 96.1536-2.0992 127.061333 32.324266l9.173334-9.915733c-12.996267-53.632-76.5696-71.867733-125.815467-65.041067z m390.229333 41.642666c-25.796267 4.2496-50.568533 9.233067-67.1744 31.342934-5.853867 7.790933-12.407467 17.570133-1.783467 24.721066 45.610667-26.0096 93.397333-28.2624 136.430934 3.712 4.8128 3.575467 10.683733 13.3376 15.522133 14.7712 24.0128 7.133867 30.72-16.810667 16.6912-35.626666-19.6864-26.410667-58.709333-34.048-89.250133-39.739734l-10.4448 0.810667z" fill="#F7C27D" p-id="5962"></path><path d="M382.651733 209.297067c-35.310933 14.6688-74.197333 36.855467-104.2176 60.612266-3.8656 3.054933-20.1728 23.773867-24.558933 19.003734l0.068267-32.119467c8.439467-35.208533 9.2928-98.6368 41.685333-121.216 10.180267-7.099733 15.4624-5.435733 26.282667 0.059733 14.301867 7.261867 53.614933 47.598933 59.101866 62.1312 1.493333 3.950933 2.423467 7.278933 1.629867 11.528534z" fill="#FAC5B8" p-id="5963"></path><path d="M920.704 353.339733c-5.777067 1.1776-7.970133-1.8176-11.4432-5.6064-7.466667-8.149333-15.138133-22.152533-22.5792-30.464-22.784-25.463467-49.937067-46.1568-75.8016-68.3008-1.314133-4.411733 3.336533-6.673067 5.632-9.301333 14.455467-16.605867 51.2-45.320533 72.8064-48.733867 6.818133-1.0752 19.2256 3.959467 23.9616 8.814934 13.013333 13.346133 10.180267 50.286933 11.281067 68.266666 0.7936 12.962133 0.8192 13.687467 0 26.6752-1.2544 19.874133 1.937067 38.954667-3.857067 58.6496z" fill="#F9C7B9" p-id="5964"></path><path d="M707.370667 388.164267c23.415467-3.968 45.610667-2.500267 59.784533 18.312533 16.2304 23.825067-5.495467 52.667733-28.2368 62.4896-22.920533 9.9072-54.638933 14.097067-72.1408-7.586133-24.174933-29.943467 7.842133-67.677867 40.584533-73.224534z" fill="#F8EFDC" p-id="5965"></path><path d="M411.733333 357.742933c37.410133-8.209067 89.506133 23.953067 80.213334 65.083734-10.248533 45.380267-78.839467 29.9776-99.694934-1.3824-15.684267-23.586133-10.845867-57.053867 19.473067-63.709867z" fill="#F7EEDC" p-id="5966"></path><path d="M339.933867 494.327467c49.245867-6.826667 112.827733 11.409067 125.815466 65.041066l-9.173333 9.915734c-30.8992-34.423467-83.131733-48.145067-127.061333-32.324267-14.353067 5.1712-23.594667 19.2256-39.176534 9.130667-7.8592-5.0944-8.0896-15.419733-5.674666-23.671467 3.950933-13.508267 42.043733-26.248533 55.261866-28.0832z" fill="#543329" p-id="5967"></path><path d="M730.1632 535.970133l10.4448-0.810666c30.5408 5.691733 69.563733 13.329067 89.250133 39.739733 14.020267 18.816 7.3216 42.760533-16.6912 35.626667-4.8384-1.442133-10.709333-11.195733-15.522133-14.7712-43.0336-31.9744-90.820267-29.7216-136.430933-3.712-10.624-7.159467-4.0704-16.930133 1.783466-24.721067 16.605867-22.1184 41.378133-27.093333 67.1744-31.342933z" fill="#553329" p-id="5968"></path><path d="M318.293333 914.0736c-12.757333-11.733333-36.8128-52.590933-46.199466-69.3504-15.581867-27.793067-36.983467-71.560533-44.731734-101.137067-8.226133-31.419733-4.650667-61.422933-26.453333-89.105066-34.0224-43.204267-96.2048-47.214933-138.427733-13.2608-65.604267 52.753067-31.957333 121.0112 5.751466 178.141866 30.916267 46.839467 65.8688 82.688 100.241067 125.192534 5.5552 6.869333 14.574933 16.964267 13.422933 26.359466-3.703467 3.054933-4.445867 12.535467-15.266133 5.794134-59.904-61.448533-114.551467-129.672533-153.386667-206.549334L0 711.517867C6.784 659.012267 35.9936 619.52 86.7328 602.948267c4.650667-18.909867 4.8896-38.289067 8.900267-57.403734 7.68-36.6336 23.893333-78.2592 38.843733-112.708266 17.681067-40.746667 26.837333-44.987733 32.349867-92.680534 7.825067-67.822933 18.269867-138.914133 42.410666-203.861333 18.321067-49.288533 48.6912-102.775467 110.344534-89.224533 22.570667 4.957867 80.196267 47.112533 99.2 63.7184 11.272533 9.847467 40.2176 44.987733 50.961066 47.6416 87.739733-6.971733 176.580267-0.384 260.309334 27.665066 6.272 0.571733 52.164267-32 63.010133-38.084266 26.026667-14.609067 63.778133-33.28 92.458667-40.149334 16.315733-3.908267 31.470933-5.0944 47.786666-0.110933 21.725867 6.638933 37.4784 28.3392 46.199467 48.520533 27.8272 64.426667 26.8288 171.127467 20.7104 240.5632-1.5616 17.706667-9.028267 38.869333-7.645867 57.079467 2.619733 34.4064 21.384533 80.682667 26.581334 117.367467 8.814933 62.139733 7.048533 132.437333-16.904534 191.3088-87.645867 215.381333-398.523733 244.497067-593.979733 188.458666-22.050133-6.3232-74.3936-22.656-89.9584-36.9664z m670.609067-197.0176c3.968-5.4016 6.545067-17.9968 7.5008-24.704 5.205333-36.309333 3.669333-69.623467 0-105.9328l-29.4656-133.393067c9.966933-82.474667 24.234667-211.063467-10.154667-289.211733-24.209067-55.005867-73.6512-32.8704-115.703466-13.243733-36.906667 17.220267-69.597867 41.480533-104.055467 62.737066-21.384533-6.929067-43.383467-13.474133-65.348267-18.2272-53.521067-11.579733-118.980267-19.012267-173.576533-16.196266-12.509867 0.648533-26.581333 7.688533-41.0368 3.4816-35.908267-34.286933-71.808-71.816533-114.730667-97.442134-44.817067-26.752-66.7904-21.282133-92.970666 23.296-39.492267 67.259733-48.9216 175.095467-59.818667 250.862934-0.861867 5.998933 0.955733 12.288-0.674133 18.269866-12.987733 27.1616-27.895467 54.101333-39.236267 82.005334-17.809067 43.810133-30.788267 89.361067-35.925333 136.456533 5.0176 0.170667 10.1376-0.2304 15.146666 0 16.298667 0.750933 37.947733 4.821333 53.0432 11.3664 1.902933 0.827733 17.186133 9.9584 18.944 11.3664 1.399467 1.117867 17.8432 17.5616 18.944 18.944 10.922667 13.713067 22.272 51.7632 26.5216 68.1984 1.467733 5.674667 1.902933 11.716267 3.7888 18.944 1.425067 5.4528 2.218667 9.710933 3.7888 15.1552 2.696533 9.361067 4.317867 14.037333 7.5776 22.7328 2.141867 5.717333 2.9952 12.910933 5.623467 19.012267 17.826133 41.284267 44.578133 78.0032 67.0208 116.701866 149.4272 64.512 333.269333 75.144533 484.369067 10.2144 62.446933-26.8288 109.354667-64.8192 143.906133-123.204266 11.477333-19.387733 26.487467-44.782933 26.5216-68.1984z" fill="#512F25" p-id="5969"></path><path d="M723.694933 660.224c8.507733 1.9456 11.229867 3.5584 22.7328 3.7888 0.162133 8.968533-8.149333 12.450133-12.1856 20.0192-5.981867 11.195733-11.682133 44.8768-10.692266 57.8304 2.858667 37.6576 24.132267 75.8784 58.0608 93.4656 20.565333 10.658133 31.8464 9.565867 53.76 10.624 10.2656 0.494933 13.815467 0.1024 22.929066 0 12.526933-0.136533 38.912 2.304 48.682667-0.546133 10.538667-3.080533 17.7408-22.161067 23.296-29.7472 7.867733-10.734933 16.238933-21.9136 24.465067-32.366934 4.6848-5.947733 9.079467-9.710933 7.645866 1.962667-34.551467 58.376533-81.467733 96.366933-143.906133 123.204267-151.108267 64.9216-334.941867 54.2976-484.369067-10.2144-22.434133-38.698667-49.186133-75.4176-67.0208-116.701867-2.628267-6.0928-3.4816-13.294933-5.623466-19.012267l17.160533 3.985067c19.0976-2.2784 30.958933-6.6048 45.431467-19.063467 33.570133-28.9024 45.858133-79.0272 29.141333-120.226133-2.6624-6.5536-9.975467-9.617067 2.986667-8.669867 19.712 5.768533 53.5296 5.614933 73.070933-0.802133 20.0448-6.587733 39.799467-26.402133 59.451733-35.268267 12.296533-5.546667 50.0736-14.5152 62.464-13.218133 26.094933 2.722133 58.897067 13.525333 79.7696 30.2848 39.918933 32.059733 34.3296 47.3344 92.757334 60.689067z m-162.722133 22.9376c54.0416-0.0768 86.0416-59.136 22.673067-81.792-31.445333-11.246933-109.585067-8.9856-93.1584 40.1152 7.432533 22.212267 30.216533 30.8736 47.377066 43.665067-0.861867 16.9728-10.897067 29.371733-28.228266 31.8976-18.2272 2.6624-37.922133-6.766933-42.922667-25.2672-1.954133-7.210667 1.988267-15.3344-6.493867-20.155734l-12.928 3.925334c-6.570667 45.269333 34.269867 75.127467 76.689067 59.648 7.927467-2.8928 12.032-8.3456 19.464533-10.461867 21.307733 29.474133 71.714133 38.997333 94.907734 7.3728 8.516267-11.605333 18.9696-38.485333-3.541334-37.640533-7.1424 2.107733-10.4448 22.237867-14.0032 25.7792-0.657067 0.657067-15.2576 7.159467-17.058133 7.569066-29.124267 6.6048-54.007467-16.64-42.769067-44.654933z" fill="#FAEFDC" p-id="5970"></path><path d="M988.9024 717.056c-0.034133 23.415467-15.044267 48.810667-26.5216 68.1984 1.4336-11.6736-2.961067-7.9104-7.645867-1.962667-8.234667 10.453333-16.597333 21.632-24.465066 32.366934-5.5552 7.586133-12.757333 26.666667-23.296 29.7472-9.770667 2.850133-36.155733 0.4096-48.682667 0.546133-9.1136 0.1024-12.663467 0.494933-22.929067 0-21.9136-1.058133-33.194667 0.034133-53.76-10.624-33.92-17.5872-55.202133-55.808-58.0608-93.4656-0.981333-12.9536 4.718933-46.634667 10.692267-57.8304 4.0448-7.560533 12.347733-11.050667 12.1856-20.0192 5.034667 0.1024 10.120533-0.0768 15.146667 0l-18.218667 48.0768c-5.504 32.3072 7.005867 80.682667 35.797333 99.1488 28.714667 18.414933 60.1088 23.773867 94.1312 19.413333 19.037867-2.440533 44.9792-19.089067 56.7296-34.2016 4.010667-5.154133 27.195733-40.610133 27.9552-44.032 4.1984-18.833067 1.2032-43.682133-4.923733-62.0288-1.6384-4.906667-9.156267-22.365867-11.537067-26.350933-5.896533-9.9072-23.867733-17.117867-24.6016-30.336 9.019733 1.92 16.546133 2.500267 25.437867 6.766933 26.9824 12.936533 46.592 47.189333 46.549333 76.586667z" fill="#F9EAD4" p-id="5971"></path><path d="M329.659733 607.1808c-0.187733 23.6288 6.152533 46.216533 3.950934 70.254933-1.194667 13.013333-13.329067 36.3008-22.792534 45.405867-9.847467 9.489067-30.037333 22.8096-43.767466 20.821333-6.263467-0.913067-11.3408-10.820267-13.166934-3.874133-1.570133-5.444267-2.363733-9.7024-3.7888-15.1552 2.5856-4.906667 7.432533 0.733867 15.2832-1.6128 8.712533-2.594133 28.245333-12.373333 33.527467-19.669333 17.578667-24.234667 17.442133-84.9152-10.9568-101.828267-6.570667-3.908267-32.238933-13.2096-39.688533-13.533867-8.849067-0.375467-24.977067 4.514133-32.196267 9.787734-8.311467 6.0672-8.004267 15.1296-15.223467 20.770133-1.757867-1.408-17.041067-10.538667-18.944-11.3664 6.4256-2.176 0.093867-7.645867 2.8672-13.866667 1.92-4.3008 4.736-7.927467 8.567467-10.683733l49.1776-17.1264c33.5872 6.784 57.4976 28.1344 87.1424 41.6768z" fill="#F9D7BD" p-id="5972"></path><path d="M250.094933 724.6336c-1.885867-7.227733-2.321067-13.269333-3.7888-18.944-1.706667-14.8992 5.248 0 15.240534-5.538133 3.080533-1.706667 16.110933-15.906133 18.3296-19.618134 10.385067-17.450667 4.898133-50.235733-10.734934-63.982933-5.376-2.747733-18.269867-2.986667-24.174933-1.245867-0.725333 0.213333-12.586667 7.150933-13.124267 7.688534-4.2496 4.3008-0.503467 17.339733-12.0576 14.498133-1.1008-1.3824-17.544533-17.826133-18.944-18.944 7.2192-5.640533 6.912-14.702933 15.223467-20.770133 7.2192-5.265067 23.3472-10.1632 32.196267-9.787734 7.458133 0.315733 33.1264 9.617067 39.688533 13.533867 28.398933 16.913067 28.535467 77.5936 10.9568 101.828267-5.290667 7.287467-24.814933 17.066667-33.527467 19.669333-7.850667 2.338133-12.6976-3.293867-15.2832 1.6128z" fill="#F9C9AC" p-id="5973"></path><path d="M356.181333 618.5472c-12.962133-0.9472-5.649067 2.116267-2.986666 8.669867 16.7168 41.198933 4.4288 91.3152-29.141334 120.226133-14.472533 12.458667-26.333867 16.785067-45.431466 19.063467l-17.160534-3.985067c-3.259733-8.695467-4.881067-13.371733-7.5776-22.7328 1.826133-6.946133 6.894933 2.961067 13.166934 3.874133 13.730133 1.9968 33.92-11.332267 43.767466-20.821333 9.454933-9.1136 21.597867-32.392533 22.792534-45.405867 2.210133-24.0384-4.130133-46.626133-3.950934-70.254933 6.186667 2.824533 21.4784 9.890133 26.5216 11.3664z" fill="#FBE3CB" p-id="5974"></path><path d="M219.784533 637.4912c11.554133 2.850133 7.816533-10.197333 12.0576-14.498133 0.5376-0.5376 12.3904-7.4752 13.124267-7.688534 5.905067-1.7408 18.7904-1.501867 24.174933 1.245867 15.633067 13.7472 21.12 46.532267 10.734934 63.982933-2.210133 3.720533-15.240533 17.911467-18.3296 19.618134-10.001067 5.538133-16.9472-9.3696-15.240534 5.538133-4.2496-16.4352-15.598933-54.485333-26.5216-68.1984z" fill="#FABC9B" p-id="5975"></path><path d="M223.573333 561.7152l2.363734 3.370667c2.935467 1.0752 6.1184 0.162133 9.002666 0.418133 2.4832 0.221867 5.376-0.443733 7.5776 0l-49.1776 17.1264c-3.831467 2.756267-6.656 6.382933-8.567466 10.683733-2.773333 6.2208 3.5584 11.690667-2.8672 13.866667-15.095467-6.545067-36.744533-10.615467-53.0432-11.3664 22.570667-35.1744 56.704-35.6352 94.72-34.0992z" fill="#F7E4CD" p-id="5976"></path><path d="M916.9152 633.7024l-30.301867 1.885867c33.2032 22.485333 65.570133 62.549333 56.209067 105.472-0.904533 4.130133-15.5904 32.452267-18.798933 38.033066-3.490133 6.050133-22.229333 21.239467-28.637867 24.405334-5.896533 2.9184-42.6752 12.014933-48.554667 12.014933-2.090667 0-18.935467-3.5072-22.0672-4.4032-12.245333-3.498667-36.829867-14.139733-43.707733-24.490667-26.4448-39.825067-28.782933-92.962133 10.8288-124.5184l-15.146667-5.666133c44.6976-9.489067 85.538133-32.580267 134.724267-26.581333 4.7872 0.580267 5.137067 3.780267 5.461333 3.848533z m6.016 88.3456c0-38.912-31.5392-70.4512-70.4512-70.4512s-70.4512 31.5392-70.4512 70.4512 31.5392 70.4512 70.4512 70.4512 70.4512-31.5392 70.4512-70.4512z" fill="#FAD6BB" p-id="5977"></path><path d="M916.9152 633.7024c0.733867 13.218133 18.696533 20.4288 24.6016 30.336 2.372267 3.9936 9.898667 21.4528 11.537067 26.350933 6.126933 18.3552 9.122133 43.204267 4.923733 62.0288-0.759467 3.421867-23.944533 38.869333-27.9552 44.032-11.758933 15.112533-37.691733 31.761067-56.7296 34.2016-34.0224 4.360533-65.416533-0.9984-94.1312-19.413333-28.8-18.466133-41.301333-66.850133-35.797333-99.1488l18.218666-48.0768c-5.026133-0.085333-10.120533 0.093867-15.146666 0-11.502933-0.2304-14.225067-1.8432-22.7328-3.7888 17.7408 0.503467 35.669333-0.1024 53.0432-3.7888L791.893333 662.101333c-39.611733 31.547733-37.2736 84.693333-10.8288 124.5184 6.869333 10.350933 31.453867 20.992 43.707734 24.490667 3.140267 0.896 19.985067 4.4032 22.0672 4.4032 5.888 0 42.658133-9.105067 48.554666-12.014933 6.408533-3.165867 25.147733-18.3552 28.637867-24.405334 3.217067-5.572267 17.902933-33.8944 18.798933-38.033066 9.361067-42.922667-22.997333-82.986667-56.209066-105.472l30.301866-1.885867z" fill="#FAE1C9" p-id="5978"></path><path d="M234.939733 565.504c-2.884267-0.256-6.0672 0.657067-9.002666-0.418133l-2.363734-3.370667c2.986667 0.119467 6.0416-0.5632 9.002667 0.418133l2.363733 3.370667z" fill="#F9D7BD" p-id="5979"></path><path d="M560.9728 683.1616c-11.246933 28.014933 13.6448 51.259733 42.769067 44.654933 1.800533-0.4096 16.401067-6.912 17.058133-7.569066 3.549867-3.549867 6.852267-23.68 14.0032-25.7792 22.510933-0.8448 12.0576 26.0352 3.541333 37.640533-23.1936 31.616-73.591467 22.101333-94.907733-7.3728-7.432533 2.107733-11.537067 7.569067-19.464533 10.461867-42.410667 15.479467-83.259733-14.370133-76.689067-59.648l12.928-3.925334c8.4736 4.821333 4.539733 12.945067 6.493867 20.155734 5.009067 18.500267 24.704 27.9296 42.922666 25.2672 17.322667-2.525867 27.3664-14.9248 28.228267-31.8976-17.160533-12.8-39.936-21.4528-47.377067-43.665067-16.4352-49.1008 61.713067-51.362133 93.1584-40.1152 63.368533 22.656 31.368533 81.7152-22.673066 81.792z" fill="#523128" p-id="5980"></path><path d="M922.9312 722.048c0 38.912-31.5392 70.4512-70.4512 70.4512s-70.4512-31.5392-70.4512-70.4512 31.5392-70.4512 70.4512-70.4512 70.4512 31.5392 70.4512 70.4512z m-64.017067-46.0288c-7.697067 5.282133-17.621333 1.032533-25.454933 4.9408-1.604267 0.802133-19.3792 18.756267-20.701867 20.974933-21.666133 36.1472 17.749333 79.616 57.6 61.3888 43.8784-20.0704 33.493333-76.834133-11.434666-87.296z" fill="#FAC9AA" p-id="5981"></path><path d="M858.914133 676.0192c44.936533 10.461867 55.313067 67.234133 11.434667 87.296-39.850667 18.2272-79.266133-25.2416-57.6-61.3888 1.3312-2.210133 19.0976-20.1728 20.701867-20.974933 7.8336-3.908267 17.757867 0.349867 25.454933-4.9408z" fill="#FABD9B" p-id="5982"></path><path d="M318.293333 914.0736c-28.689067 35.421867-72.951467 59.221333-119.253333 56.738133-6.485333-0.349867-9.088-6.536533-17.143467 0.093867 1.152-9.403733-7.867733-19.498667-13.422933-26.359467-34.372267-42.504533-69.3248-78.353067-100.241067-125.192533 9.3952 0.3328 18.926933-0.580267 28.3392 0.068267 4.744533 0.324267 8.832 4.343467 15.044267 3.8656 9.710933-0.750933 34.432-6.0928 43.886933-9.472 28.8512-10.325333 63.701333-39.978667 71.850667-70.229334 7.748267 29.576533 29.149867 73.344 44.731733 101.137067 9.3952 16.759467 33.450667 57.6256 46.199467 69.3504z" fill="#F6C27E" p-id="5983"></path><path d="M227.362133 743.5776c-8.149333 30.250667-42.999467 59.904-71.850666 70.229333-9.454933 3.387733-34.176 8.721067-43.886934 9.472-6.212267 0.4864-10.299733-3.5328-15.044266-3.8656-9.412267-0.648533-18.952533 0.273067-28.3392-0.068266-37.7088-57.130667-71.355733-125.3888-5.751467-178.141867 42.222933-33.954133 104.405333-29.943467 138.427733 13.2608 21.802667 27.682133 18.218667 57.685333 26.453334 89.105067zM120.669867 653.252267c-0.861867-0.861867-18.013867-8.046933-19.669334-7.765334-7.611733 1.271467-19.746133 13.354667-20.872533 21.000534 1.390933 17.2288 14.549333 41.070933 35.029333 34.961066 2.807467-0.836267 12.373333-10.436267 13.218134-13.269333 2.372267-8.021333-2.304-29.5168-7.697067-34.926933z m40.823466-3.9424c-2.816 0.836267-12.381867 10.4448-13.218133 13.2864-6.818133 67.515733 69.5552 35.208533 29.934933-11.946667-4.7872-2.568533-11.6736-2.8416-16.725333-1.339733zM82.833067 743.031467c15.351467-21.8624-10.504533-54.997333-33.655467-43.118934-27.264 13.986133 6.903467 62.395733 33.655467 43.118934z m102.1696 22.621866c12.202667-25.156267 6.621867-35.8912-18.210134-46.754133-22.0416-9.642667-42.308267-16.5632-58.6752 5.845333-4.855467 6.647467-17.442133 36.283733-17.4336 43.4688 0 8.951467 5.051733 16.981333 11.5456 22.8352 21.879467 11.2128 62.045867-16.443733 82.773334-25.386666z" fill="#F6EDDA" p-id="5984"></path><path d="M185.002667 765.653333c-20.727467 8.942933-60.893867 36.599467-82.773334 25.386667-6.485333-5.845333-11.537067-13.8752-11.5456-22.8352 0-7.185067 12.578133-36.821333 17.4336-43.4688 16.3584-22.4 36.6336-15.479467 58.6752-5.845333 24.823467 10.8544 30.404267 21.597867 18.210134 46.754133z" fill="#553128" p-id="5985"></path><path d="M120.669867 653.252267c5.393067 5.410133 10.077867 26.9056 7.697066 34.926933-0.836267 2.8416-10.410667 12.433067-13.218133 13.269333-20.48 6.101333-33.6384-17.7408-35.029333-34.961066 1.1264-7.645867 13.269333-19.7376 20.872533-21.000534 1.664-0.273067 18.807467 6.903467 19.669333 7.765334z" fill="#5B382E" p-id="5986"></path><path d="M82.833067 743.031467c-26.752 19.2768-60.928-29.1328-33.655467-43.118934 23.159467-11.8784 49.006933 21.256533 33.655467 43.118934z" fill="#57342C" p-id="5987"></path><path d="M161.493333 649.309867c5.051733-1.501867 11.938133-1.2288 16.725334 1.339733 39.611733 47.146667-36.7616 79.4624-29.934934 11.946667 0.836267-2.8416 10.402133-12.4416 13.218134-13.2864z" fill="#5E382D" p-id="5988"></path></svg>