<?xml version="1.0" standalone="no"?><!DOCTYPE svg PUBLIC "-//W3C//DTD SVG 1.1//EN" "http://www.w3.org/Graphics/SVG/1.1/DTD/svg11.dtd"><svg t="1772951680673" class="icon" viewBox="0 0 1024 1024" version="1.1" xmlns="http://www.w3.org/2000/svg" p-id="5183" xmlns:xlink="http://www.w3.org/1999/xlink" width="200" height="200"><path d="M991.289595 646.88172c-6.157552-4.133267-16.321323-8.562978-23.410554-11.705277-0.592887-10.892175 0.948619-22.216311-0.076229-33.083077-2.811977-29.8222-12.687775-70.130025-21.276162-99.681191-8.376642-28.822763-33.963937-78.81158-37.106236-103.357088-4.853201-37.893929 2.66799-85.536609 0.101637-124.963573-1.541505-23.698528-7.715997-57.196625-12.772473-80.869744-5.78488-27.077982-22.572043-87.560893-42.061075-106.202945-19.870174-18.997783-39.858925-13.170554-62.439438-4.00622-50.556294 20.505409-96.555831 61.685624-138.90488 95.28536-2.380017 0.787692-4.760033 0.686055-7.216278 0.46584-15.872423-1.431398-37.800761-9.469247-54.842018-11.730687-61.389181-8.156427-133.975451-5.124235-194.932671 3.896113-9.545476 1.414458-21.055947 5.513846-30.830108 7.402613C324.537701 146.03646 275.294227 102.256013 226.60976 83.004136c-22.351828-8.842481-37.301042-15.448933-58.475566 0.169396-33.904648 25.011348-45.347361 112.004764-50.895087 151.990736-2.125922 15.330356-6.987593 35.446154-7.902333 50.624053-2.22756 36.877552 4.717684 81.869181 0.101638 117.154409-4.243375 32.473251-33.023788 87.747229-41.950968 125.819024-8.01244 34.175682-13.297601 71.417436-12.603077 106.39775-5.200463 2.176741-19.819355 5.429148-23.410554 7.800695-6.420116-2.922084-4.429711-15.59292-3.811414-21.38627 4.853201-45.491348 12.111828-90.262763 25.163804-134.797022 5.539256-18.913085 33.37105-83.893466 33.269413-95.463226-0.042349-4.319603-3.904582-9.189744-4.073978-15.457403-1.931117-70.900778 6.420116-177.095252 29.288602-244.176146 18.70134-54.875897 50.615583-99.367808 115.392688-76.067361 49.556857 17.82048 103.416377 60.957221 142.724764 95.361588 88.941472-14.839107 183.286683-18.379487 272.634707 0.635236 37.85158-23.690058 70.223193-56.324235 109.887312-77.702035 66.623524-35.903524 113.893532-36.343954 147.730421 38.359768 22.453466 49.573797 34.463656 135.068056 37.173995 189.122383 1.583854 31.575451-4.336543 71.874806-0.169396 101.612307 1.312821 9.376079 11.256377 25.705873 14.771348 35.945873 23.037883 67.080893 45.533697 135.754111 39.850455 207.90842z" fill="#4F2C22" p-id="5184"></path><path d="M967.879041 635.176443c-6.597982-2.922084-23.046352-10.629611-27.315137-11.705277-6.301538-13.314541-22.123143-16.439901-35.115831-19.505972-5.971216-33.582796-39.359206-47.532572-69.096708-53.808701-5.954276-1.253532-28.001191-5.234342-32.346204-4.717684-7.267097-17.37158-22.038445-29.695153-38.961125-37.123176-44.54273-19.548321-121.634938-15.415054-146.222795 33.345641-9.757221 19.345045 0.211745 34.590703 21.310041 23.283507 21.38627 13.382299 26.950935 43.458594 35.115831 66.32708-24.071199 2.083573-46.101175-13.424648-64.446782-27.238908-6.149082-4.632986-11.1378-12.941869-17.591795-17.524037-38.402117-27.306667-88.966882-31.998941-132.620281-15.762316-41.180215 15.313416-65.818892 62.202283-113.09737 60.533731 8.732374-24.875831 10.062134-51.555732 35.115831-66.32708 27.289727 15.11861 33.870769-5.79335 18.972374-28.729595-28.170587-43.356956-96.225509-45.787792-139.972076-27.899553-15.372705 6.284599-37.555136 18.769098-38.969595 37.114706-0.940149-0.186336-5.962746 3.667428-9.75722 3.786005-10.121423 0.313383-20.429181-0.804632-30.457436 0.87239-22.402647 3.743656-61.473879 30.347328-65.132837 53.86799-12.984218 2.21909-27.882614 8.495219-35.115832 19.505972-7.57201 1.134955-19.633019 8.486749-27.315136 11.705277-0.686055-34.980314 4.590637-72.222068 12.603077-106.39775 8.927179-38.080265 37.707593-93.345773 41.950967-125.819024 4.607577-35.285227-2.329198-80.285327-0.101637-117.154408 0.914739-15.177899 5.77641-35.293697 7.902332-50.624053 5.556195-39.985972 16.998908-126.979388 50.895087-151.990737 21.174524-15.618329 36.123739-9.011878 58.475567-0.169396 48.684467 19.251878 97.92794 63.032324 138.91335 95.327709 9.78263-1.888768 21.284632-5.988156 30.830107-7.402614 60.957221-9.028817 133.54349-12.061009 194.932672-3.896112 17.032787 2.261439 38.961125 10.299289 54.842018 11.730686 2.456245 0.220215 4.844731 0.321853 7.216278-0.465839 42.349049-33.599735 88.340116-74.77995 138.90488-95.28536 22.580513-9.155864 42.577734-14.991563 62.439437 4.00622 19.489032 18.642051 36.276195 79.124963 42.061076 106.202945 5.064946 23.673118 11.230968 57.171216 12.772473 80.869743 2.566352 39.418495-4.954839 87.069644-0.101638 124.963573 3.142299 24.545509 28.738065 74.534326 37.106237 103.357089 8.588387 29.551166 18.464185 69.858991 21.276162 99.681191 1.024847 10.866766-0.516658 22.190902 0.076228 33.083077zM201.801687 140.276989c-17.320761 3.786005-25.604235 29.534227-29.136145 44.99163-5.77641 25.248503-10.6889 79.158842-8.647676 104.712258 2.591762 32.363143 22.038445-3.387924 31.236658-11.900083 7.987031-7.385674 20.852672-18.658991 29.280133-25.350141 9.7911-7.766816 62.76129-40.163838 64.201158-45.135616 1.804069-5.623954-0.559007-7.614359-3.56579-11.468122-11.510471-14.745939-51.598081-52.046981-68.978131-55.858396-5.081886-1.118015-9.308321-1.109545-14.381737 0z m600.882184-0.084698c-14.585012 3.328635-75.482945 54.062796-72.628619 67.368867 22.360298 19.446683 49.446749 33.227064 72.078081 52.97866 12.137237 10.595732 22.978594 24.206716 35.039603 35.19206 10.519504 9.579355 16.211216 12.374392 17.659554-5.742531 2.312258-28.93287-4.853201-83.842647-12.772473-112.301208-4.861671-17.464748-17.481687-42.493036-39.384616-37.487378zM350.37062 358.747262c-78.108586 11.730687-37.817701 106.753482 38.037916 96.886154 29.144615-3.794475 37.224814-25.84139 33.311762-52.690686-2.295318-15.728437-30.923275-35.640959-45.660745-40.180778-3.752126-1.160364-22.495815-4.488999-25.688933-4.01469z m312.027792 0.203276c-94.37062 13.001158-82.063987 127.064086 11.671398 89.720694 28.602548-11.391894 40.638147-29.576576 36.284665-61.245194-2.871266-20.886551-29.39871-31.033383-47.956063-28.4755z m-511.644268 50.175153c-10.765128 3.142299-37.631365 66.606584-37.673714 79.734789-0.059289 16.151927 13.068916 34.71775 29.576576 37.046948 37.622895 5.319041 45.643805-24.189777 40.231596-55.816047-1.812539-10.570323-12.255815-38.139553-16.693995-49.641555-2.744218-7.10617-6.462465-13.949777-15.440463-11.332605z" fill="#F7C27F" p-id="5185"></path><path d="M201.801687 140.276989c5.081886-1.109545 9.308321-1.118015 14.381737 0 17.388519 3.811414 57.467659 41.112457 68.978131 55.858396 3.006782 3.853763 5.369859 5.844169 3.56579 11.468122-1.439868 4.971778-54.418528 37.360331-64.201158 45.135616-8.418991 6.68268-21.293102 17.955997-29.280132 25.350141-9.198213 8.503689-28.644897 44.263226-31.236659 11.900083-2.049694-25.553416 2.871266-79.463755 8.647676-104.712258 3.54038-15.457403 11.823854-41.205624 29.136146-44.99163z" fill="#F9C7B6" p-id="5186"></path><path d="M802.683871 140.192291c21.902928-5.005658 34.531414 20.02263 39.384615 37.487378 7.910802 28.450091 15.076261 83.368337 12.772473 112.301208-1.448337 18.125393-7.14005 15.321886-17.659553 5.742531-12.069479-10.985343-22.902366-24.596328-35.039603-35.19206-22.631332-19.751596-49.717783-33.531977-72.078081-52.97866-2.854326-13.297601 58.043606-64.031762 72.628619-67.368867z" fill="#F8C7B6" p-id="5187"></path><path d="M662.398412 358.950538c18.565823-2.557883 45.084797 7.58895 47.956063 28.4755 4.361952 31.668619-7.682117 49.8533-36.284665 61.245194-93.735385 37.343391-106.042018-76.728007-11.671398-89.720694z" fill="#F7EEDC" p-id="5188"></path><path d="M350.37062 358.747262c3.193118-0.482779 21.945277 2.854326 25.688933 4.01469 14.737469 4.539818 43.365426 24.452341 45.660745 40.180778 3.913052 26.849297-4.167146 48.896212-33.311762 52.690686-75.847146 9.867328-116.146501-85.163937-38.037916-96.886154z" fill="#F7EEDB" p-id="5189"></path><path d="M150.754144 409.125691c8.969529-2.617171 12.696245 4.226435 15.440463 11.332605 4.43818 11.502002 14.881456 39.062763 16.693995 49.641555 5.412208 31.62627-2.608701 61.126617-40.231596 55.816046-16.507659-2.329198-29.627395-20.90349-29.576576-37.046947 0.042349-13.128205 26.908586-76.59249 37.673714-79.73479z m5.556195 30.957154c-8.8933-1.245062-6.199901-0.093168-8.46981 5.081886-8.266534 18.794508-20.01416 32.202217-14.441025 54.918247 7.444963 13.602514 17.532506 11.798445 30.152522 5.77641 12.840232-23.122581-5.429148-42.543854-7.241687-65.776543z" fill="#43AFD8" p-id="5190"></path><path d="M156.310339 440.082845c1.812539 23.232688 20.081919 42.645492 7.241687 65.776543-12.628486 6.022035-22.70756 7.826104-30.152522-5.77641-5.573135-22.71603 6.174491-36.115269 14.441025-54.918247 2.278379-5.175054-0.415021-6.326948 8.46981-5.081886z" fill="#BEDFEC" p-id="5191"></path><path d="M78.286452 724.914078c16.888801 54.350769 56.823954 95.751199 101.442911 128.758048 8.385112 6.199901 14.483375 10.23153 23.410554 15.609859 28.424682 17.100546 51.072953 26.959404 81.93694 39.020414 8.944119 3.498031 14.940744 4.980248 23.410554 7.800694 135.8134 45.305012 268.204996 48.294855 405.780116 3.904583 7.258627-2.337667 13.509347-5.598544 19.505972-7.800695 31.236658-11.476592 57.162746-21.614955 85.841522-39.020414 7.165459-4.353482 11.374955-8.859421 15.609859-11.705277 30.25416-20.293664 57.908089-40.909181 79.819487-70.401058 14.042945-18.904615 25.477188-40.036791 33.337171-62.261572 2.803507 1.812539 14.059884 3.218528 19.60761 5.928867 3.09995 1.516096 3.498031 5.598544 3.802945 5.77641-42.272821 111.098495-158.51249 178.297965-268.213466 209.746369-192.552655 55.20622-500.049098 22.673681-620.862465-157.58928-11.298726-16.863391-20.615517-37.148586-27.831795-56.053201 0.736873-0.211745 8.495219-7.9955 11.917023-9.672523 4.743093-2.320728 11.036162-1.677022 11.493531-2.032754z" fill="#502D23" p-id="5192"></path><path d="M382.615186 564.944781c-25.053697 14.779818-26.383457 41.459719-35.115831 66.32708-32.117519 91.431596-49.658495 156.157883-43.085922 255.737436 0.626766 9.511596 6.453995 18.523474 4.073978 29.093796-8.46981-2.828916-14.466435-4.311133-23.410554-7.800694 6.208371-2.820447 4.522878-15.889363 4.01469-21.589545-9.003408-100.672159 8.266534-174.418792 43.644929-268.255815l22.572043-53.503788c-40.993879-1.922647-84.1645 11.950902-115.172473 38.935715-5.623954 26.010786-14.390207 51.19153-20.48 77.058329-12.789413 54.291481-20.446121 95.946005-16.338263 151.101406 0.8978 12.052539-0.957089 25.053697-0.169396 37.233284-8.927179-5.369859-15.025443-9.401489-23.410554-15.609859 6.767378-3.260877 3.836824-15.059322 3.887643-21.470968 0.152457-16.990438-1.448337-36.199967 0.008469-52.665277 0.948619-10.714309 5.547725-29.8222 7.800695-42.916526 6.597982-38.342829 17.151365-75.635401 27.306667-113.148189-21.157585 18.845327-45.296543 34.599173-74.127775 23.410554-7.538131-2.922084-12.831762-7.656708-19.497502-11.705277-0.398081 12.552258-12.179586 21.208404-17.405459 31.372176-6.708089 13.035037-9.376079 25.282382-17.718842 38.859487-3.226998 5.251282-6.843606 7.707527-9.782631 11.866203-2.21062 3.12536-1.617734 7.394144-1.922646 7.639769-0.45737 0.364202-6.750438-0.279504-11.493532 2.032754-3.421803 1.677022-11.180149 9.452308-11.917023 9.672523-5.759471 1.677022-24.93512 0.347262-31.406054-1.761721-28.195997-9.189744-28.797353-46.821108-13.36536-68.368304 1.931117-2.701869 20.0311-22.639801 21.36086-23.512192 3.591199-2.371547 18.210091-5.623954 23.410554-7.800695 7.682117-3.218528 19.743127-10.570323 27.315137-11.705277 7.300976-1.092605 37.478908 1.482217 39.011944 0 0.110108-7.148519-5.098825-11.773036-3.896113-19.505972 3.658958-23.529132 42.73019-50.124334 65.132837-53.86799 10.028255-1.677022 20.336013-0.550538 30.457436-0.87239 3.794475-0.118577 8.817072-3.972341 9.757221-3.786005 0.203275 0.042349 0.491249 2.68493 2.752688 3.13383 17.134425 3.404864 22.834607 7.224748 34.768569 19.988751 32.159868-10.096013 78.421969-29.457998 110.564897-13.212904 4.370422 2.21062 8.850951 7.910802 11.883143 9.587825z m-192.298561 0.830041c-9.291381 1.312821-23.546071 6.326948-31.507692 11.417304-33.218594 21.233813-29.84761 59.915434 15.008503 54.011977 29.84761-3.921522 47.778197-38.105674 72.239007-52.614459 4.88708-16.787163-45.84708-14.203871-55.739818-12.814822z m-84.723507 73.314673c-30.448966 0.118577-81.742134 20.573168-89.212506 53.292043-3.387924 14.830637 9.621704 29.974657 24.731845 28.822763 34.201092-2.600232 46.795699-58.848238 64.472191-82.106336z" fill="#47B2D8" p-id="5193"></path><path d="M905.448073 603.965194c0.830041 4.683805-0.643706 10.587262 0.016939 15.575981 1.744781 1.566915 30.144053 2.67646 35.098892 3.929991 4.268784 1.075666 20.708685 8.783193 27.315137 11.705277 7.089231 3.142299 17.253002 7.57201 23.410554 11.705277 26.476625 17.778131 48.557419 59.161621 17.642613 82.021638-11.815385 8.732374-14.796758 6.081323-27.357485 7.834574-3.58273 0.499719-9.3422 4.065509-9.7911 3.794475-0.296443-0.186336-0.702994-4.268784-3.802945-5.77641-5.547725-2.701869-16.804103-4.116328-19.607609-5.928867-3.531911-2.278379-20.090389-24.697965-22.843077-29.83067-9.596294-17.905178-13.932837-41.171745-30.186402-55.756758l-5.496907-0.254094c-33.692903 18.963904-59.280199 1.067196-85.833052-19.505972 9.570885 45.694624 24.985939 90.127246 31.202779 136.558743 3.498031 26.137833 5.33598 53.266634 4.01469 80.090521-0.398081 8.114078-1.956526 13.80579-4.01469 21.35239-4.234905 2.837386-8.4444 7.351795-15.609859 11.705277-1.151894-23.503722 5.598544-44.576609 4.073978-68.453002-3.963871-62.151464-22.284069-123.837089-38.317419-184.082845-1.236592-4.632986-0.533598-9.503127-1.422928-14.186932-27.59464-32.261505-75.508354-42.764069-116.502233-41.510537l22.572043 57.3999c28.755004 82.775451 53.461439 163.933168 47.820546 252.950869-0.728404 11.476592-7.10617 23.749347-4.073979 36.894491-5.996625 2.202151-12.247345 5.463027-19.505972 7.800695 4.616046-20.124268 2.811977-40.011381 3.980811-60.398213 0.559007-9.7911 4.980248-17.34617 3.735186-31.219719-6.335418-70.553515-22.902366-130.350372-46.72794-197.109413-8.164897-22.876956-13.729562-52.944781-35.115832-66.32708 9.528536-5.107295 17.236063-12.628486 30.017006-14.856047 27.374425-4.751563 63.252539 8.207246 88.58574 18.557354 9.011878-10.053664 32.456311-21.699653 45.271133-23.207279 4.345012-0.508189 26.391927 3.464152 32.346204 4.717684 29.737502 6.267659 63.133962 20.217436 69.096708 53.808701z m-128.758048-23.427493c30.982564 11.468122 46.008007 48.379553 80.742696 54.003507 15.347295 2.481654 35.691778-11.629049 31.863425-28.035071-1.160364-4.980248-8.977998-18.591232-12.967279-22.190901-12.89105-11.629049-57.162746-25.536476-73.543358-22.555104-4.861671 0.88933-34.810918 12.230405-26.095484 18.777569z m136.567212 58.551794c24.579388 30.050885 25.265443 86.739322 76.185939 82.013168 42.255881-20.767974-0.855451-60.770885-29.314011-72.315235-7.5466-3.066071-42.442217-13.323011-46.871928-9.697933z" fill="#41B1D8" p-id="5194"></path><path d="M675.247113 631.271861c23.825575 66.759041 40.400993 126.555897 46.727941 197.109413 1.245062 13.873548-3.167709 21.428619-3.735186 31.219719-1.168834 20.378362 0.635236 40.273945-3.980811 60.398213-137.58359 44.390273-269.966716 41.4089-405.780116-3.904582 2.380017-10.570323-3.447213-19.5822-4.073978-29.093797-6.572572-99.579553 10.976873-164.29737 43.085922-255.737436 47.270008 1.668553 71.908685-45.220314 113.09737-60.53373 43.6534-16.236625 94.209694-11.544351 132.620281 15.762316 6.445525 4.582167 11.442713 12.89952 17.591795 17.524036 18.345608 13.82273 40.375583 29.322481 64.446782 27.238908z m-188.478676-42.162713c-30.186402 5.124235-56.070141 30.177932-33.997817 59.805327 16.253565 21.80976 45.457469 32.879801 72.255947 29.178494 15.643739-2.159801 48.489661-25.81598 52.030042-41.595235 10.477155-46.72794-57.831861-52.893962-90.288172-47.388586zM600.526452 798.448966c0.686055-0.677585 7.495782-15.872423 7.885392-17.591795 2.947494-12.89952-12.535318-44.712126-21.123705-55.773697-34.785509-44.839173-95.29383-52.411183-138.168007-13.653333-31.194309 28.195997-55.468784 105.288205 8.961059 90.897998 11.933962-2.66799 25.511067-13.839669 39.477783-15.14402 9.223623-0.863921 26.163242-0.931679 35.209 0.220215 17.210653 2.202151 51.496443 27.221969 67.758478 11.036162z" fill="#F9F0DC" p-id="5195"></path><path d="M819.615021 873.178098c-28.670306 17.405459-54.604864 27.543821-85.841522 39.020413-3.040662-13.153615 3.345575-25.417899 4.073978-36.894491 5.632423-89.017701-19.065542-170.166948-47.820546-252.950869l-22.572043-57.3999c40.985409-1.245062 88.907593 9.249032 116.502234 41.510537 0.88933 4.683805 0.186336 9.553945 1.422928 14.186932 16.03335 60.245757 34.345079 121.931381 38.317419 184.082845 1.524566 23.876394-5.217403 44.94928-4.073979 68.453002z" fill="#A2DBF0" p-id="5196"></path><path d="M203.139917 869.281985c-0.787692-12.179586 1.067196-25.180744 0.169396-37.233284-4.107858-55.155401 3.54885-96.809926 16.338264-151.101406 6.089793-25.866799 14.856046-51.056013 20.48-77.058329 31.016443-26.984814 74.178594-40.858362 115.172473-38.935715l-22.572043 53.503788c-35.378395 93.837022-52.648337 167.583656-43.64493 268.255815 0.508189 5.700182 2.193681 18.769098-4.01469 21.589545-30.863987-12.052539-53.512258-21.911398-81.93694-39.020414z" fill="#A2DCF1" p-id="5197"></path><path d="M948.373069 728.81866c-7.851514 22.216311-19.294227 43.348486-33.337172 62.261572-21.911398 29.491878-49.565327 50.107395-79.819487 70.401058 2.066634-7.5466 3.616609-13.238313 4.01469-21.35239 1.32129-26.823888-0.516658-53.952688-4.01469-80.090521 27.17962-8.359702 39.206749-12.645426 54.011977-37.673714 9.105045-15.398114 14.644301-27.560761 12.247345-46.151993-1.651613-12.764003-12.069479-20.751034-11.637519-33.227064l5.496907 0.254094c16.253565 14.585012 20.590108 37.85158 30.186402 55.756758 2.752688 5.132705 19.311166 27.552291 22.843077 29.83067z" fill="#F7E9D4" p-id="5198"></path><path d="M89.991729 705.408106l21.564135 38.910306c5.522316 7.614359 35.369926 26.71378 44.576609 29.559636 9.901208 3.057601 21.233813-1.609264 27.501472 5.666303-1.456807 16.45684 0.135517 35.666369-0.008469 52.665277-0.059289 6.411646 2.879735 18.210091-3.887643 21.470968-44.618958-33.006849-84.554111-74.407279-101.442912-128.758048 0.313383-0.245624-0.287974-4.514409 1.922647-7.639769 2.939024-4.158677 6.555633-6.614921 9.782631-11.866203z" fill="#F7EBD8" p-id="5199"></path><path d="M382.615186 564.944781c-3.032192-1.677022-7.504251-7.377204-11.883143-9.587825-32.142928-16.245095-78.405029 3.11689-110.564897 13.212903-11.933962-12.764003-17.634144-16.592357-34.768569-19.988751-2.261439-0.4489-2.549413-3.091481-2.752688-3.133829 1.405988-18.345608 23.59689-30.830108 38.969595-37.114707 43.746567-17.888238 111.801489-15.457403 139.972076 27.899554 14.898395 22.927775 8.317353 43.848205-18.972374 28.729594z" fill="#503026" p-id="5200"></path><path d="M144.613532 646.88172c-2.405426 25.722812-12.738594 39.435434-0.855451 65.234475 7.639768 16.575418 30.017006 24.968999 47.676559 24.51163-2.252969 13.094326-6.852076 32.202217-7.800695 42.916526-6.267659-7.275567-17.591795-2.608701-27.501472-5.666303-9.206683-2.837386-39.054293-21.945277-44.576609-29.559636l-21.564135-38.910306c8.342763-13.577105 11.010753-25.82445 17.718842-38.859487 5.225873-10.163772 17.015848-18.819917 17.405459-31.372176 6.67421 4.048569 11.967841 8.783193 19.497502 11.705277z" fill="#F9D8BF" p-id="5201"></path><path d="M191.43464 736.619355c-17.651084 0.46584-40.036791-7.927742-47.676559-24.51163-11.891613-25.799041-1.558445-39.503193 0.855451-65.234474 28.831232 11.188619 52.97019-4.565227 74.127775-23.410555-10.146832 37.512787-20.708685 74.80536-27.306667 113.148189z" fill="#F7B899" p-id="5202"></path><path d="M190.316625 565.774822c9.892738-1.397519 60.635368-3.972341 55.739818 12.814822-24.460811 14.508784-42.399868 48.692936-72.239007 52.614459-44.856112 5.894988-48.227097-32.786634-15.008503-54.011977 7.961621-5.090356 22.207841-10.104483 31.507692-11.417304z" fill="#C0E4F3" p-id="5203"></path><path d="M105.593118 639.089495c-17.676493 23.258098-30.2711 79.506104-64.472192 82.106336-15.110141 1.151894-28.119768-13.983656-24.731844-28.822762 7.470372-32.710405 58.76354-53.173466 89.212506-53.292043z" fill="#ADDEF0" p-id="5204"></path><path d="M117.298395 603.965194c-1.202713 7.732936 4.00622 12.357452 3.896113 19.505972-1.541505 1.490687-31.710968-1.092605-39.011944 0 7.233218-11.010753 22.131613-17.286882 35.115831-19.505972z" fill="#EFECDC" p-id="5205"></path><path d="M804.005161 545.438809c-12.814822 1.507626-36.259256 13.162084-45.271133 23.207279-25.333201-10.350108-61.211315-23.308916-88.58574-18.557354-12.780943 2.21909-20.48847 9.740281-30.017006 14.856047-21.098296 11.315666-31.067262-3.938462-21.310041-23.283507 24.587858-48.760695 101.680066-52.893962 146.222795-33.345641 16.92268 7.428023 31.702498 19.751596 38.961125 37.123176z" fill="#4F3026" p-id="5206"></path><path d="M889.846683 642.977138c-0.43196 12.47603 9.985906 20.46306 11.637519 33.227064 2.396956 18.591232-3.13383 30.753879-12.247345 46.151993-14.805227 25.036758-26.832357 29.314012-54.011977 37.673714-6.21684-46.431497-21.631894-90.864119-31.202779-136.558743 26.544384 20.573168 52.131679 38.469876 85.833052 19.505972z" fill="#F7BFA1" p-id="5207"></path><path d="M776.690025 580.537701c-8.715434-6.547163 21.233813-17.888238 26.095484-18.777569 16.380612-2.981373 60.652308 10.926055 73.543358 22.555104 3.98928 3.599669 11.806915 17.210653 12.967279 22.190901 3.819884 16.406022-16.524599 30.516725-31.863425 28.035071-34.73469-5.615484-49.760132-42.535385-80.742696-54.003507z" fill="#BAE0F0" p-id="5208"></path><path d="M913.257237 639.089495c4.429711-3.625079 39.325327 6.631861 46.871928 9.697933 28.458561 11.552821 71.569892 51.547262 29.314011 72.315235-50.920496 4.734624-51.606551-51.962283-76.185939-82.013168z" fill="#AFDCEE" p-id="5209"></path><path d="M940.563904 623.471166c-4.954839-1.253532-33.354111-2.363077-35.098892-3.929991-0.660645-4.988718 0.813102-10.892175-0.016939-15.575981 12.992688 3.066071 28.814293 6.191431 35.115831 19.505972z" fill="#F2E7CB" p-id="5210"></path><path d="M600.526452 798.448966c-16.253565 16.185806-50.547825-8.842481-67.758478-11.036162-9.037287-1.160364-25.976907-1.084136-35.209-0.220215-13.966716 1.304351-27.552291 12.47603-39.477783 15.14402-64.429843 14.390207-40.155368-62.702002-8.961059-90.897999 42.874177-38.757849 103.382498-31.18584 138.168007 13.653334 8.588387 11.070041 24.06273 42.874177 21.123705 55.773697-0.389611 1.719371-7.207808 16.91421-7.885392 17.591795z m-159.376411-18.913085c19.827825-1.541505 36.208437-13.924367 56.408933-15.762316 32.761224-2.981373 47.20225 4.184086 76.025013 14.051414 7.190868 2.464715 7.224748 1.236592 11.900082-4.124797-16.338263-46.397618-51.487974-73.407841-101.553019-54.77426-25.477188 9.477717-40.350174 34.014756-42.781009 60.609959z" fill="#543026" p-id="5211"></path><path d="M486.768437 589.109148c32.447841-5.505376 100.765327 0.660645 90.288172 47.388586-3.54038 15.779256-36.386303 39.435434-52.030042 41.595235-26.806948 3.701307-56.010852-7.360265-72.255947-29.178494-22.072324-29.627395 3.811414-54.681092 33.997817-59.805327z" fill="#533128" p-id="5212"></path><path d="M441.150041 779.535881c2.430835-26.595203 17.303821-51.123772 42.781009-60.609959 50.065045-18.633581 85.206286 8.368172 101.553019 54.77426-4.675335 5.36139-4.709214 6.589512-11.900082 4.124797-28.822763-9.875798-43.263788-17.032787-76.025013-14.051414-20.200496 1.837949-36.581108 14.22928-56.408933 15.762316z" fill="#F6AA92" p-id="5213"></path></svg>