<?xml version="1.0" standalone="no"?><!DOCTYPE svg PUBLIC "-//W3C//DTD SVG 1.1//EN" "http://www.w3.org/Graphics/SVG/1.1/DTD/svg11.dtd"><svg t="1772951662845" class="icon" viewBox="0 0 1024 1024" version="1.1" xmlns="http://www.w3.org/2000/svg" p-id="3721" xmlns:xlink="http://www.w3.org/1999/xlink" width="200" height="200"><path d="M768.46584 4.370422c77.04139-13.102796 111.547395 74.864648 130.553647 134.415881 23.563011 73.831332 32.50713 150.957419 39.503193 227.05866 52.343424 97.987229 100.1555 206.832754 81.276294 320.446782-27.59464 166.092969-194.610819 265.570885-344.280827 307.759008-240.85598 67.893995-628.798677 18.921555-672.562183-283.17115-8.961059-61.855021 4.133267-137.905443 17.253002-199.90445 7.851514-37.097767 16.04182-42.806419 11.425773-83.038015-9.274442-80.861274-21.225343-247.631828 22.597453-317.634805 36.94531-59.017634 102.103557-32.94756 153.743987-10.434806 36.95378 16.109578 70.197783 38.800199 104.466633 59.703689l114.935319-24.706435c11.815385 3.150769 23.61383-3.413333 32.820513-4.090918 47.964533-3.54038 98.105806 4.057039 145.604499-2.032755C643.586964 92.185409 716.020778 13.272192 768.474309 4.353482zM35.666369 729.436956c12.137237 56.764665 25.070637 83.105773 61.516228 127.123375 3.498031 4.226435 4.336543 11.180149 10.096013 16.566948 85.782233 80.166749 225.72043 117.416973 340.350836 123.040926 214.904483 10.553383 544.761224-104.771547 547.649429-361.05952 0.711464-63.244069-11.239438-106.245294-34.785509-164.111034-11.5867-28.48397-46.431497-84.816675-50.539354-109.396063-1.7956-10.714309 0.364202-21.343921-0.880861-31.931183-9.469247-80.530951-26.451216-188.419388-68.834144-259.235467-20.556228-34.353548-43.814326-54.452407-84.274607-33.464218-24.011911 12.45909-62.142994 42.628553-82.690752 60.838643-22.080794 19.57373-40.95153 46.31292-65.437751 61.702564-10.392457 2.2445-19.099421-3.794475-28.627957-4.387361-91.346898-5.700182-183.210455 8.639206-270.796757 33.252473-45.279603-28.162117-91.050455-57.603176-141.471233-76.185939-34.971844-12.89105-62.693532-25.536476-88.102961 10.400926-12.806352 18.108453-24.613267 73.44172-26.6799 96.344086-6.572572 72.942002 3.55732 134.627626 8.037849 205.045625 4.116328 64.760165-27.433714 128.470074-32.642647 192.738991-3.176179 39.249098 0.44043 76.787295 8.122548 112.690819z" fill="#4F2D23" p-id="3722"></path><path d="M995.270405 635.117155c-9.765691-9.36761-12.077949-24.198246-20.429181-34.937966-21.877519-28.162117-53.114177-32.015881-86.197254-30.677651-59.314078 2.396956-93.735385 36.08139-143.529396 57.408371-41.281853 17.684963-77.981538 18.125393-117.671067-3.303226-50.988255-27.526882-69.198346-46.160463-134.4667-37.639834-64.014822 8.368172-82.834739 61.965128-130.494359 82.758511-17.024318 7.428023-46.236691 13.534756-64.370554 11.493532-8.368172-0.940149-26.637552-5.479967-36.911431-8.198776-35.107361-9.308321-67.487444-23.486782-105.432192-27.823325-6.318478-0.719934-18.320199-4.353482-21.691182 3.218527-32.718875 1.075666-60.576079 13.924367-79.861837 41.120927-9.020347 12.721654-9.935087 28.695715-18.565823 40.900711-7.682117-35.903524-11.298726-73.44172-8.122547-112.690819 5.208933-64.268916 36.758974-127.978825 32.642647-192.738991-4.480529-70.417998-14.601952-132.103623-8.03785-205.045624 2.066634-22.902366 13.873548-78.235633 26.679901-96.344086 25.417899-35.945873 53.131117-23.291977 88.102961-10.400926 50.420778 18.582763 96.191629 48.015352 141.471232 76.185938 87.586303-24.621737 179.449859-38.952655 270.796758-33.252473 9.528536 0.592887 18.227031 6.631861 28.627957 4.387362 24.48622-15.389644 43.348486-42.128834 65.43775-61.702564 20.547758-18.210091 58.678842-48.379553 82.690753-60.838644 40.460281-20.988189 63.718379-0.88933 84.274607 33.464218 42.382928 70.824549 59.364897 178.712986 68.834144 259.235468 1.245062 10.587262-0.914739 21.216873 0.88086 31.931183 4.107858 24.579388 38.952655 80.912093 50.539355 109.396062 23.546071 57.86574 35.496973 100.866964 34.785509 164.111034zM839.434376 270.136112c-3.591199-44.415682-8.418991-93.625277-26.595203-135.381439-9.037287-20.759504-23.105641-39.791166-48.760695-32.236096-3.879173 1.143424-26.883176 21.310041-31.338296 26.070075-3.303226 3.523441-4.776973 8.639206-8.046319 12.45909-10.824417 12.653896-26.400397 24.93512-28.788884 42.967345 39.833515 14.322448 76.456973 38.834078 110.556427 63.743788 4.141737 3.023722 28.49244 27.281257 32.97297 22.377237z m-729.945145 73.814393c6.25072 1.287411 8.630736-1.964996 12.382862-6.064384 9.35067-10.197651 19.217998-26.773069 28.543259-37.072358 24.850422-27.459123 54.604864-49.065608 82.072456-73.738163-31.219719-33.184715-112.055583-103.026766-126.318743-19.726187-6.470935 37.792291-4.624516 75.957254-0.694524 113.95282 0.719934 6.953714 6.335418 14.212341 4.01469 22.639802z m531.827824 4.904019c-36.826733 6.420116-81.403342 46.524665-58.145244 85.282515 25.265443 42.120364 104.475103 10.409396 111.920067-31.524632 6.318478-35.59861-18.345608-59.923904-53.774823-53.757883z m-332.160529 36.911431c-35.522382 6.369297-51.072953 38.469876-29.39024 68.808735 18.311729 25.612705 69.90134 40.400993 96.15775 22.546633 22.766849-15.482812 25.612705-40.832953 10.25694-63.354177-12.780943-18.752159-55.121522-31.931183-77.02445-28.00966z m464.467428 126.522019c-11.451183 0.304913-23.393615-1.168834-34.836328-0.381142-33.701373 2.337667-69.155997 7.360265-102.416939 12.408271-11.730687 1.77866-22.622862-4.065509-29.745972 10.180712 11.908553 58.75507 68.537701 97.479041 126.013829 69.681125 29.856079-14.441026 54.274541-60.008602 40.98541-91.897436z m-545.015319 57.42531c-6.030505 45.86402 45.279603 85.214756 88.15378 81.970819 30.381208-2.303788 60.228817-23.325856 70.705972-52.292606 3.692837-10.214591 10.807477-46.533135-1.507626-50.048106l-157.352126 20.369893z" fill="#F7C27E" p-id="3723"></path><path d="M995.270405 635.117155c-2.879735 256.279504-332.736476 371.604433-547.649429 361.05952-114.621935-5.623954-254.568602-42.874177-340.350835-123.040926-5.759471-5.386799-6.597982-12.340513-10.096014-16.566948 1.837949-7.665178 12.882581-0.533598 17.405459 1.058726 47.286948 16.702465 84.723507 29.39871 134.382002 9.240562 56.502101-22.927775 76.965161-81.953879 69.596427-139.413068-2.2445-17.473218-15.14402-31.067262-20.437651-47.22766 18.133863 2.041224 47.346237-4.073978 64.370554-11.493531 47.65115-20.793383 66.471067-74.390339 130.494359-82.758512 65.259884-8.529098 83.478445 10.112953 134.4667 37.639835 39.689529 21.428619 76.389214 20.988189 117.671067 3.303226 1.185773 16.626237-10.273879 30.957155-12.196526 47.244599-1.77019 15.050852 4.649926 40.688966 10.079073 55.341737 28.314574 76.389214 128.876625 82.072457 186.462862 34.616112 26.925525-22.190902 41.087047-85.765294 28.102829-117.950571-4.810852-11.925492-35.768007-52.284136-46.29598-60.330455-7.749876-5.928867-18.70981-6.979123-22.639802-16.321323 33.083077-1.33823 64.319735 2.515533 86.197254 30.677651 8.342763 10.739719 10.655021 25.570356 20.429181 34.937965z m-434.696046 61.499288l0.01694-6.123672c42.967345-37.292572 22.961654-75.491414-30.584483-80.14134-31.067262-2.6934-100.223259 16.541538-87.755699 59.051514 1.041787 3.54038 12.238875 18.167742 15.889363 21.005128 11.188619 8.698495 31.202779 14.347858 44.712125 18.930025l0.609827 11.527411c9.81651 6.564103 15.728437 0.474309 22.284069 0.465839 6.725029-0.01694 17.227593 7.292506 26.646022 4.01469 8.91024 40.146898-32.998379 29.026038-55.578892 48.99785-3.633548 8.723904-3.946931 19.107891 4.345013 24.825012l65.632555-28.221406c6.758908 5.446088 10.426336 13.738031 20.463061 11.976311 24.206716-8.46981 1.439868-32.524069-9.985906-43.771977 6.047444-20.200496 6.767378-37.148586-16.693995-42.535385z" fill="#FAF0DC" p-id="3724"></path><path d="M134.085558 647.423788c5.835699-0.194806 16.363672-1.821009 20.49694 2.049694-24.164367 19.505972-49.777072 25.163805-60.635368 58.289231-2.363077 7.199338-9.655583 38.452936-9.223623 44.043011 0.321853 4.158677 3.675897 8.139487 4.192556 12.569197 3.09995 26.764599 1.516096 46.262101 27.289727 62.922217 39.596361 25.595765 118.297833 25.875269 149.187229-13.704152 19.539851-25.028288 24.782663-54.74038 20.420711-86.197254-2.608701-18.845327-25.019818-35.547792-24.596327-55.367146 10.265409 2.718809 28.534789 7.258627 36.911431 8.198775 5.293631 16.160397 18.193151 29.762911 20.437651 47.22766 7.377204 57.459189-13.094326 116.485294-69.596427 139.413068-49.666964 20.158147-87.095054 7.453433-134.382002-9.240562-4.522878-1.600794-15.56751-8.723904-17.405459-1.058726-36.437122-44.026071-49.370521-70.35871-61.516228-127.123375 8.630736-12.204996 9.545476-28.179057 18.565823-40.900711 19.277287-27.188089 47.142961-40.036791 79.861836-41.120927z" fill="#F9E3CC" p-id="3725"></path><path d="M888.65244 569.501538c3.921522 9.3422 14.889926 10.392457 22.639802 16.321324 10.527974 8.046319 41.485128 48.404963 46.29598 60.330455 12.984218 32.185277-1.177304 95.768139-28.102829 117.950571-57.586237 47.456344-158.148288 41.781572-186.462862-34.616113-5.429148-14.652771-11.849264-40.290885-10.079074-55.341737 1.914177-16.287444 13.37383-30.618362 12.196526-47.244599 49.794012-21.326981 84.215318-55.011414 143.529397-57.40837z m-50.497006 45.86402c-56.417403 10.24-72.14584 87.010356-24.808073 117.603309 42.874177 27.704748 106.931348-3.396394 99.825178-58.831299-4.073978-31.770256-43.212969-64.54842-75.017105-58.77201z" fill="#F9D5B9" p-id="3726"></path><path d="M261.217403 672.028586c-0.415021 19.819355 21.987626 36.52182 24.596327 55.367146 4.361952 31.448404-0.88086 61.168966-20.420711 86.197254-30.897866 39.579421-109.590868 39.299917-149.187229 13.704152-25.773631-16.660116-24.189777-36.157618-27.289727-62.922217-0.516658-4.429711-3.870703-8.410521-4.192556-12.569197-0.43196-5.581605 6.860546-36.835203 9.223623-44.043011 10.858296-33.125426 36.471001-38.774789 60.635368-58.289231-4.133267-3.862233-14.661241-2.23603-20.49694-2.049694 3.370984-7.58048 15.372705-3.946931 21.691183-3.218527 37.953218 4.345012 70.32483 18.515004 105.432192 27.823325z m-79.074144 8.918709c-47.270008 6.631861-66.538825 41.984847-60.355864 87.442316 2.68493 19.734657 32.269975 40.544979 51.318577 42.984285 55.113052 7.072291 94.328271-42.552324 69.477849-94.065707-9.926617-20.573168-37.690653-39.554012-60.440562-36.369364z" fill="#F9D5BA" p-id="3727"></path><path d="M109.489231 343.950505c2.320728-8.427461-3.294756-15.686088-4.01469-22.639802-3.929992-37.995567-5.78488-76.160529 0.694524-113.95282 14.271629-83.300579 95.099024-13.458528 126.318743 19.726186-27.467593 24.672556-57.222035 46.270571-82.072456 73.738164-9.325261 10.307758-19.192589 26.874706-28.543259 37.072358-3.752126 4.099388-6.132142 7.351795-12.382862 6.064383z" fill="#FAC7B7" p-id="3728"></path><path d="M839.434376 270.136112c-4.480529 4.89555-28.831232-19.353515-32.97297-22.377237-34.099454-24.909711-70.722911-49.42981-110.556427-63.743788 2.388486-18.040695 17.964467-30.313449 28.788884-42.967345 3.269347-3.819884 4.743093-8.935649 8.046319-12.45909 4.46359-4.760033 27.467593-24.92665 31.338296-26.070075 25.655054-7.55507 39.723408 11.476592 48.760695 32.236096 18.176212 41.756162 23.004003 90.965757 26.595203 135.381439z" fill="#F9C6B6" p-id="3729"></path><path d="M773.623954 512.287974c13.289132 31.888834-11.12086 77.44794-40.98541 91.897435-57.476129 27.806385-114.105277-10.926055-126.013829-69.681124 7.12311-14.24622 18.015285-8.402051 29.745972-10.180712 33.260943-5.056476 68.707097-10.070604 102.416939-12.408271 11.442713-0.796162 23.385145 0.677585 34.836328 0.381141z m-99.638842 41.078577c0-12.213466-9.901208-22.106203-22.106204-22.106204s-22.106203 9.901208-22.106203 22.106204 9.901208 22.106203 22.106203 22.106203 22.106203-9.901208 22.106204-22.106203z" fill="#55342A" p-id="3730"></path><path d="M228.608635 569.713284l157.352126-20.369893c12.306634 3.514971 5.200463 39.833515 1.507626 50.048106-10.477155 28.966749-40.324764 49.988817-70.705972 52.292606-42.874177 3.243937-94.184285-36.106799-88.15378-81.970819z m20.564698 12.357452c-0.762283 10.172242-2.67646 25.324731 7.843044 30.584483 32.125988 16.050289 50.141274-32.303854 14.466435-39.18134l-22.301009 8.596857z" fill="#533129" p-id="3731"></path><path d="M309.156526 385.765955c21.902928-3.929992 64.243507 9.257502 77.02445 28.009661 15.355765 22.521224 12.501439 47.871365-10.25694 63.354177-26.24794 17.854359-77.846022 3.066071-96.15775-22.546633-21.682713-30.338859-6.132142-62.439438 29.39024-68.808735z" fill="#F7EEDC" p-id="3732"></path><path d="M641.317055 348.854524c35.429214-6.174491 60.0933 18.150802 53.774823 53.757883-7.444963 41.934028-86.646154 73.644996-111.920067 31.524632-23.249628-38.757849 21.318511-78.862399 58.145244-85.282515z" fill="#F7EDDB" p-id="3733"></path><path d="M560.574359 696.616443c23.461373 5.386799 22.741439 22.334888 16.693995 42.535385 11.425773 11.247907 34.192622 35.302167 9.985906 43.771977-10.036725 1.76172-13.704152-6.530223-20.463061-11.976311l-65.632555 28.221406c-8.291944-5.717122-7.978561-16.101108-4.345013-24.825012 22.580513-19.971811 64.489132-8.850951 55.578892-48.99785-9.418428 3.277816-19.920993-4.02316-26.646022-4.01469-6.555633 0.01694-12.46756 6.098263-22.284069-0.465839l-0.609827-11.527411c-13.517816-4.582167-33.523507-10.23153-44.712125-18.930025-3.642018-2.828916-14.847577-17.456278-15.889363-21.005128-12.46756-42.509975 56.688437-61.744913 87.755699-59.051514 53.546137 4.649926 73.551828 42.857237 30.584483 80.14134l-0.01694 6.123672z" fill="#54322A" p-id="3734"></path><path d="M838.155434 615.365558c31.812605-5.77641 70.951596 26.993284 75.017105 58.77201 7.10617 55.443375-56.951001 86.544516-99.825178 58.831299-47.337767-30.592953-31.60933-107.363309 24.808073-117.603309z" fill="#F9BC9B" p-id="3735"></path><path d="M182.143259 680.947295c22.749909-3.193118 50.513945 15.796195 60.440562 36.369363 24.850422 51.513383-14.364797 101.137998-69.477849 94.065708-19.048602-2.439305-48.633648-23.258098-51.318577-42.984285-6.182961-45.465939 13.077386-80.818925 60.355864-87.442316z" fill="#F9BD9D" p-id="3736"></path><path d="M651.878908 553.366551m-22.106203 0a22.106203 22.106203 0 1 0 44.212407 0 22.106203 22.106203 0 1 0-44.212407 0Z" fill="#F4EBDE" p-id="3737"></path><path d="M249.173333 582.070736l22.301009-8.596857c35.674839 6.885955 17.659553 55.231629-14.466435 39.18134-10.519504-5.259752-8.605327-20.420711-7.843043-30.584483z" fill="#F0E9DD" p-id="3738"></path></svg>