<?xml version="1.0" standalone="no"?><!DOCTYPE svg PUBLIC "-//W3C//DTD SVG 1.1//EN" "http://www.w3.org/Graphics/SVG/1.1/DTD/svg11.dtd"><svg t="1772951651944" class="icon" viewBox="0 0 1024 1024" version="1.1" xmlns="http://www.w3.org/2000/svg" p-id="2816" xmlns:xlink="http://www.w3.org/1999/xlink" width="200" height="200"><path d="M806.123071 59.475004c34.243441-5.886518 57.094988 8.562978 77.261605 34.599173 42.679371 55.087643 62.447907 176.256741 68.503821 244.243904 1.194243 13.416179-2.041224 29.712093 0.719934 42.28129 4.361952 19.870174 31.541572 64.861803 40.468751 88.534922 9.223623 24.426931 19.539851 55.629711 24.443871 81.106898 60.694657 314.882117-318.490256 440.819719-567.824516 411.454888-128.249859-15.110141-280.757254-73.45019-336.344616-199.226865-37.275633-84.350835-29.059917-167.744582-8.8933-255.313945 8.622266-37.445029 17.684963-46.109644 14.906865-86.900248-5.32751-78.133995-13.924367-227.101009 37.224814-290.997254 17.049727-21.293102 39.443904-26.595203 66.191563-23.529132 33.311762 3.819884 98.453069 40.655087 128.503954 59.144682 10.265409 6.318478 25.400959 21.80129 35.844235 22.961654l93.693036-15.813135c45.542167-10.019785 91.084334-7.097701 136.973763-3.921522 9.181274 0.635236 30.228751 1.76172 37.157056-1.77866 5.717122-2.913615 18.379487-19.717717 25.231563-25.587295 26.849297-22.995533 92.981572-75.601522 125.929131-81.267825zM119.280788 695.938859c10.494094 46.854988 19.649959 72.510041 50.818859 109.463821 130.096278 154.192887 410.167477 162.281555 586.432688 95.818958 115.723011-43.63646 197.431266-103.221572 234.512093-224.822631 0.931679-3.049132 2.413896-5.78488 3.913052-11.730686 0.296443-1.185773-0.245624-2.617171 0-3.913052 3.066071-16.134988 3.879173-25.155335 3.913052-43.001224 0.084698-55.739818-12.687775-101.07871-33.167775-152.524334-8.698495-21.843639-33.066137-60.669247-36.445592-80.835865-1.710902-10.206121 0.211745-20.310604-0.838511-30.440496-7.385674-71.536013-21.123706-175.299653-59.170091-237.933896-28.365393-46.702531-56.747725-38.774789-98.461538-13.678743-40.146898 24.147428-76.677188 61.00804-110.590306 92.939223-5.623954 1.812539-10.214591-3.243937-15.211779-3.56579-77.634276-4.971778-145.070902-2.312258-221.917485 12.47603-13.34842 2.566352-26.773069 7.724467-40.002912 11.044632-42.29823-26.205591-85.595897-56.586799-132.052804-75.186502-59.873085-23.986501-78.947097-7.851514-95.607212 50.590174-23.512192 82.487477-14.373267 143.902068-8.842482 225.872887 2.744218 40.739785-14.23775 75.186501-22.478875 114.189975-12.603077 59.686749-17.905178 106.753482-4.810852 165.245988z" fill="#512E24" p-id="2817"></path><path d="M41.112914 695.930389l11.773036 1.905707c7.267097 4.785443 2.786567 28.763474 3.946931 39.054293 1.804069 16.03335 11.891613 40.05373 19.980281 54.29148 2.955964 5.200463 27.044103 28.839702 9.232093 33.752192-9.867328 2.718809-24.164367-18.320199-28.780414-25.934557-18.083044-29.856079-26.061605-69.410091-16.151927-103.069115z" fill="#533329" p-id="2818"></path><path d="M7.89432 738.948553c13.441588-4.00622 15.059322 30.550604 18.430306 40.180777 5.090356 14.517254 23.918743 29.153085 8.8933 41.908619-17.269942-6.614921-26.688371-26.205591-31.414524-42.848768-2.744218-9.655583-8.706964-35.420744 4.090918-39.240628z" fill="#533128" p-id="2819"></path><path d="M998.870532 617.754045c-9.393019-5.098825-12.882581-17.566385-19.472093-25.477188-21.064417-25.282382-42.713251-29.644334-74.34799-29.246253-47.566452 0.584417-74.79689 19.353515-117.281456 35.18359 4.353482-7.978561 13.060447-10.282349 19.60761-17.524037 52.775385-58.365459 26.552854-156.69995-49.751663-177.112192-98.097337-26.24794-176.502366 82.910968-116.358246 167.177105 24.393052 34.175682 79.370587 51.877585 119.136344 39.18981v3.913052c-3.328635 0.982498-10.273879 3.752126-11.730687 3.913052-37.512787 4.124797-57.908089 0.084698-89.729164-17.77813-48.277916-27.103391-60.576079-43.873615-123.235732-36.860612-55.960033 6.259189-79.624682 58.611084-126.00536 77.270074-4.929429 1.981935-14.585012 3.184648-20.683275 4.734624-9.071166-0.287974-18.303259 0.42349-27.365956 0-5.014127-0.237155-11.1378 0.804632-15.635268 0-0.211745-0.042349-0.838511-2.524003-2.922085-3.066072-38.122614-9.935087-74.33952-26.391927-114.359371-28.204466-54.943656-2.490124-104.771547 22.758379-109.463822 82.097866-13.094326-58.484036-7.792225-105.559239 4.810852-165.245988 8.232655-39.011944 25.223093-73.45019 22.478875-114.189976-5.522316-81.962349-14.661241-143.385409 8.842482-225.872886 16.651646-58.441687 35.725658-74.576675 95.607212-50.590174 46.448437 18.608172 89.754574 48.98938 132.052804 75.186501 13.229843-3.320165 26.654491-8.47828 40.002912-11.044632 76.846584-14.788288 144.291679-17.447808 221.917485-12.476029 4.997188 0.321853 9.587825 5.378329 15.211779 3.565789 33.904648-31.931183 70.434938-68.791795 110.590306-92.939222 41.713813-25.087577 70.096146-33.015318 98.461538 13.678743 38.046385 62.642713 51.784417 166.397883 59.170091 237.933895 1.050256 10.129892-0.87239 20.234376 0.838511 30.440497 3.370984 20.166617 27.747097 58.992225 36.445592 80.835864 20.48 51.445624 33.252473 96.784516 33.167775 152.524334zM802.082972 149.280397c-17.473218 3.929992-51.360926 40.392523-61.287544 55.968503-2.481654 3.887643-5.522316 5.34445-3.718246 11.637519 1.177304 4.099388 52.953251 29.102266 62.32933 35.446153 9.79957 6.631861 56.54445 48.591299 60.694657 48.743756 12.188056-8.105608 2.608701-17.066667 2.024284-25.460249-2.058164-29.542696-4.141737-55.384086-13.602514-84.13062-7.809165-23.732407-16.431431-48.9555-46.439967-42.205062zM310.842476 254.170521c1.482217-5.988156-1.3467-6.386237-3.904583-9.765691-14.186931-18.777568-65.945939-63.176311-90.025608-50.903556-1.685492 0.855451-12.332043 11.730687-13.551695 13.80579-10.316228 17.507097-15.160959 78.388089-13.882018 99.825178 0.813102 13.653333 7.444963 29.237783 4.082448 44.779884 6.708089 1.617734 7.766816-2.566352 11.722217-5.861109 22.673681-18.879206 40.96847-45.144086 64.429842-64.582299 9.409959-7.800695 21.225343-15.863954 31.279008-23.512192 3.074541-2.337667 5.683242-4.429711 9.850389-3.794475zM463.917347 529.024318c0-58.924467-47.769727-106.694194-106.694193-106.694194s-106.694194 47.769727-106.694194 106.694194 47.769727 106.694194 106.694194 106.694193 106.694194-47.769727 106.694193-106.694193z" fill="#F8C27F" p-id="2820"></path><path d="M748.680821 617.754045c1.533036 9.215153-9.553945 16.414491-11.171679 22.055384-5.894988 20.505409 5.657833 65.573267 15.652209 84.884434 13.610984 26.298759 44.424152 45.694624 72.56933 52.52976 18.904615 4.590637 23.706998 0.575947 38.27507 0.482779 6.21684-0.042349 10.70584 3.701307 15.711497 4.167146 19.904053 1.863358 55.392556-5.031067 66.34402-23.410554 10.028255-16.821042 20.05651-43.068983 28.50938-61.406121 2.65105-5.742531 8.8933-10.561853 10.824416-16.541538 3.13383-9.672523 0.338792-19.937932 5.674773-29.500347l3.887643 9.740281c-0.245624 1.295881 0.296443 2.727279 0 3.913052l-3.481092 2.430835-0.43196 9.299851c-37.080827 121.601059-118.797552 181.19464-234.512093 224.822631-176.265211 66.462597-456.33641 58.373929-586.432688-95.818958L191.570615 817.336642c20.242845-6.259189 39.274508 5.522316 58.76354 7.521191 58.32311 5.988156 113.588619-30.770819 126.225574-88.60268 2.117452-9.697932 5.573135-36.886022 4.793913-46.346799-1.151894-13.856609-10.934524-25.799041-7.961621-40.875302 10.66349 0.186336 11.823854-2.947494 15.635268-3.913052 6.106733-1.549975 15.753846-2.752688 20.683276-4.734624 46.380678-18.658991 70.045327-71.002415 126.00536-77.270074 62.668122-7.013002 74.957816 9.748751 123.235732 36.860612 31.812605 17.862829 52.207907 21.902928 89.729164 17.778131z m-212.228023-30.448966c-19.514442 2.752688-54.799669 18.896146-49.167246 43.500943 6.758908 29.517287 47.803606 45.576046 75.69469 41.671464 15.694557-2.202151 48.574359-25.84139 52.131679-41.671464 9.918147-44.212407-47.473284-47.888304-78.659123-43.492474z m7.741406 105.474541c-84.198379 14.25469-142.513019 181.355567-16.47378 171.174855 21.665773-1.753251 45.050918-5.852639 66.615054-7.656708 18.896146-1.575385 33.650554 1.304351 52.834673-5.81029 37.783821-14.009065 33.286352-48.430372 21.420149-80.336145-19.14177-51.479504-68.427593-86.849429-124.396096-77.371712z" fill="#FAF1DE" p-id="2821"></path><path d="M998.870532 617.754045c-0.025409 17.845889-0.846981 26.866237-3.913052 43.001224l-3.887643-9.740281c-5.33598 9.562415-2.540943 19.827825-5.674773 29.500347-1.939586 5.971216-8.181836 10.790538-10.824416 16.541538-8.45287 18.328668-18.481125 44.585079-28.50938 61.406121-10.959934 18.387957-46.439967 25.282382-66.34402 23.410554-5.005658-0.46584-9.494657-4.209495-15.711497-4.167146-14.568073 0.101638-19.370455 4.107858-38.27507-0.482779-28.145178-6.835136-58.958346-26.222531-72.56933-52.52976-9.994376-19.311166-21.538726-64.370554-15.652209-84.884434 1.617734-5.640893 12.704715-12.840232 11.171679-22.055384 1.456807-0.160926 8.402051-2.930554 11.730687-3.913052 11.637519-3.430273 19.954872-9.35067 31.270537-11.722217 0.90627 14.212341-13.128205 21.089826-17.77813 34.988784-7.267097 21.699653-4.141737 38.012506 4.048569 58.890587 9.215153 23.495252 24.723375 39.977502 48.786104 48.947031 23.740877 8.842481 59.20397 6.67421 82.301141-3.972341 18.608172-8.579917 37.39421-35.742597 42.179653-55.553482 5.412208-22.385707 1.050256-57.306733-11.518941-76.897403-9.977436-15.542101-34.099454-25.587295-34.641522-45.499818 31.634739-0.389611 53.283573 3.963871 74.34799 29.246253 6.589512 7.910802 10.087543 20.378362 19.472093 25.477188z" fill="#F9E7D1" p-id="2822"></path><path d="M228.74461 613.840993c-4.89555 14.220811-21.35239 11.773036-31.245129 17.625674-43.331547 25.646584-41.036228 124.091183-1.439867 149.932572 23.563011 15.372705 65.674905 19.048602 92.439503 11.434243 23.325856-6.631861 42.035666-23.961092 51.716659-46.016476 16.00794-36.48794 9.418428-58.179123-4.150207-93.693036-4.616046-12.077949 2.058164-7.55507 9.960496-7.9955 4.497469 0.804632 10.621141-0.237155 15.635269 0l2.439305 3.472622c3.066071 0.965558 6.191431 0.381141 9.282912 0.43196-2.972903 15.076261 6.818197 27.018693 7.961621 40.875302 0.787692 9.460778-2.66799 36.648867-4.793912 46.346799-12.645426 57.840331-67.910935 94.590835-126.225575 88.60268-19.489032-1.998875-38.520695-13.78885-58.76354-7.521191l-21.470968-11.933962c-31.1689-36.94531-40.324764-62.608834-50.818859-109.463821 4.683805-59.331017 54.511696-84.58799 109.463822-82.097866z" fill="#FAE5CE" p-id="2823"></path><path d="M991.052897 676.390538l0.431961-9.299851 3.481092-2.430836c-1.490687 5.945806-2.981373 8.681555-3.913053 11.730687z" fill="#F9E7D1" p-id="2824"></path><path d="M905.050449 563.022134c0.542068 19.904053 24.664086 29.957717 34.641522 45.499818 12.569198 19.5822 16.93115 54.503226 11.518941 76.897403-4.785443 19.802415-23.571481 46.973565-42.179652 55.553482-23.097171 10.646551-58.560265 12.814822-82.301142 3.972341-24.06273-8.961059-39.570951-25.451778-48.786104-48.947031-8.190306-20.878081-11.315666-37.190935-4.048569-58.890587 4.658395-13.898958 18.69287-20.776443 17.778131-34.988784-11.315666 2.371547-19.633019 8.291944-31.270538 11.722217v-3.913053c7.385674-2.354607 18.218561-8.317353 27.365955-11.730686 42.484566-15.830074 69.715004-34.599173 117.281456-35.18359z m-55.926154 39.850455c-52.174028 9.020347-54.393118 79.124963-11.942432 104.246418 15.796195 9.35067 53.224285 7.57201 65.929-7.250157 2.202151-2.566352 10.739719-19.59067 11.900082-23.283507 13.187494-42.086485-22.978594-81.132308-65.89512-73.712754z" fill="#F9D2B6" p-id="2825"></path><path d="M346.026065 645.12c-7.893863 0.4489-14.568073-4.082448-9.960496 7.9955 13.568635 35.522382 20.158147 57.213565 4.150207 93.693036-9.680993 22.055385-28.390802 39.384615-51.716659 46.016476-26.764599 7.614359-68.876493 3.938462-92.439503-11.434243-39.596361-25.84139-41.891679-124.285988 1.439867-149.932572 9.892738-5.852639 26.349578-3.404864 31.245129-17.625674 40.019851 1.812539 76.236758 18.26938 114.359371 28.204466 2.083573 0.542068 2.701869 3.032192 2.922084 3.066071z m-87.958974 1.533036c-20.412242 0-45.804731 10.417866-54.799669 29.661273-10.917585 23.368205-7.953151 60.245757 13.865078 76.194409 17.37158 12.704715 39.672589 14.881456 59.771448 9.172804 16.507659-4.692275 32.541009-27.509942 34.099454-44.09383 2.066634-21.936807-2.66799-58.975285-27.323606-66.818329-5.191993-1.651613-20.46306-4.124797-25.612705-4.124797z" fill="#FAD5BA" p-id="2826"></path><path d="M787.768993 598.205724c-9.147395 3.404864-19.980281 9.376079-27.365955 11.730686-39.765757 12.679305-94.734822-5.014127-119.136344-39.18981-60.144119-84.257667 18.26091-193.416576 116.358246-167.177105 76.304516 20.412242 102.527047 118.746733 49.751663 177.112192-6.547163 7.241687-15.262597 9.553945-19.60761 17.524037z m26.146303-91.507825c0-47.244599-38.30048-85.545079-85.545078-85.545078s-85.545079 38.30048-85.545079 85.545078 38.30048 85.545079 85.545079 85.545079 85.545079-38.30048 85.545078-85.545079z" fill="#543128" p-id="2827"></path><path d="M463.917347 529.024318c0 58.924467-47.769727 106.694194-106.694193 106.694193s-106.694194-47.769727-106.694194-106.694193 47.769727-106.694194 106.694194-106.694194 106.694194 47.769727 106.694193 106.694194z m-21.945277-0.059289c0-47.015914-38.114144-85.121588-85.121588-85.121588s-85.121588 38.114144-85.121588 85.121588 38.114144 85.121588 85.121588 85.121588 85.121588-38.114144 85.121588-85.121588z" fill="#512F26" p-id="2828"></path><path d="M310.842476 254.170521c-4.167146-0.643706-6.767378 1.456807-9.850389 3.794475-10.062134 7.648238-21.869049 15.711497-31.279008 23.512192-23.452903 19.438213-41.747692 45.703093-64.429842 64.582299-3.955401 3.294756-5.014127 7.478842-11.722217 5.861109 3.354045-15.542101-3.269347-31.126551-4.082448-44.779885-1.270471-21.437089 3.56579-82.318081 13.882018-99.825178 1.219653-2.075103 11.866203-12.950339 13.551695-13.805789 24.079669-12.264285 75.838677 32.134458 90.025608 50.903556 2.557883 3.379454 5.386799 3.777535 3.904583 9.765691z" fill="#FBC6B7" p-id="2829"></path><path d="M802.082972 149.280397c30.008536-6.750438 38.622333 18.464185 46.439967 42.205062 9.460778 28.746534 11.544351 54.587924 13.602514 84.13062 0.584417 8.393581 10.172242 17.35464-2.024284 25.460249-4.150207-0.160926-50.895087-42.111894-60.694657-48.743756-9.36761-6.343888-61.152026-31.346766-62.32933-35.446153-1.804069-6.293069 1.236592-7.749876 3.718246-11.637519 9.926617-15.57598 43.814326-52.038511 61.287544-55.968503z" fill="#FAC6B9" p-id="2830"></path><path d="M389.027289 645.12c-3.811414 0.965558-4.980248 4.090918-15.635268 3.913052-3.091481-0.050819-6.22531 0.533598-9.282912-0.43196l-2.439305-3.472622c9.062696 0.42349 18.294789-0.287974 27.365955 0z" fill="#FAD5BA" p-id="2831"></path><path d="M544.194204 692.77962c55.976973-9.477717 105.254326 25.892208 124.396096 77.371712 11.866203 31.905773 16.363672 66.31861-21.420149 80.336145-19.175649 7.11464-33.930058 4.226435-52.834673 5.81029-21.572605 1.804069-44.95775 5.903457-66.615054 7.656708-126.047709 10.189181-67.724599-156.920165 16.47378-171.174855z m15.719967 90.017138c-16.812572 1.871828-42.001787 12.213466-55.64665 22.529694-2.989843 2.261439-20.954309 20.175087-21.394739 21.631894-5.098825 16.863391 50.691811 14.330918 60.737005 13.79732 21.767411-1.143424 48.52354-4.980248 70.265542-7.919272 12.230405-1.651613 27.16268 1.32976 37.055418-9.841919-21.403209-27.120331-56.070141-44.09383-91.008106-40.197717z" fill="#513028" p-id="2832"></path><path d="M536.452798 587.305079c31.18584-4.395831 88.57727-0.719934 78.659123 43.492473-3.54885 15.830074-36.428652 39.477783-52.131679 41.671464-27.882614 3.904582-68.927312-12.154177-75.69469-41.671464-5.632423-24.596328 29.644334-40.748255 49.167246-43.500943z" fill="#533229" p-id="2833"></path><path d="M849.124295 602.872589c42.916526-7.419553 79.082614 31.62627 65.89512 73.712754-1.160364 3.692837-9.697932 20.717155-11.900083 23.283507-12.704715 14.822167-50.132804 16.600827-65.928999 7.250157-42.450687-25.129926-40.240066-95.234541 11.942432-104.246418z" fill="#FABC9C" p-id="2834"></path><path d="M258.067091 646.653036c5.149644 0 20.420711 2.464715 25.612705 4.124797 24.655616 7.851514 29.39024 44.881522 27.323606 66.818329-1.558445 16.583888-17.591795 39.401555-34.099454 44.09383-20.098859 5.708652-42.408337 3.531911-59.771448-9.172804-21.80976-15.948652-24.782663-52.826203-13.865078-76.194409 8.994938-19.251878 34.387428-29.661274 54.799669-29.661274z" fill="#FBBD9C" p-id="2835"></path><path d="M813.915296 506.697899c0 47.244599-38.30048 85.545079-85.545078 85.545079s-85.545079-38.30048-85.545079-85.545079 38.30048-85.545079 85.545079-85.545078 85.545079 38.30048 85.545078 85.545078z m-146.510769-40.587328c-2.295318 2.295318-15.042382 25.604235-15.821605 29.136145-12.061009 54.918246 53.156526 101.646187 99.130654 67.851646 54.78273-40.265476 16.981969-124.269049-50.141274-112.690819-6.67421 1.151894-28.729595 11.273317-33.167775 15.703028z" fill="#F6F3ED" p-id="2836"></path><path d="M441.97207 528.965029c0 47.015914-38.114144 85.121588-85.121588 85.121588s-85.121588-38.114144-85.121588-85.121588 38.114144-85.121588 85.121588-85.121588 85.121588 38.114144 85.121588 85.121588z m-81.513449-59.000695c-42.416807 7.605889-65.217535 61.152026-39.740347 96.869214 24.825012 34.810918 78.930157 38.690091 102.959007 1.516096 12.789413-19.785476 12.543788-56.400463-1.524566-75.584582-12.171117-16.583888-41.662994-26.391927-61.694094-22.800728z" fill="#F6F3EC" p-id="2837"></path><path d="M559.914171 782.796758c34.937965-3.896112 69.604897 13.077386 91.008106 40.197717-9.892738 11.171679-24.825012 8.190306-37.055418 9.841919-21.742002 2.939024-48.498131 6.775848-70.265541 7.919272-10.045194 0.533598-65.835831 3.066071-60.737006-13.79732 0.44043-1.456807 18.404897-19.370455 21.394739-21.631894 13.644864-10.316228 38.834078-20.649396 55.64665-22.529694z" fill="#F28C70" p-id="2838"></path><path d="M667.404527 466.110571c4.429711-4.429711 26.493565-14.551133 33.167775-15.703028 67.123242-11.57823 104.924003 72.425343 50.141274 112.690819-45.974127 33.794541-111.191663-12.9334-99.130654-67.851646 0.779222-3.54038 13.517816-26.840827 15.821605-29.136145z m41.349611 28.399272c0-11.544351-9.35914-20.90349-20.90349-20.903491s-20.90349 9.35914-20.903491 20.903491 9.35914 20.90349 20.903491 20.90349 20.90349-9.35914 20.90349-20.90349z" fill="#533129" p-id="2839"></path><path d="M360.458621 469.964334c20.02263-3.591199 49.522978 6.21684 61.694094 22.800728 14.068354 19.184119 14.313978 55.799107 1.524566 75.584582-24.02885 37.173995-78.125525 33.286352-102.959007-1.516096-25.468718-35.708718-2.67646-89.263325 39.740347-96.869214z m53.918809 42.484566c0-11.518941-9.33373-20.852672-20.852672-20.852672S372.672087 500.929959 372.672087 512.4489s9.33373 20.852672 20.852671 20.852672 20.852672-9.33373 20.852672-20.852672z" fill="#53312A" p-id="2840"></path><path d="M687.859117 494.509843m-20.90349 0a20.90349 20.90349 0 1 0 41.806981 0 20.90349 20.90349 0 1 0-41.806981 0Z" fill="#EDE9E0" p-id="2841"></path><path d="M393.524758 512.4489m-20.852671 0a20.852672 20.852672 0 1 0 41.705343 0 20.852672 20.852672 0 1 0-41.705343 0Z" fill="#F1EDE6" p-id="2842"></path></svg>