<?xml version="1.0" standalone="no"?><!DOCTYPE svg PUBLIC "-//W3C//DTD SVG 1.1//EN" "http://www.w3.org/Graphics/SVG/1.1/DTD/svg11.dtd"><svg t="1772951556942" class="icon" viewBox="0 0 1024 1024" version="1.1" xmlns="http://www.w3.org/2000/svg" p-id="3900" xmlns:xlink="http://www.w3.org/1999/xlink" width="200" height="200"><path d="M291.933867 1010.9952c-0.520533-4.343467-0.119467-8.465067 2.030933-12.381867 4.5056-8.200533 25.472-27.630933 33.0496-37.563733 29.696-38.929067 64.008533-86.843733 81.0496-132.539733 11.7504-31.522133 19.933867-63.744 11.648-96.674134-2.7904-11.101867-9.7536-20.795733-11.665067-31.906133-20.736-0.401067-17.160533 47.5136-39.364266 41.472-19.285333-5.248 5.589333-51.959467 14.1824-60.168533 0-9.344-47.377067-20.6848-49.3824-18.56-6.365867 10.6496-13.960533 55.176533-23.048534 57.847466-15.8976 4.676267-15.726933-15.5648-14.276266-26.734933 0.8192-6.306133 10.333867-24.584533 8.200533-27.025067-17.655467 8.149333-35.976533 16.878933-47.573333 33.288534-19.899733 28.151467-13.243733 55.389867-14.626134 86.9888-0.264533 5.9904 0.759467 11.963733-0.674133 17.962666-4.8384 20.1472-71.424 82.628267-90.666667 95.9744-6.161067 4.2752-12.8768 7.261867-20.6336 6.331734-0.981333-1.271467-6.766933-1.9712-8.021333-6.536534l0.017067-7.611733 12.1344-12.808533C87.355733 842.436267 46.1568 798.7968 24.379733 741.461333-12.168533 645.213867 6.6048 540.1856 46.404267 448.196267c10.376533-23.970133 41.173333-70.2208 45.7728-91.0848 4.1728-18.926933 2.210133-52.5824 4.906666-73.890134 8.3968-66.312533 34.005333-197.0688 74.487467-249.002666 34.952533-44.8512 73.6768-40.584533 119.0912-15.240534 41.6768 23.261867 81.792 59.741867 113.169067 94.199467 4.514133 4.957867 9.565867 10.0864 15.112533 13.917867 14.933333 0.2304 30.378667 1.5616 45.2864 0.699733 67.4304-3.882667 131.089067 2.577067 198.033067 17.271467 12.561067 2.756267 29.457067 11.741867 42.325333 11.895466 12.125867 0.145067 41.634133-25.173333 54.5792-32.8448 35.2768-20.9152 91.613867-50.5088 132.1472-54.459733 54.852267-5.341867 80.674133 44.535467 92.373333 89.924267 21.1968 82.218667 14.916267 185.2672 4.9408 268.637866-6.408533 53.5552 17.211733 99.677867 24.8832 153.6 22.306133 156.7232-18.628267 289.9968-160.238933 370.474667-138.3424 78.626133-328.388267 88.302933-479.453867 49.399467-9.173333-2.363733-27.477333-11.537067-34.2528-11.613867-13.730133-0.170667-27.4688 50.0736-47.624533 20.9152zM30.6432 629.435733c0 56.695467 15.172267 110.336 47.880533 157.4144 20.317867 29.252267 48.110933 51.6096 74.794667 74.7264l3.4048-0.085333c14.097067-10.4192 28.629333-21.358933 39.901867-34.9696 9.2928-11.229867 19.037867-24.8576 20.6592-39.483733 1.8432-16.6144 0.580267-40.704 0-58.0608-0.042667-1.3824 0.059733-2.7648 0-4.1472l3.498666-2.602667c-0.810667-13.6192 9.130667-23.2192 13.090134-34.722133 22.749867-33.6896 67.4816-53.8624 107.835733-49.7664 48.059733 4.872533 86.946133 37.870933 101.486933 83.072 3.9168 4.155733 12.066133 5.393067 17.757867 7.125333 46.916267 14.344533 97.92 10.180267 143.2832-8.0896 7.031467-2.833067 12.347733-10.922667 21.572267-11.716267 14.779733-1.28 20.352 13.277867 10.368 22.920534-8.021333 7.7568-36.923733 18.568533-48.7168 21.7856-44.458667 12.142933-92.936533 13.661867-135.8592-3.0976l-6.016 6.126933c7.927467 7.424 0.759467 13.610667-0.119467 20.898133-0.785067 6.5024 0.418133 12.740267-0.938667 19.771734-12.100267 62.737067-56.200533 120.7552-90.376533 172.970666l89.250133 20.667734c144.392533 22.843733 334.0032-2.5856 449.911467-99.456 36.608-30.592 83.575467-92.014933 87.0912-141.013334l12.356267-56.072533c1.570133-41.966933-1.527467-83.464533-8.354134-124.194133-10.368-61.858133-26.461867-87.697067-20.676266-153.6768 7.432533-84.718933 15.342933-176.810667-9.233067-260.181334-4.9664-16.8448-15.232-43.1872-30.6176-52.3264-4.369067-2.594133-20.1472-8.832-24.328533-8.8064-8.7552 0.042667-37.512533 10.6752-47.761067 14.455467-48.913067 18.0224-97.365333 48.682667-138.743467 79.965867-26.6496-7.108267-52.753067-17.416533-79.8208-23.057067-60.9792-12.706133-135.8848-16.836267-198.391466-13.499733-8.490667 0.452267-15.880533 6.485333-24.2176 3.9424-42.282667-40.0128-82.397867-86.2464-133.845334-115.089067-66.944-37.521067-89.4976 9.344-111.377066 65.664-31.854933 81.988267-40.337067 171.537067-48.315734 258.5856-41.028267 81.4336-86.4256 171.298133-86.4256 264.021333z" fill="#502D22" p-id="3901"></path><path d="M408.055467 828.509867c-17.041067 45.704533-51.3536 93.610667-81.0496 132.539733-7.5776 9.9328-28.544 29.3632-33.0496 37.563733-2.1504 3.9168-2.551467 8.0384-2.030934 12.381867-49.629867 12.3392-107.784533-14.2336-138.760533-54.0928-12.6976-16.349867-16.494933-41.156267-22.9888-49.5872 7.7568 0.938667 14.472533-2.056533 20.6336-6.331733 19.242667-13.346133 85.828267-75.8272 90.666667-95.9744 1.442133-5.998933 0.418133-11.972267 0.674133-17.962667 7.662933 8.413867 13.610667 17.7408 23.381333 24.311467 21.973333 14.788267 77.312 27.886933 103.296 25.617066 13.0304-1.134933 25.941333-8.379733 39.2192-8.456533z" fill="#F6C17C" p-id="3902"></path><path d="M980.394667 749.713067c3.054933-42.496-25.335467-81.1776-65.143467-94.6688-4.7616-1.6128-9.838933 0.034133-13.653333-0.7168-0.3584-0.068267-0.9728-3.677867-5.9904-4.206934-13.346133-1.425067-34.158933-0.7936-47.9232 0.059734-14.592 0.904533-25.326933 5.4272-37.3248 8.2944-23.739733 5.674667-54.203733 17.015467-74.6496 20.736-3.626667 0.657067-8.405333-0.264533-12.4416 0-10.939733 0.725333-22.212267-0.494933-33.1776 0-70.135467-15.266133-68.9664-51.319467-121.540267-79.607467-32.64-17.5616-71.611733-22.971733-107.8528-15.0016-45.661867 10.0352-67.063467 47.351467-118.980267 48.989867-75.9552 2.389333-123.460267-63.6928-190.779733-70.5024-2.7136-0.273067-5.5552 0.145067-8.2944 0l-2.449067-3.694934c-7.970133-0.930133-16.1536-0.930133-24.1408 0l-2.449066 3.694934c-20.48 1.595733-35.950933 7.048533-51.9168 20.6592C46.933333 596.3264 40.96 613.5808 30.651733 629.444267c0-92.7232 45.397333-182.596267 86.4256-264.021334 7.978667-87.057067 16.4608-176.597333 48.315734-258.5856 21.879467-56.32 44.433067-103.185067 111.377066-65.664 51.447467 28.842667 91.562667 75.076267 133.845334 115.089067 8.337067 2.542933 15.7184-3.490133 24.2176-3.9424 62.498133-3.336533 137.412267 0.7936 198.391466 13.499733 27.067733 5.640533 53.1712 15.9488 79.8208 23.057067 41.378133-31.2832 89.8304-61.934933 138.743467-79.965867 10.248533-3.780267 39.005867-14.4128 47.761067-14.455466 4.189867-0.017067 19.968 6.212267 24.328533 8.8064 15.3856 9.1392 25.6512 35.4816 30.6176 52.3264 24.567467 83.370667 16.6656 175.4624 9.233067 260.181333-5.7856 65.988267 10.308267 91.818667 20.676266 153.6768 6.826667 40.7296 9.924267 82.2272 8.354134 124.194133l-12.356267 56.072534zM188.253867 268.6208c29.730133-22.050133 57.514667-46.574933 89.8048-65.706667 7.6288-4.514133 51.3024-23.364267 51.165866-27.5968-13.056-21.435733-57.873067-84.539733-84.1216-80.3072-21.000533 3.387733-28.151467 21.7088-35.234133 39.714134-11.332267 28.834133-19.490133 72.1408-21.8112 102.6048-0.776533 10.171733 0.887467 21.034667 0.187733 31.2832z m683.025066-102.877867c-26.786133 4.770133-55.918933 34.9696-77.602133 50.935467-4.061867 3.1232-5.1968 7.355733-3.805867 12.194133 1.262933 4.394667 40.4736 34.0224 47.522134 39.662934l66.2784 74.717866c4.164267 0.187733 9.736533-22.109867 10.274133-27.0336 3.131733-28.859733 2.7648-100.974933-4.804267-127.7184-2.645333-9.344-10.513067-17.646933-18.414933-23.04-6.528-1.399467-12.936533-0.8704-19.438933 0.2816zM365.329067 339.771733c-47.7696 7.4496-50.6624 58.3168-17.4848 86.519467 39.415467 33.501867 110.498133 27.409067 96.861866-34.645333-6.101333-27.776-52.974933-55.9872-79.377066-51.8656z m319.325866 37.486934c-21.2992 3.8144-51.182933 21.034667-56.106666 43.4176-18.722133 85.205333 136.260267 66.705067 118.912-12.433067-5.3248-24.285867-41.207467-34.850133-62.805334-30.984533zM265.856 493.457067c-21.922133 3.037867-65.3824 19.9168-50.756267 48.9984 10.5984 21.0688 52.104533-6.186667 70.7072-8.311467 22.801067-2.6112 58.7008 4.471467 78.122667 17.066667 12.16 7.893333 19.515733 22.493867 33.809067 28.074666 8.337067-6.8608 12.458667-9.489067 8.4736-20.548266-19.310933-53.6832-88.362667-72.482133-140.356267-65.28zM627.882667 604.552533c16.452267 7.389867 25.770667-8.8576 41.309866-14.651733 27.784533-10.368 63.4624-7.1936 90.197334 5.4784 20.317867 9.6256 39.338667 39.3728 61.559466 21.853867 11.630933-31.377067-18.397867-50.005333-43.716266-60.433067-30.404267-12.526933-72.8064-15.803733-103.808-4.1472-21.76 8.183467-48.494933 25.506133-45.5424 51.899733z" fill="#F8C27E" p-id="3903"></path><path d="M690.0736 679.210667c0.3584 0.0768 0.733867 3.541333 5.9648 4.215466 8.584533 1.109333 18.389333-0.802133 27.2128-0.068266-21.691733 21.077333-29.4144 38.493867-33.3312 68.6336 5.956267 18.500267 2.705067 38.698667 9.326933 56.9856 13.073067 36.104533 52.9664 62.464 89.301334 72.439466 27.630933 7.594667 53.461333 4.957867 81.92 5.179734 6.8096 0.0512 19.362133-3.054933 22.818133 4.138666-115.908267 96.861867-305.5104 122.2912-449.911467 99.456l-89.250133-20.667733c34.176-52.215467 78.276267-110.2336 90.376533-172.970667 1.3568-7.022933 0.1536-13.2608 0.938667-19.771733 0.878933-7.287467 8.0384-13.482667 0.119467-20.898133l6.016-6.126934c42.922667 16.759467 91.400533 15.232 135.8592 3.0976 11.793067-3.217067 40.695467-14.037333 48.7168-21.7856 9.984-9.6512 4.411733-24.200533-10.368-22.920533-9.224533 0.7936-14.5408 8.8832-21.572267 11.716267-45.3632 18.261333-96.366933 22.434133-143.2832 8.0896-5.691733-1.7408-13.841067-2.9696-17.757867-7.125334-14.5408-45.201067-53.4272-78.199467-101.486933-83.072v-4.1472c51.9168-1.629867 73.3184-38.954667 118.980267-48.989866 36.241067-7.9616 75.2128-2.56 107.8528 15.0016 52.573867 28.288 51.4048 64.341333 121.540266 79.607466z m-212.7872-69.7088c-49.672533 8.413867-53.8624 52.488533-15.214933 79.965866 28.936533 20.573867 66.176 20.5568 95.1808 0 10.129067-7.176533 22.306133-23.296 20.266666-36.317866-5.8368-37.393067-68.864-48.964267-100.241066-43.648z" fill="#F9EFDB" p-id="3904"></path><path d="M242.158933 787.037867c1.3824-31.598933-5.2736-58.837333 14.626134-86.9888 11.605333-16.4096 29.917867-25.1392 47.573333-33.288534 2.133333 2.440533-7.389867 20.718933-8.200533 27.025067-1.450667 11.170133-1.621333 31.4112 14.276266 26.734933 9.079467-2.670933 16.682667-47.197867 23.048534-57.847466 2.005333-2.1248 49.373867 9.216 49.3824 18.56-8.593067 8.209067-33.476267 54.920533-14.1824 60.168533 22.203733 6.0416 18.628267-41.864533 39.364266-41.472 1.902933 11.1104 8.866133 20.804267 11.665067 31.906133 8.285867 32.930133 0.1024 65.152-11.648 96.674134-13.277867 0.0768-26.1888 7.3216-39.2192 8.456533-25.984 2.269867-81.322667-10.8288-103.296-25.617067-9.770667-6.570667-15.7184-15.8976-23.381333-24.311466z" fill="#F7EDDA" p-id="3905"></path><path d="M113.595733 563.080533c8.942933-0.699733 19.976533-0.469333 29.0304 0 2.7392 0.145067 5.5808-0.273067 8.2944 0l10.376534 8.2944c-11.9552 9.301333-31.633067 8.046933-44.834134 13.2352-31.1552 12.253867-59.050667 76.706133-51.985066 108.450134 3.140267 14.1056 22.382933 43.52 32.443733 54.656 21.265067 23.543467 34.0736 14.5408 60.125867 18.679466 16.64 2.645333 34.0736 10.274133 51.933866 8.209067l4.1472-20.753067c0.110933 10.973867-1.7408 23.168 1.988267 33.1776h2.158933c-1.621333 14.626133-11.357867 28.253867-20.6592 39.4752-11.272533 13.6192-25.8048 24.558933-39.901866 34.9696l-3.4048 0.085334c-26.683733-23.1168-54.4768-45.474133-74.794667-74.7264C45.806933 739.754667 30.634667 686.114133 30.634667 629.418667c10.299733-15.863467 16.2816-33.117867 31.035733-45.696 15.965867-13.610667 31.4368-19.072 51.9168-20.6592z" fill="#F8E9D3" p-id="3906"></path><path d="M341.700267 633.582933v4.1472c-40.354133-4.096-85.077333 16.0768-107.835734 49.7664 0.0768-0.221867-3.575467-0.221867-2.3808-4.061866 5.981867-19.157333 18.321067-11.332267 3.182934-40.2944-28.1344-53.845333-101.486933-50.5344-128.699734 1.4848 1.186133 14.208-6.459733 26.914133-4.778666 40.7296 1.902933 15.616 17.8944 39.9616 32.9728 45.8496 6.434133 2.5088 38.109867 10.1632 43.707733 10.1632 5.819733 0 33.7664-9.7792 35.2512-8.2432 0.059733 6.8864-0.059733 13.841067 0 20.736l-4.1472 20.753066c-17.860267 2.065067-35.293867-5.572267-51.933867-8.209066-26.052267-4.138667-38.8608 4.864-60.125866-18.679467-10.0608-11.136-29.294933-40.5504-32.443734-54.656-7.074133-31.744 20.821333-96.196267 51.985067-108.450133 13.201067-5.188267 32.8704-3.933867 44.834133-13.2352l-10.376533-8.2944c67.319467 6.8096 114.824533 72.891733 190.779733 70.5024z" fill="#F8D6BA" p-id="3907"></path><path d="M901.589333 654.327467c3.8144 0.750933 8.891733-0.896 13.653334 0.7168 39.808 13.4912 68.1984 52.1728 65.143466 94.6688-3.524267 48.9984-50.4832 110.4128-87.0912 141.013333-3.456-7.1936-16.008533-4.087467-22.818133-4.138667-28.458667-0.213333-54.289067 2.414933-81.92-5.179733-36.334933-9.984-76.228267-36.334933-89.301333-72.439467-6.621867-18.286933-3.370667-38.485333-9.326934-56.9856 3.9168-30.1312 11.639467-47.556267 33.3312-68.6336v-4.1472c4.036267-0.264533 8.814933 0.657067 12.4416 0 19.5072-1.134933-0.9216 14.7968-3.575466 19.234134-27.434667 45.781333-25.736533 111.7696 20.2752 144.4864 35.8656 25.4976 109.1072 34.176 146.542933 9.898666 23.313067-15.121067 41.181867-46.208 47.402667-72.849066 5.009067-21.4528 0.4352-25.582933-3.191467-44.8512-1.3824-7.330133 0.776533-13.943467-1.954133-22.929067-6.144-20.206933-31.556267-39.2448-47.940267-51.601067l8.337067-6.263466z" fill="#F7E8D3" p-id="3908"></path><path d="M233.864533 687.505067c-3.959467 11.502933-13.9008 21.0944-13.090133 34.722133l-3.498667 2.602667c-0.119467-2.756267 0.085333-5.546667-0.008533-8.285867h-4.130133l4.138666 12.433067c0.580267 17.3568 1.8432 41.4464 0 58.0608h-2.158933c-3.729067-10.0096-1.885867-22.203733-1.988267-33.1776-0.068267-6.8864 0.0512-13.8496 0-20.736-1.476267-1.536-29.422933 8.234667-35.2512 8.2432-5.589333 0-37.2736-7.645867-43.707733-10.1632-15.086933-5.888-31.069867-30.2336-32.9728-45.8496-1.681067-13.815467 5.9648-26.5216 4.778667-40.7296 27.2128-52.010667 100.565333-55.330133 128.699733-1.4848 15.1296 28.962133 2.798933 21.137067-3.182933 40.2944-1.194667 3.84 2.4576 3.84 2.3808 4.061866z m-76.074666-53.265067c-6.203733 1.3568-21.230933 12.663467-22.9376 18.525867-0.682667 22.877867-6.417067 36.9408 14.5664 50.747733 7.560533 4.974933 18.850133 10.632533 27.793066 8.2944 12.637867-2.824533 28.416-23.159467 31.2064-35.345067 5.290667-23.159467-29.2352-46.907733-50.619733-42.222933z" fill="#F9C3A2" p-id="3909"></path><path d="M217.275733 724.829867c0.059733 1.3824-0.042667 2.7648 0 4.1472l-4.138666-12.433067h4.130133c0.093867 2.7392-0.110933 5.538133 0.008533 8.285867z" fill="#F8D6BA" p-id="3910"></path><path d="M901.589333 654.327467l-8.337066 6.263466c16.384 12.356267 41.796267 31.394133 47.940266 51.601067 2.730667 8.9856 0.580267 15.598933 1.954134 22.929067 3.626667 19.2768 8.200533 23.406933 3.191466 44.8512-6.2208 26.641067-24.0896 57.728-47.402666 72.849066-37.435733 24.285867-110.677333 15.607467-146.542934-9.898666-46.011733-32.7168-47.709867-98.705067-20.2752-144.4864 2.653867-4.4288 23.0912-20.369067 3.575467-19.234134 20.445867-3.720533 50.909867-15.061333 74.6496-20.736 12.987733-1.416533 9.105067 3.208533 1.5104 7.7312-8.661333 5.154133-18.7904 6.818133-26.359467 10.9568-10.717867 5.853867-29.687467 28.381867-35.106133 39.552-7.517867 15.5136-9.378133 50.7904-5.717333 67.566934 1.109333 5.0688 17.646933 27.844267 21.9648 31.957333 4.548267 4.334933 25.233067 17.032533 31.061333 18.7136 18.858667 5.418667 49.0752 5.649067 67.968 1.194667 11.136-2.628267 30.3872-15.402667 37.8112-24.405334 15.138133-18.363733 17.0496-29.047467 18.9696-51.575466 0.349867-4.061867 3.669333-7.5264 3.3024-11.8272-0.366933-4.3264-8.302933-25.454933-10.8288-30.626134-11.733333-24.081067-38.135467-43.195733-61.064533-55.099733-8.123733-4.215467-13.5168-2.884267-6.178134-12.4416 13.764267-0.853333 34.5856-1.4848 47.9232-0.059733 5.0176 0.5376 5.632 4.138667 5.9904 4.206933z" fill="#F9DFC5" p-id="3911"></path><path d="M871.278933 165.742933c6.5024-1.160533 12.910933-1.681067 19.438934-0.2816 7.901867 5.384533 15.7696 13.687467 18.414933 23.04 7.569067 26.743467 7.936 98.8672 4.804267 127.7184-0.5376 4.923733-6.109867 27.221333-10.274134 27.0336l-66.2784-74.717866c-7.048533-5.640533-46.2592-35.2768-47.522133-39.662934-1.390933-4.8384-0.256-9.070933 3.805867-12.194133 21.691733-15.965867 50.824533-46.165333 77.602133-50.935467z" fill="#F7C7B6" p-id="3912"></path><path d="M188.253867 268.6208c0.699733-10.248533-0.964267-21.12-0.187734-31.2832 2.321067-30.464 10.487467-73.7792 21.8112-102.6048 7.074133-18.005333 14.2336-36.3264 35.234134-39.714133 26.248533-4.232533 71.057067 58.871467 84.1216 80.3072 0.136533 4.232533-43.5456 23.082667-51.165867 27.5968-32.290133 19.131733-60.074667 43.656533-89.8048 65.706666z" fill="#F8C7B5" p-id="3913"></path><path d="M847.675733 650.171733c-7.338667 9.565867-1.9456 8.226133 6.178134 12.4416 22.9376 11.904 49.3312 31.018667 61.064533 55.099734 2.517333 5.1712 10.461867 26.299733 10.8288 30.626133 0.366933 4.3008-2.952533 7.7568-3.3024 11.8272-1.92 22.519467-3.831467 33.2032-18.9696 51.575467-7.415467 9.002667-26.6752 21.777067-37.8112 24.405333-18.8928 4.4544-49.109333 4.224-67.968-1.194667-5.828267-1.672533-26.513067-14.370133-31.061333-18.7136-4.309333-4.113067-20.855467-26.88-21.9648-31.957333-3.6608-16.776533-1.809067-52.053333 5.717333-67.566933 5.418667-11.178667 24.3968-33.706667 35.106133-39.552 7.569067-4.138667 17.698133-5.802667 26.359467-10.9568 7.594667-4.514133 11.477333-9.147733-1.5104-7.7312 11.997867-2.8672 22.741333-7.389867 37.3248-8.2944z m32.315734 152.593067c1.706667-1.723733 2.193067-6.4 4.8128-9.5744 3.037867-3.6864 8.149333-6.3744 10.538666-10.325333 16.256-26.948267 0.896-63.598933-20.642133-82.986667-9.4976-8.558933-36.846933-22.468267-49.0752-20.224-12.270933 2.2528-36.232533 20.471467-44.3904 30.583467-14.327467 17.757867-15.1808 35.2512-12.296533 58.069333 5.0176 39.6288 53.691733 54.843733 88.4224 47.086933 2.3552-0.529067 21.239467-11.229867 22.621866-12.629333z" fill="#F9CFAF" p-id="3914"></path><path d="M365.329067 339.771733c26.3936-4.1216 73.2672 24.0896 79.377066 51.8656 13.636267 62.0544-57.437867 68.1472-96.861866 34.645334-33.169067-28.194133-30.2848-79.061333 17.4848-86.519467zM684.654933 377.258667c21.597867-3.8656 57.480533 6.698667 62.805334 30.984533 17.348267 79.146667-137.634133 97.6384-118.912 12.433067 4.923733-22.391467 34.807467-39.6032 56.106666-43.4176z" fill="#F7EDDA" p-id="3915"></path><path d="M265.856 493.457067c51.9936-7.202133 121.053867 11.605333 140.356267 65.28 3.976533 11.067733-0.136533 13.687467-8.4736 20.548266-14.293333-5.5808-21.640533-20.181333-33.809067-28.074666-19.421867-12.603733-55.313067-19.677867-78.122667-17.066667-18.6112 2.1248-60.1088 29.380267-70.7072 8.311467-14.626133-29.0816 28.834133-45.969067 50.756267-48.9984z" fill="#553127" p-id="3916"></path><path d="M627.882667 604.552533c-2.952533-26.3936 23.7824-43.716267 45.5424-51.899733 31.0016-11.656533 73.403733-8.379733 103.808 4.1472 25.3184 10.436267 55.3472 29.056 43.716266 60.433067-22.212267 17.518933-41.2416-12.228267-61.559466-21.853867-26.743467-12.672-62.4128-15.8464-90.197334-5.4784-15.5392 5.802667-24.866133 22.050133-41.309866 14.651733z" fill="#533127" p-id="3917"></path><path d="M723.259733 679.210667v4.1472c-8.823467-0.7424-18.628267 1.169067-27.2128 0.068266-5.230933-0.674133-5.6064-4.138667-5.9648-4.215466 10.973867-0.494933 22.237867 0.725333 33.1776 0z" fill="#F9DFC5" p-id="3918"></path><path d="M142.626133 563.080533c-9.053867-0.469333-20.087467-0.699733-29.0304 0l2.449067-3.694933c7.9872-0.930133 16.170667-0.930133 24.1408 0l2.449067 3.694933z" fill="#F8D6BA" p-id="3919"></path><path d="M477.2864 609.501867c31.368533-5.316267 94.404267 6.254933 100.241067 43.648 2.030933 13.021867-10.1376 29.141333-20.266667 36.317866-29.0048 20.5568-66.244267 20.573867-95.1808 0-38.656-27.485867-34.4576-71.552 15.214933-79.965866z" fill="#532F27" p-id="3920"></path><path d="M157.789867 634.24c21.393067-4.6848 55.9104 19.072 50.619733 42.222933-2.781867 12.194133-18.568533 32.520533-31.2064 35.345067-8.942933 2.3296-20.241067-3.319467-27.793067-8.2944-20.974933-13.806933-15.240533-27.869867-14.5664-50.747733 1.706667-5.8624 16.733867-17.169067 22.9376-18.525867z" fill="#FAB895" p-id="3921"></path><path d="M879.991467 802.7648c-1.390933 1.399467-20.266667 12.100267-22.621867 12.629333-34.730667 7.7568-83.413333-7.458133-88.4224-47.086933-2.884267-22.826667-2.030933-40.311467 12.296533-58.069333 8.157867-10.112 32.119467-28.330667 44.3904-30.583467 12.228267-2.244267 39.5776 11.665067 49.0752 20.224 21.5296 19.387733 36.898133 56.0384 20.642134 82.986667-2.389333 3.950933-7.492267 6.638933-10.538667 10.325333-2.619733 3.1744-3.106133 7.850667-4.8128 9.5744z m-1.681067-51.541333c0-24.6272-19.968-44.5952-44.5952-44.5952s-44.5952 19.968-44.5952 44.5952 19.968 44.5952 44.5952 44.5952 44.5952-19.968 44.5952-44.5952z" fill="#F9C6A5" p-id="3922"></path><path d="M833.7152 751.223467m-44.5952 0a44.5952 44.5952 0 1 0 89.1904 0 44.5952 44.5952 0 1 0-89.1904 0Z" fill="#FAB995" p-id="3923"></path></svg>