<?xml version="1.0" standalone="no"?><!DOCTYPE svg PUBLIC "-//W3C//DTD SVG 1.1//EN" "http://www.w3.org/Graphics/SVG/1.1/DTD/svg11.dtd"><svg t="1772951609278" class="icon" viewBox="0 0 1024 1024" version="1.1" xmlns="http://www.w3.org/2000/svg" p-id="7041" xmlns:xlink="http://www.w3.org/1999/xlink" width="200" height="200"><path d="M43.195733 411.6992c-4.241067 4.266667-1.629867 23.0912-14.728533 20.864-0.913067-4.3264-5.666133-18.7904-7.6544-20.821333-3.3792-3.456-17.1008-2.363733-20.8128-9.437867 17.058133-9.2416 24.6016-16.699733 33.800533-33.809067 4.548267 5.307733 4.087467 14.062933 8.704 19.7632 5.358933 6.613333 16.196267 7.0144 21.5296 14.045867-3.703467 7.074133-17.4592 5.998933-20.8384 9.3952z m-15.104-15.445333l-2.8416 8.5504 10.7008 3.5584 2.8416-8.5504-10.7008-3.5584z" fill="#50352D" p-id="7042"></path><path d="M25.25184 404.795733l2.8416-8.551253 10.697387 3.554133-2.8416 8.552107z" fill="#C7C0BC" p-id="7043"></path><path d="M191.2576 23.773867c7.5264-0.699733 25.8816 4.718933 33.9712 7.3472 43.170133 14.020267 96.904533 52.514133 132.539733 81.024 7.9104 6.3232 13.1328 16.5888 24.951467 18.048l60.475733-10.794667c60.014933-5.316267 118.468267-4.0192 177.834667 3.549867 13.6192 1.732267 28.8512 7.7568 42.862933 7.150933 7.893333-1.1264 11.733333-9.685333 17.6384-14.395733 24.311467-19.413333 52.334933-40.2944 78.9248-56.337067 51.319467-30.958933 114.705067-59.0336 153.736534 5.3504 34.449067 56.832 50.048 154.811733 53.870933 220.202667 1.9712 33.723733-3.985067 74.5216 0.128 106.6496 3.336533 26.052267 29.764267 79.8208 38.229333 111.266133 69.205333 257.066667-72.32 417.757867-314.888533 477.141333-330.129067 80.8192-773.546667-78.523733-647.176533-494.122666 7.850667-25.821867 30.976-71.799467 33.860266-94.2848 4.522667-35.3024-2.030933-80.5888-0.093866-117.5552 2.986667-57.028267 19.976533-160.375467 50.466133-209.365334 13.6704-21.9648 36.258133-38.408533 62.651733-40.874666z m801.800533 661.504l7.2704-40.7808c0.64-46.318933-7.168-92.603733-19.6352-137.2928-13.602133-48.7424-44.7488-104.157867-40.96-154.658134 0.7936-10.5728 4.522667-18.304 3.413334-32.034133-5.751467-71.005867-9.250133-145.1264-36.292267-212.872533-13.252267-33.2032-31.394133-62.139733-71.509333-55.253334-34.346667 5.896533-113.698133 64.768-143.138134 88.226134-8.064 6.4256-13.3888 18.884267-24.874666 18.133333l-56.9856-10.88c-63.095467-6.519467-125.277867-5.623467-188.5184 0.008533l-49.4336 10.231467c-36.138667-28.049067-71.202133-58.478933-111.36-80.9472-37.367467-20.906667-83.677867-46.370133-111.086934 1.7152-29.986133 52.599467-43.426133 153.4464-46.685866 213.154133-1.416533 26.026667 5.205333 85.248-0.068267 104.9344-0.068267 0.238933-4.3264 0.042667-3.5584 3.549867 2.986667-0.298667 6.365867 0.546133 9.105067 0.119467 5.154133-0.810667 4.6848-3.413333 5.128533-3.669334 1.390933-0.7936 2.8416-4.932267 7.1168-3.5584h7.1168c-0.315733 2.235733 0.580267 5.469867 0 7.1168-0.110933 0.315733-4.4032 0.6912-3.328 4.829867s6.698667 5.410133 6.8864 5.845333c2.167467 4.974933-0.836267 14.865067 10.6752 17.800534-0.3584 0.9984 0.298667 2.397867 0 3.5584l-3.165867 2.210133-0.392533 8.465067-8.951467-3.5072c-3.259733-14.0032-8.874667-23.8848-23.082666-28.526934l3.5584-7.108266-14.08 3.780266c-0.7168 2.244267 0.093867 4.667733-0.162134 6.8864-2.8928 25.728-23.458133 67.2-31.172266 95.189334-10.709333 38.8608-21.5808 98.542933-18.816 138.103466 0.4864 6.997333 4.420267 12.4672 3.712 19.4304-0.452267 1.7152-0.017067 4.898133 0 7.1168 0.017067 2.824533-0.469333 5.666133 0.392533 8.456534l3.165867 2.218666c4.667733 41.710933 22.314667 79.889067 46.276266 113.902934 73.617067 104.516267 231.133867 158.651733 354.005334 171.008 167.799467 16.8704 382.2592-30.634667 489.5744-171.008 24.157867-31.598933 47.6416-72.098133 49.834666-113.902934z" fill="#4B2B22" p-id="7044"></path><path d="M993.058133 685.277867c2.397867-45.841067-28.3136-88.055467-74.743466-92.544-2.961067-6.152533-13.755733-3.5328-19.584-3.549867-51.089067-0.196267-81.826133 17.646933-126.344534 35.584-21.2736 8.567467-31.616 11.374933-54.485333 14.8224-1.6128 0.238933-2.167467 2.935467-2.466133 2.978133-5.410133 0.7168-15.940267 0.725333-21.358934 0-0.187733-0.0256 0.9216-2.688-2.158933-3.165866-4.241067-0.6656-9.1392 0.324267-12.0832-0.392534-40.200533-9.762133-63.837867-46.336-99.584-62.370133-28.8768-12.9536-66.756267-15.7184-97.28-8.1408-59.5968 14.7968-87.202133 82.3552-159.069867 74.069333-6.033067-0.699733-24.209067-5.0176-32.034133-7.1168-0.264533-0.068267-0.750933-2.2272-2.6368-2.807466-8.772267-2.705067-13.585067-3.9168-22.280533-7.867734-21.393067-9.736533-40.3712-21.4272-64.068267-28.475733-1.937067-0.580267-5.060267 0.5376-7.1168 0-1.476267-0.392533-4.5056-2.3296-10.6752-3.5584-2.141867-0.426667-4.881067 0.366933-7.1168 0-3.908267-0.64-8.379733-3.140267-17.800533-3.5584-10.299733-0.4608-22.459733-1.109333-32.034134 1.706667v1.851733c-42.0352 3.703467-64.7936 34.705067-75.3408 72.4736-0.8192 2.935467-2.9184 2.090667-2.9696 2.269867 0.708267-6.9632-3.2256-12.433067-3.712-19.4304-2.7648-39.560533 8.106667-99.242667 18.816-138.103467 7.714133-27.989333 28.279467-69.461333 31.172267-95.189333l10.6752-3.5584c14.208 4.642133 19.822933 14.523733 23.082667 28.526933l8.951466 3.5072 3.549867-1.800533c0.554667-2.807467-0.622933-6.442667 0.008533-8.874667 0.298667-1.160533-0.3584-2.56 0-3.5584 0.4096-1.143467 8.7552-10.9312 10.734934-12.407467 7.901867-5.845333 22.254933-3.618133 21.2992-16.059733-11.477333-1.621333-22.101333-6.0672-28.023467-16.477867-3.6864-6.485333-3.080533-14.301867-9.361067-19.1232l-16.008533 28.4672c-4.283733-1.373867-5.725867 2.7648-7.1168 3.5584h-10.6752c5.2736-19.6864-1.348267-78.907733 0.068267-104.9344 3.259733-59.707733 16.699733-160.546133 46.685866-213.154133 27.409067-48.093867 73.719467-22.621867 111.086934-1.7152 40.157867 22.468267 75.221333 52.898133 111.36 80.9472l49.4336-10.231467c63.232-5.632 125.422933-6.528 188.5184-0.008533l56.9856 10.88c11.485867 0.750933 16.810667-11.707733 24.874666-18.133333 29.44-23.466667 108.791467-82.338133 143.138134-88.226134 40.1152-6.8864 58.257067 22.050133 71.509333 55.253334 27.0336 67.7376 30.5408 141.866667 36.292267 212.872533 1.109333 13.730133-2.619733 21.461333-3.413334 32.034133-3.797333 50.500267 27.357867 105.924267 40.96 154.658134 12.4672 44.680533 20.2752 90.965333 19.6352 137.2928l-7.2704 40.7808z m-790.186666-427.127467c6.0416-1.211733 20.1472-19.694933 26.632533-24.977067 14.301867-11.656533 34.688-24.610133 50.432-34.9952 4.3264-2.850133 17.595733-5.828267 15.445333-12.945066-22.946133-20.608-60.586667-70.929067-94.378666-65.988267-26.478933 12.2368-30.882133 49.664-34.3296 76.014933-0.273067 2.0736-2.961067 3.370667-2.961067 4.164267v90.769067l24.917333-14.2336c-9.463467 34.2528-12.9792 32.580267-44.450133 42.752-28.680533 9.2672 14.762667 18.414933 20.8384 21.794133 16.964267 9.437867 23.876267 31.479467 27.246933 49.3312h10.5216c4.48-35.140267 25.335467-56.192 60.586667-60.4928-0.034133-14.498133-20.6848-12.228267-31.0272-17.015467-20.394667-9.429333-25.130667-34.440533-29.474133-54.1696z m676.283733 32.034133v-80.085333c0-0.7936-2.696533-2.090667-2.961067-4.155733-7.5008-59.4688-16.401067-120.746667-85.870933-63.317334-6.9632 5.751467-42.666667 40.7552-42.8288 46.1312 20.394667 15.069867 43.835733 27.306667 63.872 42.8544 20.625067 16.008533 37.1968 36.667733 57.105067 53.239467 3.601067 2.9952 4.565333 6.801067 10.6752 5.341867z m-531.447467 50.525867c-41.736533 7.483733-48.401067 54.434133-18.5344 81.2288 25.301333 22.698667 79.3856 33.774933 99.694934-0.085333 26.282667-43.8272-41.002667-88.337067-81.152-81.143467z m320.349867-0.017067c-43.281067 7.560533-91.255467 60.672-45.0816 93.550934 43.784533 31.1808 129.015467-26.948267 97.698133-72.7808-12.458667-18.2272-30.976-24.5504-52.616533-20.770134zM414.2592 532.4288c0-52.522667-42.581333-95.104-95.104-95.104s-95.104 42.581333-95.104 95.104 42.581333 95.104 95.104 95.104 95.104-42.581333 95.104-95.104z m397.713067-0.366933c0-52.5568-42.606933-95.1552-95.1552-95.1552s-95.1552 42.606933-95.1552 95.1552 42.606933 95.1552 95.1552 95.1552 95.1552-42.606933 95.1552-95.1552z" fill="#F7C17C" p-id="7045"></path><path d="M121.002667 393.403733l16.008533-28.4672c6.280533 4.8128 5.666133 12.629333 9.361067 19.1232 5.922133 10.410667 16.546133 14.856533 28.023466 16.477867 0.955733 12.4416-13.397333 10.222933-21.2992 16.059733-1.988267 1.467733-10.333867 11.255467-10.734933 12.407467-11.511467-2.926933-8.507733-12.817067-10.6752-17.800533 10.6496-0.093867 14.677333-7.799467 5.316267-14.250667l-8.874667 3.566933c0.571733-1.646933-0.315733-4.881067 0-7.1168h-7.1168z" fill="#563629" p-id="7046"></path><path d="M131.677867 411.204267c-0.187733-0.4352-5.7856-1.6128-6.8864-5.845334s3.217067-4.514133 3.328-4.829866l8.874666-3.566934c9.361067 6.4512 5.333333 14.1568-5.316266 14.250667z" fill="#F0B879" p-id="7047"></path><path d="M96.085333 414.762667c0.247467-2.2272-0.5632-4.642133 0.162134-6.8864l14.08-3.780267-3.5584 7.108267-10.6752 3.5584zM113.885867 396.962133c-0.443733 0.256 0.0256 2.850133-5.128534 3.669334-2.747733 0.4352-6.1184-0.418133-9.105066-0.119467-0.768-3.5072 3.490133-3.310933 3.5584-3.549867h10.6752zM138.8032 443.2384l0.392533-8.465067 3.165867-2.210133c-0.631467 2.432 0.546133 6.0672-0.008533 8.874667l-3.549867 1.800533z" fill="#563629" p-id="7048"></path><path d="M811.972267 532.061867c0 52.5568-42.606933 95.1552-95.1552 95.1552s-95.1552-42.606933-95.1552-95.1552S664.2688 436.906667 716.817067 436.906667s95.1552 42.606933 95.1552 95.1552z m-36.027734 3.729066c-10.615467 0.017067-23.082667-6.331733-30.353066-14.1568l-19.4816-35.677866c-3.780267 24.8832-16.3584 42.658133-41.130667 49.7408-5.2736 1.5104-6.084267-1.9968-5.154133 7.1936 12.330667 1.527467 22.7328 8.234667 32.1792 15.889066l17.646933 33.954134c6.0928-27.613867 15.598933-43.298133 44.202667-49.902934 4.0192-0.930133 1.8688-4.215467 2.090666-7.04z" fill="#4E2D25" p-id="7049"></path><path d="M414.2592 532.4288c0 52.522667-42.581333 95.104-95.104 95.104s-95.104-42.581333-95.104-95.104 42.581333-95.104 95.104-95.104 95.104 42.581333 95.104 95.104z m-104.610133-42.9312c-9.1904-0.913067-5.691733-0.128-7.202134 5.162667-6.801067 23.850667-20.206933 39.722667-46.199466 41.130666-0.896 7.560533-0.631467 5.794133 4.573866 7.7824 25.463467 9.719467 39.278933 19.4048 41.719467 49.169067 9.096533 0.861867 5.7344 0.264533 7.210667-5.154133 6.724267-24.661333 19.2-41.8816 46.173866-44.6976-2.9184-8.994133-14.139733-8.840533-21.205333-12.603734-14.8736-7.918933-23.236267-24.1664-25.070933-40.789333z" fill="#4E2E26" p-id="7050"></path><path d="M202.871467 258.1504c-3.1232 0.622933-7.176533-0.708267-10.555734 0.1024-0.0768 6.084267-2.090667 11.938133-3.677866 17.6896l-24.917334 14.2336V199.406933c0-0.7936 2.688-2.082133 2.961067-4.164266 3.447467-26.350933 7.850667-63.786667 34.3296-76.014934 33.783467-4.9408 71.432533 45.380267 94.378667 65.988267 2.1504 7.1168-11.118933 10.0864-15.445334 12.945067-15.744 10.385067-36.130133 23.338667-50.432 34.9952-6.485333 5.290667-20.590933 23.773867-26.632533 24.977066z" fill="#F8C5B3" p-id="7051"></path><path d="M879.1552 290.184533c-6.1184 1.4592-7.074133-2.338133-10.6752-5.341866-19.908267-16.5632-36.48-37.230933-57.105067-53.239467-20.036267-15.556267-43.477333-27.784533-63.872-42.8544 0.162133-5.376 35.8656-40.379733 42.8288-46.1312 69.4784-57.429333 78.378667 3.848533 85.870934 63.317333 0.264533 2.065067 2.961067 3.362133 2.961066 4.155734v80.085333z" fill="#F8C4B1" p-id="7052"></path><path d="M347.707733 340.7104c40.157867-7.1936 107.4432 37.316267 81.152 81.143467-20.309333 33.860267-74.3936 22.784-99.694933 0.085333-29.866667-26.794667-23.202133-73.7536 18.5344-81.2288z" fill="#F7EDDB" p-id="7053"></path><path d="M668.0576 340.693333c21.640533-3.780267 40.157867 2.542933 52.616533 20.770134 31.325867 45.832533-53.9136 103.953067-97.698133 72.7808-46.173867-32.878933 1.800533-85.9904 45.0816-93.550934z" fill="#F7EDDA" p-id="7054"></path><path d="M202.871467 258.1504c4.343467 19.729067 9.079467 44.731733 29.474133 54.1696 10.350933 4.7872 30.993067 2.5088 31.0272 17.015467-35.2512 4.3008-56.106667 25.361067-60.586667 60.4928h-10.5216c-3.370667-17.851733-10.282667-39.893333-27.246933-49.3312-6.075733-3.3792-49.518933-12.526933-20.8384-21.794134 31.470933-10.171733 34.986667-8.4992 44.450133-42.752 1.5872-5.76 3.601067-11.613867 3.677867-17.6896 3.3792-0.810667 7.432533 0.520533 10.555733-0.1024z m17.800533 64.085333c-13.576533 0-13.6448-17.194667-24.9088-21.376l-21.376 28.4672 23.1424 17.792 23.1424-24.8832z" fill="#4D2F24" p-id="7055"></path><path d="M775.944533 535.790933c-0.221867 2.824533 1.928533 6.109867-2.090666 7.04-28.612267 6.6048-38.109867 22.289067-44.202667 49.902934l-17.646933-33.954134c-9.4464-7.6544-19.848533-14.3616-32.1792-15.889066-0.930133-9.1904-0.119467-5.6832 5.154133-7.1936 24.772267-7.082667 37.3504-24.8576 41.130667-49.7408l19.4816 35.677866c7.2704 7.825067 19.7376 14.173867 30.353066 14.1568z" fill="#EFE9DE" p-id="7056"></path><path d="M309.649067 489.4976c1.8432 16.622933 10.205867 32.878933 25.070933 40.789333 7.0656 3.754667 18.286933 3.6096 21.205333 12.603734-26.973867 2.816-39.458133 20.036267-46.173866 44.6976-1.476267 5.410133 1.877333 6.016-7.210667 5.154133-2.432-29.7728-16.256-39.458133-41.719467-49.169067-5.205333-1.988267-5.461333-0.221867-4.573866-7.7824 25.992533-1.408 39.3984-17.28 46.199466-41.130666 1.5104-5.290667-1.988267-6.0672 7.202134-5.162667z" fill="#F1EADD" p-id="7057"></path><path d="M220.672 322.235733l-23.1424 24.8832-23.1424-17.792 21.376-28.4672c11.264 4.181333 11.323733 21.376 24.9088 21.376z" fill="#F2BD7D" p-id="7058"></path><path d="M679.8336 639.010133l2.423467 3.037867 11.810133 0.520533c5.410133 0.725333 15.940267 0.7168 21.358933 0 11.8528-1.169067 6.459733 2.909867 4.104534 9.437867-14.011733 38.826667-16.648533 90.589867 8.448 125.7216 30.685867 42.9568 89.019733 54.954667 138.871466 50.0736 22.007467-2.158933 39.389867-18.013867 58.5216-26.897067 3.208533-1.493333 16.221867-8.0384 17.851734-1.723733-107.3152 140.373333-321.774933 187.8784-489.5744 171.008-122.871467-12.356267-280.388267-66.491733-354.005334-171.008l66.594134 24.174933c97.297067 22.877867 182.954667-39.6544 168.2432-143.325866l-10.589867-37.461334c71.876267 8.285867 99.4816-59.272533 159.069867-74.069333 30.523733-7.5776 68.4032-4.8128 97.28 8.1408 35.746133 16.034133 59.383467 52.599467 99.584 62.370133zM497.28 593.493333c-30.882133 4.360533-61.917867 29.201067-41.198933 61.038934 14.2336 21.879467 46.6432 36.8128 72.405333 34.210133 31.112533-3.1488 79.9744-37.0944 56.925867-70.997333-17.3568-25.531733-59.963733-28.228267-88.132267-24.251734z m14.148267 110.276267c-17.450667 3.037867-36.608 18.048-44.6464 33.6384-18.730667 36.3264-18.747733 90.743467 6.528 124.1344 19.285333 25.463467 54.178133 32.213333 80.2304 12.458667 44.2112-33.544533 40.516267-127.351467-3.5584-160.315734-10.692267-8.004267-25.386667-12.202667-38.5536-9.915733z" fill="#F9EFDD" p-id="7059"></path><path d="M918.314667 592.733867c46.4384 4.488533 77.149867 46.702933 74.743466 92.544-2.184533 41.8048-25.6768 82.304-49.834666 113.902933-1.6384-6.314667-14.6432 0.2304-17.851734 1.723733-19.140267 8.8832-36.514133 24.738133-58.5216 26.897067-49.851733 4.881067-108.194133-7.1168-138.871466-50.0736-25.096533-35.131733-22.459733-86.903467-8.448-125.7216 2.3552-6.536533 7.7568-10.615467-4.104534-9.437867 0.298667-0.042667 0.853333-2.7392 2.466134-2.978133 22.869333-3.447467 33.211733-6.2464 54.485333-14.8224 8.763733 3.1744-0.785067 9.454933-3.566933 12.450133-9.207467 9.941333-20.283733 18.56-24.994134 31.957334 1.9968 16.315733-5.282133 29.841067-3.3792 46.276266 8.3712 72.32 83.601067 99.029333 145.8944 74.88 11.3152-4.386133 42.4704-20.1984 49.92-28.381866 13.3632-14.685867 16.0256-58.811733 14.250667-78.600534-2.338133-26.0096-29.585067-65.8688-52.1984-79.496533-6.280533-3.7888-14.327467-3.089067-19.131733-9.344l39.150933-1.774933z" fill="#F8E5CF" p-id="7060"></path><path d="M128.119467 592.733867c6.1184-0.5376 13.277867-0.136533 19.584 0 4.317867 0.093867 13.277867-2.653867 12.4416 3.549866-16.170667 1.262933-37.717333 12.689067-47.889067 25.088-3.6864 4.497067-16.6912 23.671467-18.141867 28.125867-1.9456 5.956267-4.693333 26.427733-5.290666 33.834667-1.186133 14.574933 2.3552 29.243733 3.643733 42.9568 1.774933 18.926933-2.338133 31.274667 14.429867 46.062933 8.7296 7.697067 47.982933 27.3408 59.1616 29.824 7.722667 1.7152 16.273067-0.042667 24.285866 0.631467 4.488533 0.375467 8.6016 3.797333 14.301867 3.7888 16.938667-0.008533 55.133867-13.474133 69.316267-23.5264 24.8064-17.570133 38.5024-63.0272 35.6096-92.373334-1.664-16.810667-6.971733-27.451733-15.8976-41.053866-2.500267-3.8144-11.2128-9.898667-1.826134-14.190934 7.825067 2.0992 26.001067 6.4256 32.034134 7.1168l10.589866 37.461334C349.184 783.701333 263.5264 846.242133 166.229333 823.355733l-66.594133-24.174933C75.682133 765.166933 58.026667 726.9888 53.358933 685.277867c-0.290133-2.619733 0.657067-5.691733-0.384-8.456534l-3.1744-2.218666c-0.017067-2.218667-0.452267-5.4016 0-7.1168 0.0512-0.1792 2.1504 0.6656 2.9696-2.269867 10.5472-37.768533 33.3056-68.770133 75.3408-72.4736z" fill="#F9E4CD" p-id="7061"></path><path d="M53.376 685.277867l-3.165867-2.218667c-0.861867-2.7904-0.366933-5.632-0.392533-8.456533l3.1744 2.218666c1.041067 2.7648 0.093867 5.8368 0.384 8.456534z" fill="#F7C17C" p-id="7062"></path><path d="M918.314667 592.733867l-39.150934 1.774933c4.804267 6.254933 12.8512 5.5552 19.131734 9.344 22.613333 13.627733 49.8688 53.486933 52.1984 79.496533 1.774933 19.780267-0.887467 63.914667-14.250667 78.600534-7.4496 8.192-38.6048 23.995733-49.92 28.381866-62.293333 24.157867-137.5232-2.551467-145.8944-74.88-1.902933-16.4352 5.384533-29.960533 3.3792-46.276266 4.7104-13.397333 15.786667-22.007467 24.994133-31.957334 2.781867-3.003733 12.322133-9.275733 3.566934-12.450133 44.526933-17.937067 75.264-35.780267 126.344533-35.584 5.828267 0.0256 16.631467-2.602667 19.584 3.549867z m5.973333 102.229333c0-42.410667-34.3808-76.791467-76.791467-76.791467s-76.791467 34.3808-76.791466 76.791467 34.3808 76.791467 76.791466 76.791467 76.791467-34.3808 76.791467-76.791467z" fill="#F9D6B9" p-id="7063"></path><path d="M266.939733 624.768c-7.296 1.595733-0.162133 11.136 1.8688 14.148267 10.897067 16.145067 20.113067 26.8288 22.9888 48.2048 3.413333 25.386667-6.715733 63.163733-26.5728 80.093866-20.804267 17.732267-45.883733 19.925333-71.2448 24.814934-32.981333-7.995733-73.7536-17.4592-85.6064-53.1712-8.635733-26.0096-4.8128-53.504-1.024-79.6928 9.984-20.5056 36.002133-50.167467 58.734934-55.168 7.552-1.664 16.4352-0.3328 24.354133-0.580267 6.980267-0.221867 14.378667 3.677867 12.4416-7.1168 23.697067 7.048533 42.6752 18.7392 64.068267 28.475733z m1.493334 70.2464c0-40.439467-32.785067-73.224533-73.224534-73.224533s-73.224533 32.785067-73.224533 73.224533 32.785067 73.224533 73.224533 73.224533 73.224533-32.785067 73.224534-73.224533z" fill="#F9D3B7" p-id="7064"></path><path d="M160.1536 589.175467l2.0992 3.1744 15.6928 0.384c2.244267 0.366933 4.974933-0.426667 7.1168 0l2.218667 3.165866 8.456533 0.392534c2.056533 0.5376 5.179733-0.580267 7.1168 0 1.937067 10.8032-5.461333 6.903467-12.4416 7.1168-7.918933 0.247467-16.802133-1.083733-24.354133 0.580266-22.7328 5.000533-48.750933 34.6624-58.734934 55.168-3.780267 26.1888-7.6032 53.6832 1.024 79.6928 11.8528 35.720533 52.625067 45.184 85.6064 53.1712 25.3696-4.8896 50.449067-7.082667 71.2448-24.814933 19.857067-16.930133 29.986133-54.698667 26.5728-80.093867-2.875733-21.376-12.0832-32.0512-22.9888-48.2048-2.039467-3.012267-9.1648-12.544-1.8688-14.148266 8.695467 3.959467 13.508267 5.162667 22.280534 7.867733 1.885867 0.580267 2.372267 2.7392 2.6368 2.807467-9.386667 4.3008-0.674133 10.385067 1.826133 14.190933 8.917333 13.610667 14.2336 24.2432 15.8976 41.053867 2.901333 29.346133-10.8032 74.8032-35.6096 92.373333-14.1824 10.052267-52.3776 23.517867-69.316267 23.5264-5.7088 0-9.813333-3.413333-14.301866-3.7888-8.0128-0.674133-16.554667 1.083733-24.285867-0.631467-11.178667-2.4832-50.432-22.1184-59.1616-29.824-16.768-14.7968-12.654933-27.136-14.429867-46.062933-1.288533-13.704533-4.821333-28.381867-3.643733-42.9568 0.597333-7.406933 3.345067-27.8784 5.290667-33.834667 1.450667-4.4544 14.464-23.637333 18.141866-28.125866 10.171733-12.398933 31.7184-23.816533 47.889067-25.088 0.827733-6.203733-8.132267-3.456-12.4416-3.549867-6.306133-0.145067-13.474133-0.5376-19.584 0v-1.851733c9.5744-2.816 21.742933-2.167467 32.034133-1.706667z" fill="#F9DBC2" p-id="7065"></path><path d="M177.954133 592.733867l-15.6928-0.384-2.0992-3.1744c9.412267 0.418133 13.892267 2.9184 17.800534 3.5584z" fill="#F9D3B7" p-id="7066"></path><path d="M694.0672 642.568533l-11.810133-0.520533-2.423467-3.037867c2.935467 0.7168 7.842133-0.2816 12.0832 0.392534 3.080533 0.4864 1.9712 3.140267 2.158933 3.165866z" fill="#F8E5CF" p-id="7067"></path><path d="M195.754667 596.292267l-8.456534-0.392534-2.218666-3.165866c6.1696 1.2288 9.207467 3.1744 10.6752 3.5584z" fill="#F9D3B7" p-id="7068"></path><path d="M511.428267 703.7696c13.166933-2.295467 27.8528 1.911467 38.5536 9.915733 44.074667 32.964267 47.7696 126.7712 3.5584 160.315734-26.043733 19.7632-60.945067 13.0048-80.2304-12.458667-25.275733-33.390933-25.258667-87.808-6.528-124.1344 8.0384-15.5904 27.204267-30.592 44.6464-33.6384z m-0.110934 28.347733c-15.709867 3.438933-28.8256 32.861867-30.754133 47.547734-3.003733 22.8608 3.6352 61.841067 24.874667 74.666666 28.270933 17.0752 50.500267-21.444267 53.290666-46.336 2.9952-26.8032-11.528533-83.7376-47.4112-75.8784z" fill="#4C2D24" p-id="7069"></path><path d="M497.28 593.493333c28.168533-3.976533 70.775467-1.28 88.132267 24.251734 23.048533 33.902933-25.813333 67.848533-56.925867 70.997333-25.762133 2.602667-58.180267-12.330667-72.405333-34.210133-20.7104-31.837867 10.3168-56.686933 41.198933-61.038934z" fill="#4F2F27" p-id="7070"></path><path d="M924.288 694.9632c0 42.410667-34.3808 76.791467-76.791467 76.791467s-76.791467-34.3808-76.791466-76.791467 34.3808-76.791467 76.791466-76.791467 76.791467 34.3808 76.791467 76.791467z m-92.5952-48.247467c-14.7968 3.2256-27.630933 27.025067-30.1824 41.0112-4.462933 24.456533 19.3536 52.872533 43.9808 54.638934 4.9152 0.349867 30.677333-8.234667 35.063467-11.1872 7.543467-5.085867 16.349867-24.832 16.3584-33.4336 0.017067-10.350933-11.485867-33.877333-19.396267-41.079467-11.229867-10.222933-31.2832-13.124267-45.824-9.949867z" fill="#F9C8A7" p-id="7071"></path><path d="M268.433067 695.0144c0 40.439467-32.785067 73.224533-73.224534 73.224533s-73.224533-32.785067-73.224533-73.224533 32.785067-73.224533 73.224533-73.224533 73.224533 32.785067 73.224534 73.224533z m-66.6624-48.290133c-10.8288 4.974933-20.744533 0.725333-30.865067 8.3712-3.797333 2.8672-17.4336 21.0176-17.954133 24.7552-5.700267 31.752533 12.177067 64.324267 47.4624 58.120533 49.527467-8.704 50.090667-80.6912 1.3568-91.246933z" fill="#FAC4A3" p-id="7072"></path><path d="M511.317333 732.117333c35.874133-7.8592 50.4064 49.0752 47.4112 75.8784-2.781867 24.891733-25.019733 63.4112-53.290666 46.336-21.239467-12.8256-27.8784-51.805867-24.874667-74.666666 1.928533-14.685867 15.044267-44.100267 30.754133-47.547734z" fill="#F7AF9B" p-id="7073"></path><path d="M831.6928 646.715733c14.549333-3.1744 34.594133-0.273067 45.824 9.949867 7.9104 7.1936 19.4048 30.728533 19.396267 41.079467-0.008533 8.6016-8.814933 28.347733-16.3584 33.4336-4.386133 2.952533-30.148267 11.5456-35.063467 11.1872-24.635733-1.757867-48.443733-30.173867-43.9808-54.638934 2.551467-13.994667 15.3856-37.7856 30.1824-41.0112z" fill="#FABA96" p-id="7074"></path><path d="M201.770667 646.724267c48.733867 10.555733 48.170667 82.542933-1.3568 91.246933-35.293867 6.203733-53.162667-26.368-47.4624-58.120533 0.529067-3.7376 14.1568-21.888 17.954133-24.7552 10.120533-7.645867 20.036267-3.387733 30.865067-8.3712z" fill="#FBB894" p-id="7075"></path></svg>