<?xml version="1.0" standalone="no"?><!DOCTYPE svg PUBLIC "-//W3C//DTD SVG 1.1//EN" "http://www.w3.org/Graphics/SVG/1.1/DTD/svg11.dtd"><svg t="1772951536779" class="icon" viewBox="0 0 1024 1024" version="1.1" xmlns="http://www.w3.org/2000/svg" p-id="2635" xmlns:xlink="http://www.w3.org/1999/xlink" width="200" height="200"><path d="M163.457041 17.194667c45.4144-7.850667 116.736 38.741333 153.489067 64.9728 10.8544 7.748267 44.552533 39.125333 53.051733 40.2176 7.918933 1.92 14.5408-3.438933 21.282133-4.352 87.671467-11.8528 179.780267-13.218133 266.094934 8.055466C713.729041 79.2064 775.049574 31.419733 848.555708 16.238933c33.399467 3.473067 57.0112 20.6336 73.1904 49.4848 28.100267 50.107733 44.2368 145.6384 47.4112 202.3168 2.218667 39.543467-5.393067 89.8304-0.187734 127.163734 2.926933 20.9664 24.6528 62.464 31.863467 86.656 38.673067 129.6896 36.949333 274.167467-67.669333 372.770133-16.264533 15.325867-48.810667 32.8704-61.627734 48.426667-6.340267 7.688533-8.132267 17.570133-13.201066 24.900266-42.897067 61.994667-127.744 109.056-196.881067 58.299734-11.767467 1.8432-26.205867 6.382933-37.538133 7.808-90.1376 11.332267-177.4336 12.202667-266.683734-8.541867-71.611733 54.0928-167.3984-0.904533-206.011733-68.872533-4.881067-8.593067-6.570667-19.157333-11.716267-26.376534-10.1376-14.242133-47.274667-36.164267-63.735466-54.775466C-18.558959 728.823467-12.261359 602.0352 27.068774 473.386667c8.072533-26.410667 28.6208-66.6112 31.7952-90.948267 4.8384-37.051733-2.5088-83.797333 0.1536-122.589867 2.909867-42.368 13.3888-106.043733 26.350934-147.191466 11.861333-37.674667 35.063467-88.021333 78.088533-95.453867zM29.304508 663.9872c-0.5376 2.056533-0.017067 5.819733 0 8.465067 0.0768 10.888533 4.096 11.9808 4.232533 12.6976 7.543467 38.673067 13.661867 60.2624 34.5088 94.592 10.9568 18.039467 50.696533 68.9408 69.4784 74.478933 7.970133 2.3552 5.077333-1.4336 6.7584-5.290667 7.773867-17.8432 16.776533-36.6336 37.0176-41.4208 1.083733-12.4928 0-25.198933 0.392533-37.7088 0.298667-9.582933-1.109333-20.5312 0-29.627733 0.221867-1.809067 3.84-17.954133 5.034667-22.485333 4.701867-17.8176 19.797333-46.242133 37.290667-53.700267 9.1392-3.899733 27.793067-4.241067 38.0928-4.232533 10.5216 5.358933 22.135467 8.328533 31.7952 16.520533 25.2928-26.973867 47.658667-29.201067 82.4832-29.218133 3.669333 5.230933 5.060267 10.4448 4.232533 16.930133l-22.894933 0.469333-2.491734 3.771734c-0.238933 0.042667-0.913067 2.781867-3.157333 3.319466-39.236267 9.489067-51.4304 30.549333-75.562667 59.7504l-8.064 0.5888c-29.073067-7.022933 13.986133-34.7392-1.979733-44.731733-58.325333-13.550933-57.250133 46.4384-59.374933 86.8864-1.186133 22.647467 1.877333 41.514667-8.6784 63.2832l-24.9088 0.469333c-7.893333 20.206933-14.728533 33.416533-6.766934 54.920534 11.895467 32.145067 54.818133 70.536533 86.8608 82.432 26.88 9.984 45.457067 11.707733 72.106667 0.0256 21.905067-9.6 43.2384-33.911467 57.096533-53.128534 2.3296-3.234133 1.4592-7.432533 2.0736-8.337066 11.997867-17.570133 25.6512-33.9456 33.860267-55.022934l12.407467 11.136-3.9424 22.724267c-12.279467 24.379733-21.998933 39.057067-38.0672 61.397333-2.568533 3.575467-5.998933 3.8912-4.258134 10.5472l56.951467 8.6528c64.785067-0.699733 129.3312 3.063467 192.776533-8.661333-10.837333-18.577067-27.0848-34.730667-37.486933-53.538133-3.063467-5.546667-3.234133-10.862933-4.8384-14.173867v-12.7232l8.157867 4.087467 0.768-7.697067 8.004266-0.605867c3.584 7.509333 12.2112 22.016 16.930134 29.627734 15.735467 25.3696 47.6672 59.793067 76.032 69.998933 16.3328 5.870933 31.342933 5.998933 48.093866 1.220267 42.478933-12.125867 86.929067-56.6016 104.439467-96.6144 0.128-0.298667 3.106133-0.418133 3.703467-2.6368 1.578667-5.9136 0.247467-12.4672 0.5376-18.5344l23.0656 4.0704c2.5856-0.674133 1.8432-3.490133 2.3296-4.061867 12.407467-14.685867 25.5744-22.075733 38.178133-35.8912 43.392-47.581867 64.017067-100.3264 71.876267-163.0464 0.042667-0.366933 3.882667-1.083733 4.3008-6.109867 5.026133-59.690667-9.796267-123.4688-27.460267-180.258133-16.034133-51.549867-34.7904-75.434667-32.0512-133.393067 3.618133-76.5952-1.408-170.624-31.496533-243.259733-28.782933-69.495467-60.834133-66.542933-122.1632-33.143467-41.437867 22.562133-79.709867 52.957867-115.464534 83.464534a85.4272 85.4272 0 0 1-20.5568 0.4352c-19.908267-1.9968-43.562667-10.077867-63.658666-12.509867-50.756267-6.152533-101.410133-3.6864-152.200534 0L362.241041 151.210667c-11.912533-3.063467-17.476267-14.0544-25.949867-20.6592-25.898667-20.181333-56.8064-42.5984-85.384533-58.5216-43.451733-24.209067-87.133867-51.7888-119.3216 2.1248-29.5424 49.4848-43.537067 149.922133-47.138133 206.830933-2.2016 34.798933 4.1728 76.757333-0.1536 109.892267-2.986667 22.877867-23.995733 65.2288-31.7952 90.948266-13.5168 44.544-30.6688 113.578667-27.579734 159.018667 0.5632 8.311467 5.2736 14.8224 4.420267 23.108267z" fill="#4D2D24" p-id="2636"></path><path d="M994.364774 663.9872c-12.893867-37.0688-28.3392-52.189867-63.488-67.720533-1.7664-0.776533-5.0432-7.304533-12.6976-4.232534v-2.2016c-22.0672-4.753067-45.636267-2.184533-67.720533 2.2016l-9.7536 0.605867c-2.1248 0.554667-2.568533 3.515733-2.944 3.626667-33.066667 9.216-61.5168 24.456533-93.115733 33.860266-27.835733 8.285867-42.282667 5.1456-67.720534 8.465067-8.337067-7.381333-20.821333-8.0128-31.1296-13.312-26.871467-13.815467-45.952-38.946133-75.963733-51.0208-49.143467-19.771733-102.954667-13.960533-146.688 15.8464-27.767467 18.926933-35.874133 35.2768-72.1408 44.253867-3.874133 0.955733-12.305067-2.338133-12.6976 4.232533h-4.232533c-29.8752-3.515733-51.447467-6.144-80.418134-16.930133-43.5456-16.2048-69.888-34.0736-120.618666-33.851734-6.9376 0.034133-19.771733-3.106133-23.287467 4.215467-42.0608 4.164267-64.3584 31.470933-76.910933 69.239467-1.186133 3.575467-3.456 2.500267-3.515734 2.7136 0.853333-8.285867-3.857067-14.788267-4.420266-23.108267-3.089067-45.448533 14.062933-114.474667 27.579733-159.018667 7.808-25.719467 28.808533-68.0704 31.7952-90.948266 4.3264-33.134933-2.039467-75.093333 0.1536-109.892267 3.592533-56.900267 17.595733-157.346133 47.138133-206.830933 32.187733-53.9136 75.869867-26.333867 119.3216-2.1248 28.578133 15.9232 59.485867 38.3488 85.384534 58.5216 8.4736 6.6048 14.037333 17.595733 25.949866 20.6592l71.406934-12.023467c50.7904-3.6864 101.4528-6.152533 152.200533 0 20.096 2.440533 43.741867 10.513067 63.658667 12.509867 6.801067 0.682667 13.789867 0.5376 20.5568-0.4352 35.754667-30.5152 74.026667-60.9024 115.464533-83.464534 61.329067-33.390933 93.371733-36.352 122.1632 33.143467 30.088533 72.635733 35.114667 166.673067 31.496533 243.259733-2.7392 57.9584 16.017067 81.8432 32.0512 133.393067 17.664 56.789333 32.4864 120.567467 27.460267 180.258133-0.426667 5.0176-4.258133 5.7344-4.3008 6.109867z m-846.532266-372.48c39.594667-36.5312 78.0288-75.118933 126.882133-99.5584l8.533333-8.3712C259.329041 158.549333 184.559974 72.192 161.426108 137.924267c-10.5216 29.892267-20.078933 91.1104-18.0224 122.026666 0.682667 10.325333 7.04 20.087467 4.4288 31.5648z m732.245333 0V200.507733c0-0.836267-3.037867-2.423467-3.4304-5.034666-3.4048-22.528-11.0336-82.056533-40.968533-81.809067-22.4768 0.1792-65.5616 41.9584-80.4864 59.3152-8.5248 9.915733-10.129067 11.554133 0.6656 20.539733 12.305067 10.248533 30.464 18.440533 43.6224 28.3392 25.6 19.242667 44.501333 43.835733 67.899733 63.3088 4.283733 3.566933 5.4272 8.0896 12.6976 6.3488z m-555.895467 55.722667c-10.3168 2.2528-25.224533 17.245867-27.502933 27.511466-13.0048 58.5472 82.500267 100.7616 115.584 52.096 31.274667-46.0032-42.820267-89.480533-88.072533-79.607466z m334.498134 0.119466c-17.621333 2.9696-51.106133 24.8576-53.819734 43.537067-14.2592 98.1248 142.062933 51.925333 120.925867-14.9504-9.984-31.5904-37.674667-33.553067-67.106133-28.586667z m-359.901867 122.624c-11.895467 2.602667-31.5648 18.9952-38.673067 29.047467-30.190933 42.709333-12.586667 98.2528 35.720534 116.437333 18.722133 7.048533 32.375467 6.7584 51.089066 0 18.901333-6.818133 37.3504-20.266667 45.533867-39.1168 10.615467-24.465067 10.717867-47.650133-3.9424-70.493866-19.848533-30.933333-53.674667-43.776-89.728-35.874134z m373.3504 2.048a77.459627 77.459627 0 0 0-17.109333 8.900267 77.362347 77.362347 0 0 0-25.7536 30.165333c-15.4624 32.2304-6.826667 70.852267 20.8896 93.431467 27.716267 22.570667 67.293867 23.210667 95.726933 1.544533 28.433067-21.666133 38.306133-59.997867 23.8848-92.706133-14.421333-32.708267-49.373867-51.2768-84.548267-44.910933l-9.915733 1.3056-3.182933 2.2784z" fill="#F7C07C" p-id="2637"></path><path d="M384.854374 647.048533c24.388267 10.7008 39.620267 22.459733 57.582934 42.103467l27.076266-16.6912c-32.938667-11.485867-43.281067-51.6352-10.043733-71.432533 23.176533-13.806933 73.5488-12.3136 97.723733-1.4592 15.5136 6.9632 25.642667 18.816 26.129067 36.155733-6.775467 18.244267-17.271467 28.629333-33.373867 38.8352 6.357333 7.330133 21.1968 14.865067 29.841067 8.686933 3.1232-2.235733 4.206933-9.096533 8.260267-12.885333 22.715733-21.239467 42.845867-23.415467 71.927466-27.5456 3.490133 6.8096 13.866667 3.601067 21.376 6.135467 14.762667 4.974933 31.837867 17.8432 44.228267 27.477333 6.212267-5.905067 14.660267-15.1552 23.278933-16.682667 48.273067-8.541867 79.470933 29.550933 84.5568 74.171734 2.141867 18.807467-1.467733 40.277333-0.0512 59.3408 0.5376 7.253333-0.187733 5.7856 4.386134 10.3936 3.592533 3.618133 5.034667 6.340267 12.6976 4.232533 10.88 13.841067 16.938667 26.1888 23.424 42.257067 3.003733 7.4496-1.655467 15.146667 10.4448 12.7744-0.4864 0.571733 0.256 3.387733-2.3296 4.061866l-23.0656-4.0704c-0.290133 6.0672 1.041067 12.612267-0.5376 18.5344-0.5888 2.218667-3.566933 2.338133-3.703467 2.6368 3.012267-18.670933-8.439467-33.8176-12.731733-50.798933l-18.6112 4.036267c-15.010133-4.155733-10.88-48.1536-10.999467-61.166934-0.059733-6.954667 3.1232-19.7632-4.224-23.287466-0.418133-19.874133-2.645333-38.178133-14.933333-54.903467-9.8048-13.354667-35.626667-24.507733-46.6176-8.763733-7.261867 10.402133 11.3408 18.6624 6.314666 35.959466l-10.026666 6.3232c-15.9232-6.792533-20.923733-26.112-34.133334-37.9392-27.8528-24.9344-72.081067-38.536533-101.614933-8.362666-47.0016 48.017067-23.68 140.612267 2.082133 194.670933l-8.004266 0.605867-0.768 7.697066-8.149334-4.087466v12.7232c-4.360533-8.951467-11.409067-18.756267-12.714666-29.627734-41.429333 45.576533-95.5136 43.4944-137.5488 0.017067-7.236267 4.983467-6.3488 13.090133-9.6256 20.164267-1.4336 3.089067-4.770133 4.394667-5.188267 5.213866l3.9424-22.724266-12.407467-11.136c15.7184-40.354133 24.132267-103.0144 8.465067-143.914667 12.834133 10.990933 8.2944-8.789333 12.356267-14.3104-5.794133-2.8416-11.904-18.065067-13.0048-18.909867-1.92-1.467733-7.808-0.477867-12.0064-2.705066-8.900267-4.736-16.725333-26.205867-29.678934-16.989867l21.341867 16.8704 12.5184 19.106133c-1.083733-1.749333-23.099733-20.232533-26.5984-22.084266-9.617067-5.0944-26.274133-9.403733-36.898133-7.552l2.491733-3.771734 22.894933-0.469333c0.827733-6.485333-0.5632-11.690667-4.232533-16.930133h8.465067z m168.704 102.1952c-24.507733-10.820267-54.007467-14.114133-78.609066-1.518933-21.8368 11.178667-11.485867 25.728-13.994667 45.2608-1.544533 11.963733-9.992533 31.232-8.558933 42.4704 1.4592 11.409067 33.288533 36.778667 45.320533 39.466667 26.2912 5.870933 58.1376-11.3664 68.590933-35.976534 2.56-11.741867-6.4768-25.770667-7.808-37.495466-1.988267-17.4848 3.754667-35.7632-4.9408-52.1984z" fill="#4F2F28" p-id="2638"></path><path d="M808.124774 752.8704c7.3472 3.5328 4.155733 16.3328 4.224 23.287467 0.110933 13.013333-4.010667 57.0112 10.999467 61.166933l18.6112-4.036267c4.283733 16.981333 15.735467 32.128 12.731733 50.798934-17.5104 40.0128-61.969067 84.488533-104.439466 96.6144-16.7424 4.778667-31.761067 4.650667-48.093867-1.220267-28.373333-10.197333-60.296533-44.629333-76.032-69.998933 13.073067 2.372267 7.022933-5.9392 9.335467-13.883734 14.532267-49.792 55.8848-89.531733 103.739733-107.9552 19.549867-7.5264 50.090667-17.809067 68.9152-9.378133-0.1024-8.430933 0.187733-16.964267 0.008533-25.3952z" fill="#F6C07C" p-id="2639"></path><path d="M384.854374 913.7152c-0.6144 0.904533 0.264533 5.102933-2.0736 8.337067-13.858133 19.217067-35.191467 43.528533-57.096533 53.128533-26.6496 11.6736-45.226667 9.9584-72.106667-0.0256-32.034133-11.895467-74.965333-50.286933-86.8608-82.432-7.9616-21.504-1.1264-34.722133 6.766934-54.920533l24.9088-0.469334c10.555733-21.768533 7.492267-40.644267 8.6784-63.2832 7.560533 5.435733 14.0544-0.989867 23.1168-0.0768 55.2192 5.597867 125.141333 52.3008 145.262933 104.704 4.3264 11.272533 6.272 23.458133 9.3952 35.054934z" fill="#F6C07D" p-id="2640"></path><path d="M609.187174 879.854933c-25.762133-54.058667-49.083733-146.645333-2.082133-194.670933 29.533867-30.173867 73.770667-16.571733 101.614933 8.362667 13.2096 11.8272 18.210133 31.146667 34.133334 37.9392l10.026666-6.3232c5.026133-17.288533-13.576533-25.5488-6.314666-35.959467 10.990933-15.744 36.8128-4.590933 46.6176 8.763733 12.288 16.733867 14.5152 35.029333 14.933333 54.903467 0.1792 8.430933-0.110933 16.964267-0.008533 25.3952-18.824533-8.4224-49.365333 1.851733-68.9152 9.378133-47.854933 18.423467-89.207467 58.1632-103.739734 107.9552-2.321067 7.944533 3.7376 16.256-9.335466 13.883734-4.718933-7.611733-13.354667-22.1184-16.930134-29.627734z" fill="#F8EFDE" p-id="2641"></path><path d="M418.714641 697.847467c0.853333 1.365333 1.083733 7.432533 3.2768 11.5712 1.5872 2.986667 5.026133 4.9408 5.188267 5.358933 15.6672 40.891733 7.253333 103.560533-8.465067 143.914667-8.209067 21.077333-21.8624 37.461333-33.860267 55.022933-3.1232-11.5968-5.060267-23.7824-9.3952-35.054933-20.1216-52.4032-90.043733-99.106133-145.262933-104.704-9.0624-0.9216-15.556267 5.512533-23.1168 0.0768 2.1248-40.448 1.041067-100.437333 59.374933-86.8864 15.9744 9.992533-27.093333 37.7088 1.979734 44.731733l8.064-0.5888c24.123733-29.201067 36.3264-50.261333 75.562666-59.7504 2.244267-0.546133 2.9184-3.2768 3.157334-3.319467 10.624-1.851733 27.281067 2.4576 36.898133 7.552 3.490133 1.851733 25.506133 20.334933 26.5984 22.084267z" fill="#F7EFDE" p-id="2642"></path><path d="M427.179708 892.552533c0.418133-0.8192 3.754667-2.1248 5.188266-5.213866 3.2768-7.0656 2.389333-15.1808 9.6256-20.164267 42.0352 43.477333 96.119467 45.550933 137.5488-0.017067 1.314133 10.871467 8.354133 20.676267 12.706134 29.627734 1.604267 3.310933 1.774933 8.6272 4.8384 14.173866 10.410667 18.816 26.6496 34.961067 37.486933 53.538134-63.445333 11.7248-127.991467 7.9616-192.776533 8.661333l-56.951467-8.6528c-1.7408-6.656 1.681067-6.971733 4.258133-10.5472 16.068267-22.3488 25.787733-37.026133 38.0672-61.397333z" fill="#F7EFE0" p-id="2643"></path><path d="M109.731174 592.0256c5.845333-0.580267 12.9792-0.221867 19.029334 0 4.864 0.1792 11.6736-2.773333 10.5984 4.224-31.394133 12.253867-55.936 63.505067-59.153067 95.342933-3.362133 33.211733 7.048533 61.969067 37.905067 76.1856 5.000533 2.304 28.100267 10.496 31.8208 10.4704 8.004267-0.042667 22.382933-8.157867 31.7696-8.448-0.392533 12.5184 0.6912 25.216-0.392534 37.7088-20.241067 4.778667-29.243733 23.5776-37.0176 41.4208-1.672533 3.848533 1.211733 7.637333-6.7584 5.290667-18.781867-5.546667-58.5216-56.448-69.4784-74.478933-20.846933-34.3296-26.965333-55.918933-34.5088-94.592l-0.4608-10.0608-3.771733-2.6368c-0.017067-2.645333-0.5376-6.408533 0-8.465067 0.059733-0.213333 2.321067 0.853333 3.515733-2.7136 12.552533-37.768533 34.850133-65.0752 76.910934-69.239467z" fill="#FAE7D2" p-id="2644"></path><path d="M253.637308 621.653333l-4.155734 2.372267c2.158933 11.195733 11.613867 20.650667 4.258134 31.223467 5.248-1.1776 7.074133 3.857067 8.354133 4.5056-10.299733-0.008533-28.9536 0.3328-38.0928 4.232533 5.358933-32.273067-36.189867-44.714667-60.842667-37.563733-4.778667 1.3824-8.977067 8.874667-13.1584 12.3648-8.849067 7.3728-11.477333 6.6304-18.4576 19.524266-21.2224 39.2448-8.0896 69.154133 31.684267 85.768534l18.449067-3.899734c-1.109333 9.096533 0.298667 20.0448 0 29.627734-9.378133 0.298667-23.7568 8.405333-31.7696 8.448-3.712 0.017067-26.820267-8.174933-31.8208-10.4704-30.865067-14.216533-41.2672-42.973867-37.905067-76.1856 3.2256-31.837867 27.767467-83.089067 59.153067-95.342934 1.0752-6.9888-5.7344-4.0448-10.5984-4.224-6.050133-0.221867-13.184-0.580267-19.029334 0 3.515733-7.3216 16.3584-4.189867 23.287467-4.215466 50.7392-0.221867 77.0816 17.646933 120.618667 33.851733z" fill="#FACFB4" p-id="2645"></path><path d="M930.876774 596.258133c35.157333 15.5392 50.602667 30.651733 63.488 67.720534-7.8592 62.72-28.475733 115.464533-71.876266 163.0464-12.603733 13.824-25.770667 21.205333-38.178134 35.8912-12.100267 2.372267-7.441067-5.3248-10.4448-12.7744-6.4768-16.059733-12.535467-28.407467-23.424-42.257067 0.3584-0.1024 1.041067-3.831467 6.109867-4.3008 21.000533-1.928533 41.412267 1.339733 61.585067-10.5472 14.1824-8.354133 17.988267-24.7296 26.094933-37.4016 14.045867-21.947733 27.810133-29.320533 23.825067-59.042133-3.413333-25.472-21.188267-77.883733-42.9824-91.886934l5.794133-8.456533z" fill="#F8ECD8" p-id="2646"></path><path d="M224.009574 663.9872c-17.4848 7.458133-32.5888 35.882667-37.290666 53.700267-1.194667 4.539733-4.8128 20.676267-5.034667 22.485333l-18.449067 3.899733c-39.765333-16.6144-52.906667-46.523733-31.684266-85.768533 6.971733-12.893867 9.608533-12.151467 18.4576-19.524267 4.189867-3.490133 8.388267-10.9824 13.1584-12.3648 24.6528-7.150933 66.2016 5.2992 60.842666 37.563734z" fill="#FABC9D" p-id="2647"></path><path d="M334.063974 638.583467c0.366933 0.042667 1.058133 3.822933 6.109867 4.3008 17.4336 1.655467 27.784533-3.2512 44.689067 4.164266h-8.465067c-34.833067 0.017067-57.1904 2.2528-82.4832 29.218134-9.659733-8.192-21.2736-11.1616-31.7952-16.520534-1.28-0.648533-3.106133-5.6832-8.354133-4.5056 7.355733-10.564267-2.0992-20.0192-4.258134-31.223466l4.155734-2.372267c28.9792 10.786133 50.542933 13.4144 80.418133 16.930133z" fill="#F6DEC9" p-id="2648"></path><path d="M33.537041 685.149867c-0.136533-0.7168-4.155733-1.809067-4.232533-12.6976l3.771733 2.6368 0.4608 10.0608z" fill="#F7C07C" p-id="2649"></path><path d="M629.266108 511.086933c3.234133 2.039467 8.3456 3.310933 9.5488 4.753067 2.4064 2.8928 3.268267 9.3952 6.331733 12.6976 17.058133 18.389333 46.7712 0.8448 39.722667-22.792533-1.681067-5.632-11.4944-11.7504-16.426667-15.300267-4.974933-3.584-10.018133-4.3008-13.422933-9.5232a77.098667 77.098667 0 0 1 17.109333-8.900267 77.2736 77.2736 0 0 1 13.098667-3.584c35.1744-6.365867 70.126933 12.202667 84.548266 44.910934 14.421333 32.708267 4.539733 71.04-23.8848 92.706133-28.433067 21.666133-68.002133 21.034667-95.726933-1.544533-27.716267-22.570667-36.352-61.201067-20.8896-93.431467z" fill="#503129" p-id="2650"></path><path d="M298.778641 469.973333c36.053333-7.901867 69.870933 4.9408 89.728 35.874134 14.660267 22.843733 14.5664 46.0288 3.9424 70.493866-8.183467 18.850133-26.632533 32.298667-45.533867 39.1168-18.7136 6.749867-32.366933 7.04-51.089066 0-48.3072-18.176-65.911467-73.728-35.720534-116.437333 7.108267-10.052267 26.786133-26.4448 38.673067-29.047467z m81.578667 43.255467c0-12.714667-10.308267-23.022933-23.022934-23.022933s-23.022933 10.308267-23.022933 23.022933 10.308267 23.022933 23.022933 23.022933 23.022933-10.308267 23.022934-23.022933z" fill="#503027" p-id="2651"></path><path d="M676.907708 638.583467c-1.314133 0.170667-9.5488 3.182933-16.930134 4.232533-29.0816 4.130133-49.2032 6.2976-71.927466 27.5456-4.053333 3.7888-5.137067 10.6496-8.260267 12.885333-8.644267 6.178133-23.483733-1.3568-29.841067-8.686933 16.1024-10.205867 26.5984-20.590933 33.373867-38.8352-0.4864-17.348267-10.624-29.192533-26.129067-36.155733-24.174933-10.8544-74.538667-12.3392-97.723733 1.4592-33.2288 19.7888-22.894933 59.946667 10.043733 71.432533l-27.076266 16.6912c-17.962667-19.643733-33.194667-31.402667-57.582934-42.103467-16.904533-7.415467-27.246933-2.5088-44.689066-4.164266-5.051733-0.477867-5.7344-4.258133-6.109867-4.3008h4.232533l10.0608-0.469334 2.6368-3.7632c36.266667-8.977067 44.373333-25.326933 72.1408-44.253866 43.7248-29.806933 97.536-35.618133 146.688-15.8464 30.011733 12.074667 49.092267 37.1968 75.963734 51.0208 10.308267 5.2992 22.792533 5.930667 31.1296 13.312z" fill="#F8F0DE" p-id="2652"></path><path d="M147.832508 291.5072c2.6112-11.477333-3.746133-21.230933-4.4288-31.5648-2.056533-30.916267 7.5008-92.125867 18.0224-122.026667 23.133867-65.7408 97.902933 20.625067 121.821866 45.653334l-8.533333 8.3712c-48.853333 24.439467-87.287467 63.0272-126.882133 99.5584z" fill="#FAC5B6" p-id="2653"></path><path d="M880.077841 291.5072c-7.2704 1.7408-8.413867-2.781867-12.6976-6.3488-23.3984-19.473067-42.299733-44.066133-67.899733-63.3088-13.1584-9.890133-31.317333-18.090667-43.6224-28.3392-10.794667-8.9856-9.1904-10.632533-0.6656-20.539733 14.9248-17.3568 58.0096-59.127467 80.4864-59.3152 29.934933-0.238933 37.563733 59.281067 40.968533 81.809066 0.392533 2.6112 3.4304 4.1984 3.4304 5.034667V291.498667z" fill="#FAC4B4" p-id="2654"></path><path d="M658.680508 347.349333c29.431467-4.957867 57.122133-3.003733 67.106133 28.586667 21.137067 66.875733-135.185067 113.066667-120.925867 14.9504 2.7136-18.679467 36.1984-40.567467 53.819734-43.537067z" fill="#F7EEDC" p-id="2655"></path><path d="M324.182374 347.229867c45.2608-9.873067 119.3472 33.6128 88.072534 79.607466-33.083733 48.6656-128.5888 6.4512-115.584-52.096 2.2784-10.2656 17.186133-25.258667 27.502933-27.511466z" fill="#F7EEDD" p-id="2656"></path><path d="M918.179174 592.0256l-42.325333 2.107733c9.915733 8.704 20.2496 10.606933 29.696 21.102934 8.277333 9.198933 20.258133 31.4624 24.3968 43.332266 10.6496 30.574933 12.049067 50.8416-2.397867 80.392534-2.653867 5.4272-18.525867 29.892267-22.050133 32.9728-16.878933 14.7456-43.272533 13.909333-63.505067 19.0208l-4.241066-21.162667c0.042667-4.232533-0.1024-8.4736 0-12.6976 19.063467 6.8096 51.848533 7.799467 62.941866-11.127467 12.398933-21.154133 15.633067-47.342933 13.4144-71.5776-2.670933-29.201067-53.1712-74.350933-82.816-69.768533-6.8096 1.0496-22.690133 12.458667-30.395733 16.162133-14.301867 6.8608-42.248533 8.448-30.8736 34.730667-6.894933-0.657067-14.208 0.4352-21.162667 0 0.341333-8.8832 1.134933-17.800533-4.232533-25.3952 31.598933-9.403733 60.049067-24.644267 93.115733-33.860267l10.069334-0.4608 2.628266-3.771733c22.0928-4.394667 45.653333-6.9632 67.729067-2.2016v2.2016z" fill="#F9D3B9" p-id="2657"></path><path d="M918.179174 592.0256c7.6544-3.072 10.9312 3.456 12.6976 4.232533l-5.794133 8.456534c21.802667 14.011733 39.569067 66.414933 42.9824 91.886933 3.985067 29.713067-9.7792 37.0944-23.825067 59.042133-8.106667 12.663467-11.912533 29.038933-26.094933 37.4016-20.1728 11.886933-40.584533 8.6272-61.585067 10.5472-5.0688 0.4608-5.751467 4.1984-6.109866 4.3008-7.662933 2.107733-9.105067-0.6144-12.6976-4.232533 0.068267-11.255467-0.1024-22.613333 0-33.860267l4.241066 21.162667c20.232533-5.111467 46.626133-4.283733 63.505067-19.0208 3.5328-3.080533 19.396267-27.5456 22.050133-32.9728 14.4384-29.550933 13.038933-49.826133 2.397867-80.392533-4.130133-11.869867-16.119467-34.133333-24.3968-43.332267-9.4464-10.496-19.780267-12.3904-29.696-21.102933l42.325333-2.107734z" fill="#FAE0C9" p-id="2658"></path><path d="M748.869308 655.5136v4.232533c-8.618667 1.527467-17.066667 10.7776-23.278934 16.682667-12.381867-9.634133-29.4656-22.5024-44.228266-27.477333-7.517867-2.5344-17.885867 0.674133-21.376-6.135467 7.389867-1.0496 15.616-4.061867 16.930133-4.232533 25.437867-3.319467 39.8848-0.1792 67.720533-8.465067 5.367467 7.594667 4.573867 16.520533 4.232534 25.3952z" fill="#F5DECB" p-id="2659"></path><path d="M655.019708 480.9216c3.413333 5.213867 8.448 5.9392 13.422933 9.5232-15.428267-3.259733-31.36 9.472-29.627733 25.3952-1.2032-1.442133-6.314667-2.7136-9.5488-4.753067a77.362347 77.362347 0 0 1 25.7536-30.165333zM685.227708 468.437333c-4.462933 0.810667-8.849067 2.005333-13.098667 3.584l3.182933-2.2784 9.915734-1.3056z" fill="#6C4938" p-id="2660"></path><path d="M350.994108 634.350933l-2.6368 3.7632-10.0608 0.469334c0.392533-6.570667 8.823467-3.2768 12.6976-4.232534z" fill="#F6DEC9" p-id="2661"></path><path d="M850.450108 592.0256l-2.628267 3.771733-10.069333 0.4608c0.375467-0.1024 0.8192-3.072 2.944-3.626666l9.7536-0.605867z" fill="#F9C8AD" p-id="2662"></path><path d="M553.558374 749.243733c8.695467 16.4352 2.952533 34.722133 4.9408 52.1984 1.3312 11.7248 10.368 25.7536 7.808 37.495467-10.453333 24.618667-42.299733 41.856-68.590933 35.976533-12.032-2.688-43.869867-28.066133-45.320533-39.466666-1.4336-11.2384 7.0144-30.498133 8.558933-42.4704 2.517333-19.524267-7.8336-34.082133 13.994667-45.2608 24.610133-12.5952 54.101333-9.301333 78.609066 1.518933z" fill="#F48E72" p-id="2663"></path><path d="M770.031974 655.5136c8.123733 0.768 13.533867 2.875733 21.162667 4.2496l0.4864-12.177067c24.567467-13.832533 48.580267-15.812267 73.002667 0.0512 11.204267 7.287467 17.8432 17.860267 19.566933 31.223467 4.736 36.7104-7.0912 61.533867-46.472533 61.3376-0.187733 5.6064 0.119467 11.2896-0.017067 16.896-0.1024 4.224 0.042667 8.465067 0 12.6976-0.1024 11.255467 0.068267 22.6048 0 33.860267-4.573867-4.608-3.848533-3.140267-4.386133-10.3936-1.416533-19.063467 2.193067-40.533333 0.0512-59.3408-5.085867-44.6208-36.2752-82.7136-84.5568-74.171734v-4.232533c6.954667 0.4352 14.267733-0.657067 21.162666 0z" fill="#FABB9C" p-id="2664"></path><path d="M418.714641 697.847467l-12.5184-19.106134L384.854374 661.870933c12.9536-9.216 20.770133 12.245333 29.678934 16.989867 4.189867 2.2272 10.0864 1.237333 12.0064 2.705067 1.1008 0.8448 7.210667 16.068267 13.0048 18.909866-4.0704 5.521067 0.477867 25.2928-12.356267 14.3104-0.162133-0.418133-3.601067-2.372267-5.188267-5.358933-2.193067-4.138667-2.432-10.205867-3.2768-11.5712z" fill="#4D2D24" p-id="2665"></path><path d="M668.442641 490.4448c4.932267 3.549867 14.7456 9.668267 16.426667 15.300267 7.057067 23.637333-22.656 41.173333-39.722667 22.792533-3.063467-3.3024-3.925333-9.8048-6.331733-12.6976-1.732267-15.931733 14.199467-28.654933 29.627733-25.3952z" fill="#EDE5D9" p-id="2666"></path><path d="M357.342908 513.2288m-23.022934 0a23.022933 23.022933 0 1 0 46.045867 0 23.022933 23.022933 0 1 0-46.045867 0Z" fill="#EDE5D7" p-id="2667"></path><path d="M837.752508 757.102933c0.128-5.614933-0.170667-11.298133 0.017066-16.896 39.389867 0.196267 51.208533-24.6272 46.472534-61.3376-1.723733-13.3632-8.362667-23.944533-19.566934-31.223466-24.413867-15.872-48.4352-13.883733-73.002666-0.0512l-0.4864 12.177066c-7.6288-1.373867-13.038933-3.4816-21.162667-4.2496-11.374933-26.282667 16.571733-27.869867 30.8736-34.730666 7.7056-3.703467 23.586133-15.104 30.395733-16.162134 29.6448-4.5824 80.145067 40.567467 82.816 69.768534 2.218667 24.2432-1.015467 50.423467-13.4144 71.5776-11.093333 18.926933-43.8784 17.937067-62.941866 11.127466z" fill="#F9C8AD" p-id="2668"></path></svg>