<?xml version="1.0" standalone="no"?><!DOCTYPE svg PUBLIC "-//W3C//DTD SVG 1.1//EN" "http://www.w3.org/Graphics/SVG/1.1/DTD/svg11.dtd"><svg t="1772951667301" class="icon" viewBox="0 0 1024 1024" version="1.1" xmlns="http://www.w3.org/2000/svg" p-id="4072" xmlns:xlink="http://www.w3.org/1999/xlink" width="200" height="200"><path d="M900.544714 301.067858l3.642018 29.059917c1.304351 1.389049 14.805227-8.8933 27.357485 3.498031 7.9955 7.893863 14.601952 47.735848 3.498032 50.954376-8.952589 2.947494-11.883143-4.861671-12.687775-12.721654-0.762283-7.444963 3.243937-28.390802-5.615484-30.813168l-12.391332 3.752126c-2.413896 15.431993 8.147957 42.501505-14.68665 39.799636 0.669115-7.13158-3.210058-12.704715-3.794475-19.827825-0.846981-10.341638-1.727841-50.344549 0.46584-57.950438 1.727841-6.005095 8.834012-6.445525 14.22081-5.759471z" fill="#55352A" p-id="4073"></path><path d="M929.604631 464.475897c7.817634-4.421241 17.125955-5.564665 25.502597-1.905707 13.763441 13.678743 12.941869 35.18359 7.156989 52.741506l-10.934524-1.770191c-6.936774-4.565227-2.413896-26.790008-3.56579-36.276195-0.499719-4.090918-15.830074-3.260877-17.862829 3.853764-3.760596 13.179024 8.351232 36.852142-14.822167 34.192622-0.575947-5.78488-3.286286-9.926617-3.802944-16.185807-0.87239-10.460215-1.677022-49.963408 0.635235-57.789512 1.092605-3.684367 6.140612-6.428586 8.613797-9.528536 12.323573 8.139487 9.045757 19.522911 9.088106 32.659587z" fill="#5B3A30" p-id="4074"></path><path d="M1024.000661 515.303226c-13.34842-4.776973-42.094955 6.843606-49.107957-7.156989-9.198213-18.371017 10.273879-31.295947 27.332076-29.144616 3.057601-12.442151-14.347858-7.792225-20.04804-3.938461-5.827229-3.54885-6.072854-7.792225-5.386799-14.203871 4.683805 0.474309 8.283474-3.091481 12.721654-3.616609 41.40043-4.870141 27.128801 30.618362 34.480596 58.069016z m-18.150803-25.409429l-18.150802 3.633548 5.454557 10.883705h3.608139l9.088106-14.517253z" fill="#5A392D" p-id="4075"></path><path d="M990.799006 330.652903l7.783756 53.935749c-6.191431 1.905707-11.552821-3.616609-16.321324-3.608139-4.057039 0-8.647676 3.760596-14.508784 3.887643-10.028255 0.228685-20.988189-10.129892-20.149677-20.175087 1.626203-19.616079 19.810885-13.238313 32.828982-21.85211l-27.221968-1.812539c-3.11689 0-2.371547-7.12311-1.81254-9.071166 2.67646-9.33373 31.541572-5.962746 39.410025-1.295881z m-10.367047 28.526319l-18.159272 3.642019v7.250157l12.433681-0.271034 5.717121-5.183524v-5.429148z" fill="#56372C" p-id="4076"></path><path d="M1005.849858 489.893797l-9.088106 14.517253h-3.608139l-5.454557-10.883705 18.150802-3.633548z" fill="#CFC7C0" p-id="4077"></path><path d="M980.431959 359.179222l-0.00847 5.429149-5.717121 5.175053-12.425211 0.279504-0.00847-7.250157 18.159272-3.633549z" fill="#D7D3D0" p-id="4078"></path><path d="M210.653299 889.304615c-4.00622-4.997188-3.472622-11.908553-3.929992-17.845889C120.534523 836.376774 38.902497 772.040099 11.841455 679.634475c-21.80976-74.449628-10.900645-149.636129 11.730686-222.501903C37.064548 413.690918 51.785078 395.717982 50.819519 346.567676c-1.211183-61.617866 1.651613-126.733763 19.107891-188.029777C85.012141 105.559239 109.769395 50.429247 175.410421 69.45244c52.08933 15.093201 100.062333 58.949876 143.021207 89.635997l68.165029-10.663491c59.915434 0.152457 119.483606-2.6934 178.1201 11.214028 18.023755-9.621704 32.380083-26.002316 49.141836-38.131083 26.053135-18.853797 79.184251-53.673184 110.429379-56.578329 55.443375-5.166584 79.201191 52.733036 91.863557 97.241885 16.109578 56.620678 24.46928 140.353218 22.834607 198.981241-0.177866 6.23378-4.302663 10.985343-3.320165 17.227593 4.209495 26.637552 26.569793 67.140182 34.954905 96.056113 84.215318 290.573763-142.106468 432.29909-400.418727 447.476989-16.168867 0.948619-32.574888-0.736873-48.718345 0.296443-3.210058 12.552258-12.780943 33.489628-27.450654 32.591828-3.963871-0.237155-7.56354-3.726716-9.079636-3.769065 5.166584-19.963342 18.159272-36.411712 27.391365-54.452407 1.389049-2.710339 0.990968-5.945806 1.660083-7.275567 2.845856-5.674773 12.137237-16.346733 14.525723-21.78435l5.446088-2.947494 7.817635 6.047444 4.89555 0.525128c-3.362514 8.147957-5.623954 16.770223-7.258627 25.40943 19.658428-0.957089 40.273945 1.372109 59.830736-0.067759 135.618594-10.002845 278.71603-70.7822 343.205161-195.999868 14.136112-27.442184 17.922117-45.228784 21.784351-76.253697 6.69115-53.740943-4.090918-100.994012-19.870174-152.609032-7.199338-23.546071-28.306104-65.00579-30.906336-85.282515-4.243375-33.108486 2.405426-74.297171-0.135517-108.794706-3.286286-44.678246-19.336576-132.129032-45.40665-168.820248-6.843606-9.638644-24.376112-22.216311-36.225376-22.157022-22.639801 0.110108-72.628619 32.185277-92.422564 45.82167-22.588983 15.559041-44.05995 33.769132-64.184219 52.241787l-90.135715-14.432556c-58.899057-0.702994-117.010422-0.499719-174.020711 14.381737-36.51335-29.678213-79.201191-65.251414-121.982201-85.113118-20.988189-9.748751-41.129396-17.515567-61.719503-3.455683-24.232126 16.550008-42.950405 97.623027-47.21919 127.064086-8.080199 55.714409-0.626766 115.138594-7.394144 166.897602-3.049132 23.308916-24.376112 65.234475-31.736377 91.71957-10.951464 39.410025-18.989313 81.759074-18.963904 122.498858l7.190869 38.198842c2.566352 49.285823 32.625707 93.235666 65.361522 127.089496 7.368734 7.614359 13.238313 16.202746 21.936807 23.444433 30.338859 25.240033 67.67378 43.517883 103.374028 59.65287 4.548288-2.363077 6.335418-6.945244 9.028817-10.477154 6.936774 0.635236 15.770786 3.853763 18.159272 10.892175-0.601356 0.711464-3.887643 0.863921-5.463027 3.455682-7.156989 11.773036-8.842481 37.436559-30.847047 32.854392z" fill="#4F2E24" p-id="4079"></path><path d="M864.243109 624.233449c-5.34445-6.318478-7.046882-15.431993-11.468122-23.029413-13.399239-23.020943-24.92665-32.600298-50.259852-38.69856-0.313383-0.076228-0.677585-3.13383-5.234342-3.684368-8.961059-1.084136-21.614955-0.237155-31.075732 0.059289-49.243474 1.541505-64.353615 15.254127-105.296675 32.676526-4.243375 1.804069-18.387957 6.470935-21.784351 7.258627-4.717684 1.092605-15.296476 2.998313-20.048039 3.54885-5.844169 0.677585-13.992126 0.618296-19.887114 0.076229-2.371547-0.220215-4.954839 0.321853-7.258627 0-0.194806-0.025409 0.965558-2.66799-2.20215-3.235468-4.319603-0.770753-9.537006 0.372672-12.323573-0.398081-32.727345-9.088106-51.267758-39.426964-83.461506-52.707626-41.891679-17.278412-90.83871-11.967841-128.453135 13.263722-38.402117 25.756691-30.847047 30.686121-82.199503 43.068983-5.928867-0.43196-12.357452 0.652175-18.159272 0-2.363077-0.262564-5.081886 0.406551-7.258627 0-0.601356-0.110108-7.004533-2.566352-10.892176-3.633549-1.651613-0.4489-8.080199-2.65952-10.892175-3.633548-1.109545-0.381141-2.625641 0.406551-3.633548 0-41.527477-16.91421-67.097833-36.335484-116.188851-36.310074-5.319041 0-10.69737-0.516658-16.01641 0.398081l-2.142862 3.235467c-1.202713 0.076228-2.456245-0.160926-3.633548 0s-2.456245-0.194806-3.633549 0l-8.639206 0.398081-2.252969 3.235467c-35.022663 11.383424-52.749975 39.520132-50.835798 76.253698l-7.190869-38.198842c-0.025409-40.739785 8.00397-83.097304 18.963904-122.498859 7.360265-26.476625 28.695715-68.410653 31.736378-91.71957 6.767378-51.759007-0.686055-111.183193 7.394143-166.897601 4.268784-29.441059 22.987064-110.514078 47.21919-127.064086 20.590108-14.059884 40.731315-6.293069 61.719504 3.455682C231.734656 119.31421 274.422497 154.887411 310.935847 184.565624c57.010289-14.881456 115.121654-15.084731 174.020711-14.381736l90.135716 14.432555c20.124268-18.472655 41.595236-36.682746 64.184218-52.241786 19.802415-13.636394 69.791232-45.720033 92.422564-45.821671 11.849264-0.059289 29.38177 12.518379 36.225376 22.157022 26.070074 36.691216 42.120364 124.150471 45.40665 168.820248 2.540943 34.497535-4.107858 75.68622 0.135517 108.794707 2.600232 20.285194 23.706998 61.736443 30.906336 85.282514 15.770786 51.606551 26.561323 98.868089 19.870174 152.609033zM123.515896 301.076328c13.941307 3.455682 14.415616-9.113515 19.997221-14.491845 8.579917-8.258065 23.325856-21.572605 32.574889-29.144615 20.852672-17.058197 45.161026-30.008536 67.241819-45.330422 1.278941-4.47206-3.201588-6.470935-5.446087-9.062697-13.560165-15.626799-52.919371-53.063358-72.755666-54.596393-5.886518-0.45737-13.907428 3.13383-18.159272 7.250157-7.097701 6.860546-16.965029 45.465939-19.057072 57.188155-0.88086 4.91249-4.395831 26.595203-4.395832 28.280695v59.915434z m635.422068 0v-74.432689c0-0.804632-2.735749-2.125922-3.015252-4.243374-4.133267-30.770819-9.748751-90.237353-54.918247-68.224318-11.002283 5.36139-45.601456 35.19206-52.716096 45.321952-1.931117 2.752688-6.191431 9.672523-5.471497 12.408271 24.071199 17.854359 51.835236 33.252473 74.441158 52.792325 10.67196 9.223623 19.988751 21.945277 30.796229 30.931745 3.675897 3.057601 4.649926 6.936774 10.892175 5.446088z m-473.123573 47.922183c-10.511034 1.854888-22.368768 10.282349-27.272787 19.937932-25.36708 49.946468 72.14584 97.148718 99.139123 51.936874 24.596328-41.197155-33.743722-78.599835-71.874806-71.874806z m327.129462 71.146402c0.787692-0.787692 10.087543-14.491844 10.976874-16.253565 10.307758-20.336013 1.829479-47.574921-20.93737-53.969628-21.521787-6.047444-48.167808 1.058726-65.369992 14.864517-21.945277 17.617204-26.324169 53.461439 0.863921 67.800827 17.557916 9.257502 39.240629 5.073416 57.145806-2.524004 2.795037-1.185773 16.03335-8.622266 17.320761-9.918147z m109.684037 40.688966c-13.865079-2.930554-18.371017 6.064384-27.18809 14.161522-20.081919-16.592357-39.935153-24.418462-65.581737-28.805823-43.907494 4.184086-93.286485 33.083077-92.109181 81.530389l8.842482 5.852638c7.444963-0.067758 21.631894-19.734657 28.91593-25.595765 27.764036-22.351828 62.176873-26.324169 90.906468-3.633548 11.502002 9.079636 18.074574 26.756129 35.920464 21.513317 14.551133-4.268784 4.768503-25.595765 6.013565-30.042415 1.405988-5.022597 12.255815-10.019785 13.822729-15.457403 1.693962-5.861108-0.110108-13.306071 0.4489-19.522912z m-377.626468 72.637089c4.531348-35.336046-23.317386-65.530918-54.410058-78.117056-32.422432-13.128205-71.332738-4.590637-96.217039 19.556791-5.979686-1.651613-26.527444-18.557353-30.914806-14.051414-6.23378 16.312854 7.902333 26.26488 10.375517 35.005723 2.540943 8.944119-3.633548 25.909148 10.002845 29.923838 18.608172 5.479967 25.316261-14.22928 37.809231-23.071761 27.704748-19.624549 59.720629-15.313416 85.299454 5.285161 12.196526 9.824979 20.192026 28.856642 38.054856 25.485657z" fill="#F7C17C" p-id="4080"></path><path d="M123.515896 301.076328v-59.915435c0-1.685492 3.523441-23.368205 4.395832-28.280694 2.100513-11.730687 11.959371-50.32761 19.057072-57.188156 4.251844-4.107858 12.281224-7.699057 18.159272-7.250157 19.836294 1.533036 59.20397 38.969595 72.755666 54.596394 2.2445 2.583292 6.725029 4.590637 5.446087 9.062696-22.080794 15.321886-46.397618 28.272225-67.241819 45.330422-9.257502 7.57201-24.003441 20.886551-32.574889 29.144615-5.590074 5.378329-6.064384 17.947527-19.997221 14.491845z" fill="#FAC3B4" p-id="4081"></path><path d="M758.937964 301.076328c-6.24225 1.490687-7.216278-2.388486-10.892175-5.446088-10.799007-8.986468-20.124268-21.708122-30.796228-30.931745-22.605922-19.539851-50.378428-34.937965-74.441158-52.792325-0.711464-2.735749 3.54038-9.655583 5.471497-12.408271 7.11464-10.129892 41.713813-39.960562 52.716096-45.321952 45.177965-22.021505 50.784979 37.453499 54.918246 68.224318 0.287974 2.117452 3.015252 3.438743 3.015252 4.243374v74.432689z" fill="#FAC4B6" p-id="4082"></path><path d="M722.62789 460.833879c-0.559007 6.21684 1.245062 13.661803-0.4489 19.522912-1.566915 5.437618-12.416741 10.434806-13.82273 15.457403-1.245062 4.44665 8.537568 25.773631-6.013565 30.042415-17.845889 5.242812-24.418462-12.433681-35.920463-21.513317-28.738065-22.69062-63.142432-18.71828-90.906468 3.633548-7.275567 5.861108-21.462498 25.528007-28.91593 25.595765l-8.842482-5.852638c-1.185773-48.447312 48.193218-77.346303 92.109181-81.530389 25.655054 4.387361 45.499818 12.213466 65.581737 28.805823 8.808602-8.097138 13.314541-17.092076 27.18809-14.161522z" fill="#523228" p-id="4083"></path><path d="M345.001422 533.470968c-17.862829 3.362514-25.858329-15.669148-38.054856-25.485658-25.578825-20.598577-57.594706-24.909711-85.299454-5.285161-12.4845 8.850951-19.201059 28.551729-37.809231 23.071762-13.636394-4.01469-7.470372-20.979719-10.002845-29.923838-2.481654-8.732374-16.609297-18.69287-10.375517-35.005724 4.387361-4.505939 24.93512 12.399801 30.914806 14.051414 24.884301-24.147428 63.786137-32.676526 96.217039-19.55679 31.092672 12.586137 58.949876 42.781009 54.410058 78.117055z" fill="#4F2F26" p-id="4084"></path><path d="M612.943853 420.144913c-1.287411 1.295881-14.525724 8.732374-17.320761 9.918147-17.905178 7.597419-39.596361 11.781505-57.145806 2.524004-27.188089-14.339388-22.809198-50.183623-0.863921-67.800827 17.202184-13.81426 43.856675-20.91196 65.369992-14.864517 22.766849 6.403176 31.236658 33.642084 20.93737 53.969628-0.8978 1.76172-10.197651 15.465873-10.976874 16.253565zM285.814391 348.998511c38.131084-6.725029 96.471133 30.669181 71.874806 71.874806-26.993284 45.211844-124.514673-1.998875-99.139124-51.936874 4.90402-9.655583 16.761754-18.083044 27.272788-19.937932z" fill="#F6EDDA" p-id="4085"></path><path d="M413.996492 889.304615c-0.669115 1.32976-0.271034 4.556758-1.660083 7.275567-9.232093 18.040695-22.224781 34.489065-27.391365 54.452407-2.642581-0.076228-14.042945 6.445525-20.0311 7.199338-47.735848 6.013565-112.673879-10.942994-139.209793-53.114177-2.117452-3.370984-3.929992-11.188619-4.641456-11.705277-2.269909-1.660083-6.047444 1.32976-10.409396-4.107858 21.996096 4.590637 23.690058-21.081356 30.847047-32.854392 1.575385-2.591762 4.870141-2.744218 5.463028-3.455682 15.271067-18.150802 27.60311-36.758974 43.568701-54.469347-1.007907 7.961621 5.107295 9.867328 9.706402 13.898958 27.687808 24.266005 59.458065 45.931778 90.703193 65.429281 6.564103 4.090918 15.609859 9.613234 23.046352 11.451182z" fill="#F7C37F" p-id="4086"></path><path d="M577.387592 598.81555l2.371547 3.159239 12.154177 0.46584c2.303788 0.321853 4.89555-0.220215 7.258627 0l21.78435 3.633548c0.990968 11.442713-8.224185 20.598577-10.180711 31.558511-3.625079 20.268255 9.867328 64.895682 21.572606 82.318081 9.697932 14.432556 49.777072 40.019851 66.733631 42.196592 23.563011 3.015252 71.646121-2.066634 93.591397-11.586699 18.438776-7.9955 35.522382-35.310637 45.398181-52.665277l4.370422 2.591761c-64.489132 125.217667-207.586567 185.997022-343.205162 195.999868-19.556791 1.439868-40.172308-0.88933-59.830736 0.067759 1.634673-8.647676 3.896112-17.269942 7.258627-25.40943 0.254094-0.609826 3.963871-2.778098 5.539256-7.055351 3.481092-9.452308 6.530223-30.787758 10.6889-36.614988 3.066071-4.294194 18.938495-9.3422 25.595765-14.347858 22.614392-17.007378 39.18981-53.181935 47.227659-79.853366 3.913052-12.967279 9.960496-55.468784 14.25469-61.999007 2.21062-3.362514 17.049727-9.867328 22.013035-14.297039 11.315666-10.087543 19.861704-28.06895 6.996063-39.791167l-12.416741-0.135517c-2.286849 5.632423-2.430835 14.525724-4.336542 19.277287-7.766816 19.336576-59.076923 22.377237-77.363243 20.50541-12.213466-1.253532-29.754442-9.265972-40.697436-10.087544s-34.26038 8.825542-46.609363 10.087544c-21.623424 2.21909-62.083706 0.4489-73.89909-20.344483-4.404301-7.749876-3.879173-23.16493-16.787163-19.505972-10.206121 2.896675-5.149644 24.867361 0.084698 32.574888 8.156427 12.00172 25.468718 16.744814 29.051448 21.775881 2.329198 3.269347 14.737469 56.10402 12.594607 58.179123-28.839702 6.538693-56.959471 30.694591-76.312986 52.597519-16.160397 18.286319-28.865112 40.790604-43.500943 59.983193-2.6934 3.531911-4.480529 8.114078-9.028817 10.477154-35.708718-16.134988-73.03517-34.412837-103.374028-59.65287-8.698495-7.241687-14.576543-15.830074-21.936808-23.444433 13.907428-21.35239 43.297667-4.920959 63.379587-3.472622 32.871332 2.363077 69.44397-15.660678 92.854524-38.181903 9.587825-9.223623 28.966749-53.080298 28.966749-65.454689 0-5.242812-5.429148-13.009628-6.589511-18.845327-2.371547-12.01019-1.482217-25.892208-7.953152-37.436559 4.158677-0.296443 8.834012 0.779222 12.814822 0.059288 4.776973-0.863921 5.022597-3.608139 5.34445-3.684367 51.343987-12.382862 43.797386-17.312291 82.199504-43.068982 37.614425-25.231563 86.561456-30.542134 128.453135-13.263722 32.193747 13.280662 50.725691 43.61952 83.461505 52.707626z m-153.625409-39.240629c-17.236063 2.939024-32.04976 12.730124-41.993317 26.984814-6.547163 22.140083 19.12483 45.694624 38.317419 51.555732 3.320165 1.016377 21.945277 4.590637 24.579388 4.404301 15.347295-1.092605 41.476658-12.848701 50.920496-25.638114 33.032258-44.788354-36.301605-63.362647-71.823986-57.298263z" fill="#F9EFDD" p-id="4087"></path><path d="M228.812571 842.093896c14.635831-19.192589 27.349016-41.696873 43.500943-59.983193 19.353515-21.902928 47.464814-46.050356 76.312986-52.597519 2.142862-2.075103-10.265409-54.909777-12.594607-58.179123-3.58273-5.039537-20.90349-9.78263-29.051447-21.775881-5.242812-7.707527-10.299289-29.678213-0.084699-32.574888 12.90799-3.658958 12.382862 11.756096 16.787163 19.505972 11.815385 20.793383 52.275666 22.563573 73.899091 20.344483 12.348983-1.270471 36.039041-10.892175 46.609363-10.087544s28.48397 8.834012 40.697436 10.087544c18.294789 1.871828 69.596427-1.168834 77.363242-20.50541 1.905707-4.751563 2.049694-13.644864 4.336543-19.277287l12.416741 0.135517c12.865641 11.722217 4.319603 29.703623-6.996063 39.791167-4.963309 4.429711-19.802415 10.926055-22.013036 14.297039-4.285724 6.530223-10.341638 49.031729-14.25469 61.999007-8.037849 26.671431-24.621737 62.845988-47.227659 79.853366-6.648801 5.005658-22.521224 10.053664-25.595765 14.347858-4.167146 5.827229-7.207808 27.16268-10.6889 36.614988-1.575385 4.277254-5.293631 6.445525-5.539255 7.055351l-4.89555-0.525128-7.817635-6.047444-5.446088 2.947494c16.693995-38.071795 20.869611-92.837585-22.826137-113.342995-47.337767-22.216311-85.553548 11.527411-115.155533 44.347924-15.965591 17.710372-28.297634 36.318544-43.568702 54.469347-2.388486-7.038412-11.214028-10.25694-18.159272-10.892175z m286.847047-108.930224c2.795037-8.435931 14.669711-54.401588 10.900646-58.102894-16.93962-1.270471-35.945873 1.812539-52.57211-0.084699-9.232093-1.050256-26.231001-9.621704-32.769694-9.630173-6.513284 0-26.629082 8.664615-36.394772 9.630173-14.559603 1.448337-30.567543-0.863921-45.313482 0.076229l8.944119 47.346236 4.082448 3.176179c14.457965-1.041787 24.968999 1.76172 37.809231 7.58048 28.365393 12.857171 53.808701 39.791166 50.844268 72.620149 28.560199-14.026005 44.703656-43.19603 54.460877-72.620149z" fill="#553128" p-id="4088"></path><path d="M802.515135 562.505476c25.333201 6.098263 36.860612 15.686088 50.259852 38.69856 4.421241 7.58895 6.123672 16.710935 11.468122 23.029413-3.862233 31.024913-7.656708 48.811514-21.784351 76.253697l-4.370422-2.591761c-9.875798 17.36311-26.959404 44.669777-45.39818 52.665277-21.945277 9.520066-70.028387 14.610422-93.591398 11.586699-16.965029-2.176741-57.035699-27.764036-66.733631-42.196592-11.705277-17.422399-25.197684-62.049826-21.572605-82.318081 1.956526-10.959934 11.171679-20.115798 10.180711-31.558511l-21.784351-3.633548c5.903457 0.542068 14.042945 0.601356 19.887114-0.076229 4.760033-0.550538 15.338825-2.456245 20.048039-3.54885 9.901208 42.501505-9.325261 91.609462 32.769694 121.55024 18.862266 13.416179 62.185343 20.776443 84.647279 15.838544 10.434806-2.295318 22.072324-14.906865 34.565294-14.466435 6.326948-14.974624 23.046352-26.324169 28.797353-42.001787 1.024847-2.786567 4.378892-15.355765 4.370422-17.380049-0.00847-3.642018-3.12536-7.165459-3.531911-10.976874-3.447213-32.210687-13.746501-52.656807-27.425244-81.488039-5.090356-10.731249 2.625641-7.173929 9.206683-7.394144z" fill="#F9E3CC" p-id="4089"></path><path d="M428.522216 867.511795c-2.380017 5.437618-11.679868 16.109578-14.525724 21.784351-7.436493-1.837949-16.48225-7.351795-23.046352-11.451183-31.245128-19.497502-63.015385-41.171745-90.703193-65.429281-4.599107-4.031629-10.714309-5.937337-9.706402-13.898957 29.601985-32.828983 67.817767-66.572705 115.155533-44.347924 43.695749 20.505409 39.520132 75.271199 22.826138 113.342994z" fill="#F7EFDD" p-id="4090"></path><path d="M94.464449 562.505476c-14.330918 35.869644-45.84708 60.745476-39.935153 103.484135 1.160364 8.410521 22.512754 43.162151 28.975219 50.903557 12.196526 14.585012 20.547758 18.6844 38.952655 22.766849 27.933433 6.191431 62.727411 5.691712 88.16225-8.342763 2.396956-1.32129 16.236625-12.154177 18.328668-14.347858 2.744218-2.879735 9.672523-13.653333 11.527411-17.524036 7.004533-14.585012 13.390769-36.733565 13.610985-51.682779 0.160926-11.239438-1.651613-18.472655-2.464715-28.441622-0.474309-5.751001-4.743093-20.05651 6.23378-16.871861 2.176741 0.406551 4.90402-0.262564 7.258627 0v3.633549c6.470935 11.544351 5.581605 25.426369 7.953151 37.436559 1.151894 5.835699 6.581042 13.602514 6.589512 18.845327 0 12.382862-19.378925 56.239537-28.966749 65.454689-23.410554 22.521224-59.974723 40.544979-92.854524 38.181903-20.081919-1.448337-49.480629-17.879768-63.379587 3.472622-32.735815-33.84536-62.7867-77.795203-65.361522-127.089496-1.914177-36.733565 15.813135-64.861803 50.835798-76.253697 2.490124-0.813102 10.282349-3.531911 10.892176-3.633548 1.177304-0.194806 2.439305 0.160926 3.633548 0z" fill="#F9E6D0" p-id="4091"></path><path d="M232.44612 595.190471c-15.431993-2.015815-2.947494 16.355203-3.498032 23.427494-0.296443 3.760596-3.523441 7.419553-3.701307 11.1378-0.575947 12.103358 2.269909 33.142366-0.575947 42.984285-0.364202 1.270471-12.382862 20.818792-13.865078 22.444995-8.376642 9.189744-30.372738 20.674806-42.594674 22.758379-9.680993 1.651613-25.223093 1.626203-34.912555 0-29.932308-5.048007-63.277949-50.192093-56.400464-80.420843 2.007345-8.825542 17.549446-41.815451 23.122581-49.489099 9.189744-12.670835 23.325856-13.78038 34.387428-23.706997l-18.150803-5.446088c49.091017-0.025409 74.669843 19.395864 116.188851 36.310074z m-105.305145 0c-10.104483 8.131017-31.965062 30.525194-21.784351 43.568702 2.134392 2.735749 3.447213 3.718246 7.055352 3.938461-11.205558 22.876956 19.997221 49.031729 41.82392 46.922746 31.14349-3.015252 59.263259-33.557386 45.516758-65.378461 1.871828-2.464715 11.154739-18.515004 10.807477-19.700778l-9.469247-9.088105-6.23378 0.101637c-1.897237 0.626766-2.159801 3.218528-2.363077 3.269347-5.268222 1.33823-12.45062 1.473747-18.159272 3.633548-1.058726-2.473184-2.269909-4.946369-3.633548-7.258627-2.507064-4.260314-4.700744-8.308883-9.537006-10.434805-17.295352-3.650488-22.173962 0.8978-34.031696 10.434805z" fill="#F8C9AC" p-id="4092"></path><path d="M802.515135 562.505476c-6.581042 0.211745-14.297039-3.337105-9.206683 7.394144 13.678743 28.831232 23.969562 49.277353 27.425244 81.488039 0.406551 3.811414 3.523441 7.334855 3.531911 10.976874 0 2.024285-3.354045 14.593482-4.370422 17.380049-5.751001 15.677618-22.470405 27.027163-28.797353 42.001787-12.492969-0.4489-24.122018 12.171117-34.565294 14.466435-22.461935 4.937899-65.776543-2.422366-84.647279-15.838544-42.103424-29.932308-22.868486-79.040265-32.769693-121.55024 3.396394-0.787692 17.540976-5.454557 21.78435-7.258627 11.027692-1.973466 7.029942 5.564665 7.258627 12.687775 0.381141 11.654458 0.643706 24.697965-0.067758 36.259255-0.338792 5.539256-4.412771 9.723342-3.608139 18.116924 1.389049 14.457965 10.69737 30.872457 21.996096 39.892804 29.805261 23.800165 76.431563 22.572043 101.578428-7.038412 9.833449-11.57823 21.047477-27.899553 17.515567-43.077453-2.972903-12.780943-10.815947-29.81373-13.771911-43.797386l-7.631299-4.167146c0.474309-8.037849 1.067196-17.744251-3.294756-24.774194-2.828916-4.565227-16.499189-5.708652-14.66971-16.770223 9.460778-0.296443 22.114673-1.134955 31.075732-0.059289 4.565227 0.550538 4.920959 3.608139 5.234342 3.684367z" fill="#F9D6BC" p-id="4093"></path><path d="M766.205061 558.880397c-1.821009 11.070041 11.840794 12.204996 14.66971 16.770223 4.361952 7.029942 3.760596 16.736344 3.294756 24.774194l7.631299 4.167146c2.955964 13.992126 10.790538 31.016443 13.771911 43.797387 3.531911 15.169429-7.682117 31.499222-17.515567 43.077452-25.146865 29.618925-71.764698 30.847047-101.578428 7.038412-11.298726-9.020347-20.607047-25.434839-21.996096-39.892804-0.804632-8.393581 3.269347-12.577667 3.608139-18.116923 0.711464-11.56129 0.45737-24.604797 0.067758-36.259256-0.237155-7.12311 3.769065-14.669711-7.258627-12.687775 40.95153-17.422399 56.053201-31.135021 105.296675-32.676526z m-83.512324 68.986601c7.207808 9.130455-0.372672 23.181869 10.815947 38.198842 40.595798 54.477816 109.048801 1.236592 79.955004-52.724566 4.937899-7.817634 8.613797-15.948652 7.267097-25.40943-4.760033-0.398081-9.80804 0.542068-14.525724 0-8.859421-1.033317-16.812572-4.522878-25.417899-3.633548-5.818759 0.601356-15.093201 5.945806-18.159272 10.892175h-10.892176c-8.02938-29.449529-30.415087 9.545476-35.911993 20.50541l-0.118577 6.343887c1.151894 4.234905 6.089793 4.692275 6.987593 5.82723z" fill="#F8C9AC" p-id="4094"></path><path d="M116.2488 558.880397l18.150802 5.446088c-11.061572 9.926617-25.197684 11.027692-34.387428 23.706997-5.573135 7.682117-21.115236 40.663557-23.12258 49.489099-6.877486 30.237221 26.468156 75.372837 56.400463 80.420843 9.689462 1.634673 25.240033 1.660083 34.912556 0 12.221935-2.083573 34.226501-13.577105 42.594673-22.758379 1.482217-1.626203 13.500877-21.182994 13.865079-22.444995 2.845856-9.841919 0-30.880926 0.575947-42.984285 0.177866-3.718246 3.413333-7.377204 3.701306-11.1378 0.550538-7.072291-11.942432-25.443309 3.498032-23.427494 1.007907 0.406551 2.524003-0.381141 3.633548 0-0.321853 2.68493 1.304351 3.176179 3.633549 3.633549 5.496907 14.457965-1.278941 27.552291 2.905144 41.112456-5.158114 11.434243-4.421241 48.184748-10.849826 56.417403-0.745343 0.957089-4.319603 0.050819-5.615484 1.253532-2.540943 2.371547-4.45512 8.935649-9.985905 13.839669-21.657304 19.217998-54.32536 27.653929-82.995666 21.149115-3.531911-0.796162-6.403176-4.124797-9.486187-5.039537-9.850389-2.930554-17.761191-2.092043-25.714343-10.595732-13.466998-14.390207-30.25416-38.622333-32.456311-58.31464-2.981373-26.578263 14.932275-63.633681 32.541009-83.478445 3.963871-4.47206 7.919272-9.113515 14.568073-9.037287 0.974028-6.140612-10.66349-3.879173-14.517254-3.625078l2.142862-3.235468c5.310571-0.90627 10.6889-0.389611 16.01641-0.398081z" fill="#F9DAC1" p-id="4095"></path><path d="M98.097997 562.505476c3.853763-0.254094 15.491282-2.524003 14.517254 3.625078-6.648801-0.076228-10.604202 4.565227-14.568073 9.037287-17.608734 19.844764-35.513912 56.908652-32.541009 83.478445 2.21062 19.692308 18.989313 43.924433 32.456311 58.31464 7.953151 8.503689 15.863954 7.656708 25.714343 10.595732 3.074541 0.914739 5.954276 4.243375 9.486187 5.039537 28.678776 6.504814 61.338362-1.931117 82.995666-21.149115 5.530786-4.90402 7.444963-11.468122 9.985905-13.839669 1.287411-1.202713 4.861671-0.296443 5.615484-1.253532 6.428586-8.232655 5.691712-44.991629 10.849826-56.417403-4.192556-13.560165 2.591762-26.646022-2.905144-41.112456 2.159801 0.42349 4.91249-0.287974 7.258627 0 3.887643 1.067196 10.290819 3.523441 10.892175 3.633548-10.976873-3.184648-6.708089 11.12086-6.23378 16.871861 0.813102 9.968966 2.625641 17.202184 2.464715 28.441621-0.211745 14.949214-6.606452 37.106237-13.610985 51.68278-1.854888 3.862233-8.783193 14.644301-11.527411 17.524036-2.092043 2.193681-15.931712 13.026567-18.328668 14.347858-25.434839 14.034475-60.228817 14.534194-88.16225 8.342762-18.404897-4.082448-26.764599-8.181836-38.952655-22.766848-6.470935-7.741406-27.814855-42.493036-28.975219-50.903557-5.911927-42.73866 25.604235-67.614491 39.935153-103.484136 1.177304-0.160926 2.430835 0.076228 3.633548 0zM283.281918 602.449098c-0.313383 0.076228-0.567477 2.820447-5.34445 3.684368-3.980811 0.719934-8.656146-0.355732-12.814822-0.059289v-3.633548c5.79335 0.652175 12.230405-0.43196 18.159272 0z" fill="#F9DBC2" p-id="4096"></path><path d="M591.913316 602.449098l-12.154177-0.465839-2.371547-3.159239c2.786567 0.770753 8.00397-0.372672 12.323573 0.398081 3.159239 0.567477 2.007345 3.210058 2.202151 3.235467z" fill="#F9E3CC" p-id="4097"></path><path d="M90.830901 562.505476c-0.609826 0.101638-8.402051 2.820447-10.892176 3.633548l2.25297-3.235467 8.639206-0.398081z" fill="#F9DAC1" p-id="4098"></path><path d="M246.963374 598.81555c-2.346137-0.287974-5.098825 0.42349-7.258627 0-2.320728-0.45737-3.955401-0.948619-3.633549-3.633548 2.820447 0.974028 9.240562 3.176179 10.892176 3.633548z" fill="#F8C9AC" p-id="4099"></path><path d="M423.762183 559.574921c35.522382-6.064384 104.864715 12.518379 71.823986 57.298263-9.435368 12.789413-35.573201 24.545509-50.920496 25.638115-2.634111 0.186336-21.267692-3.387924-24.579388-4.404301-19.192589-5.861108-44.864582-29.415649-38.317419-51.555732 9.935087-14.25469 24.757254-24.03732 41.993317-26.984814z" fill="#513129" p-id="4100"></path><path d="M410.362944 733.163672c-12.840232-5.818759-23.351266-8.622266-37.809231-7.580479l-4.082449-3.176179-8.944119-47.346236c14.745939-0.940149 30.753879 1.372109 45.313483-0.076229 9.757221-0.974028 29.881489-9.638644 36.394772-9.630173 6.538693 0 23.537601 8.579917 32.769694 9.630173 16.626237 1.897237 35.63249-1.185773 52.572109 0.084698 3.777535 3.701307-8.105608 49.666964-10.900645 58.102895-7.741406-4.082448-15.821605-7.885393-24.367643-10.129892-20.03957-5.259752-39.833515-3.040662-60.186468 0-6.199901 0.931679-18.819917 2.803507-20.742564 10.121422z" fill="#C02821" p-id="4101"></path><path d="M515.659618 733.163672c-9.757221 29.424119-25.900678 58.594144-54.460876 72.620149 2.964433-32.828983-22.478875-59.762978-50.844268-72.620149 1.922647-7.317916 14.542663-9.189744 20.742564-10.121422 20.352953-3.049132 40.146898-5.268222 60.186468 0 8.537568 2.2445 16.626237 6.038974 24.367643 10.129892z" fill="#FB7A60" p-id="4102"></path><path d="M170.718146 595.190471c-13.594045-1.964996-35.302167 28.373863-32.617237 38.012507l9.088106 5.666302c9.409959-0.076228 27.933433-26.70531 27.16268-36.420182 5.708652-2.159801 12.89105-2.286849 18.159272-3.633548l-18.091514 34.378958L186.929362 638.623656c2.964433-5.141175 10.062134-10.731249 12.840232-14.390207 13.746501 31.821075-14.381737 62.371679-45.516758 65.378462-21.83517 2.108983-53.037949-24.04579-41.823921-46.922746-3.608139-0.220215-4.920959-1.202713-7.055351-3.938462 11.070041 4.497469 32.227626-25.299322 32.828983-30.787758 0.88086-8.02938-2.388486-13.306071-11.044632-12.780943 11.857734-9.545476 16.744814-14.093763 34.031695-10.434806 4.836261 2.125922 7.029942 6.174491 9.537006 10.434806z" fill="#F7B99A" p-id="4103"></path><path d="M170.718146 595.190471c1.363639 2.312258 2.574822 4.793912 3.633549 7.258627 0.770753 9.714872-17.752721 36.343954-27.16268 36.420182l-9.088106-5.666302c-2.68493-9.638644 19.023193-39.977502 32.617237-38.012507z" fill="#F27664" p-id="4104"></path><path d="M105.356624 638.759173c-10.180711-13.043507 11.688337-35.446154 21.784351-43.568702 8.656146-0.516658 11.925492 4.751563 11.044632 12.780943-0.601356 5.488437-21.758941 35.285227-32.828983 30.787759z" fill="#F17F6C" p-id="4105"></path><path d="M199.761124 624.233449c-2.778098 3.658958-9.875798 9.249032-12.840232 14.390207l-12.509909-5.429148L192.502497 598.81555c0.194806-0.050819 0.45737-2.642581 2.363077-3.269347l6.23378-0.101637 9.469247 9.088106c0.355732 1.185773-8.935649 17.236063-10.807477 19.700777z" fill="#F17965" p-id="4106"></path><path d="M766.205061 587.923375c-5.683242 9.884268-21.589545 21.911398-18.032225 34.370488 4.387361 15.381175 20.725624-1.719371 25.299322-8.952589 29.085327 53.961158-39.359206 107.202382-79.955004 52.724566-11.188619-15.016973-3.608139-29.076857-10.815947-38.198842 14.69512-1.973466 22.013036-20.810323 29.051447-32.676527h10.892175c-0.559007 0.8978 0.381141 3.218528-0.686054 4.861671-5.903457 9.138925-12.526849 15.508222-10.206121 27.814856 14.280099 4.743093 30.855517-17.413929 34.73469-28.94981 2.837386-8.4444-3.12536-8.402051-5.691712-14.618892 8.605327-0.88933 16.558478 2.600232 25.417899 3.633548z" fill="#F7BA9A" p-id="4107"></path><path d="M711.735714 595.190471c-7.029942 11.866203-14.356328 30.70306-29.051447 32.676527-0.8978-1.134955-5.835699-1.592324-6.987593-5.82723l0.118577-6.343887c5.496907-10.959934 27.891084-49.954938 35.911994-20.50541z" fill="#F28772" p-id="4108"></path><path d="M740.787162 584.298296c2.557883 6.21684 8.529098 6.174491 5.691712 14.618892-3.879173 11.527411-20.454591 33.684433-34.73469 28.94981-2.329198-12.306634 4.302663-18.675931 10.206121-27.814856 1.058726-1.643143 0.127047-3.963871 0.686055-4.861671 3.057601-4.946369 12.332043-10.290819 18.159272-10.892175z" fill="#F17A64" p-id="4109"></path><path d="M766.205061 587.923375c4.717684 0.550538 9.77416-0.389611 14.525724 0 1.3467 9.469247-2.329198 17.600265-7.267097 25.409429-4.573697 7.241687-20.90349 24.333763-25.299322 8.952589-3.55732-12.45909 12.348983-24.49469 18.032225-34.370488z" fill="#F07D68" p-id="4110"></path></svg>