<?xml version="1.0" standalone="no"?><!DOCTYPE svg PUBLIC "-//W3C//DTD SVG 1.1//EN" "http://www.w3.org/Graphics/SVG/1.1/DTD/svg11.dtd"><svg t="1772951676018" class="icon" viewBox="0 0 1024 1024" version="1.1" xmlns="http://www.w3.org/2000/svg" p-id="4797" xmlns:xlink="http://www.w3.org/1999/xlink" width="200" height="200"><path d="M674.637287 617.415252l-19.531381 56.493631c-4.497469 72.391464 44.491911 101.773234 111.801489 95.73426 30.635302-2.752688 68.359835-27.526882 72.55239-60.059421 4.632986-35.971282-11.840794-94.573896-46.126584-112.284268-8.224185-4.251844-21.80129-1.973466-18.481125-15.482812 52.733036-2.862796 103.568834 22.148553 103.450257 80.903623-0.118577 61.118147-53.351332 133.966981-100.358776 169.751927-163.38263 124.379156-429.427825 129.359404-606.650124 31.507692C100.18938 824.722316 48.108519 769.219653 31.295947 688.604003l-0.355732-7.690587-2.879735-2.015815c-0.186336-2.125922 0.101638-4.328073 0-6.470934-0.330323-7.004533-0.643706-15.821605 0-22.648272 2.337667-24.714905 19.429744-46.482316 41.078577-57.713283 2.540943-1.312821 6.072854 0.01694 7.419553-0.533598 7.876923 3.464152 1.549975 9.249032-1.600794 12.967278-9.77416 11.544351-23.867924 18.591232-26.866236 34.590703-6.631861 35.336046-5.725591 67.580612 7.334855 101.425972 6.055914 15.694557 17.634144 34.090984 33.100017 41.298793 72.967411 33.989347 177.095252 9.748751 191.637915-78.693003 1.084136-6.589512 3.650488-29.703623 2.70187-34.929495-2.380017-13.119735-13.246782-24.664086-15.567511-37.817701 14.034475 2.337667 41.510538 0.118577 55.070703-4.734623 26.070074-9.325261 44.288635-35.810356 68.698627-47.727378 45.40665-22.173962 104.678379-15.423524 144.418726 15.398114 5.412208 4.192556 9.537006 10.553383 14.627362 14.483374 39.681059 30.618362 72.56086 27.713218 117.145939 10.214591 2.66799-1.050256 6.098263-0.042349 7.377204-0.567477z m-233.682051-28.416211c-32.278445 3.667428-71.044764 25.341671-45.87249 60.694656 16.812572 23.60536 49.573797 34.133333 76.821175 25.282382 33.184715-10.773598 62.702002-46.880397 26.612142-73.805922-12.713184-9.477717-42.052605-13.932837-57.560827-12.171116z m107.786799 109.51464c16.566948-5.691712 41.535947-20.835732 38.698561-40.748255-3.387924-23.757816-26.400397 5.369859-32.498661 9.731811-15.940182 11.400364-28.755004 12.238875-46.73641 14.70359-39.926683 5.471497-127.182663 8.876361-161.248238-13.450058-7.072291-4.632986-10.722779-10.358577-14.830637-17.507097l-16.177337-1.29588c-9.985906 21.792821 5.463027 30.457436 21.352391 41.425839 3.226998 2.22756 8.02938 2.930554 10.849826 5.319041 9.918147 8.393581 5.835699 38.258131 9.78263 51.691249 12.399801 55.070703 29.983127 147.391629 104.898594 137.592059 20.01416-2.617171 43.331547-27.094921 52.885492-44.144648 17.083606-30.474376 21.403209-66.386369 29.542697-99.867527l3.481092-43.433185z" fill="#F7EEDB" p-id="4798"></path><path d="M28.06895 672.435136h-1.685493c-3.379454-6.792787-0.770753-15.228718-1.549975-22.648271h3.235468c-0.643706 6.826667-0.330323 15.643739 0 22.648271zM31.304417 688.612473c-0.118577-0.550538-2.591762-2.346137-3.235467-9.706402l2.879735 2.015815 0.355732 7.690587z" fill="#F8E6CF" p-id="4799"></path><path d="M774.860546 581.825112c-3.328635 13.509347 10.24847 11.230968 18.481125 15.482812 34.27732 17.718842 50.75957 76.312986 46.126584 112.284268-4.184086 32.532539-41.917089 57.306733-72.552391 60.059421-67.309578 6.038974-116.298958-23.342796-111.801488-95.73426l19.531381-56.493631c35.098892-14.593482 58.475567-33.328701 100.214789-35.59861z m-53.00407 68.292076c-9.943557 2.972903-35.742597 47.083672-19.717717 51.437154 10.909115 2.955964 31.338296-28.712655 33.464219-37.682183 2.473184-10.460215-2.930554-16.973499-13.738032-13.746501z m38.825608 0.042349c-4.963309 1.456807-24.46928 29.330951-26.417336 35.031133-2.312258 6.758908-3.210058 12.00172 3.523441 16.245095 4.133267 0.660645 7.478842 0.542068 11.298726-1.405988 6.420116-3.277816 29.026038-35.014194 29.136145-42.154244l-5.191993-7.885392c-3.98928-0.321853-8.512159-0.965558-12.348983 0.169396z m38.74091-0.059289c-4.370422 1.278941-26.612142 35.259818-27.526882 40.587329-0.745343 4.328073 4.743093 8.122548 8.147957 10.536443 3.769065 0.702994 7.758346 1.270471 11.15474-1.118015 2.447775-1.719371 21.030538-32.210687 21.987626-36.242316 2.608701-11.010753-2.65952-16.134988-13.754971-13.763441z" fill="#F9D0B2" p-id="4800"></path><path d="M228.506998 617.415252c-7.436493 2.761158-1.109545 9.977436 0.542067 14.026005 11.044632 27.077982 19.692308 40.782134 11.705277 71.044765-7.080761 26.840827-31.939653 52.063921-59.754507 56.688436-7.394144 1.228122-14.585012 0.101638-21.936808 0.677585-4.090918 0.321853-7.538131 3.692837-12.831761 3.294756-6.67421-0.508189-27.484533-5.615484-34.218032-8.088668-38.910306-14.288569-51.394806-69.765823-37.106236-105.322085 3.591199-8.935649 25.079107-36.335484 32.828982-41.569826 17.955997-12.128768 31.795666-8.8933 51.318577-10.121423 6.013565-0.372672 12.238875 1.575385 14.500315-6.513283l54.960595 25.892208z m-108.032424 32.634177c-5.615484 1.693962-29.38177 34.649992-30.584483 40.638148-2.286849 11.408834 8.977998 14.25469 17.481687 7.741406s27.120331-33.083077 24.011911-43.64493l-8.01244-5.098826c-0.999438 0.01694-1.981935 0.084698-2.896675 0.364202z m35.62402 0.067759c-6.919835 2.066634-28.534789 35.420744-27.992721 43.348486 0.643706 9.511596 12.433681 10.290819 19.666898 6.564103 6.428586-3.311696 36.598048-48.06617 14.466435-50.386899-2.049694-0.059289-4.158677-0.118577-6.140612 0.47431z m35.505442 3.184648c-4.505939 1.32129-25.104516 34.27732-24.672555 40.163838 0.660645 8.8933 9.443838 10.121423 16.406021 6.564103 5.835699-2.981373 25.82445-33.125426 25.909148-38.910306 0.059289-4.082448-2.066634-5.920397-5.200463-7.885393-3.955401-0.211745-8.723904-1.024847-12.442151 0.067758z" fill="#F8CFB0" p-id="4801"></path><path d="M173.546402 591.531514c-2.261439 8.097138-8.486749 6.140612-14.500314 6.513283-19.522911 1.219653-33.362581-2.015815-51.318578 10.121423-7.741406 5.234342-29.237783 32.634177-32.828982 41.569826-14.288569 35.564731-1.804069 91.041985 37.106236 105.322085 6.733499 2.473184 27.543821 7.58048 34.218032 8.088668 5.293631 0.406551 8.740844-2.972903 12.831761-3.294756 7.360265-0.575947 14.551133 0.550538 21.936808-0.677585 27.806385-4.616046 52.665277-29.84761 59.754508-56.688436 7.987031-30.26263-0.660645-43.975252-11.705277-71.044765-1.651613-4.048569-7.978561-11.264847-0.542068-14.026005 11.739156 2.413896 28.517849 11.230968 38.791728 12.94187 2.320728 13.153615 13.187494 24.706435 15.567511 37.8177 0.948619 5.225873-1.617734 28.339983-2.70187 34.929496-14.542663 88.441754-118.670505 112.682349-191.637915 78.693002-15.465873-7.199338-27.044103-25.595765-33.100017-41.298792-13.060447-33.84536-13.966716-66.081456-7.334855-101.425972 3.006782-15.999471 17.092076-23.046352 26.866237-34.590703 3.150769-3.718246 9.477717-9.494657 1.600794-12.967279 1.245062-0.508189 3.591199-4.539818 8.605326-5.928867 29.898428-8.275004 59.297138-1.931117 88.382465 5.928867z" fill="#F8E6CF" p-id="4802"></path><path d="M548.742035 698.513681l-3.481092 43.433184c-8.139487 33.481158-12.46756 69.393151-29.542697 99.867527-9.553945 17.049727-32.871332 41.527477-52.885492 44.144649-74.915467 9.79957-92.498792-82.521356-104.898594-137.59206-3.946931-13.433118 0.135517-43.289198-9.78263-51.691249-2.820447-2.388486-7.622829-3.09995-10.849826-5.319041-15.889363-10.959934-31.338296-19.633019-21.352391-41.425839l16.177337 1.295881c4.107858 7.156989 7.758346 12.874111 14.830637 17.507097 34.065575 22.334888 121.321555 18.930025 161.248238 13.450058 17.981406-2.464715 30.804698-3.303226 46.73641-14.70359 6.098263-4.361952 29.110736-33.489628 32.498661-9.731812 2.837386 19.904053-22.131613 35.056543-38.698561 40.748255z m-114.266204 61.973598c-7.385674 1.033317-42.442217 11.239438-44.170058 17.413929 7.521191 34.175682 26.823888 91.600993 72.044202 81.682845 25.112986-5.505376 43.162151-56.798544 50.073515-78.82852-18.227031-17.261472-53.41062-23.715467-77.947659-20.268254z" fill="#4D2C24" p-id="4803"></path><path d="M440.955236 588.999041c15.508222-1.76172 44.856112 2.6934 57.560827 12.171116 36.089859 26.925525 6.564103 63.032324-26.612142 73.805922-27.247378 8.850951-60.008602-1.677022-76.821175-25.282382-25.172275-35.352986 13.594045-57.027229 45.87249-60.694656z" fill="#4D2C25" p-id="4804"></path><path d="M760.682084 650.159537c3.836824-1.126485 8.359702-0.482779 12.348983-0.169396l5.191993 7.885392c-0.101638 7.14005-22.71603 38.867957-29.136145 42.154244-3.819884 1.948056-7.165459 2.066634-11.298726 1.405988-6.733499-4.251844-5.835699-9.486187-3.523441-16.245095 1.948056-5.700182 21.454028-33.565856 26.417336-35.031133z" fill="#F59672" p-id="4805"></path><path d="M799.422994 650.100248c11.103921-2.371547 16.363672 2.752688 13.754971 13.763441-0.957089 4.031629-19.539851 34.522945-21.987626 36.242316-3.396394 2.388486-7.385674 1.821009-11.154739 1.118015-3.404864-2.413896-8.8933-6.208371-8.147957-10.536443 0.914739-5.32751 23.15646-39.308387 27.526881-40.587329z" fill="#F59874" p-id="4806"></path><path d="M721.856476 650.117188c10.807477-3.226998 16.219686 3.286286 13.738032 13.746501-2.125922 8.969529-22.555103 40.646617-33.464219 37.682184-16.02488-4.345012 9.77416-48.464251 19.717718-51.437155z" fill="#F69A78" p-id="4807"></path><path d="M156.098594 650.117188c1.981935-0.592887 4.090918-0.533598 6.140612-0.47431 22.131613 2.320728-8.037849 47.075203-14.466435 50.386899-7.233218 3.726716-19.023193 2.947494-19.666898-6.564103-0.542068-7.927742 21.072887-41.281853 27.992721-43.348486z" fill="#F69673" p-id="4808"></path><path d="M191.604036 653.301836c3.718246-1.092605 8.486749-0.287974 12.442151-0.067758 3.13383 1.964996 5.259752 3.811414 5.200463 7.885393-0.076228 5.79335-20.064979 35.928933-25.909148 38.910306-6.962184 3.55732-15.745376 2.337667-16.406021-6.564103-0.44043-5.886518 20.166617-38.842548 24.672555-40.163838z" fill="#F59977" p-id="4809"></path><path d="M120.474574 650.049429c0.914739-0.279504 1.897237-0.347262 2.896675-0.364202l8.01244 5.098826c3.10842 10.561853-15.482812 37.106237-24.011911 43.64493s-19.768536 3.667428-17.481687-7.741406c1.202713-5.988156 24.968999-38.935715 30.584483-40.638148z" fill="#F59B77" p-id="4810"></path><path d="M434.475831 760.487279c24.545509-3.447213 59.729098 2.998313 77.947659 20.268254-6.919835 22.029975-24.968999 73.323143-50.073515 78.82852-45.211844 9.918147-64.523011-47.507163-72.044202-81.682845 1.719371-6.174491 36.784384-16.372142 44.170058-17.413929z" fill="#F7AC90" p-id="4811"></path><path d="M878.310802 662.720265c0.110108-58.7466-50.717221-83.757949-103.450256-80.903623-41.739222 2.261439-65.124367 21.005128-100.214789 35.59861-1.278941 0.533598-4.709214-0.474309-7.377204 0.567478-44.585079 17.498627-77.46488 20.395302-117.145939-10.214591-5.090356-3.929992-9.215153-10.282349-14.627362-14.483375-39.740347-30.821638-99.012076-37.563606-144.418726-15.398114-24.409992 11.917022-42.628553 38.402117-68.698627 47.727378-13.568635 4.853201-41.044698 7.072291-55.070703 4.734624-10.282349-1.710902-27.052572-10.527974-38.791729-12.94187l-54.960595-25.892208c-29.085327-7.859983-58.484036-14.212341-88.382465-5.928867-5.014127 1.389049-7.360265 5.420678-8.605327 5.928867-1.3467 0.550538-4.87861-0.779222-7.419553 0.533598-21.648834 11.230968-38.73244 33.006849-41.078577 57.713284h-3.235468c-5.920397-56.070141 2.015815-101.222696 17.684963-155.421009 6.979123-24.122018 28.102829-68.249727 30.753879-88.949942 4.116328-32.185277-1.973466-73.229975-0.084698-106.87206 2.642581-47.092142 15.474342-122.829181 34.040166-166.567279 10.858296-25.595765 24.765724-42.704781 54.952125-38.72397 24.545509 3.235467 76.990571 38.012506 98.512358 53.486849 18.675931 13.424648 35.801886 29.068387 53.85952 43.272258 80.530951-19.201059 163.458859-18.201621 245.251811-6.140612 8.046319 1.185773 17.913648 4.45512 26.002316 6.530223l4.844731-1.617734c17.075136-17.778131 38.012506-34.26885 58.255352-48.51507 17.964467-12.645426 63.083143-43.068983 82.919438-46.439967 29.601985-5.031067 40.765194 3.320165 55.443374 27.391365 26.900116 44.110769 40.248536 135.618594 42.670902 187.038809 1.439868 30.533664-3.811414 68.063391-0.084698 97.165657 2.464715 19.268817 23.732407 60.025542 30.753879 82.479008 17.710372 56.637618 21.640364 97.707725 20.91196 157.021803-0.076228 5.835699 2.303788 14.034475-3.218527 17.82048zM128.292208 309.995037c5.547725 1.33823 6.428586-2.125922 9.697933-4.853201 15.220248-12.687775 28.48397-30.804698 43.577171-43.746567 18.913085-16.211216 42.696311-29.39871 63.049264-43.814326 1.736311-6.564103-24.426931-31.871894-30.592953-37.089297-13.441588-11.374955-42.188122-33.252473-59.949314-24.282945-10.019785 8.427461-15.11861 20.810323-18.523474 33.235534-6.69115 24.393052-12.628486 74.737601-10.426335 99.460976 0.550538 6.149082 5.496907 13.33995 3.167708 21.098296z m646.568338 0v-72.806484c0-0.719934-2.447775-1.897237-2.68493-3.786005-3.320165-26.324169-6.394706-58.187593-26.332638-77.193847-5.124235-2.583292-14.779818-2.286849-20.564698-1.007907-14.70359 3.252407-50.76804 36.911431-60.415153 49.548387-2.134392 2.795037-7.089231 9.884268-6.326948 12.831762 17.015848 13.466998 36.377833 23.834045 53.342862 37.343391 18.921555 15.059322 34.870207 34.887146 53.275103 50.225972 3.269347 2.727279 4.141737 6.182961 9.697932 4.853201z m-479.467461 52.411183c-16.507659 2.862796-32.422432 16.253565-34.514475 33.39646-7.317916 59.864615 117.840463 91.346898 106.643375 9.664053-3.294756-24.05426-49.387461-47.007444-72.12043-43.060513z m294.266601 0.059289c-21.843639 3.11689-54.206782 22.673681-57.205095 46.27904-4.709214 37.097767 24.49469 47.676559 56.459751 43.585641 19.827825-2.540943 47.430935-23.063292 50.107395-43.687279 4.361952-33.523507-17.329231-50.74263-49.362051-46.177402zM263.156989 498.253499c-17.422399 2.515533-43.102862 9.037287-55.62971 22.123143-8.961059 9.36761-16.058759 29.889959-1.753251 37.258693 11.103921 5.725591 31.101141-6.648801 43.814326-8.097138 36.657337-4.175616 67.572142 8.842481 97.368933 28.678776 7.317916 3.10842 14.110703-7.843044 13.619454-13.619454-1.541505-18.049165-29.712093-46.846518-45.711563-54.664153-10.400926-5.081886-40.985409-13.229843-51.708189-11.679867z m362.058958 0.135517c-26.857767 4.963309-51.089892 12.89952-68.436063 35.031133-8.732374 11.1378-18.904615 27.797916-13.179024 42.035666 7.631299 11.942432 36.784384-13.79732 46.948156-17.947527 18.167742-7.436493 43.585641-10.536443 63.032324-7.995501 11.679868 1.524566 43.975252 20.954309 49.751662 1.168834 7.029942-24.05426-23.715467-44.364864-43.848205-49.141836l-34.26038-3.150769z" fill="#F7C17C" p-id="4812"></path><path d="M128.292208 309.995037c2.329198-7.749876-2.625641-14.949214-3.167708-21.098296-2.202151-24.723375 3.726716-75.059454 10.426335-99.460976 3.413333-12.425211 8.512159-24.808073 18.523474-33.235533 17.761191-8.969529 46.507725 12.91646 59.949314 24.282944 6.166022 5.217403 32.329264 30.525194 30.592953 37.089297-20.352953 14.407146-44.136179 27.60311-63.049264 43.814326-15.101671 12.941869-28.356923 31.067262-43.577171 43.746567-3.269347 2.727279-4.150207 6.191431-9.697933 4.853201z" fill="#F7C6B3" p-id="4813"></path><path d="M774.860546 309.995037c-5.556195 1.32976-6.428586-2.125922-9.697932-4.853201-18.413366-15.338825-34.362018-35.15818-53.275104-50.225972-16.965029-13.509347-36.335484-23.876394-53.342862-37.343391-0.762283-2.947494 4.184086-10.036725 6.326948-12.831762 9.655583-12.628486 45.711563-46.29598 60.415153-49.548387 5.78488-1.278941 15.440463-1.575385 20.564698 1.007908 19.937932 19.014723 23.012473 50.869677 26.332639 77.193846 0.237155 1.880298 2.68493 3.057601 2.68493 3.786005v72.806484z" fill="#F7C9B6" p-id="4814"></path><path d="M589.659686 362.465509c32.032821-4.565227 53.724003 12.653896 49.362051 46.177402-2.68493 20.623987-30.27957 41.146336-50.107395 43.687279-31.965062 4.099388-61.168966-6.479404-56.459751-43.585641 2.998313-23.61383 35.361456-43.17062 57.205095-46.27904z" fill="#F6EDDA" p-id="4815"></path><path d="M295.393085 362.40622c22.732969-3.946931 68.825674 19.006253 72.12043 43.060513 11.197089 81.682845-113.96129 50.200562-106.643374-9.664053 2.100513-17.151365 18.006816-30.533664 34.514474-33.39646z" fill="#F6EDD9" p-id="4816"></path><path d="M625.215947 498.389016l34.260381 3.150769c20.141208 4.785443 50.886617 25.087577 43.848205 49.141836-5.78488 19.785476-38.071795 0.355732-49.751663-1.168834-19.446683-2.540943-44.856112 0.559007-63.032324 7.995501-10.163772 4.158677-39.316857 29.889959-46.948156 17.947527-5.717122-14.24622 4.45512-30.906336 13.179024-42.035666 17.337701-22.123143 41.578296-30.059355 68.436063-35.031133z" fill="#4D2C25" p-id="4817"></path><path d="M263.156989 498.253499c10.722779-1.549975 41.307262 6.606452 51.708189 11.679867 16.00794 7.817634 44.178528 36.614988 45.711563 54.664153 0.491249 5.77641-6.293069 16.727874-13.619454 13.619454-29.796791-19.836294-60.711596-32.854392-97.368933-28.678776-12.713184 1.448337-32.718875 13.82273-43.814326 8.097138-14.305509-7.377204-7.216278-27.899553 1.753251-37.258693 12.526849-13.085856 38.207312-19.60761 55.62971-22.123143z" fill="#4C2B24" p-id="4818"></path><path d="M150.068089 67.792357c14.212341-1.33823 46.575484 12.509909 60.152589 19.421274 41.171745 20.988189 76.008073 51.487974 113.681787 77.380182 10.290819-1.490687 22.334888-5.369859 32.354673-6.631861 61.363772-7.707527 126.106998-8.00397 187.394541 0 11.230968 1.465277 24.011911 6.115203 35.649429 6.564103 6.996063-0.8978 10.799007-8.927179 16.067229-13.153615 36.242316-29.068387 87.950505-69.155997 133.289397-80.15828 12.560728-3.049132 25.011348-3.938462 37.538197-0.093167 42.205062 12.941869 64.302796 89.05158 72.577799 127.987295 6.564103 30.863987 12.196526 71.612242 13.81426 102.662564 1.626203 31.15196-4.243375 71.112523-0.143987 100.460414 1.533036 10.985343 14.322448 33.616675 18.70981 45.991067 55.976973 157.936543 53.486849 309.580017-93.201787 413.377535-182.863193 129.393284-490.19871 126.234045-668.920165-9.706402C-32.634177 744.132076-13.051977 582.155434 38.452936 432.036526c2.913615-8.495219 11.154739-22.038445 12.238875-29.81373 6.038974-43.17062-1.829479-98.520827 3.303226-145.553681 5.36139-49.184185 22.470405-150.754144 66.657403-179.221175 7.14005-4.599107 21.055947-8.876361 29.415649-9.655583zM24.833482 649.778395c0.787692 7.419553-1.829479 15.863954 1.549975 22.656741h1.685493c0.101638 2.142862-0.186336 4.345012 0 6.470935 0.643706 7.360265 3.11689 9.155864 3.235467 9.706402 16.812572 80.615649 68.893433 136.118313 139.997485 175.375881 177.222299 97.851712 443.267494 92.871464 606.650124-31.507692 47.007444-35.784946 100.240199-108.63378 100.358776-169.751928 5.522316-3.786005 3.150769-11.984781 3.218528-17.820479 0.736873-59.314078-3.201588-100.384185-20.91196-157.021803-7.021472-22.453466-28.289165-63.21019-30.75388-82.479008-3.726716-29.110736 1.524566-66.631993 0.084699-97.165657-2.422366-51.420215-15.770786-142.92804-42.670902-187.038809-14.67818-24.071199-25.84139-32.422432-55.443375-27.391365-19.836294 3.370984-64.954971 33.794541-82.919437 46.439967-20.242845 14.24622-41.180215 30.745409-58.255352 48.51507l-4.844731 1.617734c-8.088668-2.075103-17.955997-5.34445-26.002316-6.530224-81.792953-12.061009-164.72933-13.060447-245.251811 6.140613-18.066104-14.212341-35.19206-29.856079-53.859521-43.272259-21.530256-15.474342-73.966849-50.251381-98.512357-53.486848-30.194872-3.972341-44.09383 13.136675-54.952126 38.72397-18.557353 43.738098-31.397585 119.475136-34.040165 166.567279-1.888768 33.650554 4.209495 74.686782 0.084698 106.872059-2.65105 20.700215-23.774756 64.827924-30.753879 88.949942-15.677618 54.206782-23.61383 99.350868-17.684963 155.42101z" fill="#482820" p-id="4819"></path><path d="M968.886948 349.134028c-0.711464 7.165459 6.166022 18.184682 11.188619 22.792258 6.809727 6.25072 17.092076 6.132142 24.367642 11.197089-6.377767 7.394144-17.396989 8.156427-24.359173 14.449495-7.970091 7.199338-8.00397 21.208404-17.659553 26.002316-3.150769-20.344483-12.348983-28.238346-30.423557-35.59861-3.684367-1.499156-1.846419-3.599669-1.914177-6.453995 9.105045-1.719371 22.682151-8.325823 27.450654-16.228156 3.642018-6.022035 1.668553-18.472655 11.341075-16.160397z" fill="#F2C964" p-id="4820"></path><path d="M978.017403 439.168106c-3.608139 3.506501-17.634144 5.607014-22.233251 2.380016-6.801257-4.768503-9.943557-22.876956-15.872423-29.415649-7.13158-7.868453-20.962779-8.842481-27.679339-17.591795v-19.59067c4.743093-8.698495 25.790571-12.111828 30.31345-16.575417 4.505939-4.44665 5.80182-30.643772 21.470967-32.05823 17.142895-1.541505 19.861704 25.324731 28.94981 32.701935 10.604202 8.613797 34.70928 6.640331 30.559074 30.203342-6.208371 12.738594-24.088139 14.034475-32.125989 22.902365-5.878048 6.496344-7.936212 21.733532-13.390769 27.027163z m-9.130455-90.034078c-9.672523-2.312258-7.707527 10.138362-11.341075 16.160397-4.768503 7.893863-18.345608 14.508784-27.450654 16.228156 0.067758 2.854326-1.77019 4.954839 1.914177 6.453995 18.083044 7.360265 27.272787 15.254127 30.423557 35.59861 9.655583-4.793912 9.689462-18.802978 17.659553-26.002316 6.962184-6.293069 17.981406-7.055352 24.359173-14.449495-7.275567-5.064946-17.557916-4.946369-24.367643-11.197089-5.022597-4.607577-11.900083-15.626799-11.188618-22.792258z" fill="#513028" p-id="4821"></path></svg>