<?xml version="1.0" standalone="no"?><!DOCTYPE svg PUBLIC "-//W3C//DTD SVG 1.1//EN" "http://www.w3.org/Graphics/SVG/1.1/DTD/svg11.dtd"><svg t="1772951671571" class="icon" viewBox="0 0 1024 1024" version="1.1" xmlns="http://www.w3.org/2000/svg" p-id="4438" xmlns:xlink="http://www.w3.org/1999/xlink" width="200" height="200"><path d="M769.769974 903.898131c10.214588-11.273314 46.668639-32.219147 61.465392-33.548907 14.864512-1.33823 16.28744 11.620576 9.24903 22.385701h-3.718246l-8.850949 0.406551-2.312257 3.311695c-34.633042 10.324695-59.627444 34.260371-55.968487 72.738705 2.19368 23.080225 21.97915 29.762903 42.789467 31.634731 33.608196 3.015251 67.436606-0.01694 98.783363-11.324132 35.259808-12.721651 56.544434-36.4964 52.013087-76.202857-3.93846-34.531405-57.340596-125.217632-80.090498-154.37918-3.252406-4.167145-7.351793-7.529659-11.00228-11.307192-13.356886 14.017531-27.764029 26.883169-42.958863 38.901825-22.148546 17.524031-53.715518 40.392511-77.998456 54.122069-84.613376 47.845942-191.993594 79.192699-288.515519 85.528115-17.837414 1.168833-36.0475-0.686054-53.884914 0.076228-1.905707 1.829478 6.665738 18.794503 7.377202 24.249059 3.862232 29.551158-5.208932 51.987678-33.387981 63.252521-28.924392 11.569757-78.506645 10.917582-110.005858 9.418426-45.423577-2.159801-116.188818-9.757218-158.063545-28.026593-21.99609-9.596292-50.869663-31.795657-55.053748-56.595252-10.832884-64.20114 38.224241-107.083775 84.816651-140.920656-18.091509-33.320222-36.174547-67.123223-43.814314-104.779987-11.993247-59.102316-1.118015-115.477354-8.283471-170.361705-1.837948-14.05141-12.33204-32.202208-16.778689-46.499243-20.68327-66.555746-41.222553-144.274699-35.429204-214.252247 2.405425-29.01756 14.805223-60.804747 44.635885-70.739831 26.629074-8.867888 63.057716-2.600231 90.58459 2.828915 33.42186 6.58951 64.988832 19.34504 97.445134 29.178487 60.457485-30.863978 123.294986-56.73077 190.045538-70.765241 13.746497-2.888204 38.834067-1.262001 48.218613-11.332602 14.712055-22.275593 28.390794-45.753899 44.8561-66.801371C572.880831 52.428396 606.438208 14.492128 631.940798 4.955125c17.862824-6.682678 27.357478-6.555631 44.84763 0.076229 53.156511 20.158142 102.518549 114.918347 124.692505 165.610143 13.814256 31.592382 23.495246 78.354188 39.528591 105.626968 15.584446 26.518967 45.991054 53.851035 64.455234 80.691855 81.030647 117.798081 90.169569 237.374822 0 353.250256-3.853762 4.954837-17.642609 14.983089-16.414487 20.25131 12.196523 17.515562 25.256966 34.895606 36.470991 53.046403 44.635885 72.255927 109.04877 180.330669-3.09148 226.516529-32.261496 13.289128-105.313585 19.641483-137.888464 7.512719-48.79456-18.167737-45.28806-79.963451-14.754405-113.639406z m-130.265638-550.825453c40.561908-12.848698 81.843749-29.847601 124.226665-33.946988l49.031715-36.589568 1.837948-5.70865c-19.446678-60.296559-41.637573-120.415251-75.17801-174.410273-15.601385-25.121449-57.425294-85.019926-89.873126-79.988861-26.434269 4.099387-73.644975 62.634226-89.898536 85.163913-13.162081 18.243965-25.883731 38.952644-35.852694 59.051497-88.882159 7.360263-172.555386 41.518996-250.858755 82.275709-20.276719-6.801255-39.867383-15.626795-60.482895-21.496371-27.865666-7.93621-56.146353-12.958805-84.638785-15.84701-6.064382-0.618296-9.935084-4.505938-18.523469-3.692836-32.151389 3.0576-43.136729 23.952615-46.57547 54.07972-3.845293 33.701364 4.760032 91.45698 11.85773 125.675002 7.775283 37.495837 22.123137 73.788962 32.922141 110.37853 10.062131-1.77019 18.506529 3.413332 27.543814 4.082447 53.105692 3.93846 108.049333-25.705865 158.343049-41.103975 30.635293-9.376077 62.397071-16.456836 93.040834-26.053128 53.512243-16.761749 107.608903-35.268278 160.03701-52.106255 30.965616-9.943554 62.032869-19.946396 93.040834-29.771372z m301.465854 137.710599c-10.12989-52.224832-39.613289-97.733107-69.02046-141.259448l-25.875262-29.932299-60.948733 58.145227c-3.591198 14.381733 4.370421 26.646014 3.421802 40.621197-2.989842 44.195455-24.071193 76.473891-62.168386 97.894033-54.54556 30.669173-121.617964 33.803001-166.973783-14.220806-14.864512-15.736902-20.6748-43.221427-44.737523-44.898449-2.718808-0.186336-24.918173 3.52344-29.01756 4.472058-6.691148 1.558445-33.803001 18.176207-35.496962 24.054253 4.505938 66.250833-13.754967 115.435005-76.008052 143.571705-41.840848 18.91308-85.943135 26.019248-128.004199 3.692836-28.966741-15.3727-41.654513-42.061063-56.798528-69.740394l-74.610533-9.138922c1.109545 22.792252-1.431397 46.270558-0.152457 69.02046 2.524003 45.059375 11.214025 80.624096 29.932299 120.796393 20.598572 44.203925 51.149167 87.272895 95.488609 111.073054 27.679331 14.856042 64.751677 14.009061 95.41238 23.690051 14.009061 4.421239 34.904076 18.506529 46.041873 20.954304 31.922704 7.02147 103.213073 1.490686 137.033013-3.176178 186.827011-25.815973 465.686949-182.897021 422.490932-405.610606zM706.492043 353.081148c-2.117452-2.18521-17.532501 5.488435-18.074569 9.833447l-34.023216 153.921809 18.430301-0.169396 33.667484-163.57739z m-48.37954 18.608167l-37.046937 7.605887-22.411111 129.994604 29.686675 7.546598 29.771373-145.147089zM360.373364 464.730149l-18.210086 4.124796-37.605944 159.63046c7.4619 0.135517 15.160955 1.914176 18.03222-6.14908l37.78381-157.606176z m-52.106255 18.608167l-33.328692 7.605887-26.315691 109.751764c-1.262001 14.474901 17.380045 22.123137 29.864541 20.352947l29.771373-137.719068z m-66.987706 513.609119c34.641512 2.820446 74.534305 7.580478 109.700945 3.633548 31.609321-3.548849 57.061092-26.264873 39.977491-58.407792-18.328663-34.489056-63.269461-42.459144-97.572181-49.438266-18.879201-3.836823-40.375572-9.206681-61.245177-11.324132-14.686646-1.490686-42.382916 6.326946-42.950394-16.575413 1.964995-6.979121 16.2705-4.302662 14.872982-7.444961-2.447774-5.513845-12.433677-9.011875-16.812567-12.958805-6.657269-5.996624-22.87695-26.408859-29.703615-26.358041-24.596321 13.695679-49.861756 34.29425-64.62463 58.424732-21.343915 34.887137-16.998903 73.644975 20.505403 93.862405 36.572628 19.709242 87.332184 23.29197 127.860213 26.595195z" fill="#4F2F27" p-id="4439"></path><path d="M911.198817 989.502475c4.226434-31.550032-12.027126-61.855003-37.309501-79.921103-9.994373-7.140048-23.478306-9.65558-33.40492-16.846447 7.03841-10.765125 5.615482-23.72393-9.24903-22.385701-14.805223 1.32976-51.250804 22.284063-61.465392 33.548907-0.474309-13.907424-4.8532-28.365385-8.427459-41.815439-2.007344-7.546598-1.541505-18.760623-10.180708-21.454022 24.282938-13.729558 55.85838-36.598038 77.998456-54.122069 15.194834-12.018657 29.593507-24.884294 42.958863-38.901825 3.650487 3.777534 7.749874 7.140048 11.00228 11.307193 22.749903 29.170017 76.152038 119.847774 80.090498 154.379179 4.531347 39.706457-16.753279 63.489676-52.013087 76.202857z" fill="#F7C280" p-id="4440"></path><path d="M639.504336 353.072678c0.262564-26.298752-21.039002-40.816002-45.804718-36.47946-18.066099 3.159238-46.295967 28.314566-50.344535 46.389135-1.160364 5.166583-3.167708 17.244528 3.108419 19.870168-52.428108 16.837977-106.524767 35.344506-160.03701 52.106255-7.123108-29.745964-64.235019-33.294813-83.817214-18.684395-13.373826 9.977433-16.422957 15.694553-16.668581 31.727898-0.110107 7.233216-3.582729 15.084727 7.444961 13.009625-50.293716 15.39811-105.237357 45.042436-158.343049 41.103975-9.045754-0.669115-17.481682-5.852637-27.543814-4.082447-10.799004-36.589568-25.146858-72.882692-32.922141-110.37853-7.097699-34.218022-15.703023-91.973638-11.85773-125.675002 3.438742-30.127105 14.424082-51.030589 46.57547-54.07972 8.588385-0.813102 12.467556 3.07454 18.523469 3.692836 28.492432 2.888204 56.773119 7.91927 84.638785 15.84701 20.615511 5.869577 40.206176 14.686646 60.482895 21.496371 78.303369-40.756713 161.976596-74.915446 250.858755-82.275709 9.968963-20.098853 22.690614-40.807532 35.852694-59.051497 16.25356-22.529688 63.472736-81.064526 89.898536-85.163913 32.447832-5.031066 74.263271 54.867412 89.873126 79.98886 33.540437 53.986552 55.731333 114.113715 75.17801 174.410274l-1.837948 5.70865-49.031715 36.589568c-42.382916 4.099387-83.664757 21.09829-124.226665 33.946988z m93.040834-133.983883c5.479965-6.496342-12.425207-53.605411-16.68552-63.328749-9.274439-21.182988-32.566409-65.784994-56.561374-70.248583-5.73406-0.152457-15.101667 2.396955-19.751591 5.208932-10.663487 6.445523-50.183609 75.144131-44.703643 79.980391 48.277902 8.8086 95.132876 23.978025 137.702128 48.388009zM124.506168 264.215929c-13.331477 3.887642-12.111825 17.795065-13.585571 27.332069-3.828353 24.909703 1.32129 52.063906 8.444398 77.35475 3.023721 10.739716 8.063257 25.985369 12.001717 36.377823 1.643143 4.319602 3.879172 8.122545 7.555069 11.036159 3.828353 0.050819 20.700209-39.020403 24.774186-45.923296 14.822163-25.138388 35.852695-49.438266 55.231614-71.298838-19.311161-16.372138-69.681105-42.103412-94.421413-34.887137z" fill="#F8C27E" p-id="4441"></path><path d="M940.97019 490.783277c43.196018 222.713585-235.66392 379.794633-422.490931 405.610605-33.819941 4.675334-105.11031 10.206118-137.033014 3.176178-11.129327-2.447774-32.032812-16.533064-46.041873-20.954304-30.660703-9.67252-67.73305-8.834009-95.41238-23.690051-44.339442-23.791689-74.890037-66.869129-95.488608-111.073054 3.879172-18.930019 5.225871-35.674829 16.846447-52.013087 8.884828-12.492966 21.725056-19.920987 35.259808-26.146295 10.519501-1.160364 9.23209 2.168271 3.701305 9.282909-4.954837 6.369295-14.568069 16.744809-16.931144 24.011903-1.168833 3.591198-5.344448 25.163798-5.344449 28.119761 0 3.819883 3.387923 7.47037 3.616608 11.264844 0.4489 7.351793-0.88086 15.228714 0.160926 22.148546 5.141173 34.370478 26.290282 54.282995 58.390852 64.429825 37.428079 11.832321 61.10966 11.027689 92.320901-14.034471 35.556251-28.551721 53.986552-70.722892 37.275622-115.570522-4.311132-11.578227-12.984215-19.751591-18.769093-29.627386-5.683241-9.697929 2.295318-5.793348 5.615482-11.180146 24.079662-1.617733 57.789496-13.882014 72.484612-33.582786 28.009653-37.538186 35.954332-68.021023 87.4677-83.740985 61.016492-18.616637 80.700325 13.102792 132.044297 16.990433 19.209523 1.456807 48.591285-5.225871 65.302215-15.042378l19.192584 57.103442c11.103917 17.13442 24.537032 33.786062 44.026059 41.569814 20.115793 8.037847 47.566438 10.400923 68.317466 4.954838 6.61492-1.736311 50.081971-23.376668 54.562499-27.315129 6.699618-5.886516 17.396984-24.60479 18.531939-33.574317 2.320727-18.286314-0.025409-51.8691-4.260314-70.053777-4.717683-20.268249-24.791126-30.889388-41.485116-40.400981-10.773595-6.14061-27.967304-6.386235-28.636419-21.614948 45.228771-10.12142 70.019898 5.886516 96.767549 40.943049z m-406.821788 63.980924c-25.621167 4.370421-75.262708 32.735806-54.240646 63.980925 10.079071 14.974619 34.345069 16.134983 49.980333 21.030532 64.311247-6.420114 95.954448-100.646721 4.251843-85.011457z m118.602713 47.752774c-14.991559 4.743092-5.894986 18.01528-5.750999 24.172831 0.169396 6.970651-9.418426 18.03222-15.042378 22.157016-23.706991 17.405454-53.20733 7.953149-79.421384 2.227559-24.028844 20.64939-43.399293 54.867412-80.700325 42.721709-14.466431-4.709213-19.565255-27.679331-31.439925-24.367636-19.36198 19.929457 15.592915 44.314032 34.201083 47.651136 37.301032 6.691148 61.304466-19.099416 84.748892-43.026621 34.175673 14.856042 96.488046 4.717683 105.601559-36.869072 1.948056-8.876358 1.067196-38.867946-12.204993-34.666922z" fill="#FBF0DE" p-id="4442"></path><path d="M144.511853 743.861121c-18.726744-40.172296-27.408297-75.737018-29.932299-120.796393-1.278941-22.749903 1.270471-46.228209 0.152457-69.02046l74.610533 9.138922c15.144016 27.679331 27.831787 54.367694 56.798528 69.740394 42.061063 22.326412 86.16335 15.220244 128.004199-3.692836 62.253084-28.14517 80.522459-77.329341 76.008052-143.571705 1.693961-5.878046 28.805815-22.495808 35.496962-24.054253 4.090917-0.948618 26.290282-4.666864 29.01756-4.472058 24.062723 1.677022 29.873011 29.153077 44.737523 44.898449 45.355819 48.015338 112.428223 44.889979 166.973783 14.220806 38.097194-21.420143 59.178544-53.698579 62.168386-97.894033 0.948618-13.975182-7.013001-26.239463-3.421802-40.621197l60.948733-58.145227 25.875262 29.932299c29.407171 43.53481 58.890571 89.043085 69.02046 141.259448-26.747652-35.048063-51.538778-51.055999-96.767549-40.943049-52.614443 11.773032-84.240704 56.569843-126.606681 83.825683l-3.658956 5.496905c-16.71093 9.816507-46.092692 16.490715-65.302215 15.042378-51.335503-3.879172-71.027805-35.60707-132.044297-16.990433-51.513368 15.719962-59.458048 46.202799-87.467701 83.740985-14.703586 19.700772-48.404949 31.965053-72.484612 33.582786-34.912546 2.346137-69.681105-6.267657-102.272924-3.650487-19.514436 1.566914-40.494149 6.869014-57.764086 14.813693-13.534752 6.225308-26.38345 13.661799-35.259808 26.146296-11.612106 16.329789-12.967275 33.074598-16.846447 52.013087z" fill="#F7C17D" p-id="4443"></path><path d="M241.279403 996.947435c-40.528028-3.303225-91.287584-6.885953-127.860212-26.595195-37.504307-20.20896-41.849318-58.975269-20.505404-93.862405 14.762874-24.130481 40.01984-44.720583 64.62463-58.424732 6.826665-0.050819 23.046346 20.361417 29.703615 26.358041 4.38736 3.94693 14.373263 7.444961 16.812567 12.958805 1.397518 3.142299-12.907986 0.465839-14.872981 7.444961 0.575947 22.902359 28.272217 15.084727 42.950393 16.575413 20.869605 2.125922 42.365977 7.48731 61.245177 11.324132-39.15592 14.839103-55.816031 64.988832-52.106255 104.21251z" fill="#F7C17E" p-id="4444"></path><path d="M293.377188 892.734925c34.30272 6.979121 79.243518 14.94921 97.572181 49.438266 17.083601 32.134449-8.3597 54.858942-39.977491 58.407792-35.16664 3.94693-75.059433-0.813102-109.700945-3.633548-3.718245-39.223678 12.950335-89.364938 52.106255-104.21251z" fill="#F9F0DE" p-id="4445"></path><path d="M911.198817 989.502475c-31.346757 11.307193-65.175168 14.339384-98.783363 11.324132-20.801847-1.871827-40.595787-8.546036-42.789467-31.634731-3.650487-38.469865 21.335445-62.405541 55.968487-72.738705 3.210057-0.957088 9.181271 1.888767 11.163206-3.718246h3.718246c9.918144 7.190866 23.402078 9.697929 33.40492 16.846447 25.290845 18.066099 41.535935 48.37954 37.309502 79.921103z" fill="#F8F1E0" p-id="4446"></path><path d="M658.112503 371.689315l-29.771373 145.147089-29.686675-7.546598 22.411111-129.994604 37.046937-7.605887z" fill="#706765" p-id="4447"></path><path d="M308.267109 483.338316l-29.771373 137.719068c-12.484496 1.77019-31.126542-5.878046-29.86454-20.352947l26.315691-109.751764 33.328692-7.605887z" fill="#6E6563" p-id="4448"></path><path d="M639.504336 353.072678c-31.007965 9.824977-62.075218 19.827819-93.040834 29.771373-6.276127-2.62564-4.260313-14.703586-3.108419-19.870168 4.048568-18.066099 32.278436-43.221427 50.344535-46.389135 24.765717-4.336541 46.067282 10.172239 45.804718 36.479461z" fill="#F8F1DD" p-id="4449"></path><path d="M386.426492 434.950306c-30.652233 9.596292-62.414011 16.677051-93.040834 26.053128-11.027689 2.075103-7.555068-5.776409-7.444961-13.009624 0.245624-16.041815 3.303225-21.750465 16.668581-31.727899 19.582195-14.610418 76.694106-11.061568 83.817214 18.684395z" fill="#F8F2E1" p-id="4450"></path><path d="M360.373364 464.730149l-37.78381 157.606176c-2.879735 8.063257-10.578789 6.276127-18.03222 6.14908l37.605944-159.63046 18.210086-4.124796z" fill="#706764" p-id="4451"></path><path d="M706.492043 353.081148L672.824559 516.658538l-18.430301 0.169396 34.023216-153.921809c0.533598-4.345011 15.957117-12.018657 18.074569-9.833447z" fill="#716764" p-id="4452"></path><path d="M836.76615 892.734925c-1.981935 5.607012-7.953149 2.761157-11.163206 3.718246l2.312257-3.311695 8.850949-0.406551z" fill="#F7C280" p-id="4453"></path><path d="M732.54517 219.088795c-42.569252-24.409985-89.424226-39.57094-137.702128-48.388009-5.479965-4.83626 34.031686-73.534868 44.703643-79.980391 4.658394-2.811976 14.017531-5.361388 19.751591-5.208932 24.003434 4.472058 47.286935 49.065594 56.561374 70.248583 4.251843 9.723339 22.165486 56.823938 16.68552 63.328749z" fill="#FAC8BA" p-id="4454"></path><path d="M124.506168 264.215929c24.731838-7.216276 75.110252 18.514999 94.421413 34.887137-19.378919 21.852103-40.409451 46.16045-55.231614 71.298838-4.073977 6.902893-20.937364 45.974114-24.774186 45.923296-3.675896-2.913614-5.911926-6.716557-7.555069-11.036159-3.94693-10.392454-8.977996-25.638107-12.001717-36.377823-7.123108-25.290845-12.272751-52.453517-8.444398-77.354751 1.465277-9.545473 0.254094-23.444427 13.585571-27.332068z" fill="#FBC6B8" p-id="4455"></path><path d="M356.655119 654.538532c-3.311695 5.386797-11.290253 1.482216-5.615482 11.180146 5.784878 9.875795 14.449491 18.04916 18.769093 29.627386 16.71093 44.84763-1.727841 87.027271-37.275623 115.570522-31.21124 25.06216-54.901291 25.858322-92.3209 14.034471-32.10057-10.146829-53.249679-30.059346-58.390852-64.429825-1.033317-6.919833 0.287973-14.796753-0.160926-22.148546-0.228685-3.794474-3.616608-7.444961-3.616608-11.264844 0-2.955963 4.175615-24.528562 5.344448-28.119761 2.354606-7.267095 11.967838-17.634139 16.931145-24.011903 5.530784-7.106168 6.818195-10.443272-3.701306-9.282909 17.261467-7.944679 38.24118-13.238309 57.764087-14.813693 32.591819-2.62564 67.360378 5.988154 102.272924 3.650487z m-90.466013 15.609855c-11.281783 1.905707-30.169454 13.026564-37.80922 21.741996-23.427487 26.739182-18.108448 87.315244 22.199365 92.905317 47.93911 6.648799 86.832465-16.507655 79.954982-68.783306-1.880297-14.313974-21.428613-44.745992-35.208989-46.677108-7.597417-1.067196-21.394733-0.499719-29.144608 0.813101z" fill="#FBD7BD" p-id="4456"></path><path d="M844.211111 449.840228c0.669115 15.220244 17.862824 15.474338 28.636419 21.614948 16.69399 9.511594 36.767434 20.132732 41.485116 40.400981 4.234904 18.184676 6.58104 51.767463 4.260313 70.053777-1.134954 8.969526-11.832321 27.6878-18.531938 33.574317-4.480528 3.93846-47.94758 25.578818-54.562499 27.315128-20.759498 5.454556-48.210144 3.08301-68.317467-4.954837-19.489027-7.783753-32.922141-24.435394-44.026059-41.569815l-19.192583-57.103441 3.658957-5.496905c42.365977-27.25584 73.992237-72.061121 126.60668-83.825684z m-38.495275 37.80075c-16.600822 3.574259-37.495837 37.140105-39.596349 53.444485-6.15755 47.735834 43.839723 75.567621 85.375658 55.612755 34.480586-16.566943 40.01984-63.794589 11.197086-89.034615-11.950898-10.468682-41.569815-23.334319-56.967925-20.014155z" fill="#FAD5B9" p-id="4457"></path><path d="M534.148402 554.764201c91.702604-15.635264 60.050934 78.582873-4.251843 85.011457-15.635264-4.895549-39.909732-6.055912-49.980333-21.030532-21.030532-31.245119 28.619479-59.610504 54.240646-63.980925z" fill="#52312A" p-id="4458"></path><path d="M652.751115 602.516975c13.272188-4.201024 14.144578 25.790563 12.204992 34.666922-9.113513 41.595224-71.425886 51.733583-105.601558 36.869072-23.452897 23.927206-47.447861 49.717769-84.748893 43.026621-18.608167-3.337104-53.563062-27.72168-34.201082-47.651136 11.87467-3.311695 16.973494 19.658423 31.439925 24.367636 37.301032 12.145704 56.671481-22.072318 80.700325-42.721709 26.214054 5.72559 55.714393 15.177895 79.421384-2.227559 5.623952-4.124796 15.211774-15.194834 15.042378-22.157016-0.152457-6.15755-9.24056-19.429738 5.750999-24.172831z" fill="#533026" p-id="4459"></path><path d="M266.189106 670.148387c7.749874-1.31282 21.54719-1.871827 29.144607-0.813101 13.771907 1.931116 33.320222 32.363134 35.20899 46.677108 6.877484 52.275651-32.015872 75.432105-79.954982 68.783306-40.316283-5.590073-45.635322-66.174605-22.199365-92.905317 7.639766-8.715432 26.527437-19.836289 37.80922-21.741996z" fill="#FBBE9D" p-id="4460"></path><path d="M805.715836 487.640978c15.39811-3.320164 45.017026 9.553943 56.967925 20.014155 28.822755 25.240026 23.2835 72.467672-11.197086 89.034615-41.527466 19.954866-91.533208-7.876921-85.375658-55.612755 2.100512-16.304379 22.995527-49.861756 39.596349-53.444485z" fill="#FABE9E" p-id="4461"></path></svg>