<?xml version="1.0" standalone="no"?><!DOCTYPE svg PUBLIC "-//W3C//DTD SVG 1.1//EN" "http://www.w3.org/Graphics/SVG/1.1/DTD/svg11.dtd"><svg t="1772951572643" class="icon" viewBox="0 0 1024 1024" version="1.1" xmlns="http://www.w3.org/2000/svg" p-id="5008" xmlns:xlink="http://www.w3.org/1999/xlink" width="200" height="200"><path d="M21.504 283.895467c3.848533-1.1264 7.620267-0.187733 11.204267 1.493333 9.728 4.5568 24.1664 17.2544 34.3808 23.7312 10.368 6.570667 25.5488 12.740267 34.5344 20.360533 11.170133 9.472 3.950933 17.706667-8.797867 15.2576L19.797333 298.2912c-5.700267-3.234133-3.703467-12.817067 1.706667-14.404267z" fill="#513026" p-id="5009"></path><path d="M920.669867 345.130667l1.527466-13.0048 71.483734-48 10.939733 4.5056c1.1008 5.6832-1.083733 7.808-4.770133 11.3664-11.716267 11.298133-41.250133 27.0848-56.448 37.1968-7.9104 5.265067-9.344 10.9568-22.7328 7.936z" fill="#502F27" p-id="5010"></path><path d="M136.0128 261.1712c-17.152 7.2448-23.304533-11.537067-32.213333-21.0432-9.3696-10.001067-19.9168-18.944-29.047467-29.201067 2.1504-7.5776 6.894933-14.037333 14.498133-7.9104 15.675733 12.6208 29.474133 32.017067 45.243734 45.166934l1.518933 12.996266z" fill="#543229" p-id="5011"></path><path d="M74.624 419.319467c-6.109867 5.649067-57.762133-14.916267-68.872533-16.5632-12.16-5.640533-3.0464-19.345067 9.156266-15.6416 12.629333 7.048533 55.2448 12.0832 61.5424 22.596266l-1.8176 9.6z" fill="#55352A" p-id="5012"></path><path d="M930.901333 203.630933c0.8192-0.785067 9.386667-4.113067 10.641067-3.7888 6.135467 4.078933 6.596267 10.103467 3.438933 16.221867-2.602667 5.034667-35.131733 35.566933-42.069333 41.8816-2.568533 2.338133-5.632 7.637333-9.6768 6.459733-4.3776-3.345067-5.563733-5.742933-4.9664-11.374933 0.7424-7.031467 31.556267-33.911467 39.0144-41.847467 2.2784-2.432 2.4576-6.4256 3.626667-7.552z" fill="#54342A" p-id="5013"></path><path d="M1020.765867 387.106133l-0.0768 16.068267c-17.7664 0.554667-40.3968 14.421333-56.465067 16.213333-14.916267 1.664-20.437333-10.410667-9.156267-15.6416 9.949867-1.390933 61.2864-21.282133 65.698134-16.648533z" fill="#55352A" p-id="5014"></path><path d="M381.44 115.882667l11.076267 0.213333c2.542933 0.938667 3.4816 2.833067 4.573866 5.111467 6.929067 14.421333 8.823467 39.5264 16.213334 55.0144l-7.68 10.6752c-5.777067 1.834667-8.891733-8.055467-10.5472-12.0064-2.568533-6.152533-15.9488-47.488-15.9232-50.978134 0.008533-1.792 3.2512-4.8384 2.295466-8.021333z" fill="#4F3027" p-id="5015"></path><path d="M3.6352 493.6704l-3.072-8.337067c-0.904533-3.0464 2.5344-6.869333 4.923733-7.569066 14.225067-4.181333 38.9888 4.462933 54.272-3.191467l8.5248 11.008c2.5344 4.104533-7.569067 8.0896-8.1408 8.0896H3.6352z" fill="#55352C" p-id="5016"></path><path d="M964.258133 493.6704c-6.0672-1.621333-9.386667-18.542933 3.1744-18.304 2.474667 0.042667 5.742933 2.261333 9.582934 2.286933 15.650133 0.119467 31.36-0.349867 46.984533-0.136533v16.1536h-59.741867z" fill="#543329" p-id="5017"></path><path d="M517.0432 83.584v92.023467c0 4.360533-11.733333 5.888-16.145067 4.846933V83.584h16.145067z" fill="#513228" p-id="5018"></path><path d="M628.48 112.682667c7.3984-2.1248 12.808533 4.096 11.3152 11.2128-7.278933 16.1536-9.0112 39.0656-16.785067 54.3488-5.649067 11.1104-11.7504 10.9312-18.0224 0.708266 6.3744-18.7904 10.9568-40.157867 18.449067-58.3936 1.066667-2.594133 1.979733-6.997333 5.0432-7.876266z" fill="#53352A" p-id="5019"></path><path d="M636.5184 648.661333l2.193067 2.756267 10.717866 0.469333c3.131733 0.366933 6.528-0.290133 9.685334 0 6.306133 0.580267 13.013333-0.4096 19.370666 0 1.4336 6.0672-4.113067 7.253333-5.853866 11.895467-6.587733 17.536-5.4272 54.459733 0.896 72.1664 4.1984 11.741867 17.442133 29.525333 25.966933 38.613333 4.0448 4.309333 23.509333 14.0544 29.6704 15.5392 28.168533 6.801067 55.406933 2.525867 81.851733-7.304533 4.667733-1.732267 7.637333-5.905067 11.767467-7.594667 7.6032-3.114667 15.906133-3.3024 23.466667-0.674133 1.92-8.994133 9.3952-13.1072 13.064533-22.545067h3.2256c-27.3152 50.218667-50.500267 74.769067-101.085867 103.953067-170.1376 98.184533-466.909867 90.129067-593.143466-74.897067 1.578667-5.930667 5.8112 2.551467 11.246933 3.285334 26.018133 3.541333 49.757867 17.3056 77.405867 19.447466 33.783467 2.6112 72.379733-22.0416 87.202133-51.925333 16.571733-33.425067 13.550933-66.824533-1.476267-99.959467 1.8176 0.366933 4.352-0.085333 6.459734 0 5.9392 0.238933 13.730133 0.6912 19.370666 0l10.717867-0.469333 2.2016-2.756267c32.7168-7.953067 50.286933-38.1952 80.674133-50.0992 19.498667-7.637333 42.257067-10.0608 63.146667-8.157866 48.768 4.437333 68.394667 48.136533 111.266133 58.257066z m-130.184533-38.109866c-11.758933 1.041067-30.839467 4.061867-40.8832 10.734933-33.9712 22.570667-0.878933 61.952 30.660266 66.065067 25.898667 3.3792 62.5408-9.617067 68.923734-37.597867 3.899733-17.0752-19.106133-33.006933-34.0736-36.002133-3.6608-0.733867-22.434133-3.396267-24.6272-3.2z m-3.182934 87.057066c-59.6736 9.437867-67.4816 106.837333-19.566933 137.8816 23.108267 14.976 51.080533 4.1728 65.297067-17.7664 14.062933-21.700267 13.883733-63.0528 3.029333-86.075733-7.7312-16.401067-29.636267-37.0688-48.759467-34.039467z" fill="#F9F0DD" p-id="5020"></path><path d="M184.456533 613.137067c3.1744-0.315733 6.493867 0.213333 9.685334 0l2.952533 1.536c-16.938667 22.016-40.1664 41.216-38.613333 71.253333 0.622933 12.125867 2.0224 23.3216 3.310933 35.4304 0.6656 6.2464-0.750933 12.535467 0.5888 18.7904 1.442133 6.766933 14.754133 20.753067 20.872533 24.337067 19.2256 11.272533 49.860267 18.3296 70.7072 19.694933 16.5632 1.083733 44.305067-9.429333 56.3968-20.932267 1.416533-1.348267 14.097067-16.648533 14.626134-17.664 2.517333-4.855467 10.538667-31.607467 11.170133-37.265066 2.423467-21.717333-5.879467-44.16-16.068267-62.890667 7.1936 2.2528 12.219733 2.440533 19.370667 3.2256 0.554667 1.450667 1.6896 2.9184 3.2256 3.2256 15.0272 33.134933 18.056533 66.5344 1.476267 99.959467-14.8224 29.892267-53.410133 54.536533-87.202134 51.925333-27.639467-2.133333-51.3792-15.906133-77.405866-19.447467-5.435733-0.7424-9.659733-9.224533-11.246934-3.285333-0.930133-1.211733-5.469867-2.7904-8.004266-6.5024-15.5648-22.826667-33.8944-66.244267-33.9712-93.5936-0.085333-30.4896 27.136-64.750933 58.120533-67.805867z" fill="#FAE7D2" p-id="5021"></path><path d="M833.4848 613.137067c1.911467 0.4608 4.676267-0.401067 7.364267 0.580266 27.861333 10.171733 48.802133 40.814933 47.530666 70.459734-0.5888 13.696-5.768533 32.503467-11.255466 45.252266-4.155733 9.659733-10.5984 15.240533-14.574934 22.562134h-3.2256c5.6832-14.626133 1.664-15.854933 0.64-28.040534-0.3072-3.6096 2.670933-7.534933 2.7392-12.194133 0.2048-14.250667 1.646933-35.345067-0.1536-48.5632-2.0736-15.266133-25.250133-27.255467-32.8448-41.4208-3.293867-6.152533-5.930667-9.7536 3.7888-8.6272z" fill="#F8ECD6" p-id="5022"></path><path d="M833.4848 613.137067c-9.710933-1.1264-7.082667 2.474667-3.7888 8.6272 7.586133 14.165333 30.762667 26.154667 32.8448 41.4208 1.800533 13.218133 0.3584 34.312533 0.1536 48.5632-0.068267 4.6592-3.0464 8.584533-2.7392 12.194133 1.024 12.194133 5.0432 13.4144-0.64 28.040533-3.669333 9.437867-11.144533 13.559467-13.064533 22.545067-7.560533-2.6368-15.863467-2.440533-23.466667 0.674133-4.130133 1.6896-7.099733 5.8624-11.767467 7.594667-26.4448 9.8304-53.6832 14.1056-81.851733 7.304533-6.161067-1.4848-25.617067-11.229867-29.6704-15.5392-8.5248-9.079467-21.777067-26.862933-25.966933-38.613333-6.331733-17.706667-7.492267-54.638933-0.896-72.1664 1.749333-4.642133 7.296-5.828267 5.853866-11.895467-6.357333-0.418133-13.056 0.571733-19.370666 0l58.120533-16.145066c-0.981333 16.750933-20.096 22.365867-22.596267 40.362666-4.778667 34.4064 7.586133 77.141333 44.168534 88.2176 18.432 5.5808 30.250667 3.106133 47.906133 0.759467 2.176-0.290133 4.778667 2.133333 6.528 2.065067 2.346667-0.093867 10.9056-8.686933 14.455467-10.274134 8.4992-3.797333 13.943467-1.450667 22.638933-9.6512 23.9616-22.587733 17.1776-58.1632 8.994133-86.664533l-41.3696-50.653867c9.0112-0.469333 22.280533-1.083733 30.865067-0.0512 4.053333 0.4864 4.3776 3.208533 4.6592 3.2768z" fill="#FAE1CA" p-id="5023"></path><path d="M219.9808 609.911467l1.954133 2.875733 10.9568 0.349867c1.0496 0.196267 2.218667-0.2304 3.2256 0l-30.737066 16.0768c-8.0128 6.058667-28.074667 31.735467-30.08 40.951466-2.321067 10.641067-2.304 43.042133 0 53.8368 4.599467 21.589333 35.694933 38.485333 56.055466 40.814934 14.1568 1.6128 36.872533 0.554667 50.090667-4.642134 2.4064-0.9472 17.066667-10.589867 18.577067-12.091733 2.304-2.295467 15.530667-27.050667 16.290133-30.532267 1.732267-7.867733 1.672533-33.058133 0.520533-41.4464-1.527467-11.178667-15.240533-24.251733-22.596266-32.298666-2.500267-2.7392-11.195733-8.3968-3.234134-11.298134 8.738133 3.566933 20.608 10.2656 29.064534 12.919467 10.1888 18.730667 18.4832 41.173333 16.068266 62.890667-0.631467 5.6576-8.6528 32.4096-11.170133 37.265066-0.529067 1.015467-13.201067 16.315733-14.626133 17.664-12.091733 11.502933-39.8336 22.024533-56.3968 20.932267-20.846933-1.365333-51.473067-8.4224-70.7072-19.694933-6.109867-3.584-19.421867-17.570133-20.872534-24.337067-1.3312-6.254933 0.0768-12.535467-0.5888-18.7904-1.288533-12.117333-2.688-23.313067-3.310933-35.4304-1.553067-30.037333 21.674667-49.237333 38.613333-71.253333l-2.952533-1.536v-3.2256c8.260267-0.3328 17.629867-0.477867 25.8304 0z" fill="#FBDEC6" p-id="5024"></path><path d="M291.012267 632.516267c-7.9616 2.901333 0.733867 8.558933 3.234133 11.298133 7.355733 8.046933 21.060267 21.12 22.596267 32.298667 1.152 8.388267 1.2032 33.578667-0.520534 41.4464-0.768 3.4816-13.986133 28.2368-16.290133 30.532266-1.5104 1.501867-16.170667 11.144533-18.577067 12.091734-13.218133 5.205333-35.933867 6.263467-50.090666 4.642133-20.360533-2.321067-51.456-19.2256-56.055467-40.814933-2.304-10.8032-2.312533-43.195733 0-53.8368 2.005333-9.216 22.0672-34.8928 30.08-40.951467l30.737067-16.0768c22.058667 5.051733 35.054933 11.264 54.894933 19.370667z m-19.933867 3.805866c-9.386667-9.105067-39.287467-3.822933-50.193067 1.954134-12.2112 6.4768-31.394133 34.090667-33.143466 47.5648-4.522667 34.7648 20.864 60.910933 53.930666 65.28 8.456533 1.117867 17.9968-1.527467 25.762134-4.957867 12.8512-5.666133 20.411733-12.0576 28.475733-23.1936 4.0448-13.9008 7.381333-32.0256 4.2496-46.336-1.4848-6.792533-20.770133-28.177067-26.8288-34.6624-1.297067-1.390933-1.109333-4.539733-2.2528-5.649067z" fill="#FAD3B8" p-id="5025"></path><path d="M797.969067 609.911467l41.3696 50.653866c8.183467 28.501333 14.958933 64.068267-8.994134 86.664534-8.695467 8.200533-14.139733 5.853867-22.638933 9.6512-3.549867 1.5872-12.1088 10.180267-14.455467 10.274133-1.749333 0.068267-4.352-2.3552-6.528-2.065067-17.646933 2.338133-29.4656 4.8128-47.906133-0.759466-36.5824-11.076267-48.938667-53.8112-44.168533-88.2176 2.500267-17.9968 21.623467-23.611733 22.596266-40.362667 24.072533-11.9552 53.376-24.413867 80.725334-25.8304z m-39.8592 13.422933c-3.592533 0.7936-20.5312 9.745067-23.074134 12.4416-5.495467 5.828267-19.976533 30.728533-22.7584 38.596267-5.341867 15.095467-3.2512 25.002667 2.440534 39.773866 19.899733 51.677867 82.6368 47.556267 114.005333 8.8576l1.604267-46.967466c-0.913067-6.263467-23.3216-34.722133-29.201067-38.6048-3.3792-2.2272-27.776-13.371733-31.104-14.097067-4.189867-0.9216-7.722667-0.9216-11.912533 0z" fill="#FAD5BA" p-id="5026"></path><path d="M506.333867 610.551467c2.193067-0.196267 20.957867 2.466133 24.6272 3.2 14.967467 2.9952 37.973333 18.935467 34.0736 36.002133-6.391467 27.9808-43.025067 40.977067-68.923734 37.597867-31.5392-4.113067-64.622933-43.4944-30.660266-66.065067 10.043733-6.673067 29.115733-9.693867 40.8832-10.734933z" fill="#4F3028" p-id="5027"></path><path d="M503.150933 697.608533c19.1232-3.0208 41.028267 17.6384 48.759467 34.039467 10.8544 23.022933 11.042133 64.384-3.029333 86.075733-14.216533 21.9392-42.1888 32.7424-65.297067 17.7664-47.914667-31.044267-40.106667-128.452267 19.566933-137.8816z m-6.5536 22.638934c-22.058667 4.821333-27.101867 46.8736-24.704 65.5872 4.693333 36.693333 46.216533 52.795733 64.042667 15.709866 14.6432-30.464 3.0464-90.564267-39.330133-81.3056z" fill="#513026" p-id="5028"></path><path d="M172.2112 822.357333c-78.711467-78.711467-82.6112-185.173333-54.775467-287.547733 6.656-24.465067 25.412267-63.240533 28.228267-84.7872 3.293867-25.250133-1.476267-57.582933-0.085333-84.0448 2.449067-46.702933 17.083733-149.888 45.2864-187.204267 34.107733-45.141333 76.7488-24.183467 117.4272-1.058133 29.448533 16.7424 55.765333 38.903467 81.646933 60.629333l51.3024-9.3952c42.350933-3.848533 83.413333-2.909867 125.7984 0l51.805867 9.736534c6.3232 0.0768 46.890667-36.667733 56.576-43.562667 23.8848-17.006933 72.234667-47.342933 101.5296-43.6736 20.7872 2.602667 35.968 17.3568 46.353066 34.346667 25.472 41.659733 39.133867 113.186133 42.4192 161.006933 2.176 31.675733-3.7632 69.6576 0.119467 99.976533 2.568533 20.061867 24.584533 63.6672 31.453867 88.021334 27.144533 96.196267 26.0864 191.018667-41.130667 270.5152-149.4528 176.750933-523.400533 177.570133-683.938133 17.032533z m-45.8752-141.405866c0.0768 27.349333 18.4064 70.766933 33.9712 93.5936 2.5344 3.712 7.074133 5.290667 8.004267 6.5024 126.2336 165.026133 423.005867 173.0816 593.143466 74.897066 50.577067-29.192533 73.770667-53.7344 101.085867-103.953066 3.976533-7.313067 10.4192-12.893867 14.574933-22.562134 5.486933-12.7488 10.666667-31.556267 11.255467-45.252266 5.6064-2.696533 3.1744-12.458667 3.217067-17.7664 0.4864-55.074133-3.626667-92.100267-20.027734-144.631467-5.819733-18.6624-22.9376-51.498667-25.1136-68.522667-3.234133-25.233067 1.3312-57.301333-0.119466-83.831466-2.6368-48.264533-14.250667-128.477867-39.185067-170.7008-19.3792-32.810667-43.144533-30.4896-74.914133-14.574934-36.1984 18.133333-70.971733 49.92-102.0928 75.5456l-4.846934 1.6128c-52.266667-12.9024-110.523733-16.4608-164.898133-13.184-19.601067 1.186133-42.2144 8.004267-61.277867 9.7536-25.181867 2.312533-20.1984-4.036267-35.387733-16.136533-23.620267-18.816-88.174933-65.262933-116.164267-67.874133-33.024-3.080533-45.397333 21.12-55.0656 48.529066-12.3136 34.901333-22.135467 91.067733-24.328533 127.4368-1.8688 31.010133 3.438933 66.747733 0.059733 96.930134-2.1248 19.0208-18.056533 52.027733-24.234666 72.635733-15.854933 52.9408-21.307733 88.123733-20.8896 143.7696 0.042667 5.307733-2.3808 15.0784 3.217066 17.7664z" fill="#4D2D23" p-id="5029"></path><path d="M888.379733 684.177067c1.271467-29.6448-19.669333-60.288-47.530666-70.459734-2.679467-0.981333-5.4528-0.119467-7.364267-0.580266-0.273067-0.068267-0.597333-2.7904-4.6592-3.2768-8.584533-1.032533-21.845333-0.418133-30.865067 0.0512-27.349333 1.416533-56.6528 13.8752-80.725333 25.8304l-58.120533 16.145066c-3.165867-0.290133-6.5536 0.366933-9.685334 0-0.7168-0.085333-9.472-2.414933-12.919466-3.2256-42.871467-10.120533-62.498133-53.819733-111.266134-58.257066-20.8896-1.902933-43.648 0.520533-63.146666 8.157866-30.3872 11.904-47.957333 42.146133-80.674134 50.0992-3.336533 0.810667-12.202667 3.140267-12.919466 3.2256-5.649067 0.6912-13.431467 0.238933-19.370667 0l-2.013867-2.875733c-2.500267-0.9472-5.2736-0.085333-7.671466-0.349867-7.159467-0.785067-12.1856-0.981333-19.370667-3.2256-8.456533-2.645333-20.317867-9.344-29.064533-12.919466-19.84-8.106667-32.836267-14.327467-54.894934-19.370667-1.006933-0.2304-2.176 0.196267-3.2256 0-1.937067-0.3584-5.12-2.773333-12.919466-3.2256-8.200533-0.477867-17.570133-0.3328-25.8304 0-2.542933 0.1024-5.1456-0.477867-7.671467 0.3584l-2.013867 2.875733c-30.984533 3.054933-58.205867 37.3248-58.120533 67.805867-5.597867-2.688-3.182933-12.4672-3.217067-17.7664-0.418133-55.645867 5.026133-90.837333 20.8896-143.7696 6.1696-20.608 22.101333-53.623467 24.234667-72.635733 3.3792-30.190933-1.937067-65.928533-0.059733-96.930134 2.193067-36.369067 12.014933-92.535467 24.328533-127.4368 9.668267-27.409067 22.0416-51.6096 55.0656-48.529066 27.989333 2.6112 92.552533 49.058133 116.164267 67.874133 15.189333 12.100267 10.2144 18.449067 35.387733 16.136533 19.063467-1.749333 41.668267-8.576 61.277867-9.7536 54.3744-3.285333 112.622933 0.273067 164.898133 13.184l4.846933-1.6128c31.121067-25.6256 65.8944-57.412267 102.0928-75.5456 31.7696-15.914667 55.534933-18.235733 74.914134 14.574934 24.9344 42.2144 36.548267 122.436267 39.185066 170.7008 1.450667 26.538667-3.114667 58.5984 0.119467 83.831466 2.184533 17.032533 19.293867 49.860267 25.1136 68.522667 16.392533 52.539733 20.514133 89.557333 20.027733 144.631467-0.0512 5.307733 2.3808 15.0784-3.217066 17.7664zM216.746667 304.768c-1.774933 21.316267 1.297067 44.6464 0 66.193067 5.546667 1.322667 6.417067-2.1248 9.685333-4.846934 14.72-12.2624 27.758933-30.762667 43.528533-43.656533 16.8192-13.7472 36.992-23.338667 53.290667-37.230933 1.1264-3.754667-2.850133-5.6832-4.795733-7.918934-10.308267-11.835733-38.852267-38.5792-52.343467-44.526933-26.615467-11.733333-36.565333 7.236267-42.24 30.677333-2.670933 11.025067-6.289067 31.163733-7.133867 41.301334z m577.988266 62.967467v-66.193067c0-5.341867-5.3248-27.0336-7.2448-34.730667-11.485867-46.1568-30.865067-47.573333-65.476266-18.602666-5.5808 4.667733-33.723733 32.896-33.8176 37.205333 18.210133 13.073067 40.738133 24.763733 57.9584 38.877867 13.730133 11.264 25.335467 27.332267 38.8864 38.6048 3.268267 2.722133 4.138667 6.1696 9.685333 4.846933z m-430.446933 49.066666c-22.775467 4.078933-32.529067 19.703467-27.537067 42.427734 8.106667 36.8896 90.001067 57.344 96.349867 10.2144 4.4288-32.8448-39.560533-57.890133-68.8128-52.642134z m261.5552-0.008533c-29.303467 5.0432-60.219733 38.536533-39.313067 67.1232 18.3552 25.105067 68.420267 10.129067 83.822934-12.928 23.04-34.491733-7.9104-60.4928-44.509867-54.1952zM417.493333 576.827733c0-31.9232-25.8816-57.796267-57.796266-57.796266s-57.796267 25.8816-57.796267 57.796266 25.8816 57.796267 57.796267 57.796267 57.796267-25.8816 57.796266-57.796267z m224.494934-56.704c-37.973333 6.587733-61.303467 53.572267-39.296 86.485334 23.620267 35.319467 76.330667 35.319467 99.950933 0 27.9296-41.770667-12.689067-94.805333-60.6464-86.485334z" fill="#F7C27C" p-id="5030"></path><path d="M417.493333 576.827733c0 31.9232-25.8816 57.796267-57.796266 57.796267s-57.796267-25.8816-57.796267-57.796267 25.8816-57.796267 57.796267-57.796266 57.796267 25.8816 57.796266 57.796266z m-48.4864-12.612266l14.523734 6.596266c14.506667-3.293867 24.260267-14.848 15.650133-28.714666-11.2896-18.2016-45.550933 0.878933-30.173867 22.126933z" fill="#4E3029" p-id="5031"></path><path d="M641.988267 520.123733c47.965867-8.32 88.584533 44.714667 60.6464 86.485334-23.620267 35.319467-76.330667 35.319467-99.950934 0-22.007467-32.913067 1.322667-79.889067 39.296-86.485334z m-22.826667 15.9232c-11.707733 3.370667-12.245333 26.658133 0 31.470934l20.744533-1.041067c14.276267-18.1504 2.542933-37.1456-20.744533-30.429867z" fill="#50312A" p-id="5032"></path><path d="M216.746667 304.768c0.8448-10.1376 4.462933-30.276267 7.133866-41.301333 5.6832-23.441067 15.624533-42.410667 42.24-30.677334 13.4912 5.947733 42.0352 32.682667 52.343467 44.526934 1.9456 2.235733 5.922133 4.1728 4.795733 7.918933-16.3072 13.892267-36.471467 23.483733-53.290666 37.230933-15.7696 12.885333-28.808533 31.394133-43.528534 43.656534-3.268267 2.722133-4.138667 6.1696-9.685333 4.846933 1.297067-21.546667-1.774933-44.8768 0-66.193067zM794.734933 367.735467c-5.546667 1.322667-6.417067-2.1248-9.685333-4.846934-13.550933-11.272533-25.156267-27.3408-38.8864-38.6048-17.211733-14.122667-39.748267-25.813333-57.9584-38.877866 0.093867-4.309333 28.2368-32.5376 33.8176-37.205334 34.6112-28.970667 53.9904-27.554133 65.476267 18.602667 1.92 7.7056 7.2448 29.3888 7.2448 34.730667v66.193066z" fill="#FAC6B6" p-id="5033"></path><path d="M625.8432 416.7936c36.599467-6.2976 67.541333 19.694933 44.509867 54.1952-15.402667 23.057067-65.467733 38.0416-83.822934 12.928-20.906667-28.5952 10.0096-62.08 39.313067-67.1232zM364.288 416.802133c29.252267-5.239467 73.233067 19.805867 68.8128 52.642134-6.3488 47.1296-88.2432 26.6752-96.349867-10.2144-4.992-22.7328 4.7616-38.3488 27.537067-42.427734z" fill="#F8EEDD" p-id="5034"></path><path d="M381.422933 648.661333l-2.2016 2.756267-10.717866 0.469333c0.7168-0.085333 9.582933-2.414933 12.919466-3.2256z" fill="#FBDEC6" p-id="5035"></path><path d="M232.891733 613.137067l-10.9568-0.349867-1.954133-2.875733c7.799467 0.452267 10.9824 2.8672 12.919467 3.2256z" fill="#FAD3B8" p-id="5036"></path><path d="M649.429333 651.886933l-10.717866-0.469333-2.193067-2.756267c3.447467 0.810667 12.202667 3.1488 12.919467 3.2256z" fill="#FAE1CA" p-id="5037"></path><path d="M194.141867 609.911467v3.2256c-3.2 0.213333-6.510933-0.315733-9.685334 0l2.013867-2.875734c2.525867-0.836267 5.128533-0.256 7.671467-0.3584z" fill="#FAD3B8" p-id="5038"></path><path d="M349.141333 651.886933c-2.107733-0.085333-4.642133 0.366933-6.459733 0-1.536-0.315733-2.679467-1.774933-3.2256-3.2256 2.397867 0.264533 5.179733-0.597333 7.671467 0.349867l2.013866 2.875733z" fill="#FBDEC6" p-id="5039"></path><path d="M369.006933 564.215467c-15.377067-21.248 18.884267-40.328533 30.173867-22.126934 8.6016 13.866667-1.143467 25.429333-15.650133 28.714667l-14.523734-6.596267z" fill="#F5EDD8" p-id="5040"></path><path d="M619.1616 536.046933c23.287467-6.7072 35.0208 12.279467 20.744533 30.429867l-20.744533 1.041067c-12.245333-4.8128-11.707733-28.100267 0-31.470934z" fill="#E7DDCB" p-id="5041"></path><path d="M271.0784 636.322133c1.143467 1.109333 0.955733 4.258133 2.2528 5.649067 6.058667 6.493867 25.344 27.869867 26.8288 34.6624 3.131733 14.318933-0.2048 32.4352-4.2496 46.336-8.064 11.136-15.633067 17.527467-28.475733 23.1936-7.765333 3.421867-17.3056 6.075733-25.762134 4.957867-33.066667-4.3776-58.453333-30.523733-53.930666-65.28 1.757867-13.474133 20.932267-41.096533 33.143466-47.5648 10.897067-5.777067 40.797867-11.0592 50.193067-1.954134z m-32.827733 16.093867c-5.6064 1.262933-22.869333 10.999467-26.282667 15.6672-32.110933 43.938133 36.096 92.16 65.6896 46.318933 18.466133-28.5952-6.0928-69.495467-39.406933-61.986133z" fill="#FAC9AB" p-id="5042"></path><path d="M758.109867 623.3344c4.189867-0.9216 7.722667-0.9216 11.912533 0 3.328 0.733867 27.7248 11.869867 31.104 14.097067 5.888 3.882667 28.288 32.341333 29.201067 38.6048l-1.604267 46.967466c-31.368533 38.698667-94.1056 42.811733-114.005333-8.8576-5.691733-14.7712-7.7824-24.686933-2.440534-39.773866 2.781867-7.8592 17.262933-32.768 22.7584-38.596267 2.542933-2.696533 19.4816-11.648 23.074134-12.4416z m0.0256 22.647467c-9.053867 1.9968-26.717867 27.7504-27.963734 36.573866-2.824533 19.8912 9.216 41.924267 28.032 49.442134 16.768 6.698667 48.605867-7.304533 54.4512-25.053867 9.326933-28.296533-25.540267-67.345067-54.510933-60.962133z" fill="#F9CCAF" p-id="5043"></path><path d="M496.597333 720.247467c42.376533-9.258667 53.973333 50.833067 39.330134 81.3056-17.826133 37.085867-59.3408 20.974933-64.042667-15.709867-2.397867-18.7136 2.645333-60.7744 24.704-65.5872z" fill="#F57C5D" p-id="5044"></path><path d="M238.250667 652.416c33.314133-7.509333 57.864533 33.390933 39.406933 61.986133-29.5936 45.841067-97.800533-2.372267-65.6896-46.318933 3.413333-4.676267 20.6848-14.404267 26.282667-15.6672z" fill="#FBBE9D" p-id="5045"></path><path d="M758.135467 645.981867c28.9792-6.382933 63.8464 32.6656 54.510933 60.962133-5.853867 17.749333-37.6832 31.761067-54.4512 25.053867-18.807467-7.517867-30.848-29.550933-28.032-49.442134 1.2544-8.823467 18.909867-34.577067 27.963733-36.573866z" fill="#FABE9D" p-id="5046"></path></svg>