<?xml version="1.0" standalone="no"?><!DOCTYPE svg PUBLIC "-//W3C//DTD SVG 1.1//EN" "http://www.w3.org/Graphics/SVG/1.1/DTD/svg11.dtd"><svg t="1772951564943" class="icon" viewBox="0 0 1024 1024" version="1.1" xmlns="http://www.w3.org/2000/svg" p-id="4445" xmlns:xlink="http://www.w3.org/1999/xlink" width="200" height="200"><path d="M977.866812 637.003505c-6.417054-9.147715-8.021317-20.462892-13.48264-30.788204-12.663441-23.927418-26.828745-29.294874-50.269764-40.046852-5.273589-2.423462-5.836788-2.073596-10.623978-3.541326-2.457595-0.750932-2.594128-2.892794-10.623979-3.541326 1.911463-8.951448-3.848526-7.039986-9.497581-9.90718-33.100733-16.810632-72.277186-17.732231-108.407246-10.598379-29.038874 5.734388-30.737004 17.902897-50.261231 34.747663-7.884784 6.801053-29.866606 18.551429-33.706598 26.504479-2.670928 5.529589 2.943994 6.220787 7.074119 5.29919v3.541326c-6.963186-0.128-14.455437 0.614399-21.247957 0-49.424966-4.479991-66.039332-41.241516-105.207253-59.485746-33.296999-15.513568-84.129962-16.503433-117.981626-2.551461-40.191918 16.563166-64.460669 56.942818-109.746977 62.037207-7.842117 0.878932-16.742366-0.597332-24.789283 0v-3.541326c5.887988 0 11.827176 0.008533 17.706631 0-11.340777-15.923168-29.405807-26.513013-44.33911-38.886321-14.242104-11.793043-18.235696-23.517819-39.568987-27.733277-34.40633-6.79252-70.741189-4.855457-103.910188 8.08105-5.973321 2.329595-11.34931 4.898123-10.521579 12.501308-1.67253 0.068267-3.353593-0.273066-4.983456 0.383999l-2.099196 3.157327c-9.847447 0.298666-10.769045 1.57013-17.706631 3.541326-33.527398 9.540247-63.402538 38.084189-67.29373 74.376382-6.143988-2.961061-3.481593-13.670372-3.532792-19.490093-0.571732-64.895868 9.343981-118.331493 29.05594-179.899368 6.476787-20.241026 25.190349-56.729485 27.554078-75.161447 4.778657-37.324724-2.286929-85.02596-0.093867-124.057348 2.619728-46.651638 18.585562-140.89358 41.036717-182.100963 28.697542-52.684693 71.637188-30.446871 112.639771-6.681586 37.631923 21.811156 75.067581 51.455895 107.221115 80.614236 17.126365-2.790394 35.82286-8.072517 52.778559-10.265579 62.557739-8.115183 128.477605-8.149317 191.137745 0 18.210096 2.363729 37.708723 8.36265 56.268686 10.316779 36.061793-31.778069 77.473976-66.448932 120.200289-88.993953 34.133264-18.005297 65.117734-30.745537 92.629145 4.386125 33.220199 42.427647 49.134833 160.375141 51.660695 213.981431 1.578663 33.424999-4.172792 74.487315-0.093867 106.350717 3.259727 25.471948 28.893808 78.429707 37.230858 107.989114 15.436769 54.775355 22.783954 102.834991 15.837834 159.479142zM156.151149 265.104528c6.084254 1.450664 7.039986-2.329595 10.623979-5.316256 14.216504-11.835709 26.589813-28.646342 40.66125-40.797784 21.35889-18.449029 46.395639-31.530603 69.051593-47.829236 9.98398-7.185052 9.130648-10.990911 1.868796-19.421827-12.543974-14.56637-48.324168-49.416433-65.356667-55.065488-44.219643-14.64317-50.227098 48.307102-53.91349 77.508109-0.255999 2.056529-2.943994 3.34506-2.943994 4.138658v86.77529z m708.37616-3.541327c0.017067-45.661774 0.435199-99.268065-14.92477-142.685576-12.953574-36.599392-44.432976-25.352482-68.368928-6.135454-7.304518 5.862388-45.98604 44.868175-44.21111 51.344962 23.270353 18.03943 50.295364 32.204735 72.678253 51.362029 14.353037 12.287975 27.938077 31.607402 42.350847 42.649513 4.522657 3.464526 6.51092 4.360524 12.475708 3.455993z m-536.020244 60.791344c-13.218106 2.884261-27.170078 16.938632-30.097005 30.105538-11.861309 53.282025 84.309162 95.795005 112.306972 48.554568 10.700778-18.056497 7.321585-34.61113-5.009057-50.756163-15.769568-20.633558-51.763095-33.467665-77.192376-27.903943z m325.964138 0.102399c-20.369025 3.44746-52.462827 25.352482-55.568954 47.129505-11.076244 77.516642 109.106978 55.483621 116.863762 3.532792 6.186654-41.420716-23.867685-57.011084-61.294808-50.67083zM289.723144 453.579878c-22.911953 3.225593-63.274538 26.009547-55.202021 53.708691 5.922121 20.343425 50.022298 0.2048 65.143334-1.245865 20.642091-1.979729 51.993494 8.200517 70.220658 18.16743 11.519977 6.306121 21.811156 21.35889 36.104459 10.205846 10.461845-16.051167-14.114105-48.452168-26.854345-58.427615-24.379684-19.097561-58.85428-26.726346-89.412085-22.425554z m316.406824 84.095829c21.171157 2.961061 36.966325-16.008501 56.388152-22.988754 16.5461-5.956255 48.085236-7.441052 65.5956-5.128522 10.956778 1.44213 32.196201 13.25224 42.146047 10.231445 2.440528-0.742398 11.716243-10.018113 12.458641-12.458641 4.232525-13.926372-16.503433-35.643661-28.125809-41.949781-47.086838-25.574348-117.725627-7.825051-144.622639 39.253253-6.118388 10.709312-9.224515 21.614889-3.831459 33.049533z" fill="#F7C17B" p-id="4446"></path><path d="M156.151149 265.104528V178.329237c0-0.793598 2.687995-2.082129 2.943994-4.138658 3.686393-29.201007 9.685314-92.159813 53.913491-77.508109 17.041032 5.640522 52.821226 40.499118 65.356667 55.065488 7.261852 8.430916 8.115183 12.236775-1.868797 19.421827-22.664487 16.298634-47.692703 29.371674-69.051592 47.829236-14.071438 12.159975-26.444746 28.970608-40.661251 40.797784-3.583993 2.986661-4.539724 6.76692-10.623979 5.316256z" fill="#F8C5B2" p-id="4447"></path><path d="M864.527309 261.563201c-5.956255 0.904531-7.95305 0-12.475708-3.455992-14.412771-11.042111-28.006343-30.361538-42.350847-42.649514-22.374355-19.165828-49.4079-33.331132-72.678253-51.362029-1.783463-6.476787 36.906592-45.482574 44.21111-51.344962 23.944485-19.217028 55.415354-30.463938 68.368928 6.135454 15.359969 43.408978 14.941836 97.023803 14.92477 142.685577z" fill="#F7C7B4" p-id="4448"></path><path d="M328.507065 322.354545c25.429282-5.555189 61.422808 7.270385 77.192377 27.903943 12.339175 16.145034 15.718368 32.699667 5.009056 50.756163-27.99781 47.240437-124.159748 4.727457-112.306971-48.554568 2.926927-13.166907 16.887432-27.212745 30.097005-30.105538z" fill="#F6EDDB" p-id="4449"></path><path d="M654.471203 322.456944c37.427124-6.340254 67.481463 9.250115 61.294808 50.670831-7.756784 51.942294-127.94854 73.975316-116.863762-3.532793 3.11466-21.785556 35.199928-43.682045 55.568954-47.129504z" fill="#F6ECDA" p-id="4450"></path><path d="M606.129968 537.675707c-5.393056-11.434643-2.286929-22.340221 3.831458-33.049533 26.905545-47.078304 97.535802-64.827602 144.62264-39.253254 11.622376 6.314654 32.366868 28.031943 28.125809 41.949782-0.742398 2.440528-10.018113 11.716243-12.458641 12.458641-9.941313 3.020794-31.18927-8.780782-42.146048-10.231446-17.510364-2.312529-49.040967-0.827732-65.5956 5.128523-19.421827 6.988786-35.216995 25.958347-56.388152 22.988753zM289.723144 453.579878c30.557805-4.309325 65.032401 3.327993 89.412085 22.425554 12.740241 9.975446 37.316191 42.376447 26.854345 58.427615-14.293304 11.144511-24.593017-3.908259-36.104459-10.205846-18.227163-9.975446-49.578566-20.155692-70.220658-18.16743-15.121036 1.450664-59.221213 21.589289-65.143334 1.245864-8.063984-27.707677 32.290068-50.483097 55.202021-53.708691z" fill="#4E2E26" p-id="4451"></path><path d="M138.444518 559.085797c-0.827732-7.603185 4.548257-10.171713 10.521579-12.501308 33.177533-12.936507 69.503859-14.865036 103.910189-8.081051 21.33329 4.206925 25.326882 15.940234 39.568986 27.733277 14.933303 12.373308 33.006866 22.963153 44.33911 38.886321-5.887988 0.017067-11.818643 0-17.706631 0-5.478389 0-12.842641 0.861865-17.70663 0-2.380795-0.418132-16.5717-5.418656-21.247957-7.082652-8.345583-2.969594-21.265023-10.291179-31.880469-14.165305-23.859151-8.712516-45.166841-17.100765-70.835056-21.247956-9.75358-1.578663-29.46554-3.908259-38.963121-3.541326z" fill="#F4A673" p-id="4452"></path><path d="M698.059381 605.13157c-4.130125 0.921598-9.745047 0.2304-7.074119-5.29919 3.839992-7.961584 25.821814-19.703427 33.706598-26.504479 19.524227-16.836232 21.213824-29.013274 50.261231-34.747663 36.13006-7.133852 75.306514-6.203721 108.407246 10.598379 5.649055 2.867194 11.409043 0.964265 9.497581 9.90718-17.083699-1.382397-29.943406 1.638397-46.045773 3.541326-37.026058 4.369058-42.265514 8.149317-74.376382 21.247956-10.709312 4.369058-25.668214 10.990911-35.421795 14.165305-12.364775 4.027725-25.975414 7.415452-38.963121 7.082652z" fill="#F5A876" p-id="4453"></path><path d="M831.716709 0c26.265547 1.023998 45.141242 12.936507 61.209475 33.049533 36.00206 45.038842 53.785491 159.146343 56.763618 215.969694 1.902929 36.25806-4.932257 82.892631-0.153599 117.034429 1.194664 8.507716 10.214379 23.330086 13.414372 32.6314 37.196724 108.28778 66.158799 211.71157 20.292226 323.378542-32.307134 78.660107-99.506998 135.381058-173.789514 173.320181-2.056529 25.864481-1.151998 49.851632-16.247433 72.302787-37.947656 56.422285-130.380535 71.338522-188.492417 40.703917-19.268227-10.154646-34.261264-26.521546-49.971098-41.130583-20.607958 3.788792-46.224973 3.985059-67.583863 2.841594-8.191983-0.443732-15.283169-6.920519-22.971687-2.030929-54.442556 72.388119-188.884949 75.980646-240.246978-0.383999-15.103969-22.451154-14.190904-46.438306-16.247433-72.302787C133.469595 858.323588 66.576931 797.796778 37.461257 718.505206 4.036258 627.463257 15.948768 532.58985 44.501243 442.111101c6.340254-20.087426 29.243674-66.824397 30.335938-83.302231 0.392533-5.930655-3.575459-10.948244-3.839992-17.399431-1.72373-41.446316 3.566926-83.447297 7.167985-124.193881 4.599457-52.019094 13.550906-123.076016 39.594587-169.377789C141.269046 6.015988 176.025242-9.002648 222.378214 9.386648c52.974826 21.017557 101.409927 60.194011 144.921306 96.008338 18.440496-3.37066 37.54659-4.659191 56.200419-6.81812 15.078369-1.740796 34.926862-6.084254 49.723632-6.946119 59.16148-3.464526 119.039758 5.222389 177.057773 14.250638 7.867717-1.006931 14.711437-12.654908 21.145557-17.93703C714.247081 52.752959 776.582954 8.814915 831.716709 0zM46.352972 640.544831c-3.404793 31.786602 23.304486 93.098477 40.823384 120.473355 1.57013 2.457595 4.846923 2.952527 5.213856 3.490126 23.022887 33.698065 43.255379 55.654287 78.079841 79.539038 6.681586 4.582391 41.582849 27.647944 45.875107 23.167953 1.604263-17.134898 10.231446-30.967404 16.093834-45.892173 2.218662-5.657588 2.150396-11.212777 5.17119-17.86023 2.525862-5.563722 7.423985-15.377035 10.623978-21.247957 5.444256-9.98398 17.877297-29.815406 24.789283-38.963121 6.425587-8.499183 27.263945-31.999935 35.421794-38.963121 2.355195-2.005329 11.741843-8.985582 14.165305-10.623978 3.046394-2.056529 21.836756-12.927974 24.789283-14.165305 5.947721-2.483195 34.235664-9.77918 40.81485-10.538645 33.612732-3.908259 69.188126 11.545577 88.439287 38.783921 20.104492-14.301838 43.451645-13.747172 63.829204-0.358399 35.413261-42.214314 83.865429-48.827634 132.769863-24.345551 8.490649 4.249591 23.987151 15.138103 31.880469 21.247957 10.794645 8.36265 27.118878 24.695416 35.421794 35.421795 7.97865 10.308246 22.015955 31.249003 28.339143 42.504447 2.696528 4.804257 8.18345 16.051167 10.623978 21.247957 7.500785 15.965834 16.631433 41.437782 21.17969 58.59828 0.785065 2.969594-1.356797 7.577585 5.290656 5.06879 19.729027-7.441052 57.924149-35.046329 74.547049-49.424966 22.050088-19.071961 35.583928-37.486857 51.285229-60.279344 28.834075-41.838848 39.662853-68.411594 46.045773-120.422155 6.946119-56.652685-0.401066-104.71232-15.837835-159.479143-8.33705-29.559407-33.962598-82.517166-37.230857-107.989113-4.078925-31.863402 1.67253-72.925718 0.093866-106.350717-2.534395-53.606291-18.440496-171.545251-51.660695-213.981432-27.511411-35.131662-58.495881-22.391421-92.629145-4.386124-42.734846 22.545021-84.147029 57.215884-120.200289 88.993952-18.559962-1.954129-38.058589-7.95305-56.268685-10.316779-62.660139-8.149317-128.580005-8.115183-191.137745 0-16.955699 2.201596-35.643661 7.475185-52.778559 10.265579-32.162068-29.158341-69.597725-58.80308-107.221116-80.614236-41.002583-23.765285-83.942229-46.003106-112.639771 6.681586-22.451154 41.215916-38.416989 135.449325-41.036716 182.100963-2.193062 39.031387 4.872523 86.732624 0.093866 124.057348-2.363729 18.431963-21.068757 54.928955-27.554077 75.161447-19.71196 61.567875-29.627673 115.003499-29.055941 179.899368 0.0512 5.819721-2.611195 16.537566 3.532793 19.490094z m389.520275 60.313477c-21.068757-7.850651-42.51298-11.27251-63.803604-2.005329l-3.08906 3.993592c-1.64693 18.19303-5.734388 79.897438-31.769535 48.861767-1.894396-6.442654 2.329595-22.655954 3.754659-30.839404 0.716799-4.113058 7.475185-6.553587-2.389329-5.930654-37.538057 28.475675-67.21693 73.292651-85.068627 116.821095-26.743412 65.186001-36.701792 127.803473 40.738051 157.72128 138.760251 53.614824 228.02727-118.834958 183.466293-233.053393-4.744524-12.168509-12.859707-22.331688-16.955699-34.414863-15.718368 12.552508-8.012784 41.352449-26.982345 52.898025-9.67678-1.390931-14.105571-5.128523-14.958903-15.052769l17.075166-58.999347z m237.396851 14.079972c5.836788 17.877297 15.752501 44.279377-12.228242 42.33378-8.908782-2.517328-11.963709-44.560976-12.876774-54.425489l-3.08906-3.993592c-13.004774-8.703982-48.213235-6.48532-60.424411 3.652259-5.196789 4.317858-1.59573 3.959459-0.691198 7.765318 3.19146 13.414373 21.043157 51.225496 10.982377 60.885209-4.565324 4.386124-15.445302 2.406395-19.165827-3.01226l-14.062905-46.131106c-8.874649 11.161577-17.279965 24.55035-22.254888 37.956189-9.668247 26.06928-12.236775 64.315603-7.782384 91.238215 15.590368 94.148075 89.087819 177.731905 191.240144 138.256785 76.501178-29.559407 67.21693-93.320344 40.738051-157.721279-17.706631-43.050579-43.519912-82.397699-79.743838-111.521907-3.592526-2.884261-4.497058-6.818119-10.632512-5.299189z m-162.943669 53.111358l14.114105-36.974858-15.325836-8.678382c-20.932224 5.734388-9.890113 23.014353-4.027725 38.527921 1.339731 3.532793 0.418132 8.115183 5.239456 7.116786z m28.347676 173.559114l-12.458642-24.72955-17.646897-49.655365-9.617047 36.437259-16.947166 37.956189h56.669752z" fill="#4A2A21" p-id="4454"></path><path d="M435.873247 700.858308l-17.075165 58.999347c0.853332 9.924246 5.282123 13.670372 14.958903 15.052769 18.969561-11.545577 11.263977-40.345518 26.982345-52.898025 4.095992 12.083175 12.211175 22.246355 16.955699 34.414863 44.560976 114.218434-44.706042 286.668217-183.466294 233.053393-77.439843-29.917806-67.472929-92.535279-40.73805-157.72128 17.86023-43.528445 47.539103-88.34542 85.068627-116.821095 9.85598-0.622932 3.106127 1.817596 2.389328 5.930654-1.425064 8.18345-5.649055 24.39675-3.754659 30.839404 26.04368 31.03567 30.131139-30.668738 31.769535-48.861767l3.089061-3.993592c21.290623-9.267181 42.734846-5.853855 63.803603 2.005329zM673.270098 714.93828c6.135454-1.51893 7.039986 2.414928 10.632511 5.299189 36.223926 29.124207 62.037207 68.471327 79.743838 111.521906 26.487413 64.400936 35.763127 128.161873-40.73805 157.72128-102.152326 39.466586-175.649776-44.10871-191.240145-138.256786-4.454391-26.922612-1.885863-65.168934 7.782384-91.238214 4.974923-13.405839 13.380239-26.803146 22.254889-37.95619l14.062904 46.131106c3.720526 5.418656 14.600504 7.398385 19.165828 3.012261 10.069313-9.659714-7.782384-47.470837-10.982378-60.88521-0.904531-3.805859-4.505591-3.455993 0.691199-7.765317 12.211175-10.137579 47.419637-12.364775 60.42441-3.652259l3.089061 3.993592c0.913065 9.85598 3.967992 51.899628 12.876774 54.425489 27.989276 1.954129 18.06503-24.456484 12.228241-42.333781z" fill="#F8EEDC" p-id="4455"></path><path d="M676.811424 608.672896l8.831982 7.005852c-1.629863 18.346629-4.078925 36.633526-5.282123 55.014288-0.452266 6.937586 3.822926 14.284771-7.091185 12.364775-48.904434-24.482084-97.356602-17.868764-132.769864 24.345551-20.377559-13.388773-43.716178-13.943438-63.829203 0.358399-19.251161-27.238345-54.826555-42.69218-88.439287-38.783921-6.579187 0.767998-34.875662 8.05545-40.81485 10.538645l-7.236252-37.034591 3.694925-33.800465c45.277775-5.09439 69.555059-45.474041 109.746977-62.037207 33.851665-13.951972 84.684628-12.962107 117.981627 2.551461 39.16792 18.24423 55.79082 55.005755 105.207253 59.485746z m-107.007783-27.588211c-1.382397-1.365331-14.122638-8.524783-16.887432-9.67678-24.558883-10.231446-49.860165-11.29811-75.47718-4.488524-59.042013 15.692768-43.758844 70.61319 7.091186 87.048356 38.613255 12.484241 100.266463-10.956778 93.18381-57.770549-0.324266-2.150396-6.707186-13.934905-7.90185-15.112503z" fill="#F8EEDB" p-id="4456"></path><path d="M892.866451 559.085797c8.038384 0.648532 8.166383 2.790394 10.623979 3.541326l-21.247957 1.766396c2.457595 5.623455 11.042111 7.193585 13.431439 9.591447 2.764794 2.764794 15.129569 18.594096 17.954097 22.783954 7.415452 10.990911 22.015955 43.724711 22.015955 56.183352 0 5.794122-9.130648 37.538057-11.639443 45.311908-4.701857 14.574904-11.690643 26.811679-24.140751 36.070327-21.213824 15.769568-42.64098 25.949814-68.966259 28.799941-5.051723 0.546132-14.711437 0.844798-21.33329 1.322664-27.255411 1.962663-35.959394-7.244785-56.533219-21.247957-2.175996-1.476264-11.281044-9.873047-12.458641-3.473059-8.294383-10.726378-24.618617-27.059145-35.421795-35.421795 7.150919-2.039463-3.805859-6.237854-3.686392-12.322108 0.068267-3.507193 3.37066-7.065586 3.618126-10.777578 0.921598-13.678906-1.59573-29.303407 0.119466-42.359381 1.288531-9.813313 9.386648-19.208494 7.031452-30.156738-4.701857-0.0768-9.463447 0.085333-14.173837 0v-3.541326c12.987707 0.332799 26.598346-3.054927 38.96312-7.082653 0.930131 12.791441-7.441052 21.589289-9.88158 34.389264-1.160531 6.075721 0.0512 11.613843-0.793598 16.913032-0.938665 5.905055-5.649055 12.910907-5.751455 17.732231-0.247466 11.613843 8.089584 34.107664 16.281567 42.675113 6.271987 6.553587 37.264991 29.67034 45.098575 32.827666 21.10289 8.516249 58.282548 4.582391 79.086773-4.55679 7.159452-3.148794 32.307134-21.12849 37.128457-26.623946 11.835709-13.465573 18.338096-55.048421 15.923168-72.618519-0.366933-2.636795-10.205846-25.002616-11.195711-26.009547-1.655463-1.689597-7.526385-1.919996-10.052246-4.095992-2.594128-2.244262-4.616524-9.70238-10.623978-10.623978l-35.421795-35.421795c16.102367-1.902929 28.962074-4.923723 46.045773-3.541326z" fill="#F6B89F" p-id="4457"></path><path d="M113.646702 566.168449c10.632512-1.510397 6.835186 2.773328 2.961061 8.268783-10.239979 14.523704-24.038351 26.521546-30.540738 43.835644-10.641045 28.339142-9.59998 62.22494 0 90.589683 3.532793 10.436245 20.804224 34.55993 29.28634 41.548715 3.362126 2.764794 30.062872 18.474629 33.518866 19.60956 8.550383 2.798928 15.803701 5.06879 23.944484 7.935984 15.743968 5.546655 46.651638 6.71572 63.658538 7.150919 6.698653 0.170666 9.847447-10.069313 11.767442-2.884261-3.199993 5.879455-8.098117 15.692768-10.623978 21.247957l-26.495946-0.085333c-26.385013-6.075721-57.275617-7.586118-81.040902-21.657556-7.159452-4.241058-14.079971-12.330642-22.323155-16.631433-4.360524-2.269862-12.561041-8.396783-15.351435-0.588799-0.375466-0.546132-3.643726-1.041065-5.213856-3.490126-17.518898-27.374878-44.23671-88.686753-40.823384-120.473355 3.891192-36.292193 33.766331-64.844668 67.29373-74.376382z" fill="#F8E2CD" p-id="4458"></path><path d="M138.444518 559.085797c9.497581-0.366933 29.201007 1.962663 38.963121 3.541326 7.005852 10.461845 1.69813 4.846923-3.421859 8.849048-9.685314 7.586118-16.657033 15.479435-24.917283 23.022887-0.443732 0.409599-5.102923-0.725332-8.840515 3.464526-9.386648 10.538645-22.476754 33.203132-30.122606 46.122573-2.611195 4.411724-4.326391 3.780259-3.729059 12.509841 2.969594 43.460178 30.916204 68.206795 68.539594 83.83983 3.353593 1.390931 5.597855 5.051723 8.31145 5.853855 5.384522 1.59573 46.830838 1.64693 52.181227 0.076799 19.746093-15.231969 41.787648-28.373276 58.444681-47.812169-1.740796-8.831982 3.285327-17.476231 3.899726-24.42235 1.80053-20.394625-6.61332-44.552443-15.650102-62.122541-1.82613-3.549859-9.634114-11.886909-1.979729-13.960505 4.676257 1.663997 18.875695 6.66452 21.247957 7.082653 2.636795 34.064997 17.681031 64.784935 7.082652 99.174198-8.15785 6.963186-28.996208 30.455405-35.421795 38.963121-1.484797-7.074119-8.866115 3.694926-10.623978 5.316256-3.532793 3.259727-9.181848 10.879978-12.834107 11.955175-5.307723 1.561597-11.647976-0.341333-17.211699 0.494933-21.973289 3.31946-29.713006 7.278919-51.430295-1.809063-3.020794-1.262931-5.580789 1.476264-8.243183 1.041064-2.636795-0.435199-19.208494-7.389852-22.613288-9.156248-19.046361-9.873047-44.168444-35.831394-49.834565-56.422285-9.608514-34.909796-2.500262-74.035049 20.428758-102.015793 8.05545-9.83038 19.976493-18.423429 28.398876-28.279409-3.575459-3.353593-12.646374-1.919996-17.706631-1.766396l2.099196-3.157327c1.629863-0.665599 3.310927-0.324266 4.983456-0.383999z" fill="#F5B69D" p-id="4459"></path><path d="M914.114408 566.168449c23.441019 10.751978 37.606324 16.119434 50.269764 40.046852 5.461322 10.325312 7.074119 21.640489 13.48264 30.788204-6.374387 52.019094-17.211698 78.583307-46.045773 120.422155-8.422383 9.710914-17.237298 5.102923-26.069281 7.577584-4.667724 1.305597-17.698097 12.646374-23.560485 15.402636-13.038907 6.143988-40.951383 14.61757-54.928955 15.906101-15.803701 1.46773-34.628196-4.181325-47.743903 7.159452-2.440528-5.196789-7.927451-16.4437-10.623978-21.247957l65.442-0.0768c20.821291-2.082129 59.468679-20.863958 76.074512-33.723664 38.886321-30.105539 50.69643-98.1246 27.97221-141.013047-6.246387-11.793043-16.913032-24.490617-26.052214-34.158864-4.932257-5.213856-9.88158-7.884784 1.77493-7.082652z" fill="#F7E1CB" p-id="4460"></path><path d="M903.49043 562.627123c4.78719 1.46773 5.350389 1.117864 10.623978 3.541326-11.65651-0.793598-6.698653 1.868796-1.77493 7.082652 9.139181 9.668247 19.805826 22.365821 26.052214 34.158864 22.715687 42.888446 10.905578 110.907508-27.97221 141.013047-16.605833 12.859707-55.253221 31.641536-76.074512 33.723664l-65.442 0.0768c-6.323187-11.255444-20.360492-32.187668-28.339142-42.504447 1.177598-6.391454 10.291179 1.996796 12.458641 3.47306 20.573825 14.003172 29.277807 23.210619 56.533218 21.247957 6.621853-0.477866 16.281567-0.776532 21.33329-1.322664 26.32528-2.850128 47.76097-13.030374 68.96626-28.799942 12.450108-9.258648 19.447427-21.48689 24.140751-36.070326 2.508795-7.773851 11.639443-39.517786 11.639443-45.311908 0-12.458641-14.609037-45.192441-22.015955-56.183353-2.824528-4.189858-15.189302-20.010626-17.954097-22.783953-2.389328-2.397862-10.973844-3.967992-13.43144-9.591448l21.247957-1.766396z" fill="#F8D1BA" p-id="4461"></path><path d="M131.353333 562.627123c5.051723-0.1536 14.131171-1.587197 17.706631 1.766396-8.41385 9.85598-20.334892 18.440496-28.398876 28.279409-22.92902 27.980743-30.028739 67.105997-20.428758 102.015793 5.666122 20.590891 30.779671 46.557772 49.834565 56.422285 3.404793 1.766396 19.985026 8.721049 22.613287 9.156248 2.653861 0.435199 5.222389-2.303995 8.243183-1.041064 21.717289 9.087982 29.457007 5.137056 51.430296 1.809063 5.563722-0.844798 11.903976 1.066664 17.211698-0.494933 3.652259-1.075198 9.301314-8.703982 12.834107-11.955175 1.757863-1.62133 9.147715-12.390375 10.623979-5.316256-6.911986 9.147715-19.353561 28.970608-24.789283 38.96312-1.911463-7.185052-5.06879 3.054927-11.767443 2.884261-17.006899-0.435199-47.914569-1.604263-63.658537-7.150919-8.13225-2.867194-15.394102-5.137056-23.944485-7.935983-3.455993-1.126398-30.165272-16.844766-33.518865-19.609561-8.482116-6.988786-25.753548-31.11247-29.28634-41.548715-9.608514-28.356209-10.649578-62.25054 0-90.589683 6.502387-17.314098 20.300759-29.31194 30.540738-43.835644 3.874125-5.495455 7.671451-9.77918-2.961061-8.268783 6.946119-1.971196 7.867717-3.251193 17.706631-3.541326z" fill="#F7CDB5" p-id="4462"></path><path d="M931.829572 757.434193c-15.709835 22.792487-29.235141 41.215916-51.285229 60.279344-16.6229 14.378637-54.826555 41.992448-74.547049 49.424966-6.647453 2.508795-4.505591-2.099196-5.290655-5.068789-4.539724-17.160498-13.678906-42.632447-21.179691-58.598281 13.115707-11.332244 31.940202-5.691722 47.743903-7.159452 13.977572-1.297064 41.890048-9.770647 54.928955-15.906101 5.862388-2.756261 18.884228-14.097038 23.560486-15.402636 8.831982-2.474662 17.646897 2.133329 26.06928-7.577584zM237.610184 803.471433c-3.020794 6.647453-2.952527 12.202642-5.17119 17.86023-5.862388 14.92477-14.489571 28.757275-16.093834 45.892174-4.292258 4.479991-39.19352-18.585562-45.875107-23.167953-34.824463-23.884751-55.056955-45.840973-78.079841-79.539039 2.790394-7.807984 10.999444-1.681063 15.351436 0.588799 8.243183 4.300791 15.163703 12.390375 22.323154 16.631433 23.765285 14.071438 54.664422 15.581835 81.040902 21.657556l26.495946 0.085333z" fill="#F7ECDA" p-id="4463"></path><path d="M698.059381 608.672896c4.71039 0.085333 9.471981-0.0768 14.173837 0 2.355195 10.948244-5.742922 20.343425-7.031452 30.156738-1.715197 13.055973 0.793598 28.680475-0.119466 42.359381-0.247466 3.711992-3.549859 7.270385-3.618126 10.777578-0.119466 6.092788 10.837311 10.291179 3.686392 12.322108-7.893317-6.109854-23.389819-16.998365-31.880468-21.247957 10.914111 1.911463 6.63892-5.435722 7.091185-12.364774 1.203198-18.372229 3.652259-36.667659 5.282123-55.014289l-8.831982-7.005852c6.79252 0.614399 14.284771-0.128 21.247957 0z" fill="#F7D5BF" p-id="4464"></path><path d="M538.674105 941.608752h-56.669752l16.947166-37.956189 9.617047-36.428726 17.646897 49.655365 12.458642 24.72955z" fill="#F4ECDC" p-id="4465"></path><path d="M343.867034 608.672896l-3.694926 33.800464 7.236252 37.034592c-2.952527 1.237331-21.751422 12.108775-24.789283 14.165304 8.499183-13.439973 1.604263-28.091676 0.059734-40.797784-0.708265-5.828255 0.708265-11.912509-0.110934-17.595697-1.254397-8.712516-11.775976-21.290623-3.490126-26.615413 8.05545-0.597332 16.947166 0.878932 24.789283 0z" fill="#F8D7C1" p-id="4466"></path><path d="M319.077751 605.13157v3.541326c-8.28585 5.324789 2.235729 17.902897 3.490126 26.615412 0.819198 5.683188-0.597332 11.767443 0.110934 17.595698 1.54453 12.697574 8.430916 27.357811-0.059734 40.797784-2.423462 1.638397-11.818643 8.618649-14.165304 10.623978 10.598378-34.389263-4.445858-65.109201-7.082652-99.174198 4.86399 0.861865 12.236775 0 17.70663 0z" fill="#F6C5AD" p-id="4467"></path><path d="M510.326429 768.049638c-4.821324 0.989865-3.908259-3.583993-5.239456-7.116785-5.862388-15.513568-16.904499-32.793533 4.027725-38.527922l15.325836 8.678382-14.114105 36.974859z" fill="#E9DECC" p-id="4468"></path><path d="M569.803641 581.084685c1.194664 1.177598 7.577585 12.962107 7.901851 15.112503 7.082652 46.813771-54.570556 70.25479-93.183811 57.770549-50.85003-16.435167-66.133199-71.355588-7.091185-87.048356 25.617015-6.809586 50.918296-5.742922 75.47718 4.488524 2.764794 1.151998 15.505035 8.319983 16.887432 9.67678z" fill="#4F2E27" p-id="4469"></path><path d="M772.444296 583.875079l-0.511999 4.778657c-4.275191 5.205323-8.02985 9.241581-6.570653 16.4693-9.966913 11.093311-27.238345 38.835121-28.339143 53.128426-1.186131 15.385569 2.901327 33.186066 14.199438 44.245243 4.76159 4.659191 43.084712 28.390342 48.366835 29.559406 6.630387 1.46773 20.599425 1.510397 27.195678 0.0256 4.087458-0.921598 7.688518-5.085856 11.73331-5.981854 6.365854-1.41653 12.885307 0.913065 19.029294-2.218662 5.026123-2.551461 22.220755-18.005297 26.547146-23.039953 19.48156-22.621821 22.818087-48.230302 1.689597-70.92039 2.338129-4.036258 5.401589-15.906101 7.082652-21.247956 2.525862 2.175996 8.396783 2.406395 10.052246 4.095991 0.989865 1.015465 10.828778 23.372752 11.195711 26.009547 2.423462 17.570098-4.087458 59.152946-15.923168 72.618519-4.829857 5.495455-29.969006 23.475152-37.128457 26.623946-20.804224 9.139181-57.983882 13.07304-79.086773 4.556791-7.833584-3.157327-38.826588-26.27408-45.098575-32.827666-8.200517-8.567449-16.537566-31.06127-16.281567-42.675114 0.1024-4.821324 4.81279-11.827176 5.751455-17.73223 0.844798-5.299189-0.366933-10.845845 0.793598-16.913033 2.440528-12.799974 10.811711-21.606356 9.88158-34.389263 9.75358-3.182927 24.70395-9.796247 35.421795-14.165305z" fill="#F5A88F" p-id="4470"></path><path d="M846.820678 562.627123l35.421795 35.421794c-10.973844-1.919996-19.140228 9.489047-24.789283 17.706631-8.36265-4.73599-8.02985-12.390375-17.706631-17.706631-0.708265-0.383999-2.841594-0.034133-4.753057-0.614398-1.740796-0.537599-2.022396-2.824528-2.329595-2.926928l-1.817596-3.524259-3.558393-0.1792c-11.195711 7.432518-23.833552 9.019715-37.128458 10.786111-0.1536-0.196266-3.302393-3.481593-3.541326-3.541326l-1.911463-3.379193a38.860721 38.860721 0 0 0-10.342379 0l-1.911463 3.379193c-0.460799 0.196266-6.092788 5.981855-7.082652 7.082653-1.459197-7.227719 2.295462-11.263977 6.570653-16.4693l0.511999-4.778657c32.110868-13.09864 37.350324-16.878899 74.376382-21.247957z" fill="#F49781" p-id="4471"></path><path d="M882.242473 598.048917c6.007454 0.930131 8.02985 8.38825 10.623978 10.623979-1.681063 5.350389-4.744524 17.211698-7.082652 21.247956-1.058131 1.82613-7.551985 9.506114-10.623978 14.165305-10.649578 16.136501-20.633558 34.013798-38.783922 12.031976-0.580265-2.619728 17.783431-35.592461 21.068758-40.371118 5.657588-8.226117 13.815439-19.626627 24.789282-17.706631z" fill="#F06352" p-id="4472"></path><path d="M248.242695 583.875079c-0.1024 3.49866 1.399464 8.038384 3.541326 10.623979-5.384522 0.017067-14.993036 6.229321-17.70663 10.623978-7.167985-5.572255-13.841039-5.350389-21.247957-7.082652-6.971719-1.629863-13.695972-4.94079-21.000491-3.29386-3.157327 9.523181-11.460243 18.022363-17.416498 26.854345-4.036258 5.990388-10.632512 22.033022-14.711436 26.018081-2.943994 2.875727-9.668247 3.14026-13.772772 3.942392-7.458118 14.156771-2.867194 21.930622 6.621853 33.314065 11.775976 14.122638 36.846858 24.789283 54.894822 22.860754 5.657588-0.605865 25.591415-6.058654 30.156738-8.780782 1.382397-0.827732 18.645295-14.89917 19.515694-15.897568 14.378637-16.332767 8.166383-36.198326-1.783463-53.145492 1.74933-3.080527 6.869319-10.026646 7.082652-10.623978 14.77117 11.946642 24.823416 35.703394 20.667691 54.323089-2.679461 12.014909-19.857026 29.772739-29.448473 37.836723-19.78876 16.614366-43.878311 23.432486-69.316126 16.051168-35.97646-10.427712-44.49271-32.196201-63.573204-58.623881 7.219185-2.611195 12.671974-6.621853 17.766364-12.339175 4.036258-4.522657 23.150886-35.046329 24.174884-39.568986 2.559995-11.27251-0.691199-21.418623-13.610639-22.476754 8.251717-7.543451 15.231969-15.436769 24.917283-23.022887 5.11999-4.010659 10.427712 1.604263 3.42186-8.849049 25.668214 4.147192 46.984438 12.535441 70.835056 21.247957z" fill="#F3957D" p-id="4473"></path><path d="M280.11463 598.048917c-7.662918 2.073596 0.1536 10.410645 1.97973 13.960505 9.045315 17.570098 17.450631 41.727915 15.650101 62.122541-0.614399 6.946119-5.640522 15.590368-3.899725 24.42235-16.657033 19.438894-38.698588 32.5802-58.444681 47.812169-5.350389 1.57013-46.788172 1.51893-52.181228-0.076799-2.713594-0.802132-4.96639-4.462924-8.311449-5.853855-37.631923-15.633035-65.578533-40.379651-68.539594-83.83983-0.597332-8.721049 1.126398-8.098117 3.729059-12.509841-4.522657 17.416498 5.410122 17.561564 10.623978 24.789283 19.080495 26.436213 27.596744 48.196169 63.573204 58.623881 25.446348 7.372785 49.527366 0.563199 69.316126-16.051168 9.59998-8.05545 26.769012-25.821814 29.448473-37.836723 4.155725-18.619695-5.896521-42.376447-20.667691-54.323089 0.324266-0.921598-0.196266-2.303995 0-3.541326l3.182927-2.073596c1.681063-7.099719 1.075198-8.36265-3.182927-12.091709-2.372262-2.082129-9.105048-5.247989-10.623978-7.082652-2.141862-2.585595-3.643726-7.133852-3.541326-10.623979 10.615445 3.874125 23.534885 11.195711 31.880468 14.165305z" fill="#F3A38A" p-id="4474"></path><path d="M149.068497 594.499058c12.910907 1.058131 16.170634 11.204244 13.610639 22.476754-1.023998 4.522657-20.138626 35.037795-24.174884 39.568986-5.102923 5.717322-10.547179 9.72798-17.766364 12.339175-5.222389-7.227719-15.146636-7.372785-10.623979-24.789283 7.645851-12.91944 20.735958-35.583928 30.122606-46.122573 3.729059-4.189858 8.38825-3.054927 8.840515-3.464526z" fill="#F06958" p-id="4475"></path><path d="M737.022501 658.259995c2.739194 1.937063 8.874649 5.111456 10.623979 7.082652 5.026123 5.657588 9.403714 18.978095 11.14451 20.727425 1.945596 1.954129 12.987707 3.857059 17.254365 5.785588 14.506637 6.56212 35.541261 21.111424 51.191363 19.575427 18.406363-1.80053 42.555647-16.819166 53.162559-31.982869 5.606389-8.00425 3.26826-13.004774 1.971196-22.638887-0.358399-2.653861-11.545577-0.964265-7.219186-12.723174 3.071994-4.659191 9.565847-12.347708 10.623979-14.165305 21.12849 22.690087 17.800497 48.298568-1.689597 70.92039-4.334925 5.026123-21.529556 20.479958-26.547146 23.039953-6.152521 3.123194-12.671974 0.802132-19.029295 2.218662-4.044792 0.895998-7.645851 5.060256-11.733309 5.981854-6.604787 1.49333-20.565292 1.44213-27.195678-0.0256-5.282123-1.169064-43.605245-24.900216-48.366835-29.559406-11.29811-11.059178-15.377035-28.859675-14.199438-44.245243z" fill="#F49980" p-id="4476"></path><path d="M786.609601 598.048917c0.238933 0.059733 3.387726 3.34506 3.541326 3.541326 1.561597 2.022396 3.404793 5.546655 3.106127 8.217584-7.227719 15.982901-16.725299 36.437259-29.67034 48.443635-5.196789 4.821324-7.458118 8.763716-15.931701 7.091185-1.74933-1.971196-7.884784-5.154123-10.623978-7.082652 1.100798-14.293304 18.363696-42.035115 28.339142-53.128425 0.989865-1.100798 6.621853-6.886386 7.082652-7.082653 1.160531-0.503466 12.185575-0.494932 14.165305 0z" fill="#EE6052" p-id="4477"></path><path d="M832.655374 594.499058c-3.720526-1.237331-13.09864 4.121592-15.906101 7.116785-4.974923 5.290656-30.301805 46.06284-30.233539 51.336429 0.059733 4.104525 4.172792 7.722651 3.805859 12.219709 14.574904 3.06346 21.38449-3.515726 29.789806-14.156771 4.650657-5.879455 19.413294-28.987674 21.631956-35.123129 2.892794-8.02985-0.938665-10.743445-1.996796-17.851697 9.67678 5.316256 9.343981 12.97064 17.706631 17.706631-3.285327 4.778657-21.657556 37.75139-21.068757 40.371118 18.150363 21.981822 28.134343 4.104525 38.783921-12.031976-4.334925 11.758909 6.860786 10.069313 7.219185 12.723174 1.297064 9.634114 3.626659 14.626104-1.971196 22.638887-10.606912 15.163703-34.756196 30.182339-53.162558 31.982869-15.650102 1.527464-36.684725-13.013307-51.191363-19.575427-4.258125-1.928529-15.308769-3.831459-17.254365-5.785588-1.740796-1.74933-6.118388-15.069836-11.144511-20.727425 8.473583 1.67253 10.734912-2.269862 15.931701-7.091185 12.94504-12.014909 22.442621-32.460734 29.67034-48.443635 0.307199-2.670928-1.54453-6.195187-3.106127-8.217584 13.294906-1.766396 25.932747-3.353593 37.128458-10.786111l3.558393 0.1792 1.817596 3.524259z" fill="#F28870" p-id="4478"></path><path d="M832.655374 594.499058c0.307199 0.1024 0.597332 2.389328 2.329595 2.926927 1.911463 0.588799 4.044792 0.2304 4.753057 0.614399 1.058131 7.108252 4.88959 9.821847 1.996796 17.851697-2.210129 6.143988-16.981299 29.243674-21.631956 35.123129-8.405316 10.641045-15.214902 17.220232-29.789806 14.156771 0.366933-4.497058-3.746126-8.115183-3.805859-12.219709-0.0768-5.282123 25.258615-46.054306 30.233538-51.336429 2.815994-2.986661 12.185575-8.354116 15.906101-7.116785z" fill="#F0584D" p-id="4479"></path><path d="M786.609601 598.048917c-1.979729-0.494932-13.013307-0.503466-14.165305 0l1.911463-3.379193c3.438926-0.460799 6.903453-0.460799 10.342379 0l1.911463 3.379193z" fill="#F28870" p-id="4480"></path><path d="M234.068857 605.13157c-0.511999 0.836265 0.0768 4.070392-1.834663 6.869319-7.364252 10.794645-16.913032 23.193553-21.384489 35.455928-3.430393 9.403714 0.255999 12.398908 7.654384 17.527431 14.941836 4.531191 30.233539-23.475152 36.821259-35.063396 9.95838 16.947166 16.1621 36.804192 1.783463 53.145492-0.878932 0.998398-18.133296 15.069836-19.515694 15.897568-4.565324 2.730661-24.490617 8.18345-30.156739 8.780782-18.047963 1.919996-43.118846-8.738116-54.894822-22.860753-9.489047-11.383444-14.079971-19.157294-6.621853-33.314066 4.095992-0.802132 10.828778-1.075198 13.772772-3.942392 0.810665 28.279409 15.206369 25.582881 29.951939 6.929053 12.049042-15.240502 26.154613-36.514059 23.176487-56.516152 7.406918 1.732263 14.088505 1.510397 21.247956 7.082652z" fill="#F28770" p-id="4481"></path><path d="M212.820901 598.048917c2.978127 20.002093-11.127444 41.275649-23.176487 56.516152-14.74557 18.645295-29.141274 21.350357-29.951939-6.929053 4.078925-3.985059 10.675178-20.036226 14.711437-26.01808 5.956255-8.831982 14.250638-17.331165 17.416498-26.854345 7.304518-1.655463 14.028771 1.663997 21.000491 3.29386z" fill="#F06150" p-id="4482"></path><path d="M251.784021 594.499058c1.527464 1.834663 8.251717 5.000523 10.623979 7.082652-0.452266 4.556791 0.674132 9.838913 0 14.165305-0.196266 1.237331 0.324266 2.619728 0 3.541326-0.213333 0.605865-5.333322 7.543451-7.082652 10.623978-6.58772 11.588243-21.879422 39.594586-36.821259 35.063396-7.398385-5.11999-11.084777-8.123717-7.654384-17.527431 4.471458-12.262375 14.020238-24.669817 21.384489-35.455928 1.911463-2.798928 1.314131-6.041588 1.834663-6.86932 2.722128-4.394658 12.322108-10.615445 17.706631-10.623978z" fill="#EE5C4C" p-id="4483"></path><path d="M262.408 615.755548c0.674132-4.326391-0.452266-9.608514 0-14.165305 4.258125 3.729059 4.86399 5.000523 3.182927 12.091709l-3.182927 2.073596z" fill="#F3957D" p-id="4484"></path></svg>