<?xml version="1.0" standalone="no"?><!DOCTYPE svg PUBLIC "-//W3C//DTD SVG 1.1//EN" "http://www.w3.org/Graphics/SVG/1.1/DTD/svg11.dtd"><svg t="1772951581244" class="icon" viewBox="0 0 1024 1024" version="1.1" xmlns="http://www.w3.org/2000/svg" p-id="5595" xmlns:xlink="http://www.w3.org/1999/xlink" width="200" height="200"><path d="M166.025395 13.5168c26.7008-3.498667 69.640533 18.926933 93.312 32.546133 37.768533 21.725867 70.519467 52.053333 106.146134 76.117334 11.5968-1.6896 25.147733-6.0416 36.437333-7.466667 70.971733-8.925867 143.778133-9.233067 214.621867 0 12.6464 1.646933 27.0336 6.877867 40.1408 7.381333 8.081067-1.032533 15.121067-13.0048 21.7344-18.432 35.370667-29.064533 99.259733-74.948267 142.7968-86.519466 33.339733-8.866133 59.52-0.392533 81.194666 26.4704 38.869333 48.145067 57.924267 165.4272 61.738667 225.8176 2.3296 36.804267-4.369067 81.211733 0.136533 116.343466 3.592533 28.066133 33.757867 86.075733 42.734934 121.0624 54.792533 213.469867-24.0128 362.120533-222.242134 449.373867-193.655467 85.239467-467.054933 72.388267-643.012266-50.030933C-29.874338 786.756267-21.298338 610.3552 40.465929 430.2848c4.0704-11.869867 15.940267-33.8432 17.425066-44.458667 5.367467-38.417067-2.5088-90.154667 0.0768-130.961066 3.413333-53.9136 21.896533-160.64 52.795734-205.636267 12.637867-18.397867 32.512-32.725333 55.2704-35.703467zM28.766729 664.277333c-6.229333 29.866667 21.102933 97.988267 36.9664 125.0048 7.671467 13.056 16.648533 21.154133 24.9088 31.505067 76.689067 96.093867 220.629333 146.176 340.4032 160.0768 167.415467 19.438933 395.101867-29.098667 504.046933-167.364267 1.186133-1.501867 5.888-3.191467 8.951467-7.3984 22.007467-30.2336 50.807467-93.934933 49.28-130.9184 6.314667-3.037867 3.575467-14.045867 3.626666-20.027733 0.546133-62.071467-5.230933-109.994667-23.543466-169.352533-7.816533-25.344-31.658667-71.031467-34.688-92.714667-4.445867-31.8464 1.774933-75.1616-0.0768-109.124267-3.1232-57.216-15.0016-134.775467-37.111467-188.561066-8.046933-19.584-25.284267-51.712-48.196267-53.717334-26.6496-2.338133-49.877333 9.591467-72.388266 22.562134-41.7024 24.029867-79.547733 57.079467-117.5296 86.408533l-54.178134-10.478933c-75.144533-8.516267-150.263467-7.466667-225.536 3.643733-8.900267 1.314133-19.643733 5.1456-28.765866 6.903467-37.546667-31.914667-76.398933-64.017067-119.8336-87.765334-35.848533-19.601067-75.784533-38.971733-103.944534 3.029334-26.820267 40.004267-45.252267 154.606933-47.9744 203.178666-2.158933 38.459733 5.2224 87.611733 0.162134 123.912534-3.029333 21.725867-27.0336 70.0416-34.679467 96.3584-14.830933 51.054933-24.192 101.512533-23.543467 154.7776 0.0768 6.562133-2.594133 15.7952 3.626667 20.0448z" fill="#48271F" p-id="5596"></path><path d="M993.340595 675.2c-1.664-40.430933-36.411733-78.318933-76.4416-83.720533l-2.141866-3.242667c-5.2992-0.6912-10.760533-0.708267-16.0512-0.392533-2.397867 0.145067-4.932267-0.273067-7.278934 0-28.245333 0.162133-61.1328 9.2416-87.415466 19.959466-16 6.528-31.274667 17.3312-47.266134 23.714134-5.614933 2.244267-16.110933 5.819733-21.8368 7.278933-19.8656 5.0688-37.819733 3.754667-58.24 3.643733-37.2992-9.890133-42.197333-20.155733-69.316266-41.7024-45.4656-36.130133-105.472-43.076267-158.8992-20.898133-39.6544 16.4608-54.434133 49.7152-103.0144 62.600533-13.218133-0.699733-26.871467 0.989867-40.0384 0-2.4064-0.1792-4.864 0.119467-7.278934 0l-2.688-3.012266c-3.669333-1.851733-8.840533 0.1536-11.869866-0.622934-38.2976-9.7792-72.448-35.780267-112.836267-43.682133l-2.269867-3.242667c-2.8416-0.9472-5.7856-0.2816-8.644266-0.401066-4.829867-0.2048-9.719467 0.059733-14.557867 0-1.211733-0.017067-2.423467 0-3.643733 0l-2.133334-3.242667c-5.794133-0.836267-11.758933-0.836267-17.570133 0l-2.133333 3.242667c-9.693867 0.6144-11.2384 1.834667-18.2016 3.643733-40.200533 10.4192-57.301333 27.2384-69.777067 66.816-0.964267 3.063467-2.978133 2.1504-3.0208 2.338133-6.2208-4.2496-3.549867-13.482667-3.626667-20.0448-0.648533-53.265067 8.721067-103.722667 23.543467-154.7776 7.645867-26.3168 31.650133-74.624 34.679467-96.3584 5.060267-36.3008-2.321067-85.4528-0.162134-123.912533 2.722133-48.5632 21.154133-163.165867 47.9744-203.178667 28.16-42.001067 68.096-22.6304 103.944534-3.029333 43.434667 23.748267 82.286933 55.850667 119.8336 87.765333 9.122133-1.757867 19.8656-5.589333 28.765866-6.903466 75.272533-11.1104 150.391467-12.16 225.536-3.643734l54.178134 10.478934c37.973333-29.329067 75.818667-62.378667 117.5296-86.408534 22.510933-12.970667 45.730133-24.900267 72.388266-22.562133 22.912 2.013867 40.149333 34.141867 48.196267 53.717333 22.109867 53.7856 33.988267 131.345067 37.111467 188.561067 1.851733 33.962667-4.369067 77.277867 0.0768 109.124267 3.029333 21.6832 26.862933 67.370667 34.688 92.714666 18.312533 59.349333 24.098133 107.281067 23.543466 169.352534-0.0512 5.981867 2.688 16.989867-3.626666 20.027733zM141.602995 211.114667c-1.885867 22.656 0 49.527467 0 72.797866 0 0.4096 5.376 7.389867 7.278934 3.652267 18.218667-16.145067 34.414933-37.1968 52.7104-52.855467 20.6592-17.6896 48.725333-31.189333 68.676266-47.803733 9.284267-7.7312 7.901867-9.1392 0.571734-17.664-14.421333-16.759467-52.6336-53.000533-73.412267-57.617067-24.072533-5.3504-32.648533 7.074133-40.4736 27.4944-6.843733 17.885867-13.8496 53.9136-15.351467 72.004267z m735.2576 74.606933c-0.9984-22.135467 1.425067-45.218133-0.068266-67.259733-1.467733-21.717333-8.157867-61.431467-16.256-82.0224-9.924267-25.216-24.285867-32.426667-50.244267-21.034667-14.378667 6.306133-23.3216 21.162667-37.230933 28.288L742.213129 178.346667c0 4.445867 61.457067 44.509867 71.031466 52.7104 17.186133 14.72 33.536 37.879467 50.807467 51.114666 4.642133 3.5584 6.698667 4.48 12.817067 3.549867z m-65.749333-14.327467h-14.08c-11.434667 34.696533-56.490667 98.304-16.110933 126.660267 16.170667 11.357867 35.2 9.105067 50.517333-3.072 21.768533-17.297067 16.0768-42.9824 7.261867-65.6384-7.517867-19.345067-21.76-37.640533-27.588267-57.9584z m-602.146133 7.0656c-6.058667 1.92-25.813333 42.2912-29.192534 50.8928-8.584533 21.794133-15.2576 42.043733-1.262933 63.249067 17.1776 26.018133 52.736 22.229333 68.1472-3.643733 15.598933-26.180267-13.8752-77.380267-27.895467-102.126934-1.962667-3.473067-4.514133-10.052267-9.796266-8.379733z m117.051733 66.0992c-31.453867 6.877867-38.997333 43.5968-22.3488 68.48 32.426667 48.4864 125.636267 47.0016 110.336-22.980266-6.852267-31.36-58.88-51.8656-87.9872-45.499734z m334.976 0.110934c-36.727467 6.237867-76.8 45.8752-51.566933 82.926933 17.194667 25.250133 59.9296 21.76 83.1232 6.869333 52.5824-33.757867 36.5568-101.358933-31.556267-89.787733zM363.640329 547.797333c-36.7872 5.802667-73.344 16.264533-110.9248 14.498134-4.437333-0.2048-7.825067-4.283733-13.986134-3.182934-11.861333 2.1248-22.8608 17.962667-20.181333 29.969067 8.3456 37.384533 93.6704 23.287467 120.5504 16.0768 44.996267-12.066133 113.6896-49.4848 47.633067-89.5488-18.824533-11.4176-41.9584-18.6368-62.020267-28.9792-25.198933-12.996267-48.733867-30.600533-75.767467-39.7312-10.205867 3.780267-19.242667 10.180267-15.9744 22.263467 2.517333 8.328533 48.1536 33.3824 58.9824 39.313066 20.283733 11.1104 43.537067 19.780267 63.274667 31.36 3.3024 1.937067 8.0896 3.362133 8.405333 7.9616z m294.8352 0c10.743467-12.501333 30.276267-17.937067 44.936533-26.026666 26.453333-14.592 52.078933-30.8736 78.890667-44.868267 10.922667-20.488533 0.785067-33.578667-22.0928-25.728-39.330133 24.669867-94.583467 42.9056-132.181334 68.0192-28.356267 18.935467-28.373333 45.474133 0 64.512 32.2816 21.666133 119.3472 38.4512 155.306667 25.284267 1.348267-0.494933 12.270933-6.698667 12.782933-7.227734 7.304533-7.5008 5.469867-35.8912-5.162666-39.022933-11.588267-3.4048-39.389867 0.64-54.152534-0.443733-7.3472-0.5376-21.393067-2.440533-29.124266-3.6352-16.2304-2.5088-32.759467-9.181867-49.211734-10.8544z" fill="#F7C07C" p-id="5597"></path><path d="M676.668595 642.440533c0.3072 0.085333 0.349867 3.037867 5.2224 3.720534 6.621867 0.9216 37.034667-1.4848 38.4512-0.0768 2.474667 9.412267-5.000533 12.526933-8.064 19.2256-4.9664 10.8544-11.357867 25.4976-10.069333 37.12 2.3552 21.290667 5.9392 45.0304 15.232 64.853333 20.829867 44.4416 75.042133 64.648533 121.0368 68.224 20.753067 1.6128 34.107733-7.773867 54.075733-8.1152l42.5472-13.8752c-108.945067 138.257067-336.631467 186.794667-504.046933 167.364267-119.7824-13.9008-263.714133-63.982933-340.4032-160.0768l63.786667 18.116266c38.203733 2.474667 79.189333-1.553067 112.247466-22.254933 10.274133-6.434133 16.708267-15.4368 23.9104-23.3216 7.074133-7.748267 12.347733-7.022933 19.165867-20.9664 19.899733-40.712533 20.113067-89.088-4.352-126.2848 11.067733-1.092267 24.157867 1.5616 34.816 0.0768 4.872533-0.674133 4.9152-3.6352 5.2224-3.720533 48.580267-12.885333 63.36-46.139733 103.0144-62.600534 53.4272-22.1696 113.4336-15.232 158.8992 20.898134 27.118933 21.546667 32.017067 31.803733 69.316267 41.7024z m-102.6816-28.356266c-2.525867-2.4832-20.3008-12.032-24.584533-13.636267-37.751467-14.122667-121.088-5.9136-108.7232 50.4832 4.5312 20.6848 43.537067 40.123733 63.1808 42.368 24.7296 2.816 61.1584-13.3632 74.026667-34.9952 7.125333-11.972267 6.126933-34.372267-3.899734-44.219733z m-54.161066 83.2768c-19.5072-5.742933-23.850667 10.871467-36.1728 19.601066-18.773333 13.294933-54.9632 19.345067-74.6752 5.7088-2.005333-1.390933-13.653333-13.0816-14.464-14.651733-3.191467-6.144-1.544533-15.556267-7.185067-21.9392-11.921067-13.499733-21.7344-4.206933-26.8288 9.685333 4.804267 34.304 27.537067 53.845333 59.758933 62.933334 1.774933 24.6016 1.7664 45.192533 11.818667 68.258133 18.6368 42.7776 70.946133 58.999467 113.672533 43.093333 20.5056-7.637333 39.748267-31.214933 46.421334-51.857066 6.6304-20.497067 1.339733-39.936 9.7024-59.460267 24.174933-7.5776 53.998933-29.346133 56.6272-56.3456 1.928533-19.805867-11.8784-29.952-27.511467-16.452267-4.8128 35.805867-27.264 47.479467-61.858133 44.0064-17.834667-1.792-42.8288-16.128-49.314134-32.580266z" fill="#F8EFDC" p-id="5598"></path><path d="M993.340595 675.2c1.518933 36.983467-27.281067 100.6848-49.28 130.9184-3.063467 4.206933-7.765333 5.896533-8.951466 7.3984l-42.5472 13.8752c-19.968 0.349867-33.322667 9.736533-54.075734 8.1152-45.986133-3.575467-100.206933-23.7824-121.0368-68.224-9.2928-19.822933-12.8768-43.554133-15.232-64.853333-1.288533-11.6224 5.102933-26.257067 10.069334-37.12 3.063467-6.698667 10.538667-9.813333 8.064-19.2256-1.416533-1.408-31.829333 0.9984-38.4512 0.0768-4.872533-0.674133-4.9152-3.6352-5.2224-3.720534 20.420267 0.119467 38.3744 1.425067 58.24-3.643733 6.075733 14.592-5.504 28.910933-7.2192 41.915733-9.309867 70.6048 28.228267 124.4416 100.1216 132.7104 40.192 4.625067 102.766933-14.2848 123.639466-50.901333 16.8192-29.499733 7.082667-55.133867 1.911467-85.572267-3.268267-19.234133 0.110933-27.1104-11.485867-46.754133-7.867733-13.320533-23.825067-23.9616-28.6208-38.715733 1.2032 0.0768 2.4576-0.162133 3.643734 0 40.021333 5.4016 74.7776 43.281067 76.4416 83.720533z" fill="#F6E8D2" p-id="5599"></path><path d="M101.564595 595.1232c13.371733-0.341333 11.861333-2.244267 6.741334 10.385067-61.678933 21.248-57.514667 113.885867-37.819734 164.462933 8.064 20.718933 52.548267 43.426133 73.710934 46.404267 41.437867 5.845333 87.569067-0.836267 121.002666-26.683734 34.781867-26.888533 45.2096-74.453333 35.968-115.729066-1.595733-7.125333-9.258667-11.716267-10.410666-18.7136-1.041067-6.340267-2.756267-15.146667 7.355733-12.817067 2.414933 0.119467 4.881067-0.1792 7.278933 0v3.643733c24.465067 37.188267 24.251733 85.572267 4.352 126.2848-6.818133 13.943467-12.091733 13.218133-19.165866 20.9664-7.202133 7.8848-13.636267 16.887467-23.9104 23.3216-33.058133 20.701867-74.043733 24.7296-112.247467 22.254934l-63.786667-18.116267c-8.2688-10.359467-17.245867-18.449067-24.9088-31.505067C49.861129 762.2656 22.528862 694.144 28.758195 664.277333c0.042667-0.187733 2.048 0.7168 3.0208-2.338133 12.475733-39.5776 29.576533-56.405333 69.777067-66.816z" fill="#F7E8D4" p-id="5600"></path><path d="M363.640329 547.797333c-0.315733-4.599467-5.102933-6.024533-8.405334-7.9616-19.746133-11.579733-42.990933-20.2496-63.274666-31.36-10.820267-5.930667-56.465067-30.984533-58.9824-39.313066-3.2768-12.0832 5.76-18.4832 15.9744-22.263467 27.0336 9.130667 50.568533 26.743467 75.767466 39.7312 20.053333 10.3424 43.195733 17.5616 62.020267 28.9792 66.056533 40.064-2.6368 77.474133-47.633067 89.5488-26.888533 7.210667-112.2048 21.307733-120.5504-16.0768-2.679467-12.0064 8.32-27.844267 20.181334-29.969067 6.1696-1.1008 9.5488 2.9696 13.986133 3.182934 37.5808 1.7664 74.1376-8.695467 110.9248-14.498134zM658.475529 547.797333c16.452267 1.672533 32.981333 8.354133 49.211733 10.8544 7.7312 1.194667 21.777067 3.0976 29.124267 3.6352 14.762667 1.083733 42.564267-2.961067 54.152533 0.443734 10.632533 3.131733 12.475733 31.522133 5.162667 39.022933-0.512 0.529067-11.434667 6.7328-12.782934 7.227733-35.959467 13.166933-123.016533-3.618133-155.306666-25.284266-28.373333-19.037867-28.356267-45.585067 0-64.512 37.597867-25.105067 92.8512-43.349333 132.181333-68.0192 22.877867-7.850667 33.006933 5.239467 22.0928 25.728-26.811733 13.986133-52.437333 30.267733-78.890667 44.868266-14.660267 8.0896-34.193067 13.525333-44.936533 26.026667z" fill="#4A2A24" p-id="5601"></path><path d="M891.426995 587.844267c-0.315733 0.034133-0.733867 3.063467-5.239466 3.703466-8.098133 1.160533-23.125333-5.248-20.2496 7.210667 25.591467 4.514133 44.2112 16.546133 57.685333 38.792533 17.792 29.3888 18.158933 38.647467 18.602667 72.3712 0.068267 5.2992 3.498667 9.8048 3.165866 13.789867-2.048 24.354133-30.088533 51.652267-51.3536 61.457067-49.698133 22.920533-122.350933 6.306133-142.788266-48.042667-10.9056-29.0048-4.420267-61.184 4.753066-89.984 1.3312-4.189867 9.6768-12.219733 0.759467-15.624533 15.982933-6.382933 31.266133-17.186133 47.266133-23.714134 26.282667-10.7264 59.170133-19.797333 87.415467-19.959466z m21.8368 105.557333c12.8256-19.293867 7.338667-17.160533-3.643733-29.115733-7.7056-8.3968-12.501333-20.317867-21.9392-27.195734-10.666667-7.7824-39.876267-21.666133-52.625067-20.0704-6.929067 0.8704-33.1776 11.195733-39.6288 14.976-9.6512 5.6576-22.587733 23.0656-24.1152 34.116267-3.319467 23.901867-1.339733 54.562133 12.8256 74.5216 14.626133 20.608 47.786667 31.914667 72.618667 29.124267 32.938667-3.703467 80.264533-41.4464 56.507733-76.347734z" fill="#F9D7BC" p-id="5602"></path><path d="M141.602995 211.114667c1.5104-18.082133 8.507733-54.1184 15.351467-72.004267 7.816533-20.420267 16.401067-32.8448 40.4736-27.4944 20.778667 4.616533 58.990933 40.8576 73.412267 57.617067 7.330133 8.5248 8.712533 9.941333-0.571734 17.664-19.950933 16.6144-48.017067 30.1056-68.676266 47.803733-18.295467 15.6672-34.4832 36.7104-52.7104 52.855467-1.902933 3.7376-7.278933-3.242667-7.278934-3.652267 0-23.2704-1.885867-50.141867 0-72.797867z" fill="#F8C6B3" p-id="5603"></path><path d="M876.860595 285.7216c-6.126933 0.930133-8.174933 0-12.817066-3.549867-17.262933-13.226667-33.621333-36.394667-50.807467-51.114666-9.565867-8.192-71.031467-48.264533-71.031467-52.7104l30.848-34.653867c13.9008-7.125333 22.852267-21.981867 37.230934-28.288 25.9584-11.392 40.328533-4.189867 50.244266 21.034667 8.098133 20.590933 14.788267 60.296533 16.256 82.0224 1.493333 22.0416-0.930133 45.124267 0.068267 67.259733z" fill="#F8C7B4" p-id="5604"></path><path d="M898.705929 587.844267l2.2016 3.242666c4.078933 1.092267 8.285867 0.119467 12.356266 0.401067 4.795733 14.762667 20.753067 25.3952 28.6208 38.715733 11.5968 19.643733 8.2176 27.511467 11.485867 46.754134 5.1712 30.4384 14.907733 56.072533-1.911467 85.572266-20.872533 36.616533-83.447467 55.517867-123.639466 50.901334-71.893333-8.2688-109.431467-62.097067-100.1216-132.7104 1.7152-13.0048 13.294933-27.332267 7.2192-41.915734 5.725867-1.4592 16.221867-5.034667 21.8368-7.278933 8.917333 3.4048 0.580267 11.434667-0.759467 15.624533-9.173333 28.8-15.658667 60.9792-4.753067 89.984 20.437333 54.3488 93.098667 70.9632 142.788267 48.042667 21.265067-9.8048 49.3056-37.111467 51.3536-61.457067 0.3328-3.985067-3.0976-8.490667-3.165867-13.789866-0.443733-33.723733-0.802133-42.9824-18.602666-72.3712-13.4656-22.2464-32.093867-34.2784-57.685334-38.792534-2.875733-12.458667 12.151467-6.050133 20.2496-7.210666 4.514133-0.648533 4.923733-3.669333 5.239467-3.703467 2.3552-0.273067 4.881067 0.145067 7.278933 0z" fill="#F8E0C8" p-id="5605"></path><path d="M660.992862 344.669867c68.104533-11.5712 84.138667 56.029867 31.556267 89.787733-23.1936 14.890667-65.928533 18.3808-83.1232-6.869333-25.224533-37.0432 14.848-76.689067 51.566933-82.926934z" fill="#F6EDD9" p-id="5606"></path><path d="M326.016862 344.558933c29.1072-6.365867 81.134933 14.139733 87.9872 45.499734 15.291733 69.981867-77.909333 71.466667-110.336 22.980266-16.64-24.8832-9.105067-61.602133 22.3488-68.48z" fill="#F6EDDA" p-id="5607"></path><path d="M119.766195 591.479467c7.168-0.452267 14.634667-0.0256 21.8368 0 1.211733 0 2.423467-0.017067 3.643734 0-15.010133 18.858667-42.180267 27.537067-56.328534 47.4112-22.8864 32.162133-22.903467 98.56 1.655467 129.194666 16.128 20.104533 52.718933 36.855467 78.2336 34.4576 3.780267-0.3584 7.381333-3.618133 10.990933-3.5584 3.797333 0.059733 7.168 3.515733 10.965334 3.575467 12.194133 0.170667 39.424-11.776 50.449066-18.653867 14.1824-8.8576 31.2064-27.246933 37.0176-43.0592 6.9376-18.884267 9.0368-47.5136 4.7616-66.8928-1.706667-7.739733-6.050133-9.745067-6.792533-22.340266-0.401067-6.877867-3.1232-14.941867 7.364267-12.808534 3.037867 0.776533 8.200533-1.2288 11.869866 0.622934l2.688 3.012266c-10.112-2.338133-8.405333 6.4768-7.355733 12.817067 1.152 6.997333 8.814933 11.588267 10.410667 18.7136 9.2416 41.275733-1.186133 88.840533-35.968 115.729067-33.4336 25.847467-79.573333 32.529067-121.002667 26.683733-21.162667-2.986667-65.6384-25.685333-73.710933-46.404267-19.694933-50.577067-23.850667-143.214933 37.819733-164.462933 5.111467-12.637867 6.6304-10.7264-6.741333-10.385067 6.9632-1.800533 8.507733-3.029333 18.2016-3.643733z" fill="#F9E3CB" p-id="5608"></path><path d="M159.804595 591.479467l2.286934 3.2256c2.756267 1.2288 6.212267-0.0512 8.635733 0.418133 40.388267 7.893333 74.538667 33.902933 112.836267 43.682133-10.478933-2.133333-7.765333 5.922133-7.364267 12.808534 0.733867 12.603733 5.085867 14.600533 6.792533 22.340266 4.2752 19.3792 2.176 48.017067-4.7616 66.8928-5.8112 15.812267-22.843733 34.2016-37.0176 43.0592-11.016533 6.8864-38.254933 18.824533-50.449066 18.653867-3.797333-0.0512-7.168-3.515733-10.965334-3.575467-3.6096-0.059733-7.2192 3.2-10.990933 3.5584-25.514667 2.397867-62.1056-14.353067-78.2336-34.4576-24.567467-30.626133-24.541867-97.032533-1.655467-129.194666 14.148267-19.874133 41.309867-28.552533 56.328534-47.4112 4.8384 0.059733 9.728-0.2048 14.557866 0z m82.952534 170.3168c3.234133-3.242667 18.926933-30.1824 20.906666-35.5072 7.355733-19.771733 5.7856-39.697067 1.570134-60.0576-4.821333-23.296-8.3712-25.4208-27.741867-37.777067-19.447467-12.407467-39.918933-18.363733-61.354667-26.146133-21.179733-1.092267-33.826133 12.970667-49.134933 23.7056-3.131733 2.2016-8.183467 2.090667-12.8512 5.3504-23.458133 16.392533-26.001067 57.762133-30.062933 82.722133 4.3264 25.719467 17.2032 50.722133 41.873066 62.2848 4.753067 2.2272 22.016 9.0112 26.376534 10.052267 3.729067 0.887467 6.647467-2.167467 9.207466-1.8432 5.009067 0.631467 9.002667 3.396267 14.583467 3.703466 5.435733 0.298667 26.018133-3.1232 32.221867-4.488533 1.9968-0.443733 32.776533-20.3776 34.4064-22.007467z" fill="#F9DAC0" p-id="5609"></path><path d="M811.111262 271.394133c5.828267 20.317867 20.0704 38.613333 27.588267 57.9584 8.8064 22.656 14.498133 48.341333-7.261867 65.6384-15.317333 12.177067-34.3552 14.421333-50.517333 3.072-40.3712-28.356267 4.676267-91.963733 16.110933-126.660266h14.08z m14.737067 96.042667c0-10.9824-8.900267-19.882667-19.882667-19.882667s-19.882667 8.900267-19.882667 19.882667 8.900267 19.882667 19.882667 19.882667 19.882667-8.900267 19.882667-19.882667z" fill="#8FD2E7" p-id="5610"></path><path d="M208.965129 278.459733c5.2736-1.672533 7.825067 4.906667 9.796266 8.379734 14.020267 24.738133 43.4944 75.938133 27.895467 102.126933-15.4112 25.873067-50.9696 29.661867-68.1472 3.643733-13.994667-21.205333-7.3216-41.454933 1.262933-63.249066 3.387733-8.6016 23.1424-48.9728 29.192534-50.8928z m0.529066 73.181867l-15.2064 10.4192c-13.9008 27.2128 35.191467 42.385067 38.510934 9.173333-0.657067-7.2448-16.5376-20.693333-23.296-19.592533z" fill="#90D2E7" p-id="5611"></path><path d="M345.438729 642.440533c-0.3072 0.085333-0.349867 3.0464-5.2224 3.720534-10.658133 1.476267-23.748267-1.169067-34.816-0.0768v-3.643734c13.166933 0.989867 26.820267-0.699733 40.0384 0z" fill="#F9E3CB" p-id="5612"></path><path d="M141.602995 591.479467c-7.202133-0.0256-14.6688-0.452267-21.8368 0l2.133334-3.242667c5.802667-0.836267 11.767467-0.836267 17.570133 0l2.133333 3.242667z" fill="#F9DAC0" p-id="5613"></path><path d="M916.907529 591.479467c-1.1776-0.162133-2.440533 0.0768-3.643734 0-4.0704-0.273067-8.277333 0.6912-12.356266-0.401067l-2.2016-3.242667c5.290667-0.315733 10.760533-0.298667 16.0512 0.392534l2.141866 3.242666z" fill="#F9D7BC" p-id="5614"></path><path d="M170.727262 595.1232c-2.423467-0.469333-5.870933 0.810667-8.635733-0.418133l-2.286934-3.2256c2.8672 0.119467 5.802667-0.546133 8.644267 0.401066l2.269867 3.242667z" fill="#F8D3B6" p-id="5615"></path><path d="M519.825929 697.361067c6.485333 16.452267 31.479467 30.788267 49.314133 32.580266 34.5856 3.4816 57.0368-8.200533 61.858133-44.0064 15.633067-13.499733 29.44-3.3536 27.511467 16.452267-2.628267 26.999467-32.452267 48.768-56.6272 56.3456-8.362667 19.524267-3.072 38.9632-9.7024 59.460267-6.673067 20.642133-25.9072 44.219733-46.421333 51.857066-42.734933 15.906133-95.035733-0.3072-113.672534-43.093333-10.052267-23.074133-10.043733-43.656533-11.818666-68.258133-32.221867-9.096533-54.954667-28.629333-59.758934-62.933334 5.0944-13.892267 14.907733-23.185067 26.8288-9.685333 5.640533 6.382933 3.9936 15.7952 7.185067 21.9392 0.810667 1.570133 12.458667 13.2608 14.464 14.651733 19.712 13.636267 55.901867 7.586133 74.6752-5.7088 12.322133-8.7296 16.6656-25.344 36.1728-19.601066z m-21.512534 43.357866l-28.100266 13.755734-22.843734 4.471466c0.401067 28.654933 7.338667 68.437333 36.317867 81.928534 27.810133 12.9536 61.457067 5.162667 75.9808-22.434134 10.427733-19.822933 6.4768-38.749867 11.460267-59.528533-17.442133 0.5632-33.476267-8.405333-47.325867-18.2016v61.8752l-19.8656 3.5072-5.614933-5.3248v-60.0576z" fill="#4F2C24" p-id="5616"></path><path d="M573.986995 614.084267c10.026667 9.856 11.025067 32.247467 3.899734 44.219733-12.8768 21.623467-49.297067 37.8112-74.026667 34.9952-19.643733-2.235733-58.641067-21.6832-63.1808-42.368-12.3648-56.3968 70.9632-64.605867 108.7232-50.4832 4.292267 1.604267 22.058667 11.144533 24.584533 13.636267z" fill="#4E2D26" p-id="5617"></path><path d="M909.628595 664.277333c-7.415467-0.4864-12.091733 6.024533-16.213333 11.0848-6.7072 8.234667-22.877867 31.650133-20.027733 41.5232l8.925866 5.7856c14.958933 1.1776 19.242667-15.931733 25.582934-25.693866 1.629867-2.5088 5.000533-3.012267 5.376-3.575467 23.7568 34.909867-23.569067 72.6528-56.507734 76.347733-24.832 2.7904-57.992533-8.516267-72.618666-29.124266-14.173867-19.959467-16.145067-50.619733-12.8256-74.5216 1.536-11.0592 14.464-28.4672 24.1152-34.116267 6.4512-3.780267 32.699733-14.1056 39.6288-14.976 12.740267-1.595733 41.949867 12.288 52.625066 20.0704 9.437867 6.8864 14.2336 18.798933 21.9392 27.195733z m-98.2784 3.643734c-7.3984 17.152-42.769067 43.869867-12.740266 54.8096 7.057067 0 9.412267-6.869333 12.740266-11.136l3.805867 1.646933c2.679467 5.905067 5.12 11.6736 12.663467 11.776 2.269867 0.0256 4.078933-2.338133 5.367466-2.500267 4.9408-0.6144 9.122133 1.186133 14.6432-1.723733 5.248-2.7648 24.311467-28.4928 27.204267-34.670933 5.691733-12.16 1.92-15.069867-5.4528-21.845334-3.2-2.944-9.7536-9.378133-13.269333-10.402133-5.742933-1.664-29.226667-1.536-35.976534-0.631467-12.2624 1.646933-7.04 10.1376-8.994133 14.6688z" fill="#F9C8AA" p-id="5618"></path><path d="M909.628595 664.277333c10.973867 11.9552 16.469333 9.8304 3.643734 29.115734-0.375467 0.5632-3.746133 1.0752-5.376 3.575466-6.340267 9.762133-10.624 26.871467-25.582934 25.693867l-8.925866-5.7856c-2.858667-9.873067 13.312-33.297067 20.027733-41.5232 4.1216-5.060267 8.8064-11.5712 16.213333-11.0848z" fill="#F59976" p-id="5619"></path><path d="M242.757129 761.796267c-1.629867 1.629867-32.418133 21.572267-34.4064 22.007466-6.203733 1.365333-26.786133 4.7872-32.221867 4.488534-5.5808-0.3072-9.5744-3.072-14.583467-3.703467-2.56-0.324267-5.4784 2.730667-9.207466 1.8432-4.360533-1.041067-21.614933-7.825067-26.376534-10.052267-24.669867-11.562667-37.5552-36.565333-41.873066-62.2848 4.061867-24.968533 6.6048-66.338133 30.062933-82.722133 4.667733-3.259733 9.710933-3.1488 12.8512-5.3504 15.3088-10.734933 27.9552-24.8064 49.134933-23.7056 21.435733 7.7824 41.9072 13.738667 61.354667 26.146133 19.370667 12.356267 22.912 14.481067 27.741867 37.777067 4.215467 20.360533 5.794133 40.285867-1.570134 60.0576-1.979733 5.333333-17.672533 32.273067-20.906666 35.5072zM123.409929 671.556267c-4.693333 4.676267-24.234667 36.881067-25.181867 42.368-1.621333 9.403733 13.0304 11.093333 14.2592 12.2368 0.571733 0.529067 2.244267 9.634133 5.546667 14.481066 5.1712 7.586133 20.7872 19.464533 29.610666 21.333334 5.870933 1.245867 11.682133 0.017067 17.527467 0.64 3.8144 0.4096 7.355733 3.541333 10.999467 3.541333 3.601067 0 34.935467-7.261867 38.280533-9.002667 11.4432-5.9648 25.309867-28.049067 28.3648-40.789333 1.28-5.316267 3.805867-19.5584 4.258133-24.8576 1.3056-15.377067 0.4608-38.382933-14.4896-47.240533-3.4048-2.013867-32.418133-15.1808-35.1744-15.786667-6.784-1.4848-21.512533-1.544533-28.5184-0.5888-4.7616 0.648533-42.589867 23.483733-45.627733 27.1616-5.512533 6.6816-4.096 9.966933 0.119467 16.512z" fill="#F8D3B6" p-id="5620"></path><path d="M805.965662 367.4368m-19.882667 0a19.882667 19.882667 0 1 0 39.765334 0 19.882667 19.882667 0 1 0-39.765334 0Z" fill="#E3F1F2" p-id="5621"></path><path d="M209.494195 351.6416c6.766933-1.1008 22.638933 12.347733 23.296 19.592533-3.319467 33.211733-52.411733 18.039467-38.510933-9.173333l15.2064-10.4192z" fill="#E7EEEF" p-id="5622"></path><path d="M498.313395 740.718933v60.0576l5.614934 5.3248 19.8656-3.5072v-61.8752c13.8496 9.796267 29.892267 18.7648 47.325866 18.2016-4.983467 20.778667-1.024 39.7056-11.460266 59.528534-14.523733 27.5968-48.170667 35.3792-75.9808 22.434133-28.970667-13.4912-35.9168-53.2736-36.317867-81.928533l22.843733-4.471467 28.100267-13.755733z" fill="#F4AD94" p-id="5623"></path><path d="M869.590195 664.277333c7.3728 6.766933 11.144533 9.685333 5.4528 21.845334-2.8928 6.178133-21.956267 31.906133-27.204266 34.670933-5.5296 2.909867-9.7024 1.109333-14.6432 1.723733-11.246933-15.146667 8.96-40.686933 20.0192-50.952533 5.341867-4.957867 7.662933-9.002667 16.375466-7.287467z" fill="#F69775" p-id="5624"></path><path d="M811.350195 711.594667c-3.328 4.266667-5.6832 11.127467-12.740266 11.136-30.0288-10.939733 5.341867-37.6576 12.740266-54.8096 7.995733-5.768533 21.256533-6.161067 22.0416 5.461333 0.648533 9.5744-15.496533 29.832533-22.0416 38.2208z" fill="#F59876" p-id="5625"></path><path d="M869.590195 664.277333c-8.712533-1.723733-11.0336 2.3296-16.375466 7.287467-11.067733 10.2656-31.266133 35.805867-20.0192 50.952533-1.28 0.162133-3.0976 2.525867-5.367467 2.500267-7.552-0.1024-9.984-5.870933-12.663467-11.776l-3.805866-1.646933c6.545067-8.388267 22.690133-28.6464 22.0416-38.2208-0.785067-11.6224-14.045867-11.2384-22.0416-5.461334 1.954133-4.5312-3.268267-13.021867 8.994133-14.6688 6.7584-0.904533 30.2336-1.041067 35.976533 0.631467 3.5072 1.015467 10.0608 7.458133 13.269334 10.402133z" fill="#F9BA99" p-id="5626"></path><path d="M112.487262 726.152533c9.019733-6.126933 34.645333-37.179733 35.959467-46.088533 1.1008-7.4496-6.050133-13.806933-12.817067-15.479467-2.756267-0.4608-10.171733 4.923733-12.228267 6.971734-4.224-6.545067-5.640533-9.8304-0.119466-16.512 3.037867-3.6864 40.866133-26.513067 45.627733-27.1616 7.005867-0.955733 21.7344-0.896 28.5184 0.5888 2.756267 0.605867 31.7696 13.7728 35.1744 15.786666 14.9504 8.8576 15.7952 31.863467 14.4896 47.240534-0.452267 5.307733-2.986667 19.541333-4.258133 24.8576-3.063467 12.740267-16.930133 34.824533-28.3648 40.789333-3.345067 1.7408-34.670933 9.0112-38.280534 9.002667-3.643733 0-7.185067-3.131733-10.999466-3.541334-5.845333-0.622933-11.656533 0.597333-17.527467-0.64-8.823467-1.8688-24.439467-13.738667-29.610667-21.333333-3.3024-4.846933-4.983467-13.952-5.546666-14.481067z m64.034133-61.627733c-10.427733 6.536533-37.486933 42.257067-34.645333 52.087467 0.631467 2.167467 7.048533 8.6784 9.156267 9.301333 5.248 1.7152 7.0912-0.520533 10.683733-3.310933 8.4736-6.596267 33.365333-39.133867 30.574933-48.785067-3.7888-5.4528-8.430933-11.434667-15.7696-9.2928z m56.081067 3.396267c-5.162667 0.341333-10.9824-0.9472-15.914667 0.469333-5.632 1.6128-29.883733 36.053333-31.018666 41.941333-1.8176 9.489067 8.0384 19.285333 17.92 14.122667 9.250133-4.8384 33.8432-43.639467 29.013333-56.533333z" fill="#F8C4A3" p-id="5627"></path><path d="M123.409929 671.556267c2.056533-2.048 9.472-7.432533 12.228266-6.971734 6.766933 1.672533 13.917867 8.029867 12.817067 15.479467-1.314133 8.9088-26.948267 39.9616-35.959467 46.088533-1.2288-1.134933-15.880533-2.824533-14.2592-12.2368 0.9472-5.486933 20.488533-37.6832 25.181867-42.368z" fill="#F79F7D" p-id="5628"></path><path d="M176.521395 664.5248c7.338667-2.141867 11.9808 3.84 15.7696 9.2928 2.7904 9.6512-22.101333 42.1888-30.574933 48.785067-3.592533 2.798933-5.4272 5.026133-10.683733 3.310933-2.0992-0.622933-8.5248-7.133867-9.156267-9.301333-2.8416-9.8304 24.2176-45.5424 34.645333-52.087467z" fill="#F89673" p-id="5629"></path><path d="M232.602462 667.921067c4.829867 12.893867-19.754667 51.694933-29.013333 56.533333-9.8816 5.162667-19.7376-4.625067-17.92-14.122667 1.1264-5.888 25.386667-40.328533 31.018666-41.941333 4.932267-1.416533 10.752-0.119467 15.914667-0.469333z" fill="#F79874" p-id="5630"></path></svg>