<?xml version="1.0" standalone="no"?><!DOCTYPE svg PUBLIC "-//W3C//DTD SVG 1.1//EN" "http://www.w3.org/Graphics/SVG/1.1/DTD/svg11.dtd"><svg t="1772951689053" class="icon" viewBox="0 0 1024 1024" version="1.1" xmlns="http://www.w3.org/2000/svg" p-id="5922" xmlns:xlink="http://www.w3.org/1999/xlink" width="200" height="200"><path d="M281.095456 1.204862c6.716545-1.482214 17.159799-1.490683 24.045739-0.601355 39.308305 5.081875 107.532479 74.864491 134.415599 105.194816 11.849239 13.373802 19.53981 32.811974 35.556186 42.941845l69.63016 4.734614c69.740267 12.814795 139.073984 28.49238 202.521196 60.906274 26.679845-12.958782 52.656697-27.780918 80.513842-38.317339 35.734052-13.517788 92.02429-30.211748 129.511589-22.00452 35.217395 7.71598 56.552801 60.2541 60.482785 92.380021 8.808584 71.959353-2.532468 151.185787-17.380014 222.044067-5.810277 27.713159-17.811973 50.208927-15.491249 79.36195 3.599662 45.143991 15.042351 90.728412 12.22191 136.338242-25.553362 414.282934-533.571484 395.988184-802.843111 228.743671-83.85941-52.089221-176.027686-147.086407-188.51216-249.418434C-4.827781 576.676407 17.09204 499.796105 58.568611 423.186837c15.398082-28.441561 46.287413-64.616043 57.789391-90.940156 10.282327-23.529082 14.66968-69.274428 22.512707-97.292501 17.778093-63.472621 59.754382-178.060436 112.529656-217.978566 5.488425-4.150198 23.757766-14.457935 29.678151-15.770752zM30.474311 587.187419c-9.443818 146.129321 74.50876 242.015836 192.755526 313.339954 206.120857 124.328076 621.784368 167.591774 724.412837-106.770198 32.388484-86.595153 22.571996-175.595727 9.079617-265.705844l32.15133-141.318479c2.617166-53.029367 11.849239-116.696794-4.929419-168.421813-4.565218-14.068324-20.031058-36.191421-34.920952-39.443821-31.778659-6.945229-87.281206 13.111238-118.246765 24.985886-28.619427 10.97685-54.774145 27.391307-83.512149 36.606441-28.10277-8.359685-55.239983-23.435914-83.47827-32.507061-65.988149-21.199889-136.194255-31.024848-205.316227-34.302658-32.134391-40.536424-67.961611-86.180133-107.744223-119.483355-15.101639-12.645399-44.805199-33.142296-64.33654-26.993227-25.163752 7.919255-39.265956 29.195373-52.851502 50.429141-27.552233 43.051953-50.259746 100.917571-64.785439 150.050835-9.613214 32.524001-15.355733 84.858846-27.594582 112.868448-8.605309 19.683797-32.083572 47.295318-43.941281 67.605879-30.042352 51.479396-62.879736 119.30549-66.75043 179.068342z" fill="#502D24" p-id="5923"></path><path d="M947.642674 793.757175c-3.328628-42.967255-19.94636-67.614349-57.840209-86.756079-49.582162-25.045175-100.019773-6.326935-150.872405-0.076228-9.054208 1.109543-21.225299 3.65895-26.781482 4.201017-35.302093 3.464145-75.982504-12.467534-99.232082-39.164318-7.021458-8.063242-13.45003-21.089782-20.496897-29.085266-23.173351-26.298704-66.479397-47.896674-101.39188-51.470926-77.168275-7.885376-123.201594 69.723327-208.543217 20.564655-50.344443-29.000568-86.900066-74.889901-150.897814-82.521183-6.877471-0.82157-22.555056-2.811971-26.756073 4.031621-23.359686-0.448899-47.710338 17.252966-62.049696 35.03106-5.064936 6.284586-5.852626 14.584982-12.315077 18.675891 3.862225-59.762852 36.699609-127.597416 66.75043-179.068342 11.857709-20.310561 35.335972-47.922083 43.941281-67.605879 12.247319-28.009602 17.981368-80.344447 27.594582-112.868448 14.525693-49.124793 37.233205-106.998882 64.785439-150.050834 13.585546-21.225299 27.68775-42.509886 52.851502-50.429142 19.53981-6.149069 49.234901 14.347828 64.33654 26.993227 39.782613 33.303222 75.601363 78.946931 107.744223 119.483355 69.121972 3.277809 139.328078 13.102768 205.316227 34.302658 28.238286 9.071147 55.36703 24.147377 83.47827 32.507061 28.738004-9.215134 54.892722-25.62959 83.512149-36.60644 30.965559-11.874648 86.468106-31.931116 118.246765-24.985887 14.889894 3.2524 30.355734 25.375497 34.920952 39.443821 16.778658 51.72502 7.546585 115.392446 4.929419 168.421814l-32.15133 141.318479c13.492379 90.118587 23.317337 179.110691-9.079617 265.705843zM224.652762 256.679197c30.92321-16.29588 59.695094-36.835125 92.125927-50.395262 9.816489-4.107849 55.062118-16.024846 56.58668-21.99605-6.970639-24.223605-44.754381-82.66517-68.79165-88.145125-13.754942-3.133823-30.491251 15.525129-38.054775 26.840771-23.486733 35.132697-39.51158 92.00735-41.874652 133.704136z m698.190361 161.120852c10.646529-47.032755 22.622814-97.893856 16.465276-146.595159-4.438171-35.056469-29.440997-34.395825-56.527392-23.61378-12.61999 5.022587-63.455681 31.414458-63.464151 44.203844 0 7.893846 39.291365 42.001698 47.583291 51.818188 17.566349 20.793339 28.848111 48.548848 44.203845 67.343316 3.65048 4.47205 4.150198 8.529081 11.739131 6.843591z m-550.85833-65.412203c-6.775834 1.507623-25.23998 16.473745-27.018636 22.546586-3.438736 11.78995-1.363637 36.403166 5.793338 46.880299 19.277247 28.221347 75.389618 55.290802 98.92717 20.649353 29.280071-43.102771-32.744216-100.096001-77.701872-90.084708z m305.844188 74.474881c-31.702431 5.361378-57.772451 40.239982-39.46923 70.926038 20.293622 34.023154 105.914749 22.131566 114.418419-16.626202 11.341051-51.71655-33.642014-61.270475-74.949189-54.291366z m-351.081347 37.267084c-68.749301 10.002824-85.350094 106.109554-20.886507 138.938468 18.023717 9.181254 55.443258 6.572559 73.187473-4.006212 19.463582-11.612085 38.385097-44.856018 35.598535-67.572-5.115754-41.679846-46.168836-73.424627-87.891031-67.351786z m440.810323 153.701315c0-40.73123-33.015249-73.746479-73.746478-73.746478s-73.746479 33.015249-73.746479 73.746478 33.015249 73.746479 73.746479 73.746479 73.746479-33.015249 73.746478-73.746479z" fill="#F8C17D" p-id="5924"></path><path d="M104.839085 533.480468l28.91587 2.05816c-4.683795 12.738567-17.269906 14.534163-26.925469 22.648223-13.881989 11.662904-38.833996 43.356865-42.628463 60.652181-6.005083 27.374368 9.062677 85.748174 30.245627 104.745917 33.447208 30.000003 105.86393 31.990404 142.49578 6.022022 15.355733-10.892152 36.674199-40.053646 40.765109-58.382276 4.116319-18.421798-4.641446-41.612088 4.785432-59.246195 85.333154 49.167142 131.374943-28.450031 208.543218-20.564655 34.920952 3.565782 78.226999 25.163752 101.39188 51.470926 7.038397 7.995484 13.466969 21.013554 20.496896 29.085266 23.258049 26.696784 63.93846 42.636933 99.232083 39.164318-3.438736 16.905705-17.151329 29.31395-22.868438 45.296447-15.728404 43.949751-1.143422 93.125363 37.902319 119.390188 30.880862 20.7764 93.083014 25.798986 125.40374 6.733484 5.166573-3.049125 34.980241-33.430269 39.172788-39.316774 26.645966-37.351783 13.653305-93.65049-12.24732-128.012436l10.290798-8.224168c37.893849 19.14173 54.511581 43.788824 57.840209 86.756079-102.628469 274.361971-518.29198 231.098274-724.412837 106.770198C104.991541 829.203255 21.038963 733.31674 30.482781 587.187419c6.453981-4.08244 7.241672-12.391306 12.315078-18.675891 14.347828-17.778093 38.698479-35.488428 62.049696-35.03106z m354.045774 87.577649c-33.210054 5.750989-35.547717 37.106159-17.168268 60.982502 26.256355 34.090913 71.137783 40.079056 106.66856 16.134954 30.398083-20.479957 14.576512-50.048001-12.476004-64.887076-22.512707-12.348957-51.479396-16.651611-77.032758-12.23038z m-110.183524 44.720502c-13.263694 33.548846 11.950876 61.575388 36.801246 80.98815-8.258047 43.229818-21.030493 111.293066 18.785999 142.08923 22.284023 17.244496 54.367595 24.44382 80.784876 14.525694 44.517227-16.719369 59.009041-73.001137 71.993231-113.918702 3.277809-4.768493 22.919257-4.853191 32.354606-8.95257 14.203841-6.166009 32.98137-23.410505 35.607005-38.986453l-14.127613-13.560137c-19.861662 27.094864-29.915305 37.377192-65.996619 32.676458-24.282894-3.167702-34.641449-19.006213-51.818187-30.804634-19.057032-13.094298-29.593453-3.108414-47.21909-1.990401-20.725581 1.312818-51.013557-0.686053-66.242243-16.744779-15.07623-15.906269-6.716545-32.9729-12.272729-41.434222l-18.642012-3.879165z" fill="#FAF1DE" p-id="5925"></path><path d="M282.484502 611.9785c-9.426878 17.634107-0.669114 40.824397-4.785433 59.246195-4.09091 18.3371-25.409376 47.498593-40.765109 58.382276-36.63185 25.968382-109.048572 23.977981-142.49578-6.022022-21.18295-18.997743-36.24224-77.37155-30.245627-104.745917 3.794467-17.295315 28.754944-48.989277 42.628463-60.652181 9.655563-8.114061 22.241674-9.918126 26.925469-22.648223l-28.91587-2.05816c4.201017-6.843592 19.878602-4.844721 26.756073-4.031621 63.997748 7.631283 100.5449 53.520615 150.897814 82.521183z m-125.327512-28.246756c-14.983062 3.277809-41.92547 27.044046-44.051388 42.713161-12.289668 90.686063 105.965567 93.777537 115.60419 20.581594 5.759459-43.738006-29.432527-72.501419-71.552802-63.294755z" fill="#FAD1B4" p-id="5926"></path><path d="M889.802465 707.001096l-10.290797 8.224168c25.900624 34.353476 38.893285 90.660653 12.247319 128.012436-4.201017 5.886505-34.006215 36.276119-39.172788 39.316774-32.320726 19.065502-94.522878 14.042915-125.40374-6.733484-39.045741-26.264825-53.622253-75.440437-37.902319-119.390188 5.71711-15.982497 19.429703-28.390743 22.868438-45.296447 5.556184-0.542067 17.727275-3.091474 26.781482-4.201017 50.852631-6.250706 101.290242-24.968947 150.872405 0.076228z m-96.335414 8.715416c-10.663468 1.990401-39.435351 23.402035-46.092608 32.710337-37.106159 51.860536 18.921515 120.304925 76.14343 92.667993 42.806329-20.666292 49.67533-73.712599 14.703559-105.237165-8.232638-7.419538-34.082443-22.131566-44.762851-20.141165z" fill="#FAD3B8" p-id="5927"></path><path d="M767.557957 617.831126c0 40.73123-33.015249 73.746479-73.746478 73.746479s-73.746479-33.015249-73.746479-73.746479 33.015249-73.746479 73.746479-73.746478 73.746479 33.015249 73.746478 73.746478z m-76.93959-37.605876c0-12.543762-10.17222-22.715982-22.715982-22.715982s-22.715982 10.17222-22.715982 22.715982 10.17222 22.715982 22.715982 22.715982 22.715982-10.17222 22.715982-22.715982z" fill="#53322A" p-id="5928"></path><path d="M326.747634 464.129811c41.730665-6.072841 82.775277 25.671939 87.891032 67.351786 2.786562 22.715982-16.126484 55.959916-35.598536 67.572-17.744214 10.58724-55.163755 13.187466-73.187472 4.006212-64.463587-32.828914-47.854325-128.935643 20.886507-138.938467z m74.10221 50.225867c0-12.899493-10.451723-23.351216-23.351216-23.351217s-23.351216 10.451723-23.351217 23.351217 10.451723 23.351216 23.351217 23.351216 23.351216-10.451723 23.351216-23.351216z" fill="#523028" p-id="5929"></path><path d="M224.652762 256.679197c2.363072-41.696786 18.387918-98.571439 41.874652-133.704136 7.563524-11.315642 24.299833-29.974594 38.054775-26.840771 24.03727 5.479955 61.821012 63.92152 68.79165 88.145125-1.533032 5.971203-46.778661 17.89667-56.58668 21.99605-32.430833 13.560137-61.202717 34.099382-92.125927 50.395262z" fill="#FBC6B7" p-id="5930"></path><path d="M922.843123 417.800049c-7.588934 1.685489-8.088651-2.371542-11.739131-6.843591-15.355733-18.794468-26.645966-46.549977-44.203845-67.343316-8.291926-9.816489-47.583291-43.924341-47.583291-51.818188 0-12.789386 50.835691-39.181258 63.464151-44.203844 27.086395-10.782045 52.089221-11.442689 56.527392 23.61378 6.157539 48.701304-5.818747 99.562405-16.465276 146.595159z" fill="#FAC7BA" p-id="5931"></path><path d="M371.984793 352.387846c44.957656-10.011294 106.973473 46.981936 77.701872 90.084707-23.529082 34.641449-79.649924 7.571994-98.92717-20.649352-7.156974-10.477133-9.232073-35.098818-5.793338-46.880299 1.770187-6.072841 20.234333-21.038963 27.018636-22.546586z" fill="#F8F0DE" p-id="5932"></path><path d="M677.828981 426.862727c41.307175-6.979109 86.290241 2.574817 74.949189 54.291366-8.495201 38.757768-94.116328 50.649356-114.418419 16.626202-18.30322-30.677587 7.766799-65.56466 39.46923-70.926038z" fill="#F9EFDD" p-id="5933"></path><path d="M348.701335 665.778619l18.642012 3.879164c5.556184 8.452852-2.803501 25.527953 12.272729 41.434223 15.228686 16.058726 45.516662 18.057596 66.242243 16.744778 17.625637-1.118013 28.170528-11.095427 47.21909 1.990401 17.185208 11.80689 27.535294 27.645401 51.818187 30.804634 36.081314 4.700735 46.126487-5.581593 65.996619-32.676458l14.127613 13.560137c-2.625636 15.567478-21.403164 32.811974-35.607005 38.986453-9.443818 4.099379-29.085266 4.192547-32.354605 8.95257-12.984191 40.917565-27.476005 97.199333-71.993232 113.918702-26.417281 9.918126-58.500853 2.718803-80.784876-14.525693-39.816492-30.796164-27.044046-98.859412-18.785998-142.08923-24.85037-19.412763-50.06494-47.447775-36.801247-80.988151z m99.037278 86.662911c-11.773011-0.271033-25.324678 2.718803-35.183516-3.794467l-4.150198 3.701299c-0.745342 8.927161-5.014117 18.464146-6.022022 27.044046-2.066629 17.659516-3.413326 48.337103 0.575946 65.344445 6.640317 28.348394 42.32355 45.872393 69.765676 38.046306 33.836819-9.638623 57.044049-68.690013 57.41672-101.180135-7.3179-1.524563-15.660645-5.090345-21.928292-9.062678-6.022022-3.811406-18.116885-11.874648-23.283458-15.965558-2.396951-1.897233-5.242801-10.875213-10.815924-12.060983l-26.366463 7.927725z" fill="#553128" p-id="5934"></path><path d="M458.884859 621.058117c25.553362-4.429701 54.520051-0.118577 77.032758 12.23038 27.044046 14.839076 42.874087 44.398649 12.476003 64.887076-35.539247 23.944102-80.412205 17.955959-106.66856-16.134954-18.387918-23.876344-16.041786-55.223044 17.168269-60.982502z" fill="#53312A" p-id="5935"></path><path d="M157.15699 583.731744c42.120275-9.206664 77.312261 19.55675 71.552802 63.294755-9.638623 73.195942-127.893859 70.112938-115.60419-20.581594 2.125918-15.669115 29.068326-39.435351 44.051388-42.713161z" fill="#FBBB99" p-id="5936"></path><path d="M793.467051 715.716512c10.680408-1.998871 36.530213 12.713158 44.76285 20.141165 34.971771 31.533035 28.0943 84.570873-14.703558 105.237165-57.221915 27.628461-113.249588-40.815927-76.14343-92.667993 6.657256-9.308301 35.42914-30.711466 46.092608-32.710337z" fill="#FABD9C" p-id="5937"></path><path d="M667.893915 580.22525m-22.715982 0a22.715982 22.715982 0 1 0 45.431964 0 22.715982 22.715982 0 1 0-45.431964 0Z" fill="#EFE7D8" p-id="5938"></path><path d="M377.498628 514.355678m-23.351217 0a23.351216 23.351216 0 1 0 46.702433 0 23.351216 23.351216 0 1 0-46.702433 0Z" fill="#F0E6D5" p-id="5939"></path><path d="M447.738613 752.44153c4.116319 0.093168 8.283457-0.076228 12.391305 0l-16.177302 88.492386 6.09825 6.276116 14.169962 0.228685 20.708641-90.880868c5.166573 4.08244 17.261436 12.154151 23.283458 15.965558 6.267646 3.963863 14.610391 7.529645 21.928292 9.062677-0.372671 32.490122-23.579901 91.541512-57.41672 101.180135-27.442126 7.817618-63.11689-9.697912-69.765676-38.046306-3.989272-17.007342-2.642575-47.676459-0.575946-65.344445 0.999435-8.571429 5.268211-18.116885 6.022022-27.044045l4.150198-3.701299c9.867308 6.51327 23.410505 3.523433 35.183516 3.794466z" fill="#F69C83" p-id="5940"></path><path d="M484.920999 756.574788l-20.708641 90.880868-14.169962-0.228684-6.09825-6.276116 16.177303-88.492386c-4.107849-0.076228-8.274987 0.093168-12.391306 0l26.366462-7.927726c5.573123 1.185771 8.418973 10.16375 10.815925 12.060984z" fill="#E14C2D" p-id="5941"></path></svg>