<?xml version="1.0" standalone="no"?><!DOCTYPE svg PUBLIC "-//W3C//DTD SVG 1.1//EN" "http://www.w3.org/Graphics/SVG/1.1/DTD/svg11.dtd"><svg t="1772951549075" class="icon" viewBox="0 0 1024 1024" version="1.1" xmlns="http://www.w3.org/2000/svg" p-id="3364" xmlns:xlink="http://www.w3.org/1999/xlink" width="200" height="200"><path d="M781.3888 8.430933c58.385067-9.9328 89.514667 33.9968 110.532267 81.544534 32.221867 72.9088 44.552533 163.2 51.3536 241.2032 4.053333 46.464 5.504 40.1408 22.818133 80.196266 56.994133 131.882667 92.970667 267.298133 3.8656 395.460267-159.2832 229.111467-607.5904 272.861867-829.917867 121.557333C2.722133 834.935467-18.6368 692.736 13.073067 538.069333c10.897067-53.1712 27.1104-79.744 23.688533-136.840533-4.992-83.2768-12.834133-167.7056 9.326933-250.436267 8.302933-31.010133 31.351467-80.904533 67.054934-85.4016 71.2704-8.977067 151.620267 51.797333 210.048 86.638934 10.6752-1.0752 21.563733-3.114667 32.042666-5.248 84.096-17.160533 152.917333-24.277333 240.110934-19.848534 6.075733 0.3072 10.248533 3.029333 15.829333 3.976534C651.502933 94.890667 727.748267 17.553067 781.3888 8.430933zM36.8384 732.842667c1.117867 26.376533 10.589867 36.4544 20.599467 57.685333 67.515733 143.189333 221.269333 186.743467 368.699733 197.870933 185.181867 13.969067 447.394133-51.584 537.813333-230.8352 18.090667-35.857067 27.639467-52.2752 28.842667-94.7712 7.150933-3.438933 4.0448-15.8976 4.113067-22.673066 0.9472-106.589867-35.8656-157.098667-72.157867-249.216-12.561067-31.889067-7.5264-45.073067-10.325333-76.2112-6.2208-69.444267-27.733333-202.026667-72.200534-257.442134-25.0368-31.2064-48.452267-29.858133-81.578666-11.886933-35.805867 19.4304-77.166933 54.638933-107.861334 81.681067-23.901867 21.051733-19.5072 32.0256-57.5232 28.842666-69.691733-5.8368-137.0112-5.051733-205.960533 8.4736-23.236267 4.5568-61.9264 22.852267-81.988267 11.639467-18.474667-10.325333-38.656-28.5184-58.888533-40.004267-29.832533-16.930133-94.293333-50.670933-127.104-45.943466-37.12 5.341867-49.877333 65.578667-55.483733 96.964266-14.677333 82.158933-6.826667 153.284267-0.2304 234.811734 2.747733 33.9712-12.305067 60.014933-19.6608 91.426133-15.018667 64.119467-22.434133 127.7952-17.245867 192.7168l8.149333 26.871467z" fill="#4D2C23" p-id="3365"></path><path d="M992.802133 662.792533c0.768-26.999467-1.467733-40.149333-18.722133-61.627733-12.970667-16.145067-20.9152-17.902933-38.9632-24.900267-21.725867-8.4224-28.945067-9.873067-53.563733-8.2432-57.821867 3.831467-92.151467 37.998933-140.100267 57.685334-12.049067 4.949333-29.6448 7.159467-42.837333 8.772266l-2.491734 3.592534c-7.927467-0.162133-17.297067 0.9984-24.721066 0-0.913067-0.119467-12.757333-3.114667-16.477867-4.1216-27.400533-7.389867-45.1072-28.202667-68.5824-40.610134-39.7568-21.000533-83.054933-22.493867-125.141333-6.8352-51.242667 19.054933-64.520533 64.1024-123.554134 80.4096-16.341333-0.785067-33.152 1.109333-49.442133 0-19.3792-1.322667-31.633067-6.3488-49.442133-12.3648-33.629867-11.349333-54.3488-20.258133-92.714667-20.5824-6.690133-0.059733-19.285333-2.978133-22.664533 4.096-48.4864 3.7888-88.6272 45.294933-86.528 94.7712l-8.149334-26.871466c-5.179733-64.9216 2.235733-128.597333 17.245867-192.7168 7.355733-31.4112 22.408533-57.454933 19.6608-91.426134-6.596267-81.527467-14.455467-152.6528 0.2304-234.811733 5.6064-31.3856 18.363733-91.6224 55.483733-96.964267 32.8192-4.727467 97.271467 29.013333 127.104 45.943467 20.241067 11.485867 40.413867 29.678933 58.888534 40.004267 20.053333 11.204267 58.743467-7.082667 81.988266-11.639467 68.949333-13.5168 136.2688-14.3104 205.960534-8.4736 38.016 3.182933 33.621333-7.790933 57.5232-28.842667 30.6944-27.0336 72.055467-62.250667 107.861333-81.681066 33.1264-17.9712 56.541867-19.310933 81.578667 11.886933 44.4672 55.415467 65.979733 187.997867 72.200533 257.442133 2.7904 31.138133-2.244267 44.322133 10.325333 76.2112 36.292267 92.117333 73.105067 142.626133 72.157867 249.216-0.059733 6.775467 3.037867 19.234133-4.113067 22.673067zM704.3584 184.8064c38.690133 14.6176 77.610667 39.3472 109.277867 65.860267 6.408533 5.367467 30.429867 37.4784 34.952533 18.5088 0.733867-3.089067-3.7632-8.0384-4.0448-12.3392-0.904533-13.5168 1.134933-27.7504-0.1792-41.019734-2.193067-22.1696-17.373867-75.810133-29.329067-94.293333-10.120533-15.6416-20.104533-17.5616-38.562133-14.984533-13.056 1.8176-42.2144 31.957333-51.592533 43.178666-3.933867 4.7104-24.328533 31.744-20.5312 35.089067zM115.140267 337.271467c7.082667 1.7152 8.192-2.7136 12.347733-6.186667 12.714667-10.615467 25.864533-32.128 37.009067-45.397333l78.370133-61.755734c1.442133-5.085867-3.626667-7.338667-6.178133-10.274133-13.883733-16-54.877867-48.452267-74.837334-52.8896-48.401067-10.760533-43.8784 43.8784-46.7968 75.4688-0.469333 5.0688-3.8656 9.7792-4.215466 16.384-1.536 28.987733 3.140267 56.260267 4.3008 84.642133z m538.606933 8.977066c-24.183467 3.4816-65.245867 24.285867-68.872533 50.781867-6.289067 45.917867 26.171733 64.2048 67.106133 50.619733 28.219733-9.361067 56.610133-34.884267 52.394667-67.106133-2.705067-20.650667-31.6416-37.034667-50.619734-34.295467z m-350.455467 32.913067c-10.052267 2.2016-24.541867 16.776533-26.7776 26.7776-6.237867 27.972267 9.1136 48.4864 33.4592 59.9552 21.5808 10.1632 56.106667 16.682667 75.204267-0.733867 33.501867-30.5408-1.5872-79.735467-38.033067-85.888-10.564267-1.783467-33.723733-2.3296-43.8528-0.119466z m-40.021333 130.901333a77.05344 77.05344 0 0 0-21.376 24.448c-19.063467 34.423467-9.096533 77.687467 23.108267 100.292267 32.2048 22.613333 76.279467 17.288533 102.178133-12.3392 25.898667-29.627733 25.284267-74.018133-1.425067-102.912-26.709333-28.893867-70.912-32.989867-102.485333-9.4976zM643.413333 568.9088c9.8048-10.24 48.708267-24.209067 63.163734-25.642667 21.5808-2.133333 65.3824 29.3376 63.2832-9.8304-34.9696-45.0816-120.2944-24.797867-149.853867 18.2272-12.100267 17.604267-6.715733 35.208533 16.0768 28.433067 5.725867-1.706667 4.983467-8.7296 7.330133-11.178667z" fill="#F7C07D" p-id="3366"></path><path d="M654.916267 633.949867l2.696533 3.592533 13.789867 0.529067c7.424 0.9984 16.7936-0.162133 24.721066 0 8.209067 0.162133 16.512-0.119467 24.721067 0 1.902933 6.8096-4.8128 10.427733-6.263467 16.324266-7.799467 31.547733 6.801067 83.959467 26.794667 109.422934 13.7216 17.4592 55.185067 44.501333 77.021867 46.4896 3.7632 0.341333 7.057067-2.747733 10.871466-2.389334 15.5648 1.450667 27.810133 5.367467 45.303467 2.414934 26.205867-4.420267 58.1376-42.4192 85.265067-52.770134h4.1216c-90.4192 179.242667-352.631467 244.804267-537.813334 230.8352-147.4304-11.118933-301.184-54.6816-368.699733-197.870933l4.9664-2.935467c24.610133 27.4176 33.3824 75.246933 75.4432 81.169067 37.410133 5.265067 74.0608 5.230933 109.192533-10.1888 30.199467-13.252267 56.977067-45.124267 68.078934-76.142933 3.0208-8.430933 10.120533-39.901867 10.112-47.530667 0-2.909867-3.822933-23.765333-4.872534-28.0576-2.4832-10.180267-8.362667-17.518933-11.4944-25.6-3.831467-9.890133 11.281067-3.3792 12.279467-10.205867 10.530133-0.597333 11.374933-2.705067 16.477867-4.1216 59.0336-16.315733 72.311467-61.354667 123.554133-80.4096 42.0864-15.650133 85.384533-14.165333 125.141333 6.8352 23.4752 12.398933 41.181867 33.220267 68.5824 40.610134z m-166.084267-28.049067c-25.1648 4.2752-63.3856 30.318933-47.5904 58.368 16.810667 29.858133 64.366933 44.2624 95.3856 30.634667 12.0064-5.2736 40.738133-30.557867 43.4688-43.050667 10.146133-46.336-60.603733-51.1488-91.264-45.943467z m-81.143467 139.306667c-4.181333 22.647467 10.581333 31.214933 28.782934 39.202133 48.5376 21.290667 129.365333 11.153067 171.136-22.647467 14.114133-11.4176 40.064-40.7296 34.670933-59.554133-4.983467-9.224533-15.274667-6.562133-24.251733-6.263467-2.705067 34.688-31.658667 52.488533-61.934934 63.744-33.3568 12.398933-82.0992 15.812267-114.261333-1.2288-12.279467-6.510933-15.479467-18.065067-34.133333-13.252266z" fill="#F9F0DD" p-id="3367"></path><path d="M123.374933 638.071467c2.7136-0.213333 5.512533 0.145067 8.2432 0-11.153067 12.9792-29.6448 22.4256-37.981866 38.2464-10.2912 19.541333-17.851733 57.4976-15.752534 79.351466 2.670933 27.733333 35.541333 70.408533 60.4928 83.720534 28.680533 1.809067 51.490133 12.4672 79.9744 2.850133 25.019733-8.448 59.178667-33.7408 69.051734-58.683733 7.560533-19.106133 10.1632-61.610667 4.1728-80.878934-3.037867-9.787733-12.765867-18.8416-11.7504-29.4912l8.3712-2.1504c10.914133-0.418133 22.075733 0.6144 32.964266 0-0.9984 6.826667-16.110933 0.315733-12.279466 10.205867 3.131733 8.0896 9.0112 15.419733 11.4944 25.6 1.0496 4.292267 4.864 25.1392 4.872533 28.0576 0 7.6288-7.0912 39.099733-10.112 47.530667-11.101867 31.018667-37.879467 62.882133-68.078933 76.142933-35.140267 15.419733-71.7824 15.453867-109.192534 10.1888-42.052267-5.922133-50.833067-53.751467-75.4432-81.169067l-4.9664 2.935467c-10.0096-21.230933-19.490133-31.3088-20.599466-57.685333-2.090667-49.4848 38.0416-90.9824 86.528-94.7712z" fill="#FBE5CF" p-id="3368"></path><path d="M935.108267 576.264533c18.056533 6.997333 26.001067 8.7552 38.9632 24.900267 17.2544 21.486933 19.4816 34.6368 18.722133 61.627733-1.2032 42.496-10.752 58.914133-28.842667 94.7712h-4.1216c-1.143467-12.8512 11.665067-22.519467 12.526934-35.2 0.4608-6.792533-3.959467-11.357867-4.215467-16.384-2.542933-49.2032-5.649067-79.317333-37.137067-119.424-6.144-7.825067-7.517867-11.579733 4.104534-10.282666z" fill="#F7ECD8" p-id="3369"></path><path d="M935.108267 576.264533c-11.6224-1.297067-10.248533 2.4576-4.104534 10.282667 31.496533 40.106667 34.602667 70.229333 37.137067 119.424 0.256 5.034667 4.676267 9.591467 4.215467 16.384-0.861867 12.680533-13.6704 22.3488-12.526934 35.2-27.127467 10.350933-59.0592 48.349867-85.265066 52.770133-17.493333 2.952533-29.738667-0.9728-45.303467-2.414933-3.8144-0.3584-7.108267 2.7392-10.871467 2.389333-21.828267-1.988267-63.300267-29.0304-77.021866-46.4896-20.002133-25.454933-34.594133-77.866667-26.794667-109.422933 1.4592-5.905067 8.174933-9.5232 6.263467-16.324267-8.209067-0.128-16.512 0.162133-24.721067 0l2.491733-3.592533c13.192533-1.6128 30.779733-3.822933 42.837334-8.772267 9.258667-0.128 15.1296-3.421867 11.639466 9.565867-12.433067 46.216533-0.3072 105.728 44.586667 129.928533 26.8288 14.464 50.705067 16.6656 79.965867 6.9888 4.949333-1.6384 45.508267-32.2816 49.314133-37.213866 19.908267-25.745067 21.956267-58.001067 8.968533-87.424-11.144533-25.250133-35.0976-59.861333-62.626133-67.191467l8.2432-12.347733c24.6272-1.629867 31.837867-0.1792 53.563733 8.2432z" fill="#FAE2CB" p-id="3370"></path><path d="M241.8944 534.519467l9.216 4.6592c0 6.007467 5.0432 18.517333 10.7264 20.181333l23.7824-0.093867 8.866133-7.6032c7.611733-27.537067-5.777067-30.08-26.888533-37.1968-2.312533-0.776533-4.283733-1.066667-4.317867-4.386133 31.5648-23.492267 75.767467-19.396267 102.485334 9.4976 26.709333 28.893867 27.323733 73.284267 1.425066 102.912s-69.973333 34.944-102.178133 12.3392c-32.2048-22.613333-42.171733-65.8688-23.108267-100.292267z" fill="#513129" p-id="3371"></path><path d="M881.544533 568.021333l-8.2432 12.347734c27.528533 7.338667 51.4816 41.941333 62.626134 67.191466 12.987733 29.422933 10.9312 61.6704-8.968534 87.424-3.8144 4.932267-44.3648 35.575467-49.314133 37.213867-29.252267 9.6768-53.137067 7.4752-79.965867-6.9888-44.893867-24.200533-57.019733-83.712-44.586666-129.928533 3.490133-12.996267-2.3808-9.693867-11.639467-9.565867 47.940267-19.6864 82.2784-53.853867 140.100267-57.685333z m19.7376 159.829334c4.770133-4.8128 15.2576-27.758933 16.546134-34.944 5.1968-29.0304-16.3072-61.943467-38.263467-79.633067-16.6656-13.431467-32.042667-15.274667-53.640533-12.279467-12.501333 1.732267-31.812267 16.597333-39.236267 26.692267-24.567467 33.425067-9.216 85.870933 22.664533 109.3632 7.918933 5.8368 31.812267 13.056 41.1136 12.4416 6.664533-0.443733 46.446933-17.2288 50.816-21.632z" fill="#F9D1B6" p-id="3372"></path><path d="M704.3584 184.8064c-3.797333-3.345067 16.5888-30.378667 20.5312-35.089067 9.378133-11.221333 38.536533-41.352533 51.592533-43.178666 18.466133-2.577067 28.4416-0.657067 38.562134 14.984533 11.9552 18.474667 27.127467 72.123733 29.329066 94.293333 1.314133 13.269333-0.733867 27.511467 0.1792 41.019734 0.290133 4.3008 4.7872 9.250133 4.0448 12.3392-4.522667 18.9696-28.544-13.141333-34.952533-18.5088-31.6672-26.513067-70.587733-51.242667-109.277867-65.860267z" fill="#FAC5B6" p-id="3373"></path><path d="M115.140267 337.271467c-1.169067-28.381867-5.845333-55.6544-4.3008-84.642134 0.349867-6.6048 3.746133-11.3152 4.215466-16.384 2.9184-31.5904-1.604267-86.229333 46.7968-75.4688 19.968 4.437333 60.9536 36.8896 74.837334 52.8896 2.551467 2.944 7.620267 5.188267 6.178133 10.274134l-78.370133 61.755733c-11.153067 13.269333-24.2944 34.781867-37.009067 45.397333-4.164267 3.473067-5.265067 7.893333-12.347733 6.186667z" fill="#FAC6B7" p-id="3374"></path><path d="M238.7456 654.549333c-12.6976-1.553067-8.6016 3.217067-2.133333 8.311467 14.148267 11.144533 29.755733 20.002133 34.432 39.739733 3.0976 13.090133 2.773333 55.68-1.1776 67.5328-2.0224 6.084267-13.610667 21.8368-18.6368 26.692267-4.096 3.959467-32.349867 25.130667-35.729067 26.077867-6.263467 1.757867-13.354667-0.085333-19.925333 0.648533-4.334933 0.4864-8.3456 4.0192-12.458667 4.0192-4.1216 0-8.132267-3.5584-12.458667-4.0192-5.504-0.5888-11.357867 0.785067-16.401066-0.059733-4.642133-0.776533-23.176533-10.453333-25.915734-13.226667-1.732267-1.749333-2.116267-6.4-4.7872-9.514667-12.3648-14.421333-26.478933-38.2464-28.962133-57.6768-2.1248-16.682667 2.747733-18.875733 6.289067-30.660266 4.718933-15.7184 5.674667-23.210667 16.469333-37.0944 13.047467-16.768 29.1072-25.147733 47.2064-35.208534l-32.955733-2.056533c-2.730667 0.145067-5.521067-0.213333-8.2432 0 3.3792-7.074133 15.965867-4.155733 22.664533-4.096 38.365867 0.315733 59.076267 9.233067 92.714667 20.5824z m-58.897067 4.974934c-34.7648 4.795733-57.847467 29.653333-63.9232 63.786666-2.747733 15.4368 6.690133 44.0832 15.5136 57.088 16.298667 24.029867 52.7616 29.354667 78.660267 20.6336 28.125867-9.463467 49.2544-45.226667 45.1072-74.376533-1.757867-12.373333-17.0752-39.1168-26.7008-47.4624-12.8-11.101867-31.6672-22.024533-48.674133-19.677867z" fill="#FAD1B6" p-id="3375"></path><path d="M131.618133 638.071467l32.955734 2.056533c-18.0992 10.0608-34.158933 18.440533-47.2064 35.208533-10.8032 13.883733-11.7504 21.376-16.469334 37.0944-3.541333 11.784533-8.413867 13.9776-6.289066 30.660267 2.474667 19.421867 16.5888 43.255467 28.962133 57.6768 2.6624 3.106133 3.054933 7.765333 4.7872 9.514667 2.7392 2.773333 21.2736 12.458667 25.915733 13.226666 5.0432 0.8448 10.897067-0.529067 16.401067 0.059734 4.3264 0.4608 8.337067 4.0192 12.458667 4.0192 4.104533 0 8.123733-3.5328 12.458666-4.0192 6.5792-0.733867 13.661867 1.109333 19.925334-0.648534 3.3792-0.9472 31.633067-22.1184 35.729066-26.077866 5.0176-4.855467 16.605867-20.608 18.6368-26.692267 3.950933-11.8528 4.2752-54.4512 1.1776-67.5328-4.676267-19.7376-20.283733-28.5952-34.432-39.739733-6.468267-5.0944-10.564267-9.873067 2.133334-8.311467 17.8176 6.016 30.071467 11.042133 49.442133 12.3648v4.1216l-8.3712 2.1504c-1.006933 10.6496 8.712533 19.703467 11.7504 29.4912 5.981867 19.259733 3.3792 61.7728-4.1728 80.878933-9.873067 24.951467-44.032 50.244267-69.051733 58.683734-28.484267 9.617067-51.293867-1.041067-79.9744-2.850134-24.951467-13.312-57.821867-55.9872-60.4928-83.720533-2.107733-21.853867 5.461333-59.810133 15.752533-79.351467 8.337067-15.8208 26.8288-25.275733 37.981867-38.2464z" fill="#FBDBC1" p-id="3376"></path><path d="M653.7472 346.248533c18.978133-2.730667 47.914667 13.6448 50.619733 34.295467 4.215467 32.221867-24.174933 57.745067-52.394666 67.106133-40.925867 13.576533-73.3952-4.701867-67.106134-50.619733 3.626667-26.496 44.689067-47.300267 68.872534-50.781867z" fill="#F8EEDC" p-id="3377"></path><path d="M303.291733 379.1616c10.129067-2.210133 33.288533-1.664 43.8528 0.119467 36.445867 6.152533 71.534933 55.338667 38.033067 85.888-19.0976 17.408-53.623467 10.897067-75.204267 0.733866-24.3456-11.4688-39.688533-31.982933-33.4592-59.9552 2.2272-10.001067 16.7168-24.584533 26.7776-26.7776z" fill="#F8EEDD" p-id="3378"></path><path d="M643.413333 568.9088c-2.346667 2.449067-1.604267 9.472-7.330133 11.178667-22.792533 6.775467-28.168533-10.8288-16.0768-28.433067 29.568-43.016533 114.884267-63.300267 149.853867-18.2272 2.0992 39.168-41.710933 7.697067-63.2832 9.8304-14.455467 1.4336-53.367467 15.402667-63.163734 25.642667z" fill="#543429" p-id="3379"></path><path d="M267.588267 514.4576c-8.209067 6.869333-16.477867 12.501333-16.477867 24.721067l-9.216-4.6592a77.05344 77.05344 0 0 1 21.376-24.448c0.042667 3.328 2.013867 3.6096 4.317867 4.386133z" fill="#78523F" p-id="3380"></path><path d="M337.6384 666.914133c-5.111467 1.408-5.956267 3.524267-16.477867 4.1216-10.888533 0.6144-22.050133-0.418133-32.964266 0v-4.1216c16.298667 1.109333 33.1008-0.785067 49.442133 0z" fill="#FAD1B6" p-id="3381"></path><path d="M671.402667 638.071467l-13.789867-0.529067-2.696533-3.592533c3.729067 1.006933 15.5648 3.9936 16.477866 4.1216z" fill="#FAE2CB" p-id="3382"></path><path d="M488.832 605.9008c30.651733-5.205333 101.410133-0.392533 91.264 45.943467-2.7392 12.4928-31.470933 37.777067-43.4688 43.050666-31.018667 13.627733-78.574933-0.776533-95.3856-30.634666-15.7952-28.049067 22.4256-54.0928 47.5904-58.368z" fill="#513028" p-id="3383"></path><path d="M407.688533 745.207467c18.653867-4.8128 21.853867 6.741333 34.133334 13.252266 32.170667 17.041067 80.904533 13.627733 114.261333 1.2288 30.276267-11.255467 59.229867-29.056 61.934933-63.744 8.977067-0.298667 19.268267-2.961067 24.251734 6.263467 5.393067 18.824533-20.5568 48.136533-34.670934 59.554133-41.770667 33.800533-122.589867 43.938133-171.136 22.647467-18.2016-7.9872-32.9728-16.554667-28.782933-39.202133z" fill="#502E24" p-id="3384"></path><path d="M267.588267 514.4576c21.111467 7.125333 34.491733 9.659733 26.888533 37.1968l-8.866133 7.6032-23.7824 0.093867c-5.674667-1.655467-10.7264-14.165333-10.7264-20.181334 0-12.219733 8.277333-17.851733 16.477866-24.721066z" fill="#F0E8DD" p-id="3385"></path><path d="M901.282133 727.850667c-4.369067 4.4032-44.151467 21.188267-50.816 21.632-9.2928 0.6144-33.186133-6.6048-41.1136-12.4416-31.880533-23.492267-47.232-75.946667-22.664533-109.3632 7.424-10.094933 26.734933-24.96 39.236267-26.692267 21.589333-2.9952 36.9664-1.152 53.640533 12.279467 21.956267 17.6896 43.460267 50.602667 38.263467 79.633066-1.288533 7.1936-11.776 30.1312-16.546134 34.944z m-66.338133-101.358934c-70.749867 12.6464-20.002133 127.906133 36.386133 85.8368 41.992533-31.3344 7.253333-93.636267-36.386133-85.8368z" fill="#FAC7A9" p-id="3386"></path><path d="M179.848533 659.524267c16.9984-2.346667 35.8656 8.584533 48.674134 19.677866 9.6256 8.3456 24.9344 35.089067 26.7008 47.4624 4.1472 29.149867-16.989867 64.913067-45.1072 74.376534-25.9072 8.721067-62.370133 3.387733-78.660267-20.6336-8.823467-13.0048-18.261333-41.6512-15.5136-57.088 6.075733-34.133333 29.1584-58.990933 63.9232-63.786667z m-0.128 24.618666c-11.204267 0.930133-27.229867 14.813867-33.570133 24.0896-27.0848 39.620267 23.8848 90.692267 63.6416 63.6416 27.409067-18.645333 25.6-54.8608 2.338133-76.288-5.333333-4.9152-25.856-11.997867-32.418133-11.451733z" fill="#FAC6A8" p-id="3387"></path><path d="M834.944 626.491733c43.639467-7.799467 78.378667 54.5024 36.386133 85.8368-56.388267 42.069333-107.136-73.1904-36.386133-85.8368z" fill="#FABC9B" p-id="3388"></path><path d="M179.720533 684.142933c6.562133-0.546133 27.076267 6.536533 32.418134 11.451734 23.261867 21.4272 25.070933 57.642667-2.338134 76.288-39.765333 27.042133-90.734933-24.021333-63.6416-63.6416 6.340267-9.275733 22.357333-23.168 33.570134-24.0896z" fill="#FABC9C" p-id="3389"></path></svg>