<?xml version="1.0" standalone="no"?><!DOCTYPE svg PUBLIC "-//W3C//DTD SVG 1.1//EN" "http://www.w3.org/Graphics/SVG/1.1/DTD/svg11.dtd"><svg t="1772951613628" class="icon" viewBox="0 0 1024 1024" version="1.1" xmlns="http://www.w3.org/2000/svg" p-id="7407" xmlns:xlink="http://www.w3.org/1999/xlink" width="200" height="200"><path d="M159.599377 12.142933c8.157867-1.3824 20.155733-1.5616 28.373333-0.6144 43.246933 4.957867 121.668267 62.967467 156.928 90.990934 4.215467 3.345067 15.061333 17.262933 18.0224 17.408l83.822934-13.8496c68.932267 0.622933 137.915733-4.027733 204.458666 13.7216 34.773333-27.502933 67.140267-56.814933 106.154667-78.626134 44.177067-24.695467 99.242667-51.114667 139.869867-6.101333 41.3184 45.781333 62.327467 169.207467 65.7152 229.597867 2.1248 37.8112-4.8128 84.3264-0.1024 120.413866 3.857067 29.533867 33.288533 86.715733 42.8032 121.258667 51.848533 188.2368-5.751467 339.6608-178.875734 431.854933-202.231467 107.690667-494.907733 101.905067-684.1344-31.863466C-18.073156 792.704-24.96809 626.5088 33.903377 451.549867c5.5552-16.512 22.7584-48.622933 24.7296-62.762667 5.376-38.468267-2.5088-90.308267 0.0768-131.1744 2.500267-39.594667 9.2416-83.968 19.037867-123.144533 10.478933-41.898667 32.512-113.954133 81.851733-122.3168zM29.466044 671.325867c6.4512 52.616533 15.735467 80.093867 43.7504 123.9552 24.541867 38.434133 45.277867 62.208 84.010666 89.1648 194.338133 135.210667 518.161067 136.567467 710.6048-3.643734 24.942933-18.176 46.626133-40.234667 65.783467-63.6416 28.791467-35.165867 56.712533-84.155733 58.333867-131.2512 6.468267-3.1232 3.387733-13.960533 3.643733-20.053333 2.5344-59.8528-2.56-104.4992-19.114667-163.1744-8.891733-31.5136-35.618133-83.2256-39.159466-110.318933-4.2496-32.520533 1.621333-74.897067-0.136534-109.2352-2.875733-56.388267-17.5616-156.893867-44.202666-207.36-27.4176-51.933867-60.450133-44.6208-106.461867-20.0192-44.279467 23.671467-83.541333 57.856-122.581333 88.8576-10.180267 5.307733-53.051733-7.296-67.6352-9.1392-52.1472-6.596267-122.794667-6.5792-174.848 0-17.4336 2.2016-37.512533 8.8832-54.826667 10.794666-4.6848 0.520533-9.437867 0.5376-14.08-0.384-36.599467-31.735467-75.101867-62.907733-117.666133-86.4768-37.973333-21.026133-75.076267-40.8576-102.775467 5.4784-29.294933 49.015467-45.269333 157.482667-48.119467 214.3744-1.783467 35.4816 4.514133 79.342933 0.1024 113.117867-3.2256 24.704-26.555733 72.1152-34.679466 100.215467-17.783467 61.508267-27.758933 115.0976-19.950934 178.747733z" fill="#492820" p-id="7408"></path><path d="M991.957777 685.909333c1.578667-45.917867-31.351467-84.104533-76.561067-91.144533v-1.8944c-10.811733-2.594133-25.053867-2.602667-36.4544-1.749333l-16.0768 0.392533-2.1504 3.2512c-7.901867 1.117867-13.8496 1.7664-21.870933 3.643733-17.698133 4.155733-31.172267 11.588267-47.394133 18.2272-11.093333 4.539733-20.8896 11.1616-29.166934 14.583467-8.686933 3.592533-40.072533 13.6192-47.394133 14.583467-20.4288 2.696533-43.229867-0.887467-62.0288-9.0624-26.496-11.52-42.794667-34.594133-67.968-48.699734-39.210667-21.973333-86.664533-26.077867-128.913067-9.736533-54.766933 21.179733-78.848 79.121067-149.4272 67.498667-7.552-1.245867-34.432-10.897067-43.7504-14.583467-47.607467-18.8416-76.910933-40.3456-133.060266-40.0896-5.973333 0.0256-17.032533-2.670933-20.061867 3.6352-21.154133 1.851733-49.629867 17.501867-61.474133 35.140267-8.482133 12.6208-10.658133 28.765867-18.730667 41.429333-7.808-63.650133 2.158933-117.239467 19.950933-178.747733 8.123733-28.100267 31.453867-75.502933 34.679467-100.215467 4.411733-33.774933-1.877333-77.636267-0.1024-113.117867 2.858667-56.891733 18.824533-165.358933 48.119467-214.3744 27.6992-46.336 64.802133-26.504533 102.775466-5.4784 42.564267 23.569067 81.066667 54.741333 117.666134 86.4768 4.642133 0.9216 9.3952 0.904533 14.08 0.384 17.314133-1.911467 37.393067-8.584533 54.826666-10.794666 52.061867-6.5792 122.709333-6.596267 174.848 0 14.574933 1.8432 57.454933 14.4384 67.6352 9.1392 39.04-31.0016 78.3104-65.194667 122.581334-88.8576 46.020267-24.6016 79.044267-31.914667 106.461866 20.0192 26.641067 50.4576 41.326933 150.971733 44.202667 207.36 1.757867 34.338133-4.113067 76.714667 0.136533 109.2352 3.541333 27.093333 30.267733 78.805333 39.159467 110.318933 16.554667 58.6752 21.649067 103.3216 19.114667 163.1744-0.256 6.0928 2.816 16.930133-3.643734 20.053333zM185.011644 106.717867c-11.7248 2.568533-22.2976 17.928533-26.248534 28.552533-12.5184 33.698133-19.242667 101.162667-16.384 136.942933 2.423467 30.250667 20.224-1.723733 27.357867-9.301333 9.2416-9.813333 25.796267-24.192 36.471467-32.7936 22.314667-17.9712 47.650133-32.785067 71.048533-49.3056 1.450667-5.358933-0.5888-7.1936-3.447467-10.871467-10.837333-13.960533-48.093867-49.245867-63.095466-57.216-6.528-3.464533-18.7392-7.534933-25.710934-6.007466z m638.1056 0.2048c-28.4416 5.188267-64.674133 48.349867-82.577067 70.4 45.576533 32.759467 91.511467 65.211733 129.288533 107.537066 5.76-3.899733 5.0688-6.715733 5.546667-12.672 2.978133-37.4528-3.712-98.218667-15.5648-134.058666-6.144-18.5856-13.687467-35.4048-36.6848-31.2064zM327.322044 343.927467c-29.9264 5.2736-42.069333 45.1328-26.146134 68.4544 18.3296 26.837333 67.950933 46.353067 96.418134 27.349333 22.4512-14.984533 24.234667-42.410667 9.1136-63.616-15.837867-22.2208-52.599467-36.906667-79.394134-32.187733z m339.114666 0.059733c-37.333333 5.316267-85.956267 46.498133-57.361066 84.974933 26.6496 35.857067 107.3664 10.5984 113.032533-32.9472 4.9152-37.768533-19.541333-57.1648-55.671467-52.027733zM389.128977 518.596267c-6.306133 1.237333-24.9856 15.726933-35.131733 19.712-19.652267 7.722667-42.692267 11.400533-63.7696 8.977066-13.047467-1.501867-48.853333-18.517333-54.203734-17.655466-23.2448 3.746133-14.08 29.602133-4.113066 43.1616 38.869333 52.864 139.170133 31.931733 167.4496-25.565867 6.024533-12.245333 8.021333-32.196267-10.231467-28.6208z m225.664-0.2304c-17.015467 4.872533 5.7088 41.540267 12.526933 49.117866 34.304 38.1184 103.296 48.9472 144.136534 16.418134 17.493333-13.934933 38.4512-43.844267 6.664533-54.280534-40.789333 16.7168-75.383467 26.257067-117.981867 8.695467-12.373333-5.102933-34.210133-23.1424-45.346133-19.950933z" fill="#F7C17B" p-id="7409"></path><path d="M185.011644 106.717867c6.971733-1.527467 19.191467 2.542933 25.710933 6.007466 14.993067 7.9616 52.258133 43.255467 63.095467 57.216 2.850133 3.677867 4.8896 5.512533 3.447466 10.871467-23.3984 16.520533-48.725333 31.325867-71.048533 49.3056-10.683733 8.6016-27.2384 22.980267-36.471467 32.7936-7.133867 7.5776-24.9344 39.552-27.357866 9.301333-2.8672-35.780267 3.857067-103.2448 16.384-136.942933 3.950933-10.624 14.5152-25.984 26.248533-28.552533z" fill="#F8C6B4" p-id="7410"></path><path d="M823.117244 106.922667c22.9888-4.1984 30.5408 12.6208 36.6848 31.2064 11.8528 35.84 18.542933 96.605867 15.5648 134.058666-0.469333 5.947733 0.213333 8.772267-5.546667 12.672-37.777067-42.325333-83.712-74.7776-129.288533-107.537066 17.902933-22.050133 54.144-65.211733 82.577066-70.4z" fill="#F8C7B5" p-id="7411"></path><path d="M327.322044 343.927467c26.794667-4.727467 63.547733 9.966933 79.394133 32.187733 15.121067 21.205333 13.3376 48.631467-9.1136 63.616-28.475733 19.003733-78.088533-0.512-96.418133-27.349333-15.931733-23.3216-3.780267-63.172267 26.146133-68.4544z" fill="#F6ECDA" p-id="7412"></path><path d="M666.43671 343.9872c36.130133-5.1456 60.586667 14.2592 55.671467 52.027733-5.666133 43.5456-86.382933 68.804267-113.032533 32.9472-28.5952-38.4768 20.027733-79.658667 57.361066-84.974933z" fill="#F6EDDA" p-id="7413"></path><path d="M614.792977 518.365867c11.136-3.191467 32.9728 14.848 45.346133 19.950933 42.5984 17.5616 77.192533 8.021333 117.981867-8.695467 31.7952 10.436267 10.8288 40.3456-6.664533 54.280534-40.840533 32.5376-109.832533 21.7088-144.136534-16.418134-6.826667-7.586133-29.5424-44.245333-12.526933-49.117866z" fill="#4D2C24" p-id="7414"></path><path d="M389.128977 518.596267c18.261333-3.575467 16.256 16.384 10.231467 28.6208-28.279467 57.506133-128.580267 78.429867-167.4496 25.565866-9.966933-13.559467-19.131733-39.415467 4.113066-43.1616 5.3504-0.861867 41.156267 16.1536 54.203734 17.655467 21.077333 2.423467 44.1088-1.2544 63.7696-8.977067 10.146133-3.985067 28.8256-18.4832 35.131733-19.712z" fill="#4D2C25" p-id="7415"></path><path d="M714.880444 645.8112c12.125867-1.2032 6.638933 2.9952 4.224 9.693867-10.606933 29.431467-10.0096 77.073067 1.117866 107.101866 2.4832 6.690133 17.2032 32.034133 21.870934 36.462934 34.423467 32.648533 112.6144 45.7728 156.2112 28.3392 5.7344-2.295467 10.811733-7.099733 18.909866-10.248534 4.573867-1.783467 14.045867-7.4752 16.418134 0-19.157333 23.3984-40.840533 45.4656-65.783467 63.6416-192.452267 140.2112-516.2752 138.8544-710.6048 3.643734-38.7328-26.948267-59.4688-50.730667-84.010667-89.1648 2.9952-5.469867 9.8304 1.467733 12.8256 3.6096 17.134933 12.253867 36.027733 29.934933 58.333867 32.7936 55.2192 7.074133 115.754667-8.721067 151.304533-52.736 29.175467-36.130133 17.536-90.624 10.871467-133.137067 70.5792 11.6224 94.660267-46.318933 149.4272-67.498667 42.248533-16.341333 89.693867-12.2368 128.913067 9.736534 25.173333 14.1056 41.463467 37.179733 67.968 48.699733 18.798933 8.174933 41.6 11.758933 62.0288 9.0624z m-219.784534-50.261333c-32.878933 3.9424-77.585067 29.806933-50.082133 66.7392 17.1264 22.997333 53.504 34.961067 81.399467 30.208 23.2704-3.959467 62.626133-32.674133 56.7296-58.8544-7.2448-32.1792-60.014933-41.454933-88.055467-38.0928zM381.525777 711.68c-3.729067 1.058133-5.307733 5.0432-5.8112 8.7552-6.178133 45.354667 39.509333 79.573333 82.056533 74.760533 18.517333-2.0992 35.2-13.252267 51.1232-22.007466 24.610133 14.976 45.738667 26.530133 75.861334 21.4016 10.299733-1.749333 35.780267-15.163733 42.7776-22.852267 9.301333-10.222933 24.7552-49.032533 10.999466-58.683733-25.130667-6.818133-18.525867 3.319467-22.8352 17.6896-9.3184 31.086933-42.3424 44.16-71.133866 28.885333-16.264533-8.6272-23.697067-33.8688-44.9792-24.6784-12.663467 24.9856-43.844267 38.272-70.144 26.7776-18.816-8.226133-25.3952-23.424-26.180267-43.0848-4.974933-7.0656-13.3632-9.3184-21.7344-6.946133z" fill="#F8EEDB" p-id="7416"></path><path d="M109.679377 594.7648l47.394133 1.8176c-14.4384 11.400533-30.464 11.5456-45.636266 23.637333-15.189333 12.100267-35.063467 48.418133-36.7872 67.5072-0.221867 2.432 2.756267 6.340267 2.346666 10.717867-0.366933 3.908267-3.729067 7.424-3.746133 11.170133-0.017067 3.652267 3.2512 7.2448 3.566933 11.016534 1.9456 23.3216 0.221867 36.096 20.0448 52.846933 17.527467 14.805333 50.013867 29.397333 72.977067 29.405867 5.845333 0 10.043733-3.490133 14.651733-3.882667 29.8752-2.56 41.0112-1.2544 65.621334-21.879467 38.212267-32.017067 41.070933-90.948267 14.5664-131.362133-2.56-3.908267-11.477333-10.1376-1.8688-14.5408 9.3184 3.6864 36.1984 13.3376 43.7504 14.583467 6.664533 42.513067 18.304 97.015467-10.871467 133.137066-35.549867 44.023467-96.085333 59.810133-151.304533 52.736-22.2976-2.858667-41.1904-20.539733-58.333867-32.7936-2.986667-2.141867-9.8304-9.070933-12.8256-3.6096-28.0064-43.861333-37.2992-71.338667-43.7504-123.9552 8.072533-12.654933 10.248533-28.808533 18.730667-41.429333 11.8528-17.629867 40.32-33.288533 61.474133-35.140267z" fill="#F8E3CC" p-id="7417"></path><path d="M915.39671 594.7648c45.2096 7.04 78.139733 45.226667 76.561067 91.144533-1.621333 47.086933-29.5424 96.085333-58.333867 131.2512-2.372267-7.4752-11.844267-1.783467-16.418133 0-8.098133 3.1488-13.175467 7.953067-18.909867 10.248534-43.5968 17.4336-121.7792 4.309333-156.2112-28.3392-4.667733-4.4288-19.387733-29.7728-21.870933-36.462934-11.136-30.0288-11.7248-77.6704-1.117867-107.101866 2.414933-6.698667 7.901867-10.897067-4.224-9.693867 7.3216-0.964267 38.7072-10.990933 47.394134-14.583467 6.656 0.9984-0.930133 8.8576-2.568534 10.845867-0.418133 0.503467-2.986667-0.273067-3.797333 0.827733-18.500267 25.156267-20.6848 61.986133-14.813867 91.537067 7.5776 38.1696 40.721067 65.0752 77.764267 71.714133 6.877867 1.2288 22.459733 3.319467 29.2608 3.857067 5.879467 0.4608 38.596267-6.562133 45.525333-9.122133 9.130667-3.3792 27.741867-16.571733 34.619734-23.714134 29.5424-30.728533 28.9792-86.6304 14.626133-124.2112-1.962667-5.128533-12.3904-18.756267-16.477867-23.620266-10.581333-12.586667-24.260267-22.024533-36.522666-32.7424l25.514666-1.8176z" fill="#F7E4CD" p-id="7418"></path><path d="M262.80151 631.227733c-9.608533 4.4032-0.6912 10.632533 1.8688 14.5408 26.504533 40.413867 23.645867 99.345067-14.5664 131.362134-24.610133 20.616533-35.746133 19.310933-65.621333 21.879466-4.608 0.392533-8.8064 3.882667-14.651733 3.882667-22.971733-0.008533-55.4496-14.600533-72.977067-29.405867-19.831467-16.7424-18.0992-29.525333-20.0448-52.846933-0.315733-3.771733-3.584-7.364267-3.566933-11.016533 0.017067-3.746133 3.3792-7.261867 3.746133-11.170134 0.4096-4.3776-2.568533-8.285867-2.346667-10.717866 1.732267-19.089067 21.6064-55.406933 36.7872-67.5072 15.172267-12.091733 31.197867-12.2368 45.636267-23.637334L109.670844 594.773333c3.029333-6.306133 14.088533-3.6096 20.061866-3.6352 56.149333-0.247467 85.461333 21.248 133.060267 40.0896z m-2.525866 67.541334c0-45.952-37.248-83.2-83.2-83.2s-83.2 37.248-83.2 83.2 37.248 83.2 83.2 83.2 83.2-37.248 83.2-83.2z" fill="#F8D6BB" p-id="7419"></path><path d="M838.835644 598.417067c4.343467 12.552533 21.7344 6.528 29.1584 8.814933 60.322133 18.577067 90.001067 95.786667 54.186666 149.2736-9.582933 14.3104-14.967467 13.184-27.648 19.746133-8.328533 4.309333-13.917867 10.2912-24.772266 11.682134-41.147733 5.2736-86.306133-3.754667-104.618667-44.731734-1.3824-3.0976-8.814933-31.240533-8.849067-33.570133-0.042667-2.6368 2.372267-6.562133 2.474667-10.7776 1.1264-43.52 6.792533-45.303467 34.491733-74.922667 5.034667-5.384533 10.205867-8.098133-1.826133-7.287466 16.221867-6.638933 29.696-14.071467 47.394133-18.2272z m-15.889067 26.0352c-1.5104 0.4352-24.738133 16.145067-26.0608 17.6896-3.6352 4.232533-14.6688 26.052267-15.6672 31.726933-7.150933 40.823467 10.3936 87.0656 55.876267 92.16 21.230933 2.3808 51.421867-5.009067 65.373866-21.947733 31.496533-38.254933 13.252267-91.904-28.296533-113.5616-12.9792-6.766933-37.256533-10.094933-51.2256-6.0672z" fill="#F8D3B5" p-id="7420"></path><path d="M915.39671 594.7648l-25.514666 1.8176c12.270933 10.717867 25.949867 20.164267 36.522666 32.7424 4.087467 4.864 14.523733 18.491733 16.477867 23.620267 14.353067 37.572267 14.9248 93.482667-14.626133 124.2112-6.869333 7.150933-25.489067 20.334933-34.619734 23.714133-6.929067 2.56-39.645867 9.582933-45.525333 9.122133-6.8096-0.5376-22.391467-2.619733-29.2608-3.857066-37.0432-6.638933-70.186667-33.544533-77.764267-71.714134-5.870933-29.559467-3.677867-66.389333 14.813867-91.537066 0.810667-1.1008 3.3792-0.324267 3.797333-0.827734 1.6384-1.988267 9.224533-9.838933 2.568534-10.845866 8.277333-3.421867 18.0736-10.043733 29.166933-14.583467 12.032-0.802133 6.852267 1.911467 1.826133 7.287467-27.6992 29.6192-33.365333 31.402667-34.491733 74.922666-0.110933 4.224-2.517333 8.1408-2.474667 10.7776 0.034133 2.3296 7.466667 30.472533 8.849067 33.570134 18.312533 40.9856 63.479467 50.013867 104.618667 44.731733 10.862933-1.390933 16.443733-7.3728 24.772266-11.682133 12.680533-6.562133 18.065067-5.444267 27.648-19.746134 35.8144-53.495467 6.135467-130.705067-54.186666-149.2736-7.424-2.286933-24.823467 3.7376-29.1584-8.814933 8.021333-1.885867 13.969067-2.525867 21.870933-3.643733 5.623467-0.7936 17.152-3.566933 18.2272-3.643734 11.409067-0.861867 25.642667-0.8448 36.462933 1.749334v1.8944z" fill="#F9DBC1" p-id="7421"></path><path d="M878.94231 591.121067c-1.0752 0.0768-12.603733 2.850133-18.2272 3.643733l2.1504-3.2512 16.0768-0.392533z" fill="#F8D3B5" p-id="7422"></path><path d="M495.09591 595.549867c28.040533-3.362133 80.810667 5.9136 88.055467 38.0928 5.896533 26.180267-33.4592 54.894933-56.7296 58.8544-27.895467 4.753067-64.2816-7.210667-81.399467-30.208-27.502933-36.923733 17.2032-62.788267 50.082134-66.7392z" fill="#4D2D26" p-id="7423"></path><path d="M381.525777 711.68c8.3712-2.372267 16.750933-0.119467 21.7344 6.946133 0.785067 19.669333 7.364267 34.858667 26.180267 43.0848 26.299733 11.4944 57.472-1.792 70.144-26.7776 21.2736-9.1904 28.714667 16.0512 44.9792 24.6784 28.791467 15.274667 61.815467 2.2016 71.133866-28.885333 4.309333-14.370133-2.295467-24.507733 22.8352-17.6896 13.755733 9.6512-1.698133 48.4608-10.999466 58.683733-6.997333 7.688533-32.477867 21.0944-42.7776 22.852267-30.122667 5.128533-51.242667-6.4256-75.861334-21.4016-15.9232 8.7552-32.605867 19.908267-51.1232 22.007467-42.5472 4.821333-88.234667-29.405867-82.056533-74.760534 0.503467-3.703467 2.082133-7.697067 5.8112-8.7552z" fill="#502D25" p-id="7424"></path><path d="M260.275644 698.769067c0 45.952-37.248 83.2-83.2 83.2s-83.2-37.248-83.2-83.2 37.248-83.2 83.2-83.2 83.2 37.248 83.2 83.2z m-34.594134-52.283734c-2.261333-2.1504-30.2848-13.806933-34.679466-14.557866-21.512533-3.643733-46.993067-0.7168-61.2096 17.595733-2.346667 3.029333-15.624533 28.885333-16.093867 31.581867-1.083733 6.203733 3.2512 9.642667 3.242667 13.917866-0.017067 3.780267-3.515733 7.176533-3.6096 10.9824-0.110933 4.881067 8.200533 23.6288 11.434666 28.6208 13.482667 20.821333 45.866667 34.432 70.050134 27.323734 0.913067-0.264533 15.7696-7.876267 16.887466-8.635734 4.181333-2.833067 17.1776-15.906133 20.002134-20.096 6.596267-9.796267 10.743467-37.137067 9.147733-49.066666-0.904533-6.7584-10.939733-33.629867-15.1808-37.6576z" fill="#F9CFB0" p-id="7425"></path><path d="M822.946577 624.452267c13.969067-4.036267 38.2464-0.699733 51.2256 6.0672 41.5488 21.6576 59.793067 75.306667 28.296533 113.5616-13.952 16.9472-44.1344 24.328533-65.373866 21.947733-45.482667-5.102933-63.0272-51.345067-55.876267-92.16 0.9984-5.674667 12.032-27.4944 15.6672-31.726933 1.322667-1.544533 24.5504-17.245867 26.0608-17.6896z m56.738133 98.8416c2.030933-1.8944 5.930667-1.723733 8.3968-4.4288 8.200533-8.96 2.466133-13.098667 1.877334-20.266667-0.930133-11.272533 1.518933-16.6656-5.6576-27.170133-13.474133-19.712-31.240533-25.352533-54.673067-22.058667-8.8064 1.237333-22.357333 18.235733-23.6032 27.434667-3.2768 24.132267 1.92 47.616 25.5744 58.274133 15.112533 6.8096 31.351467 3.549867 45.1328-5.248 3.2-2.039467 1.749333-5.4016 2.961067-6.536533zM225.68151 646.485333c4.241067 4.036267 14.276267 30.907733 15.1808 37.6576 1.595733 11.9296-2.542933 39.2704-9.147733 49.066667-2.824533 4.1984-15.829333 17.262933-20.002133 20.096-1.117867 0.759467-15.9744 8.362667-16.887467 8.635733-24.192 7.1168-56.567467-6.5024-70.050133-27.323733-3.234133-4.992-11.554133-23.739733-11.434667-28.6208 0.085333-3.797333 3.592533-7.202133 3.6096-10.9824 0.017067-4.2752-4.317867-7.714133-3.242667-13.917867 0.469333-2.696533 13.7472-28.561067 16.093867-31.581866 14.216533-18.312533 39.697067-21.230933 61.2096-17.595734 4.386133 0.7424 32.418133 12.407467 34.679467 14.557867z m-51.5328 3.362134c-5.077333 0.930133-24.3968 12.0064-27.579733 16.452266-10.717867 14.9248-11.554133 39.5264-0.512 54.331734 12.706133 17.024 27.6736 20.309333 48.6912 15.726933 21.179733-4.616533 26.820267-36.992 27.648-55.338667-6.570667-7.936-10.922667-18.6112-20.241067-23.773866-5.154133-2.850133-22.946133-8.311467-28.0064-7.389867z" fill="#F9C6A5" p-id="7426"></path><path d="M879.68471 723.293867c-1.211733 1.1264 0.238933 4.488533-2.961066 6.536533-13.7728 8.797867-30.020267 12.0576-45.1328 5.248-23.6544-10.658133-28.8512-34.141867-25.5744-58.274133 1.2544-9.207467 14.805333-26.205867 23.6032-27.434667 23.432533-3.293867 41.207467 2.3552 54.673066 22.058667 7.176533 10.504533 4.727467 15.8976 5.6576 27.170133 0.5888 7.168 6.314667 11.306667-1.877333 20.266667-2.474667 2.705067-6.3744 2.5344-8.3968 4.4288z" fill="#FABE99" p-id="7427"></path><path d="M174.14871 649.847467c5.060267-0.9216 22.8608 4.539733 28.0064 7.389866 9.3184 5.162667 13.678933 15.8464 20.241067 23.773867-0.827733 18.346667-6.468267 50.722133-27.648 55.338667-21.0176 4.5824-35.9936 1.297067-48.6912-15.726934-11.050667-14.805333-10.205867-39.406933 0.512-54.331733 3.182933-4.437333 22.5024-15.522133 27.579733-16.452267z" fill="#FABC97" p-id="7428"></path></svg>