<?xml version="1.0" standalone="no"?><!DOCTYPE svg PUBLIC "-//W3C//DTD SVG 1.1//EN" "http://www.w3.org/Graphics/SVG/1.1/DTD/svg11.dtd"><svg t="1772951576069" class="icon" viewBox="0 0 1024 1024" version="1.1" xmlns="http://www.w3.org/2000/svg" p-id="5201" xmlns:xlink="http://www.w3.org/1999/xlink" width="200" height="200"><path d="M74.487467 614.485333l20.846933 10.9056c-2.602667 7.517867 3.438933 15.112533 3.848533 17.3312 0.657067 3.5072-0.725333 8.123733 0.093867 12.142934 11.170133 54.775467 32.1536 104.797867 77.5424 139.613866 0.503467-20.608-18.133333-40.046933-21.162667-59.997866-2.1248-13.994667 0.4352-38.801067 10.589867-49.408 6.997333-7.304533 15.1552-11.323733 24.704-14.114134 6.971733-2.039467 13.678933-4.1472 21.1712-3.5328 21.239467 1.7408 48.810667 13.661867 67.054933 24.704 6.2464 3.780267 19.618133 13.021867 24.704 17.646934 2.141867 1.9456 8.891733 8.635733 10.589867 10.589866 1.604267 1.8432 9.386667 12.279467 10.589867 14.114134 4.616533 7.031467 19.268267 35.310933 21.1712 42.350933 0.785067 2.909867 3.106133 19.037867 3.456 23.0144 2.346667 26.965333-3.566933 56.277333-13.704534 81.152-0.093867 5.9648 34.039467 13.44 41.053867 15.010133 89.326933 19.9168 188.066133 17.928533 277.162667-3.5328 8.635733-2.082133 31.274667-5.4016 30.958933-15.010133-8.046933-25.7024-13.755733-54.101333-10.6496-81.143467 0.657067-5.717333 5.0688-24.6016 6.971733-30.08 2.158933-6.212267 17.1776-33.851733 21.1712-38.818133 2.517333-3.1232 13.755733-13.952 17.646934-17.646933 2.423467-2.304 5.4272-5.640533 7.057066-7.057067 5.205333-4.5312 14.9248-10.487467 21.1712-14.114133 27.0848-15.744 65.792-30.574933 95.2832-14.114134 11.374933 6.3488 18.696533 17.28 24.704 28.228267-1.152 10.043733 1.1264 21.700267 0 31.761067-1.800533 16.068267-12.6464 29.1328-18.3296 43.426133-1.373867 3.464533-5.973333 10.504533-1.083733 13.0304 39.637333-34.858667 61.277867-81.348267 72.2688-132.437333 1.0752-4.983467-0.759467-11.0336 0.0768-15.778134 0.0512-0.2816 2.568533-0.785067 2.909867-2.491733 1.024-5.077333-0.4096-11.4432 2.184533-15.351467 2.261333-3.4048 17.92-11.9296 23.133867-10.3936-2.005333 14.190933-4.650667 27.946667-3.5328 42.350934-0.384 0.264533-1.1776 3.234133-3.5584 5.128533-5.649067 4.497067-10.897067 5.137067-13.7728 14.318933l10.2656 8.789334c-4.061867 5.265067-5.4016 20.138667-8.772267 28.288-14.378667 34.807467-29.704533 55.748267-54.826667 82.807466-5.393067 5.802667-6.528 16.059733-17.4336 16.119467-6.263467 5.623467 28.228267 54.9376 28.2624 65.152 0.042667 11.426133-12.0064 10.624-17.8176 12.322133-7.424-24.2688-45.9264-76.381867-45.8752-98.816 0.0256-12.842667 21.162667-38.724267 24.021334-55.381333 11.8016-68.770133-58.7264-48.861867-94.523734-23.936-33.826133 23.552-58.7264 65.4848-56.5504 107.554133 1.9456 37.6064 19.797333 70.280533 28.228267 105.873067-1.902933 1.032533-5.3248 6.263467-9.216 6.8608-8.234667 1.365333-18.295467-20.258133-19.029333-28.049067-5.376 2.5856-10.9312 4.667733-16.7424 6.1952-81.092267 21.333333-166.408533 26.811733-249.608534 18.449067l-104.1408-21.0944c0.5376 9.864533-4.718933 19.029333-12.7232 24.533333-5.546667 1.1264-9.258667-5.410133-12.014933-6.903466-1.723733-7.816533 1.595733-12.424533 4.087467-18.858667 11.0592-28.6464 24.1152-59.383467 24.149333-90.538667 0.059733-51.976533-37.8624-98.9952-84.642133-118.280533-25.3696-10.461867-61.883733-18.030933-67.089067 17.6896-4.258133 29.2352 26.965333 57.7536 24.686933 75.886933-0.520533 4.113067-6.638933 19.592533-8.772266 24.7552-6.050133 14.711467-23.2704 51.6864-31.906134 63.3856-5.614933 7.6032-10.453333 8.064-19.319466 7.1424-2.747733-2.756267-4.949333-2.935467-3.7632-8.832l28.270933-59.613866c-38.3488-35.874133-72.9088-79.223467-80.981333-132.7104l10.5984-3.549867c2.653867-11.9552-8.763733-15.274667-17.655467-21.154133-3.413333-15.2832-4.369067-30.139733-3.5328-45.8752z" fill="#522E25" p-id="5202"></path><path d="M921.463467 483.908267c-2.8928 2.2272-16.8192 13.277867-17.646934 14.114133-5.930667-27.605333-28.2368-63.496533-31.701333-90.052267-5.4016-41.378133 1.962667-89.514667-3.652267-133.981866-4.9408-39.099733-19.3792-112.5888-44.2112-142.830934-18.9952-23.133867-39.3216-17.928533-64.068266-7.918933-20.9152 8.465067-49.271467 27.886933-67.959467 41.437867-19.131733 13.883733-36.0192 30.592-55.389867 43.460266l-80.4864-13.781333c-59.886933-0.836267-118.5536-0.759467-176.733866 13.4144-28.347733-23.261867-57.045333-46.7712-88.635734-65.655467-14.3616-8.584533-51.012267-29.073067-66.517333-29.056-36.386133 0.042667-53.6832 58.7776-60.9024 87.6032-15.249067 60.928-21.6576 135.022933-15.0272 196.846934 2.9184 27.195733-27.895467 74.965333-31.709867 104.0384-6.946133-5.725867-13.0048-13.986133-17.646933-17.646934 2.909867-23.3472 21.777067-50.474667 24.644267-72.405333 4.0192-30.762667-1.911467-69.905067 0.128-102.212267 3.029333-47.9232 15.104-131.054933 38.0672-173.678933 41.053867-76.2112 108.706133-35.234133 162.935466 0.768 21.725867 14.421333 40.900267 32.964267 62.378667 47.061333l59.306667-10.248533c61.678933 1.3824 123.818667-4.846933 183.637333 10.9824 7.0912-0.4864 12.091733-10.001067 17.604267-14.421333 31.6672-25.429333 97.860267-74.197333 137.5488-77.713067 29.482667-2.6112 50.193067 13.6704 64.887466 37.751467 29.883733 48.955733 43.613867 143.761067 46.583467 200.448 1.339733 25.634133-3.293867 56.7808-0.093867 81.262933 2.9184 22.365867 22.2464 48.836267 24.644267 72.405333z" fill="#502E24" p-id="5203"></path><path d="M868.522667 889.745067c-37.717333 10.990933-71.1168 26.453333-111.240534 31.684266-12.040533 1.570133-21.6576-2.7904-33.450666 3.601067-8.439467-35.592533-26.282667-68.266667-28.228267-105.873067 44.458667 2.978133 89.344-4.0448 127.044267-28.228266-0.0512 22.434133 38.4512 74.5472 45.8752 98.816z" fill="#F6C27E" p-id="5204"></path><path d="M328.584533 815.6416c-0.034133 31.1552-13.0816 61.892267-24.149333 90.538667-2.4832 6.434133-5.8112 11.042133-4.087467 18.858666-10.6496-5.768533-41.591467-4.5568-57.489066-7.799466-29.713067-6.058667-58.350933-23.364267-83.541334-29.4656-6.152533-1.4848-9.787733 6.4768-17.783466-1.553067 8.866133 0.9216 13.704533 0.4608 19.319466-7.1424 8.635733-11.690667 25.847467-48.6656 31.906134-63.3856 2.1248-5.162667 8.251733-20.642133 8.772266-24.7552 11.178667 3.319467 20.693333 11.383467 31.709867 15.931733 29.201067 12.0832 64.520533 17.3568 95.3344 8.772267z" fill="#F6C27F" p-id="5205"></path><path d="M928.520533 505.079467c-5.777067 4.753067-11.844267 9.352533-17.646933 14.114133-17.390933 14.293333-35.131733 28.561067-52.932267 42.350933l-4.906666-0.3072c-16.2304-12.5696 4.846933-17.646933 11.972266-27.921066 16.913067-7.3984 27.810133-24.072533 38.818134-35.293867 0.8192-0.836267 14.7456-11.886933 17.646933-14.114133 0.605867-0.469333 4.334933 0.273067 6.946133-1.723734 7.313067-5.5808 20.462933-18.781867 28.194134-21.367466 6.545067-2.193067 6.4256-1.2544 10.7264 3.694933 3.182933 11.7504-26.9568 28.458667-35.293867 35.421867-2.372267 1.979733-2.986667 4.7104-3.524267 5.1456z" fill="#E23E3A" p-id="5206"></path><path d="M99.191467 483.908267c4.642133 3.6608 10.7008 11.912533 17.646933 17.646933 17.3312 14.301867 32.725333 31.744 52.932267 42.350933-0.384 4.642133 0.2816 9.463467 0 14.122667-6.186667 6.7072-35.720533-21.290667-42.496-26.3168-4.5824-3.4048-16.7936-8.260267-17.493334-8.977067-6.1952-6.3232-7.9872-9.617067-17.646933-17.646933-1.092267-0.904533-2.338133-4.795733-5.102933-7.133867-7.944533-6.698667-21.248-14.114133-28.501334-21.0176-9.019733-8.584533-5.8112-19.908267 5.521067-16.119466 7.6288 2.551467 20.992 15.778133 28.194133 21.367466 2.594133 2.005333 6.357333 1.262933 6.946134 1.723734z" fill="#E0493C" p-id="5207"></path><path d="M942.634667 558.020267c-4.923733 3.703467-14.421333 9.2672-21.1712 14.114133-10.658133 7.645867-24.2688 18.961067-35.293867 24.704-2.090667 1.092267-5.179733 3.259733-7.057067 3.5328-1.467733-5.265067-10.154667-7.68-5.384533-14.199467 2.909867-3.985067 28.4416-18.9952 35.438933-24.5504 4.0448-3.208533 6.613333-8.823467 8.763734-10.658133 5.640533-4.804267 18.491733-5.751467 17.646933-17.646933 12.663467 7.057067 25.173333-25.890133 38.818133-8.814934 3.234133 11.716267-18.8416 20.497067-26.6496 26.3936-2.909867 2.2016-4.232533 6.468267-5.102933 7.125334z" fill="#DE3D38" p-id="5208"></path><path d="M85.077333 533.316267c-0.8448 11.895467 12.0064 12.834133 17.646934 17.646933 2.1248 1.809067 4.821333 7.3984 8.763733 10.658133 12.3392 10.180267 33.006933 18.321067 37.111467 35.2256-3.908267 0.384-11.093333 6.1184-17.646934 3.5328-7.210667-13.294933-20.590933-19.712-31.761066-28.228266-6.724267-5.128533-13.038933-11.093333-21.1712-14.114134 1.672533-8.576-12.407467-11.784533-19.473067-17.578666-3.217067-2.645333-13.457067-11.9296-12.279467-15.931734C51.259733 507.477333 77.141333 541.636267 85.085867 533.333333z" fill="#DF4136" p-id="5209"></path><path d="M939.101867 685.064533l-10.2656-8.789333c2.875733-9.181867 8.123733-9.821867 13.7728-14.318933 2.372267-1.885867 3.1744-4.855467 3.5584-5.128534 8.277333-5.794133 24.174933-14.702933 34.065066-20.6336 11.246933-6.741333 40.0384-28.9024 43.562667-9.378133-2.3296 7.799467-41.156267 27.835733-50.628267 34.082133-7.936 5.239467-29.431467 18.167467-34.065066 24.1664z" fill="#E3403A" p-id="5210"></path><path d="M78.020267 660.360533c8.891733 5.879467 20.317867 9.1904 17.655466 21.154134l-10.5984 3.549866C75.170133 674.9952 2.5344 636.578133 0.6912 630.050133c-1.066667-3.7632-0.008533-8.157867-0.3072-12.040533 3.899733 0.162133 8.029867-0.674133 11.869867 0.477867 9.5488 2.850133 53.521067 33.774933 65.7664 41.873066z" fill="#E24537" p-id="5211"></path><path d="M946.167467 586.248533c8.362667 5.998933 16.162133-8.405333 24.712533-12.3392 4.9408-2.269867 8.9088-2.116267 14.097067-1.774933 5.8368 23.278933-32.648533 23.6544-35.285334 42.3424-5.213867-1.536-20.864 6.980267-23.133866 10.3936-2.594133 3.908267-1.160533 10.274133-2.184534 15.351467-0.349867 1.706667-2.8672 2.210133-2.909866 2.491733-4.5312-4.974933-7.0912-12.945067-10.589867-17.646933-1.6128-9.0368 6.485333-8.823467 10.581333-12.509867 2.2784-2.048 2.944-4.616533 3.5328-5.137067 6.1184-5.4528 12.868267-11.562667 20.5312-14.9504l0.64-6.2208z" fill="#DD433C" p-id="5212"></path><path d="M74.487467 589.781333c5.376 3.985067 14.677333 12.3904 21.1712 17.646934 0.452267 0.366933 1.245867 3.114667 3.5328 5.137066 5.418667 4.795733 13.192533 3.712 10.581333 16.034134-3.498667 3.3024-4.497067 4.155733-10.436267 3.703466l-0.1536 10.410667c-0.418133-2.210133-6.4512-9.813333-3.848533-17.3312l-20.846933-10.9056-38.4-33.501867 3.106133-8.840533c2.756267 0.093867 5.981867-0.5888 8.4992 0.3072 1.8176 0.648533 23.458133 14.865067 26.794667 17.3312z" fill="#DD4B3F" p-id="5213"></path><path d="M942.634667 558.020267l3.5328 28.228266-0.64 6.2208c-7.662933 3.387733-14.4128 9.4976-20.5312 14.9504l-3.5328-35.293866c6.7584-4.846933 16.256-10.4192 21.1712-14.114134z" fill="#623727" p-id="5214"></path><path d="M99.191467 572.1344l-3.5328 35.293867c-6.493867-5.256533-15.7952-13.661867-21.1712-17.646934l3.5328-31.761066c8.1408 3.0208 14.455467 8.9856 21.1712 14.114133z" fill="#613527" p-id="5215"></path><path d="M109.781333 522.7264l-3.985066 26.103467-3.080534 2.133333c-5.640533-4.804267-18.491733-5.751467-17.646933-17.646933l7.057067-28.228267c9.659733 8.029867 11.451733 11.323733 17.646933 17.646933z" fill="#5B3527" p-id="5216"></path><path d="M935.5776 533.316267c0.853333 11.895467-12.0064 12.842667-17.646933 17.646933l-7.057067-31.761067c5.802667-4.770133 11.869867-9.361067 17.646933-14.114133 3.950933 8.874667 8.149333 18.2528 7.057067 28.228267z" fill="#593223" p-id="5217"></path><path d="M607.377067 713.2928c14.754133 20.5312 39.202133 30.114133 58.811733 45.294933l15.300267 7.637334c-1.902933 5.4784-6.314667 24.362667-6.971734 30.08-3.114667 27.042133 2.594133 55.441067 10.6496 81.143466 0.315733 9.608533-22.314667 12.928-30.958933 15.010134-89.105067 21.4528-187.835733 23.4496-277.162667 3.5328-7.0144-1.5616-41.156267-9.0368-41.053866-15.010134 10.129067-24.8832 16.0512-54.186667 13.704533-81.152-0.349867-3.976533-2.670933-20.104533-3.456-23.0144l49.544533-36.9152 13.9776-30.139733c6.229333 5.367467 28.330667 13.5424 36.898134 14.250667 23.159467 1.92 46.6176-9.506133 63.675733-24.6272 20.829867 24.388267 71.4496 34.432 97.0496 13.9008z" fill="#F9EFDC" p-id="5218"></path><path d="M822.647467 790.9376c-37.700267 24.192-82.5856 31.2064-127.044267 28.228267-2.176-42.069333 22.715733-84.002133 56.5504-107.554134 35.797333-24.917333 106.325333-44.8256 94.523733 23.936-2.858667 16.657067-23.995733 42.538667-24.021333 55.381334z" fill="#F6EEDB" p-id="5219"></path><path d="M328.584533 815.6416c-30.813867 8.584533-66.133333 3.310933-95.3344-8.772267-11.016533-4.5568-20.5312-12.6208-31.709866-15.931733 2.2784-18.133333-28.9536-46.651733-24.686934-75.886933 5.205333-35.720533 41.719467-28.151467 67.089067-17.6896 46.779733 19.285333 84.701867 66.295467 84.642133 118.280533z" fill="#F8EEDB" p-id="5220"></path><path d="M183.893333 596.8384c-0.3072-0.068267-0.861867-3.1488-5.0944-3.584-8.5504-0.887467-17.9712 0.708267-26.666666 0.0512 9.9328-17.732267 33.160533-15.914667 50.397866-21.9392 10.717867-3.746133 23.509333-13.917867 34.193067-15.214933 6.1952-0.750933 14.190933 3.566933 20.241067 4.6848 6.877867 1.271467 13.397333 4.1216 11.630933-6.331734 6.749867 11.562667 12.305067 25.070933 21.1712 35.293867-12.2112-1.962667-8.302933 0.930133-12.433067 6.826667-12.398933 17.732267-18.9952 38.8608-31.863466 56.516266-4.9664 10.069333 2.116267 16.128 12.3904 14.190934l35.4304-74.0096c0.878933 0.5376 3.131733-0.366933 4.753066 0.64 9.898667 6.1184 10.632533 8.8064 23.483734 9.949866l-31.249067 51.6864c-1.2032 24.0896 11.656533 15.197867 20.667733 1.2544 0.068267 3.694933 3.524267 8.021333 1.9712 10.615467l-33.732266 24.669867c-18.235733-11.042133-45.806933-22.9632-67.054934-24.704l35.259734-68.829867-8.8576-5.376c-5.376 0.034133-13.098667 9.480533-15.812267 14.216533-3.4304-11.076267-16.452267-4.4288-24.695467-10.589866 2.5088 7.799467-2.030933 10.769067-3.5328 14.122666l-0.042666-14.0544c-3.336533-0.699733-7.5776 0.64-10.5472-0.059733z" fill="#EF9B72" p-id="5221"></path><path d="M745.0112 568.6016c12.253867 10.9312 44.330667-7.176533 45.883733 14.1056-4.2752-1.032533-4.957867 1.723733-7.0656 3.541333-10.2144 8.823467-15.0784 17.416533-21.8624 29.312-4.488533 7.876267-25.147733 46.6176-20.471466 51.8656l8.814933 3.456 40.576-74.043733c0.426667 1.834667-1.117867 4.992 0.529067 6.6048l5.8624 0.930133 7.722666 17.169067c-6.058667 11.0848-13.8496 21.282133-17.792 33.5104l12.3648 8.704c11.170133-16.930133 20.027733-35.242667 30.1312-52.795733l0.085334 6.920533 21.085866 3.6608c-4.906667 9.864533-10.103467 19.447467-13.329066 30.1056l6.272 8.712533c-6.306133 2.961067-0.017067 8.704 0 14.114134-29.4912-16.4608-68.1984-1.629867-95.2832 14.114133l-35.1232-16.093867c-5.521067-1.365333-8.430933 5.9136-14.2848-1.553066 12.407467 1.629867 8.32-0.1792 12.202666-7.0656 10.709333-18.9952 21.9136-38.1952 30.293334-58.205867l-5.632-8.644267-12.0064-0.059733c-1.297067 8.977067-7.3728 17.160533-10.743467 24.567467l-2.082133-3.1488c-11.178667-3.652267-22.357333 1.9456-29.678934 3.1488-6.792533 1.109333-24.149333-1.9456-31.761066-3.5328-7.8592-1.6384-13.883733-4.1472-21.1712-7.057067-2.4576-0.981333-3.106133-3.319467-3.5328-3.5328l7.057066-10.589867c13.329067 8.209067 23.620267 9.915733 38.818134 10.589867 19.933867 0.878933 27.605333-0.085333 44.8-9.898667 10.914133-6.229333 23.9104-17.5104 29.312-28.919466z" fill="#F09271" p-id="5222"></path><path d="M625.024 607.428267c0.418133 0.213333 1.0752 2.551467 3.5328 3.5328-3.805867 26.2912 4.0448 66.3296 19.498667 88.132266 3.8656 5.444267 18.030933 19.336533 23.867733 22.016 11.502933 5.2736 22.126933-0.981333 30.737067 6.314667-3.9936 4.9664-19.0208 32.605867-21.1712 38.818133l-15.300267-7.637333c-19.601067-15.1808-44.0576-24.763733-58.811733-45.294933 10.205867-8.183467 24.533333-37.640533 16.0768-49.595734l-12.544-3.336533 3.464533-6.8096c-10.820267 0.503467-15.1552-17.664-14.139733-26.666667 1.1264-9.9328 9.710933-15.095467 14.208-22.9888 3.925333 2.56 8.200533 2.3296 10.589866 3.5328z" fill="#F9DCC6" p-id="5223"></path><path d="M120.3712 610.952533c14.5408 10.5728 8.9344 22.843733 10.538667 37.102934 0.4352 3.84 3.575467 6.621867 3.575466 7.0144v58.231466l6.562134 0.324267c0.136533 9.309867 0.8192 15.8976 9.796266 20.4032l4.821334 0.443733c3.029333 19.9424 21.666133 39.381333 21.162666 59.997867-45.3888-34.807467-66.372267-84.8384-77.5424-139.613867-0.8192-4.0192 0.5632-8.635733-0.093866-12.142933l0.1536-10.410667c5.9392 0.443733 6.9376-0.401067 10.436266-3.703466 3.959467-3.7376 5.973333-11.127467 10.589867-17.646934z" fill="#F7DCC7" p-id="5224"></path><path d="M910.8736 625.066667c3.498667 4.701867 6.058667 12.672 10.589867 17.646933-0.836267 4.744533 0.989867 10.794667-0.0768 15.778133-10.999467 51.089067-32.631467 97.578667-72.2688 132.437334-4.8896-2.525867-0.298667-9.565867 1.083733-13.0304 5.6832-14.293333 16.529067-27.357867 18.3296-43.426134l3.5328-21.1968 7.1168 2.039467 14.139733-25.0112c1.28-7.594667-3.396267-13.653333-3.780266-20.9664-1.032533-19.652267 4.957867-41.514667-10.308267-56.9344l6.9376-8.516267c10.8544 3.541333 18.158933 12.373333 24.704 21.1712z" fill="#F6DAC6" p-id="5225"></path><path d="M409.745067 600.3712c-5.265067 6.237867-0.196267 8.7296 1.809066 14.071467 2.4832 6.6304 3.985067 13.405867 7.995734 19.438933l-13.329067 21.230933c-0.9216 1.408 4.608 1.988267 7.048533 5.248-5.4784 0-12.765867-1.476267-16.0256 3.3792l-1.6128 21.3248c-0.1024-0.2304-2.474667-0.3328-3.037866-2.269866-1.450667-5.009067 2.372267-12.629333-4.010667-11.844267 1.0496 5.947733-2.645333 10.555733-3.362133 15.9488-0.324267 2.440533 2.602667 5.265067 1.774933 8.9088-2.7648 12.0576-26.4448 36.881067-38.997333 38.647467l-22.946134 0.017066c-1.2032-1.834667-8.9856-12.270933-10.589866-14.114133l28.202666-8.849067c6.5536-7.816533 17.143467-14.976 22.877867-23.005866 15.803733-22.126933 16.469333-48.0512 19.498667-74.018134 2.594133-1.092267 3.165867-3.336533 3.5328-3.5328 5.307733-2.781867 16.785067-7.586133 21.1712-10.589866z" fill="#FAD3BC" p-id="5226"></path><path d="M180.360533 600.3712c-6.2464 9.7024-29.192533 49.92-31.274666 58.734933-1.595733 6.7328-1.297067 6.997333 3.0464 11.844267 3.8912 4.352 8.917333 6.784 10.589866 0 1.408-5.742933 2.312533-4.932267 3.5328-7.057067l3.7376 5.1712-6.144 10.709334 2.414934 5.290666c-10.154667 10.606933-12.714667 35.4048-10.589867 49.408l-4.821333-0.443733c-8.977067-4.5056-9.6512-11.093333-9.796267-20.4032l-6.562133-0.324267v-58.231466c0-0.392533-3.140267-3.1744-3.575467-7.0144-1.604267-14.2592 3.9936-26.5216-10.538667-37.102934 2.961067-4.181333 4.949333-9.156267 10.589867-10.589866 6.5536 2.5856 13.738667-3.140267 17.646933-3.5328 9.685333-0.955733 22.596267-0.725333 31.761067 1.6896v1.834666z" fill="#F7C7B2" p-id="5227"></path><path d="M649.728 618.0096c7.082667 6.485333 7.296 0.298667 5.376 10.581333-1.493333 8.004267-2.909867 14.464-1.783467 22.894934 3.694933 27.477333 26.001067 50.7904 52.778667 56.533333 4.522667 0.9728 12.202667-2.747733 14.208 1.749333-3.8912 3.694933-15.1296 14.523733-17.646933 17.646934-8.610133-7.296-19.242667-1.041067-30.737067-6.314667-5.8368-2.670933-20.002133-16.5632-23.867733-22.016-15.4624-21.802667-23.313067-61.841067-19.498667-88.132267 7.287467 2.909867 13.312 5.418667 21.1712 7.057067z" fill="#F8C7AF" p-id="5228"></path><path d="M342.698667 621.5424c6.536533 12.373333 14.173867 29.474133 10.077866 43.605333-1.877333 6.468267-19.797333 25.642667-25.890133 30.5664l-23.005867 14.045867c-5.085867-4.616533-18.4576-13.866667-24.704-17.646933l33.732267-24.669867c1.553067-2.602667-1.902933-6.920533-1.9712-10.615467-0.128-7.0144 16.776533-30.446933 21.1712-38.818133 5.435733-2.653867 10.001067 3.4304 10.589867 3.5328z" fill="#F7AB90" p-id="5229"></path><path d="M385.0496 614.485333c-3.037867 25.966933-3.694933 51.8912-19.498667 74.018134-5.725867 8.021333-16.324267 15.1808-22.877866 23.005866l-28.202667 8.849067c-1.698133-1.954133-8.439467-8.635733-10.589867-10.589867l23.005867-14.045866c6.0928-4.932267 24.0128-24.098133 25.890133-30.5664 4.096-14.139733-3.5328-31.232-10.077866-43.605334 12.2624 2.065067 30.805333-2.2016 42.350933-7.057066z" fill="#FAC1A9" p-id="5230"></path><path d="M395.630933 685.064533c2.978133 6.434133 9.361067 20.608 14.114134 24.704l-13.9776 30.139734-49.544534 36.9152c-1.902933-7.04-16.554667-35.319467-21.1712-42.350934l22.946134-0.017066c12.552533-1.7664 36.232533-26.589867 38.997333-38.647467 0.836267-3.643733-2.090667-6.468267-1.774933-8.9088 0.7168-5.384533 4.4032-9.992533 3.362133-15.9488 6.382933-0.785067 2.56 6.8352 4.010667 11.844267 0.5632 1.937067 2.935467 2.039467 3.037866 2.269866z" fill="#FAE3CD" p-id="5231"></path><path d="M681.489067 621.5424c-0.341333 8.704-7.842133 17.885867-7.227734 26.368 0.1536 2.116267 6.852267 17.800533 7.876267 18.8672 2.517333 2.6112 11.639467 7.3984 17.160533 12.936533 2.525867 2.542933 2.653867 6.929067 4.002134 8.234667 4.3776 4.215467 21.572267 5.188267 24.064 14.762667-1.629867 1.416533-4.6336 4.753067-7.057067 7.057066-2.005333-4.488533-9.685333-0.776533-14.208-1.749333-26.7776-5.742933-49.083733-29.056-52.778667-56.533333-1.134933-8.430933 0.290133-14.890667 1.783467-22.894934 1.92-10.274133 1.706667-4.087467-5.376-10.581333 7.611733 1.5872 24.968533 4.642133 31.761067 3.5328z" fill="#F7B49B" p-id="5232"></path><path d="M713.250133 621.5424c-2.4576 5.418667-3.0976 9.668267-5.154133 14.267733-4.872533 10.897067-17.493333 24.251733-8.968533 35.140267 5.853867 7.466667 8.763733 0.187733 14.2848 1.553067l35.1232 16.093866c-6.2464 3.6352-15.965867 9.591467-21.1712 14.114134-2.500267-9.565867-19.694933-10.5472-24.064-14.762667-1.3568-1.3056-1.476267-5.691733-4.002134-8.234667-5.512533-5.538133-14.6432-10.325333-17.160533-12.936533-1.024-1.066667-7.722667-16.750933-7.876267-18.8672-0.6144-8.482133 6.8864-17.664 7.227734-26.368 7.330133-1.2032 18.500267-6.801067 29.678933-3.1488l2.082133 3.1488z" fill="#F5A68B" p-id="5233"></path><path d="M222.711467 607.428267c-0.64 1.117867-0.136533 4.5056-1.6128 7.074133-10.666667 18.56-20.48 37.4016-30.148267 56.448-9.5488 2.798933-17.706667 6.8096-24.704 14.114133l-2.414933-5.290666 6.144-10.709334-3.7376-5.1712c9.3952-16.469333 20.5312-35.831467 28.228266-52.932266 1.5104-3.3536 6.0416-6.331733 3.5328-14.122667 8.2432 6.1696 21.265067-0.4864 24.695467 10.589867z" fill="#F2A388" p-id="5234"></path><path d="M886.1696 603.895467l-6.9376 8.516266c15.274667 15.419733 9.275733 37.282133 10.308267 56.9344 0.384 7.313067 5.060267 13.371733 3.780266 20.9664l-14.139733 25.0112-7.1168-2.039466-3.5328 21.1968c1.1264-10.0608-1.152-21.717333 0-31.761067 0.930133-8.1152 6.212267-9.565867 7.1424-15.803733 2.730667-18.363733-1.134933-38.8864-10.6752-54.784 4.317867-8.9344 7.825067-21.973333 10.589867-31.761067 0.989867 0.170667 2.525867 0.145067 3.5328 0 1.877333-0.273067 4.9664-2.440533 7.057066-3.5328v7.057067z" fill="#F6C9B3" p-id="5235"></path><path d="M212.1216 667.4176c-7.5008-0.6144-14.199467 1.4848-21.1712 3.5328 9.668267-19.0464 19.4816-37.896533 30.148267-56.448 1.476267-2.56 0.9728-5.956267 1.6128-7.074133 2.7136-4.736 10.436267-14.173867 15.812266-14.216534l8.8576 5.376-35.259733 68.829867z" fill="#EB4A45" p-id="5236"></path><path d="M868.522667 702.711467c-6.007467-10.948267-13.329067-21.879467-24.704-28.228267-0.017067-5.418667-6.306133-11.1616 0-14.114133 3.6864-1.194667 6.5792-4.027733 8.738133-7.1424 3.0976-4.445867 10.146133-16.366933 12.433067-21.0944 9.531733 15.889067 13.405867 36.420267 10.6752 54.784-0.930133 6.237867-6.212267 7.68-7.1424 15.803733z" fill="#F3B69D" p-id="5237"></path><path d="M903.816533 498.0224c-11.016533 11.2128-21.905067 27.886933-38.818133 35.293867-5.205333-4.352-6.263467-9.608533-12.808533-13.661867-17.493333-10.837333-51.310933-19.874133-71.893334-21.632l-5.341866-10.564267-21.700267 10.1376c-9.429333-1.032533-11.528533-4.1216-15.266133-11.9296 15.735467-8.891733 19.754667-18.747733 17.604266-37.0432-15.778133-2.944-15.2576 18.269867-30.523733 20.778667-28.706133-15.522133-59.255467-19.976533-89.309867-4.753067-47.445333 24.021333-48.1024 104.823467-3.677866 132.189867l-7.057067 10.589867c-2.389333-1.2032-6.656-0.9728-10.589867-3.5328-11.485867-7.483733-21.9392-20.241067-34.005333-27.7504-45.525333-28.3392-94.6688-27.733333-140.1344 0.0768-11.818667 7.227733-20.010667 16.955733-30.549333 24.149333-4.394667 3.003733-15.863467 7.808-21.1712 10.589867 2.952533-4.855467 3.0464-12.5184 0-17.646934 5.239467-4.181333 21.205333-24.354133 23.978666-30.728533 15.342933-35.268267 4.2496-79.957333-31.1808-97.937067-30.660267-15.556267-56.891733-8.9344-86.340266 5.316267-2.295467-0.017067-13.909333-7.210667-15.812267-9.0368-4.795733-4.616533-4.9408-14.020267-14.148267-12.3136-9.838933 19.848533 6.4 25.079467 14.045867 40.379733-13.6704 20.445867-21.76-1.5616-38.749867-1.5616l3.524267 21.1712c-28.1344-3.336533-44.1088 18.090667-70.715733 22.818134l-3.072 4.087466c3.438933 5.6832-0.290133 7.9104-0.324267 8.388267-20.206933-10.5984-35.601067-28.049067-52.932267-42.350933 3.8144-29.073067 34.619733-76.842667 31.709867-104.0384-6.6304-61.824-0.221867-135.918933 15.0272-196.846934 7.2192-28.8256 24.507733-87.552 60.9024-87.6032 15.505067-0.017067 52.1472 20.471467 66.517333 29.056 31.5904 18.884267 60.288 42.3936 88.635734 65.655467 58.180267-14.173867 116.846933-14.250667 176.733866-13.4144l80.4864 13.781333c19.370667-12.868267 36.2496-29.585067 55.389867-43.460266 18.688-13.559467 47.044267-32.9728 67.959467-41.437867 24.738133-10.018133 45.073067-15.214933 64.068266 7.918933 24.832 30.242133 39.2704 103.722667 44.2112 142.830934 5.614933 44.4672-1.749333 92.603733 3.652267 133.981866 3.464533 26.555733 25.770667 62.446933 31.701333 90.052267zM198.007467 325.102933c6.0672 1.450667 7.0144-2.321067 10.589866-5.290666 15.377067-12.8 28.740267-31.4112 44.040534-44.1856 15.4112-12.859733 40.055467-22.7072 53.085866-35.140267 8.302933-7.927467 6.570667-10.043733-0.059733-17.749333-12.253867-14.250667-52.317867-50.926933-70.519467-49.553067-27.349333 2.065067-30.813867 48.1792-33.595733 68.992-0.529067 3.976533-3.5328 6.656-3.5328 7.048533v75.8784z m621.1072-3.5328v-65.288533c0-1.1008-2.8672-16.512-3.592534-21.102933-3.677867-23.278933-11.3152-68.352-43.4944-61.269334-12.5184 2.756267-52.471467 37.563733-60.450133 48.938667-2.3296 3.319467-4.923733 7.808-5.2224 11.912533 1.117867 5.188267 34.440533 23.236267 42.026667 28.740267 9.719467 7.048533 25.4464 18.423467 33.7408 26.248533 5.3504 5.0432 28.654933 40.3968 36.992 31.8208zM257.9968 409.787733c-2.833067-9.540267-18.065067-6.946133-23.04-14.011733-3.6608-5.1968-5.393067-18.0992-5.205333-24.8064-9.915733 3.106133-7.68 18.4064-12.245334 24.797867-3.6352 5.0944-15.479467 5.76-19.5072 12.253866l19.5072 8.712534 8.7296 24.8064 10.385067-23.125334 21.367467-8.644266z m97.6384-38.229333c-5.717333 1.245867-16.802133 10.2912-20.138667 15.146667-18.824533 27.409067 4.744533 54.6048 30.916267 64.6656 18.4064 7.074133 32.9984 10.709333 50.312533-1.083734 15.991467-10.888533 19.575467-35.234133 8.814934-50.986666-15.342933-22.459733-43.025067-33.604267-69.905067-27.741867z m275.2512 0c-10.3168 2.269867-33.8688 18.5088-39.364267 27.682133-12.433067 20.744533-2.645333 50.517333 21.725867 55.8592 39.1168 8.584533 98.244267-31.351467 71.389867-71.3984-9.7792-14.583467-37.9392-15.633067-53.751467-12.151466z m184.712533 55.893333c-11.025067 0.1536-19.0464-3.7376-23.074133-13.994666-2.397867-6.101333-0.059733-15.5904-8.686933-17.7664-1.536 5.034667-5.102933 21.7088-7.6032 24.174933-1.7408 1.723733-21.512533 7.364267-20.6336 9.344 4.992 7.168 18.4576 5.742933 23.031466 12.253867 2.679467 3.805867 4.420267 14.2848 5.3248 19.473066 0.785067 4.514133 1.646933 11.844267 6.920534 5.333334-1.297067-17.911467 2.065067-26.666667 19.6096-31.6672 5.256533-1.501867 5.998933 1.928533 5.102933-7.150934z" fill="#F7C17D" p-id="5238"></path><path d="M917.930667 550.9632c-2.1504 1.834667-4.718933 7.441067-8.763734 10.658133-6.997333 5.5552-32.520533 20.573867-35.438933 24.5504-4.770133 6.519467 3.9168 8.9344 5.384533 14.199467-1.006933 0.145067-2.5344 0.170667-3.5328 0-2.8928-0.494933-6.528-4.334933-10.589866-3.5328 1.911467-3.473067 4.292267-6.263467 3.5328-10.589867l-24.490667-3.293866c0.878933 4.215467-3.1744 5.725867-3.7376 6.826666 0.648533-6.229333-3.6864-13.201067-10.606933-8.840533-5.504 3.473067-20.138667 32.2816-24.686934 40.6016l-7.722666-17.169067-5.8624-0.930133c-1.646933-1.6128-0.110933-4.770133-0.529067-6.6048-1.117867-4.855467-0.256-9.198933-7.057067-10.589867 2.107733-1.8176 2.7904-4.573867 7.0656-3.541333-1.553067-21.282133-33.629867-3.165867-45.883733-14.1056 5.7344-12.117333 6.033067-29.371733 7.057067-42.350933 12.731733 5.0432 27.349333 5.393067 39.867733 11.298133 12.475733 5.888 22.024533 13.2352 36.770133 19.694933 8.6272 3.780267 18.389333 15.4368 29.226667 4.3008 17.800533-13.789867 35.549867-28.0576 52.932267-42.350933l7.057066 31.761067z" fill="#F09D6E" p-id="5239"></path><path d="M864.9984 533.316267c-7.125333 10.274133-28.202667 15.351467-11.972267 27.921066l4.906667 0.3072c-10.837333 11.136-20.599467-0.520533-29.226667-4.3008-14.754133-6.459733-24.302933-13.806933-36.770133-19.694933-12.526933-5.905067-27.136-6.254933-39.867733-11.298133 0.093867-1.1776-0.196267-2.432 0-3.5328 0.401067-2.2016 2.722133-4.718933 3.5328-7.057067 10.862933-3.336533 15.5904-12.142933 24.704-17.646933 20.573867 1.757867 54.4 10.794667 71.893333 21.632 6.545067 4.053333 7.6032 9.301333 12.808533 13.661866z" fill="#F3B077" p-id="5240"></path><path d="M243.882667 508.612267c8.337067 0.989867 16.170667 5.9648 23.1168 10.410666 3.3792 5.009067 1.083733 14.941867 1.5872 21.3504 0.366933 4.650667-0.238933 9.4464 0 14.114134 1.774933 10.453333-4.753067 7.6032-11.630934 6.331733-6.050133-1.117867-14.045867-5.435733-20.241066-4.6848-10.683733 1.297067-23.4752 11.4688-34.193067 15.214933-17.237333 6.024533-40.465067 4.206933-50.397867 21.9392 8.695467 0.6656 18.116267-0.938667 26.666667-0.0512 4.224 0.4352 4.7872 3.515733 5.0944 3.584-0.0512 2.295467-3.072 2.816-3.5328 3.5328v-1.834666c-9.1648-2.414933-22.075733-2.653867-31.761067-1.6896-4.104533-16.904533-24.772267-25.045333-37.111466-35.2256-3.9424-3.2512-6.647467-8.849067-8.763734-10.658134l3.080534-2.133333 3.985066-26.103467c0.699733 0.7168 12.9024 5.572267 17.493334 8.977067 6.784 5.034667 36.309333 33.024 42.496 26.3168 0.290133-4.6592-0.384-9.480533 0-14.122667 0.042667-0.477867 3.7632-2.705067 0.324266-8.388266l3.072-4.087467c26.606933-4.727467 42.5728-26.146133 70.715734-22.818133z" fill="#F2AD75" p-id="5241"></path><path d="M924.987733 607.428267c-0.5888 0.520533-1.2544 3.089067-3.5328 5.137066-4.096 3.6864-12.194133 3.473067-10.581333 12.509867-6.545067-8.797867-13.8496-17.629867-24.704-21.1712v-7.057067c11.016533-5.742933 24.635733-17.058133 35.293867-24.704l3.5328 35.293867z" fill="#E9B378" p-id="5242"></path><path d="M130.952533 600.3712c-5.640533 1.4336-7.6288 6.4-10.589866 10.589867-4.608 6.519467-6.621867 13.909333-10.589867 17.646933 2.6112-12.330667-5.1712-11.246933-10.581333-16.034133-2.286933-2.0224-3.080533-4.770133-3.5328-5.137067l3.5328-35.293867c11.170133 8.516267 24.5504 14.941867 31.761066 28.228267z" fill="#E5AB65" p-id="5243"></path><path d="M610.901333 660.360533l12.544 3.336534c8.465067 11.946667-5.870933 41.412267-16.0768 49.595733-25.6 20.5312-76.219733 10.487467-97.0496-13.9008-17.058133 15.121067-40.516267 26.538667-63.675733 24.6272-8.567467-0.708267-30.6688-8.8832-36.898133-14.250667-4.753067-4.087467-11.136-18.261333-14.114134-24.704l1.6128-21.3248c3.268267-4.855467 10.5472-3.387733 16.0256-3.3792 6.050133 8.081067 1.006933 11.264 1.365334 15.880534 2.679467 34.414933 58.069333 32.042667 78.139733 12.450133 7.68-7.492267 4.0704-16.682667 8.635733-26.333867l-3.345066-3.8656c-30.037333-4.181333-71.278933-44.142933-36.6592-68.224 14.0032-9.745067 22.7072-9.472 38.2464-11.136 3.703467-0.392533 7.1424-3.438933 10.666666-3.438933 2.491733 0 20.334933 3.2768 24.029867 4.1728 32.8192 7.9616 52.437333 37.956267 21.9136 62.916267-7.424 6.075733-35.7632 15.470933-36.9408 19.5584-6.929067 40.098133 68.6336 54.920533 82.8416 26.350933 4.258133-8.567467-1.9456-22.084267 8.7296-28.322133z" fill="#543128" p-id="5244"></path><path d="M282.7008 536.840533c37.051733 8.362667 52.061867 30.344533 56.465067 67.054934-5.7856-0.520533-11.8528 0.512-17.646934 0-12.8512-1.134933-13.585067-3.831467-23.483733-9.949867-1.621333-1.006933-3.874133-0.093867-4.753067-0.64-2.773333-1.706667-2.286933-2.0992-3.5328-3.5328-8.874667-10.222933-14.421333-23.722667-21.1712-35.293867-0.238933-4.667733 0.366933-9.463467 0-14.114133 4.027733-4.027733 10.760533-2.372267 14.114134-3.5328z" fill="#633327" p-id="5245"></path><path d="M183.893333 596.8384c2.961067 0.699733 7.210667-0.64 10.5472 0.059733l0.042667 14.0544c-7.7056 17.1008-18.833067 36.471467-28.228267 52.932267-1.211733 2.1248-2.116267 1.314133-3.5328 7.057067h-10.589866c-4.334933-4.846933-4.6336-5.102933-3.0464-11.844267 2.082133-8.814933 25.028267-49.032533 31.274666-58.734933 0.4608-0.7168 3.4816-1.2288 3.5328-3.5328z" fill="#EF4945" p-id="5246"></path><path d="M289.757867 589.781333c1.237333 1.425067 0.759467 1.826133 3.5328 3.5328l-35.4304 74.0096c-10.274133 1.928533-17.3568-4.1216-12.3904-14.190933 12.868267-17.655467 19.464533-38.784 31.863466-56.516267 4.1216-5.896533 0.221867-8.789333 12.433067-6.826666z" fill="#ED4645" p-id="5247"></path><path d="M339.165867 603.895467c-4.573867 4.3008-5.213867 10.606933-7.057067 14.114133-4.4032 8.3712-21.2992 31.812267-21.1712 38.818133-9.002667 13.943467-21.870933 22.8352-20.667733-1.2544l31.249066-51.6864c5.7856 0.512 11.861333-0.520533 17.646934 0z" fill="#EB413D" p-id="5248"></path><path d="M632.081067 596.8384c-44.424533-27.3664-43.767467-108.16 3.677866-132.189867 30.0544-15.214933 60.603733-10.769067 89.309867 4.753067 15.266133-2.517333 14.7456-23.7312 30.523733-20.778667 2.158933 18.295467-1.860267 28.151467-17.604266 37.0432 3.7376 7.808 5.845333 10.897067 15.266133 11.9296l21.700267-10.1376 5.341866 10.564267c-9.1136 5.504-13.841067 14.3104-24.704 17.646933-1.7664 0.546133-4.7616-0.580267-6.980266 0.068267-0.3584 2.312533 0.0256 4.667733-0.0768 6.9888-0.213333 4.676267 0.1536 9.437867 0 14.114133l-10.581334-3.524266c-36.949333-2.9184-55.389867-28.7232-60.0064-63.522134-8.968533 4.437333-8.4736 18.747733-12.296533 28.279467-8.712533 21.7344-28.194133 34.295467-51.217067 35.2512 5.2224 10.043733 20.0448 8.951467 29.5424 14.557867 18.0736 10.6752 26.487467 35.848533 26.922667 56.0128v3.5328c-15.197867-0.674133-25.489067-2.372267-38.818133-10.589867z" fill="#533026" p-id="5249"></path><path d="M752.068267 526.2592c-1.024 12.9792-1.322667 30.2336-7.057067 42.350933-5.4016 11.409067-18.397867 22.690133-29.312 28.919467-17.194667 9.813333-24.866133 10.7776-44.8 9.898667v-3.5328c9.890133 1.9456 6.417067-4.3008 8.686933-10.666667 2.722133-7.620267 4.8128-16.605867 8.200534-23.620267 7.534933-15.616 16.9728-20.992 32.375466-27.6224 6.468267-2.7904 15.752533 0.256 17.792-8.6784l10.581334 3.524267c0.162133-4.676267-0.213333-9.437867 0-14.114133h3.5328c-0.196267 1.1008 0.093867 2.346667 0 3.5328z" fill="#613428" p-id="5250"></path><path d="M840.2944 589.781333c-3.421867 6.6048-6.5792 14.216533-10.589867 21.1712-10.112 17.553067-18.9696 35.8656-30.1312 52.795734l-12.3648-8.704c3.9424-12.228267 11.733333-22.4256 17.792-33.5104 4.548267-8.32 19.1744-37.137067 24.686934-40.6016 6.920533-4.360533 11.255467 2.6112 10.606933 8.840533z" fill="#E74840" p-id="5251"></path><path d="M790.8864 596.8384l-40.576 74.043733-8.814933-3.456c-4.667733-5.239467 15.982933-43.989333 20.471466-51.8656 6.784-11.895467 11.648-20.48 21.8624-29.312 6.801067 1.390933 5.9392 5.725867 7.057067 10.589867z" fill="#E83D3B" p-id="5252"></path><path d="M713.250133 621.5424c3.362133-7.406933 9.437867-15.5904 10.743467-24.567467l12.0064 0.059734 5.632 8.644266c-8.3712 20.010667-19.584 39.210667-30.293333 58.205867-3.882667 6.8864 0.2048 8.704-12.202667 7.0656-8.533333-10.888533 4.096-24.2432 8.968533-35.140267 2.056533-4.599467 2.688-8.849067 5.154134-14.267733z" fill="#E8423E" p-id="5253"></path><path d="M875.579733 600.3712c-2.756267 9.787733-6.263467 22.826667-10.589866 31.761067-2.286933 4.727467-9.344 16.64-12.433067 21.0944-2.167467 3.114667-5.051733 5.9392-8.738133 7.1424l-6.272-8.712534c3.2256-10.658133 8.4224-20.241067 13.329066-30.1056 4.462933-8.968533 9.5232-16.3584 14.114134-24.704 4.061867-0.802133 7.688533 3.029333 10.589866 3.5328z" fill="#E74640" p-id="5254"></path><path d="M840.2944 589.781333c0.571733-1.1008 4.616533-2.602667 3.7376-6.826666l24.490667 3.293866c0.759467 4.317867-1.621333 7.1168-3.5328 10.589867-4.590933 8.3456-9.6512 15.735467-14.114134 24.704l-21.085866-3.6608-0.085334-6.920533c4.010667-6.9632 7.168-14.574933 10.589867-21.1712z" fill="#EDB18E" p-id="5255"></path><path d="M614.434133 603.895467c-4.497067 7.893333-13.0816 13.056-14.208 22.9888-1.015467 9.002667 3.319467 27.170133 14.139734 26.666666l-3.464534 6.8096c-10.6752 6.2464-4.471467 19.754667-8.7296 28.322134-14.208 28.5696-89.770667 13.755733-82.8416-26.350934 1.1776-4.087467 29.5168-13.482667 36.9408-19.5584 30.523733-24.96 10.914133-54.954667-21.9136-62.916266-3.694933-0.896-21.538133-4.1728-24.029866-4.1728-3.524267 0-6.9632 3.0464-10.666667 3.438933-15.547733 1.655467-24.2432 1.390933-38.2464 11.136-34.619733 24.081067 6.621867 64.042667 36.6592 68.224l3.345067 3.8656c-4.565333 9.6512-0.955733 18.8416-8.635734 26.333867-20.061867 19.592533-75.460267 21.9648-78.139733-12.450134-0.3584-4.616533 4.676267-7.799467-1.365333-15.880533-2.440533-3.268267-7.970133-3.84-7.048534-5.248l13.329067-21.230933c-4.010667-6.033067-5.504-12.808533-7.995733-19.438934-2.005333-5.3504-7.082667-7.8336-1.809067-14.071466 10.538667-7.1936 18.730667-16.9216 30.549333-24.149334 45.457067-27.810133 94.609067-28.407467 140.1344-0.0768 12.066133 7.509333 22.519467 20.266667 34.005334 27.7504z" fill="#FAECD8" p-id="5256"></path><path d="M388.573867 610.952533c-0.3584 0.187733-0.930133 2.440533-3.5328 3.5328-11.5456 4.855467-30.08 9.122133-42.350934 7.057067-0.5888-0.1024-5.154133-6.186667-10.589866-3.5328 1.8432-3.515733 2.491733-9.813333 7.057066-14.114133 1.169067 0.1024 2.372267-0.136533 3.5328 0 0.682667 0.0768 2.432 4.7104 12.279467 3.5584 6.784-0.7936 28.2624-9.890133 33.604267-14.148267 3.0464 5.12 2.952533 12.791467 0 17.646933z" fill="#F4A172" p-id="5257"></path><path d="M162.7136 670.9504c-1.664 6.784-6.698667 4.352-10.589867 0h10.589867z" fill="#F2A388" p-id="5258"></path><path d="M388.573867 593.3056c-5.333333 4.258133-26.820267 13.354667-33.604267 14.148267-9.838933 1.152-11.5968-3.4816-12.279467-3.5584 5.282133-19.6096 11.8016-44.996267 30.446934-56.0128 9.301333-5.495467 21.7088-4.855467 29.5424-12.808534-5.469867-5.077333-14.890667-4.411733-21.2992-6.929066-25.8304-10.1376-33.681067-32-35.165867-58.368-9.1392-0.887467-5.6576-0.1536-7.125333 5.137066-6.3232 22.826667-9.4464 41.386667-32.768 52.036267-6.459733 2.944-17.3312 7.7312-23.6288 9.898667-3.3536 1.152-10.0864-0.503467-14.114134 3.5328-0.503467-6.408533 1.792-16.349867-1.5872-21.3504-6.946133-4.437333-14.779733-9.4208-23.1168-10.410667l-3.524266-21.1712c16.989867 0 25.079467 22.007467 38.749866 1.5616-7.645867-15.3088-23.876267-20.5312-14.045866-40.379733 9.207467-1.706667 9.344 7.697067 14.148266 12.3136 1.902933 1.826133 13.5168 9.019733 15.812267 9.0368 29.457067-14.250667 55.68-20.881067 86.340267-5.316267 35.438933 17.979733 46.532267 62.660267 31.1808 97.937067-2.773333 6.365867-18.7392 26.5472-23.978667 30.728533z" fill="#533026" p-id="5259"></path><path d="M198.007467 325.102933v-75.8784c0-0.392533 3.003733-3.072 3.5328-7.048533 2.7904-20.804267 6.2464-66.9184 33.595733-68.992 18.2016-1.373867 58.2656 35.3024 70.519467 49.553067 6.621867 7.7056 8.362667 9.813333 0.059733 17.749333-13.0304 12.4416-37.666133 22.280533-53.085867 35.140267-15.300267 12.765867-28.663467 31.3856-44.040533 44.1856-3.575467 2.9696-4.522667 6.741333-10.589867 5.290666z" fill="#FAC7B9" p-id="5260"></path><path d="M819.114667 321.570133c-8.337067 8.567467-31.6416-26.7776-36.992-31.8208-8.2944-7.825067-24.029867-19.2-33.7408-26.248533-7.586133-5.504-40.9088-23.552-42.026667-28.740267 0.298667-4.113067 2.884267-8.593067 5.2224-11.912533 7.978667-11.3664 47.931733-46.1824 60.450133-48.938667 32.187733-7.074133 39.816533 37.9904 43.4944 61.269334 0.725333 4.590933 3.592533 20.010667 3.592534 21.102933v65.288533z" fill="#F9C6B7" p-id="5261"></path><path d="M630.8864 371.5584c15.812267-3.473067 43.963733-2.432 53.751467 12.151467 26.845867 40.046933-32.273067 79.9744-71.389867 71.3984-24.3712-5.3504-34.158933-35.1232-21.725867-55.8592 5.504-9.173333 29.047467-25.412267 39.364267-27.682134z" fill="#F7EEDB" p-id="5262"></path><path d="M355.6352 371.5584c26.871467-5.8624 54.562133 5.290667 69.905067 27.741867 10.760533 15.752533 7.176533 40.106667-8.814934 50.986666-17.314133 11.793067-31.906133 8.149333-50.312533 1.083734-26.171733-10.0608-49.7408-37.248-30.916267-64.6656 3.336533-4.855467 14.421333-13.9008 20.138667-15.146667z" fill="#F7EFDC" p-id="5263"></path><path d="M815.598933 427.451733c0.896 9.079467 0.1536 5.649067-5.102933 7.150934-17.553067 5.000533-20.906667 13.755733-19.6096 31.6672-5.282133 6.510933-6.144-0.8192-6.920533-5.333334-0.896-5.188267-2.645333-15.6672-5.3248-19.473066-4.5824-6.519467-18.039467-5.085867-23.031467-12.253867-0.8704-1.979733 18.8928-7.620267 20.6336-9.344 2.500267-2.466133 6.0672-19.140267 7.6032-24.174933 8.6272 2.176 6.289067 11.665067 8.686933 17.7664 4.027733 10.257067 12.049067 14.1568 23.074134 13.994666z" fill="#F1F0E4" p-id="5264"></path><path d="M257.9968 409.787733l-21.367467 8.644267-10.385066 23.125333-8.7296-24.8064-19.5072-8.712533c4.027733-6.5024 15.872-7.159467 19.5072-12.253867 4.565333-6.4 2.3296-21.691733 12.245333-24.797866-0.187733 6.7072 1.544533 19.6096 5.205333 24.8064 4.974933 7.0656 20.206933 4.471467 23.04 14.011733z" fill="#F5F4E7" p-id="5265"></path><path d="M755.592533 515.669333c-0.802133 2.338133-3.131733 4.855467-3.5328 7.057067h-3.5328c0.1024-2.321067-0.2816-4.676267 0.0768-6.9888 2.218667-0.648533 5.213867 0.477867 6.980267-0.068267z" fill="#F09D6E" p-id="5266"></path><path d="M282.7008 536.840533c6.2976-2.167467 17.169067-6.946133 23.6288-9.898666 23.313067-10.641067 26.436267-29.201067 32.768-52.036267 1.467733-5.290667-2.013867-6.024533 7.125333-5.137067 1.4848 26.359467 9.335467 48.2304 35.165867 58.368 6.4 2.5088 15.829333 1.8432 21.2992 6.929067-7.8336 7.953067-20.241067 7.313067-29.5424 12.808533-18.645333 11.016533-25.1648 36.4032-30.446933 56.0128-1.160533-0.136533-2.363733 0.1024-3.5328 0-4.4032-36.7104-19.413333-58.692267-56.465067-67.054933z" fill="#F7F2EC" p-id="5267"></path><path d="M737.954133 533.316267c-2.039467 8.925867-11.323733 5.888-17.792 8.6784-15.394133 6.6304-24.832 12.0064-32.375466 27.6224-3.387733 7.0144-5.4784 16-8.200534 23.620266-2.269867 6.365867 1.2032 12.612267-8.686933 10.666667-0.4352-20.164267-8.840533-45.3376-26.922667-56.0128-9.4976-5.6064-24.32-4.514133-29.5424-14.557867 23.022933-0.955733 42.504533-13.5168 51.217067-35.2512 3.822933-9.531733 3.328-23.842133 12.296533-28.279466 4.608 34.798933 23.057067 60.603733 60.0064 63.522133z" fill="#F5F0E9" p-id="5268"></path></svg>