<?xml version="1.0" standalone="no"?><!DOCTYPE svg PUBLIC "-//W3C//DTD SVG 1.1//EN" "http://www.w3.org/Graphics/SVG/1.1/DTD/svg11.dtd"><svg t="1772951629207" class="icon" viewBox="0 0 1024 1024" version="1.1" xmlns="http://www.w3.org/2000/svg" p-id="8521" xmlns:xlink="http://www.w3.org/1999/xlink" width="200" height="200"><path d="M164.411733 18.107733c26.1888-4.693333 59.3664 10.8288 82.338134 23.0912 40.516267 21.632 77.824 51.114667 112.290133 81.169067 12.219733 6.2464 20.795733-0.7168 31.0528-2.090667 88.3968-11.793067 179.652267-12.859733 267.008 7.816534 35.933867-31.2576 74.171733-62.8992 116.3776-85.469867 30.1056-16.1024 70.382933-33.322667 103.176533-17.9968 31.061333 14.506667 52.1728 62.933333 61.892267 94.532267 12.663467 41.156267 23.338667 100.642133 25.890133 142.882133 2.397867 39.7824-5.4272 90.146133-0.1792 127.786667 3.601067 25.847467 31.4624 80.8192 40.1664 112.136533 49.194667 176.9984 8.465067 325.495467-154.0096 420.283733-190.421333 111.095467-477.602133 112.7936-669.687466 4.130134C16.520533 833.493333-30.685867 686.907733 18.491733 506.094933c9.1136-33.493333 36.2496-86.903467 40.098134-116.3264 3.882667-29.713067-1.672533-67.754667-0.110934-98.901333 1.5872-31.547733 7.441067-67.515733 12.398934-98.747733 8.789333-55.406933 26.427733-161.979733 93.5424-174.011734zM29.841067 671.803733c-3.268267 42.973867 30.1824 113.2032 57.5488 146.2016 3.925333 4.736 9.770667 7.355733 12.433066 10.222934 190.0544 205.422933 646.135467 203.733333 831.505067-8.234667 1.237333-1.416533 5.614933-2.6368 8.311467-5.956267 24.712533-30.455467 54.3488-94.967467 53.435733-133.998933 7.048533-4.821333 3.9936-15.232 4.104533-22.664533 0.776533-53.819733-3.140267-95.240533-17.450666-147.165867-9.173333-33.297067-36.2752-87.108267-40.098134-116.3264-4.352-33.322667 1.902933-75.921067-0.1536-110.993067-3.242667-55.381333-18.722133-162.7648-49.877333-209.450666-31.2064-46.762667-72.669867-24.635733-111.991467-1.979734-36.898133 21.256533-74.094933 51.080533-105.506133 79.726934-14.071467 7.150933-43.844267-4.130133-59.861333-6.203734-60.910933-7.8848-123.4944-9.582933-185.079467-4.104533-19.089067 1.698133-42.658133 10.0864-61.917867 12.253867-3.968 0.443733-7.893333 0.554667-11.784533-0.469334-32.529067-29.934933-69.546667-59.306667-108.1344-81.211733-11.7248-6.656-34.730667-19.515733-46.498133-23.483733-32.068267-10.794667-50.850133 0.110933-66.8672 28.219733-25.3696 44.535467-41.582933 130.824533-44.654934 181.742933-2.423467 40.192 5.128533 89.2672 0.110934 127.7184-3.959467 30.353067-29.559467 80.128-39.150934 113.152-14.4128 49.604267-22.954667 98.7648-22.519466 150.3488 0.059733 6.766933-3.037867 19.217067 4.104533 22.647467z" fill="#4C2A20" p-id="8522"></path><path d="M993.066667 680.0384c-0.520533-22.1952-14.583467-54.7328-33.041067-67.8144-22.0416-15.616-55.9616-19.524267-82.218667-18.628267-14.6176 0.494933-26.9056 2.5088-41.1648 4.113067-0.1792-14.890667-8.994133-26.530133-20.6848-34.884267-14.890667-10.632533-27.383467-11.357867-45.175466-10.3936 4.957867-59.946667-35.362133-99.985067-95.940267-89.762133-22.536533 3.805867-49.058133 29.892267-55.6288 51.396267-5.205333 17.041067-5.111467 34.2016 1.1776 50.858666 6.621867 17.536 19.84 33.169067 36.292267 41.915734 19.874133 10.564267 47.573333 9.403733 68.8128 3.2256 0.708267 0.546133 5.060267-0.315733 8.106666 2.013866 7.944533 6.075733 10.862933 9.454933 20.701867 14.455467-7.168 9.0368-22.792533 10.862933-33.962667 13.243733-2.1504 0.4608-2.824533 3.182933-3.080533 3.2256-8.840533 1.4592-29.610667 0.955733-39.005867-0.093866-43.1872-4.8384-72.533333-48.034133-113.237333-63.761067-48.196267-18.628267-97.408-11.6992-139.835733 16.708267-16.571733 11.093333-34.4576 30.788267-52.548267 38.016-19.2512 7.688533-50.875733 12.501333-71.125333 9.1392-10.001067-1.664-27.904-11.639467-41.1648-12.347734 0.674133-3.601067 27.144533-18.816 32.930133-24.695466 35.5328 21.4784 86.5792 2.5344 103.790933-34.107734 39.918933-84.974933-76.672-153.642667-132.6848-79.172266-11.178667 14.865067-22.587733 42.171733-12.270933 59.767466-27.605333-3.157333-68.616533 9.122133-69.981867 41.1648-5.4784-0.110933-10.990933 0.170667-16.469333 0-23.432533-0.733867-38.408533-5.333333-63.018667 0.785067-35.0208 8.704-69.998933 40.3456-72.823466 77.422933-7.1424-3.4304-4.0448-15.889067-4.104534-22.647466-0.4352-51.584 8.106667-100.744533 22.519467-150.3488 9.591467-33.024 35.191467-82.798933 39.150933-113.152 5.0176-38.4512-2.5344-87.5264-0.110933-127.7184 3.072-50.9184 19.285333-137.207467 44.654933-181.742934 16.017067-28.1088 34.798933-39.0144 66.8672-28.219733 11.767467 3.959467 34.773333 16.827733 46.498134 23.483733 38.587733 21.9136 75.605333 51.2768 108.1344 81.211734 3.8912 1.024 7.825067 0.913067 11.784533 0.469333 19.259733-2.167467 42.8288-10.555733 61.917867-12.253867 61.585067-5.4784 124.168533-3.7888 185.079466 4.104534 16.017067 2.0736 45.789867 13.354667 59.861334 6.203733 31.4112-28.6464 68.608-58.4704 105.506133-79.726933 39.3216-22.656 80.785067-44.7744 111.991467 1.979733 31.1552 46.685867 46.634667 154.069333 49.877333 209.450667 2.056533 35.072-4.206933 77.661867 0.1536 110.993066 3.8144 29.218133 30.9248 83.029333 40.098133 116.3264 14.3104 51.925333 18.2272 93.346133 17.450667 147.165867-0.110933 7.432533 2.944 17.8432-4.104533 22.664533zM145.1008 221.064533c-1.476267 19.5328 0 41.787733 0 61.7472 0 0.4608 6.075733 8.354133 8.234667 4.130134 16.375467-14.3616 30.848-33.553067 47.2576-47.428267 21.316267-18.0224 48.477867-31.7696 70.877866-48.597333 2.602667-1.954133 6.7584 1.902933 5.461334-6.920534-0.9728-6.656-3.234133-6.434133-6.254934-10.2912-12.228267-15.616-62.455467-64.170667-81.7152-61.184-39.3984 16.6656-36.360533 64.631467-39.688533 100.369067-0.418133 4.539733-4.113067 7.466667-4.1728 8.174933z m732.714667 67.9168v-84.386133c0-0.913067-3.0976-2.4064-3.421867-4.8128-3.8144-28.3904-6.715733-61.5424-29.4144-81.732267-29.602133-14.9248-74.555733 34.500267-92.740267 55.645867-6.929067 8.064-10.965333 13.090133 0.520534 20.104533 17.7152 10.820267 36.616533 20.6336 53.085866 33.3568 20.6592 15.9744 39.936 39.2704 59.613867 55.645867 4.164267 3.464533 5.2736 7.867733 12.347733 6.178133z m-646.280534 41.1648c-8.644267 4.846933-15.6928 13.482667-26.743466 12.603734-10.948267-0.8704-14.532267-17.937067-26.752-16.7168-1.7152 8.209067 4.872533 14.651733 4.334933 22.493866-1.186133 17.160533-18.730667 18.269867-29.0304 28.962134 1.3056 3.5584 7.867733 2.210133 12.475733 3.976533 27.204267 10.427733 21.742933 21.333333 34.858667 43.349333l15.1296-32.1792 32.2048-4.872533c5.794133-5.486933-18.363733-21.418667-20.096-27.221333-3.328-11.136 4.206933-19.5584 3.626667-30.404267z m609.2288-4.113066c-12.322133-1.160533-15.684267 15.752533-26.734933 16.6912-12.168533 1.032533-18.2784-13.277867-30.890667-12.5696 14.523733 24.891733 6.5024 37.649067-16.4608 51.447466l31.0272 10.120534c8.448 7.7056 15.104 16.964267 14.250667 28.987733 12.305067 2.952533 9.821867-12.893867 14.4384-20.5568 6.784-11.272533 21.930667-19.336533 34.952533-20.625067-5.5552-12.407467-20.855467-12.475733-24.149333-27.426133l3.5584-26.069333z m-507.554133 21.393066c-10.496 1.851733-19.114667 7.253333-25.3952 15.761067-33.288533 45.098667 28.919467 91.9552 73.915733 86.254933 30.353067-3.848533 51.396267-38.570667 32.878934-65.672533-17.092267-25.028267-51.0976-41.685333-81.399467-36.343467z m325.1712-0.017066c-19.626667 3.370667-53.504 25.710933-56.362667 46.549333-10.222933 74.504533 86.5024 67.5072 114.730667 20.053333 9.719467-16.341333 10.0352-28.936533 1.416533-45.6448-10.752-20.8384-38.545067-24.6016-59.784533-20.957866z m-488.584533 122.709333c-6.144 0.4096-13.380267-5.2224-16.64-10.129067-3.976533-5.998933-2.619733-10.632533-5.998934-14.574933-8.9856 10.88-7.671467 27.118933-26.760533 24.704v2.048c3.490133 5.2224 10.589867 5.905067 14.429867 10.2656 6.101333 6.920533 2.6624 19.694933 14.370133 16.503467-0.196267-16.349867 13.508267-18.491733 20.599467-28.808534z m699.793066 28.8c10.5984-8.021333 9.284267-20.3008 24.669867-26.752-10.308267-7.765333-19.9424-11.895467-20.573867-26.752-7.074133 0.213333-5.563733 11.264-10.248533 16.494933-3.8144 4.258133-11.025067 4.9664-14.421333 10.257067 10.129067 7.7312 20.1984 11.9552 20.573866 26.752z" fill="#F8C27D" p-id="8523"></path><path d="M717.277867 642.9952c15.112533-0.6656 5.521067 2.389333 2.2016 8.379733-28.552533 51.541333-1.8944 125.960533 43.178666 158.2336 22.306133 15.9744 64.520533 25.7024 91.639467 21.8624 19.7376-2.798933 41.3696-15.965867 59.246933-19.012266 8.132267-1.3824 14.7712-2.1504 17.783467 7.534933-185.3696 211.968-641.450667 213.6576-831.505067 8.234667 11.221333-15.1552 26.359467-5.879467 39.176534-4.189867 20.8384 2.756267 49.152 6.7584 69.8368 4.1216 12.885333-1.646933 47.6416-16.4352 57.770666-24.5504 45.4656-36.437333 57.5744-90.5728 36.974934-144.1536-1.7408-4.5312-10.948267-14.020267-2.065067-16.4608 20.2496 3.362133 51.874133-1.450667 71.125333-9.1392 18.090667-7.227733 35.976533-26.922667 52.548267-38.016 42.427733-28.407467 91.639467-35.336533 139.835733-16.708267 40.704 15.735467 70.050133 58.922667 113.237334 63.761067 9.3952 1.0496 30.165333 1.553067 39.005866 0.093867zM494.890667 688.384c9.9328 42.811733-53.930667 61.883733-73.437867 26.0864-4.027733-7.389867-4.642133-24.465067-10.8544-26.1888-20.002133-5.538133-16.7936 28.3392-8.1152 41.045333 26.0608 38.135467 72.9344 35.950933 103.1168 4.343467 4.087467-1.2032 21.341867 14.1824 27.613867 17.237333 27.076267 13.192533 61.789867 8.994133 81.2288-15.214933 9.659733-12.023467 22.237867-54.289067-1.8176-47.104-12.535467 3.746133-9.224533 24.021333-16.759467 32.648533-20.206933 23.1424-72.029867 11.3664-72.2688-18.5088-0.145067-17.544533 21.2224-15.982933 35.2768-26.717866 18.7392-14.3104 33.3312-39.304533 14.481067-59.921067-21.4016-23.406933-89.924267-24.814933-115.319467-7.9872-43.272533 28.689067-4.096 78.3104 36.846933 80.290133z" fill="#F9EFDB" p-id="8524"></path><path d="M165.6832 593.595733l12.347733 12.347734c-9.821867 0.733867-16.221867-5.1456-26.5984-4.138667-9.668267 0.930133-35.8912 10.692267-42.513066 17.3568-4.8128 4.8384-19.703467 29.166933-23.338667 36.352-5.896533 11.665067-10.069333 26.632533-14.626133 39.074133 2.500267 11.118933 2.432 26.018133 4.8384 36.258134 2.653867 11.306667 21.589333 39.185067 30.097066 48.119466 8.618667 9.053867 21.051733 13.764267 33.1008 16.290134 24.328533 5.102933 53.3504 4.1472 78.165334 0.059733 10.615467-1.749333 36.445867-18.1248 43.2896-26.692267 23.552-36.923733 27.776-76.740267 10.299733-117.4784-3.4048-7.944533-10.88-12.322133-10.376533-20.497066 13.2608 0.708267 31.163733 10.692267 41.1648 12.347733-8.8832 2.440533 0.324267 11.9296 2.065066 16.4608 20.599467 53.5808 8.490667 107.716267-36.974933 144.1536-10.129067 8.123733-44.893867 22.903467-57.770667 24.5504-20.6848 2.645333-48.9984-1.365333-69.8368-4.1216-12.817067-1.6896-27.9552-10.965333-39.176533 4.189867-2.653867-2.8672-8.4992-5.486933-12.433067-10.222934-27.3664-32.989867-60.817067-103.227733-57.5488-146.2016 2.816-37.077333 37.794133-68.718933 72.823467-77.422933 24.610133-6.1184 39.5776-1.518933 63.018667-0.785067z" fill="#F9E3CB" p-id="8525"></path><path d="M993.066667 680.0384c0.913067 39.031467-28.7232 103.543467-53.435734 133.998933-2.696533 3.319467-7.074133 4.539733-8.311466 5.956267-3.012267-9.693867-9.659733-8.917333-17.783467-7.534933-17.877333 3.0464-39.5008 16.213333-59.246933 19.012266-27.127467 3.84-69.333333-5.888-91.639467-21.8624-45.064533-32.273067-71.722667-106.692267-43.178667-158.2336 3.310933-5.981867 12.910933-9.0368-2.2016-8.379733 0.256-0.042667 0.930133-2.7648 3.080534-3.2256 11.170133-2.372267 26.8032-4.206933 33.962666-13.243733 2.6368 1.339733 5.5552 3.2256 8.234667 4.113066 2.705067 10.760533-6.084267 7.3728-10.333867 12.2112-3.575467 4.078933-17.390933 34.8928-17.7408 39.918934-0.290133 4.206933 3.208533 7.620267 3.217067 11.6736 0 3.857067-3.4304 7.313067-3.131733 11.605333 0.426667 5.981867 3.3792 21.640533 5.137066 27.707733 2.116267 7.3216 19.780267 39.560533 24.951467 45.0304 10.5216 11.101867 44.0576 24.32 59.537067 26.8032 4.292267 0.6912 7.3216-2.030933 10.2912-1.826133 4.846933 0.341333 8.576 3.626667 12.680533 4.0192 3.345067 0.315733 59.9552-14.9248 64.878933-17.365333 28.3136-14.037333 47.709867-66.048 43.912534-95.906134-2.4576-19.310933-23.338667-55.970133-35.012267-71.995733-12.125867-16.648533-32.017067-12.4416-43.118933-28.919467 26.257067-0.896 60.177067 3.012267 82.218666 18.628267 18.4576 13.0816 32.520533 45.610667 33.041067 67.8144z" fill="#F9E4CD" p-id="8526"></path><path d="M293.290667 605.943467c1.8944-1.928533 11.665067-13.9264 11.938133-14.839467 6.8096-22.434133-36.352-36.7616-53.102933-38.673067-10.3168-17.595733 1.083733-44.9024 12.270933-59.767466 56.0128-74.4704 172.612267-5.802667 132.6848 79.172266-17.211733 36.6336-68.258133 55.586133-103.790933 34.107734z m82.321066-69.9904c-3.566933-9.736533-15.8976-8.635733-24.593066-14.498134-13.354667-8.9856-19.5072-27.502933-20.693334-43.118933l-16.375466 30.9504-33.006934 24.618667 28.910934 16.366933 18.432 30.967467c1.348267 0.597333 8.3456-18.312533 10.8544-22.0672 8.234667-12.330667 21.8624-20.445867 36.48-23.2192z" fill="#522F27" p-id="8527"></path><path d="M770.7904 552.430933c-21.5296 1.160533-52.0448 9.659733-60.8 30.882134-0.0256 2.653867 12.817067 24.661333 15.522133 26.752-21.239467 6.178133-48.938667 7.3472-68.8128-3.2256-16.4608-8.746667-29.678933-24.379733-36.292266-41.915734-6.289067-16.657067-6.382933-33.8176-1.1776-50.858666 6.570667-21.504 33.092267-47.598933 55.6288-51.396267 60.578133-10.222933 100.898133 29.815467 95.940266 89.762133z m-32.9216-24.695466c-15.470933 1.288533-34.1504-15.189333-39.296-28.637867-2.730667-7.150933-0.0256-18.210133-10.103467-20.7616-4.736 21.410133-9.847467 35.7632-29.013333 47.146667-5.5296 3.285333-14.882133 2.1504-16.273067 10.4704l30.967467 16.375466 18.414933 33.024c5.1968-28.433067 17.476267-38.8864 42.845867-49.399466 4.718933-1.954133 2.372267-4.539733 2.4576-8.2176z" fill="#512E26" p-id="8528"></path><path d="M877.815467 288.981333c-7.074133 1.6896-8.183467-2.705067-12.347734-6.178133-19.677867-16.375467-38.954667-39.671467-59.613866-55.645867-16.469333-12.731733-35.370667-22.536533-53.085867-33.3568-11.485867-7.0144-7.458133-12.040533-0.520533-20.104533 18.184533-21.154133 63.138133-70.570667 92.740266-55.645867 22.690133 20.189867 25.6 53.341867 29.4144 81.732267 0.324267 2.4064 3.421867 3.899733 3.421867 4.8128v84.386133z" fill="#F7C8B8" p-id="8529"></path><path d="M145.1008 221.064533c0.0512-0.708267 3.746133-3.643733 4.1728-8.174933 3.328-35.7376 0.290133-83.703467 39.688533-100.369067 19.259733-2.986667 69.486933 45.568 81.7152 61.184 3.0208 3.857067 5.2736 3.6352 6.254934 10.2912 1.297067 8.823467-2.858667 4.957867-5.461334 6.920534-22.4 16.827733-49.5616 30.574933-70.877866 48.597333-16.4096 13.8752-30.882133 33.066667-47.2576 47.428267-2.158933 4.224-8.234667-3.669333-8.234667-4.130134 0-19.959467-1.476267-42.2144 0-61.7472z" fill="#F9C9B7" p-id="8530"></path><path d="M182.144 593.595733c-0.4096 9.5488 1.8176 15.8976 4.113067 24.695467-6.946133 5.111467-13.090133-1.373867-21.947734 0.503467-11.818667 2.500267-39.893333 20.667733-48.1024 30.293333-34.884267 40.917333-22.621867 100.625067 26.018134 122.3168 25.642667 11.434667 39.697067 5.828267 66.090666 2.730667 32.861867-21.4784 51.831467-42.555733 48.093867-83.976534-2.312533-25.591467-13.090133-45.329067-37.2224-55.3984 14.011733 3.6864 29.192533-4.753067 41.1648-4.113066-0.503467 8.174933 6.971733 12.552533 10.376533 20.497066 17.476267 40.738133 13.252267 80.554667-10.299733 117.4784-6.843733 8.558933-32.674133 24.942933-43.2896 26.692267-24.814933 4.087467-53.828267 5.0432-78.165333-0.059733-12.049067-2.525867-24.482133-7.2448-33.1008-16.290134-8.507733-8.9344-27.434667-36.8128-30.097067-48.119466-2.4064-10.24-2.338133-25.1392-4.8384-36.258134 4.5568-12.4416 8.7296-27.409067 14.626133-39.074133 3.6352-7.185067 18.525867-31.5136 23.338667-36.352 6.6304-6.664533 32.853333-16.426667 42.513067-17.3568 10.376533-0.9984 16.776533 4.881067 26.5984 4.138667l-12.347734-12.347734c5.4784 0.170667 10.990933-0.110933 16.469334 0z" fill="#F9D8BB" p-id="8531"></path><path d="M877.815467 593.595733c11.093333 16.477867 30.984533 12.270933 43.118933 28.919467 11.6736 16.0256 32.554667 52.6848 35.012267 71.995733 3.805867 29.858133-15.5904 81.8688-43.912534 95.906134-4.9152 2.440533-61.533867 17.681067-64.878933 17.365333-4.104533-0.384-7.8336-3.677867-12.680533-4.0192-2.9696-0.2048-5.998933 2.517333-10.2912 1.826133-15.479467-2.4832-49.015467-15.6928-59.537067-26.8032-5.179733-5.461333-22.8352-37.700267-24.951467-45.0304-1.749333-6.0672-4.7104-21.725867-5.137066-27.707733-0.3072-4.292267 3.140267-7.748267 3.131733-11.605333 0-4.053333-3.5072-7.466667-3.217067-11.6736 0.349867-5.034667 14.165333-35.848533 17.7408-39.918934 4.2496-4.8384 13.038933-1.450667 10.333867-12.2112 4.821333 1.595733 11.537067 3.584 16.469333 4.113067 6.929067 8.738133 0.1536 8.772267-4.155733 14.378667-23.773867 31.010133-23.867733 82.133333 4.010667 111.3088 8.413867 8.8064 40.354133 24.849067 52.360533 25.796266 4.437333 0.349867 7.944533-3.012267 11.6736-3.165866 28.8768-1.2032 51.976533-3.2 74.154667-24.6784 14.404267-13.952 17.7664-64.750933 13.576533-83.8656-4.360533-19.9168-50.7392-64.5888-71.338667-64.469334-6.6816 0.042667-17.3312 7.389867-26.7776 4.104534 2.9696-6.434133 4.206933-8.866133 4.113067-16.469334 14.2592-1.604267 26.5472-3.618133 41.1648-4.113066z" fill="#F9DABF" p-id="8532"></path><path d="M658.3808 347.409067c21.239467-3.652267 49.024 0.119467 59.784533 20.957866 8.618667 16.708267 8.302933 29.303467-1.416533 45.6448-28.219733 47.453867-124.9536 54.4512-114.730667-20.053333 2.858667-20.8384 36.736-43.178667 56.362667-46.549333zM333.2096 347.426133c30.3104-5.341867 64.3072 11.3152 81.399467 36.343467 18.5088 27.101867-2.525867 61.832533-32.878934 65.672533-45.0048 5.700267-107.2128-41.156267-73.915733-86.254933 6.289067-8.516267 14.907733-13.917867 25.3952-15.761067z" fill="#F8EEDB" p-id="8533"></path><path d="M770.7904 552.430933c17.792-0.964267 30.2848-0.238933 45.175467 10.3936 11.690667 8.354133 20.514133 19.9936 20.6848 34.884267 0.093867 7.6032-1.143467 10.026667-4.113067 16.469333-2.2272 4.821333-6.289067 7.586133-8.234667 12.347734-1.0752-0.256-18.551467 6.638933-20.5824 8.234666-8.055467-0.571733-16.810667 0.861867-24.695466 0-4.923733-0.5376-11.648-2.517333-16.469334-4.113066-2.679467-0.887467-5.597867-2.773333-8.234666-4.113067-9.838933-5.000533-12.757333-8.379733-20.701867-14.455467-3.0464-2.3296-7.3984-1.467733-8.106667-2.013866-2.705067-2.090667-15.547733-24.098133-15.522133-26.752 8.7552-21.2224 39.2704-29.713067 60.8-30.882134z m-41.045333 40.9856c27.707733 12.381867 71.261867 46.472533 89.984 5.717334-9.9072-38.468267-60.680533-36.8128-88.209067-18.056534l-1.774933 12.3392z" fill="#46B4DD" p-id="8534"></path><path d="M252.125867 552.430933c16.750933 1.911467 59.912533 16.247467 53.102933 38.673067-0.273067 0.913067-10.043733 12.910933-11.938133 14.839467-5.7856 5.879467-32.264533 21.0944-32.930134 24.695466-11.972267-0.64-27.153067 7.799467-41.1648 4.113067-2.730667-1.143467-8.925867-0.1792-15.266133-3.2256-7.364267-3.541333-10.6496-10.1376-17.664-13.2352-2.295467-8.797867-4.522667-15.146667-4.113067-24.695467 1.3568-32.042667 42.376533-44.322133 69.981867-41.1648z m-21.845334 17.262934c-51.1232 8.874667-35.456 60.962133 13.806934 46.7456 6.519467-1.885867 45.0816-24.4224 45.064533-29.013334-14.1568-16.315733-37.947733-21.358933-58.871467-17.723733z" fill="#46B1D7" p-id="8535"></path><path d="M231.534933 330.146133c0.5888 10.845867-6.954667 19.259733-3.626666 30.404267 1.732267 5.802667 25.890133 21.742933 20.096 27.221333l-32.2048 4.872534-15.1296 32.1792c-13.115733-22.016-7.6544-32.9216-34.858667-43.349334-4.608-1.7664-11.170133-0.418133-12.475733-3.976533 10.299733-10.683733 27.844267-11.8016 29.0304-28.962133 0.5376-7.842133-6.050133-14.2848-4.334934-22.493867 12.219733-1.220267 15.803733 15.837867 26.752 16.7168 11.050667 0.878933 18.107733-7.7568 26.743467-12.603733z" fill="#F7F1E1" p-id="8536"></path><path d="M840.763733 326.033067l-3.5584 26.069333c3.285333 14.958933 18.5856 15.0272 24.149334 27.426133-13.021867 1.297067-28.168533 9.361067-34.952534 20.625067-4.616533 7.671467-2.133333 23.509333-14.4384 20.5568 0.853333-12.032-5.802667-21.290667-14.250666-28.987733l-31.0272-10.120534c22.9632-13.7984 30.984533-26.555733 16.4608-51.447466 12.612267-0.699733 18.722133 13.610667 30.890666 12.5696 11.050667-0.938667 14.4128-17.851733 26.734934-16.6912z" fill="#F6EEDC" p-id="8537"></path><path d="M169.796267 470.1184c-7.0912 10.3168-20.795733 12.458667-20.599467 28.808533-11.6992 3.191467-8.260267-9.582933-14.370133-16.503466-3.84-4.360533-10.948267-5.0432-14.429867-10.2656v-2.048c19.080533 2.423467 17.774933-13.824 26.760533-24.704 3.3792 3.9424 2.0224 8.576 5.998934 14.574933 3.2512 4.906667 10.487467 10.538667 16.64 10.129067z" fill="#F2EED9" p-id="8538"></path><path d="M869.589333 498.9184c-0.375467-14.7968-10.4448-19.0208-20.573866-26.752 3.396267-5.282133 10.615467-5.998933 14.421333-10.257067 4.6848-5.230933 3.165867-16.2816 10.248533-16.494933 0.631467 14.856533 10.2656 18.978133 20.573867 26.752-15.377067 6.4512-14.071467 18.730667-24.669867 26.752z" fill="#F0F0E0" p-id="8539"></path><path d="M494.890667 688.384c-40.951467-1.9712-80.119467-51.601067-36.846934-80.290133 25.3952-16.836267 93.909333-15.428267 115.319467 7.9872 18.850133 20.616533 4.258133 45.610667-14.481067 59.921066-14.0544 10.734933-35.413333 9.173333-35.2768 26.717867 0.238933 29.8752 52.061867 41.6512 72.2688 18.5088 7.534933-8.6272 4.224-28.9024 16.759467-32.648533 24.046933-7.185067 11.4688 35.080533 1.8176 47.104-19.438933 24.209067-54.144 28.407467-81.2288 15.214933-6.263467-3.054933-23.517867-18.440533-27.613867-17.237333-30.1824 31.616-77.056 33.792-103.1168-4.343467-8.686933-12.706133-11.886933-46.583467 8.1152-41.045333 6.212267 1.723733 6.826667 18.798933 10.8544 26.1888 19.498667 35.797333 83.370667 16.733867 73.437867-26.0864z" fill="#522E26" p-id="8540"></path><path d="M375.611733 535.953067c-14.6176 2.773333-28.2368 10.888533-36.48 23.2192-2.5088 3.754667-9.506133 22.664533-10.8544 22.0672l-18.432-30.967467-28.910933-16.366933 33.006933-24.618667 16.375467-30.9504c1.186133 15.616 7.338667 34.1248 20.693333 43.118933 8.704 5.853867 21.034667 4.753067 24.593067 14.498134zM737.8688 527.735467c-0.085333 3.677867 2.261333 6.254933-2.4576 8.2176-25.3696 10.5216-37.640533 20.9664-42.845867 49.399466l-18.414933-33.024-30.967467-16.375466c1.390933-8.32 10.743467-7.185067 16.273067-10.4704 19.165867-11.383467 24.277333-25.736533 29.013333-47.146667 10.069333 2.551467 7.364267 13.610667 10.103467 20.7616 5.1456 13.457067 23.825067 29.934933 39.296 28.637867z" fill="#F3EADB" p-id="8541"></path><path d="M186.2656 618.2912c7.0144 3.0976 10.299733 9.693867 17.664 13.2352 6.340267 3.054933 12.535467 2.090667 15.266133 3.2256 24.132267 10.069333 34.909867 29.806933 37.2224 55.3984 3.7376 41.4208-15.223467 62.498133-48.093866 83.976533-26.3936 3.106133-40.439467 8.704-66.090667-2.730666-48.64-21.6832-60.9024-81.390933-26.018133-122.3168 8.209067-9.6256 36.283733-27.793067 48.1024-30.293334 8.8576-1.877333 15.0016 4.608 21.947733-0.503466z m-6.203733 26.171733c-1.826133 0.034133-28.987733 7.7056-30.9248 8.738134-1.425067 0.750933-19.456 23.799467-19.925334 25.335466-12.945067 42.606933 18.005333 76.433067 62.557867 66.688 35.456-7.748267 42.683733-53.444267 23.3984-79.684266-7.765333-10.564267-21.640533-21.367467-35.106133-21.085867z" fill="#F9CAAB" p-id="8542"></path><path d="M779.016533 634.760533c7.893333 0.861867 16.64-0.571733 24.695467 0-5.794133 4.548267-22.357333 36.292267-24.029867 43.895467-4.983467 22.7072 0.0256 51.396267 17.6896 67.413333 1.877333 1.698133 24.004267 15.300267 25.4464 15.7184 7.0912 2.048 36.224 1.629867 44.023467-0.085333 9.326933-2.048 32.145067-16 37.6064-24.1408 26.624-39.697067-5.879467-91.502933-46.0288-106.0352-14.122667-5.111467-17.339733-1.553067-28.219733-0.8704-4.522667 0.2816-5.563733-4.036267-5.9136-4.1216 1.9456-4.7616 6.007467-7.5264 8.234666-12.347733 9.4464 3.285333 20.104533-4.0704 26.7776-4.104534 20.599467-0.119467 66.978133 44.552533 71.338667 64.469334 4.189867 19.1232 0.827733 69.922133-13.576533 83.8656-22.178133 21.4784-45.277867 23.4752-74.154667 24.6784-3.729067 0.1536-7.236267 3.515733-11.6736 3.165866-12.0064-0.938667-43.9552-16.989867-52.360533-25.796266-27.8784-29.184-27.784533-80.298667-4.010667-111.3088 4.3008-5.614933 11.0848-5.649067 4.155733-14.378667z" fill="#F9CFB0" p-id="8543"></path><path d="M803.720533 634.760533c2.030933-1.595733 19.5072-8.490667 20.5824-8.234666 0.349867 0.085333 1.390933 4.4032 5.9136 4.1216 10.871467-0.682667 14.097067-4.241067 28.219734 0.8704 40.149333 14.532267 72.6528 66.346667 46.0288 106.0352-5.461333 8.1408-28.279467 22.084267-37.6064 24.1408-7.799467 1.7152-36.9408 2.141867-44.023467 0.085333-1.4336-0.418133-23.569067-14.020267-25.4464-15.7184-17.664-16.008533-22.673067-44.706133-17.6896-67.413333 1.664-7.594667 18.235733-39.3472 24.029867-43.895467z m31.752534 17.015467c-48.631467 7.543467-45.218133 75.776-7.261867 88.157867 46.762667 15.249067 81.083733-27.707733 51.541333-68.010667-8.174933-11.153067-30.916267-22.212267-44.279466-20.1472z" fill="#F9C4A4" p-id="8544"></path><path d="M729.745067 593.416533l1.774933-12.3392c27.528533-18.756267 78.301867-20.411733 88.209067 18.056534-18.722133 40.7552-62.276267 6.656-89.984-5.717334z" fill="#CFE5EF" p-id="8545"></path><path d="M230.280533 569.693867c20.923733-3.626667 44.714667 1.416533 58.871467 17.723733 0.017067 4.590933-38.536533 27.136-45.064533 29.013333-49.271467 14.216533-64.930133-37.870933-13.806934-46.7456z" fill="#CCE5F1" p-id="8546"></path><path d="M180.061867 644.462933c13.4656-0.2816 27.332267 10.513067 35.106133 21.085867 19.285333 26.24 12.0576 71.927467-23.3984 79.684267-44.552533 9.736533-75.502933-24.081067-62.557867-66.688 0.469333-1.544533 18.500267-24.584533 19.925334-25.335467 1.937067-1.024 29.098667-8.695467 30.9248-8.738133z" fill="#FAB895" p-id="8547"></path><path d="M835.473067 651.776c13.3632-2.0736 36.104533 8.994133 44.279466 20.1472 29.5424 40.302933-4.778667 83.259733-51.541333 68.010667-37.956267-12.373333-41.361067-80.605867 7.261867-88.157867z" fill="#F9B996" p-id="8548"></path></svg>