<?xml version="1.0" standalone="no"?><!DOCTYPE svg PUBLIC "-//W3C//DTD SVG 1.1//EN" "http://www.w3.org/Graphics/SVG/1.1/DTD/svg11.dtd"><svg t="1772951649733" class="icon" viewBox="0 0 1024 1024" version="1.1" xmlns="http://www.w3.org/2000/svg" p-id="2627" xmlns:xlink="http://www.w3.org/1999/xlink" width="200" height="200"><path d="M895.177073 650.684665c2.727279-52.216377-39.994442-82.309611-89.356493-77.829082l-9.78263 0.313383-1.744781 2.566352c-6.68268 0.914739-13.577105 1.431398-20.175087 2.879736-12.289694 2.6934-19.209529 7.775285-28.822762 11.527411-36.928371 14.407146-79.192721 37.436559-118.069148 18.616642-11.383424-5.513846-19.785476-16.236625-29.076857-22.817668-29.864549-21.157585-55.460314-34.006286-93.676096-30.516724-62.117585 5.674773-90.982696 78.633714-156.979454 57.772572-22.563573-7.13158-45.499818-20.336013-68.359835-28.204466-41.375021-14.22928-104.754607-19.353515-128.969793 25.443308-3.675897 6.792787-4.853201 17.032787-10.206121 22.936245-5.081886-48.07464 2.202151-91.016576 15.770786-138.44751 6.623391-23.14799 25.036758-61.067328 27.391365-82.140216 3.599669-32.185277-1.914177-70.672093-0.059289-103.831397 2.193681-39.147461 16.422961-124.870405 39.113582-156.903226 9.7911-13.82273 20.539289-19.065542 37.521257-17.481688 21.979156 2.049694 74.458098 36.377833 93.438941 50.683342 8.90177 6.708089 31.931183 30.440496 39.452374 32.608768 12.188056 3.514971 30.389677-3.836824 42.874177-5.302101 53.757883-6.301538 107.541175-7.885393 161.315997 0 13.026567 1.914177 27.120331 6.877486 40.392522 8.783192 11.764566-7.334855 22.029975-18.658991 33.294823-27.459123 22.377237-17.481687 75.508354-55.578892 102.256013-59.161621 18.320199-2.456245 27.59464 1.981935 38.918776 15.753846 37.648304 45.787792 45.745443 183.820281 43.314607 242.321257-0.220215 5.251282-3.447213 9.33373-3.12536 14.161522 1.050256 15.991001 22.301009 61.651745 28.246815 81.530389 12.298164 41.103987 20.979719 83.453036 20.996659 126.267924l-5.886518 35.903524zM229.29757 327.832457c4.954839 1.185773 5.725591-1.897237 8.647675-4.319603 16.626237-13.831199 30.448966-31.245128 47.507163-44.737536 13.238313-10.468685 30.609892-19.014723 42.857238-29.212373 7.351795-6.123672 6.259189-7.241687 0.457369-13.992126-10.494094-12.204996-40.477221-42.365988-55.257038-45.626865-25.951497-5.734061-32.642647 18.371017-37.741473 39.138991-1.702432 6.928304-6.462465 26.197122-6.462465 31.007973v67.741539z m532.310603-137.888503c-11.933962 2.642581-45.254194 33.608205-53.85105 44.153118-3.040662 3.718246-4.46359 8.613797-8.579917 11.5867 15.347295 11.705277 32.456311 21.115236 47.6088 33.091546 16.558478 13.094326 30.423557 29.051447 46.067296 43.297668 7.775285 7.072291 11.976311 9.147395 13.051976-4.243375 2.041224-25.536476-2.498594-69.765823-9.426898-94.506137-5.446088-19.463623-10.180711-38.842548-34.861737-33.37952zM369.574559 377.313085c-32.015881 6.996063-31.18584 51.174591-5.835699 68.309016 21.665773 14.652771 58.280761 24.579388 74.525856-2.507064 22.614392-37.699123-33.582796-73.4756-68.690157-65.801952z m262.403176 0.084698c-30.897866 5.251282-60.737006 39.105112-37.970157 68.56311 20.327543 26.298759 82.987196 5.259752 87.857336-27.323606 4.980248-33.328701-19.726187-46.363739-49.887179-41.239504zM369.54068 475.257965c-15.59292 3.54885-15.12708 22.173962-21.979157 27.061042-8.114078 5.78488-33.794541 2.964433-37.190934 14.678181-5.014127 17.286882 9.977436 26.214061 19.539851 37.461968l-2.2445 31.007974c10.578792 20.649396 35.742597-3.286286 44.314045-3.277817 6.970653 0 21.36086 15.110141 37.123176 10.485625 13.78038-4.048569 5.369859-24.393052 4.590637-32.879802-1.084136-11.773036 25.189214-22.25866 19.912523-39.926683-4.090918-13.687213-29.110736-11.756096-37.207875-17.549446-7.597419-5.429148-8.647676-31.202779-26.866236-27.061042z m309.774822 28.085889c-5.607014-16.312854-20.46306-40.799074-37.910869-21.394739-4.616046 5.132705-7.241687 17.439338-11.341075 20.369892-11.11239 7.936212-42.357519 1.837949-37.165525 25.40096 2.23603 10.138362 17.668023 17.845889 19.429743 23.884863 2.998313 10.282349-4.810852 34.599173 6.047445 40.07067s26.942465-5.031067 36.547229-9.841919c12.569198 3.489562 22.588983 14.652771 36.682746 10.841357 13.382299-3.913052 4.853201-30.533664 7.919272-41.070108 1.448337-4.963309 12.967279-10.790538 15.635269-18.955434 8.46134-25.926088-17.837419-24.071199-35.844235-29.297072z" fill="#F6C07A" p-id="2628"></path><path d="M761.608173 189.943954c24.681026-5.463027 29.415649 13.915897 34.861737 33.37952 6.928304 24.740314 11.468122 68.969661 9.426899 94.506137-1.075666 13.390769-5.276691 11.324136-13.051977 4.243375-15.643739-14.23775-29.508817-30.203342-46.067296-43.297668-15.14402-11.976311-32.253036-21.394739-47.6088-33.091546 4.116328-2.972903 5.539256-7.868453 8.579917-11.5867 8.605327-10.536443 41.925558-41.510538 53.851051-44.153118z" fill="#F6C8B4" p-id="2629"></path><path d="M229.29757 327.832457v-67.741539c0-4.810852 4.760033-24.079669 6.462464-31.007973 5.098825-20.767974 11.789975-44.873052 37.741473-39.138991 14.771348 3.269347 44.762945 33.421869 55.257039 45.626865 5.80182 6.750438 6.894425 7.868453-0.45737 13.992126-12.247345 10.197651-29.610455 18.735219-42.857238 29.212373-17.058197 13.492407-30.880926 30.906336-47.507162 44.737536-2.922084 2.430835-3.692837 5.505376-8.647676 4.319603z" fill="#F6C8B2" p-id="2630"></path><path d="M369.574559 377.313085c35.107361-7.673648 91.296079 28.102829 68.690157 65.801952-16.245095 27.086452-52.860083 17.151365-74.525856 2.507064-25.341671-17.134425-26.180182-61.312953 5.835699-68.309016z" fill="#F5EDDB" p-id="2631"></path><path d="M631.977735 377.397783c30.160993-5.124235 54.858958 7.910802 49.887179 41.239504-4.861671 32.583358-67.521323 53.622366-87.857336 27.323606-22.766849-29.457998 7.072291-63.311828 37.970157-68.56311z" fill="#F5ECDA" p-id="2632"></path><path d="M369.54068 475.257965c18.210091-4.150207 19.268817 21.631894 26.866236 27.061042 8.097138 5.78488 33.125426 3.853763 37.207874 17.549446 5.276691 17.668023-20.996658 28.153648-19.912522 39.926683 0.779222 8.486749 9.189744 28.831232-4.590637 32.879802-15.762316 4.624516-30.152523-10.485624-37.123176-10.485625-8.571447 0-33.735252 23.935682-44.314045 3.277817l2.2445-31.007974c-9.562415-11.247907-24.562448-20.175087-19.539852-37.461968 3.396394-11.713747 29.076857-8.8933 37.190935-14.678181 6.852076-4.88708 6.377767-23.512192 21.979156-27.061042z m50.005756 48.599769c-12.9334-4.395831-27.467593-2.837386-35.954342-14.500315-4.497469-6.174491-5.505376-14.830637-11.612109-20.090388-8.800132 4.929429-11.205558 23.503722-18.684401 27.425244-5.530786 2.896675-28.94134 3.752126-28.865111 8.588387 3.735186 9.121985 16.973499 13.983656 19.743126 23.469843 3.006782 10.307758-3.040662 19.675368-2.464714 29.856079l30.26263-11.612109 30.26263 11.612109c1.880298-10.163772-5.454557-20.02263-2.515533-29.915368 1.804069-6.081323 18.904615-15.389644 19.810885-24.841952z" fill="#4D2D28" p-id="2633"></path><path d="M679.315502 503.343854c17.998346 5.225873 44.305575 3.370984 35.844235 29.297072-2.66799 8.164897-14.186931 13.992126-15.635269 18.955435-3.066071 10.536443 5.463027 37.157055-7.919272 41.070107-14.093763 3.802945-24.122018-7.351795-36.682746-10.841356-9.604764 4.810852-25.976907 15.169429-36.547229 9.841919s-3.040662-29.779851-6.047445-40.07067c-1.76172-6.038974-17.193714-13.746501-19.429743-23.884864-5.191993-23.554541 26.061605-17.456278 37.165525-25.400959 4.099388-2.930554 6.725029-15.237188 11.341075-20.369893 17.447808-19.404334 32.303854 5.081886 37.910869 21.39474z m5.429148 75.27967l-2.67646-29.881489c2.625641-5.471497 21.454028-18.413366 19.971811-23.427494-1.660083-5.623954-22.385707-5.200463-28.873581-8.605327-7.470372-3.921522-9.884268-22.495815-18.6844-27.425244l-18.692871 27.408305-28.865111 7.173928c13.738031 16.389082 21.572605 18.099983 20.115798 41.730753-0.313383 5.141175-6.208371 8.063259 1.524566 13.043507 4.065509 1.050256 19.251878-11.14627 25.985376-11.671398 11.12086-0.863921 19.404334 12.704715 30.194872 11.662928z" fill="#4A2B26" p-id="2634"></path><path d="M419.546436 523.857734c-0.914739 9.452308-18.006816 18.760629-19.810885 24.841952-2.939024 9.892738 4.395831 19.751596 2.515534 29.915368l-30.26263-11.612109-30.262631 11.612109c-0.575947-10.180711 5.471497-19.548321 2.464715-29.85608-2.769628-9.494657-16.00794-14.356328-19.743127-23.469842-0.076228-4.844731 23.334326-5.691712 28.865112-8.588388 7.470372-3.921522 9.884268-22.495815 18.6844-27.425244 6.098263 5.259752 7.11464 13.907428 11.61211 20.090389 8.486749 11.654458 23.020943 10.096013 35.954342 14.500314z" fill="#F7CA76" p-id="2635"></path><path d="M684.74465 578.623524c-10.790538 1.050256-19.074012-12.526849-30.194872-11.662928-6.733499 0.525128-21.919868 12.721654-25.985376 11.671397-7.741406-4.971778-1.846419-7.893863-1.524566-13.043507 1.456807-23.630769-6.377767-25.350141-20.115798-41.730752l28.865111-7.173929 18.692871-27.408305c8.800132 4.929429 11.205558 23.503722 18.6844 27.425244 6.496344 3.404864 27.213499 2.981373 28.873581 8.605327 1.482217 5.014127-17.34617 17.964467-19.971811 23.427494l2.67646 29.881489z" fill="#F8CA77" p-id="2636"></path><path d="M385.209828 893.200728c-0.609826 0.804632 0.228685 3.404864-0.821572 4.641456-2.888205 3.387924-22.360298 17.574855-27.264318 20.48-40.50263 24.02885-89.602117 17.600265-128.817336-5.767941-39.274508-23.402084-56.154839-55.451844-50.827329-101.815583 0.846981-7.385674 7.444963-18.997783 5.420679-25.671993-17.862829-19.980281-33.921588-43.221439-44.458032-68.029512-30.448966-71.68847-23.842514-151.931447-3.574259-225.635732 6.420116-23.342796 25.400959-60.97416 28.077419-81.462631 3.938462-30.127113-1.736311-69.325393-0.076228-100.968602 0.686055-13.018098 4.133267-30.025476 5.844168-43.16215 5.674773-43.687279 16.965029-119.365029 56.654558-145.121721 27.16268-17.625674 69.071299 2.735749 94.277452 17.346171 27.636989 16.02488 55.316328 38.097204 78.608305 59.746038 6.360827 2.363077 11.518941-1.592324 17.049727-2.456245 71.967974-11.230968 144.181572-11.417304 216.132605 2.922084 6.23378-0.796162 9.630174-7.953151 14.330918-11.713747 22.978594-18.404897 46.702531-37.097767 72.56086-51.386335 38.961125-21.538726 78.244103-36.631927 110.590307 3.828354 41.38349 51.775947 48.896212 188.902167 46.194342 253.848668-0.220215 5.251282-3.447213 9.33373-3.12536 14.161522 0.533598 8.046319 8.224185 18.828387 11.027692 26.68837 28.331514 79.497634 50.852738 159.876129 28.746535 243.701837-10.146832 38.469876-29.881489 75.466005-56.679967 104.813895-2.024285 6.68268 4.573697 18.294789 5.420678 25.671994 2.634111 22.902366 0.923209 49.099487-11.857734 68.715566-37.258693 57.162746-125.844433 74.940877-181.084532 31.982002-5.810289-4.514409-12.289694-14.856046-18.794508-15.804665-16.380612 0.474309-32.905211 6.487874-49.124897 8.673085-58.890587 7.944682-122.473449 5.734061-181.499553-2.888205-5.717122-0.838511-30.406617-8.698495-32.95603-5.33598zM139.932607 633.389313c0.542068 5.149644-0.770753 10.646551 0.067758 15.796196 6.428586 39.664119 24.223656 87.222101 54.698032 113.918941 5.607014-16.084169 13.771911-32.236096 23.071761-46.118114 18.650521-27.857204 56.180248-63.726849 89.356493-72.061142 12.111828-1.380579 22.114673-3.57426 34.590704-2.879735 35.031133 1.931117 62.414028 17.913648 80.259917 48.015352 33.506567 56.493631 15.889363 128.597122-16.829512 181.160761 2.125922 3.167709 3.845294 3.464152 7.190868 4.311133 53.461439 13.517816 141.14091 11.493532 195.957519 2.828916 8.757783-1.389049 18.362548-5.34445 27.442184-5.717121-9.308321-14.305509-18.625112-29.991596-24.545509-46.067296-20.242845-54.960596-20.192026-124.929694 28.822762-164.407477 18.599702-14.983093 52.953251-22.817667 76.440034-20.124268 3.58273 0.406551 17.761191 3.98928 23.063292 5.767941 34.150273 11.425773 62.227692 42.171183 83.597022 69.181406l21.614954 43.238378c23.546071-26.71378 48.565889-73.45019 50.446187-109.531579l5.886518-35.903524c-0.01694-42.806419-8.698495-85.163937-20.996658-126.267924-5.945806-19.878644-27.196559-65.539388-28.246816-81.530389-0.321853-4.827792 2.913615-8.91024 3.12536-14.161522 2.430835-58.500976-5.666303-196.533466-43.314607-242.321257-11.324136-13.771911-20.598577-18.210091-38.918776-15.753846-26.747659 3.58273-79.878776 41.688404-102.256013 59.161621-11.264847 8.800132-21.530256 20.132738-33.294822 27.459124-13.272192-1.905707-27.365955-6.877486-40.392523-8.783193-53.783292-7.893863-107.558114-6.310008-161.315997 0-12.4845 1.465277-30.686121 8.808602-42.874177 5.302101-7.529661-2.168271-30.550604-25.900678-39.452374-32.608768-18.980844-14.305509-71.459785-48.633648-93.438941-50.683341-16.981969-1.583854-27.730157 3.658958-37.521257 17.481687-22.69062 32.032821-36.919901 117.747295-39.113582 156.903226-1.863358 33.159305 3.658958 71.646121 0.059289 103.831398-2.354607 21.081356-20.767974 59.000695-27.391365 82.140215-13.577105 47.430935-20.852672 90.3644-15.770786 138.44751z m253.628453 49.082548c-8.817072-1.643143-14.932275-9.621704-22.961654-13.111265-9.189744-3.99775-19.370455-4.44665-28.882051-7.14852-2.905145 9.723342-5.488437 20.242845-9.274442 29.652804-4.666865 11.5867-11.408834 30.813168-23.961092 16.566948-5.496907-10.587262 9.697932-30.779289 13.043507-41.891679 0.618296-2.049694-2.252969-1.804069-4.353482-1.473747-55.22316 8.605327-113.52933 99.554144-119.525956 151.448668-5.78488 50.014227 34.116394 83.741009 79.811018 93.006981 4.073978 0.830041 19.734657 3.794475 22.317949 3.5912 2.922084-0.228685 5.725591-2.591762 8.834011-2.947494 16.617767-1.922647 22.800728-2.422366 37.987097-11.010753 50.73416-28.695715 84.198379-115.985575 69.45244-171.462829-2.075103-7.792225-6.564103-14.474905-8.046319-22.22478-9.164334 5.666303-19.497502 36.843672-30.254161 36.843672-1.948056 0-9.138925-4.319603-9.875798-6.818197-4.02316-13.661803 30.533664-48.997849 25.688933-53.012539z m305.599206-20.259785c-20.217436 4.065509-41.087047 7.57201-54.587924 24.51163 6.310008 8.986468 24.596328 34.175682 25.299322 43.788916 0.245624 3.328635-2.879735 5.911927-2.532473 9.426898l-14.449496-1.177303-22.902365-33.294822c-29.686683 59.864615 3.481092 150.381472 54.833548 188.74124 48.5066 36.233846 147.484797 7.749876 155.539587-54.74885 7.300976-56.629148-49.624615-150.05962-103.611183-170.141539-4.751563-1.77019-9.875798-1.118015-14.517254-4.209495-2.185211 13.390769 13.450058 31.202779 7.275566 43.323077-3.498031 6.869016-10.976873 6.199901-16.02488 1.456807-5.708652-5.36139-12.382862-38.131084-14.313978-47.659619z" fill="#4A2921" p-id="2637"></path><path d="M393.56106 682.471861c4.844731 4.02316-29.712093 39.350736-25.688933 53.012539 0.736873 2.507064 7.927742 6.818197 9.875798 6.818197 10.756658 0 21.089826-31.17737 30.254161-36.843672 1.482217 7.749876 5.979686 14.432556 8.046319 22.224781 14.745939 55.485724-18.71828 142.767113-69.45244 171.462828-15.186369 8.588387-21.36933 9.088106-37.987097 11.010753-3.10842 0.364202-5.911927 2.718809-8.834011 2.947494-2.583292 0.203275-18.24397-2.769628-22.317949-3.5912-45.686154-9.265972-85.587428-42.992754-79.811018-93.006981 5.996625-51.894524 64.302796-142.843342 119.525956-151.448668 2.100513-0.330323 4.971778-0.575947 4.353482 1.473747-3.345575 11.11239-18.540414 31.304417-13.043507 41.891679 12.543788 14.25469 19.294227-4.980248 23.961092-16.566948 3.786005-9.409959 6.369297-19.929462 9.274442-29.652804 9.511596 2.710339 19.692308 3.159239 28.882051 7.14852 8.02938 3.489562 14.144582 11.468122 22.961654 13.111265zM699.160266 662.212076c1.931117 9.528536 8.605327 42.29823 14.313978 47.65962 5.048007 4.743093 12.526849 5.412208 16.024881-1.456808 6.182961-12.120298-9.452308-29.932308-7.275567-43.323077 4.649926 3.091481 9.765691 2.439305 14.517254 4.209496 53.986567 20.081919 110.912159 113.51239 103.611183 170.141538-8.054789 62.498726-107.032986 90.982696-155.539587 54.748851-51.352457-38.351299-84.520232-128.876625-54.833548-188.741241l22.902365 33.294822 14.449496 1.177304c-0.347262-3.514971 2.778098-6.098263 2.532473-9.426899-0.702994-9.604764-18.989313-34.793978-25.299322-43.788916 13.500877-16.93962 34.370488-20.437651 54.587924-24.51163z" fill="#F7EFDC" p-id="2638"></path><path d="M745.27838 590.150935l2.803507 1.626203-2.803507 12.789413c-7.267097 4.251844-16.00794 21.598015-20.751034 29.754442-2.549413 4.378892-0.575947 9.33373-8.080198 7.724466-23.486782-2.6934-57.840331 5.149644-76.440033 20.124268-49.014789 39.477783-49.057138 109.446882-28.822763 164.407477 5.920397 16.075699 15.237188 31.761787 24.545509 46.067296-9.079636 0.364202-18.6844 4.328073-27.442184 5.717121-54.816609 8.664615-142.496079 10.6889-195.957519-2.828916-3.345575-0.846981-5.056476-1.143424-7.190868-4.311133 32.718875-52.55517 50.336079-124.65866 16.829512-181.160761-17.854359-30.101704-45.228784-46.084235-80.259917-48.015352-0.313383-10.197651 7.385674-18.582763 5.76794-28.822763 65.996758 20.861141 94.861869-52.0978 156.979454-57.772572 38.215782-3.489562 63.811547 9.35914 93.676096 30.516725 9.282911 6.581042 17.693433 17.303821 29.076857 22.817667 38.867957 18.819917 81.140778-4.209495 118.069148-18.616642z m-245.844698-10.917585c-24.960529 3.523441-48.642117 23.817105-33.39646 49.463689 25.782101 43.348486 99.571084 34.30273 109.218197-16.956559-8.215715-32.981439-47.075203-36.564169-75.821737-32.5156z m105.08493 60.432093c-1.067196 1.033317-1.168834 4.632986-3.243937 6.733498-6.293069 6.369297-13.37383 10.621141-22.29254 12.382862-31.507692 6.21684-74.36493 4.649926-106.160595 0.601357-11.053102-1.405988-22.817667-0.474309-33.015319-7.334856-8.757783-5.894988-8.994938-19.192589-21.403209-15.474342-20.818792 6.22531 9.78263 40.08761 24.130488 37.258693 0.211745 31.736377 4.031629 67.334988 12.958809 98.012639 9.587825 32.93909 31.295947 72.654028 71.586832 65.657965 36.445591-6.326948 52.207907-53.605426 58.983755-85.146998 3.709777-17.244533 4.345012-33.989347 6.479405-51.17459 1.058726-8.546038 4.768503-17.329231 2.998312-27.264318 14.23775-1.998875 37.334921-25.561886 20.03957-36.335484-2.2445-2.23603-9.841919 0.8978-11.070041 2.083574z" fill="#F7EDDB" p-id="2639"></path><path d="M347.485295 613.214227c1.626203 10.24-6.081323 18.625112-5.76794 28.822762-12.4845-0.686055-22.478875 1.507626-34.590704 2.879736L295.59924 633.389313c0.45737-0.584417-0.330323-2.583292 0.550538-3.853763 3.845294-5.522316 18.862266-27.476063 6.547163-30.694591-4.590637-1.202713-8.190306 2.828916-9.977436 2.845857-3.633548 0.025409-12.02713-3.083011-20.175087-2.879736-0.957089 0.025409-1.939586-0.084698-2.879735 0l-1.812539-2.422365c-13.81426-5.522316-18.642051-1.007907-29.889959 2.422365-2.151332 0.660645-6.259189-0.702994-9.604764 0.398081-4.819322 1.583854-23.783226 28.382333-24.697966 33.269413-0.90627 4.836261 2.769628 8.715434 2.591762 9.570885-0.067758 0.347262-3.12536 1.897237-4.387361 5.615484-1.609264 4.734624-6.885955 17.79507-6.597982 21.216873 0.694524 8.215715 11.917022 32.761224 16.609297 40.612738 1.829479 3.057601 7.893863-0.127047 5.903457 7.495782-9.291381 13.882018-17.464748 30.033945-23.071761 46.118114-30.474376-26.69684-48.269446-74.254822-54.698032-113.918941-0.838511-5.158114 0.482779-10.655021-0.067758-15.796196 5.35292-5.903457 6.538693-16.143457 10.20612-22.936244 24.215186-44.796824 87.594773-39.672589 128.969794-25.443309 22.868486 7.868453 45.804731 21.072887 68.359834 28.204467z" fill="#F7DBC1" p-id="2640"></path><path d="M895.177073 650.684665c-1.888768 36.08139-26.900116 82.8178-50.446187 109.53158l-21.614954-43.238379c19.937932-15.499752 31.770256-32.727345 28.763474-59.026104-1.609264-14.059884-17.35464-38.164963-25.875269-50.513946-5.564665-8.063259-5.725591-3.929992-11.527411-5.76794-4.090918-1.295881-6.538693-5.844169-10.485625-8.258065-10.417866-6.369297-23.469843-4.734624-29.873019-14.805227 6.597982-1.448337 13.500877-1.973466 20.175087-2.879735 5.081886-0.694524 10.900645-2.828916 11.527411-2.879736 49.362051-4.47206 92.092242 25.612705 89.356493 77.829082z" fill="#F6E5CE" p-id="2641"></path><path d="M774.109613 578.623524c6.394706 10.070604 19.446683 8.435931 29.873019 14.805227 3.946931 2.413896 6.394706 6.962184 10.485624 8.258065-4.819322 8.249595-25.494127 26.535914-22.843077 35.683308 1.812539 6.259189 9.630174 9.935087 15.736907 4.776973 6.140612-5.191993 18.557353-25.782101 18.633581-34.692341 8.520629 12.348983 24.266005 36.454061 25.875269 50.513945 3.006782 26.298759-8.825542 43.526352-28.763474 59.026105-21.36933-27.010223-49.446749-57.764103-83.597022-69.181406 4.658395-14.856046 30.076294-31.346766 15.753846-46.075766-3.642018-0.965558-7.029942 1.101075-9.985906 2.837387l2.803507-12.789413-2.803507-1.626204c9.621704-3.752126 16.533069-8.834012 28.822763-11.527411z m7.495781 23.359735c-5.632423 1.660083-35.395335 36.08139-20.369892 42.840298 3.684367 0.584417 6.66574 0.482779 10.070604-1.253532 3.514971-1.7956 21.538726-25.612705 22.622861-29.263193 2.769628-9.376079-3.218528-15.008503-12.323573-12.323573z" fill="#F8C5A5" p-id="2642"></path><path d="M269.647743 598.79861c-2.151332 0.194806-4.539818-0.516658-6.733499 0.364202-11.696807 10.66349-27.59464 25.519537-24.867361 42.77254l9.604764 2.786567c8.88483-7.300976 17.202184-16.389082 22.555104-26.612142 4.107858-7.851514 6.106733-10.392457 2.320728-19.302697 8.147957-0.194806 16.550008 2.905145 20.175086 2.879736-7.021472 10.951464-29.009098 27.62005-15.753846 40.248536 5.844169 2.125922 15.245658-4.167146 18.633582-8.546039l11.527411 11.527412c-33.176245 8.342763-70.714442 44.203937-89.356493 72.061141 1.990405-7.631299-4.073978-4.43818-5.903458-7.495782-4.692275-7.851514-15.914773-32.397022-16.609296-40.612737-0.287974-3.421803 4.980248-16.48225 6.597981-21.216874 1.270471-3.726716 4.319603-5.268222 4.387362-5.615484 5.513846-0.304913 11.273317 1.888768 15.889363-2.854326 2.820447-2.896675 16.287444-22.428056 17.422399-25.80751 1.964996-5.886518 2.007345-9.418428-1.600794-14.576543 11.256377-3.438743 16.075699-7.944682 29.889958-2.422365l1.812539 2.422365z" fill="#F8C2A0" p-id="2643"></path><path d="M739.51891 647.80493c-5.302101-1.77019-19.480562-5.35292-23.063292-5.767941 7.495782 1.609264 5.530786-3.337105 8.080198-7.724466 4.743093-8.156427 13.483937-25.502597 20.751034-29.754442 2.955964-1.727841 6.343888-3.794475 9.985906-2.837386 14.330918 14.728999-11.086981 31.219719-15.753846 46.075765z" fill="#F4A37F" p-id="2644"></path><path d="M805.812111 572.855583c-0.626766 0.059289-6.445525 2.185211-11.527412 2.879735l1.744781-2.566352 9.782631-0.313383z" fill="#F8C5A5" p-id="2645"></path><path d="M604.518612 639.665443c1.228122-1.185773 8.825542-4.319603 11.070041-2.083574 17.295352 10.765128-5.80182 34.336609-20.03957 36.335484 1.77019 9.935087-1.939586 18.71828-2.998312 27.264318-2.134392 17.185244-2.769628 33.930058-6.479405 51.17459-6.784318 31.541572-22.538164 78.82005-58.983755 85.146998-40.290885 6.987593-61.999007-32.727345-71.586832-65.657965-8.927179-30.677651-12.755533-66.276261-12.958809-98.012639-14.347858 2.828916-44.94928-31.033383-24.130488-37.258693 12.408271-3.709777 12.645426 9.587825 21.403209 15.474342 10.197651 6.860546 21.970687 5.928867 33.015319 7.334856 31.795666 4.057039 74.644433 5.615484 106.160595-0.601357 8.91871-1.76172 15.999471-6.013565 22.292539-12.382862 2.075103-2.100513 2.176741-5.708652 3.243938-6.733498z m-38.063325 100.494292c-18.455715-7.224748-35.937403-13.602514-56.222598-11.764565l-41.773101 13.289131c5.242812 19.59914 15.787725 64.971911 37.428089 72.018792 39.969032 13.001158 57.916559-43.602581 60.56761-73.534888z" fill="#4F2D25" p-id="2646"></path><path d="M499.433682 579.23335c28.746534-4.057039 67.614491-0.474309 75.821737 32.5156-9.647113 51.250819-83.444566 60.305045-109.218197 16.956559-15.254127-25.646584 8.435931-45.940248 33.39646-49.463689z" fill="#4E2E25" p-id="2647"></path><path d="M269.647743 598.79861c0.948619-0.084698 1.931117 0.025409 2.879736 0 3.794475 8.91024 1.7956 11.459653-2.320728 19.302697-5.35292 10.214591-13.670273 19.311166-22.555104 26.612142l-9.604764-2.786567c-2.727279-17.253002 13.170554-32.109049 24.867361-42.77254 2.185211-0.88086 4.582167-0.169396 6.733499-0.364201z" fill="#F49B75" p-id="2648"></path><path d="M237.945245 598.79861c3.599669 5.158114 3.56579 8.690025 1.600794 14.576543-1.134955 3.379454-14.601952 22.910835-17.422398 25.80751-4.616046 4.743093-10.367047 2.549413-15.889363 2.854326 0.177866-0.855451-3.506501-4.734624-2.591762-9.570885 0.914739-4.88708 19.878644-31.685558 24.697965-33.269413 3.345575-1.101075 7.461902 0.262564 9.604764-0.398081z" fill="#F5A17D" p-id="2649"></path><path d="M295.590771 633.389313c-3.387924 4.378892-12.789413 10.67196-18.633582 8.546039-13.263722-12.628486 8.732374-29.305542 15.753846-40.248536 1.78713-0.00847 5.386799-4.048569 9.977436-2.845857 12.315103 3.226998-2.701869 25.172275-6.547163 30.694591-0.88933 1.270471-0.093168 3.269347-0.550537 3.853763z" fill="#F4A27A" p-id="2650"></path><path d="M825.995667 607.446286c-0.076228 8.91024-12.501439 29.500347-18.633581 34.692341-6.106733 5.166584-13.924367 1.490687-15.736907-4.776973-2.65105-9.147395 18.023755-27.433714 22.843077-35.683308 5.80182 1.837949 5.962746-2.303788 11.527411 5.76794z" fill="#F4A07C" p-id="2651"></path><path d="M781.605394 601.983259c9.105045-2.68493 15.093201 2.947494 12.323573 12.323573-1.075666 3.650488-19.107891 27.467593-22.622861 29.263193-3.404864 1.736311-6.386237 1.837949-10.070604 1.253532-15.025443-6.758908 14.737469-41.180215 20.369892-42.840298z" fill="#F49A76" p-id="2652"></path><path d="M566.455287 740.159735c-2.65105 29.932308-20.607047 86.544516-60.56761 73.534889-21.640364-7.038412-32.185277-52.419653-37.428089-72.018793l41.773101-13.289131c20.285194-1.837949 37.766882 4.539818 56.222598 11.764566z" fill="#F5A98E" p-id="2653"></path><path d="M922.695485 392.736609c5.090356-5.149644 10.036725-49.607676 22.080794-22.648272 6.869016 15.381175 2.295318 19.861704 21.462498 27.535352 5.285161 2.117452 14.288569-0.304913 14.534194 8.512159-8.673085 9.994376-24.833482 4.785443-31.17737 17.828949-2.22756 4.582167-5.522316 26.417337-13.483937 23.969562-6.310008-1.939586-8.131017-21.869049-12.831762-27.535352-5.395269-6.504814-26.806948-7.436493-28.975219-14.271629-2.896675-9.147395 24.765724-9.731811 28.390802-13.399239z m26.374988 9.096575l-12.764004-5.708651-7.351794 7.360264 0.084698 2.354607 9.926617 10.392457 10.104483-14.398677z" fill="#F8C461" p-id="2654"></path><path d="M90.045427 387.409098l8.512159 24.655617c4.192556 5.048007 17.498627 7.046882 24.426931 9.952026 2.879735 1.211183 2.252969 5.124235 1.660083 7.182399-1.634673 5.674773-11.086981 3.684367-15.347295 4.827791-6.784318 1.821009-12.509909 7.241687-15.025443 13.80579-4.175616 10.883706 0.474309 20.751034-15.652208 17.337701-2.202151-24.892771-8.834012-23.867924-27.62852-31.490753-22.936245-9.299851 14.474905-15.042382 18.913086-18.870736 9.079636-7.826104 3.921522-30.186402 20.141207-27.408304z m-6.928304 31.914244c-10.358577 3.10842-8.105608 15.830074 2.430835 17.024317l10.25694-10.019785c-3.633548-3.523441-6.555633-8.850951-12.687775-7.004532z" fill="#F7C35C" p-id="2655"></path><path d="M32.391432 557.482878c0.694524 18.277849 12.45062 17.769661 23.054822 27.391365-3.599669 6.360827-13.246782 5.556195-17.413928 8.512159-3.794475 2.6934-4.785443 21.216873-12.831762 18.870736-7.614359-8.91024-3.57426-16.118048-15.813135-21.691183-5.488437-2.498594-11.451183 1.084136-8.690025-8.562977 1.727841-6.022035 16.422961-1.837949 19.700778-12.010191 2.371547-7.368734-0.965558-14.212341 11.99325-12.501439z" fill="#FAC25A" p-id="2656"></path><path d="M1007.037851 505.291911c2.066634 1.626203 14.22928 1.118015 16.965029 7.521191-3.726716 7.14005-13.323011 6.326948-17.439339 11.366484-3.718246 4.556758-3.167709 12.399801-9.926617 15.999471-9.621704-10.595732-9.105045-22.368768-27.382895-23.054822-1.736311-11.103921 15.974061-9.765691 18.913086-14.23775 2.761158-4.209495 0.160926-13.594045 8.478279-17.456278 7.165459 2.312258 8.554508 18.404897 10.400927 19.853234z" fill="#F8BD58" p-id="2657"></path><path d="M949.070473 401.833184l-10.104483 14.398677-9.918147-10.392457-0.093168-2.354607 7.360264-7.360264 12.755534 5.708651z" fill="#F1E8D0" p-id="2658"></path><path d="M493.547164 125.192258l-0.076228 11.273317-22.995534 7.284036c-7.741406 8.994938-5.607014 23.13105-15.770785 30.338859-9.037287-6.631861-7.732936-18.845327-13.433119-28.348453L415.785841 136.618031l2.795037-10.172241c25.121456-2.092043 27.764036-13.687213 31.804136-35.945873l10.172241 2.795038c3.210058 20.573168 11.078511 31.456873 32.981439 31.897303z m-38.842547-3.006782l-10.121423 10.121422 10.121423 10.121423 10.121422-10.121423-10.121422-10.121422z" fill="#F8C259" p-id="2659"></path><path d="M444.589123 132.304357l10.121423-10.121422 10.121422 10.121422-10.121422 10.121423z" fill="#F1E0BB" p-id="2660"></path><path d="M83.117123 419.323342c6.132142-1.846419 9.054227 3.481092 12.687775 7.004532L85.547958 436.347659c-10.536443-1.194243-12.789413-13.915897-2.430835-17.024317z" fill="#F0DFB6" p-id="2661"></path></svg>