<?xml version="1.0" standalone="no"?><!DOCTYPE svg PUBLIC "-//W3C//DTD SVG 1.1//EN" "http://www.w3.org/Graphics/SVG/1.1/DTD/svg11.dtd"><svg t="1772951578866" class="icon" viewBox="0 0 1024 1024" version="1.1" xmlns="http://www.w3.org/2000/svg" p-id="5423" xmlns:xlink="http://www.w3.org/1999/xlink" width="200" height="200"><path d="M936.858897 790.980267c34.619733-1.834667 76.347733 31.556267 83.0208 65.169066 0.981333 4.949333 4.1216 23.773867 4.1216 27.229867 0 2.449067-3.157333 20.206933-4.0192 23.842133-2.833067 12.040533-17.0496 32.034133-28.322133 37.922134-8.098133 4.232533-33.7152 12.1088-42.6752 13.1072-39.057067 4.352-96.802133 2.4064-135.168-7.6288-14.1056-3.6864-33.092267-10.069333-33.8688-27.1616-2.176-2.3552-29.021867 13.269333-34.798934 15.752533-209.2288 90.197333-578.645333 67.336533-703.837866-150.536533-65.28-113.604267-42.939733-230.033067-3.285334-347.383467 3.8656-11.4432 15.2576-32.349867 16.6912-42.589867 4.548267-32.5632-1.885867-77.124267-0.1536-111.726933 1.348267-26.837333 6.4512-57.0624 10.496-83.643733 10.368-68.061867 32.836267-193.194667 129.2032-163.822934 53.5296 16.315733 107.886933 64.605867 151.466667 98.602667 8.558933-1.629867 19.908267-5.0688 28.0832-6.0672 81.937067-9.966933 166.638933-11.118933 247.5776 7.048533l5.230933-1.749333c39.748267-34.577067 89.3952-75.741867 139.3408-94.318933 26.222933-9.7536 51.618133-12.4928 75.0848 5.213866 49.629867 37.444267 65.826133 145.220267 71.466667 203.9808 3.8912 40.5248 8.192 80.768 7.074133 122.248534-0.162133 5.9904-4.138667 10.5472-3.191466 16.546133 4.215467 26.7008 27.3408 70.7072 36.2496 100.0192 28.168533 92.612267 34.158933 186.658133-6.0416 276.5824-3.387733 7.5776-12.040533 13.141333-9.7536 23.3728zM30.311697 679.406933c0.6144 30.5152 19.584 76.014933 35.362133 102.485334 2.312533 3.882667 6.152533 5.0944 6.4768 5.6064 100.445867 154.717867 347.409067 198.1184 517.717334 170.786133 63.633067-10.2144 124.373333-33.8176 183.005866-59.332267-3.3536-29.917867-5.6832-63.8464-3.370666-94.011733 0.503467-6.587733 2.346667-20.736 3.490133-27.895467 0.896-5.649067 2.269867-14.370133 3.490133-20.923733 1.237333-6.698667 5.085867-24.2944 6.971734-31.377067 0.955733-3.601067 9.659733-20.573867 12.296533-24.311466 3.3792-4.7872 16.008533-17.501867 20.7616-21.077334 9.7792-7.3728 19.575467-8.541867 29.704533-13.8752h27.895467c2.773333 1.0752 9.770667 3.054933 10.461867 3.490134 8.644267 5.4272 20.0448 19.285333 25.079466 28.962133 11.758933 22.5792 8.3712 34.602667-7.5776 53.0432-9.156267 10.589867-20.5824 20.113067-34.8928 22.647467-0.930133 0.887467 3.242667 21.393067 4.155734 25.3952 0.785067 3.464533 2.4832 11.904 7.893333 9.326933 3.208533-1.536 20.590933-13.056 22.894933-15.470933 26.197333-27.426133 40.942933-94.011733 45.2096-130.875734 6.314667-54.647467-0.776533-100.4288-15.5904-153.514666-9.463467-33.8944-36.130133-86.0928-40.132266-116.770134-4.795733-36.744533 2.5088-83.4304-0.128-121.9072-3.2256-47.035733-22.101333-148.386133-50.568534-186.530133-26.103467-34.978133-58.760533-21.640533-91.255466-4.2496-42.120533 22.545067-82.730667 56.0128-118.280534 87.560533-15.889067-2.176-32.955733-7.936-48.477866-10.103466-66.816-9.335467-138.837333-8.712533-205.585067 0-11.409067 1.4848-34.2528 10.146133-43.7504 5.256533-30.532267-27.374933-64.298667-53.828267-99.805867-74.5216-14.216533-8.285867-33.621333-19.541333-48.9984-24.2176-42.8544-13.0304-60.1856 19.1488-73.4976 54.0672-27.733333 72.772267-34.944 177.425067-28.714666 253.858133 2.833067 34.747733-27.178667 93.115733-37.435734 129.783467-16.2816 58.205867-18.722133 99.319467-18.269866 159.5392 0.042667 5.725867-2.568533 16.2816 3.473066 19.182933z m864.7168 41.838934c-2.389333-14.2336-11.784533-26.2144-23.099733-34.423467-53.0176-6.272-66.9184 43.4176-74.410667 85.102933-6.920533 38.510933-10.3424 83.080533-3.541333 121.847467 3.157333 17.9968 2.244267 25.275733 19.882666 32.418133 30.1824 12.2368 91.630933 14.088533 124.680534 11.1616 8.917333-0.7936 28.672-4.8384 36.744533-8.576 27.716267-12.842667 28.6464-49.860267 19.234133-75.153066-17.621333-47.3344-86.7328-56.302933-117.000533-15.6416-10.018133 13.448533-7.970133 38.1696-31.300267 29.704533-2.372267-10.769067 5.674667-20.096 6.894934-29.678933 1.518933-11.895467-4.283733-38.920533-7.765334-51.4048-2.986667-10.7264-15.189333-27.869867-13.0816-35.712 1.6384-6.101333 5.077333-4.002133 9.181867-2.235734 19.4304 8.3712 20.573867 6.024533 39.637333-3.0208 2.423467-11.332267-6.826667-4.821333-14.045866-8.610133-3.601067-1.885867-17.408-16.955733-17.442134-20.9408 0.571733-9.617067 9.412267-9.873067 17.28-8.533333l12.919467 16.930133 15.240533-3.2256z" fill="#492921" p-id="5424"></path><path d="M947.320764 661.973333c-6.4768-7.150933-7.901867-19.5328-12.347734-27.7504-11.272533-20.846933-37.504-38.8864-60.868266-41.984-2.909867-6.050133-13.457067-3.4304-19.191467-3.4816-59.067733-0.520533-81.237333 18.244267-130.7392 38.3488-6.528 2.653867-22.596267 9.053867-27.895467 10.461867-27.178667 7.202133-60.544 3.456-84.949333-10.939733-12.672-7.4752-22.7328-20.471467-33.757867-29.0048-42.871467-33.2288-103.125333-39.560533-152.2688-16.5888-51.575467 24.106667-54.0672 62.549333-126.5152 60.023466l-2.176-3.106133c-2.696533-1.015467-5.691733-0.093867-8.285866-0.375467-14.993067-1.629867-24.405333-4.676267-38.357334-10.461866-44.501333-18.466133-75.1872-38.5792-127.2576-38.340267-5.717333 0.0256-16.290133-2.56-19.182933 3.473067-42.752 5.290667-74.077867 44.586667-73.224533 87.168-6.0416-2.901333-3.4304-13.457067-3.473067-19.182934-0.452267-60.219733 1.988267-101.333333 18.269867-159.5392 10.257067-36.667733 40.2688-95.035733 37.435733-129.783466-6.237867-76.433067 0.9728-181.085867 28.714667-253.858134 13.312-34.9184 30.6432-67.0976 73.4976-54.0672 15.377067 4.676267 34.781867 15.940267 48.9984 24.2176 35.5072 20.6848 69.2736 47.146667 99.805866 74.5216 9.4976 4.8896 32.341333-3.771733 43.7504-5.256533 66.756267-8.704 138.7776-9.326933 205.585067 0 15.522133 2.167467 32.5888 7.918933 48.477867 10.103467 35.549867-31.547733 76.16-65.015467 118.280533-87.560534 32.494933-17.390933 65.143467-30.728533 91.255467 4.2496 28.4672 38.144 47.342933 139.485867 50.568533 186.530134 2.6368 38.4768-4.667733 85.162667 0.128 121.9072 4.002133 30.677333 30.677333 82.875733 40.132267 116.770133 14.813867 53.085867 21.905067 98.8672 15.5904 153.514667z m-683.502934-463.872c0.682667-3.8912 0.384-6.852267-1.536-10.436266-2.1504-4.010667-32.699733-33.544533-38.4-38.306134-16.452267-13.764267-35.182933-26.717867-57.685333-19.191466-10.717867 5.418667-21.5808 40.200533-24.226133 52.48-4.343467 20.215467-5.896533 51.729067-7.2192 72.977066-0.469333 7.5264-1.186133 31.982933 1.834666 36.829867 6.7072 10.769067 13.226667-5.981867 17.408-10.615467 23.005867-25.514667 59.042133-53.589333 87.790934-72.6016 6.016-3.976533 15.112533-8.840533 22.024533-11.136zM832.257297 295.867733V213.930667c-6.946133-19.908267-8.064-44.023467-15.5648-64.631467-6.613333-18.176-18.372267-24.567467-37.9136-20.224-15.880533 3.5328-54.7328 39.7568-65.160533 53.384533-2.304 3.012267-7.645867 10.6496-6.826667 13.824 22.766933 17.979733 49.4336 31.8208 71.483733 50.696534 15.0784 12.910933 28.305067 30.993067 43.52 43.656533 3.5328 2.935467 4.471467 6.664533 10.461867 5.230933z m-517.111467 56.482134c-35.908267 6.237867-45.056 51.242667-21.546666 75.972266 12.0064 12.637867 48.7936 26.8544 65.553066 23.808 35.746133-6.510933 47.496533-44.475733 24.900267-72.4224-13.576533-16.7936-47.735467-31.035733-68.906667-27.357866z m317.3632 0.0512c-30.020267 4.317867-65.8944 30.148267-61.687466 63.709866 4.778667 38.0928 50.372267 39.671467 79.069866 26.88 54.929067-24.482133 45.806933-99.677867-17.3824-90.589866zM378.266897 584.5504c1.442133-1.442133 1.851733-5.4272 4.027733-8.0896 6.596267-8.072533 13.6704-3.848533 22.280534-5.700267 12.1856-2.619733 24.541867-15.086933 29.474133-26.3168 5.3248-12.125867 9.019733-63.0272-4.7616-67.012266-23.901867-6.912-13.329067 33.4336-16.128 49.6128s-11.648 23.441067-28.288 19.191466l-181.504-72.285866-9.1136 8.6528c0.4864 15.018667 28.6464 16.392533 31.069867 24.4992 1.937067 6.468267-4.061867 17.757867-3.396267 27.733333 3.831467 57.489067 72.055467 87.688533 122.3168 69.725867 7.108267-2.542933 29.098667-15.086933 34.0224-20.0192z m383.138133-110.250667c-48.162133 17.8432-94.1824 41.429333-141.7728 60.475734-16.187733 6.4768-43.195733 21.393067-55.424 2.9952-10.9824-16.512 8.064-68.266667-19.345066-60.3392-11.485867 3.319467-10.717867 46.1568-8.405334 56.704 1.365333 6.229333 11.784533 24.379733 16.938667 28.3904 12.7488 9.924267 29.815467 6.792533 34.978133 10.350933 2.7136 1.8688 4.5056 8.772267 8.388267 12.535467 34.525867 33.450667 113.348267 28.1856 140.8768-12.8256 13.064533-19.456 17.9712-44.066133 7.8592-65.8432-0.1024-5.1712 28.305067-9.335467 30.728533-17.604267 3.268267-11.144533-3.8656-18.372267-14.8224-14.839467z" fill="#F7C17B" p-id="5425"></path><path d="M696.27863 637.568l-17.373866 47.1296c-3.797333 44.987733 16.452267 91.323733 55.825066 114.9184 10.0352 6.007467 23.483733 9.856 34.773334 5.3248-2.321067 30.165333 0.017067 64.093867 3.370666 94.011733-58.632533 25.514667-119.3728 49.117867-183.005866 59.332267-170.308267 27.3408-417.271467-16.068267-517.717334-170.786133 1.4592-6.144 14.6432 0.247467 17.518934 1.664 11.869867 5.8624 30.856533 21.0688 41.5744 24.6784 20.625067 6.9376 63.709867 3.370667 85.009066-2.5344 22.749867-6.314667 36.676267-18.6368 52.855467-34.423467 2.449067-2.389333 6.493867-2.517333 8.0384-4.053333 1.536-1.518933 15.3344-24.029867 16.554667-27.025067 7.918933-19.464533 2.1248-39.168 7.8848-58.3168l-6.280534-46.429867c1.143467 0.110933 2.3296-0.042667 3.490134 0 72.456533 2.525867 74.939733-35.9168 126.5152-60.023466 49.143467-22.971733 109.397333-16.64 152.2688 16.5888 11.016533 8.541867 21.085867 21.538133 33.757866 29.0048 24.405333 14.395733 57.762133 18.141867 84.949334 10.939733z m-234.683733-41.1648c-29.0816 4.932267-54.946133 32.238933-33.8688 60.416 26.146133 34.952533 76.381867 38.9632 109.969067 12.194133 26.717867-21.290667 27.0336-49.450667-4.053334-65.809066-17.493333-9.207467-52.5056-10.120533-72.046933-6.801067zM360.056764 690.116267c-13.952 4.104533-6.8864 33.288533-1.527467 42.871466 2.602667 4.6592 19.4048 21.7088 24.021333 24.789334 27.4432 18.346667 81.2032 9.898667 106.2656-11.400534 33.399467 28.066133 106.2144 30.677333 130.312534-9.890133 10.496-17.664 15.8464-59.613867-15.394134-43.2896-4.0448 41.105067-30.907733 51.217067-68.9152 44.8-20.471467-3.456-34.466133-27.357867-46.0288-27.400533-4.283733-0.017067-20.881067 16.426667-28.416 20.5568-20.4544 11.221333-59.562667 12.936533-74.555733-8.029867-7.790933-10.897067-4.778667-39.176533-25.762133-33.015467z" fill="#F8EFDC" p-id="5426"></path><path d="M895.028497 721.245867l-15.240533 3.2256-12.919467-16.930134c-7.867733-1.339733-16.708267-1.0752-17.28 8.533334 0.034133 3.985067 13.841067 19.054933 17.442133 20.9408 7.2192 3.7888 16.469333-2.730667 14.045867 8.610133-19.054933 9.0368-20.206933 11.383467-39.637333 3.0208-4.096-1.7664-7.543467-3.8656-9.181867 2.235733-2.107733 7.850667 10.094933 24.9856 13.0816 35.712 3.473067 12.484267 9.275733 39.509333 7.765333 51.4048-1.220267 9.591467-9.2672 18.909867-6.894933 29.678934 23.3216 8.465067 21.282133-16.256 31.300267-29.704534 30.267733-40.661333 99.3792-31.701333 117.000533 15.6416 9.412267 25.2928 8.482133 62.3104-19.234133 75.153067-8.072533 3.746133-27.8272 7.790933-36.744534 8.576-33.0496 2.935467-94.506667 1.0752-124.680533-11.1616-17.6384-7.150933-16.725333-14.429867-19.882667-32.418133-6.801067-38.766933-3.3792-83.336533 3.541334-121.847467 7.492267-41.685333 21.393067-91.374933 74.410666-85.102933 11.3152 8.2176 20.7104 20.189867 23.099734 34.423466z m78.805333 157.2608c-3.950933 1.160533-8.354133 8.866133-12.6464 11.758933-21.333333 14.344533-55.278933 11.050667-78.421333 1.681067l-12.0832 12.177066c2.116267 6.954667 22.408533 14.882133 29.636267 15.812267 34.312533 4.4032 75.733333-0.324267 88.814933-36.565333l-8.721067-5.307734c-2.193067-0.068267-4.4544-0.170667-6.5792 0.443734z" fill="#FFB666" p-id="5427"></path><path d="M103.527697 592.238933l41.838933 1.7408c-8.994133 7.2192-20.130133 8.285867-29.704533 15.624534-23.671467 18.158933-43.938133 52.292267-46.941867 82.090666-0.9984 9.915733 2.688 13.943467 3.3536 20.906667 1.160533 12.177067-2.116267 18.577067 4.104534 30.762667 11.076267 21.7088 38.126933 34.449067 61.201066 39.918933 36.0192 8.533333 72.942933 5.051733 101.981867-18.602667 28.663467-23.3472 37.435733-65.476267 27.4176-100.343466-2.261333-7.876267-10.402133-16.3584-15.010133-23.3472-2.4576-3.729067-10.999467-9.668267-1.800534-13.892267 13.943467 5.7856 23.355733 8.832 38.357334 10.461867l2.056533 3.114666c1.595733 0.7168 3.293867 0.213333 4.9152 0.375467l6.280533 46.429867c-5.76 19.1488 0.034133 38.852267-7.8848 58.3168-1.220267 2.9952-15.0272 25.506133-16.554666 27.025066-1.544533 1.536-5.597867 1.664-8.0384 4.053334-16.1792 15.786667-30.1056 28.1088-52.855467 34.423466-21.2992 5.9136-64.384 9.472-85.009067 2.5344-10.717867-3.601067-29.696-18.816-41.5744-24.6784-2.8672-1.416533-16.059733-7.808-17.518933-1.664-0.3328-0.512-4.164267-1.7152-6.4768-5.6064-15.778133-26.4704-34.747733-71.970133-35.362133-102.485333-0.853333-42.589867 30.472533-81.877333 73.224533-87.168z" fill="#F8E2CB" p-id="5428"></path><path d="M874.104764 592.238933c-4.317867-0.571733-14.208-1.2544-17.425067 1.7408 1.8688 8.3968 9.3952 8.6784 12.168533 12.1344 11.2128 13.986133 20.445867 31.8464 20.036267 50.082134l-4.309333 12.7488c-0.682667-0.426667-7.688533-2.4064-10.461867-3.490134-0.247467-0.093867-0.401067-2.56-2.184533-3.0464-4.846933-1.3312-10.274133-0.187733-15.2576-0.443733 6.6048-8.541867-4.0448-22.1952-10.3936-29.696-17.211733-20.3264-38.545067-22.203733-62.993067-14.0544-4.3776 1.4592-31.1296 17.962667-34.7136 21.0688-22.1696 19.2-17.962667 87.492267 7.0912 104.5248l20.821333 12.305067c-1.211733 6.5536-2.594133 15.274667-3.490133 20.923733l-5.282133 3.6352c-18.432 1.339733-47.744-31.0016-53.248-47.957333-2.218667-6.843733-7.671467-31.650133-7.68-37.6064 0-4.539733 5.8624-31.556267 7.543466-37.751467 2.466133-9.1136 11.255467-19.217067 9.856-30.242133 49.5104-20.104533 71.671467-38.869333 130.7392-38.3488 5.7344 0.0512 16.273067-2.568533 19.191467 3.4816z" fill="#F7D6BB" p-id="5429"></path><path d="M874.104764 592.238933c23.3728 3.0976 49.595733 21.1456 60.868266 41.984 4.445867 8.2176 5.870933 20.599467 12.347734 27.7504-4.258133 36.864-19.012267 103.4496-45.2096 130.875734-2.304 2.414933-19.6864 13.934933-22.894934 15.470933-5.410133 2.5856-7.108267-5.853867-7.893333-9.326933-0.904533-3.9936-5.085867-24.507733-4.155733-25.3952 14.3104-2.5344 25.736533-12.066133 34.8928-22.647467 15.9488-18.440533 19.336533-30.464 7.5776-53.0432-5.0432-9.6768-16.443733-23.534933-25.079467-28.962133l4.309333-12.7488c0.418133-18.235733-8.823467-36.087467-20.036266-50.082134-2.773333-3.456-10.299733-3.746133-12.168534-12.1344 3.217067-2.9952 13.115733-2.312533 17.425067-1.7408z" fill="#F5E7D3" p-id="5430"></path><path d="M776.474897 756.113067l-20.821333-12.305067c-25.053867-17.032533-29.2608-85.3248-7.0912-104.5248 3.592533-3.106133 30.336-19.6096 34.7136-21.0688 24.456533-8.149333 45.789867-6.263467 62.993066 14.0544 6.3488 7.5008 16.989867 21.154133 10.3936 29.696 4.983467 0.256 10.410667-0.878933 15.2576 0.443733 1.783467 0.4864 1.937067 2.952533 2.184534 3.0464h-27.895467l-26.6496-20.420266c-27.997867-4.599467-54.4256 5.154133-57.147733 35.950933 5.282133 18.5344 1.8944 32.938667 21.0432 43.7504-1.885867 7.0912-5.7344 24.6784-6.971734 31.377067z" fill="#F8C6A7" p-id="5431"></path><path d="M724.174097 627.106133c1.399467 11.025067-7.381333 21.128533-9.856 30.242134-1.681067 6.1952-7.543467 33.211733-7.543467 37.751466 0 5.9648 5.4528 30.762667 7.68 37.6064 5.504 16.955733 34.816 49.297067 53.248 47.957334l5.282134-3.6352c-1.134933 7.159467-2.978133 21.307733-3.490134 27.895466-11.2896 4.539733-24.746667 0.6912-34.773333-5.3248-39.364267-23.586133-59.613867-69.922133-55.825067-114.9184l17.373867-47.1296c5.2992-1.399467 21.367467-7.808 27.895467-10.461866z" fill="#F8E2CA" p-id="5432"></path><path d="M783.44663 724.736c-19.1488-10.8032-15.761067-25.216-21.0432-43.7504 2.730667-30.7968 29.149867-40.5504 57.147734-35.950933l26.6496 20.420266c-10.129067 5.333333-19.925333 6.5024-29.704534 13.8752-4.744533 3.575467-17.3824 16.290133-20.7616 21.077334-2.6368 3.746133-11.3408 20.7104-12.296533 24.311466z" fill="#F8B996" p-id="5433"></path><path d="M378.266897 584.5504c-4.923733 4.932267-26.914133 17.476267-34.0224 20.0192-50.261333 17.962667-118.485333-12.2368-122.3168-69.725867-0.6656-9.975467 5.333333-21.265067 3.396267-27.733333-2.423467-8.106667-30.592-9.489067-31.069867-24.4992l9.1136-8.6528 181.504 72.285867c16.64 4.2496 25.472-2.875733 28.288-19.191467s-7.7824-56.5248 16.128-49.6128c13.7728 3.985067 10.0864 54.877867 4.7616 67.012267-4.932267 11.229867-17.288533 23.697067-29.474133 26.3168-8.618667 1.851733-15.6928-2.372267-22.280534 5.700266-2.176 2.6624-2.5856 6.647467-4.027733 8.0896z" fill="#4C2C25" p-id="5434"></path><path d="M761.40503 474.299733c10.9568-3.5328 18.090667 3.694933 14.8224 14.839467-2.423467 8.2688-30.830933 12.433067-30.728533 17.604267 10.112 21.777067 5.205333 46.378667-7.8592 65.8432-27.537067 41.0112-106.350933 46.276267-140.8768 12.8256-3.882667-3.754667-5.674667-10.666667-8.388267-12.535467-5.1712-3.5584-22.229333-0.426667-34.978133-10.350933-5.154133-4.010667-15.573333-22.161067-16.938667-28.3904-2.321067-10.555733-3.080533-53.384533 8.405334-56.704 27.4176-7.927467 8.3712 43.818667 19.345066 60.3392 12.228267 18.389333 39.236267 3.4816 55.424-2.9952 47.5904-19.037867 93.610667-42.624 141.7728-60.475734z" fill="#4D2C25" p-id="5435"></path><path d="M249.976764 627.106133c-9.198933 4.224-0.657067 10.1632 1.800533 13.892267 4.608 6.980267 12.7488 15.4624 15.010133 23.3472 10.018133 34.8672 1.237333 76.996267-27.4176 100.343467-29.038933 23.6544-65.954133 27.136-101.981866 18.602666-23.074133-5.469867-50.1248-18.210133-61.201067-39.918933-6.2208-12.1856-2.944-18.5856-4.104533-30.762667-0.6656-6.9632-4.352-10.9824-3.3536-20.906666 3.003733-29.7984 23.2704-63.931733 46.941866-82.090667 9.565867-7.338667 20.7104-8.405333 29.704534-15.624533l-41.838934-1.7408c2.901333-6.033067 13.474133-3.447467 19.182934-3.473067 52.0704-0.2304 82.756267 19.874133 127.2576 38.340267z m-8.004267 62.728534c0-40.081067-32.494933-72.576-72.576-72.576s-72.576 32.494933-72.576 72.576 32.494933 72.576 72.576 72.576 72.576-32.494933 72.576-72.576z" fill="#F8D6BA" p-id="5436"></path><path d="M263.81783 198.101333c-6.920533 2.286933-16.008533 7.159467-22.024533 11.136-28.7488 19.003733-64.785067 47.086933-87.790933 72.6016-4.181333 4.6336-10.692267 21.384533-17.408 10.615467-3.012267-4.8384-2.304-29.303467-1.834667-36.829867 1.322667-21.239467 2.875733-52.7616 7.2192-72.977066 2.645333-12.288 13.508267-47.069867 24.226133-52.48 22.493867-7.5264 41.233067 5.4272 57.685334 19.191466 5.700267 4.770133 36.2496 34.295467 38.4 38.306134 1.92 3.584 2.210133 6.545067 1.536 10.436266zM832.257297 295.867733c-5.9904 1.4336-6.929067-2.295467-10.461867-5.230933-15.2064-12.654933-28.433067-30.737067-43.52-43.656533-22.0416-18.875733-48.7168-32.7168-71.483733-50.696534-0.827733-3.1744 4.514133-10.811733 6.826667-13.824 10.427733-13.627733 49.271467-49.851733 65.160533-53.384533 19.541333-4.343467 31.291733 2.048 37.9136 20.224 7.5008 20.599467 8.618667 44.714667 15.5648 64.631467v81.937066z" fill="#F7C6B3" p-id="5437"></path><path d="M315.14583 352.349867c21.1712-3.677867 55.330133 10.564267 68.906667 27.357866 22.596267 27.946667 10.845867 65.911467-24.900267 72.4224-16.759467 3.0464-53.546667-11.170133-65.553066-23.808-23.5008-24.7296-14.353067-69.7344 21.546666-75.972266zM632.50903 352.401067c63.189333-9.088 72.311467 66.107733 17.3824 90.589866-28.6976 12.791467-74.2912 11.2128-79.069866-26.88-4.206933-33.5616 31.6672-59.392 61.687466-63.709866z" fill="#F6EDDA" p-id="5438"></path><path d="M298.78743 641.0496c-1.152-0.042667-2.346667 0.110933-3.490133 0-1.621333-0.162133-3.319467 0.341333-4.9152-0.375467l-2.056533-3.114666c2.594133 0.2816 5.589333-0.64 8.285866 0.375466l2.176 3.106134z" fill="#F8D6BA" p-id="5439"></path><path d="M461.594897 596.4032c19.541333-3.319467 54.545067-2.397867 72.046933 6.801067 31.086933 16.3584 30.7712 44.5184 4.053334 65.809066-33.5872 26.760533-83.831467 22.7584-109.969067-12.194133-21.077333-28.177067 4.7872-55.483733 33.8688-60.416z" fill="#4E2E26" p-id="5440"></path><path d="M360.056764 690.116267c20.974933-6.161067 17.9712 22.1184 25.762133 33.015466 14.993067 20.9664 54.109867 19.2512 74.555733 8.029867 7.534933-4.130133 24.123733-20.573867 28.416-20.5568 11.562667 0.042667 25.557333 23.944533 46.0288 27.400533 38.007467 6.417067 64.8704-3.694933 68.9152-44.8 31.240533-16.324267 25.890133 25.6256 15.394134 43.2896-24.098133 40.567467-96.913067 37.956267-130.312534 9.890134-25.053867 21.290667-78.8224 29.738667-106.2656 11.400533-4.616533-3.089067-21.418667-20.130133-24.021333-24.789333-5.358933-9.582933-12.424533-38.766933 1.527467-42.871467z" fill="#4E2C25" p-id="5441"></path><path d="M973.83383 878.506667c2.1248-0.622933 4.386133-0.520533 6.5792-0.443734l8.721067 5.307734c-13.0816 36.241067-54.510933 40.968533-88.814933 36.565333-7.227733-0.930133-27.511467-8.8576-29.636267-15.812267l12.0832-12.177066c23.1424 9.361067 57.088 12.663467 78.421333-1.681067 4.292267-2.884267 8.704-10.5984 12.6464-11.758933z" fill="#482A20" p-id="5442"></path><path d="M241.972497 689.834667c0 40.081067-32.494933 72.576-72.576 72.576s-72.576-32.494933-72.576-72.576 32.494933-72.576 72.576-72.576 72.576 32.494933 72.576 72.576z m-102.8352 30.677333c12.996267 13.226667 46.6944 9.634133 60.407467-2.628267 13.730133-12.279467 15.249067-42.7264 5.256533-57.8048-2.670933-4.027733-18.039467-14.890667-22.724267-15.607466-8.669867-1.322667-27.6992 1.988267-35.114666 6.877866-8.96 5.922133-22.519467 26.069333-22.519467 36.770134 0 5.376 10.811733 28.4416 14.6944 32.392533z" fill="#F9C5A4" p-id="5443"></path><path d="M139.137297 720.512c-3.882667-3.950933-14.6944-27.008-14.6944-32.392533 0-10.7008 13.559467-30.848 22.519467-36.770134 7.415467-4.898133 26.4448-8.209067 35.114666-6.877866 4.693333 0.7168 20.053333 11.5712 22.724267 15.607466 9.992533 15.0784 8.4736 45.525333-5.256533 57.8048-13.713067 12.2624-47.402667 15.854933-60.407467 2.628267z" fill="#FABA95" p-id="5444"></path></svg>