<?xml version="1.0" standalone="no"?><!DOCTYPE svg PUBLIC "-//W3C//DTD SVG 1.1//EN" "http://www.w3.org/Graphics/SVG/1.1/DTD/svg11.dtd"><svg t="1772951678514" class="icon" viewBox="0 0 1024 1024" version="1.1" xmlns="http://www.w3.org/2000/svg" p-id="4976" xmlns:xlink="http://www.w3.org/1999/xlink" width="200" height="200"><path d="M100.418065 575.879305c0.084698-0.88933 8.325823-7.055352-1.693962-5.039537-8.512159 1.710902-17.312291 8.774723-26.781539 9.985906-33.760662 4.319603-54.401588-27.806385-31.787196-55.172341 9.469247-11.451183 30.830108-19.895583 45.288073-21.598015 8.080199-0.948619 26.078544 2.710339 30.135583-3.303225l31.59239-92.134591c-0.338792-73.162217-2.312258-149.830935 20.801853-219.960959 18.591232-56.417403 47.244599-88.873714 109.717916-64.268917 42.349049 16.677055 81.530389 52.504351 118.602746 77.574988l50.28526-8.91024c42.789479-3.887643 84.113681-2.913615 126.937039 0l53.181936 9.689462c18.26938-15.008503 36.310074-31.219719 55.714408-44.720595 31.897304-22.190902 90.550736-59.1955 128.131282-34.802449 28.119768 18.25244 44.043011 64.09952 51.598081 95.539454 14.195401 59.102333 18.464185 126.183226 14.136113 186.513681l33.548916 98.537767c28.619487-1.499156 60.804764 1.33823 78.328801 27.001753 9.918147 14.534194 6.979123 35.717188-9.223623 44.1023-20.657866 10.69737-36.869082 2.811977-55.892274-7.411084 0.838511 19.683838 4.91249 38.249661 3.269346 58.450158-12.221935 150.48311-143.131315 238.230339-279.927212 268.484499-205.045624 45.355831-504.953118-10.976873-545.972407-255.042911 1.473747-20.522349-2.015815-43.373896 0-63.532043z m799.211248 71.891745c5.725591-3.887643 3.243937-12.391332 3.328636-18.413366 0.304913-21.055947-0.347262-36.369363-3.277817-56.883242-1.693962-11.883143 4.692275-17.608734-9.994375-23.444434-13.289132-5.276691-59.65287-6.648801-31.922713-28.390802 8.164897-6.403176 28.839702-8.486749 28.636427-18.27785l-30.186402-87.052704c0.355732-72.747196-0.482779-150.584748-24.181307-219.92708-8.071729-23.61383-22.309479-58.179123-51.056013-59.458065-33.260943-1.473747-106.728073 55.172341-133.882283 77.066799-4.844731 3.904582-8.232655 9.867328-13.704153 13.162084-8.45287-1.719371-18.142333-5.014127-26.476625-6.293068-55.578892-8.554508-120.915004-10.434806-177.052903-3.396394-11.730687 1.473747-32.397022 9.291381-43.068983 6.149082-17.193714-11.425773-32.261505-25.976907-49.099487-37.82617-20.530819-14.449495-68.410653-45.584516-91.855087-48.56589-42.171183-5.369859-57.272854 57.078048-64.387494 89.322614-13.941307 63.142432-14.974624 128.23292-14.20387 193.120132l-30.042416 92.016014c6.67421-0.01694 14.068354 2.329198 20.141208 4.946369 2.23603 0.965558 15.711497 8.071729 16.406021 8.673085 0.736873 0.643706 0.660645 8.88483 0.01694 11.247907-2.261439 8.275004-38.317419 10.629611-45.076328 18.455716-0.686055 6.055914-4.192556 13.195964-4.785442 18.625111-2.447775 22.402647-2.905145 42.789479-0.076228 65.132837 9.943557 78.540546 49.980347 131.951166 113.910471 175.485989 2.65952 1.812539 5.810289 1.312821 6.470935 1.744781 4.048569 2.68493 5.818759 5.573135 13.373829 10.028254 25.553416 15.076261 45.093267 23.910273 73.568768 33.438809 9.35914 3.13383 14.373267 4.268784 23.410554 6.69115 73.00129 19.565261 143.571745 28.356923 218.961522 19.997221l92.024483-16.651646 16.719405-6.69115c27.975782-7.622829 54.960596-19.497502 80.259917-33.438809 5.878048-3.235467 11.086981-6.462465 16.719404-10.028255 54.858958-34.73469 118.314773-101.815583 120.381406-170.539619zM147.230703 530.726749c-4.260314-7.732936-23.486782-12.315103-31.846485-13.289131-21.81823-2.549413-77.126088 7.334855-68.08033 37.995566 0.728404 2.464715 5.903457 7.597419 8.385111 8.317354 29.347891 8.512159 62.803639-30.686121 91.541704-33.023789z m728.988056 0c29.203904-1.245062 63.362647 41.180215 91.541704 33.023789 20.505409-14.415616 3.413333-34.243441-14.491844-41.510538-19.861704-8.063259-49.065608-6.149082-68.808735 1.693962-3.489562 1.380579-7.817634 2.083573-8.241125 6.801257z" fill="#4D2D24" p-id="4977"></path><path d="M914.94273 724.964897c16.804103-4.802382 63.904715 20.623987 78.167874 31.634739 21.301572 16.431431 33.963937 39.257568 30.237221 66.733631-1.880298 13.856609-18.464185 26.637552-31.821076 28.373863-56.620678 7.377204-55.19775-46.516195-69.215285-84.494822-4.836261-13.094326-21.445558-30.770819-7.368734-42.238942z m14.788287 16.4399l26.603673 82.063987c16.151927 23.817105 55.20622 16.372142 53.834111-13.577105-1.405988-30.787758-53.656245-60.135649-80.437784-68.486882z" fill="#4C2E25" p-id="4978"></path><path d="M99.427097 725.312159c10.511034-1.592324 18.71828 3.447213 17.854359 14.373267-0.550538 6.885955-11.59517 20.02263-15.237188 28.424682-10.400926 23.994971-10.544913 61.109677-33.85383 76.499321-31.651679 20.90349-74.3734-0.88933-67.436625-40.705905 6.411646-36.818263 64.065641-73.331613 98.673284-78.591365z m-2.363077 16.092638c-35.225939 14.381737-87.179752 35.090422-79.827957 81.50498 19.006253 24.808073 45.169495 17.930587 55.697469-10.333168 5.064946-13.602514 6.453995-28.390802 11.493532-42.010257 1.981935-5.36139 14.737469-26.849297 12.636956-29.153085z" fill="#4E3027" p-id="4979"></path><path d="M899.629313 647.77105c0.575947-19.040132-12.780943-45.584516-28.882051-56.383523-9.215153-6.182961-17.913648-8.063259-27.967312-10.494094-0.287974-0.067758-0.618296-2.888205-4.819321-3.396394-9.968966-1.202713-30.245691-1.024847-40.460282-0.084698-12.653896 1.160364-24.91818 8.766253-38.317419 6.826666 3.404864-24.02885 7.436493-46.177403-2.68493-69.206815-21.030538-47.854425-85.324864-66.674342-128.944383-37.334922-30.406617 20.446121-40.50263 52.411183-35.564732 88.15378 1.194243 8.664615 9.7911 15.897833 10.028255 25.087577-55.18928-49.091017-122.388751-49.091017-177.230769 0l10.146832-41.629115c-5.310571-24.875831-11.434243-48.650587-31.821075-65.43775-44.906931-36.97072-115.248701-20.242845-137.210918 33.455748-11.789975 28.822763-7.233218 38.605393-1.626204 66.919967-8.291944-6.149082-14.305509-5.632423-23.410554-6.691149-1.092605-0.127047-2.23603 0.059289-3.345575 0l-2.083573-2.972904c-2.617171-0.863921-5.310571-0.262564-7.944682-0.364202-15.160959-0.609826-23.410554 0.702994-36.784383 3.345575-4.065509 0.804632-8.01244-0.474309-13.509347 1.516096-13.204433 4.776973-30.059355 17.219123-38.241191 28.661837-6.428586 8.994938-8.630736 21.140645-15.13555 30.008536-2.828916-22.343358-2.371547-42.73019 0.076228-65.132838 0.592887-5.429148 4.099388-12.569198 4.785443-18.625111 6.758908-7.826104 42.814888-10.180711 45.076327-18.455716 0.643706-2.354607 0.719934-10.604202-0.016939-11.247907s-14.169992-7.715997-16.406022-8.673085c-6.072854-2.617171-13.475467-4.963309-20.141208-4.946369l30.042416-92.016013c-0.770753-64.895682 0.262564-129.977701 14.203871-193.120133 7.11464-32.236096 22.216311-94.692473 64.387493-89.322613 23.444433 2.989843 71.324268 34.116394 91.855087 48.565889 16.837982 11.849264 31.905773 26.400397 49.099488 37.82617 10.67196 3.142299 31.338296-4.675335 43.068982-6.149082 56.137899-7.038412 121.474012-5.149644 177.052903 3.396394 8.325823 1.278941 18.023755 4.573697 26.476626 6.293069 5.471497-3.294756 8.859421-9.257502 13.704152-13.162085 27.15421-21.885988 100.62134-78.540546 133.882283-77.066799 28.738065 1.278941 42.984285 35.844235 51.056013 59.458065 23.706998 69.342333 24.537039 147.179884 24.181307 219.92708l30.186402 87.052705c0.203275 9.7911-20.47153 11.874673-28.636427 18.277849-27.730157 21.750471 18.633581 23.114111 31.922713 28.390802 14.68665 5.835699 8.300414 11.56129 9.994376 23.444434 2.930554 20.513879 3.57426 35.835765 3.277816 56.883242-0.084698 6.022035 2.396956 14.525724-3.328635 18.413367zM805.995567 333.439471v-55.172341c0-0.372672-2.981373-3.015252-3.396394-6.631861-2.142862-18.608172-3.591199-44.610488-11.59517-61.973598-5.615484-12.188056-15.863954-19.15024-29.635864-16.134988-16.744814 3.667428-48.862333 35.979752-60.711596 49.633085-2.066634 2.388486-6.182961 4.217965-5.014128 8.342763 17.329231 11.696807 36.648867 20.971249 53.359802 33.599735s30.847047 29.915368 46.956625 43.323077c3.387924 2.820447 4.285724 6.386237 10.028255 5.014128z m-588.541671 3.345574c32.49019-32.812043 67.978693-60.609959 107.007576-85.290984 1.160364-4.133267-2.939024-5.954276-5.014127-8.342762-6.835136-7.876923-17.168304-18.277849-25.002878-25.155335-6.792787-5.962746-24.105079-20.564698-31.846485-21.648834-35.573201-4.954839-38.461406 27.035633-42.357519 54.604863-0.279504 1.956526-2.778098 3.167709-2.778097 3.904583v81.928469z m152.778428 40.739785c-30.482845 5.539256-42.670902 34.099454-23.944152 59.483474 10.392457 14.085294 42.222002 29.36483 59.475004 26.231001 38.198842-6.936774 42.061075-46.279041 14.059884-69.672655-11.061572-9.240562-35.573201-18.591232-49.590736-16.04182z m270.932275 0.067759c-27.831795 3.760596-63.548983 27.636989-54.359239 59.678279 10.494094 36.581108 68.664748 25.976907 88.839834 1.566915 23.732407-28.721125 0.990968-66.039107-34.480595-61.245194z" fill="#F7C17E" p-id="4980"></path><path d="M602.017138 590.921687c12.391332 11.019222 13.983656 22.309479 33.438809 26.756129-0.177866 19.387395-0.931679 38.935715 4.048569 57.814922 6.784318 25.739752 26.417337 46.473846 28.712655 74.898528 1.101075 13.610984-8.275004 38.080265-9.503126 52.733035-1.905707 22.817667 1.736311 43.458594 6.835136 65.353052l-92.024483 16.651646c-75.389777 8.359702-145.960232-0.43196-218.961522-19.997221 4.700744-20.979719 8.690025-40.113019 6.835137-62.007477-2.032754-24.003441-14.026005-44.203937-6.23378-69.477849 3.489562-11.324136 13.229843-24.088139 17.845889-35.657899 10.6889-26.790008 13.670273-51.437155 11.654458-80.310737 25.934557-7.021472 23.368205-11.756096 40.129959-26.756129 54.842018-49.091017 122.041489-49.091017 177.230769 0z m-94.607775-16.03335c-6.360827 4.065509-13.712622 1.668553-20.225906 3.201589-16.888801 3.972341-36.716625 20.878081-30.804698 39.765756 9.486187 30.313449 56.273416 40.993879 83.071894 29.220844 7.902333-3.472622 28.06048-19.633019 29.195435-27.645459 4.946369-34.827858-24.816543-39.367676-52.030042-45.254194l-9.215153 0.711464zM561.192655 688.595533c-0.719934-0.719934-12.984218-9.215153-14.813697-10.265409-20.751034-11.908553-41.696873-14.906865-63.794607-4.514409-25.180744 11.840794-50.835798 49.099487-38.444467 76.660249 11.773036 26.171712 37.85158 5.878048 55.739818 4.175616 7.089231-0.677585 19.878644-0.711464 26.832358 0.194805 21.123706 2.752688 36.742035 22.648271 54.808139-5.488436 0.262564-7.267097 1.397519-15.931712 0.41502-22.978594-0.957089-6.869016-15.770786-32.786634-20.751034-37.766882z" fill="#F8F0DF" p-id="4981"></path><path d="M662.203606 624.368966c17.134425 3.421803 42.975815 5.36139 60.194938 3.345575 2.532473 14.610422 14.847577 31.007974 16.660116 45.203375 3.464152 27.018693-7.224748 52.445062 1.558445 78.693002 4.768503 14.25469 18.650521 30.118644 21.259223 45.618395 1.727841 10.25694 0.135517 20.835732 0.643705 31.118082-25.299322 13.941307-52.275666 25.81598-80.259917 33.438808-2.185211-4.963309-4.709214-10.494094-5.988156-15.762315-11.002283-45.42359 16.91421-80.818925 1.084136-124.811117-13.695682-38.071795-26.620612-40.621208-25.197684-88.543391 0.313383-10.578792-1.084136-8.656146 10.028255-8.308884z" fill="#85DCF8" p-id="4982"></path><path d="M357.900281 624.368966c11.11239-0.347262 9.714872-2.269909 10.028255 8.308883 1.473747 49.624615-13.136675 52.326485-25.206154 91.880497-14.398677 47.159901 14.923805 77.871431-0.686054 123.040926-2.151332 6.23378-1.922647 11.620579-10.883706 10.849826-28.4755-9.528536-48.015352-18.371017-73.568768-33.438809 0.118577-7.038412-0.618296-14.068354 0.635236-21.106765 4.150207-23.13105 23.681588-40.94306 26.053135-64.243507 1.380579-13.602514-7.605889-35.217469-6.741969-46.567015 0.626766-8.198776 5.80182-26.569793 8.402052-35.352985 3.049132-10.299289 8.249595-19.920993 11.781505-30.017006 17.210653 2.261439 42.891117-0.211745 60.194938-3.345575z" fill="#86DBF7" p-id="4983"></path><path d="M842.77995 580.893433c10.045194 2.430835 18.752159 4.311133 27.967312 10.494094 16.101108 10.807477 29.457998 37.351861 28.882051 56.383523-2.066634 68.724036-65.522448 135.80493-120.381406 170.53962-4.150207-9.240562-2.202151-18.819917-3.98081-27.789446-5.34445-27.010223-25.595765-38.164963-22.775319-72.535451 4.590637 5.412208 7.512721 17.303821 15.465873 19.641489 23.258098 6.818197 85.05383-25.866799 95.488635-47.566451 3.633548-7.55507-1.626203-6.21684-3.946931-12.196526 43.348486-29.339421 8.232655-78.921687-33.438809-83.597023l-16.719405-6.68268 33.438809-6.699619z" fill="#F7E7D3" p-id="4984"></path><path d="M190.706237 577.547858l13.297601 0.084698c-0.728404 6.504814 4.565227 11.425773 0.084698 16.634706-16.626237 1.821009-44.610488 13.678743-53.054888 28.873582-9.443838 16.990438-7.444963 37.131646 9.587824 48.040761-9.985906 12.069479-9.223623 16.744814 1.626204 26.900115 4.751563 4.44665 7.749876 7.919272 11.595169 11.61211 24.249065 23.258098 30.508255 21.132175 61.329893 29.059917 12.543788 3.226998 21.132175 13.323011 32.456311-4.03163-1.439868 28.873581-28.077419 48.650587-23.410554 80.259918-0.660645-0.44043-3.811414 0.059289-6.470935-1.744781-63.930124-43.526352-103.966915-96.936973-113.910471-175.485988 6.504814-8.867891 8.706964-21.013598 15.13555-30.008536 8.181836-11.451183 25.036758-23.884864 38.241191-28.661837 5.496907-1.990405 9.435368-0.711464 13.509346-1.516096z" fill="#F8E6D0" p-id="4985"></path><path d="M662.203606 624.368966c-11.11239-0.347262-9.714872-2.269909-10.028254 8.308883-1.422928 47.922184 11.510471 50.471596 25.197684 88.543392 15.821605 43.992192-12.086419 79.379057-1.084136 124.811116 1.270471 5.268222 3.794475 10.799007 5.988155 15.762316l-16.719404 6.69115c-5.098825-21.894458-8.740844-42.535385-6.835137-65.353052 1.228122-14.652771 10.604202-39.122051 9.503127-52.733036-2.303788-28.424682-21.928337-49.158776-28.712655-74.898527-4.980248-18.879206-4.226435-38.427527-4.048569-57.814922 8.732374 1.998875 19.904053 5.319041 26.756129 6.69115z" fill="#3DAACF" p-id="4986"></path><path d="M384.65641 617.677816c2.015815 28.865112-0.965558 53.512258-11.654458 80.310737-4.616046 11.56976-14.356328 24.333763-17.845889 35.657899-7.792225 25.273912 4.201026 45.474409 6.23378 69.477849 1.854888 21.894458-2.125922 41.027758-6.835137 62.007477-9.028817-2.422366-14.042945-3.55732-23.410554-6.691149 8.961059 0.770753 8.732374-4.624516 10.883706-10.849827 15.609859-45.169495-13.712622-75.881026 0.686054-123.040926 12.077949-39.554012 26.679901-42.255881 25.206154-91.880496-0.313383-10.578792 1.084136-8.656146-10.028255-8.308884 5.962746-1.075666 19.167179-4.632986 26.756129-6.691149z" fill="#3FACD2" p-id="4987"></path><path d="M735.772374 624.368966c8.359702 18.70981 18.413366 39.460844 20.064979 60.194938 1.084136 13.627924-2.413896 22.123143-3.345575 33.438809-2.828916 34.362018 17.422399 45.525227 22.775319 72.535451 1.77866 8.969529-0.169396 18.540414 3.98081 27.789446-5.632423 3.56579-10.841356 6.792787-16.719404 10.028254-0.508189-10.290819 1.084136-20.869611-0.643706-31.118081-2.608701-15.499752-16.49072-31.363706-21.259222-45.618395-8.783193-26.24794 1.905707-51.674309-1.558445-78.693003-1.821009-14.186931-14.136112-30.592953-16.660116-45.203374 0.948619-0.110108 12.747064-3.057601 13.37383-3.345575z" fill="#38A7D0" p-id="4988"></path><path d="M297.713813 627.706071c-3.531911 10.096013-8.732374 19.717717-11.781505 30.017006-2.600232 8.783193-7.775285 27.15421-8.402052 35.352986-0.863921 11.358015 8.122548 32.9645 6.741969 46.567014-2.371547 23.300447-21.902928 41.120926-26.053135 64.243507-1.262002 7.029942-0.516658 14.068354-0.635236 21.106766-7.56354-4.46359-9.33373-7.343325-13.373829-10.028255-4.666865-31.60086 21.962217-51.386336 23.410554-80.259917 0.491249-9.7911-3.066071-16.507659-3.345575-20.064979-0.609826-7.800695-0.753813-19.057072 0-26.75613 1.998875-20.395302 11.874673-46.702531 23.410554-63.532043 1.194243 0.533598 9.257502 3.243937 10.028255 3.345575z" fill="#40A7CD" p-id="4989"></path><path d="M147.230703 530.726749c-28.738065 2.337667-62.193813 41.535947-91.541704 33.023789-2.481654-0.719934-7.656708-5.852639-8.385111-8.317354-9.054227-30.652242 46.253631-40.544979 68.08033-37.995566 8.359702 0.974028 27.58617 5.556195 31.846485 13.289131z" fill="#94DEF1" p-id="4990"></path><path d="M876.218759 530.726749c0.42349-4.717684 4.760033-5.412208 8.241125-6.801257 19.743127-7.834574 48.938561-9.757221 68.808735-1.693962 17.905178 7.275567 34.997254 27.094921 14.491844 41.510538-28.179057 8.156427-62.3378-34.26885-91.541704-33.023788z" fill="#98DDF1" p-id="4991"></path><path d="M929.731017 741.404797c26.781538 8.351232 79.031795 37.699123 80.437784 68.486882 1.372109 29.949247-37.682184 37.39421-53.834111 13.577105l-26.603673-82.063987z" fill="#8EDDF4" p-id="4992"></path><path d="M97.06402 741.404797c2.100513 2.303788-10.655021 23.791696-12.636956 29.153086-5.031067 13.619454-6.420116 28.407742-11.493532 42.010256-10.527974 28.263755-36.691216 35.141241-55.697469 10.333168-7.351795-46.414557 44.602018-67.123242 79.827957-81.504979z" fill="#8CDFF4" p-id="4993"></path><path d="M424.777899 590.921687c-16.761754 15.000033-14.195401 19.726187-40.129959 26.756129-7.58048 2.049694-20.793383 5.607014-26.756129 6.69115-17.303821 3.13383-42.984285 5.607014-60.194938 3.345575-0.770753-0.101638-8.842481-2.811977-10.028254-3.345575-3.10842-1.389049-16.660116-10.621141-18.379487-13.382299-5.640893-9.062696-3.387924-18.464185-5.022598-26.73919-5.607014-28.323044-10.155302-38.097204 1.626204-66.919967 21.953747-53.698594 92.295517-70.434938 137.210918-33.455748 20.386832 16.787163 26.510505 40.553449 31.821075 65.43775l-10.146832 41.629115z m-75.737039-73.340082c0-14.67818-11.900083-26.569793-26.569793-26.569794s-26.569793 11.900083-26.569793 26.569794 11.900083 26.569793 26.569793 26.569793 26.569793-11.900083 26.569793-26.569793z m12.365922 33.37952c-2.202151 13.314541 0.652175 20.657866 14.373268 22.876956 25.468718-9.985906 8.317353-34.980314-14.373268-22.876956zM317.770323 570.865178c4.963309-25.83292-28.111299-18.328668-20.06498 0-0.254094 0.152457-0.550538 3.57426-3.269346 4.946369-14.076824 7.055352-19.751596 5.683242-16.50766 26.544384l2.998313 3.802944c1.846419 2.041224 5.34445 0.88086 6.750439 1.490687 0.245624 0.101638 0.516658 2.024285 2.396956 2.67646 34.065575 11.942432 79.802548-7.284036 114.647345-12.721655 1.490687-9.198213-2.024285-12.01866-9.943557-15.13555-12.636956-4.971778-26.832357-5.285161-40.223127-4.920959l-1.973465-2.981373c-9.952026-1.050256-19.980281 0.076228-29.949248-0.355732-3.99775-0.169396-4.573697-3.303226-4.86167-3.354045z" fill="#4E2F26" p-id="4994"></path><path d="M759.182928 584.239007c-1.372109 9.672523 0.813102 17.549446-6.69115 26.756129-2.439305-0.686055-13.009628 11.696807-16.719404 13.37383-0.626766 0.287974-12.433681 3.235467-13.37383 3.345575-17.219123 2.015815-43.052043 0.076228-60.194938-3.345575-6.852076-1.363639-18.015285-4.692275-26.756129-6.69115-19.455153-4.44665-21.055947-15.736907-33.438809-26.756129-0.237155-9.181274-8.834012-16.414491-10.028254-25.087576-4.937899-35.742597 5.166584-67.699189 35.564731-88.15378 43.61952-29.339421 107.905376-10.511034 128.944384 37.334921 10.121423 23.037883 6.089793 45.177965 2.684929 69.206816z m-84.376245-66.454127c0-14.745939-11.959371-26.70531-26.70531-26.70531s-26.70531 11.959371-26.70531 26.70531 11.959371 26.70531 26.70531 26.70531 26.70531-11.959371 26.70531-26.70531zM688.959735 570.865178c-0.796162 0.110108-8.529098 6.115203-14.712059 3.769065l-2.007345 2.922085c-2.193681 0.042349-4.582167-0.262564-6.69115 0-7.758346 0.592887-16.372142-1.744781-23.410554 1.600794v1.736311c-15.025443 0.660645-23.749347 2.998313-16.49072 19.836294l85.03689 13.873548c10.66349-2.481654 22.69062-4.099388 31.770257-10.307758 5.183524-3.54885 7.368734-5.742531 9.621704-12.255815 1.702432-11.14627-15.440463-16.312854-24.714905-17.79507-6.69115-1.067196-16.372142-2.769628-21.691183-3.396394 10.959934-3.642018 7.749876-17.981406 0.084698-21.81823-17.100546-8.562978-26.425806 6.496344-16.804102 21.81823z m-51.343986-6.547163c0-5.479967-4.43818-9.918147-9.918148-9.918147s-9.918147 4.43818-9.918147 9.918147 4.43818 9.918147 9.918147 9.918147 9.918147-4.43818 9.918148-9.918147z" fill="#4E2E27" p-id="4995"></path><path d="M805.995567 333.439471c-5.751001 1.372109-6.648801-2.202151-10.028255-5.014128-16.118048-13.407709-30.025476-30.525194-46.956625-43.323077s-36.030571-21.902928-53.359802-33.599735c-1.168834-4.124797 2.947494-5.962746 5.014127-8.342763 11.849264-13.653333 43.966782-45.965658 60.711597-49.633085 13.771911-3.015252 24.02038 3.946931 29.635864 16.134988 8.00397 17.36311 9.443838 43.373896 11.59517 61.973598 0.415021 3.625079 3.396394 6.259189 3.396393 6.631861v55.172341z" fill="#FBC3B5" p-id="4996"></path><path d="M217.453896 336.785045V254.856576c0-0.736873 2.507064-1.948056 2.778097-3.904583 3.896112-27.569231 6.792787-59.559702 42.357519-54.604863 7.749876 1.075666 25.062167 15.677618 31.846485 21.648834 7.834574 6.885955 18.159272 17.278412 25.002878 25.155335 2.075103 2.388486 6.174491 4.209495 5.014127 8.342762-39.028883 24.681026-74.517386 52.478941-107.007576 85.290984z" fill="#FAC5B8" p-id="4997"></path><path d="M370.232324 377.52483c14.026005-2.549413 38.537634 6.801257 49.590736 16.04182 27.992721 23.393615 24.130488 62.727411-14.059884 69.672655-17.244533 3.13383-49.074078-12.145707-59.475004-26.231001-18.735219-25.38402-6.547163-53.944218 23.944152-59.483474z" fill="#F6EDDB" p-id="4998"></path><path d="M641.164599 377.592589c35.471563-4.793912 58.213002 32.5156 34.480595 61.245194-20.175087 24.418462-78.33727 35.014194-88.839834-1.566915-9.189744-32.032821 26.527444-55.909214 54.359239-59.678279z" fill="#F7EDDA" p-id="4999"></path><path d="M264.266534 584.239007c1.634673 8.275004-0.609826 17.676493 5.022598 26.73919 1.719371 2.761158 15.279537 11.993251 18.379487 13.382299-11.527411 16.837982-21.411679 43.145211-23.410554 63.532043-9.985906-3.243937-13.500877 8.080199-18.794508 9.613234-16.677055 4.836261-39.477783-9.875798-44.746005-26.332638 9.833449-7.741406 17.82895-29.3733 26.620612-38.588453 8.800132-9.223623 30.415087-11.984781 21.962216-28.399273-4.988718-5.623954-10.909115-9.096576-18.489594-9.926617l10.028255-16.719404c9.096576 1.050256 15.11861 0.542068 23.410554 6.69115z" fill="#F8B795" p-id="5000"></path><path d="M842.77995 580.893433l-33.438809 6.699619 16.719405 6.68268c-8.800132-0.990968-29.695153-1.202713-37.893929 0.567477-9.282911 2.007345-10.104483 8.546038-15.609859 12.814822-4.836261 3.743656-16.981969 10.22306-20.06498 3.345575 7.495782-9.198213 5.319041-17.075136 6.69115-26.756129 13.399239 1.931117 25.655054-5.666303 38.317419-6.826666 10.22306-0.940149 30.491315-1.118015 40.460282 0.084698 4.201026 0.508189 4.531348 3.328635 4.819321 3.396393z" fill="#F2D6BA" p-id="5001"></path><path d="M227.49062 574.202283l2.083574 2.972903c2.608701 0.88933 5.319041 0.237155 7.944681 0.364202 1.109545 0.059289 2.252969-0.127047 3.345575 0l-10.028255 16.719404c-7.173929-0.796162-19.565261-0.787692-26.756129 0 4.480529-5.208933-0.813102-10.129892-0.084698-16.634706l-13.297601-0.084698c13.37383-2.642581 21.623424-3.955401 36.784384-3.345575z" fill="#F7D7B9" p-id="5002"></path><path d="M237.518875 577.547858c-2.625641-0.135517-5.33598 0.516658-7.944681-0.364202l-2.083574-2.972903c2.634111 0.110108 5.32751-0.499719 7.944682 0.364202l2.083573 2.972903z" fill="#F8B795" p-id="5003"></path><path d="M561.192655 688.595533c4.980248 4.980248 19.793945 30.897866 20.751034 37.766882 0.982498 7.046882-0.152457 15.711497-0.415021 22.978594-18.066104 28.145178-33.684433 8.241125-54.808139 5.488437-6.953714-0.90627-19.743127-0.863921-26.832357-0.194806-17.888238 1.702432-43.975252 21.996096-55.739818-4.175616-12.399801-27.560761 13.263722-64.819454 38.444467-76.660248 22.097734-10.392457 43.043573-7.394144 63.794607 4.514408 1.829479 1.050256 14.093763 9.545476 14.813697 10.26541z m-99.579553 56.087081c11.485062 3.828354 19.59067-5.395269 28.373862-6.623392 21.437089-2.998313 47.422465 0.101638 66.970786 9.409959 20.352953-13.949777-3.489562-32.94756-20.869611-35.708718-8.046319-1.278941-15.762316 5.911927-22.843077 6.369297-5.471497 0.355732-9.028817-3.057601-13.297601-3.421803-20.234376-1.736311-33.066137 0.211745-40.350174 19.904053-1.211183 3.277816 2.761158 6.182961 2.007345 10.070604z" fill="#543127" p-id="5004"></path><path d="M507.409363 574.888337l9.215153-0.711464c27.213499 5.886518 56.97641 10.426336 52.030041 45.254194-1.134955 8.01244-21.301572 24.172837-29.195434 27.645459-26.798478 11.773036-73.585707 1.092605-83.071894-29.220844-5.911927-18.887676 13.915897-35.801886 30.804698-39.765756 6.504814-1.533036 13.865079 0.87239 20.225906-3.201589z" fill="#503129" p-id="5005"></path><path d="M829.406121 674.527179c8.969529 4.217965 20.327543 3.430273 30.093234 3.345575 2.329198 5.979686 7.58048 4.641456 3.946931 12.196526-10.434806 21.708122-72.230538 54.384648-95.488635 47.566452-7.961621-2.329198-10.875236-14.22928-15.465873-19.641489 0.931679-11.315666 4.429711-19.810885 3.345575-33.438809l7.59742 10.722779c13.051977 8.402051 30.948685 1.736311 44.95775-3.311695l21.013598-17.447808z" fill="#F8D1B5" p-id="5006"></path><path d="M826.060546 594.267262c41.671464 4.675335 76.795765 54.266071 33.438809 83.597023-9.765691 0.084698-21.123706 0.87239-30.093234-3.345575-14.881456-6.996063-19.793945-25.019818-28.50091-36.699686-8.749313-11.730687-24.875831-16.626237-28.339984-30.177932 5.505376-4.260314 6.326948-10.807477 15.60986-12.814822 8.198776-1.77019 29.093797-1.549975 37.893929-0.567478z m-30.093234 13.3823c-4.158677 3.819884 18.430306 22.860017 21.648834 26.823887 5.302101 6.530223 9.028817 20.327543 18.387957 25.079107 18.904615 9.613234 36.674276-9.426898 25.146865-28.49244-11.510471-19.031663-44.424152-26.180182-65.183656-23.419024z" fill="#3A95B9" p-id="5007"></path><path d="M204.080066 594.267262c7.182399-0.787692 19.57373-0.796162 26.756129 0 7.58048 0.838511 13.500877 4.302663 18.489595 9.926617 8.45287 16.414491-13.153615 19.175649-21.962217 28.399272-8.791663 9.215153-16.787163 30.847047-26.620612 38.588454-1.931117 1.524566-14.203871 6.301538-16.719404 6.691149-8.520629 1.304351-16.422961-2.21062-23.410555-6.691149-17.032787-10.909115-19.031663-31.050323-9.587824-48.040761 8.4444-15.186369 36.428652-27.052572 53.054888-28.873582z m26.747659 13.3823c-17.693433-0.90627-38.579983 1.270471-53.41062 11.789975-13.949777 9.884268-22.2756 21.310041-12.975749 37.885459 31.414524 14.415616 31.338296-8.198776 44.737536-26.188652 4.573697-6.140612 11.273317-11.485062 17.269942-16.228155 2.388486-1.888768 6.487874 0.965558 4.378891-7.258627z" fill="#3BA2C6" p-id="5008"></path><path d="M184.015087 677.872754c-5.285161 7.394144-3.303226 7.656708 1.660083 13.399239 16.219686 18.735219 29.745972 23.630769 53.39368 26.832358 8.673085 1.177304 16.617767 6.123672 25.206154-3.447213 0.279504 3.54885 3.836824 10.273879 3.345575 20.064979-11.324136 17.35464-19.912523 7.258627-32.456311 4.03163-30.821638-7.936212-37.080827-5.80182-61.329892-29.059917-3.845294-3.692837-6.835136-7.165459-11.59517-11.61211-10.849826-10.155302-11.620579-14.822167-1.626204-26.900115 6.987593 4.47206 14.889926 7.9955 23.410555 6.691149z" fill="#F9D5BB" p-id="5009"></path><path d="M829.406121 674.527179l-21.013598 17.447809c-14.009065 5.048007-31.905773 11.705277-44.95775 3.311695l-7.59742-10.722779c-1.643143-20.725624-11.705277-41.476658-20.064979-60.194938 3.709777-1.685492 14.288569-14.059884 16.719404-13.37383 3.083011 6.877486 15.228718 0.398081 20.06498-3.345574 3.472622 13.543226 19.59067 18.438776 28.339983 30.177932 8.706964 11.679868 13.619454 29.712093 28.50091 36.699685z" fill="#F8BB9D" p-id="5010"></path><path d="M264.266534 687.901009c-0.753813 7.699057-0.609826 18.955434 0 26.756129-8.588387 9.562415-16.533069 4.616046-25.206154 3.447213-23.647709-3.201588-37.173995-8.088668-53.39368-26.832358-4.963309-5.734061-6.945244-6.005095-1.660083-13.399239 2.515533-0.389611 14.788288-5.166584 16.719405-6.691149 5.259752 16.46531 28.06048 31.1689 44.746004 26.332638 5.293631-1.533036 8.808602-12.857171 18.794508-9.613234z" fill="#F9C7A8" p-id="5011"></path><path d="M322.471067 517.581605m-26.569793 0a26.569793 26.569793 0 1 0 53.139586 0 26.569793 26.569793 0 1 0-53.139586 0Z" fill="#F8F8F6" p-id="5012"></path><path d="M354.554706 577.547858c13.390769-0.364202 27.58617-0.050819 40.223127 4.920959 7.919272 3.11689 11.434243 5.937337 9.943557 15.13555-34.853267 5.437618-80.58177 24.664086-114.647345 12.721655-1.880298-0.660645-2.151332-2.574822-2.396956-2.67646-1.295881-10.485624-4.853201-16.143457 0.008469-26.73919 22.800728 6.310008 43.263788-2.710339 66.869148-3.354044z m-30.093234 10.036724c-11.095451-0.160926-16.533069 1.270471-26.756129 3.345575-1.964996 0.398081-4.522878-0.321853-6.68268 0l-0.016939 16.727874c12.298164-1.067196 26.417337 1.507626 38.410587-0.059288 21.564136-2.820447 25.180744-15.11861 52.834673-12.594607 4.734624 0.43196 6.945244 5.954276 12.408272-2.396957-0.770753-10.926055-42.797949-8.427461-51.809827-8.351232-5.496907 0.050819-15.609859-2.464715-18.404896 3.337105z" fill="#57B0D4" p-id="5013"></path><path d="M317.770323 570.865178c0.287974 0.050819 0.863921 3.184648 4.86167 3.354044 9.977436 0.43196 19.997221-0.694524 29.949248 0.355733l1.973465 2.981373c-23.60536 0.643706-44.06842 9.664053-66.869148 3.354044-4.861671 10.595732-1.304351 16.253565-0.008469 26.73919-1.405988-0.609826-4.90402 0.542068-6.750439-1.490687l-2.998313-3.802944c-3.243937-20.861141 2.439305-19.489032 16.50766-26.544384 2.727279-1.363639 3.023722-4.785443 3.269346-4.946369 0.559007-0.347262 5.446088 3.243937 8.48675 3.464152 5.293631 0.372672 10.849826-3.599669 11.57823-3.464152z" fill="#4B98BA" p-id="5014"></path><path d="M361.406782 550.961125c22.69062-12.103358 39.833515 12.89105 14.373268 22.876956-13.712622-2.21909-16.566948-9.562415-14.373268-22.876956z" fill="#F8F8F9" p-id="5015"></path><path d="M317.770323 570.865178c-0.728404-0.135517-6.293069 3.836824-11.57823 3.464152-3.040662-0.211745-7.927742-3.811414-8.48675-3.464152-8.046319-18.328668 25.028288-25.83292 20.06498 0z" fill="#F2F2F3" p-id="5016"></path><path d="M672.240331 577.547858c12.188056-0.245624 20.801853 4.793912 31.846485 6.606451 18.176212 2.981373 33.074607-5.894988 38.376708 20.141208-9.079636 6.208371-21.106766 7.826104-31.770257 10.307758l-85.03689-13.873548c-7.258627-16.846452 1.465277-19.175649 16.49072-19.836294 10.087543-0.44043 16.550008-2.473184 23.410554-3.345575 2.100513-0.262564 4.497469 0.042349 6.69115 0z m3.337105 20.048039c8.283474 4.675335 43.577171 12.823292 46.821108 1.677023 3.929992-13.517816-26.214061-12.128768-34.404367-10.993813-5.293631 0.736873-15.288007 1.880298-12.408271 9.31679z" fill="#60B5DA" p-id="5017"></path><path d="M648.101373 517.78488m-26.70531 0a26.70531 26.70531 0 1 0 53.41062 0 26.70531 26.70531 0 1 0-53.41062 0Z" fill="#F6F6F4" p-id="5018"></path><path d="M705.67914 570.865178c5.310571 0.626766 15.000033 2.329198 21.691183 3.396394 9.274442 1.473747 26.417337 6.648801 24.714904 17.79507-2.2445 6.513284-4.429711 8.706964-9.621703 12.255815-5.302101-26.036195-20.200496-17.159835-38.376708-20.141208-11.053102-1.812539-19.658428-6.860546-31.846485-6.606452l2.007345-2.922084c6.182961 2.346137 13.915897-3.658958 14.712059-3.769065 4.361952-0.609826 12.255815-0.525128 16.719405 0z" fill="#4A8FAE" p-id="5019"></path><path d="M705.67914 570.865178c-4.46359-0.525128-12.357452-0.609826-16.719405 0-9.621704-15.321886-0.296443-30.381208 16.804103-21.81823 7.665178 3.836824 10.875236 18.176212-0.084698 21.81823z" fill="#EBEDF0" p-id="5020"></path><path d="M627.697601 564.318015m-9.918147 0a9.918147 9.918147 0 1 0 19.836295 0 9.918147 9.918147 0 1 0-19.836295 0Z" fill="#E3E2E2" p-id="5021"></path><path d="M665.549181 577.547858c-6.860546 0.87239-13.323011 2.896675-23.410554 3.345575v-1.736311c7.038412-3.345575 15.652208-1.007907 23.410554-1.600794z" fill="#4A8FAE" p-id="5022"></path><path d="M461.613102 744.682614c0.753813-3.887643-3.218528-6.792787-2.007345-10.070604 7.284036-19.683838 20.115798-21.640364 40.350174-19.904053 4.268784 0.364202 7.834574 3.777535 13.297601 3.421803 7.080761-0.45737 14.788288-7.648238 22.843077-6.369297 17.38005 2.761158 41.222564 21.758941 20.869611 35.708718-19.556791-9.308321-45.533697-12.408271-66.970786-9.409959-8.783193 1.228122-16.888801 10.451745-28.373862 6.623392z" fill="#F15139" p-id="5023"></path><path d="M795.967312 607.649562c20.759504-2.761158 53.673184 4.395831 65.183656 23.419024 11.527411 19.057072-6.24225 38.097204-25.146865 28.49244-9.35914-4.760033-13.085856-18.548883-18.387957-25.079107-3.218528-3.972341-25.81598-23.004003-21.648834-26.823888z" fill="#89DCF4" p-id="5024"></path><path d="M230.827725 607.649562c2.108983 8.224185-1.990405 5.36139-4.378891 7.258627-6.005095 4.743093-12.696245 10.087543-17.269942 16.228155-13.399239 17.989876-13.323011 40.595798-44.737536 26.188652-9.299851-16.575418-0.974028-27.992721 12.975749-37.885459 14.830637-10.511034 35.717188-12.687775 53.41062-11.789975z" fill="#90E1F8" p-id="5025"></path><path d="M324.461472 587.584582c2.786567-5.80182 12.90799-3.286286 18.404897-3.337105 9.011878-0.076228 51.039074-2.574822 51.809826 8.351233-5.463027 8.351232-7.673648 2.828916-12.408271 2.396956-27.653929-2.524003-31.270538 9.77416-52.834673 12.594607-11.984781 1.566915-26.112423-1.007907-38.410588 0.059289l0.01694-16.727875c2.159801-0.313383 4.717684 0.398081 6.68268 0-11.010753 16.151927 15.474342 14.889926 25.155335 13.458528 2.752688-0.406551 21.572605-10.502564 21.640364-11.781505-5.166584-7.368734-12.586137-4.90402-20.04804-5.014128z" fill="#72C8E7" p-id="5026"></path><path d="M324.461472 587.584582c7.461902 0.110108 14.881456-2.354607 20.04804 5.014128-0.067758 1.278941-18.896146 11.374955-21.640364 11.781505-9.680993 1.439868-36.174557 2.701869-25.155335-13.458528 10.22306-2.075103 15.652208-3.506501 26.756129-3.345575z" fill="#A8DFF3" p-id="5027"></path><path d="M675.577436 597.595897c-2.871266-7.436493 7.11464-8.588387 12.408271-9.31679 8.190306-1.134955 38.334359-2.524003 34.404367 10.993813-3.235467 11.14627-38.537634 2.998313-46.821108-1.677023z" fill="#B0E7F7" p-id="5028"></path></svg>