<?xml version="1.0" standalone="no"?><!DOCTYPE svg PUBLIC "-//W3C//DTD SVG 1.1//EN" "http://www.w3.org/Graphics/SVG/1.1/DTD/svg11.dtd"><svg t="1772951645632" class="icon" viewBox="0 0 1024 1024" version="1.1" xmlns="http://www.w3.org/2000/svg" p-id="2267" xmlns:xlink="http://www.w3.org/1999/xlink" width="200" height="200"><path d="M887.161453 18.836851c47.642664-5.68324 102.383026 11.324132 121.880521 58.636473 30.160982 73.187601-58.644943 131.341295-124.023382 114.43556-11.527407 6.064382-31.355225 25.926079-45.008554 21.979149-7.724464-2.227559 2.168271-21.259215 2.837385-27.382885 1.795599-16.558472-9.469244-16.761748-18.328662-26.417328-50.42076-54.952107-4.861669-133.196183 62.642692-141.250969z m-36.106787 180.957424l29.83066-20.158141c17.837413 3.277815 32.02434 5.107294 50.242894 1.380579 44.474956-9.096573 86.815521-51.962265 67.716106-99.469412-16.888795-42.010242-74.170099-60.288085-115.77379-50.505459-53.740925 12.636952-91.389216 68.461449-53.325904 117.704907 7.284034 9.426895 17.159829 13.738027 25.138387 21.741994 1.787129 10.299285-1.380579 19.548314-3.819883 29.297062z" fill="#4F2D22" p-id="2268"></path><path d="M851.054666 199.794275c2.439304-9.757218 5.607012-18.997777 3.819883-29.297062-7.978558-8.003968-17.854353-12.315099-25.138387-21.741995-38.054842-49.234987-0.415021-105.059485 53.325904-117.704906 41.603691-9.782627 98.884995 8.495216 115.77379 50.505459 19.099415 47.507147-23.24115 90.372839-67.716106 99.469412-18.218555 3.726715-32.405481 1.897237-50.242894-1.380579l-29.83066 20.15814z m9.418425-103.687376l-5.090354 5.090354-0.050819 11.764561c20.767966 18.396421 33.802999-19.946395 5.141173-16.854915z m59.466514 10.553379c0-6.267657-5.081884-11.349541-11.349541-11.349541s-11.349541 5.081884-11.349541 11.349541 5.081884 11.349541 11.349541 11.349541 11.349541-5.081884 11.349541-11.349541z m43.551747 0.093168c0-6.369295-5.158112-11.527407-11.527407-11.527407s-11.527407 5.158112-11.527407 11.527407 5.158112 11.527407 11.527407 11.527407 11.527407-5.158112 11.527407-11.527407z" fill="#F6EFDE" p-id="2269"></path><path d="M951.972415 106.753446m-11.527407 0a11.527407 11.527407 0 1 0 23.054814 0 11.527407 11.527407 0 1 0-23.054814 0Z" fill="#533228" p-id="2270"></path><path d="M860.473091 96.106899c28.670296-3.08301 15.626794 35.251336-5.141173 16.854915l0.050819-11.764561 5.090354-5.090354z" fill="#58362B" p-id="2271"></path><path d="M908.590064 106.660278m-11.349541 0a11.349541 11.349541 0 1 0 22.699082 0 11.349541 11.349541 0 1 0-22.699082 0Z" fill="#513025" p-id="2272"></path><path d="M481.203609 1012.540004l51.708171-73.865186c10.206117-15.279532 27.052563-22.639794 36.470988-39.240615 13.306067-23.461365 8.834009-44.830688-8.78319-64.167257-8.698492-2.540942-16.643171 32.625696-31.228178 12.755529-1.956525-11.247904 4.666864-20.61551 12.797879-27.526872 3.320164-5.496905-10.502561-10.468681-14.796753-11.070038-19.074005-2.65105-28.043531 9.697929-46.168917 7.368732-5.954274-24.689487 11.256373-19.71771 17.905171-26.417328 1.405988-1.414458 13.983651-28.035061 14.627357-31.524621 2.058163-11.095447 0.965558-16.981963-8.969526-23.037875-34.802437 10.561849-76.202853 58.018177-88.331616 91.931284-5.505374 15.381169-2.769627 28.331504-5.403737 40.756711-3.243936 15.288001-26.544375 34.455174-37.004586 46.092689-13.051972 14.517249-24.884293 38.851004-47.939107 38.851004-1.643143-1.473746-6.013563-1.77019-7.140047-5.835697l0.01694-6.758905 18.210084-20.63245c-86.82399-13.331476-170.471803-40.096066-226.973885-110.96294-64.92107-81.445663-62.744329-177.315407-57.484579-275.056979 2.761157-51.242332-18.243964-91.66872-28.619477-141.123922-11.713743-55.816027-25.468709-140.759721-3.726715-194.077155 8.368169-20.530812 30.872446-36.581096 52.800776-39.528589 27.840255-3.743655 85.799144 13.229838 113.639399 22.885418 19.658422 6.818195 39.833502 18.718273 59.847655 21.445551 71.51058-35.022651 148.7044-60.245736 228.566209-67.004642 31.304406-37.470426 61.363751-83.088806 100.096178-114.105238 32.600287-26.112415 63.379565-32.02434 97.77545-5.310569 37.148573 28.839692 73.475575 101.688501 90.703162 145.663739 13.483933 34.421295 23.054814 92.55805 37.919326 120.889553 12.332039 23.503714 40.113005 52.030024 55.629691 77.320867 155.751279 253.857052-25.282374 435.780034-258.134304 523.7051-6.606449 30.059345-27.289718 42.205048-44.212392 62.888316-16.050284 19.616073-27.018684 43.797371-44.178513 62.922195-3.887641 4.328071-11.39189 13.068912-16.685519 13.068912-6.284597 1.719371-11.933958-10.866762-12.933395-11.298722zM97.106336 735.54344c45.381225 111.056108 131.764786 146.366733 245.539702 158.859698 8.79166 0.965558 11.84926 8.046317 22.33488 0.050818 1.829478-1.389048 21.360853-24.350695 22.140076-25.86679 3.845292-7.504249 0.635236-16.177331 1.829478-24.020372 5.954274-38.910293 52.402695-105.127243 87.247481-123.26957 49.624599-25.841381 77.134531 24.647138 49.319685 65.937447 24.935111 2.236029 55.26549 28.467021 65.725702 50.615566 3.591198 7.614356 2.61717 17.922111 9.952023 23.114103 52.63138-22.038438 107.549608-48.455765 153.142578-83.122685C822.596115 725.947148 866.037754 671.443941 887.457896 587.804598c0.169396-0.660645 2.981372-2.955963 3.692836-11.078507 0.42349-4.83626-0.152457-9.892734 0-14.771344l3.294755-2.17674c0.152457-11.358011 2.219089-24.13895-1.372109-34.760087h-1.922646c-0.135517-3.675896 0.254094-7.419551 0-11.078508-0.609826-8.884827-3.599668-10.443272-3.692836-11.078507-0.330322-2.363076 0.42349-5.158112 0-7.385672-10.815943-56.57831-36.555687-103.619617-68.486859-151.262281-10.95146-16.346727-30.931735-36.733552-39.418481-52.910884-12.509905-23.842506-22.097726-77.346276-33.227052-107.117647-16.956553-45.338876-52.097782-123.853986-91.634841-152.117732-22.631324-16.168861-40.748241-10.926051-60.906381 5.378327-40.426388 32.693455-72.933507 80.141313-103.704316 121.575608-68.563087 2.62564-137.625892 23.461365-200.980047 50.158197-11.154736 4.700743-29.618915 17.701896-39.325314 19.887106-12.992684 2.922083-42.289746-14.737464-56.59525-19.861697-30.381197-10.883702-74.000703-24.291406-105.372867-27.603101-33.184703-3.49803-50.928949 23.164922-53.630817 53.334374-4.751562 53.105689 3.811413 117.366114 15.77925 169.192863 11.722213 50.751083 27.713208 78.625217 25.163796 133.966935-3.574259 77.380156-8.164894 123.599892 21.996089 197.431199z" fill="#4F2D23" p-id="2273"></path><path d="M887.457896 495.483703l-28.212927-25.341662c-9.672519-5.818757-20.098852-8.715431-30.880916-11.595166-0.313383-0.084698-0.355732-3.0576-5.293629-3.769064-14.889921-2.151331-36.064438 3.96387-50.336062 9.20668-4.226434 1.549975-6.276127 5.25128-7.156987 5.640892-25.790562 11.510468-36.377821 19.700771-59.093843 36.928358-13.128201 9.960493-32.02434 29.745962-44.322499 36.928358-9.918144 5.793348-46.05034 15.508216-57.298244 15.016967-27.560752-1.202713-61.279053-26.095475-92.354774-29.695143-25.841381-2.989842-69.528645 11.662924-90.245793 27.764027-37.868507 29.415639-43.060498 78.752264-99.875962 86.629185-2.64258 0.364202-5.928865-0.728403-8.77472 0.406551l-2.303788 3.286285c-8.308881 0.330322-17.600259 0.491249-25.84985 0-35.742585-2.134391-56.747706-8.198773-94.243542-3.760594-17.905172 2.117452-17.668017 0.736873-35.022651 7.45343-37.927795 14.686645-60.931791 42.162699-59.093843 84.943693-30.169452-73.822837-25.570347-120.042573-21.996088-197.431199 2.549412-55.341718-13.441584-83.224322-25.163797-133.966935-11.967837-51.826748-20.539282-116.087173-15.77925-169.192863 2.701868-30.169452 20.446114-56.832404 53.630817-53.334374 31.372165 3.303225 74.99167 16.719399 105.372868 27.603101 14.305504 5.124233 43.611036 22.783781 56.59525 19.861697 9.697929-2.18521 28.170578-15.186364 39.325313-19.887106 63.354156-26.696831 132.416961-47.532556 200.980048-50.158197 30.770808-41.442765 63.277927-88.890623 103.704315-121.575608 20.15814-16.304378 38.283527-21.547189 60.906381-5.378327 39.537059 28.255276 74.678287 106.770386 91.634841 152.117732 11.129326 29.762901 20.717148 83.275141 33.227053 107.117647 8.486747 16.177331 28.458551 36.564156 39.418481 52.910884 31.931172 47.642664 57.670915 94.683971 68.486858 151.262281zM699.097861 218.487138c3.819883-3.845292-19.446677-74.686757-23.952614-84.994512-5.048005-11.552817-25.494119-46.363723-36.886009-48.040744-24.401514-3.599668-35.556249 11.603635-48.023805 29.712082-4.505937 6.547161-28.704176 47.871349-24.105071 51.615003 25.714334 5.039535 52.572091 14.305504 76.465417 25.112978 14.822162 6.708087 29.203894 17.303815 42.831813 23.647701 4.734622 2.20215 8.088666 3.972339 13.670269 2.939023zM108.167904 392.0843c17.134419-44.500365 49.641538-81.327086 81.250857-116.341267-17.286876-15.440458-75.338932-47.524086-96.098429-37.021526-4.353481 2.20215-12.975744 14.127638-14.076819 19.158703-5.903455 27.001744 4.065507 77.62578 12.213462 104.746102 2.490123 8.275001 5.522314 16.643171 8.639203 24.706427 2.066633 5.344448 0.177866 5.70018 8.063256 4.743092z m438.270157-80.657971c-28.06894 6.166019-54.647194 40.511086-45.101722 69.74886 1.685492 5.158112 14.432551 20.149671 19.107885 21.51331 38.071782 11.112387 90.034047-30.753869 77.278518-69.892847-7.114638-21.835162-31.304406-25.765153-51.284681-21.377792z m-254.619334 77.608841c-18.049158 2.769627-40.392509 9.545472-43.289183 30.745399-2.566351 18.769092 1.575384 34.302718 18.489588 44.28015 32.363132 19.090945 95.319207 10.756655 88.59418-36.911418-3.421802-24.223648-36.479458-35.869632-57.416821-38.901823l-6.386234 0.787692z m388.58627 54.985986c-39.977489-18.802971-95.217569-4.294192-121.719595 31.075722-10.09601 13.475463-11.112387 33.481147 9.054223 27.518402 1.73631-0.508188 14.534189-18.650515 20.725618-23.588412 12.340509-9.850385 37.631352-20.031093 53.334374-20.717147 11.933958-0.516658 25.485649 7.241685 38.842534 3.94693l-0.237154-18.235495z m-384.995072 55.875316c-47.109066 8.139484-60.169508 77.219229-22.360291 102.18822 26.917046 17.769655 63.108531 8.122545 80.641032-18.049158 27.18808-40.587315-11.501998-92.219257-58.280741-84.139062z" fill="#F7C27D" p-id="2274"></path><path d="M295.409925 499.896472c46.778743-8.080196 85.477291 43.551747 58.280741 84.139062-17.5325 26.171703-53.723985 35.827283-80.641032 18.049158-37.809218-24.960521-24.740306-94.048736 22.360291-102.18822z" fill="#533228" p-id="2275"></path><path d="M699.097861 218.487138c-5.590073 1.033316-8.944116-0.728403-13.670269-2.939023-13.619449-6.343885-28.009651-16.939614-42.831813-23.6477-23.884855-10.815943-50.751083-20.073442-76.465417-25.112978-4.599105-3.743655 19.599133-45.067842 24.105071-51.615003 12.467556-18.108447 23.622291-33.31175 48.023805-29.712083 11.39189 1.677022 31.838004 36.487928 36.886009 48.040745 4.497467 10.299285 27.764027 81.14922 23.952614 84.994512z" fill="#F8C8B8" p-id="2276"></path><path d="M108.167904 392.0843c-7.89386 0.957088-5.996623 0.609826-8.063256-4.743091-3.125359-8.063256-6.15755-16.431425-8.639203-24.706427-8.147954-27.120322-18.116917-77.744357-12.213462-104.746102 1.101075-5.031065 9.723338-16.965023 14.076819-19.158703 20.759497-10.502561 78.811553 21.581068 96.098429 37.021526-31.609319 35.014182-64.116438 71.840902-81.250857 116.341267z" fill="#F8C8B9" p-id="2277"></path><path d="M291.818727 389.03517l6.386234-0.787692c20.928893 3.032191 53.995019 14.678175 57.416821 38.901823 6.725027 47.659603-56.231048 56.002363-88.59418 36.911418-16.914204-9.977433-21.05594-25.511058-18.489589-44.28015 2.896674-21.199927 25.240025-27.967302 43.289183-30.745399z" fill="#F7EDDB" p-id="2278"></path><path d="M546.438061 311.426329c19.980274-4.38736 44.170043-0.45737 51.284681 21.377793 12.755529 39.130508-39.206736 80.996763-77.278518 69.892846-4.683803-1.363639-17.422393-16.355197-19.107885-21.513309-9.545472-29.237773 17.032782-63.58284 45.101722-69.74886z" fill="#F7EDDC" p-id="2279"></path><path d="M680.404997 444.021156l0.237154 18.235495c-13.356885 3.303225-26.908576-4.463588-38.842534-3.94693-15.703022 0.686054-40.993865 10.866762-53.334374 20.717147-6.191429 4.946367-18.989307 23.080224-20.725618 23.588412-20.17508 5.962744-19.158703-14.05141-9.054223-27.518402 26.510496-35.369914 81.742106-49.878693 121.719595-31.075722z" fill="#563429" p-id="2280"></path><path d="M411.031258 868.502468c-1.990405 7.834571 5.861106 9.22362 11.315662 12.679301 35.208987 22.309471 70.892284 43.85666 110.56486 57.493049l-51.708171 73.865186c-6.13214-2.64258-38.410574 1.202713-49.768586-0.084698-45.62685-5.191992-73.619561-30.457426-105.347458-59.000675 23.054814 0 34.887135-24.333755 47.939107-38.851004 10.460212-11.637515 33.76065-30.804688 37.004586-46.092689z" fill="#F7C37F" p-id="2281"></path><path d="M828.364053 458.555345c10.773594 2.879734 21.208396 5.776408 30.880916 11.595166l28.212927 25.341662c0.42349 2.227559-0.330322 5.022595 0 7.385671l0.406551 8.77472 3.286285 2.303788c0.254094 3.658957-0.135517 7.402611 0 11.078507 0.45737 12.137233 0.381141 24.791125 0 36.928358-0.152457 4.878609 0.42349 9.935083 0 14.771343l-3.269346 2.320727-0.42349 8.757781c-21.420142 83.639343-64.861781 138.15102-133.119955 190.037057-45.59297 34.66692-100.511198 61.084247-153.142578 83.122685-7.343323-5.200461-6.360825-15.508216-9.952023-23.114103-10.460212-22.148545-40.79059-48.379537-65.725702-50.615566 27.814846-41.281839 0.304913-91.770358-49.319685-65.937447-34.844786 18.142326-81.284737 84.359277-87.247481 123.26957-1.202713 7.843041 2.015814 16.507654-1.829478 24.020372-0.779222 1.516095-20.310597 24.469272-22.140076 25.86679-10.485621 7.995498-13.543221 0.914739-22.33488-0.050819-113.774916-12.492965-200.158476-47.80359-245.539702-158.859698-1.846418-42.780995 21.157578-70.257048 59.093843-84.943693-0.88933 12.865637-12.73859 21.513309-17.718836 32.134447-12.984214 27.670859-17.312285 59.940823 1.202712 85.943131 3.481091 4.895548 9.452304 8.385109 12.899516 12.950335 5.945804 7.88539 15.135545 24.367634 22.148545 29.559626 19.082475 14.119168 55.832967 10.214587 77.64272 3.896111 52.309527-15.144015 81.953851-64.311244 65.674882-117.671027-6.496342-21.301564-23.037875-31.956581-32.574877-50.522398 8.258062 0.491249 17.54944 0.330322 25.849851 0 2.905144-0.118577 5.886516 0.550537 8.77472-0.406551l2.303787-3.286285c56.815465-7.88539 62.015926-57.213546 99.875963-86.629185 20.717148-16.092633 64.395942-30.753869 90.245792-27.764027 31.075721 3.599668 64.794023 28.49243 92.354775 29.695143 11.256373 0.491249 47.38857-9.22362 57.298243-15.016968 7.233215 12.755529 2.21062 28.483961 3.777534 42.382914 8.850948 78.269485 92.659687 105.355928 156.369575 67.902442 8.79166-5.166582 43.517868-32.845911 48.421886-40.214643 8.503686-12.763999 11.230964-37.690641 8.622263-52.749958-6.216838-35.903511-26.341099-77.371686-58.424728-96.691315l7.419551-5.573133zM599.323535 621.073999l-16.702459 3.53191c0.084698 16.321318-6.758906 33.582784-23.68158 39.105098-21.50484 7.013-46.821092-3.04913-51.183043-26.137824 18.930018-19.30269 53.368253-47.701952 25.240025-73.856716-22.919297-21.310034-78.752264-5.437616-99.909842 14.762874-27.323597 26.087005-3.879172 56.180229 27.857194 60.982609 7.377202 1.118015 18.210085-2.168271 24.096601 1.75325 14.627356 30.787748-10.917581 54.647194-42.713236 50.090438-13.17902-1.888767-17.227587-23.69005-25.375542-22.046907l-9.545472 3.565789c-1.76172 29.305532 27.315127 43.246834 53.630817 40.705891 21.733524-2.100512 35.937391-20.530812 48.066154-37.021525 43.145196 26.552845 105.211941-0.787692 90.220383-55.434887z" fill="#F9EFDC" p-id="2282"></path><path d="M411.031258 868.502468c2.63411-12.425207-0.093168-25.375541 5.403737-40.756711 12.128763-33.913107 53.52071-81.360965 88.331616-91.931284 9.926614 6.055912 11.027689 11.942428 8.969526 23.037875-0.652175 3.48956-13.229838 30.110163-14.627357 31.524621-6.640329 6.699617-23.850976 1.719371-17.905171 26.417328 18.125387 2.329197 27.094912-10.019782 46.168917-7.368732 4.285722 0.592886 18.116917 5.573133 14.796753 11.070038-8.131015 6.919832-14.754404 16.287439-12.797879 27.526872 14.585007 19.870167 22.529686-15.304941 31.228178-12.755529 17.617198 19.336569 22.089256 40.697422 8.78319 64.167257-9.418425 16.609291-26.256401 23.969553-36.470988 39.240615-39.672575-13.636389-75.355872-35.175108-110.56486-57.493049-5.446086-3.455681-13.297597-4.84473-11.315662-12.679301z" fill="#F7EEDB" p-id="2283"></path><path d="M891.150732 561.963217c0.381141-12.145703 0.45737-24.799595 0-36.928358h1.922646c3.591198 10.621138 1.524565 23.393607 1.372109 34.751618l-3.294755 2.17674zM887.457896 587.813068l0.42349-8.757781 3.269346-2.320727c-0.711464 8.122545-3.52344 10.417862-3.692836 11.078508zM891.150732 513.956352l-3.286285-2.303788-0.406551-8.77472c0.093168 0.635236 3.08301 2.19368 3.692836 11.078508z" fill="#F8E2CA" p-id="2284"></path><path d="M285.457902 646.90691c9.537003 18.557347 26.078535 29.220834 32.574877 50.522399 16.278969 53.359783-13.365355 102.527012-65.674883 117.671027-21.809753 6.310006-58.560245 10.214587-77.64272-3.896112-7.013-5.191992-16.202741-21.674236-22.148545-29.559626-3.447211-4.565226-9.418425-8.063256-12.899515-12.950334-18.506528-26.002307-14.178457-58.272271-1.202713-85.943131 4.980246-10.629608 16.829506-19.268811 17.718836-32.134447 17.346165-6.716557 17.11748-5.335978 35.022651-7.45343 37.495835-4.438179 58.500956 1.626203 94.243542 3.760594z m-71.222607 22.656734c-18.760622 2.913614-34.014744 15.660673-41.502053 32.668045-7.47037 16.973493-6.716557 26.679892 1.134954 43.348472 27.323597 58.052056 113.774916 28.416202 103.467161-29.610445-2.439304-13.738027-25.43483-38.749367-38.715488-42.526901-3.896111-1.109545-21.343913-4.345011-24.384574-3.870701z" fill="#F9D5B9" p-id="2285"></path><path d="M828.364053 458.555345l-7.419551 5.573133c32.083628 19.328099 52.20789 60.787804 58.424728 96.691315 2.608701 15.059317-0.118577 39.985958-8.622263 52.749958-4.912488 7.368732-39.638696 35.048061-48.421886 40.214643-63.709887 37.445016-147.518627 10.358574-156.369575-67.902442-1.575384-13.898953 3.455681-29.627384-3.777534-42.382914 12.29816-7.182396 31.185829-26.976335 44.3225-36.928358 11.120856-1.278941 8.088666 2.811976 4.328071 9.867325-8.664612 16.21968-20.234369 30.635292-19.345039 51.132224 0.618296 14.263155 12.71318 44.830688 22.275592 55.477235 3.879172 4.319602 20.056503 12.907986 25.799032 14.830632 16.414486 5.479965 36.360881 5.005656 53.148038 1.067196 19.336569-4.548286 45.686138-27.289718 54.943638-44.771399 6.835134-12.891046 8.34276-30.076284 5.869576-44.407198-3.133829-18.218555-33.862288-60.694636-50.852721-67.334964-11.518937-4.505937-30.601412-1.702431-37.072345-12.789409 0.88086-0.398081 2.930553-4.090917 7.156987-5.640891 14.280094-5.24281 35.446142-11.349541 50.336063-9.20668 4.937897 0.711464 4.980246 3.684366 5.293629 3.769064z" fill="#F8E2CA" p-id="2286"></path><path d="M765.577375 469.633852c6.470932 11.078507 25.553407 8.283471 37.072345 12.789409 16.990433 6.640329 47.718892 49.11641 50.85272 67.334964 2.464714 14.330913 0.965558 31.516151-5.869576 44.407198-9.265969 17.473212-35.615538 40.223113-54.943637 44.771399-16.778687 3.94693-36.733552 4.421239-53.148039-1.067195-5.742529-1.922646-21.91986-10.51103-25.799031-14.830632-9.553942-10.638077-21.648826-41.21408-22.275592-55.477235-0.88933-20.488463 10.680426-34.912544 19.345038-51.132225 3.769064-7.046879 6.801255-11.146266-4.328071-9.867325 22.716022-17.227587 33.303281-25.42636 59.093843-36.928358z m43.560217 52.470454c-0.736873-0.736873-14.788283-10.273876-16.541533-11.163205-24.968991-12.662361-51.894507 0.033879-63.201699 24.071191-7.800692 16.592352-10.189178 31.922702-2.532473 49.048651 12.560724 28.102819 43.492458 33.684422 69.359249 21.470961 26.76459-12.636952 37.072345-42.96733 22.885418-69.393128-0.516658-0.965558-9.367606-13.433114-9.977432-14.04294z" fill="#F8D2B5" p-id="2287"></path><path d="M322.38626 643.214075l-2.303788 3.286285c-2.888204 0.957088-5.869576 0.287973-8.77472 0.40655l2.303788-3.286285c2.845855-1.134954 6.13214-0.033879 8.77472-0.40655z" fill="#F9D5B9" p-id="2288"></path><path d="M599.323535 621.073999c15.000028 54.647194-47.066717 81.987731-90.220383 55.434887-12.120294 16.482244-26.32416 34.912544-48.066154 37.021525-26.31569 2.549412-55.401007-11.40036-53.630817-40.705891l9.545472-3.565789c8.139484-1.643143 12.196522 20.15814 25.375542 22.046907 31.804125 4.556756 57.340593-19.30269 42.713236-50.090438-5.886516-3.921521-16.719399-0.635236-24.096601-1.75325-31.736366-4.802381-55.189262-34.895604-27.857194-60.982609 21.157578-20.200489 76.990545-36.072908 99.909842-14.762874 28.128229 26.154764-6.310006 54.554026-25.240025 73.856716 4.353481 23.080224 29.678203 33.150824 51.183043 26.137824 16.922674-5.522314 23.766278-22.783781 23.68158-39.105098l16.702459-3.53191z" fill="#543229" p-id="2289"></path><path d="M214.235295 669.563644c3.040661-0.474309 20.496933 2.761157 24.384574 3.870702 13.280657 3.777534 36.276183 28.797343 38.715488 42.5269 10.307755 58.026647-76.143564 87.662501-103.467161 29.610445-7.843041-16.66858-8.605324-26.366509-1.134954-43.348472 7.487309-17.007372 22.732962-29.745962 41.502053-32.668045z" fill="#F9BD9B" p-id="2290"></path><path d="M809.137592 522.104306c0.609826 0.609826 9.452304 13.077382 9.977432 14.04294 14.186927 26.425797 3.879172 56.756176-22.885418 69.393128-25.87526 12.213462-56.798525 6.631859-69.359249-21.470961-7.656705-17.12595-5.26822-32.4563 2.532473-49.048652 11.307192-24.037312 38.232708-36.733552 63.201699-24.071191 1.75325 0.88933 15.79619 10.417862 16.541532 11.163206z" fill="#F9BF9D" p-id="2291"></path></svg>