<?xml version="1.0" standalone="no"?><!DOCTYPE svg PUBLIC "-//W3C//DTD SVG 1.1//EN" "http://www.w3.org/Graphics/SVG/1.1/DTD/svg11.dtd"><svg t="1772951607182" class="icon" viewBox="0 0 1024 1024" version="1.1" xmlns="http://www.w3.org/2000/svg" p-id="6858" xmlns:xlink="http://www.w3.org/1999/xlink" width="200" height="200"><path d="M378.6752 882.9952l-4.5824 12.398933-10.760533-0.145066-6.510934-21.4016c-24.797867-1.698133-51.345067 1.723733-75.921066-0.017067-19.6096-1.390933-47.872-7.765333-67.3024-13.2864-161.979733-46.0288-191.214933-173.713067-175.957334-326.314667 1.877333-18.816-15.9232-59.844267-20.983466-81.186133C5.956267 407.8592-6.749867 331.153067 4.206933 286.8992c5.248-21.205333 21.6064-42.564267 44.407467-45.482667 34.338133-4.394667 81.28 10.922667 113.9712 22.306134 11.665067 4.061867 22.8352 10.538667 34.798933 13.952 61.3376-30.3616 126.267733-51.831467 194.858667-58.3936 30.779733-35.729067 57.198933-84.053333 100.053333-107.6224 39.278933-21.6064 69.981867 6.306133 92.373334 36.846933 33.373867 45.5168 53.973333 107.579733 71.509333 160.964267 2.816 8.576 3.370667 18.926933 6.9888 27.101866 9.710933 21.922133 41.8304 56.064 55.978667 80.401067 17.570133 30.225067 34.9184 70.528 40.712533 104.968533 21.6064 128.324267-79.1296 228.6336-181.742933 286.173867-14.762667 8.277333-31.6672 16.273067-47.530667 22.2208 0.725333 9.489067 4.2752 16.1792 3.003733 26.2656-1.501867 11.912533-28.6464 60.3392-38.980266 63.3856l-13.653334-5.998933 0.2816-8.9856c11.400533-2.184533 32.384-38.4768 33.800534-48.349867 0.699733-4.829867 0.0256-10.299733-0.290134-15.197867l-11.8016-9.890133-3.396266-22.954667c5.623467-1.373867 9.873067-5.777067 15.496533-6.1952l7.739733 12.3904c27.255467-15.2832 56.081067-27.562667 82.0736-45.013333 85.376-57.309867 152.209067-140.893867 133.358934-249.4464-13.056-75.2128-50.986667-108.0576-88.260267-167.466667-12.014933-19.1488-18.397867-60.3904-27.093333-84.497066-13.1584-36.497067-49.109333-114.875733-80.008534-136.968534-31.872-22.784-62.941867 10.8288-83.669333 33.954134-20.002133 22.314667-36.130133 48.682667-54.493867 72.593066-72.379733 3.1744-143.402667 28.074667-207.377066 61.568-36.6336-14.293333-81.698133-35.515733-120.951467-39.5008-22.391467-2.269867-40.635733-0.827733-49.570133 21.5808-6.673067 16.7424-8.8832 42.717867-7.842134 60.6208 1.621333 27.690667 7.441067 61.371733 13.252267 89.0368 8.029867 38.263467 26.427733 76.552533 24.021333 115.336534-4.113067 66.321067-7.697067 112.768 18.6624 175.197866 17.1008 40.507733 37.2224 66.4064 74.3936 89.890134 39.944533 25.2416 94.455467 40.149333 141.098667 43.332266 10.734933 0.733867 57.693867 1.834667 63.035733-3.4816 3.746133-10.197333 4.189867-20.189867 8.149334-30.592 10.939733-28.7488 31.214933-82.577067 49.783466-105.207466 14.1824-17.288533 41.437867-23.8336 55.569067-3.1488 11.707733 17.143467 2.449067 36.1216-4.5568 52.608-1.621333 3.8144-2.338133 7.0144-3.6864 10.24-2.013867 4.8128-7.6544 7.594667-5.6064 14.557866-4.369067 1.937067-17.672533 14.318933-18.7648-1.553066-0.853333-12.407467 35.259733-62.011733 10.692267-69.4272-2.8416-0.631467-5.845333-0.8448-8.6528 0-18.5856 5.589333-42.564267 73.838933-49.8688 92.731733-11.4176 29.525333-20.992 36.923733-7.799467 71.236267z" fill="#502E24" p-id="6859"></path><path d="M453.0688 790.007467c8.4224-3.729067 13.269333-2.7904 21.691733 0 2.602667 2.4832-8.576 18.551467 1.698134 21.572266 2.065067 0.605867 19.626667-2.133333 23.108266-2.978133l3.396267 22.954667 11.8016 9.890133c0.315733 4.898133 0.989867 10.368 0.290133 15.197867-1.425067 9.873067-22.408533 46.165333-33.800533 48.349866l-0.2816 8.9856-1.595733 3.012267c-32.3584 0.3328-69.256533-2.9184-96.1024-21.546667-2.056533-3.0464-0.802133-7.492267-2.030934-10.3424-0.759467-1.757867-2.500267-1.9712-2.56-2.133333-13.192533-34.321067-3.618133-41.719467 7.799467-71.236267 7.304533-18.8928 31.2832-87.1424 49.8688-92.731733 2.807467-0.8448 5.8112-0.631467 8.6528 0 24.567467 7.415467-11.5456 57.019733-10.692267 69.4272 1.092267 15.872 14.395733 3.490133 18.7648 1.553067z" fill="#F8EFDD" p-id="6860"></path><path d="M738.235733 520.337067c-15.428267-14.549333-19.1232-23.3472-40.2944-30.993067-0.187733-0.068267-0.4096-2.090667-2.090666-2.594133-20.036267-5.981867-34.781867-1.160533-53.700267 5.691733-22.7072 8.226133-41.2928 22.741333-60.501333 37.137067-4.266667 3.2-8.311467 10.5472-10.786134 12.458666-3.012267 2.321067-14.429867 9.847467-18.594133 12.398934-10.9568 6.698667-35.5328 16.290133-48.093867 15.709866-25.070933-1.169067-50.167467-19.0464-74.410666-21.8368-26.368-3.029333-59.8272 4.864-80.571734 21.563734-33.604267 27.050667-38.843733 70.0928-91.383466 74.4448-15.300267 1.271467-35.5328 0.622933-51.182934 0.042666-3.3536-0.128-5.717333-3.140267-6.161066-3.140266H150.869333c-2.3808 0-17.134933 5.239467-20.1472 6.1952-38.101333 12.091733-55.6544 32.861867-55.790933 74.3936-26.359467-62.421333-22.775467-108.868267-18.6624-175.197867 2.4064-38.792533-15.991467-77.073067-24.021333-115.336533-5.802667-27.665067-11.630933-61.346133-13.252267-89.0368-1.0496-17.902933 1.160533-43.8784 7.842133-60.6208 8.9344-22.408533 27.170133-23.8592 49.570134-21.5808 39.253333 3.985067 84.317867 25.207467 120.951466 39.5008 63.982933-33.493333 134.997333-58.402133 207.377067-61.568 18.3552-23.918933 34.491733-50.286933 54.493867-72.593067 20.736-23.125333 51.797333-56.738133 83.669333-33.954133 30.8992 22.084267 66.850133 100.471467 80.008533 136.968533 8.686933 24.106667 15.069867 65.348267 27.093334 84.497067 37.2736 59.400533 75.204267 92.245333 88.260266 167.466666zM580.1472 287.854933c3.822933-4.087467-17.902933-62.830933-22.331733-72.209066-3.080533-6.519467-12.714667-25.130667-16.477867-30.020267-6.826667-8.874667-22.621867-12.945067-32.5632-7.893333-2.500267 1.271467-17.288533 16.938667-19.933867 20.360533-9.813333 12.663467-14.583467 28.450133-23.364266 41.719467-0.0256 4.053333 34.4064 12.177067 41.1648 14.600533 10.197333 3.652267 23.586133 8.7296 33.28 13.218133 5.538133 2.56 37.256533 23.389867 40.2176 20.215467zM84.189867 433.544533c7.125333-22.613333 23.867733-41.582933 35.797333-61.866666l29.312-35.7632c-20.215467-15.061333-49.954133-33.134933-76.014933-29.533867-6.237867 0.861867-12.117333 8.8064-13.3632 14.532267-6.877867 31.4624 5.9648 78.848 17.501866 108.654933 1.7408 4.488533 0.145067 4.7872 6.766934 3.976533z m405.495466-61.422933c-0.7424-0.776533-11.639467-6.596267-13.303466-6.843733-17.774933-2.645333-30.037333 1.314133-43.52 12.416-34.013867 28.023467-22.126933 74.8032 24.3456 64.64 13.115733-2.8672 35.84-25.685333 38.741333-38.741334 1.826133-8.209067-0.5888-25.565867-6.272-31.470933z m-260.744533 62.020267c-22.843733 3.874133-37.751467 27.554133-23.978667 47.581866 19.012267 27.639467 78.702933 27.784533 86.510934-6.8352 1.527467-6.775467-3.908267-22.144-8.772267-27.502933-11.221333-12.373333-37.9904-15.914667-53.76-13.2352z m260.2752 15.402666c-19.4816 4.258133-38.0672 30.574933-36.1728 50.517334 5.521067 58.333867 88.721067 59.4176 98.6112 2.6368 6.135467-35.268267-29.3632-60.381867-62.429867-53.154134zM300.049067 572.0064c0-26.999467-21.888-48.896-48.896-48.896s-48.896 21.888-48.896 48.896 21.888 48.896 48.896 48.896 48.896-21.888 48.896-48.896z" fill="#F7C27E" p-id="6861"></path><path d="M697.941333 489.335467c21.179733 7.6544 24.866133 16.443733 40.2944 30.993066 18.8416 108.552533-47.982933 192.136533-133.358933 249.4464-26.001067 17.450667-54.818133 29.730133-82.0736 45.013334l-7.739733-12.3904c-8.9344-12.1344-20.181333-22.792533-33.194667-30.344534l-19.498667-6.852266c7.0144-16.4864 16.264533-35.464533 4.5568-52.608-14.1312-20.6848-41.378133-14.139733-55.569066 3.1488-18.56 22.6304-38.843733 76.458667-49.783467 105.207466-3.959467 10.402133-4.4032 20.4032-8.149333 30.592-5.341867 5.316267-52.3008 4.215467-63.035734 3.4816-46.6432-3.182933-101.154133-18.090667-141.098666-43.332266 7.8592-6.673067 20.2496-5.2224 29.3888-6.306134 15.8464-1.8688 36.6336-3.549867 52.224-9.719466 3.157333-1.245867 29.9264-24.891733 33.134933-28.859734 20.283733-25.1136 22.971733-65.109333 10.752-94.557866-0.580267-1.408-7.662933-14.3872-8.2688-14.984534-2.321067-2.295467-10.939733-3.054933-11.835733-9.847466l3.0976-3.0976c52.539733-4.352 57.7792-47.394133 91.383466-74.4448 20.753067-16.708267 54.203733-24.6016 80.571734-21.563734 24.2432 2.7904 49.339733 20.667733 74.410666 21.8368 12.561067 0.580267 37.1456-9.002667 48.093867-15.709866l0.0768 38.673066c4.130133 21.9136 14.1824 43.835733 32.4096 57.480534 24.746667 18.525867 78.993067 16.034133 103.825067-1.6896 13.312-9.506133 44.526933-49.3568 46.523733-65.058134 1.7152-13.4656-3.985067-12.987733-5.717333-18.986666-1.152-3.9936 0.341333-8.439467-0.494934-11.904-6.152533-25.582933-28.714667-44.0064-46.429866-62.062934l15.496533-1.544533zM354.449067 625.152c0.512 0.529067 11.0336 6.690133 12.706133 7.441067 30.805333 13.832533 65.245867 3.345067 78.199467-28.526934 4.258133-10.478933 6.724267-14.805333-0.136534-24.746666-18.5856-26.914133-86.8352-6.7584-96.1536 21.435733-2.2272 6.741333 0.938667 19.746133 5.384534 24.3968z m69.768533 32.162133c-13.832533 2.346667-35.780267 15.8976-43.912533 27.374934-6.673067 9.412267-5.4784 14.830933 5.930666 18.449066 9.668267-8.712533 22.058667-23.586133 34.8416-27.264 3.1232-0.896 18.6368-3.9424 20.983467-3.7632 5.845333 0.443733 22.0928 7.671467 26.530133 4.804267 3.874133-2.500267 3.9936-8.2688 2.850134-12.228267-3.0464-10.496-37.8112-8.968533-47.223467-7.3728z" fill="#F9F0DD" p-id="6862"></path><path d="M130.696533 647.415467l10.8544 3.106133c-6.493867 4.539733-17.7152 11.886933-21.6832 18.619733-2.269867 3.848533-13.073067 38.203733-13.431466 42.350934-0.136533 1.570133 5.162667 24.32 6.186666 26.845866 2.688 6.613333 27.144533 33.3056 33.646934 37.649067 4.138667 2.7648 12.8 6.365867 17.570133 7.2192 11.767467 2.0992 42.606933-2.2528 53.717333-7.074133 7.7056-3.345067 25.216-16.384 29.354667-23.338667 4.360533-7.330133 13.021867-31.291733 13.346133-39.304533 0.264533-6.6304-9.6256-38.0416-13.346133-44.3392-5.213867-8.814933-17.476267-13.4144-23.2192-21.717334h30.993067c0.904533 6.792533 9.514667 7.543467 11.835733 9.838934 0.605867 0.597333 7.688533 13.576533 8.2688 14.984533 12.219733 29.448533 9.531733 69.444267-10.752 94.557867-3.208533 3.968-29.9776 27.613867-33.134933 28.859733-15.5904 6.1696-36.3776 7.850667-52.224 9.719467-9.1392 1.0752-21.521067-0.366933-29.3888 6.306133-37.162667-23.483733-57.2928-49.3824-74.3936-89.890133 0.145067-41.531733 17.698133-62.301867 55.790933-74.3936z" fill="#FAE5CE" p-id="6863"></path><path d="M462.3616 765.2096l19.498667 6.852267c13.013333 7.552 24.260267 18.210133 33.194666 30.344533-5.632 0.426667-9.873067 4.821333-15.496533 6.1952-3.4816 0.853333-21.0432 3.592533-23.108267 2.978133-10.274133-3.0208 0.904533-19.089067-1.698133-21.572266-8.4224-2.798933-13.2608-3.7376-21.691733 0-2.039467-6.971733 3.601067-9.7536 5.6064-14.557867 1.348267-3.2256 2.065067-6.417067 3.6864-10.24z" fill="#5D392E" p-id="6864"></path><path d="M697.941333 489.335467l-15.496533 1.544533c17.7152 18.056533 40.2688 36.48 46.429867 62.062933 0.836267 3.464533-0.657067 7.9104 0.494933 11.904 1.732267 5.998933 7.441067 5.521067 5.717333 18.986667-2.005333 15.701333-33.211733 55.552-46.523733 65.058133-24.832 17.723733-79.069867 20.215467-103.825067 1.6896-18.2272-13.6448-28.288-35.5584-32.4096-57.480533l-0.0768-38.673067c4.1728-2.551467 15.581867-10.077867 18.594134-12.398933l3.754666 47.3856c3.217067 7.133867 3.1744 17.322667 7.1168 23.8848 1.7664 2.935467 5.5808 4.974933 7.876267 7.714133 2.030933 2.423467 2.423467 6.1952 3.5072 7.236267s24.3456 12.032 26.2912 12.458667c7.330133 1.6128 25.728 1.373867 33.7152 0.631466 30.404267-2.824533 64.8704-48.529067 59.716267-78.574933-3.950933-23.005867-30.839467-50.944-51.950934-59.613867-5.154133-2.116267-11.016533-1.6384-15.735466-2.7136-7.406933-1.6896-6.417067-2.7648-3.012267-8.004266 18.9184-6.852267 33.672533-11.6736 53.700267-5.691734 1.681067 0.503467 1.902933 2.525867 2.090666 2.594134z" fill="#FAE3CB" p-id="6865"></path><path d="M257.783467 644.317867l-3.0976 3.0976h-30.993067c5.742933 8.302933 18.005333 12.9024 23.2192 21.725866 3.720533 6.2976 13.610667 37.7088 13.346133 44.3392-0.324267 8.0128-8.977067 31.982933-13.346133 39.304534-4.138667 6.954667-21.649067 19.9936-29.354667 23.338666-11.1104 4.821333-41.949867 9.173333-53.717333 7.074134-4.770133-0.853333-13.431467-4.445867-17.570133-7.2192-6.5024-4.343467-30.958933-31.035733-33.646934-37.649067-1.024-2.517333-6.3232-25.2672-6.186666-26.845867 0.3584-4.1472 11.1616-38.493867 13.431466-42.350933 3.968-6.724267 15.1808-14.071467 21.6832-18.619733l-10.8544-3.106134c3.012267-0.955733 17.7664-6.1952 20.1472-6.1952h49.595734c0.443733 0 2.807467 3.012267 6.161066 3.140267 15.650133 0.580267 35.882667 1.2288 51.182934-0.042667z m-84.650667 9.9072c-17.442133 3.0208-34.056533 16.9472-41.941333 32.426666-6.417067 12.5952-2.696533 26.043733-3.6608 39.8848l1.544533 4.650667c22.0672 20.232533 27.844267 38.417067 62.020267 33.962667 33.220267-4.3264 52.206933-38.638933 44.945066-69.6576-2.679467-11.460267-17.911467-28.0576-27.9296-34.048-9.258667-5.538133-24.507733-9.045333-34.978133-7.227734z" fill="#FAD6BB" p-id="6866"></path><path d="M300.049067 572.0064c0 26.999467-21.888 48.896-48.896 48.896s-48.896-21.888-48.896-48.896 21.888-48.896 48.896-48.896 48.896 21.888 48.896 48.896z m-20.829867-26.8288c0-8.2432-6.6816-14.9248-14.9248-14.9248s-14.9248 6.6816-14.9248 14.9248 6.6816 14.9248 14.9248 14.9248 14.9248-6.6816 14.9248-14.9248z" fill="#533129" p-id="6867"></path><path d="M489.216 449.544533c33.066667-7.236267 68.565333 17.885867 62.429867 53.154134-9.8816 56.789333-93.0816 55.7056-98.6112-2.6368-1.885867-19.950933 16.6912-46.2592 36.1728-50.517334z m40.4224 20.078934c0-8.192-6.647467-14.839467-14.839467-14.839467s-14.839467 6.647467-14.839466 14.839467 6.647467 14.839467 14.839466 14.839466 14.839467-6.647467 14.839467-14.839466z" fill="#513129" p-id="6868"></path><path d="M580.1472 287.854933c-2.961067 3.1744-34.679467-17.655467-40.2176-20.215466-9.693867-4.48-23.0912-9.557333-33.28-13.218134-6.7584-2.423467-41.1904-10.5472-41.1648-14.600533 8.772267-13.269333 13.550933-29.056 23.364267-41.719467 2.653867-3.421867 17.442133-19.089067 19.933866-20.360533 9.9328-5.051733 25.736533-0.981333 32.5632 7.893333 3.7632 4.8896 13.397333 23.492267 16.477867 30.020267 4.420267 9.378133 26.146133 68.113067 22.331733 72.209067z" fill="#FAC8BB" p-id="6869"></path><path d="M84.189867 433.544533c-6.621867 0.802133-5.026133 0.512-6.766934-3.976533-11.537067-29.7984-24.379733-77.184-17.501866-108.654933 1.2544-5.725867 7.125333-13.6704 13.3632-14.532267 26.0608-3.601067 55.799467 14.472533 76.014933 29.533867l-29.312 35.7632c-11.921067 20.2752-28.663467 39.253333-35.797333 61.866666z" fill="#FAC6B7" p-id="6870"></path><path d="M642.141867 492.433067c-3.413333 5.248-4.4032 6.314667 3.012266 8.004266 4.718933 1.0752 10.581333 0.597333 15.735467 2.7136 21.111467 8.669867 48 36.608 51.950933 59.613867 5.162667 30.045867-29.303467 75.7504-59.716266 78.574933-7.9872 0.7424-26.385067 0.981333-33.7152-0.631466-1.9456-0.426667-25.250133-11.451733-26.2912-12.458667s-1.476267-4.8128-3.5072-7.236267c-2.295467-2.7392-6.109867-4.778667-7.876267-7.714133-3.9424-6.562133-3.899733-16.750933-7.1168-23.8848l-3.754667-47.3856c2.474667-1.911467 6.519467-9.258667 10.786134-12.458667 19.208533-14.395733 37.794133-28.910933 60.501333-37.137066z m-16.5376 25.309866c-24.405333 5.333333-45.892267 41.1648-38.8096 65.698134 0.4096 1.416533 13.602133 23.901867 14.933333 25.361066 6.792533 7.415467 22.391467 16.401067 32.554667 17.066667 10.564267 0.6912 19.9168-4.394667 30.609066-3.746133 29.934933-10.8544 39.133867-60.586667 19.114667-83.2-0.887467-0.9984-19.0464-16.3328-20.181333-17.015467-8.661333-5.1968-28.407467-6.314667-38.212267-4.164267z" fill="#F9D6BB" p-id="6871"></path><path d="M228.9408 434.141867c15.761067-2.670933 42.530133 0.8704 53.76 13.2352 4.864 5.358933 10.308267 20.727467 8.772267 27.502933-7.816533 34.628267-67.498667 34.474667-86.510934 6.8352-13.7728-20.0192 1.134933-43.6992 23.978667-47.581867z" fill="#F8EFDC" p-id="6872"></path><path d="M489.685333 372.1216c5.6832 5.905067 8.098133 23.261867 6.272 31.470933-2.901333 13.056-25.6256 35.874133-38.741333 38.741334-46.472533 10.154667-58.359467-36.616533-24.3456-64.64 13.474133-11.101867 25.745067-15.0528 43.52-12.416 1.664 0.247467 12.552533 6.0672 13.303467 6.843733z" fill="#F8EEDB" p-id="6873"></path><path d="M354.449067 625.152c-4.445867-4.650667-7.611733-17.655467-5.384534-24.3968 9.3184-28.202667 77.576533-48.3584 96.1536-21.435733 6.869333 9.941333 4.394667 14.267733 0.136534 24.746666-12.9536 31.872-47.394133 42.359467-78.199467 28.526934-1.672533-0.750933-12.194133-6.912-12.706133-7.441067z" fill="#53322A" p-id="6874"></path><path d="M424.2176 657.314133c9.412267-1.595733 44.177067-3.1232 47.223467 7.3728 1.143467 3.950933 1.024 9.719467-2.850134 12.228267-4.437333 2.8672-20.6848-4.360533-26.530133-4.804267-2.346667-0.1792-17.8688 2.8672-20.983467 3.7632-12.791467 3.677867-25.173333 18.551467-34.8416 27.264-11.400533-3.618133-12.603733-9.0368-5.930666-18.449066 8.1408-11.477333 30.08-25.028267 43.912533-27.374934z" fill="#59362C" p-id="6875"></path><path d="M173.1328 654.225067c10.478933-1.8176 25.719467 1.6896 34.978133 7.227733 10.0096 5.9904 25.250133 22.587733 27.9296 34.048 7.261867 31.0272-11.7248 65.3312-44.945066 69.6576-34.176 4.4544-39.953067-13.730133-62.020267-33.962667l-1.544533-4.650666c0.964267-13.841067-2.756267-27.281067 3.6608-39.8848 7.8848-15.479467 24.4992-29.405867 41.941333-32.426667z m-3.1744 21.6064c-9.591467 2.0992-21.307733 17.237333-23.278933 26.3168-3.1744 14.6176 7.773867 32.913067 20.0448 40.977066 19.0976 1.297067 33.732267 5.956267 46.0288-12.100266 17.536-25.7536-10.845867-62.199467-42.794667-55.202134z" fill="#F9C8AA" p-id="6876"></path><path d="M264.2944 545.1776m-14.9248 0a14.9248 14.9248 0 1 0 29.8496 0 14.9248 14.9248 0 1 0-29.8496 0Z" fill="#EEE3D3" p-id="6877"></path><path d="M514.798933 469.623467m-14.839466 0a14.839467 14.839467 0 1 0 29.678933 0 14.839467 14.839467 0 1 0-29.678933 0Z" fill="#EAE0D4" p-id="6878"></path><path d="M625.604267 517.742933c9.8048-2.141867 29.550933-1.032533 38.212266 4.164267 1.134933 0.682667 19.3024 16.017067 20.181334 17.015467 20.0192 22.6048 10.820267 72.3456-19.114667 83.2-10.692267-0.648533-20.0448 4.437333-30.609067 3.746133-10.1632-0.6656-25.762133-9.642667-32.554666-17.066667-1.3312-1.4592-14.523733-23.944533-14.933334-25.361066-7.074133-24.533333 14.404267-60.356267 38.8096-65.698134z m-13.8752 27.9552c-1.5616 1.629867-8.721067 20.0192-8.7552 22.664534-0.034133 3.029333 2.321067 17.9968 3.438933 20.2496 0.64 1.28 12.330667 12.808533 14.0544 13.841066 21.563733 12.928 53.034667-1.245867 58.453333-25.284266 2.56-11.3408-11.204267-34.884267-21.205333-39.867734-1.928533-0.964267-18.0224-3.643733-20.3008-3.584-1.885867 0.0512-24.132267 10.350933-25.693867 11.989334z" fill="#F9CBAE" p-id="6879"></path><path d="M169.9584 675.831467c31.957333-7.005867 60.3392 29.448533 42.794667 55.202133-12.296533 18.056533-26.939733 13.397333-46.0288 12.100267-12.270933-8.064-23.2192-26.359467-20.0448-40.977067 1.9712-9.079467 13.687467-24.2176 23.278933-26.3168z" fill="#FABB9A" p-id="6880"></path><path d="M611.729067 545.698133c1.5616-1.6384 23.808-11.938133 25.693866-11.989333 2.286933-0.059733 18.3808 2.619733 20.3008 3.584 9.992533 4.983467 23.7568 28.526933 21.205334 39.867733-5.418667 24.029867-36.8896 38.212267-58.453334 25.284267-1.723733-1.032533-13.422933-12.552533-14.0544-13.841067-1.117867-2.2528-3.473067-17.211733-3.438933-20.2496 0.034133-2.645333 7.1936-21.034667 8.7552-22.664533z" fill="#FABE9D" p-id="6881"></path><path d="M842.734933 121.1392c92.296533-9.659733 205.184 61.124267 176.810667 164.411733-19.677867 71.620267-98.1504 108.791467-168.302933 104.738134-4.957867-0.290133-8.456533-2.7648-12.3136-3.165867-28.100267-2.8672-44.040533 27.042133-69.5552 32.597333-9.088 1.979733-12.5952 2.602667-18.0224-6.2208l11.392-49.339733c-15.095467-14.472533-31.36-26.001067-42.6752-44.177067-60.0832-96.469333 24.832-188.603733 122.6752-198.843733z m-67.3024 275.2c2.005333 2.184533 12.450133-6.101333 15.266134-7.978667 12.7744-8.507733 23.074133-21.614933 38.920533-19.857066 48.008533 5.316267 84.0192 4.821333 125.5168-23.381334 67.729067-46.0288 67.754667-137.3696-1.8944-180.8384-87.944533-54.877867-224.256-22.2976-236.672 91.016534 4.616533 44.817067 22.784 65.979733 55.936 92.9536 1.732267 1.416533 4.923733 1.1264 5.674667 1.937066 0.5632 0.597333 2.926933 14.890667 2.824533 16.119467-0.392533 4.872533-6.920533 28.552533-5.5808 30.020267z" fill="#4F2C23" p-id="6882"></path><path d="M775.432533 396.3392c-1.339733-1.4592 5.188267-25.147733 5.5808-30.020267 0.1024-1.2288-2.269867-15.522133-2.824533-16.119466-0.759467-0.802133-3.9424-0.520533-5.674667-1.937067-33.152-26.973867-51.328-48.145067-55.936-92.9536 12.416-113.322667 148.727467-145.8944 236.672-91.016533 69.6576 43.4688 69.632 134.8096 1.8944 180.8384-41.4976 28.202667-77.508267 28.6976-125.5168 23.381333-15.854933-1.757867-26.154667 11.3408-38.920533 19.857067-2.807467 1.8688-13.2608 10.1632-15.266133 7.978666z m37.623467-138.9056c0-9.565867-7.7568-17.322667-17.322667-17.322667s-17.322667 7.7568-17.322666 17.322667 7.7568 17.322667 17.322666 17.322667 17.322667-7.7568 17.322667-17.322667z m65.629867-0.2304c0-9.284267-7.5264-16.810667-16.810667-16.810667s-16.810667 7.5264-16.810667 16.810667 7.5264 16.810667 16.810667 16.810667 16.810667-7.5264 16.810667-16.810667z m66.474666 0.273067c0-9.437867-7.6544-17.083733-17.083733-17.083734s-17.083733 7.6544-17.083733 17.083734 7.6544 17.083733 17.083733 17.083733 17.083733-7.6544 17.083733-17.083733z" fill="#F8F0DF" p-id="6883"></path><path d="M795.733333 257.4336m-17.322666 0a17.322667 17.322667 0 1 0 34.645333 0 17.322667 17.322667 0 1 0-34.645333 0Z" fill="#59362B" p-id="6884"></path><path d="M928.068267 257.476267m-17.083734 0a17.083733 17.083733 0 1 0 34.167467 0 17.083733 17.083733 0 1 0-34.167467 0Z" fill="#57352B" p-id="6885"></path><path d="M861.8752 257.2032m-16.810667 0a16.810667 16.810667 0 1 0 33.621334 0 16.810667 16.810667 0 1 0-33.621334 0Z" fill="#502E24" p-id="6886"></path></svg>