<?xml version="1.0" standalone="no"?><!DOCTYPE svg PUBLIC "-//W3C//DTD SVG 1.1//EN" "http://www.w3.org/Graphics/SVG/1.1/DTD/svg11.dtd"><svg t="1772951598518" class="icon" viewBox="0 0 1024 1024" version="1.1" xmlns="http://www.w3.org/2000/svg" p-id="6316" xmlns:xlink="http://www.w3.org/1999/xlink" width="200" height="200"><path d="M199.996919 76.987733c10.811733-1.408 17.877333 0.546133 28.125867 3.387734 40.439467 11.2384 89.5744 45.499733 122.658133 71.534933 9.642667 7.594667 16.682667 19.541333 29.482667 23.2192l52.804267-9.924267c55.492267-4.9152 109.5424-3.712 164.445866 3.285334 11.221333 1.4336 29.064533 8.157867 39.637334 6.613333 7.441067-1.092267 17.749333-15.658667 24.746666-21.341867 32.1792-26.103467 101.998933-75.921067 142.984534-77.704533 20.573867-0.896 41.949867 12.6976 54.417066 28.1344 34.9696 43.323733 52.3776 146.414933 55.825067 200.900267 2.167467 34.218667-4.138667 75.912533 0.119467 108.4928 3.2 24.456533 27.323733 71.1424 35.3536 99.592533 45.320533 160.648533 9.856 293.905067-136.311467 382.139733-155.246933 93.713067-378.001067 105.787733-544.264533 35.1232-192.708267-81.8944-255.146667-228.753067-196.625067-430.421333 6.289067-21.6576 30.1568-70.749867 31.5392-86.929067 0.3072-3.601067-2.816-7.68-2.8672-12.475733-0.554667-52.189867 2.696533-104.046933 9.924267-154.9312 7.338667-51.652267 23.0656-160.2048 88.0128-168.695467zM79.181986 675.310933c-1.245867 22.4768 10.8544 51.882667 19.746133 72.413867 9.4208 21.742933 16.008533 30.993067 29.6192 49.373867 67.925333 91.6992 196.872533 138.24 307.8144 151.338666 151.330133 17.8688 350.830933-26.615467 452.5056-148.0448 23.458133-28.023467 53.6064-84.974933 52.6592-121.7792 5.632-3.857067 3.191467-12.1856 3.2768-18.1248 0.896-61.9008-4.992-105.0624-23.7056-163.874133-6.263467-19.694933-26.624-59.741867-28.945066-76.373333-4.164267-29.7984 1.732267-70.519467 0.145066-102.178134-2.551467-50.773333-18.2016-150.9376-46.677333-193.595733-17.450667-26.146133-38.0672-27.6224-65.425067-16.955733-30.916267 12.0576-68.616533 39.133867-95.266133 59.426133-8.2688 6.2976-37.418667 34.628267-44.501333 34.542933-15.872-3.1744-33.664-7.867733-49.501867-9.9328-55.082667-7.168-119.278933-6.920533-174.327467 0-14.779733 1.860267-31.249067 6.698667-46.2592 9.0112-39.3984-32.827733-86.144-72.96-134.178133-92.014933-31.428267-12.4672-52.411733-8.951467-68.7616 21.410133-22.442667 41.6768-36.3776 121.591467-39.005867 168.354134-2.304 41.053867 6.647467 95.573333-4.667733 133.572266-26.692267 89.659733-49.092267 124.663467-47.837867 225.314134 0.0768 5.9392-2.346667 14.276267 3.2768 18.1248z" fill="#4A2921" p-id="6317"></path><path d="M49.468919 484.343467c-17.3824 2.6624-17.954133-6.613333-16.290133-21.248 1.646933-14.5152 12.356267-53.6576 17.9712-67.592534 2.8672-7.108267 9.6512-22.4768 19.780267-19.694933 4.087467 1.117867 5.367467 7.236267 5.000533 11.460267-0.955733 10.922667-12.151467 37.077333-15.709867 50.218666-4.181333 15.453867-6.8608 31.368533-10.752 46.856534z" fill="#4C2C24" p-id="6318"></path><path d="M987.512653 490.914133l-13.243734-1.399466c-5.538133-3.7376-11.0336-41.4208-13.7984-52.027734-2.909867-11.170133-11.221333-26.9056-12.356266-37.0432-1.7408-15.581867 9.045333-20.650667 18.013866-8.123733 4.4288 6.186667 7.68 18.474667 10.0352 26.171733 3.9424 12.893867 13.9776 46.318933 14.830934 57.847467 0.426667 5.751467-3.208533 9.2672-3.498667 14.5664z" fill="#4E2D25" p-id="6319"></path><path d="M510.277453 50.005333c-1.416533 24.226133 6.852267 49.723733 3.438933 74.069334-2.133333 15.240533-20.317867 16.042667-23.108267-3.370667-1.809067-12.544-1.467733-46.242133 0.017067-59.221333 1.442133-12.637867 8.337067-15.752533 19.652267-11.485867z" fill="#54352D" p-id="6320"></path><path d="M987.751586 389.102933l14.472533-3.328c2.3808 1.186133 3.5328 3.003733 4.642134 5.333334 4.053333 8.541867 17.988267 61.329067 17.1008 68.667733-0.4864 4.036267-1.834667 5.947733-5.205334 8.055467l-11.52-1.399467c-3.464533-2.4064-8.584533-31.4368-10.5472-38.826667-3.396267-12.782933-11.076267-24.797867-8.9344-38.510933z" fill="#533028" p-id="6321"></path><path d="M21.727053 375.9104c6.826667-1.954133 13.832533 4.983467 14.7968 11.349333l-19.7632 69.2992-11.52 1.399467c-3.370667-2.107733-4.718933-4.0192-5.205334-8.055467-0.759467-6.331733 10.948267-53.239467 14.037334-61.858133 1.288533-3.6096 4.087467-11.101867 7.662933-12.125867z" fill="#502F27" p-id="6322"></path><path d="M460.980386 82.858667v57.6c0 6.5024-15.445333 6.212267-18.184533-1.5616-2.3296-4.625067-2.909867-45.124267-1.28-50.816 2.056533-7.185067 13.141333-5.154133 19.464533-5.213867z" fill="#4F2F27" p-id="6323"></path><path d="M941.526519 678.6048c-1.390933-54.382933-50.517333-86.442667-102.033066-82.286933-2.167467 0.170667-4.420267-0.187733-6.5792 0l-7.8336 0.3584-2.048 2.926933c-8.618667 1.117867-17.425067 1.2288-26.333867 3.293867-15.2832 3.541333-29.0048 10.990933-42.786133 16.4608-0.9472 0.375467-2.346667-0.375467-3.293867 0-15.342933 6.1184-30.711467 13.380267-46.08 19.746133l23.552-48.853333c13.7472-6.2464 42.427733-18.397867 47.368533-33.2544 10.368-31.146667-34.193067-36.625067-53.9648-46.7456-6.997333-20.061867-15.419733-49.553067-41.728-45.6704-16.981333 2.5088-21.538133 37.333333-32.657066 46.336-11.921067 9.6512-46.378667 11.682133-50.6624 31.616-6.766933 31.488 37.358933 35.908267 50.397866 53.870933 9.463467 13.047467 13.6704 33.143467 24.772267 45.986133-26.769067-3.1488-35.524267-1.058133-59.101867-18.244266-45.294933-33.024-59.921067-53.521067-123.707733-47.7184-62.677333 5.700267-83.549867 67.259733-149.623467 69.256533 1.006933-5.632 6.6304-4.992 9.984-8.746667 9.6512-10.837333 12.305067-33.4592 21.2736-43.9296 7.936-9.2672 37.12-14.813867 46.071467-29.636266 18.4832-30.6176-25.668267-43.3408-47.786667-50.8928-10.530133-16.4352-18.884267-52.821333-43.8272-47.291734-17.2032 3.8144-24.9344 32.477867-33.2544 45.730134-12.936533 7.560533-48.836267 14.421333-51.259733 31.010133-4.974933 34.039467 33.211733 34.397867 47.812267 51.089067 9.975467 11.400533 14.208 38.058667 27.963733 49.3824-7.2704-1.783467-16.145067-4.0192-23.04-6.5792-10.7008-3.976533-22.408533-9.079467-32.913067-13.166934-27.050667-10.513067-40.0384-21.154133-72.413866-23.04-15.658667-0.913067-25.582933 0.546133-39.5008 3.293867-3.029333 0.597333-7.057067-0.708267-10.837334 0.571733-28.253867 9.5744-56.584533 41.3184-58.282666 71.842134-5.623467-3.848533-3.208533-12.1856-3.2768-18.1248C74.650786 556.544 97.042253 521.540267 123.734519 431.880533c11.3152-37.998933 2.363733-92.5184 4.667734-133.572266 2.619733-46.762667 16.5632-126.677333 39.005866-168.354134 16.349867-30.370133 37.333333-33.885867 68.7616-21.410133 48.034133 19.054933 94.779733 59.1872 134.178134 92.014933 15.010133-2.312533 31.479467-7.159467 46.2592-9.0112 55.048533-6.920533 119.2448-7.168 174.327466 0 15.837867 2.065067 33.629867 6.7584 49.501867 9.9328 7.082667 0.085333 36.232533-28.245333 44.501333-34.542933 26.6496-20.292267 64.349867-47.377067 95.266134-59.426133 27.349333-10.666667 47.9744-9.181867 65.425066 16.955733 28.475733 42.658133 44.125867 142.8224 46.677334 193.595733 1.5872 31.658667-4.309333 72.379733-0.145067 102.178134 2.321067 16.64 22.6816 56.6784 28.945067 76.373333 18.705067 58.811733 24.6016 101.973333 23.7056 163.874133-0.085333 5.9392 2.3552 14.267733-3.2768 18.1248zM181.215053 323.131733c5.6576 1.348267 6.545067-2.167467 9.873066-4.9408 18.7136-15.573333 34.116267-35.259733 54.237867-51.089066 17.416533-13.704533 37.674667-23.9104 54.229333-38.109867 1.5872-7.3472-32.110933-39.714133-39.483733-45.610667-37.725867-30.148267-60.066133-24.234667-71.586133 23.586134-1.536 6.382933-7.2704 32.0512-7.2704 35.515733v80.64z m654.984533-3.293866c0.853333-38.4-0.674133-78.839467-10.555733-116.155734-6.545067-24.7296-13.098667-44.689067-43.204267-37.998933-15.1296 3.362133-54.4256 43.4432-64.725333 57.053867-2.158933 2.850133-4.539733 3.182933-3.285334 8.226133 3.541333-0.631467 5.6576 1.390933 8.285867 3.208533 26.052267 18.0224 51.780267 35.063467 75.716267 55.9872 8.849067 7.7312 17.288533 19.643733 26.1888 26.4704 4.1984 3.217067 6.050133 4.053333 11.588266 3.217067z m-488.157867 53.2736c-27.1616 4.9408-35.456 24.584533-31.880533 50.4064 3.831467 27.639467 48.750933 48.0768 73.429333 43.793066 37.248-6.459733 47.2576-49.7152 18.577067-73.2672-13.4912-11.076267-43.127467-24.029867-60.125867-20.932266z m299.588267 0.1024c-35.541333 4.804267-80.4352 41.105067-53.256533 78.199466 6.801067 9.284267 24.925867 17.442133 35.950933 16.657067 11.281067-0.810667 40.610133-12.450133 49.595733-19.797333 20.215467-16.529067 21.888-57.130667-2.645333-69.888-9.4976-4.9408-19.0208-6.6048-29.6448-5.1712z" fill="#F7C17B" p-id="6324"></path><path d="M671.634253 642.397867c7.5264 0.887467 14.549333 5.230933 23.04 3.293866 2.304 0.512 2.9184 1.902933 2.653866 4.130134-4.804267 40.482133-15.7696 77.952 7.662934 115.5584 23.9872 38.493867 73.250133 49.7664 116.317866 44.8 14.455467-1.664 32.6912-11.204267 46.208-13.0304 5.307733-0.7168 18.090667-2.133333 21.341867 3.234133-101.666133 121.437867-301.166933 165.922133-452.5056 148.0448-110.933333-13.098667-239.889067-59.639467-307.8144-151.338667 2.286933-5.230933 13.5424-3.933867 18.107733-3.2768 8.7808 1.262933 18.235733 9.9072 26.922667 12.561067 36.522667 11.178667 96.162133 0.315733 125.986133-24.2432 5.9904-4.932267 21.546667-27.195733 24.832-34.414933 2.423467-5.3248 0.861867-9.873067 2.2016-14.2592 1.4592-4.7872 5.213867-8.0896 6.024534-13.713067 2.030933-13.994667-4.7616-45.610667-8.968534-60.142933-1.134933-3.9168-7.261867-12.228267-0.896-13.917867 4.5568 0.725333 11.460267 0.1536 16.4608 0 66.065067-1.9968 86.946133-63.556267 149.623467-69.256533 63.786667-5.802667 78.4128 14.6944 123.707733 47.7184 23.5776 17.186133 32.3328 15.095467 59.101867 18.244266z m-219.835734-25.634134c-0.469333 0.4608-6.621867 10.6752-6.801066 11.306667-6.263467 21.307733 7.202133 39.927467 24.661333 50.082133 26.077867 15.172267 56.3968 13.474133 81.3824-3.293866 28.0576-18.833067 29.806933-50.756267-2.133333-66.082134-23.936-11.485867-57.019733-11.3664-81.416534-1.015466-2.628267 1.109333-14.3872 7.7056-15.6928 8.994133z m154.205867 91.665067c14.2592-2.884267 44.0576-23.176533 42.7776-38.0672-0.341333-3.976533-5.111467-10.077867-8.7552-11.178667-13.832533-4.189867-14.6176 8.251733-21.085867 14.4384-32.238933 30.856533-190.574933 29.3376-222.267733-1.467733-7.441067-7.236267-4.437333-15.453867-19.703467-13.405867-14.199467 1.902933-8.004267 19.618133-1.621333 28.151467 7.441067 9.949867 18.935467 14.395733 29.755733 19.618133l2.8928 3.6864c7.364267 55.850667 18.286933 161.297067 79.2064 184.106667 30.5408 11.434667 56.669867-2.3552 75.8784-26.385067 11.682133-14.6176 19.182933-33.194667 24.721067-50.986666 10.692267-34.3552 16.3584-72.9088 18.210133-108.501334z" fill="#F7EEDC" p-id="6325"></path><path d="M941.526519 678.6048c0.938667 36.804267-29.201067 93.764267-52.6592 121.7792-3.2512-5.367467-16.034133-3.950933-21.341866-3.234133-13.5168 1.826133-31.761067 11.3664-46.208 13.0304-43.067733 4.957867-92.330667-6.306133-116.317867-44.8-23.432533-37.6064-12.4672-75.076267-7.662933-115.5584 0.264533-2.2272-0.3584-3.618133-2.653867-4.130134-1.399467-2.235733 7.1424-5.4528 9.873067-6.5792 15.368533-6.365867 30.737067-13.627733 46.08-19.746133 4.9408 20.061867-16.315733 25.224533-22.664534 34.935467-2.0736 3.1744-8.814933 25.216-9.617066 29.8752-4.770133 27.502933 9.216 68.48 32.375466 84.864 11.153067 7.893333 37.4528 15.709867 50.850134 14.805333 2.653867-0.1792 5.179733-2.389333 7.2704-2.56 4.386133-0.349867 7.816533 3.575467 15.2064 2.158933 13.653333-2.6112 45.713067-14.250667 55.082666-24.064 3.669333-3.848533 14.728533-22.135467 15.786667-26.999466 1.604267-7.3728-0.187733-15.018667 0.605867-22.434134 1.0496-9.8816 5.444267-16.657067 2.688-29.149866-1.314133-5.9392-28.407467-56.448-32.349867-59.810134-4.9408-4.1984-16.401067-8.072533-22.929067-13.269333-4.855467-3.8656-8.277333-5.256533-3.4304-11.392 51.515733-4.155733 100.642133 27.904 102.033067 82.286933z" fill="#F8E3CB" p-id="6326"></path><path d="M187.794253 599.611733c-4.5312 12.168533-21.486933 10.7776-29.636267 18.082134-2.7648 2.4832-3.131733 6.4768-4.9664 8.2944-2.525867 2.491733-5.930667 2.517333-7.483733 4.096-1.024 1.041067-0.384 3.874133-1.390934 4.881066-1.6896 1.6896-5.2992 1.5616-7.543466 4.036267-11.810133 12.987733-12.765867 44.706133-18.1248 61.1072 3.4304 15.931733 1.911467 34.730667 10.325333 48.836267 15.197867 25.472 62.421333 37.1968 90.24 35.1232 5.205333-0.384 21.461333-2.705067 25.728-3.8912 2.926933-0.8192 5.879467-5.2224 9.617067-6.843734 5.6832-2.4576 14.549333-3.7376 18.8416-7.483733 4.608-4.0192 23.6032-33.723733 25.728-40.098133 1.1776-3.549867 0.162133-8.1152 1.143466-12.014934 0.938667-3.720533 5.495467-8.763733 5.393067-10.513066-0.093867-1.629867-5.205333-4.224-6.0416-9.745067-2.577067-16.9728-0.4352-23.825067-6.4512-42.897067-1.365333-4.3264-7.082667-12.3648-0.042667-14.7712 6.894933 2.56 15.7696 4.804267 23.04 6.5792 4.821333 1.1776 6.1952 3.2256 6.5792 3.293867-6.365867 1.6896-0.238933 10.0096 0.896 13.917867 4.206933 14.532267 10.999467 46.148267 8.968534 60.142933-0.8192 5.623467-4.565333 8.925867-6.024534 13.713067-1.339733 4.386133 0.221867 8.9344-2.2016 14.2592-3.285333 7.2192-18.8416 29.482667-24.832 34.414933-29.815467 24.558933-89.463467 35.421867-125.986133 24.2432-8.6784-2.6624-18.133333-11.298133-26.922667-12.561067-4.5568-0.657067-15.8208-1.9456-18.107733 3.2768-13.610667-18.3808-20.206933-27.630933-29.6192-49.373866 12.0576-12.066133 3.771733-25.531733 3.1488-37.7088-1.041067-20.352-0.802133-39.867733 7.4496-58.666667 2.056533-4.693333 10.120533-18.432 13.124267-21.435733 5.614933-5.614933 20.087467-14.6432 27.357866-20.369067 5.162667-4.0704 8.439467-7.8848-1.706666-6.638933 13.917867-2.747733 23.8336-4.206933 39.5008-3.293867z" fill="#F8E1C9" p-id="6327"></path><path d="M148.301986 602.9056c10.146133-1.245867 6.869333 2.577067 1.706667 6.638933-7.2704 5.725867-21.742933 14.754133-27.357867 20.369067-3.003733 3.003733-11.067733 16.733867-13.124267 21.435733-8.251733 18.807467-8.490667 38.3232-7.4496 58.666667 0.622933 12.177067 8.9088 25.642667-3.1488 37.7088-8.891733-20.522667-21.000533-49.937067-19.746133-72.413867 1.698133-30.523733 30.0288-62.2592 58.282667-71.842133 3.780267-1.28 7.808 0.0256 10.837333-0.571733z" fill="#F6E9D4" p-id="6328"></path><path d="M839.493453 596.317867c-4.846933 6.126933-1.425067 7.5264 3.4304 11.392 6.528 5.1968 17.988267 9.070933 22.929066 13.269333 3.950933 3.362133 31.044267 53.8624 32.349867 59.810133 2.756267 12.4928-1.6384 19.268267-2.688 29.149867-0.785067 7.415467 0.9984 15.061333-0.605867 22.434133-1.058133 4.864-12.117333 23.150933-15.786666 26.999467-9.3696 9.813333-41.429333 21.444267-55.082667 24.064-7.3984 1.416533-10.820267-2.5088-15.2064-2.158933-2.090667 0.170667-4.608 2.3808-7.2704 2.56-13.397333 0.904533-39.688533-6.920533-50.850133-14.805334-23.159467-16.384-37.1456-57.361067-32.375467-84.864 0.810667-4.6592 7.543467-26.7008 9.617067-29.8752 6.3488-9.7024 27.613867-14.8736 22.664533-34.935466 0.9472-0.375467 2.346667 0.375467 3.293867 0 5.870933-0.759467 11.52 0.221867 13.166933 6.5792-5.4784 1.783467-7.790933 6.340267-10.5216 10.88-2.978133 4.949333-15.650133 26.862933-15.3088 29.789866 0.238933 2.0992 2.7392 4.2496 2.7904 5.410134 0.392533 9.105067-0.802133 18.3552 0.520533 27.460266 6.621867 17.109333 12.142933 36.411733 29.1328 46.574934 6.570667 3.925333 33.7152 12.168533 40.413867 11.1104 5.461333-0.861867 27.409067-8.1664 31.880533-11.170134 6.272-4.215467 24.32-23.168 25.864534-30.062933 2.107733-9.412267-3.3536-34.705067-7.620267-43.963733-4.002133-8.686933-10.368-12.049067-14.8736-19.6864 3.6352-5.853867 8.712533-10.9824 10.052267-18.116267l-1.723734-5.111467c-1.032533-2.0736-3.729067-2.193067-5.0432-3.0976-0.375467-0.256-0.4864-1.800533-2.2784-2.679466-3.729067-1.834667-22.690133-9.181867-26.2144-9.966934-7.5008-1.672533-15.522133 0.5376-22.621866-0.418133-6.6816-0.904533-9.634133-4.002133-4.8384-9.975467 8.900267-2.065067 17.7152-2.167467 26.333866-3.293866 6.408533-0.836267 9.3184-3.242667 9.873067-3.293867 2.167467-0.187733 4.411733 0.170667 6.5792 0z" fill="#F8D4B7" p-id="6329"></path><path d="M260.208119 622.651733l-4.590933 0.256c-3.089067 2.0224-4.974933 4.957867-8.567467 6.331734-2.312533 0.878933-8.260267-0.315733-11.639466 2.363733-1.655467-0.605867-3.328-1.4336-4.821334-2.363733-2.807467-1.749333-6.1952-7.492267-11.1872-6.417067-6.1952 4.5056-10.641067 10.222933-15.146666 16.290133l-6.203734-0.349866c-0.059733-3.396267-2.107733-4.334933-3.669333-6.229334-2.440533-2.961067-4.053333-7.4752-8.192-9.5744-15.829333 7.6032-23.1168 24.772267-31.300267 39.202134-3.362133 5.922133-9.326933 12.458667-11.682133 19.584-11.3408 34.184533 3.5072 62.353067 35.729067 76.5184 22.442667 9.864533 42.8288 7.313067 64.878933-2.244267 10.478933-4.539733 18.798933-11.409067 24.610133-21.469867 16.238933-28.091733 13.815467-53.4016 4.360534-83.319466-1.1008-3.4816-5.333333-5.5296-5.981867-8.814934-1.501867-7.594667 1.152-12.3904-6.5792-19.746133 10.504533 4.087467 22.2208 9.1904 32.913067 13.166933-7.04 2.4064-1.322667 10.453333 0.042666 14.7712 6.016 19.072 3.874133 25.924267 6.4512 42.897067 0.836267 5.521067 5.947733 8.1152 6.0416 9.745067 0.1024 1.7408-4.4544 6.784-5.393066 10.513066-0.981333 3.899733 0.034133 8.465067-1.143467 12.014934-2.1248 6.382933-21.12 36.078933-25.728 40.098133-4.292267 3.746133-13.166933 5.026133-18.8416 7.483733-3.7376 1.621333-6.690133 6.024533-9.617067 6.843734-4.266667 1.186133-20.522667 3.5072-25.728 3.8912-27.818667 2.0736-75.042133-9.6512-90.24-35.1232-8.413867-14.1056-6.894933-32.896-10.325333-48.836267 5.358933-16.401067 6.306133-48.110933 18.1248-61.1072 2.2528-2.474667 5.853867-2.346667 7.543467-4.036267 1.006933-1.006933 0.375467-3.848533 1.390933-4.881066 1.553067-1.578667 4.957867-1.604267 7.483733-4.096 1.834667-1.8176 2.2016-5.8112 4.9664-8.2944 8.149333-7.304533 25.105067-5.9136 29.636267-18.082134 32.375467 1.885867 45.354667 12.526933 72.413867 23.04z" fill="#F8D5B8" p-id="6330"></path><path d="M836.199586 319.837867c-5.538133 0.8448-7.389867 0-11.588267-3.217067-8.9088-6.826667-17.348267-18.7392-26.1888-26.4704-23.936-20.923733-49.664-37.9648-75.716266-55.9872-2.628267-1.8176-4.744533-3.84-8.285867-3.208533-1.245867-5.034667 1.134933-5.376 3.285333-8.226134 10.308267-13.610667 49.604267-53.691733 64.725334-57.053866 30.1056-6.690133 36.6592 13.269333 43.204266 37.998933 9.8816 37.316267 11.409067 77.755733 10.555734 116.155733z" fill="#F7C6B4" p-id="6331"></path><path d="M181.215053 323.131733v-80.64c0-3.473067 5.7344-29.1328 7.2704-35.515733 11.52-47.812267 33.851733-53.725867 71.586133-23.586133 7.381333 5.896533 41.070933 38.263467 39.483733 45.610666-16.546133 14.199467-36.8128 24.405333-54.229333 38.109867-20.1216 15.829333-35.524267 35.515733-54.237867 51.089067-3.336533 2.773333-4.215467 6.289067-9.873066 4.9408z" fill="#F8C4B0" p-id="6332"></path><path d="M671.634253 642.397867c-11.101867-12.8512-15.3088-32.9472-24.772267-45.986134-13.0304-17.962667-57.156267-22.382933-50.397867-53.870933 4.283733-19.933867 38.741333-21.973333 50.6624-31.616 11.118933-9.002667 15.675733-43.8272 32.657067-46.336 26.308267-3.882667 34.730667 25.608533 41.728 45.6704 19.771733 10.120533 64.3328 15.598933 53.9648 46.7456-4.9408 14.856533-33.629867 27.008-47.368533 33.2544l-23.552 48.853333c-2.730667 1.134933-11.272533 4.343467-9.873067 6.5792-8.490667 1.9456-15.5136-2.4064-23.04-3.293866z m9.890133-157.994667l-16.4096 34.628267c-10.999467 14.754133-29.2096 15.880533-44.100267 25.019733-2.807467 1.723733-6.468267 3.899733-5.333333 7.816533 15.470933 13.320533 37.12 19.1232 48.913067 36.667734 6.5792 9.787733 9.4464 26.564267 15.240533 34.133333 2.551467 3.336533 5.998933 4.334933 9.873067 3.2512 3.549867-0.989867 17.860267-40.362667 24.584533-47.829333 6.0928-6.749867 26.129067-14.421333 35.319467-20.6336 3.063467-2.0736 9.1136-3.848533 7.5776-8.866134-2.0736-6.792533-38.016-16.119467-46.097067-23.031466-6.434133-5.512533-12.100267-26.0352-18.158933-34.500267-2.756267-3.857067-6.152533-7.6544-11.434667-6.664533z" fill="#4A2B23" p-id="6333"></path><path d="M316.161186 642.397867c-13.755733-11.332267-17.988267-37.981867-27.963733-49.3824-14.600533-16.6912-52.7872-17.0496-47.812267-51.089067 2.423467-16.5888 38.3232-23.441067 51.259733-31.010133 8.32-13.252267 16.0512-41.915733 33.2544-45.730134 24.942933-5.5296 33.3056 30.856533 43.8272 47.291734 22.1184 7.552 66.269867 20.2752 47.786667 50.8928-8.942933 14.8224-38.126933 20.369067-46.071467 29.636266-8.968533 10.4704-11.6224 33.092267-21.2736 43.9296-3.345067 3.7632-8.968533 3.114667-9.984 8.746667-5.000533 0.1536-11.904 0.725333-16.4608 0-0.392533-0.059733-1.757867-2.107733-6.5792-3.293867z m11.528533-157.986134c-12.8768 14.190933-12.373333 35.293867-30.0544 45.653334-7.082667 4.1472-40.413867 11.7504-37.367466 21.649066 2.133333 6.929067 33.8944 18.901333 42.786133 29.7216 7.645867 9.309867 12.791467 25.8816 19.0464 36.9152 1.774933 3.140267 4.087467 9.088 8.8576 7.569067 13.252267-11.178667 13.636267-31.018667 24.644267-44.484267 8.072533-9.873067 27.195733-16.3072 38.5536-23.978666 3.063467-2.0736 9.1136-3.848533 7.5776-8.866134-1.979733-6.485333-38.9632-16.571733-47.837867-24.576-12.125867-10.948267-9.181867-34.551467-26.197333-39.611733z" fill="#4A2B24" p-id="6334"></path><path d="M348.041719 373.111467c16.9984-3.0976 46.634667 9.856 60.125867 20.932266 28.680533 23.552 18.670933 66.807467-18.577067 73.2672-24.686933 4.2752-69.6064-16.162133-73.429333-43.793066-3.575467-25.821867 4.718933-45.457067 31.880533-50.4064zM647.629986 373.213867c10.624-1.4336 20.1472 0.2304 29.6448 5.1712 24.533333 12.757333 22.852267 53.358933 2.645333 69.888-8.9856 7.3472-38.314667 18.986667-49.595733 19.797333-11.025067 0.785067-29.149867-7.3728-35.950933-16.657067-27.178667-37.085867 17.7152-73.386667 53.256533-78.199466z" fill="#F6ECDA" p-id="6335"></path><path d="M796.707319 602.9056c-4.804267 5.973333-1.8432 9.070933 4.8384 9.975467 7.0912 0.955733 15.121067-1.2544 22.621867 0.418133 3.524267 0.785067 22.493867 8.123733 26.2144 9.966933 1.792 0.887467 1.911467 2.423467 2.2784 2.679467-10.794667-1.672533-17.501867 8.721067-23.04 16.4608h-6.545067c1.408-7.304533-0.708267-8.891733-3.328-13.166933-1.416533-2.321067-1.7664-5.3504-5.333333-6.3488-5.640533-1.5104-8.7808 2.884267-11.127467 3.054933-7.0912 0.5376-15.880533 0.4096-23.04 0-1.0752-0.059733-3.1488-2.4576-5.444266-2.645333-2.952533-0.238933-5.256533 1.442133-7.714134 2.645333-1.646933-6.357333-7.296-7.3472-13.166933-6.5792 13.781333-5.461333 27.502933-12.910933 42.786133-16.4608zM832.914253 596.317867c-0.554667 0.0512-3.464533 2.4576-9.873067 3.293866l2.048-2.926933 7.8336-0.3584z" fill="#F6D0B1" p-id="6336"></path><path d="M606.004386 708.4288c-1.851733 35.601067-7.517867 74.146133-18.210133 108.501333-5.538133 17.792-13.0304 36.369067-24.721067 50.986667-19.208533 24.029867-45.3376 37.819733-75.8784 26.385067-60.928-22.8096-71.850667-128.256-79.2064-184.106667l-2.8928-3.6864c-10.820267-5.2224-22.314667-9.659733-29.755733-19.618133-6.3744-8.533333-12.578133-26.248533 1.621333-28.151467 15.266133-2.048 12.253867 6.178133 19.703467 13.405867 31.6928 30.805333 190.0288 32.324267 222.267733 1.467733 6.468267-6.1952 7.253333-18.628267 21.085867-14.4384 3.643733 1.1008 8.413867 7.202133 8.7552 11.178667 1.28 14.890667-28.5184 35.1744-42.7776 38.0672zM483.073186 771.464533c-6.9632 0.964267-33.1008 8.192-34.952533 14.404267-3.848533 12.910933 17.928533 60.1088 27.707733 70.434133 5.8368 6.161067 27.076267 17.3824 35.464533 16.0512 35.524267-5.640533 49.237333-54.007467 57.796267-83.566933-23.099733-18.542933-57.386667-21.290667-86.016-17.322667z" fill="#4F2E26" p-id="6337"></path><path d="M451.798519 616.763733c1.3056-1.288533 13.064533-7.8848 15.6928-8.994133 24.405333-10.350933 57.489067-10.4704 81.416534 1.015467 31.940267 15.325867 30.190933 47.249067 2.133333 66.082133-24.9856 16.768-55.304533 18.466133-81.3824 3.293867-17.4592-10.154667-30.9248-28.782933-24.661333-50.082134 0.187733-0.631467 6.331733-10.845867 6.801066-11.306666z" fill="#502F27" p-id="6338"></path><path d="M803.286519 625.9456c-3.618133 9.8304-20.087467 23.236267-22.562133 31.735467-1.186133 4.078933-2.525867 15.556267 2.816 17.6384l-6.7328 21.316266c14.865067 54.280533 86.075733 23.594667 59.392-24.610133 2.525867-2.0736 10.487467-15.4368 13.166933-19.746133 4.5056 7.637333 10.871467 10.999467 14.8736 19.6864 4.266667 9.2672 9.728 34.551467 7.620267 43.963733-1.544533 6.903467-19.592533 25.856-25.864533 30.062933-4.471467 3.003733-26.427733 10.3168-31.880534 11.170134-6.7072 1.058133-33.851733-7.185067-40.413866-11.1104-16.989867-10.1632-22.510933-29.4656-29.1328-46.574934-1.322667-9.105067-0.128-18.3552-0.520534-27.460266 5.845333 3.7632 8.977067 5.1456 14.941867 0.119466 3.797333-3.2 19.541333-25.608533 21.9136-30.728533 3.037867-6.562133 3.874133-9.198933-0.648533-15.470933 7.159467 0.4096 15.9488 0.5376 23.04 0z" fill="#F8C4A3" p-id="6339"></path><path d="M780.246519 625.9456c4.522667 6.272 3.6864 8.9088 0.648534 15.470933-2.372267 5.128533-18.116267 27.528533-21.9136 30.728534-5.9648 5.026133-9.096533 3.643733-14.941867-0.119467-0.0512-1.169067-2.551467-3.319467-2.7904-5.410133-0.3328-2.926933 12.330667-24.840533 15.3088-29.789867 2.730667-4.539733 5.0432-9.096533 10.5216-10.88 2.466133-1.2032 4.7616-2.884267 7.714133-2.645333 2.304 0.187733 4.369067 2.5856 5.444267 2.645333z" fill="#F29C78" p-id="6340"></path><path d="M852.660386 625.9456c1.3056 0.904533 4.002133 1.032533 5.0432 3.0976l1.723733 5.111467c-1.339733 7.1424-6.417067 12.270933-10.052266 18.116266-2.679467 4.309333-10.641067 17.672533-13.166934 19.746134-8.157867 6.715733-14.626133 2.363733-19.584-5.2736-0.554667-2.474667 10.478933-20.821333 13.0048-24.3456 5.538133-7.7312 12.245333-18.133333 23.04-16.4608z" fill="#F39C78" p-id="6341"></path><path d="M154.881186 662.152533c-1.416533 9.915733 3.0976 14.592 13.166933 13.166934 0.008533 0.1536 2.321067 0.674133 2.210134 1.664-0.384 3.618133-4.1728 6.7584-4.983467 10.402133-1.032533 4.625067-1.066667 11.281067-0.64 16.0512 1.7152 19.003733 22.5792 36.5056 41.2672 36.437333 14.6944-0.0512 32.5888-8.021333 40.686933-20.5824 11.707733-18.167467 13.201067-34.602667 3.746134-53.845333 5.930667-6.536533 9.361067-17.220267 16.4608-23.04 0.648533 3.285333 4.881067 5.333333 5.981866 8.814933 9.454933 29.917867 11.8784 55.227733-4.360533 83.319467-5.8112 10.0608-14.1312 16.930133-24.610133 21.469867-22.050133 9.557333-42.436267 12.1088-64.878934 2.244266-32.221867-14.165333-47.061333-42.333867-35.729066-76.5184 2.363733-7.125333 8.32-13.653333 11.682133-19.584z" fill="#F9CAA9" p-id="6342"></path><path d="M247.041186 629.230933l-19.6864 37.6576L238.849186 674.986667c2.6112-3.8912 9.147733-6.971733 11.485867-9.5488 9.454933 19.242667 7.9616 35.677867-3.746134 53.845333-8.0896 12.561067-25.992533 20.522667-40.686933 20.5824-18.688 0.068267-39.552-17.4336-41.2672-36.437333-0.426667-4.778667-0.392533-11.434667 0.64-16.0512 0.810667-3.6352 4.599467-6.784 4.983467-10.402134 0.1024-0.989867-2.2016-1.5104-2.210134-1.664-0.290133-3.908267 10.9824-10.641067 12.7232-15.249066l13.610667-27.537067c1.570133 1.902933 3.6096 2.833067 3.669333 6.229333l6.203734 0.349867c-2.525867 3.4048-15.914667 23.415467-16.2048 25.122133-0.904533 5.341867 8.814933 13.201067 14.2592 10.8544 13.047467-11.306667 26.743467-27.818667 28.279466-45.858133 1.493333 0.930133 3.157333 1.7664 4.821334 2.363733 3.3792-2.679467 9.326933-1.4848 11.639466-2.363733z" fill="#F9BB97" p-id="6343"></path><path d="M230.580386 629.230933c-1.544533 18.030933-15.232 34.551467-28.279467 45.858134-5.435733 2.346667-15.163733-5.512533-14.2592-10.8544 0.290133-1.706667 13.678933-21.725867 16.2048-25.122134 4.5056-6.0672 8.96-11.784533 15.146667-16.290133 4.992-1.0752 8.3712 4.667733 11.1872 6.417067z" fill="#F49977" p-id="6344"></path><path d="M194.373453 632.5248l-13.610667 27.537067c-1.7408 4.616533-13.013333 11.349333-12.7232 15.249066-10.069333 1.425067-14.583467-3.2512-13.166933-13.166933 8.192-14.429867 15.470933-31.598933 31.300266-39.202133 4.138667 2.107733 5.751467 6.621867 8.192 9.5744z" fill="#F59E7D" p-id="6345"></path><path d="M260.208119 622.651733c7.7312 7.355733 5.085867 12.151467 6.5792 19.746134-7.099733 5.819733-10.530133 16.503467-16.4608 23.04-2.3296 2.568533-8.874667 5.649067-11.485866 9.5488l-11.4944-8.098134 19.6864-37.6576c3.592533-1.365333 5.4784-4.309333 8.567466-6.331733l4.590934-0.256z" fill="#F59A76" p-id="6346"></path><path d="M681.524386 484.4032c5.2736-0.989867 8.669867 2.807467 11.434667 6.664533 6.058667 8.465067 11.7248 28.987733 18.158933 34.500267 8.072533 6.920533 44.014933 16.238933 46.097067 23.031467 1.527467 5.0176-4.514133 6.792533-7.5776 8.866133-9.1904 6.212267-29.2352 13.8752-35.319467 20.6336-6.724267 7.458133-21.0432 46.830933-24.584533 47.829333-3.874133 1.083733-7.3216 0.085333-9.873067-3.2512-5.794133-7.569067-8.669867-24.3456-15.240533-34.133333-11.793067-17.544533-33.442133-23.3472-48.913067-36.667733-1.134933-3.9168 2.525867-6.0928 5.333333-7.816534 14.890667-9.1392 33.1008-10.2656 44.100267-25.019733l16.4096-34.628267z" fill="#F7CB6B" p-id="6347"></path><path d="M327.689719 484.411733c17.015467 5.060267 14.071467 28.672 26.197334 39.611734 8.874667 8.0128 45.858133 18.090667 47.837866 24.576 1.536 5.0176-4.514133 6.792533-7.5776 8.866133-11.3664 7.671467-30.4896 14.1056-38.5536 23.978667-11.008 13.4656-11.400533 33.3056-24.644266 44.484266-4.770133 1.5104-7.074133-4.437333-8.8576-7.569066-6.2464-11.0336-11.400533-27.605333-19.0464-36.9152-8.891733-10.8288-40.6528-22.792533-42.786134-29.7216-3.0464-9.898667 30.293333-17.501867 37.367467-21.649067 17.6896-10.368 17.1776-31.470933 30.0544-45.653333z" fill="#F6CB6A" p-id="6348"></path><path d="M819.747319 629.230933c2.619733 4.2752 4.736 5.8624 3.328 13.166934h6.545067c-2.517333 3.515733-13.550933 21.870933-13.0048 24.3456 4.957867 7.637333 11.426133 11.997867 19.584 5.2736 26.683733 48.2048-44.535467 78.890667-59.392 24.610133l6.7328-21.316267c17.8944-1.4848 36.795733-27.9552 36.206933-46.08z" fill="#F8BA96" p-id="6349"></path><path d="M819.747319 629.230933c0.5888 18.1248-18.312533 44.5952-36.206933 46.08-5.333333-2.0736-4.002133-13.559467-2.816-17.6384 2.474667-8.4992 18.944-21.905067 22.562133-31.735466 2.346667-0.1792 5.486933-4.573867 11.127467-3.054934 3.566933 0.9984 3.908267 4.036267 5.333333 6.3488z" fill="#F39773" p-id="6350"></path><path d="M483.073186 771.464533c28.629333-3.968 62.916267-1.2288 86.016 17.322667-8.558933 29.559467-22.272 77.9264-57.796267 83.566933-8.388267 1.3312-29.627733-9.8816-35.464533-16.0512-9.7792-10.325333-31.5648-57.5232-27.707733-70.434133 1.851733-6.2208 27.989333-13.44 34.952533-14.404267z" fill="#F8AC90" p-id="6351"></path></svg>