<?xml version="1.0" standalone="no"?><!DOCTYPE svg PUBLIC "-//W3C//DTD SVG 1.1//EN" "http://www.w3.org/Graphics/SVG/1.1/DTD/svg11.dtd"><svg t="1772951559821" class="icon" viewBox="0 0 1024 1024" version="1.1" xmlns="http://www.w3.org/2000/svg" p-id="4078" xmlns:xlink="http://www.w3.org/1999/xlink" width="200" height="200"><path d="M681.693867 645.248c6.9376 1.501867 16.324267 6.971733 27.2896 3.2768l2.176-3.2768c1.220267-0.093867 2.4832 0.1536 3.6864 0 4.565333 12.834133-6.084267 26.581333-6.715734 35.592533-0.264533 3.797333 2.926933 6.843733 2.952534 10.436267 0.0256 3.8656-3.5072 7.253333-3.566934 11.0848-0.1536 9.6256 8.840533 22.0416 11.008 31.2832-34.167467 51.413333-32.4352 129.518933-10.248533 185.173333 2.389333 6.007467 19.950933 37.418667 17.621333 39.458134-21.649067 5.751467-43.357867 12.834133-65.297066 17.570133-100.4544 21.666133-219.4432 22.792533-318.762667-3.601067-14.446933-3.84-28.3392-11.136-43.118933-13.969066-1.6128-1.4336 15.377067-33.698133 17.629866-39.4496 21.896533-56.021333 24.183467-133.469867-10.257066-185.181867 20.445867-23.586133 8.448-57.0112 7.355733-84.701867 6.647467-0.6144 14.0544 0.9728 20.5056 0.0768 4.9408-0.682667 4.9664-3.6864 5.282133-3.7632 43.0592-10.683733 51.549867-26.5728 84.864-49.553066 44.433067-30.660267 100.369067-36.360533 149.7088-13.7728 42.8288 19.6096 55.441067 52.002133 107.912534 63.325866z m-234.999467-28.782933c-2.568533 2.679467-8.0384 18.432-8.260267 23.1936-1.2288 26.888533 27.195733 46.3872 50.696534 52.693333 25.352533 6.801067 51.677867 2.2016 72.951466-13.883733 28.458667-21.521067 29.6448-56.942933-4.497066-72.977067-22.9376-10.7776-62.3104-11.5456-85.922134-2.7136-3.754667 1.408-23.210667 11.8528-24.968533 13.687467z m64.4608 99.498666c-3.362133 0.145067-17.3056 3.293867-21.1456 4.5824-6.237867 2.0992-20.932267 13.277867-25.642667 18.551467-14.626133 16.392533-17.5104 38.698667-21.998933 58.9824 4.608 31.786667 13.943467 62.250667 45.277867 76.2112 18.628267 8.302933 27.758933 8.832 46.805333 1.169067 56.285867-22.647467 59.733333-110.318933 12.910933-145.5872-7.8848-5.9392-26.794667-14.318933-36.206933-13.917867z" fill="#F8EFDC" p-id="4079"></path><path d="M236.1088 707.857067c2.670933 1.408 5.5296 1.911467 6.775467 5.4272-3.549867 18.184533-18.9952 44.381867-13.824 62.3872 2.500267 8.695467 16.110933 7.7824 21.922133 0.469333 7.995733-10.0608 11.758933-36.7616 14.592-49.8688 50.295467 46.2592 48.3328 124.791467 24.977067 185.173333-22.877867 59.1616-75.392 93.8752-139.272534 70.894934-61.602133-22.161067-91.844267-76.791467-80.810666-139.989334 4.6848-26.8288 21.213867-71.714133 36.753066-93.986133 0.546133-0.785067 5.137067-2.423467 7.441067-5.333333 10.1632-12.808533 16.810667-24.234667 33.058133-31.496534 2.346667 14.600533-5.5552 46.2848 5.4528 55.313067 8.490667 6.9632 12.3392 3.4816 18.5856-3.6608 3.677867-7.287467 0.9216-16.017067 1.809067-23.9616 0.5376-4.7872 3.9168-8.925867 3.925333-14.7968 0.008533-7.739733-6.126933-15.232-4.002133-23.936 8.456533 2.986667 17.962667-3.6352 23.944533-3.643733 2.645333 0 17.083733 3.387733 21.307734 4.420266 5.435733 1.3312 12.398933 3.976533 17.3568 6.587734z" fill="#F8EEDC" p-id="4080"></path><path d="M847.4112 700.4928v57.079467c0 0.904533 6.621867 11.426133 9.472 12.629333 24.490667 7.202133 19.712-31.658667 19.9936-45.781333 0.059733-3.0976-1.672533-12.859733 5.512533-9.1904 1.0496 0.5376 16.827733 13.175467 18.397867 14.754133 45.0304 45.448533 70.613333 142.498133 38.1184 200.0896-27.050667 47.9488-107.3408 77.277867-155.4176 46.1056-67.012267-43.451733-87.355733-175.931733-35.5584-237.073067 2.8928-3.421867 9.2672-12.245333 13.0048-5.512533 4.829867 8.712533 7.406933 41.898667 13.346133 47.4112 0.759467 0.699733 10.513067 4.241067 11.9296 3.950933 25.429333-5.3248-6.775467-68.676267-3.438933-73.4464 19.140267-14.455467 42.2144-10.8288 64.657067-11.008z" fill="#F7EEDC" p-id="4081"></path><path d="M118.263467 593.698133l25.770666 1.834667-50.781866 35.754667c-1.28 6.075733-15.496533 23.406933-15.496534 26.8544v66.286933c0 4.087467-12.868267 10.632533-1.8432 16.554667l9.207467-7.3472-25.770667 44.1856c-12.501333-29.1328-23.970133-58.837333-29.3888-90.325334-0.930133-5.393067 0.529067-11.118933-0.085333-16.4608 7.748267-10.965333 8.567467-25.309867 16.6656-36.727466 15.4112-21.7344 44.740267-40.507733 71.714133-40.6016z" fill="#F7E3CD" p-id="4082"></path><path d="M173.499733 674.7136c11.1104-1.237333 33.109333-1.271467 44.194134 0 13.713067 1.570133 25.489067 8.6784 36.829866 14.728533l-18.414933 18.414934c-4.957867-2.619733-11.921067-5.265067-17.3568-6.587734-4.232533-1.032533-18.6624-4.420267-21.307733-4.420266-5.981867 0-15.488 6.6304-23.944534 3.643733-2.1248 8.704 4.010667 16.187733 4.002134 23.936 0 5.870933-3.396267 10.0096-3.925334 14.7968-0.887467 7.953067 1.8688 16.682667-1.809066 23.9616-6.2464 7.1424-10.094933 10.624-18.5856 3.6608-11.008-9.028267-3.106133-40.704-5.4528-55.313067-16.247467 7.261867-22.894933 18.688-33.058134 31.496534-2.304 2.901333-6.894933 4.539733-7.441066 5.333333l-18.414934-14.728533 22.0928-29.457067c14.813867-7.253333 24.0384-15.530667 40.507734-22.0928 7.150933-2.850133 14.2848-6.493867 22.0928-7.364267z" fill="#522F25" p-id="4083"></path><path d="M910.020267 593.698133c-9.642667-0.8704-19.7632 0.605867-29.457067 0.008534-2.542933 2.141867 22.4512 29.422933 25.7792 33.134933-20.317867-3.3024-32.631467 23.6032-41.233067 38.016-3.3024 5.5296-0.682667 11.938133-10.3168 9.864533-1.220267-0.1024-2.474667 0.136533-3.6864 0-7.2192-9.668267 5.2224-16.059733 9.1136-22.186666 3.3024-5.1968 5.623467-11.025067 8.448-16.469334-4.215467-13.269333-7.074133-11.042133-17.5616-12.893866-12.654933-2.244267-17.749333-1.809067-29.457066 0-3.694933 0.571733-8.157867-0.887467-12.3136 0.477866-6.2976 2.065067-26.3936 32.469333-27.741867 38.801067-1.706667 8.0128 4.420267 13.056-0.452267 19.643733-13.098667 5.802667-26.146133 12.4928-36.829866 22.0928-6.6048-23.278933 12.868267-43.195733 24.1664-62.378666 2.440533-4.138667 10.990933-11.050667 1.6128-14.958934 38.638933-15.812267 63.317333-32.7936 108.475733-36.983466 8.046933-0.750933 25.284267-2.082133 31.4624 3.84z" fill="#F6CFB3" p-id="4084"></path><path d="M206.6432 608.426667c-5.358933 14.165333-16.221867 4.420267-24.004267 3.746133-23.441067-2.0224-21.930667 0.145067-38.596266 10.9824-0.989867 0.64-4.8384 0.2048-9.275734 3.524267-10.359467 7.739733-13.038933 22.6304-23.867733 29.6192-3.4816 2.2528-10.837333 2.978133-11.204267 5.768533 1.851733 15.095467-6.306133 34.7136 11.204267 42.103467l-22.0928 29.457066h-3.6864l-9.207467 7.3472c-11.025067-5.922133 1.8432-12.4672 1.8432-16.554666v-66.286934c0-3.438933 14.216533-20.778667 15.496534-26.8544l50.781866-35.754666-25.770666-1.834667c2.756267-6.058667 14.728533-4.189867 20.189866-3.601067 26.325333 2.858667 43.869867 9.787733 68.1984 18.3296z" fill="#F8D5BB" p-id="4085"></path><path d="M770.082133 626.8416c9.378133 3.908267 0.827733 10.820267-1.6128 14.958933-11.298133 19.182933-30.762667 39.099733-24.1664 62.378667-6.280533 5.640533-21.102933 22.4256-25.7792 29.457067-2.167467-9.2416-11.1616-21.6576-11.008-31.2832 0.059733-3.822933 3.584-7.2192 3.566934-11.0848-0.0256-3.592533-3.217067-6.638933-2.952534-10.436267 0.631467-9.002667 11.2896-22.7584 6.715734-35.592533 14.2592-1.877333 41.028267-12.5952 55.236266-18.414934z" fill="#F6E4CC" p-id="4086"></path><path d="M339.217067 645.248c-0.315733 0.0768-0.341333 3.072-5.282134 3.7632-6.442667 0.896-13.858133-0.6912-20.5056-0.0768 1.092267 27.690667 13.090133 61.1072-7.355733 84.701867-4.087467-6.135467-16.750933-20.9664-22.0928-25.7792l6.980267-12.475734c-10.308267-16.290133-19.746133-32.452267-27.392-49.962666-1.5616-3.575467-11.613867-10.794667-1.681067-14.890667 25.403733 10.1632 49.493333 17.578667 77.3376 14.728533z" fill="#F7E3CB" p-id="4087"></path><path d="M935.799467 729.949867c-3.6864-5.034667-18.5856-21.3504-23.876267-25.838934-3.882667-3.3024-28.373333-20.7872-31.368533-22.033066 11.6224-15.522133 28.3392-30.574933 29.457066-51.5584 3.0208 3.3024 8.9344 5.7344 12.791467 11.153066 18.141867 25.437867 21.8624 58.376533 12.987733 88.277334z" fill="#F6D0B4" p-id="4088"></path><path d="M261.879467 630.519467c-9.9328 4.096 0.128 11.3152 1.681066 14.890666 7.645867 17.5104 17.083733 33.672533 27.392 49.962667l-6.980266 12.475733c-8.32-7.492267-19.4048-13.047467-29.457067-18.414933-11.332267-6.050133-23.1168-13.1584-36.829867-14.728533 4.1472-12.919467 16.136533-23.3216 20.522667-36.727467 2.807467-8.593067-3.165867-8.516267-5.7856-14.830933 0.477867-0.196267 1.493333-3.584 3.6864-3.6864 8.576 3.575467 17.928533 7.901867 25.7792 11.050666z" fill="#F6D2B6" p-id="4089"></path><path d="M851.0976 674.7136c-13.226667-1.4848-30.3104 0-44.194133 0l11.8272-8.405333c8.098133-16.802133 20.522667-29.149867 32.366933-43.153067 10.487467 1.860267 13.3376-0.375467 17.5616 12.893867-2.824533 5.444267-5.1456 11.272533-8.448 16.469333-3.8912 6.126933-16.3328 12.5184-9.1136 22.186667z" fill="#F29D7A" p-id="4090"></path><path d="M906.333867 626.8416c1.442133 1.6128 2.756267 2.6624 3.6864 3.6864-1.117867 20.983467-17.8432 36.036267-29.457067 51.5584-4.736-1.9712-17.143467-1.877333-23.048533-4.4544l-2.730667-2.909867c9.634133 2.082133 7.0144-4.3264 10.3168-9.864533 8.610133-14.404267 20.923733-41.309867 41.233067-38.016z" fill="#F4A07C" p-id="4091"></path><path d="M821.632 623.1552c11.895467 19.7888-12.458667 36.778667-22.0928 51.5584-2.935467 5.7856-13.021867 4.974933-18.414933 7.364267 4.872533-6.587733-1.262933-11.630933 0.452266-19.643734 1.348267-6.3232 21.4528-36.736 27.741867-38.801066 4.155733-1.365333 8.618667 0.093867 12.3136-0.477867z" fill="#F29E7C" p-id="4092"></path><path d="M851.0976 623.1552c-11.844267 14.0032-24.2688 26.350933-32.366933 43.153067l-11.8272 8.405333h-7.364267c9.634133-14.779733 33.9968-31.761067 22.0928-51.5584 11.707733-1.809067 16.802133-2.244267 29.457067 0z" fill="#F4BF9E" p-id="4093"></path><path d="M236.1088 619.4688c-2.184533 0.1024-3.208533 3.490133-3.6864 3.6864-2.602667 1.058133-6.306133 0.605867-9.9328 2.833067-13.201067 8.098133-26.555733 29.6704-30.7968 44.817066-4.744533 0.989867-9.770667-0.3328-14.506667 0.221867 5.256533-16.708267 23.850667-22.946133 18.269867-44.0576l-12.1344-3.362133c-4.053333 2.082133-8.3968 3.490133-11.639467 6.9376-2.2272 2.363733-21.649067 30.890667-22.306133 32.913066-2.474667 7.534933-2.6112 11.997867 2.030933 18.6112-16.469333 6.562133-25.693867 14.848-40.507733 22.0928-17.5104-7.389867-9.352533-27.008-11.204267-42.103466 0.375467-2.7904 7.722667-3.515733 11.204267-5.768534-4.053333 11.904-6.331733 17.962667 5.768533 25.540267l8.8064 0.128c5.1456-19.8144 46.395733-40.413867 18.568534-58.811733 16.6656-10.837333 15.163733-13.0048 38.596266-10.9824 7.790933 0.674133 18.645333 10.410667 24.004267-3.746134 11.528533 4.053333 18.286933 6.391467 29.457067 11.050667z" fill="#F6C7A9" p-id="4094"></path><path d="M446.6944 616.465067c1.757867-1.834667 21.213867-12.288 24.968533-13.687467 23.611733-8.832 62.984533-8.064 85.922134 2.7136 34.141867 16.042667 32.964267 51.456 4.497066 72.977067-21.2736 16.085333-47.5904 20.6848-72.951466 13.883733-23.5008-6.306133-51.925333-25.8048-50.696534-52.693333 0.213333-4.753067 5.691733-20.514133 8.260267-23.1936z" fill="#4F2E26" p-id="4095"></path><path d="M511.1552 715.963733c9.412267-0.401067 28.322133 7.970133 36.206933 13.917867 46.813867 35.259733 43.374933 122.9312-12.910933 145.5872-19.037867 7.662933-28.177067 7.133867-46.805333-1.169067-31.3344-13.960533-40.661333-44.424533-45.277867-76.2112 4.488533-20.283733 7.3728-42.589867 21.998933-58.9824 4.7104-5.2736 19.4048-16.452267 25.642667-18.551466 3.84-1.288533 17.783467-4.437333 21.1456-4.5824z m-11.281067 32.861867c-13.431467 3.925333-26.6496 32.273067-28.0064 45.653333-3.2512 31.965867 27.127467 72.3456 60.1856 49.117867 23.210667-16.315733 23.799467-58.5728 7.773867-80.401067-9.0368-12.305067-24.814933-18.781867-39.944533-14.370133z" fill="#4D2A23" p-id="4096"></path><path d="M151.406933 682.077867c-4.642133-6.621867-4.5056-11.076267-2.030933-18.6112 0.6656-2.0224 20.087467-30.549333 22.306133-32.913067 3.242667-3.438933 7.586133-4.846933 11.639467-6.9376l12.1344 3.362133c5.5808 21.111467-13.013333 27.349333-18.269867 44.0576-2.3552 0.273067-4.061867 1.092267-3.6864 3.6864-7.808 0.8704-14.941867 4.514133-22.0928 7.364267z" fill="#F39B7A" p-id="4097"></path><path d="M232.4224 623.1552c2.628267 6.314667 8.593067 6.237867 5.7856 14.830933-4.3776 13.397333-16.375467 23.808-20.522667 36.727467-11.0848-1.271467-33.083733-1.237333-44.194133 0-0.384-2.5856 1.322667-3.4048 3.6864-3.6864 4.744533-0.554667 9.762133 0.768 14.506667-0.221867 4.241067-15.146667 17.595733-36.718933 30.7968-44.817066 3.626667-2.2272 7.330133-1.774933 9.9328-2.833067z" fill="#F19D7D" p-id="4098"></path><path d="M144.042667 623.1552c27.8272 18.397867-13.422933 38.997333-18.568534 58.811733l-8.8064-0.128c-12.100267-7.5776-9.821867-13.636267-5.768533-25.540266 10.8288-6.997333 13.508267-21.879467 23.867733-29.6192 4.437333-3.319467 8.285867-2.875733 9.275734-3.524267z" fill="#F69F7D" p-id="4099"></path><path d="M499.874133 748.8256c15.1296-4.420267 30.916267 2.065067 39.944534 14.370133 16.0256 21.828267 15.4368 64.093867-7.773867 80.401067-33.0496 23.236267-63.4368-17.152-60.1856-49.117867 1.365333-13.380267 14.574933-41.728 28.0064-45.653333z" fill="#F8B195" p-id="4100"></path><path d="M842.5728 5.2224c34.901333 2.781867 55.441067 22.792533 71.842133 51.9424 37.922133 67.387733 47.496533 185.856 51.003734 262.016 0.9216 20.078933-4.992 47.6928-3.9936 62.600533 1.245867 18.577067 32.349867 85.486933 39.765333 111.530667 28.091733 98.6624 35.4816 189.141333-8.251733 284.561067-4.642133 10.1376-18.414933 27.400533-19.9168 35.601066-1.297067 7.0912 6.033067 24.2176 6.8864 32.546134 4.224 41.207467-2.048 78.984533-27.690667 112.0768-36.642133 47.2832-107.067733 72.209067-163.771733 49.928533-16.9472-6.664533-30.976-18.688-45.909334-27.835733-18.423467 5.802667-37.384533 13.1328-56.072533 17.809066-130.781867 32.725333-280.2176 26.641067-407.5008-17.297066-36.6336 31.189333-73.284267 43.630933-121.250133 32.0256-51.242667-12.3904-100.829867-56.106667-112.392534-108.561067-0.904533-4.113067-4.7104-29.678933-4.514133-32.273067 1.058133-13.661867 10.3424-45.175467 10.026667-55.492266-0.1536-4.957867-18.747733-33.152-22.843734-42.205867-52.590933-116.258133-21.9136-236.4416 17.425067-350.967467 3.319467-9.668267 12.706133-25.079467 13.943467-33.928533 4.8128-34.372267-1.9968-81.467733-0.162134-117.998933 2.909867-57.949867 15.3856-150.058667 39.927467-203.118934 26.001067-56.209067 61.627733-74.385067 121.1392-49.698133 32.750933 13.585067 71.816533 40.260267 100.386133 61.6448 11.281067 8.448 34.389333 33.604267 46.242134 34.926933 10.112 1.134933 29.5168-6.058667 40.516266-7.3984 67.2256-8.183467 135.202133-8.7552 202.410667 0 10.5984 1.3824 31.2576 8.695467 40.6016 7.458134 10.461867-1.3824 42.1376-33.655467 53.5296-42.350934C744.021333 42.146133 792.209067 12.740267 842.5728 5.213867zM29.883733 671.0272c0.6144 5.3504-0.8448 11.067733 0.085334 16.4608 5.418667 31.496533 16.887467 61.201067 29.3888 90.325333l25.770666-44.1856h3.6864l18.414934 14.728534c-15.5392 22.272-32.059733 67.157333-36.753067 93.986133-11.042133 63.197867 19.208533 117.8368 80.810667 139.989333 63.880533 22.980267 116.394667-11.733333 139.272533-70.894933 23.355733-60.3904 25.3184-138.914133-24.977067-185.173333-2.824533 13.1072-6.596267 39.808-14.592 49.8688-5.8112 7.313067-19.421867 8.226133-21.922133-0.469334-5.179733-18.005333 10.274133-44.202667 13.824-62.3872-1.245867-3.515733-4.104533-4.0192-6.775467-5.4272l18.414934-18.414933c10.052267 5.367467 21.1456 10.922667 29.457066 18.414933 5.3504 4.8128 18.005333 19.643733 22.0928 25.7792 34.449067 51.712 32.162133 129.160533 10.257067 185.181867-2.244267 5.751467-19.242667 38.016-17.629867 39.4496 14.788267 2.833067 28.672 10.129067 43.118934 13.969067 99.319467 26.3936 218.308267 25.2672 318.762666 3.601066 21.9392-4.727467 43.648-11.818667 65.297067-17.570133 2.3296-2.039467-15.232-33.450667-17.621333-39.458133-22.186667-55.6544-23.918933-133.76 10.248533-185.173334 4.676267-7.04 19.498667-23.816533 25.7792-29.457066 10.6752-9.6 23.722667-16.290133 36.829867-22.0928 5.393067-2.389333 15.479467-1.5872 18.414933-7.364267h7.364267c13.883733 0 30.967467-1.4848 44.194133 0 1.211733 0.136533 2.466133-0.1024 3.6864 0l2.730667 2.909867c5.905067 2.568533 18.321067 2.4832 23.048533 4.4544 2.9952 1.245867 27.485867 18.730667 31.368533 22.033066 5.282133 4.497067 20.181333 20.804267 23.876267 25.838934 7.586133 10.368 16.1792 27.409067 21.461333 39.406933 2.141867 4.872533-0.392533 5.973333 7.9872 4.7872 10.222933-28.0576 24.814933-54.357333 25.796267-84.701867l7.5264-42.1888c-1.783467-53.9136-11.409067-106.1376-26.820267-157.627733-8.174933-27.323733-32.9216-77.303467-35.882666-100.3776-4.821333-37.6064 2.158933-85.9136 0.1024-125.303467-2.756267-52.565333-21.828267-169.0624-55.330134-209.8176-15.4368-18.773333-28.023467-23.722667-52.753066-19.473066-24.2688 4.164267-80.375467 40.891733-101.819734 56.533333-11.221333 8.183467-61.687467 53.034667-68.317866 53.486933-18.0736-3.131733-37.256533-8.7808-55.278934-11.2384-57.617067-7.842133-112.170667-5.6576-169.3952-0.128-25.685333 2.4832-51.464533 4.616533-76.782933 10.862934-43.989333-36.113067-91.118933-76.117333-143.368533-99.9168-54.7072-24.9088-74.88-2.2528-93.858134 47.556266-24.2944 63.761067-30.993067 145.271467-34.090666 212.642134-1.544533 33.6128 8.0896 65.672533-1.536 97.8944C54.272 500.010667 17.536 563.1744 29.909333 671.0272z m817.527467 29.4656c-22.442667 0.1792-45.5168-3.447467-64.657067 11.008-3.336533 4.770133 28.8768 68.1216 3.438934 73.4464-1.416533 0.298667-11.170133-3.242667-11.9296-3.950933-5.9392-5.512533-8.516267-38.698667-13.346134-47.4112-3.7376-6.7328-10.103467 2.090667-13.0048 5.512533-51.797333 61.149867-31.445333 193.621333 35.5584 237.073067 48.0768 31.172267 128.3584 1.8432 155.4176-46.1056 32.494933-57.591467 6.920533-154.632533-38.1184-200.0896-1.5616-1.578667-17.339733-14.216533-18.397866-14.754134-7.185067-3.677867-5.4528 6.0928-5.512534 9.1904-0.2816 14.122667 4.497067 52.983467-19.9936 45.781334-2.8416-1.2032-9.472-11.716267-9.472-12.629334v-57.079466z" fill="#4A2921" p-id="4101"></path><path d="M991.035733 689.442133c1.5104-46.976-33.2288-91.451733-81.015466-95.744-6.178133-5.922133-23.415467-4.590933-31.4624-3.84-45.1584 4.189867-69.8368 21.179733-108.475734 36.983467-14.216533 5.819733-40.977067 16.5376-55.236266 18.414933-1.194667 0.1536-2.466133-0.093867-3.6864 0-9.685333 0.733867-19.7376-0.503467-29.457067 0-52.471467-11.323733-65.083733-43.716267-107.912533-63.325866-49.339733-22.587733-105.275733-16.878933-149.7088 13.7728-33.314133 22.980267-41.796267 38.869333-84.864 49.553066-27.844267 2.850133-51.925333-4.565333-77.3376-14.728533-7.850667-3.140267-17.2032-7.4752-25.7792-11.050667-11.178667-4.650667-17.937067-6.997333-29.457067-11.050666-24.328533-8.541867-41.873067-15.470933-68.1984-18.3296-5.4528-0.5888-17.4336-2.4576-20.189867 3.601066-26.973867 0.1024-56.302933 18.8672-71.714133 40.6016-8.098133 11.4176-8.917333 25.762133-16.6656 36.727467-12.373333-107.861333 24.3712-171.025067 53.538133-268.680533 9.6256-32.221867-0.008533-64.2816 1.536-97.8944 3.0976-67.3792 9.796267-148.881067 34.090667-212.642134 18.978133-49.809067 39.150933-72.465067 93.858133-47.556266 52.2496 23.790933 99.3792 63.803733 143.368534 99.9168 25.3184-6.2464 51.106133-8.379733 76.782933-10.862934 57.224533-5.5296 111.786667-7.714133 169.3952 0.128 18.0224 2.449067 37.205333 8.098133 55.278933 11.2384 6.6304-0.443733 57.096533-45.303467 68.317867-53.486933 21.444267-15.6416 77.550933-52.369067 101.819733-56.533333 24.721067-4.241067 37.316267 0.699733 52.753067 19.473066 33.501867 40.7552 52.573867 157.243733 55.330133 209.8176 2.065067 39.389867-4.9152 87.697067-0.1024 125.303467 2.952533 23.0656 27.6992 73.053867 35.882667 100.3776 15.4112 51.490133 25.0368 103.714133 26.820267 157.627733l-7.5264 42.1888zM147.729067 280.669867c6.3232 1.518933 7.3216-2.423467 11.042133-5.521067 27.2128-22.664533 46.788267-47.7184 77.499733-69.802667 8.046933-5.794133 42.376533-24.490667 43.972267-29.806933 0.989867-4.590933-3.029333-6.229333-5.469867-9.0368-10.146133-11.665067-32.512-35.4816-44.125866-44.253867-5.376-4.061867-28.125867-16.512-33.792-17.7664-25.173333-5.546667-35.268267 18.850133-41.002667 38.869334-8.490667 29.6192-15.300267 94.199467-11.810133 124.416 0.520533 4.488533 4.181333 8.1408 3.677866 12.9024z m725.461333 0.008533v-82.858667c0-1.143467-2.986667-17.4592-3.754667-22.024533-4.1472-24.840533-15.0272-78.813867-49.0752-71.304533-16.768 3.703467-53.316267 35.2-65.092266 49.066666-2.474667 2.909867-15.232 19.9424-14.6176 22.007467 21.341867 18.3552 46.267733 32.196267 68.164266 49.800533 19.4816 15.658667 35.106133 34.645333 53.316267 49.792 3.729067 3.106133 4.718933 7.031467 11.050667 5.521067z m-542.370133 59.562667c-7.9616 1.1008-22.5792 6.7584-28.3904 12.279466-13.064533 12.416-15.470933 42.2912-5.461334 56.942934 21.307733 31.189333 88.669867 54.9632 111.744 16.196266 22.4-37.632-15.010133-72.379733-50.0224-81.6128-6.920533-1.826133-21.5808-4.6848-27.8784-3.8144z m342.434133 0.1024c-39.8336 5.410133-77.986133 33.373867-68.283733 77.824 3.746133 17.152 29.44 28.544 45.431466 28.535466 15.232-0.008533 49.467733-13.585067 60.714667-24.285866 33.553067-31.906133 10.845867-88.6784-37.8624-82.065067zM400.6912 544.256c0-45.021867-36.497067-81.527467-81.527467-81.527467s-81.527467 36.497067-81.527466 81.527467 36.497067 81.527467 81.527466 81.527467 81.527467-36.497067 81.527467-81.527467z m380.416-0.0768c0-44.987733-36.471467-81.4592-81.4592-81.4592s-81.4592 36.471467-81.4592 81.4592 36.471467 81.4592 81.4592 81.4592 81.4592-36.471467 81.4592-81.4592z" fill="#F7C17B" p-id="4102"></path><path d="M910.020267 593.698133c47.7952 4.292267 82.5344 48.776533 81.015466 95.744-0.981333 30.344533-15.573333 56.644267-25.796266 84.701867-8.379733 1.186133-5.845333 0.085333-7.9872-4.7872-5.282133-11.997867-13.866667-29.038933-21.461334-39.406933 8.874667-29.9008 5.162667-62.839467-12.987733-88.277334-3.8656-5.410133-9.7792-7.850667-12.791467-11.153066-0.930133-1.015467-2.235733-2.0736-3.6864-3.6864-3.319467-3.712-28.322133-30.993067-25.7792-33.134934 9.693867 0.597333 19.8144-0.878933 29.457067-0.008533z" fill="#F6E7D2" p-id="4103"></path><path d="M400.6912 544.256c0 45.021867-36.497067 81.527467-81.527467 81.527467s-81.527467-36.497067-81.527466-81.527467 36.497067-81.527467 81.527466-81.527467 81.527467 36.497067 81.527467 81.527467z m-68.309333-17.3824c56.183467 26.692267 56.362667-57.233067 10.3168-41.992533-19.242667 6.365867-17.0752 26.094933-10.3168 41.992533z" fill="#4D2B24" p-id="4104"></path><path d="M781.1072 544.1792c0 44.987733-36.471467 81.4592-81.4592 81.4592s-81.4592-36.471467-81.4592-81.4592 36.471467-81.4592 81.4592-81.4592 81.4592 36.471467 81.4592 81.4592z m-89.403733-36.309333c0-13.789867-11.178667-24.968533-24.968534-24.968534s-24.968533 11.178667-24.968533 24.968534 11.178667 24.968533 24.968533 24.968533 24.968533-11.178667 24.968534-24.968533z" fill="#4D2C25" p-id="4105"></path><path d="M147.729067 280.669867c0.503467-4.753067-3.165867-8.413867-3.677867-12.9024-3.4816-30.225067 3.328-94.7968 11.810133-124.416 5.7344-20.0192 15.829333-44.416 41.002667-38.869334 5.666133 1.245867 28.416 13.696 33.792 17.7664 11.613867 8.772267 33.9712 32.597333 44.125867 44.253867 2.440533 2.798933 6.4512 4.437333 5.469866 9.0368-1.595733 5.316267-35.925333 24.0128-43.972266 29.806933-30.702933 22.0928-50.2784 47.146667-77.499734 69.802667-3.720533 3.0976-4.718933 7.04-11.042133 5.521067z" fill="#F8C6B3" p-id="4106"></path><path d="M873.1904 280.6784c-6.331733 1.5104-7.3216-2.423467-11.050667-5.521067-18.210133-15.1552-33.834667-34.141867-53.316266-49.792-21.896533-17.595733-46.830933-31.4368-68.164267-49.800533-0.6144-2.056533 12.142933-19.0976 14.6176-22.007467 11.776-13.866667 48.324267-45.3632 65.092267-49.066666 34.048-7.517867 44.928 46.464 49.0752 71.304533 0.759467 4.565333 3.754667 20.881067 3.754666 22.024533v82.858667z" fill="#F8C7B5" p-id="4107"></path><path d="M330.820267 340.241067c6.2976-0.8704 20.957867 1.988267 27.8784 3.8144 35.012267 9.233067 72.4224 43.9808 50.0224 81.6128-23.074133 38.7584-90.436267 14.993067-111.744-16.196267-10.0096-14.651733-7.6032-44.526933 5.461333-56.942933 5.8112-5.521067 20.4288-11.1872 28.3904-12.279467z" fill="#F6EDDA" p-id="4108"></path><path d="M673.2544 340.343467c48.708267-6.613333 71.415467 50.167467 37.8624 82.065066-11.246933 10.692267-45.482667 24.2688-60.714667 24.285867-15.991467 0.017067-41.685333-11.374933-45.431466-28.535467-9.7024-44.450133 28.4416-72.413867 68.283733-77.824z" fill="#F6ECD9" p-id="4109"></path><path d="M711.159467 645.248l-2.176 3.2768c-10.965333 3.6864-20.343467-1.783467-27.2896-3.2768 9.728-0.503467 19.771733 0.733867 29.457066 0z" fill="#F6E4CC" p-id="4110"></path><path d="M332.381867 526.8736c-6.7584-15.906133-8.925867-35.626667 10.3168-41.992533 46.045867-15.232 45.866667 68.693333-10.3168 41.992533z" fill="#EFE5D6" p-id="4111"></path><path d="M666.734933 507.869867m-24.968533 0a24.968533 24.968533 0 1 0 49.937067 0 24.968533 24.968533 0 1 0-49.937067 0Z" fill="#EEE6D7" p-id="4112"></path></svg>