<?xml version="1.0" standalone="no"?><!DOCTYPE svg PUBLIC "-//W3C//DTD SVG 1.1//EN" "http://www.w3.org/Graphics/SVG/1.1/DTD/svg11.dtd"><svg t="1772951656318" class="icon" viewBox="0 0 1024 1024" version="1.1" xmlns="http://www.w3.org/2000/svg" p-id="3181" xmlns:xlink="http://www.w3.org/1999/xlink" width="200" height="200"><path d="M803.319107 268.840232c-2.6934 2.574822 5.34445 32.422432 6.140612 38.740909 2.507064 19.920993 5.386799 45.059388 6.377767 64.810985 1.304351 26.002316-3.55732 59.22091-0.135517 83.70713 2.134392 15.245658 20.581638 50.962845 26.400397 69.554077 57.823391 184.718081 14.25469 329.280794-166.609628 409.278148-170.666667 75.482945-414.292275 68.56311-565.368271-48.726816-124.836526-96.911563-129.503391-235.9689-83.038015-376.830306 5.064946-15.347295 19.15024-42.323639 20.954309-56.425873 4.175616-32.617237-1.998875-74.305641-0.084698-108.413565 2.007345-35.844235 10.23153-87.179752 20.166617-122.210885 10.629611-37.470438 31.338296-89.974789 77.47335-89.847742 39.257568 0.110108 111.462696 52.589049 142.436791 77.49029 6.208371 4.988718 10.290819 12.780943 18.980843 15.101671l45.906369-5.81029c65.471629-11.070041 133.026832-5.844169 198.12579 6.453995 28.983689-20.573168 55.866865-46.533135 87.171282-64.726286 27.128801-15.770786 63.125492-34.311199 94.031828-23.808635 3.896112 1.32129 15.999471 10.104483 18.455715 7.843044-1.600794-3.828354-3.404864-5.259752-2.63411-10.104483 15.042382-95.386998 143.647974-115.883937 217.26756-76.058892 44.373333 24.003441 75.203441 73.102928 49.065608 122.371811-22.588983 42.560794-78.015418 59.076923-122.710604 62.981506-7.444963 0.652175-19.59914-3.286286-21.40321-2.896675-4.556758 0.982498-20.03957 15.948652-26.849296 19.666898-12.620017 6.885955-25.773631 9.291381-40.113019 7.868453z m21.665773-18.582763l21.589545-10.900645 18.548884-15.567511c48.913151 9.824979 135.212043-17.100546 142.411381-74.153184 4.599107-36.479471-33.210124-69.147527-64.057171-81.318643-51.259289-20.217436-140.124533-13.035037-168.616973 40.519569-17.684963 33.235533-4.116328 69.257634 25.434839 90.279703 22.732969 16.168867 43.323077 10.333168 24.681025 51.140711zM26.425806 702.164169c-0.321853 13.924367 5.310571 33.777601 9.952027 47.303887 56.307295 164.094094 281.900678 222.451084 437.245459 212.626104 102.222134-6.462465 258.176741-56.823954 321.827361-142.45373 20.581638-27.687808 46.931216-82.970256 45.017039-117.484731 5.293631-3.625079 3.006782-11.459653 3.083011-17.041257 0.762283-52.368834-5.225873-93.879371-20.02263-143.995236-6.68268-22.648271-26.967874-62.718941-29.441059-81.987759-2.972903-23.207279 1.109545-53.105707 0.084698-77.46488-2.185211-51.750538-16.228156-164.670041-48.244036-205.562282-24.181307-30.880926-51.21694-19.743127-80.945972-3.828354-37.495848 20.073449-72.713317 50.386898-105.042581 77.769793-15.186369-2.007345-31.024913-6.936774-46.067295-9.011878-57.687874-7.978561-115.579024-6.928304-173.224549 0-12.077949 1.448337-34.353548 10.112953-45.017039 4.666865-2.430835-1.245062-4.861671-5.844169-7.597419-7.876923-34.624582-25.84139-75.864086-60.135649-116.087213-75.813267-17.007378-6.623391-30.211811-10.66349-46.397618 0.118577-22.69062 15.110141-37.089297 67.267229-42.687841 93.49823C70.197783 314.882117 68.978131 376.821836 69.621836 437.65201c0.050819 4.514409 2.981373 8.351232 2.6934 11.730686-1.626203 19.048602-25.316261 68.351365-32.041291 91.74498-12.92493 45.000099-20.895021 88.865244-16.998908 134.788552 0.711464 8.402051-2.854326 19.760066 3.159239 26.247941z m776.884831-445.715269c0.626766-9.994376 12.077949-19.184119 9.071166-29.153085l-24.537039-17.269942 7.639769 31.041852 7.817634 15.381175z" fill="#4A2821" p-id="3182"></path><path d="M840.467692 702.164169c-2.193681-39.511663-27.281257-64.260447-64.192688-73.653466-3.752126-0.957089-7.250157-0.101638-10.096013-0.626766-0.271034-0.050819-0.694524-2.6934-4.47206-3.142299-25.714342-3.040662-64.277386 10.426336-88.441753 20.115798-14.330918 5.742531-28.467031 15.313416-43.280728 20.175087-20.573168 6.750438-44.95775 10.841356-65.954409 5.598544-33.286352-8.300414-52.055451-41.120926-85.663656-53.622366-51.598081-19.192589-90.83024-4.277254-133.009892 24.93512-36.310074 25.146865-38.249661 31.245128-86.79861 29.271663l-1.931117-2.761158c-2.396956-0.8978-5.039537-0.101638-7.351795-0.338793-7.038412-0.719934-8.512159-0.474309-15.474342-3.09148-35.217469-13.263722-69.062829-34.870207-108.328867-37.140116-26.146303-1.516096-49.84483 0.686055-71.053234 17.159835-16.575418 12.874111-27.518412 36.310074-27.992722 57.128867-6.013565-6.487874-2.447775-17.845889-3.159239-26.247941-3.887643-45.923309 4.073978-89.788453 16.998909-134.788552 6.725029-23.402084 30.415087-72.704847 32.04129-91.74498 0.287974-3.379454-2.65105-7.216278-2.6934-11.730686-0.643706-60.830174 0.575947-122.778362 13.238313-182.024682 5.607014-26.231001 19.997221-78.388089 42.687841-93.49823 16.194276-10.782068 29.39024-6.741969 46.397618-0.118577 40.231596 15.677618 81.46263 49.971878 116.087213 75.813267 2.727279 2.041224 5.166584 6.640331 7.597419 7.876923 10.66349 5.446088 32.93062-3.218528 45.017039-4.666865 57.637055-6.928304 115.536675-7.978561 173.224549 0 15.050852 2.083573 30.880926 7.004533 46.067295 9.011878 32.329264-27.382895 67.546733-57.696344 105.042581-77.769794 29.729032-15.914773 56.764665-27.044103 80.945972 3.828354 32.015881 40.892242 46.058825 153.820215 48.244036 205.562283 1.024847 24.359173-3.057601 54.257601-0.084698 77.46488 2.464715 19.268817 22.749909 59.339487 29.441059 81.987759 14.796758 50.115864 20.776443 91.626402 20.02263 143.995235-0.084698 5.590074 2.21062 13.416179-3.083011 17.041258z m-691.39057-485.557254c-6.191431 1.804069-13.458528 15.203309-15.906303 21.233813-11.883143 29.271663-16.46531 84.57952-13.949777 116.171911 0.398081 5.056476-0.186336 7.444963 4.709214 10.756658 32.744285-34.107924 69.46938-63.811547 109.828024-88.382465 2.269909-8.622266-37.936278-43.467064-46.507726-49.209595-11.883143-7.953151-22.665211-15.084731-38.164963-10.578792z m589.244665 148.179322v-69.638776c0-0.965558-2.524003-14.305509-3.15077-18.515004-1.905707-12.713184-10.477155-53.292043-21.521786-58.949876-24.240596-12.416741-58.492506 24.570918-74.432688 40.265475l-12.323574 18.616642c17.727312 13.212903 37.021538 24.757254 54.223722 38.647742 17.015848 13.738031 31.194309 31.033383 47.913714 44.940811 3.13383 2.608701 3.963871 5.911927 9.282912 4.641455zM276.200496 418.018991c-25.400959 4.45512-35.708718 38.334359-22.190901 58.111365 21.742002 31.812605 91.533234 44.940811 97.351993-1.507626 4.599107-36.699686-43.009694-62.244632-75.161092-56.612209z m281.705873 0.050819c-31.041853 4.429711-67.20794 40.163838-45.110207 71.646121 14.70359 20.954309 52.174028 17.413929 71.874806 4.641455 24.138958-15.643739 35.564731-51.555732 9.78263-70.824549-10.841356-8.105608-23.469843-7.334855-36.547229-5.471497zM190.892572 605.777734c0.779222 0.745343 8.114078 3.193118 9.841919 3.049131 44.889992-18.286319 90.931878-15.313416 133.645129 6.801257 16.03335-4.243375 3.447213-19.226468-4.556758-26.502034-29.610455-26.917055-78.565955-33.515037-115.460447-19.378925-9.926617 3.802945-28.094359 13.890488-27.111861 25.570356 0.135517 1.609264 3.057601 9.892738 3.650488 10.460215z m327.71388 12.764003c15.13555 1.973466 27.958842-8.435931 42.323639-11.739156 14.26316-3.277816 31.16043-4.00622 45.779322-3.616609l52.267196 12.094888c14.169992-10.273879 15.974061-17.837419 1.821009-29.051447-33.4134-26.476625-93.091679-20.751034-126.691415 3.040661-8.613797 6.098263-21.343921 18.548883-15.508221 29.263193z" fill="#F6C07A" p-id="3183"></path><path d="M149.077122 216.606915c15.491282-4.505939 26.27335 2.625641 38.164962 10.578792 8.579917 5.742531 48.777634 40.587328 46.507726 49.209595-40.358644 24.570918-77.083739 54.274541-109.828023 88.382465-4.88708-3.311696-4.302663-5.700182-4.709215-10.756659-2.515533-31.60086 2.066634-86.900248 13.949777-116.17191 2.447775-6.038974 9.714872-19.438213 15.906303-21.233813z" fill="#F7C7B4" p-id="3184"></path><path d="M738.321787 364.786237c-5.319041 1.270471-6.149082-2.032754-9.282912-4.641456-16.719404-13.907428-30.897866-31.202779-47.913714-44.940811-17.210653-13.890488-36.50488-25.434839-54.223722-38.647742l12.323573-18.616642c15.940182-15.686088 50.192093-52.673747 74.432689-40.265475 11.053102 5.657833 19.624549 46.245161 21.521786 58.949876 0.626766 4.201026 3.150769 17.549446 3.150769 18.515004v69.638776z" fill="#F7C9B6" p-id="3185"></path><path d="M276.200496 418.018991c32.151398-5.632423 79.760199 19.904053 75.161092 56.612208-5.827229 46.448437-75.618462 33.320232-97.351993 1.507626-13.517816-19.777006-3.210058-53.664715 22.190901-58.111364z" fill="#F6EDDA" p-id="3186"></path><path d="M557.906369 418.06981c13.077386-1.863358 25.705873-2.634111 36.547229 5.471497 25.782101 19.268817 14.356328 55.180811-9.78263 70.824549-19.700778 12.772473-57.171216 16.312854-71.874806-4.641456-22.097734-31.482283 14.068354-67.21641 45.110207-71.64612z" fill="#F5EDD9" p-id="3187"></path><path d="M190.892572 605.777734c-0.592887-0.567477-3.514971-8.850951-3.650488-10.460215-0.974028-11.679868 17.185244-21.767411 27.111861-25.570356 36.894491-14.144582 85.849992-7.5466 115.460447 19.378925 8.00397 7.275567 20.598577 22.25866 4.556758 26.502034-42.713251-22.106203-88.755136-25.079107-133.645128-6.801257-1.727841 0.143987-9.062696-2.303788-9.841919-3.049131z" fill="#512E26" p-id="3188"></path><path d="M518.606452 618.541737c-5.827229-10.722779 6.902895-23.16493 15.508221-29.263193 33.599735-23.791696 93.278015-29.508817 126.691415-3.040661 14.153052 11.214028 12.340513 18.777568-1.821009 29.051447l-52.267196-12.094888c-14.618892-0.389611-31.516162 0.338792-45.779322 3.616608-14.364797 3.303226-27.188089 13.712622-42.32364 11.739157z" fill="#502D26" p-id="3189"></path><path d="M824.98488 250.257469c18.642051-40.807543-1.956526-34.980314-24.681026-51.140711-29.551166-21.013598-43.119801-57.044169-25.434838-90.279703 28.49244-53.554607 117.357684-60.737006 168.616972-40.519569 30.847047 12.171117 68.664748 44.839173 64.057172 81.318643-7.199338 57.052639-93.49823 83.978164-142.411382 74.153184l-18.548883 15.567511-21.589545 10.900645z m114.062928-160.469016c-24.342233-13.712622-50.844268 4.539818-69.181406 21.182994-15.016973-25.189214-54.198313-40.773664-72.306766-10.383986-7.724467 12.950339-3.616609 29.449529 4.294194 41.273383 8.486749 12.687775 6.65727 5.734061 11.298726 22.749909 4.311133 15.804665 29.483408 31.702498 44.932341 35.547791 19.751596 4.920959 50.234442 2.193681 69.842051-3.260877 13.323011-3.709777 34.167213-13.323011 36.343954-28.636426 2.312258-16.295914-4.641456-30.160993-21.623425-32.549479 3.853763-16.965029 5.530786-30.27957-3.582729-45.914839z" fill="#F3EBDD" p-id="3190"></path><path d="M803.310637 256.4489l-7.817635-15.381175-7.639768-31.041852 24.537039 17.269942c2.998313 9.977436-8.45287 19.15871-9.071166 29.153085z" fill="#E9E5DB" p-id="3191"></path><path d="M939.047808 89.788453c9.113515 15.643739 7.436493 28.94981 3.58273 45.914839 16.981969 2.388486 23.935682 16.253565 21.623424 32.549479-2.168271 15.313416-23.012473 24.93512-36.343954 28.636427-19.60761 5.454557-50.081985 8.181836-69.842051 3.260876-15.448933-3.845294-40.621208-19.743127-44.932341-35.547791-4.641456-17.024318-2.803507-10.062134-11.298726-22.749909-7.910802-11.832324-12.01019-28.323044-4.294194-41.273383 18.108453-30.381208 57.289793-14.805227 72.306766 10.383987 18.337138-16.643176 44.830703-34.895616 69.181406-21.182995z m-83.114243 33.565856c0.44043-5.191993 0.779222-6.979123-3.13383-10.782067-2.557883-2.481654-20.657866-13.094326-23.656178-13.560166-1.651613-0.254094-11.883143 3.023722-13.543226 4.133267-6.403176 4.277254-9.884268 24.282945-1.448338 29.483408 11.315666-6.437055 8.579917-17.109016 15.652209-24.570918l10.646551-0.194806 0.101637 12.306634 15.381175 3.176179z m15.474342 9.282912l23.18187 15.186369c7.055352-7.529661 23.706998-10.553383 29.559636-16.600827 7.428023-7.665178 10.655021-32.998379-1.643143-32.744285-10.604202 0.220215-41.358081 17.718842-48.006882 26.434276-2.041224 2.67646-4.260314 2.998313-3.09995 7.732937z m-38.419057 3.328635c-10.807477 7.538131-7.089231 19.082481-1.414458 28.780414 9.714872 16.617767 39.122051 23.071762 56.959471 20.607047 17.337701-2.388486-3.12536-26.154773-11.061572-32.464781-7.927742-6.310008-35.336046-19.624549-44.483441-16.93115z m75.576113 49.294293c15.863954-4.395831 36.420182-5.132705 42.662432-23.207279-10.045194-23.512192-28.136708-11.324136-45.728503-4.599107l3.066071 27.806386z" fill="#512B25" p-id="3192"></path><path d="M832.98885 135.965856c9.147395-2.6934 36.555699 10.621141 44.483441 16.93115 7.936212 6.310008 28.399272 30.076294 11.061572 32.464781-17.837419 2.456245-47.244599-3.98928-56.959471-20.607048-5.674773-9.706402-9.393019-21.242283 1.414458-28.780413z" fill="#EDC570" p-id="3193"></path><path d="M871.407907 132.637221c-1.168834-4.734624 1.058726-5.048007 3.099951-7.732936 6.648801-8.715434 37.39421-26.214061 48.006881-26.434277 12.298164-0.254094 9.071166 25.079107 1.643144 32.744285-5.852639 6.047444-22.512754 9.071166-29.559637 16.600827l-23.181869-15.186369z" fill="#E77666" p-id="3194"></path><path d="M908.564963 185.260149l-3.066071-27.806386c17.591795-6.725029 35.674839-18.921555 45.728503 4.599107-6.24225 18.074574-26.798478 18.819917-42.662432 23.207279z" fill="#E77969" p-id="3195"></path><path d="M855.933565 123.354309l-15.381175-3.176178-0.101637-12.306634-10.646551 0.194806c-7.080761 7.461902-4.336543 18.133863-15.652209 24.570918-8.435931-5.200463-4.954839-25.206154 1.448338-29.483408 1.651613-1.109545 11.891613-4.387361 13.543226-4.133267 2.989843 0.46584 21.098296 11.078511 23.656178 13.560165 3.921522 3.802945 3.57426 5.598544 3.13383 10.782068z" fill="#E2D08B" p-id="3196"></path><path d="M629.99292 665.024053c14.762878-0.940149 0.211745 14.051414-1.609264 18.506534-16.211216 39.655649-7.944682 95.090554 33.447279 115.248702 17.524036 8.537568 34.573763 9.977436 53.224284 11.764565 11.637519 1.118015 10.587262 0.88933 21.784351 0 14.000596-1.101075 23.241158 1.033317 36.691216-6.631861 40.892242-23.308916 48.438842-75.406716 30.398147-116.290488-7.766816-17.600265-23.291977-44.424152-40.697436-52.157088-5.081886-2.261439-11.747626-0.050819-15.618329-6.047444l18.565823-1.541506c2.845856 0.525128 6.343888-0.330323 10.096013 0.626766 36.911431 9.393019 61.999007 34.141803 64.192688 73.653466 1.914177 34.514475-24.435401 89.796923-45.017039 117.484731-63.65062 85.629777-219.613697 135.991266-321.827361 142.45373-155.336311 9.824979-380.938164-48.53201-437.245459-212.626104-4.641456-13.526286-10.273879-33.37952-9.952027-47.303887 0.474309-20.818792 11.417304-44.254756 27.992722-57.128867 21.208404-16.47378 44.915401-18.675931 71.053234-17.159835 1.693962 7.919272-3.447213 6.055914-8.300414 8.664616-13.212903 7.097701-24.782663 12.357452-35.090422 23.774756-29.102266 32.219156-32.142928 98.351431 3.286287 126.826931 25.993846 20.895021 59.449595 23.385145 91.067394 17.049727 16.812572-3.370984 39.376146-13.560165 51.301638-26.078544 12.204996-12.806352 20.46306-38.427527 21.691183-55.714409 1.143424-16.194276-7.11464-31.18584-14.229281-44.847642-1.702432-3.269347-9.537006-9.113515-1.397518-12.535319 6.962184 2.625641 8.435931 2.380017 15.474342 3.091481l1.931117 2.752688c2.422366 0.804632 4.920959 0.245624 7.351795 0.338792 48.54895 1.964996 50.488536-4.124797 86.79861-29.271662 42.179653-29.212374 81.411811-44.127709 133.009892-24.93512 33.608205 12.501439 52.377304 45.321952 85.663656 53.622365 20.996658 5.242812 45.381241 1.151894 65.954409-5.598544z m-220.723243-30.355798c-35.505443 6.064384-53.258164 38.088734-22.309478 64.463722 20.251315 17.261472 47.490223 20.564698 71.849396 9.841919 27.14574-11.942432 50.454657-42.078015 19.429743-63.980943-17.210653-12.154177-48.692936-13.78885-68.969661-10.324698z m-93.244135 80.090521c-6.310008 1.77866-5.454557 14.381737-4.971779 20.03957 1.973466 23.215749 25.451778 44.915401 48.150869 47.786666 6.953714 0.88086 21.182994-2.464715 24.833482 3.023722 3.320165 22.368768 5.022597 49.175715 18.523474 68.13962 27.255848 38.29201 93.159438 31.541572 115.604434-8.046319 10.621141-18.726749 7.250157-46.888867 3.692837-67.309578 19.268817-15.872423 34.599173-28.458561 30.838577-56.197188-1.126485-8.334293-12.111828-10.748189-18.794508-6.22531-2.947494 1.998875-4.090918 20.886551-10.773598 29.466468-13.043507 16.744814-50.522415 16.058759-67.631431 5.861108-11.214028-6.68268-10.722779-17.761191-28.331514-15.15249-7.148519 1.058726-11.188619 9.740281-17.024317 13.915898-13.534756 9.697932-34.785509 12.052539-50.429247 7.258627-28.543259-8.732374-17.642614-24.452341-31.787197-42.493036-3.743656-0.313383-8.385112-1.067196-11.900082-0.076228z" fill="#F7EEDB" p-id="3197"></path><path d="M233.800629 665.024053c-8.139487 3.421803-0.304913 9.265972 1.397518 12.535318 7.10617 13.661803 15.372705 28.653366 14.229281 44.847643-1.219653 17.286882-9.477717 42.908056-21.691183 55.714409-11.925492 12.518379-34.489065 22.70756-51.301638 26.078544-31.6178 6.335418-65.065079 3.845294-91.067394-17.049727-35.429214-28.4755-32.388553-94.607775-3.286287-126.826931 10.307758-11.417304 21.885988-16.685525 35.090422-23.774756 4.853201-2.608701 9.985906-0.745343 8.300414-8.664616 39.274508 2.278379 73.119868 23.876394 108.328867 37.140116zM94.514607 717.646981c-1.600794 10.138362-11.230968 17.642614-3.09148 27.857204 3.354045 4.209495 6.335418 2.625641 9.232092 4.692275s4.760033 5.33598 8.207246 7.275566c23.334326 13.136675 40.858362 15.330356 67.174061 9.206684 22.470405-5.225873 32.828983-29.263193 29.983127-50.657932-0.914739-6.885955-5.894988-6.919835-6.276129-7.656709-0.415021-0.804632-2.769628-7.876923-3.091481-9.282911-0.838511-3.58273 1.134955-7.504251-1.465277-12.45909-7.58895-14.424086-37.106237-23.529132-52.656807-21.530257-21.758941 2.795037-50.530885 28.695715-48.023822 52.56364z" fill="#F8D1B2" p-id="3198"></path><path d="M766.178991 627.883937l-18.565823 1.541506c3.870703 5.996625 10.536443 3.786005 15.618329 6.047444 17.405459 7.741406 32.93062 34.556824 40.697436 52.157088 18.040695 40.875302 10.494094 92.981572-30.398147 116.290488-13.450058 7.665178-22.69062 5.530786-36.691216 6.631861-11.197089 0.88086-10.138362 1.109545-21.784351 0-18.650521-1.78713-35.700248-3.226998-53.224284-11.764566-41.39196-20.158147-49.658495-75.593052-33.447279-115.248701 1.821009-4.45512 16.372142-19.455153 1.609264-18.506534 14.813697-4.861671 28.94981-14.432556 43.280728-20.175087 24.164367-9.680993 62.727411-23.15646 88.441753-20.115798 3.777535 0.4489 4.201026 3.091481 4.47206 3.142299zM657.850124 723.838412c-1.566915 3.294756-2.727279 10.011315-3.294756 13.924367 0.474309 6.66574 5.581605 6.496344 6.394706 7.741406 2.159801 3.311696 3.066071 7.741406 6.072854 10.959934 7.800695 8.351232 33.616675 18.633581 45.076328 19.912523 38.73244 4.336543 72.095021-23.063292 66.471067-63.379587-0.262564-1.871828-6.869016-21.691183-7.690588-23.266567-4.302663-8.308883-29.288602-25.943027-38.639272-29.457998-15.880893-5.971216-33.616675-3.819884-48.752225 4.082448-9.723342 5.073416-26.044665 32.684996-28.323044 42.958875-1.507626 6.784318 1.804069 10.477155 2.68493 16.524599z" fill="#F8D7BA" p-id="3199"></path><path d="M258.566352 671.215484c-2.439305-0.101638-4.937899 0.46584-7.351795-0.338793l-1.931116-2.752688c2.312258 0.237155 4.954839-0.559007 7.351795 0.338793l1.931116 2.761158z" fill="#F8D1B2" p-id="3200"></path><path d="M316.025542 714.758776c3.514971-0.990968 8.156427-0.237155 11.900082 0.076228 14.144582 18.040695 3.243937 33.752192 31.787197 42.493036 15.652208 4.785443 36.894491 2.430835 50.429247-7.258627 5.835699-4.184086 9.875798-12.857171 17.024317-13.915898 17.617204-2.608701 17.117486 8.46981 28.331514 15.15249 17.117486 10.197651 54.587924 10.883706 67.631431-5.861108 6.68268-8.579917 7.826104-27.467593 10.773598-29.466469 6.68268-4.531348 17.659553-2.108983 18.794508 6.225311 3.760596 27.738627-11.57823 40.324764-30.838577 56.197187 3.56579 20.420711 6.928304 48.582829-3.692837 67.309579-22.436526 39.587891-88.348586 46.338329-115.604434 8.046319-13.500877-18.972374-15.203309-45.770852-18.523474-68.13962-3.658958-5.479967-17.888238-2.142862-24.833482-3.023722-22.69909-2.871266-46.177403-24.570918-48.150869-47.786666-0.482779-5.657833-1.33823-18.26938 4.971779-20.03957z m149.924102 64.785575c-4.175616 4.920959 14.297039 43.475533-7.732936 46.567014-4.082448 0.4489-5.564665-2.269909-7.368734-5.166584-7.961621-12.789413-4.184086-48.159338-15.813135-55.409496-3.853763-3.836824-5.310571 0.237155-7.809165 1.600794-3.650488 1.998875-19.090951 11.781505-19.819355 14.220811 2.142862 20.649396 5.022597 53.021009 22.876956 66.34402 13.898958 10.375517 45.914839 8.842481 58.992225-3.040662 17.710372-16.075699 14.618892-40.841423 10.6889-62.015947l-34.014756-3.10842z" fill="#502D25" p-id="3201"></path><path d="M409.269677 634.668255c20.276725-3.464152 51.759007-1.829479 68.969661 10.324698 31.024913 21.902928 7.715997 52.038511-19.429743 63.980943-24.367643 10.722779-51.598081 7.428023-71.849396-9.841919-30.940215-26.374988-13.187494-58.399338 22.309478-64.463722z" fill="#4F2D26" p-id="3202"></path><path d="M196.660513 699.072688c-9.35914-1.499156-12.780943 1.211183-18.616642 7.690587-6.648801 7.385674-17.930587 24.155897-15.059322 33.735253l7.538131 8.046319c7.487312 2.168271 28.416212-31.60086 29.237783-40.180778 0.381141 0.728404 5.36139 0.770753 6.276129 7.656709 2.837386 21.394739-7.521191 45.43206-29.983126 50.657932-26.315699 6.123672-43.839735 3.929992-67.174062-9.206684-3.447213-1.939586-5.251282-5.166584-8.207245-7.275566s-5.878048-0.482779-9.232093-4.692275c6.911365 0.643706 10.409396 0.711464 15.567511-4.556757 2.159801-2.202151 18.328668-26.197122 18.557353-27.865674 0.609826-4.395831-0.474309-9.452308-0.076229-14.009066-17.989876-3.955401-20.05651 9.079636-30.948684 18.574293-2.507064-23.859454 26.26488-49.768602 48.023821-52.563639 15.550571-1.998875 45.059388 7.10617 52.656807 21.530256 2.600232 4.946369 0.626766 8.876361 1.465277 12.45909z m-44.627428-2.845856c-2.041224 0.618296-13.594045 12.526849-15.660678 15.296477-1.846419 2.481654-13.458528 22.25866-13.670273 23.605359-0.482779 3.006782 4.675335 12.543788 7.5466 13.348421 4.539818 1.236592 6.106733-0.499719 9.223623-2.913615 9.003408-6.970653 26.298759-33.38799 22.927775-44.754475l-7.588949-4.937899c-0.957089 0.00847-1.897237 0.076228-2.778098 0.347262z" fill="#F8C2A1" p-id="3203"></path><path d="M196.660513 699.072688c0.330323 1.405988 2.67646 8.47828 3.09148 9.282912-0.821572 8.579917-21.742002 42.349049-29.237783 40.180777l-7.538131-8.046319c-2.871266-9.579355 8.402051-26.349578 15.059322-33.735252 5.835699-6.479404 9.257502-9.189744 18.616642-7.690588z" fill="#F69A76" p-id="3204"></path><path d="M94.514607 717.646981c10.892175-9.494657 12.958809-22.529694 30.948685-18.574293-0.398081 4.556758 0.686055 9.613234 0.076228 14.009066-0.228685 1.668553-16.397552 25.663524-18.557353 27.865674-5.158114 5.268222-8.656146 5.200463-15.56751 4.556757-8.139487-10.214591 1.490687-17.718842 3.09148-27.857204z" fill="#F59B75" p-id="3205"></path><path d="M660.941605 745.504185c9.325261 1.804069 8.842481-2.329198 12.941869-7.182398 6.115203-7.241687 35.200529-40.756725 13.382299-42.476096-9.977436-0.330323-25.477188 19.709247-29.415649 27.984251-0.88086-6.038974-4.192556-9.731811-2.68493-16.524599 2.286849-10.273879 18.608172-37.876989 28.323044-42.958875 15.13555-7.902333 32.871332-10.053664 48.752225-4.082448 9.3422 3.514971 34.328139 21.149115 38.639272 29.457998 0.813102 1.575385 7.428023 21.394739 7.690588 23.266568 5.623954 40.316294-27.747097 67.716129-66.471067 63.379586-11.459653-1.278941-37.267163-11.56129-45.076328-19.912523-3.006782-3.218528-3.913052-7.648238-6.072854-10.959934z m54.511695-49.167245c-5.80182 1.685492-34.853267 42.103424-18.811447 49.057138 5.200463 0.855451 8.241125 0.618296 12.399801-2.845856 3.455682-2.888205 21.682713-29.000629 22.631332-33.083077 2.854326-12.213466-5.395269-16.262035-16.228156-13.119736z m40.155368-0.110108c-7.868453 2.380017-27.340546 32.718875-26.739189 41.527477s10.612672 10.367047 17.329231 4.776973c7.326385-6.098263 22.69062-31.888834 19.777005-41.722283l-7.588949-4.937899c-0.957089 0.00847-1.897237 0.076228-2.778098 0.347262z" fill="#F8C6A7" p-id="3206"></path><path d="M660.941605 745.504185c-0.813102-1.245062-5.911927-1.075666-6.394707-7.741406 0.575947-3.921522 1.727841-10.629611 3.294756-13.924367 3.938462-8.275004 19.446683-28.314574 29.41565-27.984252 21.81823 1.719371-7.267097 35.234409-13.3823 42.476096-4.099388 4.853201-3.616609 8.986468-12.941869 7.182399z" fill="#F59B77" p-id="3207"></path><path d="M465.949644 779.544351l34.014756 3.10842c3.929992 21.174524 7.021472 45.940248-10.6889 62.015947-13.085856 11.874673-45.093267 13.416179-58.992225 3.040662-17.854359-13.331481-20.734094-45.694624-22.876956-66.34402 0.736873-2.430835 16.168867-12.221935 19.819355-14.220811 2.498594-1.363639 3.955401-5.446088 7.809165-1.600794 11.629049 7.250157 7.859983 42.620083 15.813135 55.409496 1.804069 2.896675 3.286286 5.615484 7.368734 5.166584 22.029975-3.091481 3.55732-41.646055 7.732936-46.567014z" fill="#F2AB91" p-id="3208"></path><path d="M152.033085 696.226832c0.88086-0.262564 1.821009-0.330323 2.778098-0.347262l7.588949 4.937899c3.370984 11.366485-13.924367 37.783821-22.927775 44.754475-3.11689 2.413896-4.683805 4.150207-9.223623 2.913614-2.871266-0.813102-8.02938-10.341638-7.5466-13.34842 0.211745-1.3467 11.823854-21.132175 13.670273-23.60536 2.066634-2.769628 13.619454-14.67818 15.660678-15.296476z" fill="#F59873" p-id="3209"></path><path d="M715.4533 696.33694c10.832887-3.150769 19.082481 0.90627 16.228156 13.119735-0.957089 4.082448-19.175649 30.203342-22.631332 33.083077-4.158677 3.472622-7.199338 3.701307-12.399801 2.845856-16.04182-6.953714 13.001158-47.371646 18.811447-49.057138z" fill="#F59773" p-id="3210"></path><path d="M755.608668 696.226832c0.88086-0.262564 1.821009-0.330323 2.778098-0.347262l7.588949 4.937899c2.913615 9.833449-12.45062 35.62402-19.777005 41.722283-6.708089 5.581605-16.719404 4.209495-17.329231-4.776973s18.862266-39.147461 26.739189-41.527477z" fill="#F59973" p-id="3211"></path></svg>