<?xml version="1.0" standalone="no"?><!DOCTYPE svg PUBLIC "-//W3C//DTD SVG 1.1//EN" "http://www.w3.org/Graphics/SVG/1.1/DTD/svg11.dtd"><svg t="1772951543944" class="icon" viewBox="0 0 1024 1024" version="1.1" xmlns="http://www.w3.org/2000/svg" p-id="3172" xmlns:xlink="http://www.w3.org/1999/xlink" width="200" height="200"><path d="M992.224381 692.174813l-3.148781-2.082121-0.392531-19.097484-14.105515 7.057024v-10.589802c0.332798-1.083727-0.366931-2.500251 0-3.532779 0.059733-0.179199 2.483185 0.955728 3.148781-2.13332 0.870395-4.044775 0.196265-7.978618 0.383998-11.980728 0.230399-4.923703 0.904528-13.542318 0-17.655359 3.635178-17.877225 4.86397-36.496845 3.686377-54.877534-4.855437-75.681674-33.911261-130.388542-55.014066-199.175325-11.878328-38.724032-2.653851-94.326894-5.000503-136.216774-2.662384-47.521845-19.532682-141.021011-43.076005-182.868223-31.428076-55.858861-73.650753-31.80354-117.170489-5.316235-34.278192 20.863873-68.402785 47.957042-97.543942 75.451276-5.384501 2.739183-13.371652 2.201587-19.438815 1.595723-16.614299-1.672523-36.292046-8.311416-53.094078-10.436203-50.448761-6.374361-115.3529-5.973297-165.784594 0-18.20149 2.15892-38.834964 8.507682-56.63539 10.513003-3.404779 0.383998-6.766892 0.46933-10.111939-0.401064-42.717608-35.097387-97.518342-82.448566-150.322288-100.334325-37.904837-12.834055-57.480185 2.568518-72.54996 37.153908-19.754547 45.311725-34.218459 125.729371-37.170974 174.650674-2.321053 38.442433 5.230902 87.37227 0.153599 123.715516-1.783456 12.774323-15.795104 39.398161-20.428676 53.708474C55.526063 490.567503 38.263235 554.635381 46.07972 628.627465c6.391428 60.518033 16.085236 93.098102 52.957546 141.217277 2.483185 3.242647 3.524245 8.345549 6.997291 12.432991 29.610487 34.832855 68.880649 59.681771 107.749746 82.866697 4.061842-2.491718 4.061842-5.085836 5.256501-8.831946 7.679953-24.080921 16.912964-53.426876 28.270762-75.87794 3.259714-6.434094 13.064454-21.819601 17.65536-28.245162 1.348258-1.894389 7.910352-7.116757 10.589802-10.589802 7.850619 3.182914 10.009539 14.207914 19.524149 8.038351l1.655456 2.551451c-22.314531 29.055824-46.830649 80.025115-55.628462 115.591832-5.572233 22.527863-9.736474 42.350676-2.705051 64.537209 18.346555 57.881249 102.24578 77.046999 153.710001 54.689801 52.590614-22.852128 86.595741-87.466136 91.74131-143.034865 6.118363-2.943982 3.473046-13.627651 3.524246-19.430282 0.085333-11.170066-0.042666-22.382798 0.017066-33.527264 7.500754-1.484791 8.849013 6.681559 15.88897 7.270356 4.181308 0.349865 7.799419-0.930128 11.298065-3.037848 5.913564 1.16906 10.9738-21.828134 11.64793-4.232508-3.123181 88.404797 20.215344 165.008066 105.91509 201.231846 3.729044 1.578657 2.500251 2.747717 10.589803 3.532779 1.160526 0.110933 2.355186-0.0512 3.532778 0-8.396749 5.503967-14.404179 16.614299-24.712383 17.655359-1.774923-0.563197-5.111436 0.486397-8.046885-0.631462-25.710777-9.796207-44.313331-27.118769-62.463621-47.120781l-89.770122-1.322659c-22.630263 28.193962-55.98686 49.612499-92.21064 56.06366-4.539706 0.810662-21.666002 3.575445-24.635584 3.575445-3.515712 0-23.440924-2.713584-28.193962-3.549845-43.323471-7.611687-92.372773-38.860564-103.517239-83.592026-1.186126-4.761571-3.976509-19.703347-4.334907-24.20892-0.57173-7.116757 6.041563-14.532179 3.541312-22.647329-7.970085-1.71519-16.4351-6.015964-23.509191-10.03514C33.373664 791.886208-10.069272 649.772937 32.810468 479.440104c12.339125-49.006636 44.407197-104.140168 41.437615-152.600675-3.950909-64.665208 2.329586-147.071108 18.457488-211.156052 7.637287-30.352883 25.113448-82.294967 50.389028-101.426585 37.512306-28.398761 79.666717-8.908746 116.035562 11.204199 39.773625 21.9988 76.108338 50.815692 110.403597 80.366446 90.401585-20.565209 187.143398-18.978018 278.543377-0.819195 11.007933-2.73065 16.400967-13.576451 24.584384-20.138545 32.725135-26.222774 79.632584-60.654565 118.279816-75.886473 76.065672-29.977418 108.893206 20.189744 129.825346 85.640014 23.022794 71.995297 31.33421 170.94723 29.260622 246.424105-0.170666 6.067163-4.172775 10.658069-3.22558 16.742299 2.525851 16.179102 20.650541 50.209829 27.016369 68.590517 23.133726 66.721729 41.207217 148.453499 29.09849 218.230143-2.636784 15.172175-6.323162 32.469136-10.692201 47.564511z m-462.486795 247.123834c1.698123-9.634075-5.853831-16.426567-8.883146-24.661184-5.299168-14.412713-11.690596-30.73688-12.304992-45.951721-9.992473 5.119969-8.652748 21.836668-12.211126 31.914473-4.548239 12.859655-12.825522 25.446246-16.025503 38.698432h49.424767z" fill="#4A2921" p-id="3173"></path><path d="M713.322606 713.354418c15.334307 14.89911 39.227495 48.136241 49.424767 67.080126 7.867686 14.608978 16.622832 37.025909 22.98866 52.914879 2.500251 6.237829 9.642608 35.336319 14.079915 35.319253 42.700541-24.191853 86.288543-52.223683 118.339549-89.932255 3.473046-4.087442 4.514106-9.190344 6.99729-12.432991 26.376373-34.414725 36.428579-57.574051 49.424767-98.849534v10.589803l14.114048-7.057024 0.392531 19.097484 3.148781 2.082121c-23.824922 82.260834-79.308319 138.802358-150.595353 183.030356-12.356192 7.662887-27.067569 11.989261-38.468034 21.546536-1.425058 26.035042-1.783456 48.614105-17.55296 70.706771-36.172581 50.662093-108.696941 63.521748-164.077938 45.985854 10.316737-1.032527 16.315634-12.14286 24.712384-17.655359 46.480785 2.201587 104.558299-8.934346 125.405106-56.413525 19.140151-43.588002-16.895897-125.200307-41.224284-163.685407-14.924709-23.594524-34.756056-46.549051-57.70205-62.327088l1.399459 36.693111c-27.391834 26.111842-25.070781-23.125193-31.368343-42.017879l3.524245-8.78928c-23.833455-7.961552-43.434403-10.222871-67.020394 0.0768-7.15089 6.801025 29.781153 65.091872 4.778638 73.812885-1.356792 0.281598-10.709268-3.106114-11.434597-3.780243-2.884249-2.67945-9.41221-31.863273-11.946594-39.244562-1.271459-3.720511-1.339725-10.530069-6.186629-9.685275-8.524748 18.406288-18.943885 35.472851-23.995588 55.432197-1.382392 5.478367 1.100793 12.450058-4.258108 15.172175-0.674129-17.595627-5.734365 5.410101-11.647929 4.232507-3.498645 2.107721-7.116757 3.387713-11.298065 3.037849-7.039957-0.588796-8.388216-8.755147-15.88897-7.270356-0.059733 11.135932 0.068266 22.348664-0.017067 33.527263-0.042666 5.794098 2.602651 16.4863-3.524245 19.430282 3.020782-32.580069 0.307198-68.641717-12.304992-98.900733-3.669311-8.797813-10.40207-15.590305-12.415925-24.661184-4.821304-0.989861-3.87411 3.575445-5.222368 7.09969-3.157314 8.260217-12.219659 49.544233-24.592917 45.781056-25.35238-7.705553 11.989261-67.387325 5.034636-73.983551-21.8964-9.429276-40.550154-7.995685-63.385216-3.532779-1.177593 11.605263-6.681559 66.303598-22.54493 63.18895l-9.156211-3.404779 3.370646-42.214144-26.538505 17.587093c-4.531173 7.534888-15.163641 15.786571-19.353483 21.247871l-1.655456-2.551451c-9.514609 6.169563-11.682062-4.855437-19.524149-8.038351 3.35358-4.351974 7.048491-10.120472 10.589803-14.122581 11.920994-13.491118 23.236126-27.647832 39.014163-36.89791 30.054218-17.60416 72.200095-29.985951 105.863891-17.954024 12.356192 4.411707 22.169466 13.422852 33.382198 19.728947 29.021691-15.769504 56.106326-20.667608 84.829352-0.836262 49.467433-44.748529 121.41153-19.635081 164.103537 21.828135z m-183.58502-3.524245c-15.257507-5.222368-32.870201-6.118363-45.874921 5.282101l21.171071 51.191156 24.70385-56.481791z" fill="#4E2C23" p-id="3174"></path><path d="M978.1018 632.151711c-1.11786-5.068769-10.308204-24.746517-13.439919-30.694214-12.893788-24.490518-43.050405-44.611996-71.287034-43.45147-2.525851-5.5637-14.515112-4.181308-19.575348-3.677844-46.873316 4.667705-76.688601 23.492124-118.10915 38.98003-9.548742 3.566912-34.858455 12.885255-42.367743 14.122581-16.255901 2.67945-44.629063 0.563197-60.065769-5.239435-30.199283-11.349264-50.542627-40.302689-80.101914-54.049805-37.785371-17.570027-85.469348-18.210023-123.544851-1.425058-31.180611 13.747117-51.14849 43.801334-82.209634 55.474863-15.061242 5.657566-40.678153 7.859152-56.541524 5.239435-15.078309-2.491718-38.664299-13.917782-52.957545-21.179605-23.440924-11.920994-51.233823-23.483591-77.669929-28.245162-15.999903-2.884249-33.663796-5.819698-49.424767-1.834656v1.834656c-27.212635 1.919988-52.778346 16.4095-68.744116 38.928831-7.12529 10.052206-7.526354 23.261726-15.982837 31.684074-7.816486-73.992084 9.446343-138.059962 32.52887-209.30433 4.633572-14.310313 18.64522-40.934152 20.428676-53.708474 5.077303-36.351779-2.474652-85.273083-0.153599-123.715517 2.952515-48.921303 17.424961-129.338949 37.170974-174.650673 15.069775-34.576857 34.645123-49.987963 72.54996-37.153908 52.803946 17.885758 107.604681 65.236938 150.322288 100.334324 3.336513 0.878928 6.707159 0.785062 10.111939 0.401065 17.800425-2.005321 38.4339-8.354083 56.63539-10.513003 50.440227-5.973297 115.344367-6.374361 165.784594 0 16.802031 2.124787 36.471245 8.76368 53.094078 10.436203 6.067163 0.614396 14.054315 1.151993 19.438815-1.595724 29.132623-27.494233 63.257216-54.587402 97.543942-75.451275 43.519736-26.487306 85.742413-50.55116 117.170489 5.316234 23.543324 41.847213 40.413621 135.354912 43.076005 182.868224 2.346652 41.881346-6.877825 97.492742 5.000503 136.216774 21.102805 68.795316 50.158629 123.493651 55.014066 199.175325 1.177593 18.380688-0.042666 37.000309-3.686377 54.877534zM286.146531 166.132138c6.126896-5.205302-31.90594-41.557081-37.008842-45.951721-7.304489-6.297562-24.695317-20.428676-32.580069-23.910255-23.005727-10.146072-36.539512-1.71519-45.200793 20.403076-8.16635 20.82974-14.668711 60.714298-15.99137 82.858164-0.665596 11.152999-1.954121 52.112751 0.307199 60.014569 0.392531 1.365325 4.96637 7.142357 6.903424 3.694911 21.461203-20.949206 41.488815-43.468536 65.245471-61.866291 16.520433-12.799922 39.022697-28.228095 58.32498-35.242453z m575.450375 95.325288v-82.960563c0-0.708262-2.559984-2.030921-2.858649-4.198375-6.920491-49.808764-15.675638-111.768922-76.637402-64.707874-8.746614 6.749826-26.265441 22.032933-33.54433 30.003018-2.355186 2.585584-14.566312 19.259616-14.011648 21.094272 16.964164 16.418034 39.637093 26.273974 58.27378 40.69522 20.582275 15.923103 38.621632 38.502166 58.188447 54.783668 3.575445 2.978115 4.522639 6.741292 10.589802 5.299167zM335.460365 410.23519c-48.016775-10.026606-95.598353 18.850019-108.867606 66.073199-13.269253 47.22318 12.304992 96.65648 58.521245 113.100114 46.216253 16.443634 97.270877-5.717299 116.820624-50.704759 19.549748-44.98746 0.904528-97.433009-42.649341-119.995005 46.20772 6.877825 79.316852-38.177902 46.950115-74.350483-24.669717-27.571033-91.732777-43.161338-104.3791 1.655457-5.4869 19.447349 0.674129 35.67765 14.190847 49.689299 6.536494 6.775426 13.772716 7.77382 19.413216 14.523645z m318.658333 8.123684c-43.383203 22.638796-61.832158 75.007545-42.20561 119.841407 19.618014 44.833861 70.604372 66.815595 116.675559 50.303694 46.071187-16.5119 71.4833-65.876934 58.162847-112.963581-13.320453-47.086648-60.833764-75.818207-108.722541-65.748934 72.242762-36.974709 32.742201-119.977939-43.42587-84.06989-57.147387 26.93957-46.719717 96.007951 19.515615 92.637304z" fill="#F7C17C" p-id="3175"></path><path d="M526.204808 791.024347c5.358901-2.722117 2.867183-9.685275 4.258107-15.172175 5.051703-19.959346 15.470839-37.034442 23.995588-55.432197 4.846904-0.844795 4.906637 5.964764 6.186629 9.685275 2.525851 7.381289 9.053812 36.565112 11.946594 39.244562 0.725329 0.674129 10.077806 4.070375 11.434598 3.780243 25.002515-8.721014-11.929528-67.01186-4.778638-73.812885 23.577457-10.299671 43.178405-8.038351 67.020393-0.0768l-3.524245 8.78928c6.297562 18.892685 3.976509 68.12972 31.368343 42.017879l-1.399458-36.693111c22.945994 15.778038 42.785874 38.732565 57.70205 62.327088 24.336919 38.4851 60.364434 120.105938 41.224283 163.685407-20.846807 47.479179-78.924321 58.615111-125.405106 56.413525-1.16906-0.0512-2.372252 0.110933-3.532778 0l-2.193054-3.140248-8.396749-0.383997c-85.699747-36.22378-109.038272-112.827049-105.915091-201.231846zM296.736333 752.189382c4.189841-5.452767 14.82231-13.70445 19.353483-21.247871l26.538505-17.587093-3.370646 42.214144 9.156211 3.404779c15.86337 3.114648 21.367337-51.583687 22.54493-63.18895 22.835061-4.462906 41.488815-5.896498 63.385216 3.532779 6.963158 6.596227-30.387016 66.277998-5.034636 73.983551 12.373258 3.763177 21.435603-37.520839 24.592917-45.781056 1.348258-3.524245 0.401064-8.098084 5.222368-7.09969 2.013854 9.070878 8.746614 15.854837 12.415925 24.661184 12.61219 30.259016 15.325774 66.320664 12.304992 98.900733-5.145569 55.560196-39.150696 120.174204-91.74131 143.034866-51.464221 22.365731-135.363445 3.199981-153.710001-54.689802-7.031424-22.186532-2.867183-42.009345 2.70505-64.537208 8.797813-35.575251 33.322465-86.536008 55.628463-115.591832z" fill="#F8EFDC" p-id="3176"></path><path d="M893.374847 558.01456c28.236629-1.160526 58.393246 18.960952 71.287034 43.45147 3.131714 5.939164 12.322059 25.616911 13.439919 30.694214 0.904528 4.104508 0.230399 12.731656 0 17.655359l-3.148781 2.150387-0.383998 11.972194c-0.358398 1.032527 0.341331 2.440519 0 3.532779-12.996188 41.275483-23.048394 64.434809-49.424767 98.849534-2.107721-7.628754-10.231405 0.290132-14.114048 1.774922-13.917782 5.333301-30.463815 12.100193-44.876527 15.138042-19.088951 4.010642-46.668517 3.165847-66.277998 0.682662-10.820201-1.373858-26.427573-14.003115-37.128308-3.473045-10.197271-18.943885-34.09046-52.181017-49.424767-67.080127 9.36101-7.807953-5.708765-16.571633-7.057024-26.478772-1.937055-14.173781 1.484791-31.38541-0.153599-46.045588l7.210623-33.390731c7.500754-1.237326 32.819001-10.547136 42.367743-14.122581-2.449052 12.970588-13.789783 24.917182-17.100696 37.623239-2.406385 9.250077-5.051703 32.503269-3.993576 41.73628 4.411707 38.246168 33.59553 79.18032 72.951024 85.896012 29.243556 4.99197 84.112556-5.350368 105.198295-27.605166 1.595724-1.681056 15.052709-22.05 15.428173-23.406791 1.245859-4.488506-0.187732-9.28421 0.588797-13.533785 5.282101-29.004624 3.32798-45.823722-7.910353-73.463021-3.473046-8.550348-22.647329-40.550154-29.09849-45.03866-7.432488-5.171169-17.382295-5.828231-23.09106-15.743904l24.712384-1.757856z" fill="#F7E4CE" p-id="3177"></path><path d="M180.23144 558.01456c1.919988 9.403676-4.087442 6.894892-10.606869 8.76368-30.805146 8.857546-50.662093 21.299071-64.298277 52.249283-19.524148 44.304798-6.758359 109.31987 45.567724 121.889394 22.630263 5.4357 57.582584 6.510894 79.897115 0.042667 24.592917-7.133823 35.046187-38.212035 47.718111-58.188447 4.821304-17.08363 3.046382-25.753444 0.631463-41.855746-0.836262-5.597833 1.006927-11.54553-0.554664-17.100697-0.349865-1.237326-11.997794-20.147078-13.491118-21.802534-2.867183-3.174381-10.257004-7.876219-14.259113-8.695414-0.221865-2.312519 0.102399-4.735971 0-7.065557h7.065557c14.293247 7.270356 37.870704 18.69642 52.957545 21.188138-10.461803-1.774923-7.603154 4.753038-6.340228 11.630863 3.080515 16.793498 6.067163 29.328889 6.50236 46.480785 0.204799 8.089551 0.042666 16.349767-0.605863 24.413718-5.631966 8.86608-16.528966 15.197774-22.41693 23.475058-2.030921 2.850116-9.053812 12.518324-1.851722 14.037248-3.541312 4.002109-7.244756 9.770607-10.589803 14.122581-2.67945 3.473046-9.241544 8.703947-10.589802 10.589802l-16.452167 6.493828c-43.929333 7.679953-85.622947 10.308204-127.282428-9.267144-17.587093-8.26875-29.661687-23.850522-35.566717-42.103211-5.4613-16.887364-3.30238-34.244059-7.270356-51.370355 8.337016-40.04669 24.243053-87.218671 70.066775-94.403694 0.503464-6.143963-13.73005-3.79731-17.646827-3.524246v-1.834655c15.760971-3.985042 33.424864-1.04106 49.424767 1.834655z" fill="#F7DEC4" p-id="3178"></path><path d="M130.806673 558.01456c3.916776-0.273065 18.15029-2.619717 17.646826 3.524246-45.815189 7.185023-61.729759 54.357004-70.066775 94.403694 3.967976 17.126296 1.809056 34.482991 7.270356 51.370355 5.905031 18.261223 17.971091 33.842995 35.566718 42.103211 41.659481 19.575348 83.353094 16.947097 127.282428 9.267144l16.452167-6.493828c-4.590905 6.417028-14.395646 21.811068-17.65536 28.245162-1.71519-6.502361-6.399961 2.80745-12.279392 3.609578-40.601354 5.580766-72.805958-2.790383-110.377997-13.346052-6.391428-1.791989-21.119872-8.106617-25.616911-0.861861-36.87231-48.110641-46.566117-80.699244-52.957546-141.217277 8.456482-8.413816 8.849013-21.631869 15.982837-31.684074 15.96577-22.51933 41.531481-37.008842 68.752649-38.928831z" fill="#F8E4CE" p-id="3179"></path><path d="M247.303033 780.434544c-11.366331 22.451064-20.590808 51.797019-28.270762 75.87794-1.194659 3.746111-1.194659 6.340228-5.256501 8.831946-38.869098-23.184926-78.139259-48.033842-107.749747-82.866697-3.473046-4.087442-4.514106-9.190344-6.99729-12.432991 4.497039-7.253289 19.225483-0.938661 25.616911 0.861861 37.580572 10.547136 69.785177 18.918285 110.377997 13.346053 5.879431-0.810662 10.555669-10.111939 12.279392-3.609578z" fill="#F7ECDB" p-id="3180"></path><path d="M529.737586 939.298647h-49.424767c3.191447-13.252186 11.477264-25.830243 16.025503-38.698432 3.558378-10.069272 2.218653-26.794504 12.211126-31.914473 0.614396 15.214841 7.005824 31.530475 12.304992 45.951721 3.029315 8.234617 10.572736 15.027109 8.883146 24.661184z" fill="#F0E8D7" p-id="3181"></path><path d="M974.569021 663.929651l0.383998-11.972194 3.148781-2.150387c-0.187732 4.002109 0.486397 7.944485-0.383998 11.980727-0.665596 3.097581-3.080515 1.954121-3.148781 2.133321zM642.709701 995.788971c-8.089551-0.776529-6.860758-1.954121-10.589803-3.532778l8.39675 0.383997 2.193053 3.140248z" fill="#4E2C23" p-id="3182"></path><path d="M713.322606 607.439327l-7.210623 33.390731c1.63839 14.651644-1.783456 31.871807 0.153599 46.045587 1.348258 9.90714 16.418034 18.67082 7.057024 26.478773-42.692008-41.471748-114.636105-66.576663-164.103538-21.828134-28.714492-19.831346-55.799128-14.933243-84.829352 0.836261-11.212732-6.306095-21.026006-15.31724-33.382197-19.728947-33.663796-12.031927-75.809673 0.349865-105.863892 17.954025-15.778038 9.241544-27.084636 23.398258-39.014163 36.897909-7.20209-1.510391-0.170666-11.178599 1.851722-14.037248 5.887964-8.277283 16.784965-14.608978 22.416931-23.475058 0.648529-8.063951 0.810662-16.324168 0.605863-24.413718-0.435197-17.151896-3.421846-29.687287-6.502361-46.480785-1.262926-6.877825-4.121575-13.405785 6.340229-11.630863 15.854837 2.619717 41.480282 0.418131 56.541523-5.239434 31.061145-11.673529 51.029024-41.727747 82.209635-55.474864 38.075502-16.784965 85.75948-16.144969 123.54485 1.425058 29.567821 13.747117 49.911164 42.700541 80.101914 54.049806 15.436706 5.802631 43.809868 7.927419 60.065769 5.239434z m-223.435445-45.141059c-14.685778 2.039454-41.830146 11.554063-47.803443 26.325173-10.743401 26.547039 13.18392 51.925018 37.247774 60.4071 23.09106 8.140751 44.424264 8.925813 67.054527-1.996787 22.015866-10.615402 43.545336-36.923509 27.391833-60.680166-16.742298-24.627051-56.652456-27.835564-83.882157-24.05532z" fill="#F7EEDC" p-id="3183"></path><path d="M925.144254 766.311963c-2.483185 3.242647-3.524245 8.345549-6.997291 12.432992-32.051006 37.708571-75.639008 65.740401-118.339548 89.932254-4.437306 0.017067-11.579663-29.081424-14.079915-35.319252-6.365828-15.88897-15.120975-38.314434-22.988661-52.914879 10.700735-10.530069 26.308107 2.099187 37.128308 3.473045 19.618014 2.483185 47.189047 3.336513 66.277998-0.682662 14.412713-3.029315 30.958746-9.804741 44.876528-15.138042 3.882643-1.484791 12.006327-9.403676 14.114048-1.774922z" fill="#F7ECDB" p-id="3184"></path><path d="M529.737586 709.830173l-24.70385 56.48179-21.171071-51.191156c13.004721-11.400464 30.617414-10.50447 45.874921-5.282101z" fill="#F2EBDE" p-id="3185"></path><path d="M409.665781 501.541303c0-51.515421-41.76188-93.268768-93.268767-93.268768s-93.268768 41.76188-93.268768 93.268768 41.76188 93.268768 93.268768 93.268767 93.268768-41.76188 93.268767-93.268767z m-81.177107-35.669117c0-17.732159-14.378579-32.102205-32.102205-32.102205s-32.102205 14.378579-32.102206 32.102205 14.378579 32.102205 32.102206 32.102205 32.102205-14.378579 32.102205-32.102205z m42.384809 78.019793c0-13.917782-11.289532-25.207314-25.207313-25.207313s-25.207314 11.289532-25.207314 25.207313 11.289532 25.207314 25.207314 25.207314 25.207314-11.289532 25.207313-25.207314z" fill="#4D2C24" p-id="3186"></path><path d="M790.267206 500.875707c0-51.404488-41.676547-93.081035-93.081036-93.081035s-93.081035 41.676547-93.081035 93.081035 41.676547 93.081035 93.081035 93.081035S790.267206 552.280195 790.267206 500.875707z m-80.571245-34.602457c0-17.877225-14.489512-32.366737-32.366737-32.366737s-32.366737 14.489512-32.366737 32.366737 14.489512 32.366737 32.366737 32.366737 32.366737-14.489512 32.366737-32.366737z m42.589608 77.243265c0-14.020182-11.366331-25.386513-25.386512-25.386513s-25.386513 11.366331-25.386513 25.386513 11.366331 25.386513 25.386513 25.386513 25.386513-11.366331 25.386512-25.386513z" fill="#4D2C25" p-id="3187"></path><path d="M893.374847 558.01456l-24.712384 1.757856c5.708765 9.915673 15.658572 10.572736 23.09106 15.743905 6.451161 4.488506 25.625445 36.496845 29.09849 45.03866 11.246865 27.639299 13.200987 44.458397 7.910353 73.463021-0.776529 4.249574 0.657063 9.045278-0.588797 13.533784-0.375464 1.348258-13.832449 21.717202-15.428173 23.406792-21.085739 22.254798-75.954739 32.597136-105.198295 27.605166-39.364028-6.715693-68.539318-47.658378-72.951024-85.896013-1.06666-9.224477 1.578657-32.486203 3.993576-41.73628 3.310913-12.706056 14.651644-24.65265 17.100696-37.623238 41.420549-15.487906 71.235835-34.312325 118.10915-38.98003 5.060236-0.503464 17.049497-1.885855 19.575348 3.677844zM769.804397 632.151711c0.52053 4.479973-3.379179 8.456482-3.481579 12.398858-0.57173 22.118266-2.747717 46.557584 13.968982 63.60708 5.879431 5.998897 9.88154 5.930631 17.757758 5.196769 6.101296 13.346052 21.435603 20.744407 35.489919 16.059636 3.071981-1.023994 15.769504-10.333804 17.467627-12.526858 6.536494 0.580263-3.882643 9.85594 1.766389 10.598336 11.716196 1.535991 21.538003-1.271459 31.28301-7.551954 35.925115-23.150793 21.956133-72.276895 12.176993-106.520954-1.177593-4.121575-4.949303-5.384501-6.399961-13.030321-0.972794-5.119969 2.167454-15.36844-5.418634-17.52736-10.350871-2.943982-14.412713 2.935449-19.293749 10.461803l-4.795705-0.503463c-3.174381-2.218653-5.998897-4.556772-9.326876-6.562094-14.745511-8.874613-7.603154-3.626645-17.65536-3.532779-1.493324 0.017067-5.043169-3.618111-8.746614-3.498645-4.983436 0.162132-9.378076 4.650638-15.965769 3.498645-3.217047-0.563197-6.067163-4.923703-11.912461-3.285313-5.222368 1.459191-28.979024 35.268053-30.088351 40.976818-1.237326 6.365828 2.824516 8.81488 3.165847 11.733262z" fill="#F8D6BB" p-id="3188"></path><path d="M286.146531 166.132138c-19.302283 7.014357-41.804546 22.442531-58.32498 35.242453-23.748123 18.397755-43.775734 40.917085-65.245471 61.866291-1.937055 3.447446-6.510894-2.329586-6.903424-3.694911-2.269853-7.901819-0.981327-48.86157-0.307199-60.014569 1.331192-22.143866 7.825019-62.028424 15.99137-82.858164 8.669814-22.109733 22.195065-30.549148 45.200793-20.403076 7.884752 3.481579 25.27558 17.60416 32.580069 23.910255 5.094369 4.39464 43.135738 40.754953 37.008842 45.951721z" fill="#F8C6B2" p-id="3189"></path><path d="M861.596906 261.457426c-6.067163 1.450658-7.014357-2.321053-10.589802-5.299168-19.566815-16.281501-37.606172-38.869098-58.188447-54.783667-18.636687-14.412713-41.309616-24.277186-58.27378-40.69522-0.554663-1.834656 11.656463-18.508688 14.011648-21.094272 7.278889-7.978618 24.797716-23.253192 33.54433-30.003018 60.961763-47.061048 69.71691 14.89911 76.637402 64.707874 0.298665 2.167454 2.858649 3.490112 2.858649 4.198374v82.960564z" fill="#F7C7B5" p-id="3190"></path><path d="M257.901369 586.259722h-7.065557c0.102399 2.321053-0.213332 4.753038 0 7.057024-4.087442-0.836262-9.693808 0.59733-14.122581 0-14.395646-1.954121-14.335913-0.162132-24.712384 0-0.554663 0.008533-8.635681-2.815983-10.589802-3.532778-3.30238-1.203193-5.384501-4.659172-7.057024-5.247969-12.219659-4.258108-15.001509 7.415422-19.831346 8.499149l-19.003618 0.281598c-0.238932 0.059733-1.919988 2.116254-3.532779 3.532779-12.339125-9.668208-23.355592 12.56099-26.598239 21.060139-15.223374 39.841892-11.613796 84.709886 32.665402 101.733782 5.367434 2.065054 23.150793 7.816486 27.477167 7.79942 3.421846-0.017067 6.894892-2.867183 10.709268-3.396246 8.71248-1.211726 11.349264 0.426664 20.505476-4.181308 12.936455-6.510894 39.253095-33.126199 41.147483-47.112248 2.397852-17.672426 1.006927-42.205611-7.057023-58.24818 5.085836-7.423955 0.62293-14.549245 0-21.179605 4.002109 0.819195 11.391931 5.5125 14.259113 8.695414 1.501858 1.66399 13.149787 20.573742 13.491118 21.802535 1.561591 5.555166-0.290132 11.502864 0.554664 17.100696 2.414919 16.093769 4.198375 24.772116-0.631463 41.855746-12.680456 19.976412-23.125193 51.054624-47.718111 58.188447-22.305998 6.468227-57.266853 5.393034-79.897115-0.042666-52.326083-12.569524-65.091872-77.584596-45.567724-121.889394 13.636184-30.950212 33.49313-43.40027 64.298277-52.249283 6.510894-1.868789 12.526857 0.639996 10.606869-8.76368 26.436106 4.761571 54.229004 16.324168 77.669929 28.245162z" fill="#F8D1B4" p-id="3191"></path><path d="M359.285287 418.717272c-7.517821-3.891176-15.530572-6.749826-23.824922-8.482082-5.640499-6.749826-12.868189-7.74822-19.413216-14.523645-13.525251-14.020182-19.686281-30.24195-14.190847-49.689299 12.646323-44.816795 79.70085-29.226489 104.3791-1.655456 32.366737 36.172581-0.733862 81.228307-46.950115 74.350482zM654.118698 418.358874c-66.235332 3.370646-76.663002-65.689201-19.515615-92.637304 76.176605-35.916582 115.668632 47.095181 43.42587 84.06989-8.31995 1.749323-16.366834 4.633572-23.910255 8.567414z" fill="#F6ECDB" p-id="3192"></path><path d="M489.887161 562.298268c27.238235-3.77171 67.139859-0.57173 83.882158 24.05532 16.153502 23.756656-5.375967 50.064763-27.391834 60.680166-22.638796 10.914067-43.972 10.137538-67.054526 1.996787-24.063854-8.482082-47.991176-33.860061-37.247774-60.4071 5.973297-14.77111 33.117666-24.285719 47.803443-26.325173z" fill="#4F2E26" p-id="3193"></path><path d="M296.386469 465.872186m-32.102206 0a32.102205 32.102205 0 1 0 64.204411 0 32.102205 32.102205 0 1 0-64.204411 0Z" fill="#F3EADA" p-id="3194"></path><path d="M345.66617 543.891979m-25.207314 0a25.207314 25.207314 0 1 0 50.414627 0 25.207314 25.207314 0 1 0-50.414627 0Z" fill="#F1EADC" p-id="3195"></path><path d="M677.329224 466.27325m-32.366737 0a32.366737 32.366737 0 1 0 64.733474 0 32.366737 32.366737 0 1 0-64.733474 0Z" fill="#F5ECDC" p-id="3196"></path><path d="M726.899057 543.516515m-25.386513 0a25.386513 25.386513 0 1 0 50.773025 0 25.386513 25.386513 0 1 0-50.773025 0Z" fill="#F1E9DB" p-id="3197"></path><path d="M889.842068 600.382303c1.450658 7.64582 5.222368 8.908746 6.399961 13.030321 9.770607 34.244059 23.748123 83.361628-12.176992 106.520954-9.745008 6.280495-19.566815 9.087945-31.283011 7.551954-5.649032-0.742395 4.761571-10.018073-1.766389-10.598336 4.676238-6.05863 3.814377-18.192956 7.057024-24.712383 2.124787-4.275174 6.809559-4.155708 8.917279-6.963158 1.09226-1.467724 8.755147-24.661184 8.755147-26.572638-0.0256-9.233011-11.417531-20.394543-10.606869-26.47024l24.712384-31.77794z" fill="#F8CAAD" p-id="3198"></path><path d="M865.129685 593.316746c-4.258108 6.57916-12.211126 16.656966-14.864977 22.203599-7.244756 15.155108-1.058127 23.423858 14.864977 16.631366-0.810662 6.08423 10.581269 17.237229 10.606869 26.470239 0 1.919988-7.662887 25.113448-8.755147 26.572639-2.099187 2.815983-6.783959 2.687984-8.917279 6.963158-19.532682-25.540112-20.795607-1.023994-24.891583 17.47616h-13.755649c-10.342337-16.4607 7.193556-35.310719 2.926915-50.610893-1.791989-6.408494-10.897001-12.211126-17.237229-5.708765 1.100793-3.507179 1.518924-15.36844 7.057024-17.65536 1.791989-0.742395 6.143963 0.759462 10.55567-1.706656 10.726335-5.98183 28.219562-34.295259 28.279295-47.726644 3.319447 1.996788 6.152496 4.34344 9.326876 6.562094l4.795705 0.503463z" fill="#F7BA9A" p-id="3199"></path><path d="M833.351744 582.726944c-7.355689 13.67885-42.222677 38.101102-21.179605 52.957545-5.5381 2.286919-5.956231 14.148181-7.057023 17.65536-5.418634 17.186029-14.702844 43.297871-7.057024 60.014569-7.876219 0.733862-11.869795 0.810662-17.757759-5.196769-16.708165-17.05803-14.532179-41.488815-13.968982-63.60708 0.102399-3.933843 4.002109-7.918885 3.481579-12.398858h15.88897c6.886358-11.895395 16.5631-21.392937 22.348664-34.124593 2.850116-6.263429 6.126896-8.362616 0.588797-15.308708 6.587693 1.151993 10.982333-3.336513 15.96577-3.498645 3.703444-0.119466 7.253289 3.515712 8.746613 3.498645z" fill="#F7C6A8" p-id="3200"></path><path d="M805.115116 653.339849c6.340228-6.510894 15.44524-0.708262 17.237228 5.708765 4.266641 15.300174-13.269253 34.150193-2.926915 50.60236h13.75565c4.095975-18.491621 5.358901-43.016272 24.891582-17.476161-3.242647 6.519427-2.389319 18.653754-7.057024 24.712383-1.698123 2.201587-14.395646 11.502864-17.467627 12.526858-14.054315 4.684772-29.397155-2.713584-35.489918-16.059636-7.64582-16.725232 1.646923-42.82854 7.057024-60.014569z" fill="#4E2F27" p-id="3201"></path><path d="M851.007104 586.259722c-0.0512 13.431385-17.55296 41.744813-28.279295 47.726644-4.411707 2.466118-8.76368 0.964261-10.55567 1.706656-21.034539-14.856443 13.823916-39.278695 21.179605-52.957545 10.052206-0.093866 2.909849-5.341834 17.65536 3.532779z" fill="#F49978" p-id="3202"></path><path d="M808.639361 582.726944c5.529566 6.937558 2.252786 9.036745-0.588797 15.308707-5.785565 12.731656-15.462306 22.229198-22.348664 34.11606h-15.88897c-0.341331-2.918382-4.403173-5.358901-3.165848-11.733263 1.109327-5.708765 24.865982-39.517627 30.088351-40.976818 5.845298-1.63839 8.695414 2.722117 11.912461 3.285314z" fill="#F49D7F" p-id="3203"></path><path d="M889.842068 600.382303l-24.712383 31.777941c-15.923103 6.792492-22.109733-1.467724-14.864977-16.631366 2.653851-5.546633 10.598336-15.632972 14.864977-22.203599 4.872504-7.526354 8.934346-13.405785 19.293749-10.461803 7.586087 2.15892 4.44584 12.398858 5.418634 17.527361z" fill="#F39A77" p-id="3204"></path><path d="M201.411045 589.792501c-15.138041 11.46873-24.10652 29.17529-35.037654 44.603463 10.077806 28.08303 31.923006-3.82291 40.234422-16.452167 5.367434-8.157817 6.382895-14.924709 5.393034-24.618518 10.37647-0.162132 10.316737-1.954121 24.712384 0l-28.458494 40.592821c8.345549 18.338022 14.600445 14.916176 24.925715 1.766389 14.702844 40.524554-24.166253 79.120587-64.631075 62.864685-4.522639-1.817589-17.442028-11.135932-20.23241-15.069775-7.278889-10.231405-12.834055-25.761977-6.920491-37.205107 3.345046-6.476761 8.567415-9.011145 12.202592-14.276181 6.758359-9.770607 12.859655-20.138544 19.379083-30.079817l-5.247969-8.456482c-3.780244 0.196265-8.874613-0.972794-12.211125-0.136533l19.003618-0.281598c4.821304-1.083727 7.611687-12.757256 19.831346-8.499148 1.681056 0.580263 3.763177 4.044775 7.057024 5.247968z" fill="#F9BB98" p-id="3205"></path><path d="M151.986278 596.849525c-5.026103 4.428773-23.261726 28.509694-24.328386 34.167259-1.553057 8.21755 3.182914 18.807353 13.738584 15.257508-5.913564 11.443131-0.349865 26.973703 6.920491 37.205107 2.798916 3.933843 15.709771 13.252186 20.23241 15.069775 40.473354 16.255901 79.342452-22.340131 64.631075-62.864685 3.891176-4.957837 6.869292-10.888467 10.521536-16.076702 2.073587-2.943982 6.613293-4.351974 7.133824-5.102903 8.063951 16.042569 9.454876 40.575754 7.057023 58.24818-1.902922 13.977515-28.211029 40.601354-41.147483 47.112248-9.156211 4.607972-11.792995 2.969582-20.505476 4.181308-3.814377 0.529063-7.295956 3.379179-10.709268 3.396246-4.31784 0.017067-22.109733-5.734365-27.477167-7.79942-44.279198-17.023897-47.897309-61.891891-32.665402-101.733782 3.25118-8.499148 14.259113-30.728347 26.598239-21.060139z" fill="#F8C8A7" p-id="3206"></path><path d="M212.000847 593.316746c0.989861 9.693808-0.0256 16.4607-5.393034 24.618517-8.31995 12.629257-30.16515 44.535196-40.234422 16.452167 10.931134-15.41964 19.899613-33.126199 35.037654-44.603462 1.954121 0.708262 10.035139 3.541312 10.589802 3.532778z" fill="#F69675" p-id="3207"></path><path d="M250.835812 593.316746c0.62293 6.63036 5.085836 13.75565 0 21.179605-0.511997 0.750929-5.060236 2.167454-7.133824 5.102902-3.652245 5.188235-6.63036 11.118866-10.521536 16.076703-10.325271 13.141254-16.580166 16.5631-24.925715-1.766389l28.458494-40.592821c4.428773 0.59733 10.035139-0.836262 14.122581 0z" fill="#F59875" p-id="3208"></path><path d="M141.396476 646.274292c-10.555669 3.549845-15.291641-7.039957-13.738584-15.257508 1.06666-5.657566 19.302283-29.74702 24.328386-34.167259 1.604257-1.416525 3.285313-3.473046 3.532779-3.532779 3.336513-0.836262 8.439415 0.332798 12.211125 0.136533l5.247969 8.456482c-6.519427 9.949806-12.620723 20.30921-19.379083 30.079817-3.635178 5.256501-8.857546 7.799419-12.202592 14.27618z" fill="#F69C7C" p-id="3209"></path></svg>