<?xml version="1.0" standalone="no"?><!DOCTYPE svg PUBLIC "-//W3C//DTD SVG 1.1//EN" "http://www.w3.org/Graphics/SVG/1.1/DTD/svg11.dtd"><svg t="1772951686949" class="icon" viewBox="0 0 1024 1024" version="1.1" xmlns="http://www.w3.org/2000/svg" p-id="5734" xmlns:xlink="http://www.w3.org/1999/xlink" width="200" height="200"><path d="M206.349311 1008.573231c-1.837943 0.135517-5.149628 4.28571-8.766225 3.421792-17.236007-4.124784-7.216255-34.887034-6.038955-45.872342 4.726139-44.254614 11.213992-88.534637 23.080158-131.755936 6.750417-24.604718 17.193658-48.421747 24.867281-72.687674-8.080173-2.795028-18.650461-8.368145-25.671911-13.077344C74.296932 655.120737 52.504182 522.22138 111.301412 369.782235c7.639744-19.793882 28.644804-53.715361 31.668517-71.552723 3.608127-21.242215 1.804064-50.285099 4.472045-72.941767 6.530202-55.502485 30.626734-183.726522 79.692184-215.217174 17.981348-11.535844 36.843554-12.45905 56.83224-6.242229 11.146234 3.472611 31.134921 14.661194 41.620511 21.047409 32.794998 19.988687 63.972267 47.862741 90.804539 75.093092l5.530768 1.837943c43.407635 2.108976 89.703467-3.184638 132.729961-0.01694 11.772998 0.872388 28.543167 5.242795 40.748124 7.182376 24.53696 3.8961 48.862175 8.376615 73.119632 14.610375 42.730053-31.465242 118.873398-84.274336 173.68983-77.100431 41.950833 5.496889 60.304851 59.068263 67.410999 94.793806 13.746457 69.104955 10.426302 147.086243 0.719932 216.470702 23.833968 87.899403 47.854271 170.505192 21.343852 261.013287-22.377165 76.388968-83.672981 140.412054-157.563364 168.701128l14.618844 60.829978c5.200446 56.06996 13.670229 111.911236 10.815913 169.183906l-5.344433 5.708633c-13.187451 3.743644-14.949166-6.564081-16.456788-7.233194-0.889327-28.306013 2.769619-57.094804-3.692825-84.782523l-29.415554 42.45902c-6.581021 7.00451-28.619395 23.75774-36.928252 27.586081-61.278876 28.221315-133.814094-4.616031-171.259002-55.460136-14.144537-19.209467-26.662875-42.84863-31.507591-66.19135l-22.690548 41.815316c-39.951964 65.649284-122.312129 103.898822-194.804997 65.090279-18.67587-9.994343-38.241068-30.584385-48.641961-49.048511-5.869559-10.417832-8.546011-25.460166-17.710316-32.049657l-14.754361 103.22124zM106.812427 544.081889c0.110107 85.502454 63.540308 146.137627 129.028667 188.012232 6.970631 4.455106 12.569157 9.536975 22.114602 14.745891 22.98699 12.535278 42.044 20.513813 66.352276 29.491783 9.435338 3.48955 16.499136 4.607562 25.807428 7.368711 2.032748 0.609824 15.609809 10.417832 18.29473 7.292482 13.64482-32.744179 47.693345-76.524485 86.908438-73.814154 18.498005 1.278937 42.907918 21.894388 45.95704 40.705775l23.876317-25.875186c51.39464-34.099344 89.059763 19.997157 112.512591 59.059793 1.761715 2.939015 0.321852 8.800104 7.343301 13.094284l5.022581 1.19424c2.108976-0.262563 4.234891-2.879726 6.072834-3.226988 28.797261-5.479949 53.545965-11.772998 81.098168-22.114602 6.428565-2.413888 12.145668-4.599092 18.430246-7.36871 86.993136-38.435873 140.818604-93.44711 158.52045-188.012233 8.664588-46.295831 7.953126-74.949105-0.77075-122.718678-5.894969-32.244462-27.560672-85.824306-24.94351-114.985768 6.665719-74.339281 14.500268-141.487717-5.513828-215.826998-5.45454-20.24278-12.052501-42.264215-29.517192-55.2738-19.692244-14.669663-40.222997-5.45454-60.940085 1.880292-43.687138 15.457353-84.469141 46.168784-123.387792 70.781972-16.211164-3.574248-31.837912-10.180679-48.116834-13.475424-57.569112-11.629011-125.132567-14.534147-184.353286-11.357978-8.994909 0.482778-14.695073 6.919812-23.910197 2.108975-4.141724-2.159795-11.501965-12.662325-16.397498-16.761699-28.568576-23.952545-93.260775-81.496247-128.943969-84.867221-29.025945-2.74421-42.001651 13.788806-54.401413 38.063203-34.099344 66.733416-38.088612 150.067606-47.066582 222.043818-4.776957 38.334236-19.344983 57.679219-32.456206 92.879635-18.099925 48.608082-30.77919 94.573591-30.271003 146.662754 0.059288 6.064364-2.72727 17.202128 3.675886 20.285129z m272.794755 269.110399c-10.875201 16.414439-24.028773 39.367549-36.801205 53.520556-8.96103 9.926585-21.174456 16.143405-26.019172-0.050819-0.059288-2.33766-0.135517-4.751548 0.533597-7.01298 1.355165-4.565213 43.941232-43.585501 36.487823-50.141112-13.678699-1.96499-28.737972-6.894403-41.612042-11.849226-17.566329-6.758886-34.67529-17.075082-52.224679-21.233744l-3.955388 3.49802c-30.347231 58.881928-20.801786 153.396231 41.222431 187.520984 76.490606 42.086349 155.572965-19.599077 181.897049-91.583758 12.323534-33.684325 19.632956-87.772356-0.508186-119.296886-19.319574-30.237124-48.226942-18.481065-67.529576 5.183506-12.332003 15.110092-21.055879 35.708603-31.490652 51.453929z m143.774558 58.983566c10.91755 37.639713 38.418933 78.760508 72.45899 98.960939 68.461252 40.621077 139.006071 8.766225 161.713557-65.691634 9.985874-32.735709 7.046859-70.654926-1.964989-103.297467l-99.503005 22.114602 29.119112 46.448287c5.090339 16.922625-13.280619 22.927701-23.503647 8.757756-12.196487-16.922625-24.172759-40.460151-35.107248-58.898868-12.670795-21.360791-22.165421-49.531288-42.323503-66.420034-20.124203-16.863337-45.016894-16.261982-59.017445 7.470348-15.753795 26.705224-10.324665 81.420019-1.871822 110.564541z" fill="#502E24" p-id="5735"></path><path d="M287.447479 986.450159l-7.470348 25.71426c-25.053617 0.38114-48.040606-5.4376-73.63629-3.591188l14.754362-103.221239c9.155835 6.597961 11.840756 21.631825 17.710315 32.049657 10.400893 18.464126 29.966091 39.054167 48.641961 49.04851z" fill="#F6C27F" p-id="5736"></path><path d="M777.746249 1015.941942c-9.486156-4.243361-62.523934 11.391857-66.352277 7.377181l-3.684355-22.123072c8.308857-3.828342 30.347231-20.581571 36.928252-27.586082l29.415554-42.45902c6.470914 27.696189 2.803498 56.47651 3.692826 84.782523z" fill="#F5C483" p-id="5737"></path><path d="M914.143626 584.626738c-8.833983-8.783164-9.240533-22.58891-16.685471-33.082971-18.853736-26.561238-63.125289-35.361342-93.904479-33.277775-5.47148-6.758886-28.449999-19.531318-36.860494-18.430247 2.583284-25.722729-37.39409-43.729487-57.840144-47.219038-28.05192-4.785427-96.665628 10.680396-103.771776 42.264215-6.377746 28.314483 13.373787 17.811953 28.907368 12.332004 6.902873 13.61094 5.547708 30.228654 7.368711 44.237674-7.614334-3.557309-15.135501-8.16487-21.953676-13.068875-16.465257-11.849226-29.669648-27.789356-46.820958-37.970035-43.331407-25.71426-88.924247-25.341589-132.848539-1.295877-17.574799 9.621673-34.421196 27.721598-56.425691 26.518889 3.50649-11.349509 4.438166-25.722729 11.061536-36.860493 0.813099 0.533596 4.370408-0.127047 7.267074 1.795594 5.031051 3.328625 13.450015 16.939565 20.479934 5.683224 12.941828-20.717088-23.3766-51.00503-39.943495-59.796665-36.724977-19.48897-107.820331-25.028207-116.83218 26.518889-10.621107-2.083566-33.066031 3.50649-40.553318 11.061536-13.356847-4.590622-26.49348-4.167133-40.553319-3.684355-19.395802 0.669113-33.574218 2.430828-49.8362 14.669663-21.42008 16.117996-27.611491 32.989803-27.577612 59.059794-6.403156-3.083001-3.616597-14.220765-3.675886-20.285129-0.516657-52.089162 12.171077-98.054672 30.271003-146.662754 13.111223-35.200416 27.679249-54.545399 32.456207-92.879635 8.977969-71.984682 12.967237-155.310402 47.066581-222.043818 12.399762-24.274397 25.375468-40.798942 54.401413-38.063203 35.674724 3.370973 100.366923 60.914676 128.943969 84.867221 4.895534 4.107845 12.255775 14.601905 16.397499 16.761699 9.215123 4.810836 14.923757-1.626198 23.910196-2.108976 59.229189-3.176168 126.784174-0.271033 184.353286 11.357979 16.287392 3.286276 31.91414 9.892706 48.116834 13.475424 38.918651-24.613188 79.709123-55.333089 123.387792-70.781973 20.725558-7.334832 41.256311-16.549955 60.940085-1.880291 17.464692 13.009586 24.062652 35.022551 29.517192 55.2738 20.014096 74.339281 12.171077 141.496187 5.513829 215.826998-2.617163 29.161461 19.057011 82.741305 24.943509 114.985767 8.732346 47.778043 9.443807 76.422848 0.77075 122.718679zM342.729749 153.277654c1.5415-8.706936-4.878595-15.093152-9.359109-21.919797-13.018056-19.836231-49.06545-59.864423-75.516581-46.33818-11.984742 13.941262-20.225841 34.616001-24.93504 52.478772-3.032182 11.501965-15.542051 85.722669-11.823816 89.542541 12.238836 2.574814 16.194224-8.622239 23.884786-14.81365 29.635769-23.876317 61.490621-46.490636 97.74976-58.949686zM844.098525 274.963019c2.447767-36.631809 8.876332-79.05695-0.77075-115.341498-5.928848-22.300937-15.20326-37.309392-41.019157-31.507591-6.99604 1.57538-41.527344 26.307144-48.599612 32.498556-3.709765 3.252396-17.803483 16.016359-16.516076 20.327478 28.475409 19.86164 53.783119 40.917519 77.49004 66.301457 3.032182 3.252396 4.251831 7.876898 7.233194 11.205522s18.582703 20.429115 22.182361 16.516076z m-480.617809 18.896085c-54.282836 40.51944 9.223593 93.8706 58.610895 84.418322l5.539238-1.837942c50.877984-43.339877-15.398065-93.904479-64.141663-82.58038zM228.446974 396.622975c1.871822-23.469767 19.658365-31.050223 36.860493-42.399731-6.945222-7.741381-17.295296-7.834549-23.867847-16.668532-7.902307-10.629577-2.075097-21.115168-11.137764-29.398615-6.953691 7.02145-6.564081 15.542051-12.83172 24.011833-5.666284 7.656683-16.050238 15.923191-25.875186 16.524546 11.391857 11.552783 21.885918 16.380559 27.814766 32.998273 2.871256 8.037824-2.168264 17.439282 9.037258 14.923757z m415.341194-80.505282c-13.881974 3.049122-37.207755 19.184057-39.29979 34.429665-5.44607 39.680931 16.897216 50.784816 53.385039 46.016329 33.565748-4.387347 68.232568-41.713679 38.910181-71.967742-9.909646-10.223027-39.460717-11.451146-52.99543-8.469783z m178.178815 132.120137c2.227553-12.374352 11.713709-28.229785 22.156951-35.005611 4.226421-2.74421 11.315629-1.338226 14.712012-7.39412-6.945222-6.521733-18.989252-11.891575-23.910196-20.302069-4.616031-7.885368-3.252396-19.531318-11.095415-25.773548-4.472045 5.928848-4.514394 13.881974-9.054197 20.420645-4.895534 7.055329-16.888746 18.235442-25.968353 16.439848-1.634668 11.086945 11.645951 12.780902 16.617713 18.413307 1.93111 2.185204 7.834549 14.144537 8.605299 17.202129 2.015808 8.029354-3.997737 18.591173 7.953126 15.999419z" fill="#F9C27E" p-id="5738"></path><path d="M641.348871 551.4506c9.384519 72.04397 6.928282 135.474171 0.076228 208.356649-0.990965 10.544879 2.625633 21.640294-3.760583 31.261967-23.444358-39.062637-61.117951-93.159138-112.512591-59.059793l-23.876317 25.875186c-3.049122-18.811387-27.459035-39.426838-45.95704-40.705775-39.206623-2.71033-73.263619 41.069975-86.908438 73.814154-2.684921 3.12535-16.253513-6.691128-18.29473-7.292482 1.583849-32.092006-2.083566-65.962666-0.160926-97.851398 3.252396-53.986394 17.490101-108.955282 33.337064-160.197466 21.996025 1.202709 38.850892-16.897216 56.425691-26.518889 43.932762-24.045713 89.525601-24.418383 132.848538 1.295877 17.15131 10.180679 30.355701 26.120809 46.820958 37.970035 6.818175 4.904004 14.339342 9.511566 21.953676 13.068874z m-148.517636-47.13434c-27.916403 3.929979-52.995429 24.833402-32.202113 52.741336 24.985858 33.531869 81.005 36.98754 105.042242 1.668547 27.162593-39.926555-42.713113-58.653244-72.840129-54.409883z m-78.065986 65.708573c-12.586097 3.540369-1.355165 25.959883 3.642007 32.947454 34.378847 48.015197 129.28276 55.900565 173.232462 18.591172 8.283447-7.029919 22.004495-21.81816 14.745891-33.311654-9.536975-15.101622-22.843003 11.925454-27.755477 16.609243-29.161461 27.865584-118.305922 22.140011-141.801099-12.941828-4.548273-6.792766-4.590622-14.068309-9.121956-20.369827-3.269336-2.303781-9.299821-2.549405-12.950297-1.52456z" fill="#FAF1DF" p-id="5739"></path><path d="M479.144066 875.860209c-26.332554 71.984682-105.406443 133.661638-181.897049 91.583758-62.024217-34.124754-71.578132-128.639057-41.222431-187.520984l3.955388-3.49802c17.549389 4.167133 34.65835 14.474858 52.224679 21.233744 12.874069 4.954823 27.933343 9.884236 41.612042 11.849226 7.453409 6.555612-35.132658 45.5759-36.487824 50.141112-0.669113 2.261432-0.592885 4.67532-0.533596 7.01298 4.844716 16.194224 17.066612 9.968934 26.019172 0.050819 12.772432-14.144537 25.926004-37.106117 36.801205-53.520556 25.510985 31.405954 61.007843 51.132077 99.536884 62.667921z" fill="#F7C17F" p-id="5740"></path><path d="M626.60298 820.560999c10.934489 18.438717 22.910762 41.976242 35.107248 58.898868 10.214558 14.169946 28.585516 8.16487 23.503647-8.757755l-29.119113-46.448288 99.503005-22.114602c9.011849 32.634072 11.950863 70.561758 1.96499 103.297468-22.707487 74.466328-93.252305 106.32118-161.713558 65.691633-34.040056-20.200431-61.549909-61.321225-72.458989-98.960939 10.443242 7.639744 21.852039 1.134951 32.066597-2.955954 28.001101-11.205522 49.726093-28.085799 71.154643-48.658901z" fill="#F6C27F" p-id="5741"></path><path d="M718.762683 510.897281c-4.438166 11.400327-4.607562 22.377165 1.871822 33.150729 3.811402 6.335397 18.142274 14.923757 19.793882 20.759437 8.520601 30.118547 2.532465 74.356221 7.987005 106.609152l-11.222462 108.591082c-27.560672 10.341604-52.309377 16.643123-81.098168 22.114602 2.73574-10.468651 2.507056-20.945772 3.752114-31.270437 10.231497-84.841811 12.238836-169.988535-3.972328-254.212053-1.236588-6.420095-5.44607-10.214558 0.220214-16.804048 16.524546-1.380575 32.854286 1.075662 48.972283 4.472045 5.522298 1.16036 12.416701 6.301518 13.695638 6.589491z" fill="#96D9F6" p-id="5742"></path><path d="M375.922827 477.721143l-36.792735 138.311548c-9.291351 49.234846-5.784861 97.690471-7.444939 147.399625-0.237154 7.241664 3.819872 14.889878-7.368711 12.882539-24.308276-8.977969-43.373756-16.956505-66.352276-29.491782 1.422923-28.466939-1.863352-58.509258-0.160926-86.789862 2.405418-39.850327 13.483894-78.955313 22.18236-117.9756 0.838508-3.769053-1.050253-10.926019 0.448899-12.382822 0.813099-0.78769 5.666284-1.007904 8.95256-3.862221 14.01749-12.188017 26.434191-28.246725 23.876317-48.091425 1.228118-0.067758 2.464707 0.084698 3.684355 0 7.995475-0.575945 10.434772-3.642006 11.061536-3.684356 16.092587-1.211179 32.523965-0.660643 47.92203 3.684356z" fill="#93D9F6" p-id="5743"></path><path d="M914.143626 584.626738c-17.701845 94.565122-71.527313 149.576359-158.520449 188.012232 1.626198-11.561253 2.405418-23.35119 3.752113-34.954793 2.896666-25.036677 4.556743-50.844104 7.309423-75.635157 23.080157 13.094284 58.517727 0.601355 73.805684-20.200432 17.430812-23.706921 13.170512-67.698972-7.343301-88.653213-6.140592-6.267639-10.316195-6.191411-18.540354-5.420661 0.863918-7.072268-6.513263-23.884787-11.061536-29.491783 30.787659-2.083566 75.050743 6.716538 93.904479 33.277776 7.444939 10.485591 7.851488 24.299806 16.685471 33.08297z" fill="#FAE2CC" p-id="5744"></path><path d="M184.226239 470.352432c-2.388479 13.754927-17.964409 20.556162-25.29077 31.846382-8.317326 12.814781-20.098794 50.962681-19.116299 65.979606 3.548839 54.342125 53.097067 87.653779 103.390635 64.378817-2.693391 25.341589-3.845281 50.962681-6.589491 76.346619-0.846978 7.80067-1.092602 15.398065-0.77922 23.190265-65.488358-41.874605-128.91856-102.501308-129.028667-188.012232-0.033879-26.069991 6.157532-42.941797 27.577612-59.059794 16.270452-12.238836 30.440398-14.00902 49.8362-14.669663z" fill="#FAEAD6" p-id="5745"></path><path d="M626.60298 820.560999c-21.42008 20.573102-43.145072 37.453378-71.154643 48.658901-10.214558 4.090905-21.623355 10.587228-32.066597 2.955954-8.452843-29.144522-13.881974-83.859317 1.871822-110.564541 14.00055-23.732331 38.893241-24.333685 59.017445-7.470348 20.166552 16.888746 29.652709 45.059243 42.323503 66.420034z" fill="#F9F0DD" p-id="5746"></path><path d="M479.144066 875.860209c-38.529041-11.544314-74.017429-31.270437-99.536884-62.667921 10.434772-15.745326 19.167118-36.343837 31.490652-51.453928 19.302634-23.656103 48.210002-35.42063 67.529576-5.183507 20.141143 31.52453 12.831721 85.612562 0.508186 119.296886z" fill="#FAF1DF" p-id="5747"></path><path d="M265.324407 462.975251c6.547142 1.287407 11.349509 12.628446 17.049672 14.288524 6.445504 1.871822 23.012399 0.906267 30.872357 0.457368 2.557874 19.85317-9.858827 35.911878-23.876317 48.091425-3.286276 2.862786-8.139461 3.074531-8.95256 3.862221-1.499152 1.456803 0.38961 8.613769-0.448898 12.382822-8.698467 39.020288-19.776942 78.125274-22.182361 117.9756-1.702426 28.280604 1.583849 58.322922 0.160926 86.789862-9.545445-5.208916-15.143971-10.290786-22.114602-14.745892-0.304912-7.7922-0.059288-15.389595 0.77922-23.190264 2.74421-25.375468 3.8961-51.00503 6.589491-76.34662 1.041783-9.757189 2.151325-19.836231 3.684355-29.491782 3.548839-22.292468 8.647648-44.974545 14.745892-66.343807-14.161476 0.872388-33.142259-3.472611-42.298094-14.872938-2.583284-3.210048-3.51496-7.7922-5.623936-10.934489 0.499717-6.352337-1.219649-13.712578 0.525127-19.760003 0.279503-0.965555 9.824948-16.389029 10.536409-17.100491 7.487288-7.555046 29.932211-13.145102 40.553319-11.061536z m-8.596829 15.228669c-23.198734 5.175037-37.7837 33.752083-11.044597 39.570824 12.340473 2.684921 45.347216-11.044596 49.107799-23.512116 3.015243-9.985874-30.609794-17.718785-38.063202-16.058708z" fill="#43BAE4" p-id="5748"></path><path d="M803.553676 518.274461c4.539803 5.606996 11.925454 22.419514 11.061536 29.491783-3.083001 25.29924-29.390145 32.210583-51.614855 29.483313 0.821569 18.989252-1.041783 38.317296-0.152456 57.306549 0.431959 9.299821 5.124218 15.990949 3.845281 27.484444-2.752679 24.791053-4.412757 50.598481-7.309422 75.635158-1.346695 11.603602-2.125915 23.393539-3.752114 34.954792-6.284579 2.778089-12.001682 4.954823-18.430246 7.368711l11.222462-108.591082c-5.45454-32.252932 0.533596-76.490606-7.987005-106.609152-1.651608-5.83568-15.98248-14.42404-19.793882-20.759437-6.479384-10.773563-6.309988-21.741932-1.871822-33.150729 15.423474 3.481081 36.132092-0.084698 47.922029-11.061536 8.418964-1.101072 31.397484 11.67983 36.860494 18.430247z m-64.200952 0.313382c-14.839059 4.378878 1.634668 26.679815 11.213993 32.388449 37.40256 22.300937 65.700103-6.352337 28.509287-28.509288-8.156401-4.853185-30.948585-6.470914-39.72328-3.88763z" fill="#43B7DF" p-id="5749"></path><path d="M394.353074 488.782679c-6.6149 11.137764-7.555046 25.519455-11.061536 36.860493-15.846963 51.250654-30.084667 106.211073-33.337064 160.197467-1.922641 31.880261 1.744775 65.759391 0.160926 97.851397-9.308291-2.769619-16.36362-3.88763-25.807428-7.368711 11.197052 2.007338 7.131557-5.649345 7.368711-12.882539 1.660077-49.709154-1.846413-98.164779 7.444939-147.399625l36.792735-138.311548c13.306028 3.752114 11.400327 6.470914 18.430247 11.061536z" fill="#4ABDE4" p-id="5750"></path><path d="M656.094762 499.844215c-5.674754 6.589491-1.456803 10.383953-0.220214 16.804048 16.211164 84.223517 14.203825 169.370241 3.972328 254.212052-1.245058 10.324665-1.007904 20.801786-3.752114 31.270437-1.829473 0.347261-3.963858 2.964424-6.072834 3.226988l-5.022581-1.19424c-7.01298-4.28571-5.573117-10.155269-7.343301-13.094284 6.386216-9.621673 2.769619-20.717088 3.760583-31.261967 6.852054-72.882478 9.308291-136.31268-0.076228-208.356649-1.821003-14.00902-0.465838-30.626734-7.36871-44.237674 8.054763-2.845847 10.180679-6.377746 22.114602-7.368711z" fill="#48BBE1" p-id="5751"></path><path d="M342.729749 153.277654c-36.259139 12.45905-68.113991 35.073369-97.74976 58.949686-7.690563 6.191411-11.654421 17.388463-23.884786 14.81365-3.718235-3.828342 8.791634-78.049046 11.823816-89.542541 4.717669-17.862771 12.950297-38.53751 24.93504-52.478772 26.442661-13.526243 62.498525 26.501949 75.516581 46.33818 4.480515 6.826645 10.90061 13.22133 9.359109 21.919797z" fill="#FCC5B8" p-id="5752"></path><path d="M844.098525 274.963019c-3.599658 3.921509-19.192527-13.170512-22.182361-16.516076s-4.192542-7.953126-7.233194-11.205522c-23.706921-25.383938-49.014631-46.439817-77.49004-66.301457-1.278937-4.311119 12.806311-17.075082 16.516076-20.327478 7.072268-6.191411 41.603572-30.931646 48.599612-32.498556 25.815897-5.801801 35.081839 9.198184 41.019157 31.507591 9.647082 36.284548 3.226987 78.709689 0.77075 115.341498z" fill="#FAC6B7" p-id="5753"></path><path d="M224.779558 474.036787c-0.702992 0.711462-10.256907 16.134936-10.536409 17.100491-1.744775 6.055894-0.025409 13.407666-0.525127 19.760003-2.481646-3.701295-3.972328-8.918681-8.876332-7.140027-22.309407 8.105582-32.193643 45.440383-27.391277 67.360181 0.431959 1.981929 10.231497 22.936171 11.137764 23.893256 3.633537 3.802932 28.263664 15.160911 33.641976 14.720482 6.868994-0.567475 16.981914-6.24223 24.664007-6.674189-1.533031 9.655552-2.651042 19.734593-3.684355 29.491783-50.293569 23.283432-99.833326-10.036692-103.390635-64.378817-0.982495-15.016924 10.798973-53.164825 19.116299-65.979606 7.334832-11.29022 22.902292-18.091455 25.29077-31.846382 14.051369-0.482778 27.196472-0.906267 40.553319 3.684356z" fill="#FAD4B9" p-id="5754"></path><path d="M394.353074 488.782679c-7.029919-4.582152-5.132688-7.309422-18.430247-11.061536-15.406534-4.344998-31.829443-4.895534-47.92203-3.684356l-8.766224 0.40655-2.286842 3.277806c-1.219649 0.084698-2.464707-0.067758-3.684355 0-7.859958 0.440429-24.426853 1.414454-30.872357-0.457368-5.708633-1.660077-10.511-13.001116-17.049673-14.288524 9.020318-51.547096 80.107203-46.007859 116.83218-26.518889 16.566895 8.791634 52.876852 39.079576 39.943495 59.796665-7.029919 11.256341-15.448883-2.3546-20.479934-5.683224-2.896666-1.922641-6.453974-1.261998-7.267074-1.795594z" fill="#533027" p-id="5755"></path><path d="M766.684713 499.844215c-11.789937 10.976838-32.498555 14.542617-47.92203 11.061536-1.287407-0.287973-8.17334-5.429131-13.695638-6.589491-16.117996-3.396383-32.447737-5.85262-48.972283-4.472045-11.933924 0.999434-14.068309 4.531334-22.114602 7.368711-15.533581 5.479949-35.285114 15.98248-28.907367-12.332004 7.114617-31.583819 75.728325-47.049642 103.771775-42.264215 20.454525 3.48955 60.423428 21.496308 57.840145 47.219038z" fill="#4F2F27" p-id="5756"></path><path d="M363.480716 293.859104c48.752068-11.332569 115.019646 39.240502 64.141663 82.58038l-5.539237 1.837942c-49.387302 9.452277-112.893731-43.898883-58.610895-84.418322z" fill="#F9F1DD" p-id="5757"></path><path d="M643.788168 316.117693c13.534712-2.972894 43.085784-1.753245 52.99543 8.469782 29.313917 30.254063-5.344433 67.580395-38.910181 71.967742-36.487823 4.768488-58.831109-6.326928-53.385039-46.016328 2.092036-15.245609 25.417817-31.372074 39.29979-34.429666z" fill="#F9F1DE" p-id="5758"></path><path d="M228.446974 396.622975c-11.205522 2.515525-6.166002-6.885933-9.037258-14.923756-5.928848-16.609243-16.422908-21.445489-27.814766-32.998273 9.824948-0.609824 20.208901-8.876332 25.875186-16.524546 6.267639-8.469783 5.878029-16.998853 12.83172-24.011833 9.062667 8.274978 3.235457 18.769038 11.137764 29.398615 6.572551 8.833983 16.922625 8.927151 23.867847 16.668532-17.202128 11.349509-34.988672 18.929964-36.860493 42.399731z" fill="#F9DE58" p-id="5759"></path><path d="M821.966983 448.23783c-11.959333 2.591753-5.937318-7.970065-7.953126-15.999419-0.77075-3.049122-6.674189-15.008455-8.605299-17.202129-4.971762-5.632405-18.243912-7.326362-16.617713-18.413307 9.079607 1.795594 21.072819-9.384519 25.968353-16.439848 4.539803-6.538672 4.582152-14.491798 9.054198-20.420645 7.843019 6.23376 6.479384 17.879711 11.095415 25.773548 4.929413 8.410494 16.973444 13.780336 23.910196 20.302069-3.396383 6.055894-10.477121 4.649911-14.712012 7.39412-10.443242 6.775826-19.929398 22.631259-22.156951 35.005611z" fill="#F9DD61" p-id="5760"></path><path d="M492.831235 504.31626c30.135486-4.243361 100.002722 14.483328 72.840129 54.409883-24.028773 35.327463-80.056384 31.863322-105.042242-1.668547-20.793316-27.907933 4.27724-48.811357 32.202113-52.741336z" fill="#533229" p-id="5761"></path><path d="M414.765249 570.024833c3.650476-1.024844 9.680961-0.77922 12.950298 1.52456 4.522864 6.301518 4.565213 13.577061 9.121956 20.369827 23.495177 35.081839 112.639638 40.807412 141.801098 12.941828 4.904004-4.68379 18.210032-31.719335 27.755478-16.609243 7.258604 11.493495-6.462444 26.281735-14.745892 33.311654-43.949701 37.309392-138.862084 29.424024-173.232461-18.591172-4.997172-6.979101-16.236573-29.398615-3.642007-32.947454z" fill="#563429" p-id="5762"></path><path d="M328.000797 474.036787c-0.618294 0.050819-3.066061 3.10841-11.061536 3.684356l2.286842-3.277806 8.766225-0.40655z" fill="#43BAE4" p-id="5763"></path><path d="M766.684713 662.04055c1.270467-11.493495-3.413322-18.184623-3.845282-27.484444-0.880857-18.989252 0.974025-38.325766 0.152456-57.306549 22.224709 2.7188 48.531854-4.184073 51.614855-29.483313 8.224159-0.77075 12.399762-0.846978 18.540354 5.420661 20.513813 20.962712 24.774114 64.946292 7.343301 88.653213-15.287957 20.801786-50.717058 33.294715-73.805684 20.200432z" fill="#F9C3A5" p-id="5764"></path><path d="M246.89416 603.065454c-7.682093 0.431959-17.795013 6.106713-24.664007 6.674189-5.369842 0.440429-30.008439-10.90908-33.641976-14.720482-0.906267-0.957085-10.705805-21.911327-11.137764-23.893257-4.802367-21.919797 5.08187-59.263068 27.391277-67.36018 4.904004-1.778654 6.394686 3.430262 8.876332 7.140027 2.108976 3.150759 3.040652 7.724442 5.623936 10.934489 9.164305 11.408797 28.136617 15.745326 42.298093 14.872938-6.098243 21.369261-11.197052 44.051339-14.745891 66.343806z" fill="#F9BC9E" p-id="5765"></path><path d="M256.727578 478.20392c7.453409-1.660077 41.078445 6.064364 38.063202 16.058708-3.760583 12.46752-36.767326 26.197037-49.107799 23.512116-26.730634-5.818741-12.154138-34.395787 11.044597-39.570824z" fill="#BBE3F1" p-id="5766"></path><path d="M739.352724 518.587843c8.774695-2.591753 31.566879-0.974025 39.72328 3.887631 37.190815 22.156951 8.893272 50.801755-28.509287 28.509288-9.579324-5.708633-26.061521-28.009571-11.213993-32.388449z" fill="#ADDEF0" p-id="5767"></path></svg>