<?xml version="1.0" standalone="no"?><!DOCTYPE svg PUBLIC "-//W3C//DTD SVG 1.1//EN" "http://www.w3.org/Graphics/SVG/1.1/DTD/svg11.dtd"><svg t="1772951603984" class="icon" viewBox="0 0 1024 1024" version="1.1" xmlns="http://www.w3.org/2000/svg" p-id="6684" xmlns:xlink="http://www.w3.org/1999/xlink" width="200" height="200"><path d="M672.785357 642.798933c5.341867 1.749333 5.2224 3.037867 14.4128 3.601067 7.1168 0.4352 14.464-0.1024 21.614933 0 4.7872 0.068267 9.6256-0.059733 14.4128 0-15.624533 30.216533-23.176533 68.522667-13.781333 102.024533 25.258667 90.043733 158.890667 111.266133 222.976 51.336534l17.732266-9.284267c-102.314667 155.357867-345.975467 207.488-520.439466 187.2384-125.166933-14.532267-265.147733-65.2032-344.081067-165.623467 5.205333-8.772267 15.36 7.005867 20.309333 10.308267 44.6976 29.866667 120.7808 21.666133 163.242667-8.661333 7.765333-5.546667 20.957867-16.512 27.2896-23.168 22.2464-23.3728 17.442133-52.215467 23.4752-81.006934l-7.381333-59.5712c4.1472-0.366933 8.8576 0.8192 12.8 0.042667 4.7104-0.930133 4.9152-3.575467 5.2224-3.652267 54.664533-12.9024 52.753067-25.002667 93.738666-52.1472 53.0688-35.140267 119.560533-35.2 172.731734 0 31.4368 20.8128 34.2272 34.935467 75.733333 48.546134z m-184.746667-46.062933c-34.449067 4.855467-64.9728 33.0752-40.2944 67.584 13.303467 18.602667 49.6384 31.351467 71.867733 28.817067 31.479467-3.592533 81.109333-37.307733 57.617067-71.850667-17.5616-25.838933-60.689067-28.5696-89.1904-24.541867z m141.013333 93.3888c-1.518933-1.553067-12.16-4.7104-15.2576-3.84-9.130667 4.9408-10.641067 15.633067-16.5888 23.227733-40.618667 51.857067-143.018667 51.677867-178.210133-5.640533-1.988267-3.242667-1.928533-7.5264-3.8144-10.5984-8.490667-13.824-26.871467-5.316267-27.067733 8.96-0.0512 3.498667 9.992533 22.9888 12.8 26.9312 43.255467 60.7232 167.253333 62.532267 214.2976 5.563733 7.560533-9.156267 23.5264-34.679467 13.832533-44.5952z" fill="#F9EFDD" p-id="6685"></path><path d="M914.133623 592.366933c39.560533 2.295467 74.376533 40.32 79.249067 79.249067 3.515733 28.091733-20.906667 88.610133-36.522667 113.066667-2.525867 3.950933-6.391467 5.333333-6.698666 5.802666l-17.732267 9.284267c-64.085333 59.938133-197.725867 38.7072-222.976-51.336533-9.3952-33.501867-1.8432-71.808 13.781333-102.024534-4.778667-0.068267-9.6256 0.059733-14.4128 0l2.176-3.140266c16.068267-1.757867 33.109333-5.486933 48.256-11.272534 8.337067 2.542933-0.708267 9.736533-2.978133 13.2352-25.984 40.004267-29.320533 100.5312 8.311467 134.528 41.079467 37.111467 114.5856 33.032533 155.0336-3.601066 9.045333-8.192 23.6544-30.506667 26.368-42.069334 1.117867-4.7616 4.488533-24.1664 4.488533-28.2368 0-5.700267-3.208533-9.685333-3.848533-14.464-2.5344-19.054933-7.68-40.251733-18.568534-57.070933-11.648-17.988267-31.931733-32.913067-53.538133-34.730667-0.298667-7.662933-1.629867-6.843733 5.376-7.1936 10.8032-0.529067 23.517867-0.622933 34.244267 0z" fill="#F9E4CE" p-id="6686"></path><path d="M103.646157 595.968c2.244267-0.349867 4.864 0.247467 7.202133 0-10.077867 12.791467-25.762133 21.077333-36.087467 34.1504-27.5456 34.8928-24.6784 99.694933-4.232533 137.642667 37.026133 68.7104 164.027733 69.998933 209.6896 10.180266 18.781867-24.6016 21.802667-67.447467 17.877333-97.271466-1.442133-10.939733-10.376533-21.6064-7.150933-34.2784 4.7872-0.0768 9.6256 0.085333 14.4128 0 8.379733-0.145067 16.836267 0.1024 25.216 0-0.3072 0.0768-0.512 2.722133-5.2224 3.652266-3.933867 0.776533-8.6528-0.4096-12.8-0.042666l7.381333 59.5712c-6.024533 28.791467-1.2288 57.634133-23.4752 81.006933-6.331733 6.647467-19.515733 17.6128-27.2896 23.168-42.461867 30.318933-118.545067 38.528-163.242666 8.661333-4.9408-3.3024-15.095467-19.089067-20.309334-10.308266-33.450667-42.555733-45.2608-71.850667-54.033066-126.071467l-0.392534-8.558933-3.208533-2.244267c-0.315733-2.304 0.264533-4.872533 0-7.202133 7.722667-7.970133 9.326933-19.959467 14.976-30.045867 13.550933-24.192 33.467733-37.742933 60.663467-41.992533z" fill="#F8E8D3" p-id="6687"></path><path d="M31.607757 686.0288c-0.1024-0.6144-2.5856-3.396267-3.601067-10.8032l3.208533 2.244267 0.392534 8.558933z" fill="#F7C07C" p-id="6688"></path><path d="M914.133623 592.366933c-10.734933-0.622933-23.4496-0.529067-34.244266 0-7.0144 0.349867-5.674667-0.469333-5.376 7.1936 21.6064 1.8176 41.890133 16.7424 53.538133 34.730667 10.897067 16.827733 16.034133 38.016 18.568533 57.070933 0.64 4.7872 3.84 8.763733 3.848534 14.464 0 4.0704-3.370667 23.4752-4.488534 28.2368-2.7136 11.562667-17.322667 33.877333-26.368 42.069334-40.439467 36.6336-113.9456 40.712533-155.0336 3.601066-37.632-33.988267-34.295467-94.523733-8.311466-134.528 2.269867-3.498667 11.3152-10.683733 2.978133-13.2352 48.930133-18.679467 77.3888-42.8032 135.074133-43.2128 5.853867-0.042667 16.861867-2.594133 19.822934 3.592534z m14.0544 106.1376c0-46.481067-37.674667-84.155733-84.155733-84.155733s-84.155733 37.674667-84.155733 84.155733 37.674667 84.155733 84.155733 84.155734 84.155733-37.674667 84.155733-84.155734z" fill="#F9D8BC" p-id="6689"></path><path d="M265.745357 635.5968c-9.531733 3.9936-0.256 10.845867 1.621333 14.583467 22.254933 44.3392 21.000533 108.2112-25.6 136.1408-34.3552 20.590933-72.669867 24.4992-110.318933 10.581333-25.6512-9.480533-48.110933-29.192533-55.876267-55.790933-14.242133-48.802133-3.003733-85.802667 29.730133-123.6736l37.9648-25.070934c53.060267 2.628267 78.1056 27.409067 122.4704 43.229867z m-6.152534 63.735467c0-47.0528-38.144-85.1968-85.1968-85.1968s-85.1968 38.144-85.1968 85.1968 38.144 85.1968 85.1968 85.1968 85.1968-38.144 85.1968-85.1968z" fill="#F9D9BE" p-id="6690"></path><path d="M143.274957 592.366933l-37.9648 25.070934c-32.725333 37.870933-43.972267 74.862933-29.730134 123.6736 7.765333 26.606933 30.216533 46.3104 55.876267 55.790933 37.649067 13.917867 75.963733 10.0096 110.318933-10.581333 46.600533-27.9296 47.854933-91.8016 25.6-136.1408-1.877333-3.746133-11.153067-10.589867-1.621333-14.583467 10.171733 3.626667 26.3936 6.1952 37.4528 7.662933l2.176 3.140267c-4.7872 0.085333-9.634133-0.0768-14.4128 0-3.2256 12.672 5.717333 23.338667 7.150933 34.2784 3.925333 29.824 0.904533 72.661333-17.877333 97.271467-45.6704 59.818667-172.663467 58.530133-209.6896-10.180267-20.445867-37.947733-23.313067-102.749867 4.232533-137.642667 10.325333-13.0816 26.0096-21.367467 36.087467-34.1504 1.6128-0.170667 3.2768 0.187733 4.8128-0.5888l2.389333-3.0208c8.285867-0.221867 16.9472-0.4096 25.216 0z" fill="#F9E2CB" p-id="6691"></path><path d="M687.198157 646.4c-9.181867-0.5632-9.0624-1.851733-14.4128-3.601067l12.228266 0.392534 2.184534 3.208533z" fill="#F9E4CE" p-id="6692"></path><path d="M841.08829 16.6656c20.846933-2.884267 49.083733 13.8752 62.301867 29.909333 38.161067 46.293333 58.0352 161.015467 61.329066 219.639467 2.0992 37.358933-4.753067 83.319467-0.093866 118.971733 3.498667 26.769067 29.9008 77.858133 38.690133 108.996267 52.4288 185.821867 7.799467 335.931733-163.575467 432.631467-204.433067 115.3536-515.234133 108.987733-707.106133-30.225067-162.389333-117.802667-152.234667-287.616-93.056-460.142933 4.027733-11.7504 15.778133-33.493333 17.237333-43.997867 5.0176-35.899733-2.295467-84.573867-0.1536-122.632533 3.208533-57.130667 21.469867-174.2848 57.728-219.639467 19.114667-23.9104 38.8096-34.1248 70.2208-30.464 37.930667 4.420267 109.184 51.6096 140.6464 75.485867 7.867733 5.973333 32.964267 31.197867 39.483734 31.351466 15.163733-2.730667 31.872-7.620267 46.958933-9.6 64.768-8.507733 151.671467-6.229333 215.944533 3.6608 8.968533 1.3824 19.413333 4.923733 28.5184 6.775467 16.802133-15.633067 34.218667-31.0016 52.8128-44.5696 35.601067-25.9584 88.328533-60.100267 132.1216-66.158933zM28.00669 668.014933c0.264533 2.338133-0.315733 4.898133 0 7.202134 1.015467 7.415467 3.498667 10.1888 3.601067 10.8032 8.772267 54.229333 20.5824 83.515733 54.033066 126.071466 78.933333 100.420267 218.914133 151.0912 344.081067 165.623467 174.455467 20.2496 418.1248-31.880533 520.439467-187.2384 0.3072-0.469333 4.1728-1.851733 6.698666-5.802667 15.616-24.456533 40.0384-84.983467 36.522667-113.066666 6.2464-3.003733 3.549867-13.909333 3.592533-19.822934 0.469333-61.636267-5.316267-105.147733-23.304533-163.9936-8.251733-26.999467-31.112533-71.296-34.261333-95.4112-4.352-33.297067 1.783467-76.433067-0.136534-111.530666-2.986667-54.638933-18.542933-157.636267-47.240533-204.910934-15.018667-24.7296-31.991467-35.5328-61.8496-30.4128-33.928533 5.819733-113.604267 64.4864-142.830933 87.714134-5.5552 4.420267-13.815467 15.778133-18.0736 17.9456-12.868267 6.5536-53.777067-6.826667-70.4-9.019734-58.8544-7.790933-121.0368-3.319467-179.959467 0l-61.252267 10.8288c-10.624-1.186133-47.1552-35.848533-59.648-44.962133-27.3664-19.968-91.630933-61.781333-124.040533-63.4112-29.7472-1.501867-48.418133 33.7408-57.762133 57.796267-21.1712 54.493867-31.752533 138.410667-34.3296 196.215466-1.390933 31.266133 4.258133 71.637333 0.1536 101.0176-2.833067 20.283733-24.32 63.419733-31.556267 87.313067-18.5088 61.141333-29.653333 117.444267-22.4768 181.0432z" fill="#4A2A21" p-id="6693"></path><path d="M993.374157 671.616c-4.872533-38.929067-39.688533-76.9536-79.249067-79.249067-2.961067-6.178133-13.969067-3.6352-19.822933-3.592533-57.685333 0.418133-86.144 24.533333-135.074134 43.2128-15.146667 5.777067-32.187733 9.506133-48.256 11.272533l-2.176 3.140267c-7.150933-0.1024-14.4896 0.4352-21.614933 0l-2.184533-3.208533-12.228267-0.392534c-41.506133-13.602133-44.296533-27.733333-75.733333-48.546133-53.1712-35.2-119.6544-35.140267-172.731734 0-40.9856 27.144533-39.082667 39.236267-93.738666 52.1472-8.379733 0.1024-16.836267-0.145067-25.216 0l-2.176-3.140267c-11.050667-1.467733-27.281067-4.036267-37.4528-7.662933-44.3648-15.8208-69.418667-40.593067-122.4704-43.229867-8.2688-0.4096-16.930133-0.221867-25.216 0-4.061867 0.110933-8.174933-0.580267-12.228267 0.392534l-2.184533 3.208533c-27.204267 4.258133-47.121067 17.800533-60.663467 41.992533-5.649067 10.0864-7.253333 22.075733-14.976 30.045867-7.176533-63.598933 3.968-119.901867 22.4768-181.0432 7.236267-23.893333 28.7232-67.029333 31.556267-87.313067 4.096-29.380267-1.553067-69.751467-0.1536-101.0176 2.577067-57.8048 13.149867-141.7216 34.3296-196.215466 9.352533-24.064 28.023467-59.298133 57.762133-57.796267 32.401067 1.629867 96.6656 43.451733 124.040533 63.4112 12.501333 9.122133 49.032533 43.776 59.648 44.962133l61.252267-10.8288c58.922667-3.328 121.105067-7.790933 179.959467 0 16.622933 2.2016 57.540267 15.573333 70.4 9.019734 4.266667-2.167467 12.5184-13.533867 18.0736-17.9456 29.226667-23.227733 108.9024-81.885867 142.830933-87.714134 29.858133-5.12 46.830933 5.674667 61.8496 30.4128 28.6976 47.266133 44.2624 150.272 47.240533 204.910934 1.92 35.106133-4.215467 78.242133 0.136534 111.530666 3.1488 24.1152 26.0096 68.411733 34.261333 95.4112 17.988267 58.845867 23.765333 102.3488 23.304533 163.9936-0.042667 5.9136 2.653867 16.8192-3.592533 19.822934zM143.274957 205.141333c-2.619733 28.142933 1.928533 59.716267 0 88.251734 8.874667 2.2528 5.777067-2.141867 7.816533-4.718934 21.6576-27.392 57.335467-55.953067 85.9904-76.168533 10.376533-7.3216 24.388267-12.8768 33.5104-20.522667 9.156267-7.671467 7.850667-9.019733 0.571733-17.4848-13.994667-16.273067-62.404267-61.277867-82.875733-61.226666-27.784533 0.068267-37.7088 48.503467-41.352533 70.3232-0.989867 5.9392-3.3024 17.604267-3.669334 21.546666z m601.7024-16.375466c47.5136 24.942933 89.250133 60.151467 125.934933 99.234133 1.9712 3.515733 6.647467-2.372267 7.048533-3.771733 2.1248-7.3984 0.9472-43.690667 0.315734-54.033067-1.450667-23.927467-7.5008-69.905067-16.221867-91.844267-17.160533-43.204267-53.282133-21.794133-79.4624 0.0768-6.980267 5.828267-46.088533 42.999467-37.6064 50.338134z m-419.208534 155.648c-10.606933 2.321067-28.168533 15.8208-30.6176 27.025066-3.857067 17.681067-1.1776 32.7424 10.146134 46.301867 22.587733 27.042133 88.618667 43.272533 106.3936 5.4016 9.8304-20.9408 0.853333-45.038933-16.4352-59.3408-16.392533-13.559467-48.5888-23.953067-69.486934-19.387733z m335.104 0.1024c-19.549867 3.310933-51.5072 24.6528-55.944533 44.919466-9.233067 42.222933 23.645867 61.021867 61.755733 54.545067 35.421867-6.016 74.1888-43.2384 52.471467-79.8976-12.757333-21.5296-35.234133-23.483733-58.282667-19.575467z m-258.816 187.1872c-0.964267-0.964267-16.648533-7.406933-19.242666-7.773867-23.296-3.2768-98.688-2.952533-122.410667 0.059733-34.935467 4.4288-37.282133 46.267733-7.261867 50.363734l136.96 0.093866c9.028267-1.28 21.111467-17.365333 19.336534-26.478933-0.2304-1.194667-6.749867-15.633067-7.381334-16.264533z m237.277867-7.005867c-10.717867 1.536-26.103467 6.971733-27.869867 18.952533-2.158933 14.592 4.462933 28.4928 19.908267 30.702934 39.808 5.7088 92.0064-4.215467 133.2736 0 34.5344-9.6512 25.6512-46.199467-7.261867-50.363734-24.661333-3.1232-93.4912-2.816-118.0416 0.708267z" fill="#F7C07C" p-id="6694"></path><path d="M744.977357 188.765867c-8.482133-7.338667 30.626133-44.509867 37.6064-50.338134 26.180267-21.870933 62.301867-43.281067 79.4624-0.0768 8.712533 21.9392 14.762667 67.9168 16.221866 91.844267 0.631467 10.333867 1.809067 46.626133-0.315733 54.033067-0.401067 1.390933-5.0688 7.287467-7.048533 3.771733-36.676267-39.082667-78.421333-74.2912-125.934934-99.234133z" fill="#F9C6B5" p-id="6695"></path><path d="M143.274957 205.141333c0.366933-3.9424 2.679467-15.607467 3.669333-21.546666 3.643733-21.819733 13.568-70.254933 41.352533-70.3232 20.462933-0.0512 68.872533 44.9536 82.875734 61.226666 7.278933 8.465067 8.593067 9.813333-0.571734 17.4848-9.122133 7.645867-23.133867 13.201067-33.5104 20.522667-28.654933 20.215467-64.3328 48.776533-85.9904 76.168533-2.039467 2.577067 1.058133 6.971733-7.816533 4.718934 1.928533-28.535467-2.619733-60.1088 0-88.251734z" fill="#F8C6B5" p-id="6696"></path><path d="M325.768823 344.413867c20.898133-4.565333 53.0944 5.828267 69.486934 19.387733 17.288533 14.301867 26.2656 38.4 16.4352 59.3408-17.774933 37.870933-83.805867 21.640533-106.3936-5.4016-11.323733-13.559467-14.0032-28.612267-10.146134-46.301867 2.440533-11.195733 20.002133-24.704 30.6176-27.025066z" fill="#F7EDDA" p-id="6697"></path><path d="M660.872823 344.516267c23.048533-3.908267 45.5168-1.954133 58.282667 19.575466 21.725867 36.6592-17.0496 73.873067-52.471467 79.8976-38.109867 6.4768-70.980267-12.322133-61.755733-54.545066 4.4288-20.266667 36.386133-41.608533 55.944533-44.919467z" fill="#F7EEDB" p-id="6698"></path><path d="M402.056823 531.703467c0.631467 0.631467 7.150933 15.069867 7.381334 16.264533 1.774933 9.1136-10.308267 25.198933-19.336534 26.478933l-136.96-0.093866c-30.020267-4.096-27.6736-45.934933 7.261867-50.363734 23.722667-3.012267 99.114667-3.328 122.410667-0.059733 2.594133 0.366933 18.2784 6.8096 19.242666 7.773867z" fill="#523028" p-id="6699"></path><path d="M639.33469 524.6976c24.5504-3.524267 93.380267-3.831467 118.0416-0.708267 32.913067 4.164267 41.796267 40.721067 7.261867 50.363734-41.2672-4.215467-93.457067 5.7088-133.2736 0-15.4368-2.210133-22.058667-16.119467-19.908267-30.702934 1.7664-11.9808 17.152-17.416533 27.869867-18.952533z" fill="#533129" p-id="6700"></path><path d="M118.058957 592.366933l-2.389334 3.0208c-1.536 0.776533-3.2 0.418133-4.8128 0.5888-2.346667 0.247467-4.957867-0.349867-7.202133 0l2.184533-3.208533c4.053333-0.9728 8.1664-0.2816 12.228267-0.392533z" fill="#F9D9BE" p-id="6701"></path><path d="M488.03869 596.736c28.501333-4.0192 71.6288-1.288533 89.1904 24.541867 23.492267 34.551467-26.1376 68.266667-57.617067 71.850666-22.229333 2.5344-58.564267-10.2144-71.867733-28.817066-24.6784-34.500267 5.853867-62.72 40.2944-67.584z" fill="#4F2F27" p-id="6702"></path><path d="M629.052023 690.1248c9.685333 9.915733-6.272 35.438933-13.832533 44.5952-47.044267 56.968533-171.050667 55.159467-214.2976-5.563733-2.807467-3.9424-12.842667-23.432533-12.8-26.9312 0.196267-14.276267 18.5856-22.775467 27.067733-8.96 1.885867 3.072 1.826133 7.355733 3.8144 10.5984 35.191467 57.3184 137.591467 57.4976 178.210134 5.640533 5.947733-7.594667 7.458133-18.286933 16.5888-23.227733 3.0976-0.878933 13.738667 2.286933 15.2576 3.84z" fill="#4C2C24" p-id="6703"></path><path d="M928.188023 698.504533c0 46.481067-37.674667 84.155733-84.155733 84.155734s-84.155733-37.674667-84.155733-84.155734 37.674667-84.155733 84.155733-84.155733 84.155733 37.674667 84.155733 84.155733z m-87.901866-65.1008c-43.588267-0.827733-63.7696 56.686933-46.6688 92.091734 15.112533 31.2832 56.9344 39.4496 84.4032 19.874133 13.832533-9.856 26.632533-33.544533 25.463466-50.474667-2.158933-31.1552-31.880533-60.893867-63.197866-61.482666z" fill="#F9CDAF" p-id="6704"></path><path d="M259.592823 699.332267c0 47.0528-38.144 85.1968-85.1968 85.1968s-85.1968-38.144-85.1968-85.1968 38.144-85.1968 85.1968-85.1968 85.1968 38.144 85.1968 85.1968z m-95.7952-59.426134c-13.858133 2.432-34.4832 22.826667-40.328533 35.319467-7.04 15.035733 0.034133 51.012267 12.637867 62.993067 3.822933 3.6352 29.8752 16.375467 34.133333 16.290133 4.548267-0.093867 23.995733-5.188267 28.373333-7.739733 11.528533-6.7328 25.7024-23.927467 27.451734-37.384534 5.205333-40.098133-18.875733-77.090133-62.267734-69.469866z" fill="#F9CCAD" p-id="6705"></path><path d="M840.286157 633.403733c31.317333 0.597333 61.0304 30.327467 63.197866 61.482667 1.1776 16.930133-11.630933 40.618667-25.463466 50.474667-27.4688 19.575467-69.290667 11.409067-84.4032-19.874134-17.092267-35.396267 3.089067-92.919467 46.6688-92.091733z" fill="#FAC09F" p-id="6706"></path><path d="M163.797623 639.906133c43.383467-7.620267 67.473067 29.371733 62.267734 69.469867-1.749333 13.457067-15.9232 30.651733-27.451734 37.384533-4.369067 2.551467-23.825067 7.645867-28.373333 7.739734-4.2496 0.093867-30.3104-12.654933-34.133333-16.290134-12.603733-11.9808-19.677867-47.9488-12.637867-62.993066 5.845333-12.4928 26.4704-32.887467 40.328533-35.319467z" fill="#FABD9A" p-id="6707"></path></svg>