<?xml version="1.0" standalone="no"?><!DOCTYPE svg PUBLIC "-//W3C//DTD SVG 1.1//EN" "http://www.w3.org/Graphics/SVG/1.1/DTD/svg11.dtd"><svg t="1772951637538" class="icon" viewBox="0 0 1024 1024" version="1.1" xmlns="http://www.w3.org/2000/svg" p-id="1747" xmlns:xlink="http://www.w3.org/1999/xlink" width="200" height="200"><path d="M159.83378 22.233251c24.350703-4.268784 44.805294 1.727841 66.894557 10.892175 33.354111 13.831199 72.476162 39.808106 101.417503 61.617866 12.865641 9.697932 25.595765 24.376112 39.791166 31.287477 13.754971-1.651613 28.179057-2.600232 41.83239-4.361952 65.87818-8.503689 125.302366-12.221935 192.290091-4.023159 11.11239 1.363639 26.773069 6.996063 37.783822 8.198775 24.909711 2.718809 45.127146-25.180744 64.904152-39.443904 15.58445-11.247907 36.301605-25.544946 52.724565-35.065012 46.389148-26.891646 102.874309-52.419653 143.647974-2.820447 38.529165 46.871927 58.467097 158.05512 62.541075 217.547064 2.532473 37.004599-4.46359 81.564268 0.152457 116.900314 3.828354 29.330951 31.1689 80.945972 40.722845 113.952821 87.72182 303.083672-133.687477 471.090819-410.845062 502.64086-201.479835 22.936245-503.276096-46.838048-576.98038-263.11464-26.603672-78.066237-18.371017-160.977204 3.269346-239.52622 9.316791-33.811481 36.843672-88.458693 40.722846-118.136907 4.946369-37.82617-2.566352-85.646716 0.152456-125.260016 3.667428-53.486849 22.504285-159.926948 56.52751-202.657138 9.291381-11.671398 27.704748-26.036195 42.450687-28.619488zM31.507692 669.377535c-2.930554 38.004036 28.568668 107.786799 52.436593 137.769926 5.79335 7.284036 13.729562 11.603639 18.633581 16.90574 173.698859 187.936609 546.954905 192.950736 754.016344 57.967378 38.613863-25.172275 63.311828-55.079173 90.432159-91.414657 0.499719-0.669115 4.124797-1.194243 6.166021-4.099388 16.778693-23.867924 39.723408-79.836427 39.816576-108.769297 7.156989-4.853201 4.057039-15.491282 4.167146-23.020943 0.787692-55.104582-2.845856-92.431034-17.710372-145.282646-9.418428-33.481158-36.894491-88.763606-40.731315-118.128437-3.769065-28.822763 1.499156-65.615616-0.152456-95.996824-3.091481-56.705376-18.769098-173.512523-50.657933-221.070504-30.203342-45.050918-66.250852-27.670868-105.381373-6.199901-37.614425 20.640926-70.977006 48.947031-105.237386 74.517386-6.750438 5.039537-9.706402 14.762878-20.767973 12.874111l-71.205691-12.704715c-51.157651-3.464152-99.173002-5.827229-150.322184 0l-71.027824 12.670836c-10.578792-0.694524-51.869115-38.757849-65.107428-48.10852-24.664086-17.422399-87.052705-57.349082-114.842151-60.753945-42.806419-5.242812-61.685624 44.805294-72.061141 78.311861-14.601952 47.134491-23.842514 113.08043-26.290289 161.832655-1.660083 33.015318 4.150207 73.069049 0.110107 104.61909-2.888205 22.572043-27.535352 71.095583-35.581671 98.190505-16.304384 54.909777-23.291977 99.444036-22.860016 156.877816 0.050819 6.869016-3.074541 19.522911 4.167146 23.004003z" fill="#4E2D24" p-id="1748"></path><path d="M993.008966 677.737237c0.118577-37.41962-32.397022-84.715037-71.070174-87.789578v-2.176741c-15.160959-2.862796-34.387428-3.13383-50.166683-2.007345l-14.186931 0.45737-2.532473 3.726716c-2.642581 0.381141-5.632423-0.254094-8.359703 0-9.469247 0.87239-10.002845 3.438743-12.543788 4.184086-12.89105 3.777535-21.521787 7.809165-33.447279 12.543788-9.689462 3.853763-20.437651 9.189744-29.263192 12.543789-4.47206 1.693962-8.571447 2.752688-12.543788 4.184086-26.849297 9.664053-50.353019 15.550571-79.429876 12.543788-55.231629-13.704152-76.168999-52.174028-124.192821-66.022167s-97.93641-2.380017-138.998048 26.485095c-25.519537 17.930587-30.940215 26.866237-62.879868 39.537072-23.1734-0.948619-48.777634 2.862796-71.070173-4.184086-27.577701-8.715434-67.174061-26.442746-96.149281-37.622895-4.429711-1.710902-3.845294-2.795037-12.543788-4.184086-20.539289-3.269347-42.374458-7.173929-62.710471-2.176741v2.176741c-39.596361 1.829479-76.465443 41.053168-79.421407 79.429876-7.250157-3.481092-4.116328-16.134988-4.167146-23.004003-0.43196-57.43378 6.555633-101.96804 22.860017-156.877817 8.046319-27.094921 32.693466-75.618462 35.58167-98.190504 4.040099-31.550041-1.77019-71.612242-0.110107-104.61909 2.447775-48.752225 11.688337-114.689694 26.290289-161.832656 10.383987-33.515037 29.254723-83.554673 72.061142-78.311861 27.797916 3.404864 90.186534 43.331547 114.84215 60.753946 13.229843 9.35067 54.528635 47.413995 65.107428 48.108519l71.027825-12.670835c51.149181-5.827229 99.164533-3.464152 150.322183 0l71.205691 12.704715c11.061572 1.888768 14.017535-7.843044 20.767973-12.874111 34.26885-25.570356 67.622961-53.87646 105.237387-74.517387 39.130521-21.470968 75.178031-38.851017 105.381373 6.199901 31.888834 47.566452 47.557982 164.365128 50.657932 221.070505 1.660083 30.381208-3.608139 67.174061 0.152457 95.996824 3.836824 29.356361 31.312887 84.647279 40.731315 118.128436 14.864516 52.860083 18.498065 90.178065 17.710372 145.282647-0.110108 7.521191 2.989843 18.159272-4.167147 23.020943zM278.038445 192.645823c8.071729-6.784318-23.13952-38.317419-29.322481-43.560232-14.568073-12.348983-47.981472-39.249098-66.835269-29.551166-1.804069 0.931679-13.136675 12.526849-14.474905 14.771348-15.880893 26.561323-20.319074 87.442316-23.198809 118.916129-1.32129 14.491844 2.337667 26.061605 4.361952 39.901274 40.612738-36.208437 79.014855-77.693565 129.469512-100.485823z m597.91775 96.310207v-73.153747c0-0.46584-3.726716-3.769065-4.243374-8.291944-2.786567-24.282945-3.370984-45.821671-14.483375-69.122117-8.45287-17.718842-17.625674-23.656179-37.707593-20.801853-9.731811 1.380579-31.295947 19.57373-39.808106 27.052572-7.699057 6.758908-36.52182 34.319669-37.631365 41.88321-1.312821 8.961059 2.896675 5.039537 5.547726 7.021472 21.623424 16.245095 47.032854 27.59464 67.800827 45.177965 15.609859 13.212903 30.160993 34.175682 45.804731 46.160463 5.34445 4.090918 7.690587 5.141175 14.728999 4.082449z m-544.744284 59.356427c-12.975749 2.22756-30.211811 15.355765-34.446717 28.221406-16.422961 49.810951 68.715567 99.27464 109.048801 63.066203 14.212341-12.755533 14.102233-43.577171 3.913052-58.568734-14.288569-21.030538-53.85105-36.94531-78.506667-32.718875z m330.263292-0.02541c-19.946402 3.464152-54.33383 26.078544-57.238975 47.270008-13.526286 98.580116 142.03871 49.819421 119.33962-19.031662-8.147957-24.723375-38.876427-32.278445-62.100645-28.246816z m-251.638048 158.05512H230.082382c-4.91249 0-15.440463 17.981406 8.275004 20.988189 27.120331 3.438743 14.788288 4.497469 19.692308 26.290289 18.6844 82.919438 148.594342 66.216973 137.388784-21.962217 12.645426 3.176179 31.194309-20.91196 14.398677-25.324731z m382.505078 0h-181.846815l-6.030505 6.504814-0.143987 14.288569 20.700215 4.404301c-2.524003 101.485261 141.708387 102.078147 142.343623-0.01694l24.791133-4.480529 0.203276-20.700215z" fill="#F7C17C" p-id="1749"></path><path d="M875.956195 288.95603c-7.038412 1.050256-9.384549 0.00847-14.728999-4.082449-15.643739-11.984781-30.203342-32.94756-45.804731-46.160463-20.759504-17.574855-46.177403-28.9244-67.800827-45.177965-2.642581-1.990405-6.860546 1.939586-5.547726-7.021472 1.109545-7.56354 29.932308-35.115831 37.631365-41.88321 8.512159-7.478842 30.076294-25.671993 39.808106-27.052572 20.090389-2.854326 29.254723 3.083011 37.707593 20.801853 11.11239 23.300447 11.696807 44.839173 14.483375 69.122117 0.516658 4.531348 4.243375 7.826104 4.243374 8.291944v73.153747z" fill="#FAC4B5" p-id="1750"></path><path d="M278.038445 192.645823c-50.454657 22.792258-88.856774 64.277386-129.469512 100.485823-2.024285-13.848139-5.683242-25.409429-4.361952-39.901274 2.871266-31.482283 7.317916-92.363275 23.198809-118.916129 1.3467-2.2445 12.670835-13.839669 14.474905-14.771348 18.853797-9.706402 52.267196 17.202184 66.835269 29.551166 6.182961 5.242812 37.39421 36.767444 29.322481 43.560232z" fill="#FAC5B5" p-id="1751"></path><path d="M792.342233 506.342167l-0.203275 20.700215-24.791133 4.480529c-0.635236 102.103557-144.859156 101.5022-142.343623 0.01694l-20.700215-4.404301 0.143987-14.288569 6.030504-6.504814h181.846816z m-147.874408 21.428619c-4.040099 1.177304-8.02938 6.945244-10.773598 10.350107 5.598544 39.952093 57.332142 19.768536 39.672589-6.860546-3.794475-5.725591-22.622862-5.319041-28.898991-3.481091z" fill="#503229" p-id="1752"></path><path d="M409.837155 506.342167c16.795633 4.412771-1.753251 28.50091-14.398677 25.324731 11.205558 88.17072-118.712854 104.873184-137.388784 21.962217-4.91249-21.792821 7.428023-22.851547-19.692308-26.29029-23.715467-3.006782-13.179024-20.988189-8.275004-20.988188h179.754773z m-137.59206 21.259223c-13.839669 8.046319-2.68493 22.834607 5.79335 31.109611 16.677055 7.216278 26.984814-1.643143 32.659586-16.829512l-7.250157-12.747064-31.194309-1.524566z" fill="#523229" p-id="1753"></path><path d="M661.475203 348.287047c23.224218-4.031629 53.944218 3.523441 62.100645 28.246816 22.69909 68.842614-132.865906 117.603309-119.33962 19.031662 2.905145-21.191464 37.292572-43.814326 57.238975-47.270008zM331.211911 348.312457c24.655616-4.226435 64.218098 11.696807 78.506666 32.718875 10.180711 14.983093 10.299289 45.804731-3.913052 58.568734-40.333234 36.208437-125.463292-13.263722-109.0488-63.066203 4.243375-12.865641 21.470968-25.993846 34.446716-28.221406z" fill="#F7EEDC" p-id="1754"></path><path d="M644.467825 527.770786c6.267659-1.829479 25.096046-2.23603 28.898991 3.481092 17.668023 26.629082-34.065575 46.812639-39.672589 6.860545 2.752688-3.404864 6.733499-9.172804 10.773598-10.350107z" fill="#F1EADF" p-id="1755"></path><path d="M272.245095 527.60139l31.194309 1.524565 7.250158 12.747064c-5.666303 15.194839-15.982531 24.04579-32.659587 16.829512-8.46981-8.275004-19.633019-23.054822-5.79335-31.109611z" fill="#E6DED6" p-id="1756"></path><path d="M679.473548 635.930256c0.355732 0.084698 0.381141 3.489562 5.996626 4.268785 8.546038 1.185773 18.599702-0.948619 27.442183-0.084699-6.310008 42.264351-11.535881 92.685128 14.745939 129.477982 20.869611 29.220844 56.163309 50.7511 91.956725 54.359239 35.937403 3.625079 64.412903-10.832887 99.825178-8.681555 3.252407-0.965558 11.1378-13.771911 15.000033-18.438776 1.32976-1.600794 11.205558-14.517254 12.577667-6.23378-27.120331 36.335484-51.818296 66.242382-90.432159 91.414657-207.061439 134.974888-580.309016 129.969231-754.016344-57.967378 14.940744-17.761191 38.647742-1.905707 56.527511-0.093168 26.849297 2.727279 75.144152 0.694524 98.046517-14.635831 8.198776-5.488437 19.548321-19.472093 27.205029-27.264318 2.837386-2.888205 7.758346-2.998313 9.638644-4.86167 17.447808-17.286882 20.420711-58.32311 25.858329-80.725757l-4.090918-56.366584c10.180711-0.948619 21.775881 1.363639 31.643209 0.127047 5.76794-0.728404 5.640893-4.158677 5.988156-4.294194 31.939653-12.670835 37.368801-21.606485 62.879867-39.537072 41.061638-28.856642 89.847742-40.655087 138.998048-26.485095s68.961191 52.318015 124.192821 66.022167z m-229.040595-28.373862c-1.431398 1.422928-8.944119 15.279537-9.3422 17.837419-5.590074 35.937403 46.30445 63.735318 77.337833 60.635368 30.304979-3.032192 79.108023-34.506005 60.118709-68.309016-13.221373-23.529132-56.061671-30.559074-80.818924-27.670868-10.273879 1.202713-40.434872 10.714309-47.295418 17.507097z m-30.118644 187.242084c6.132142-0.43196 12.594607 0.830041 18.71828-0.084698 24.189777-3.625079 55.079173-7.334855 79.319768-8.46134 23.520662-1.092605 47.354706 1.499156 70.892308-0.177866l4.658395-3.701307 1.81254-14.601952c-2.617171-4.302663-5.149644-5.869578-10.172242-6.547163-17.125955-2.312258-48.726816-0.787692-67.191001-0.059288-21.564136 0.855451-44.652837 3.023722-66.886087 4.175616-9.384549 0.491249-26.925525 10.477155-33.38799 0.313383-4.217965-6.640331-5.107295-25.282382-20.751034-21.022068-13.094326 3.56579-2.727279 24.765724-2.193681 31.422994 1.041787 13.085856-0.677585 26.485095 0.177866 39.554012l10.333168 3.286286 14.169992-10.002845 0.508188-14.102234z" fill="#F8F0DD" p-id="1757"></path><path d="M921.938792 589.947659c38.673151 3.074541 71.180281 50.369959 71.070174 87.789578-0.093168 28.93287-23.037883 84.901373-39.816576 108.769297-2.041224 2.905145-5.666303 3.430273-6.166021 4.099388-1.380579-8.283474-11.256377 4.632986-12.577668 6.23378-3.870703 4.666865-11.747626 17.473218-15.000033 18.438776-35.412275-2.151332-63.887775 12.306634-99.825178 8.681555-35.784946-3.608139-71.087113-25.138395-91.956724-54.359239-26.27335-36.792854-21.047477-87.213631-14.745939-129.477982-8.834012-0.863921-18.887676 1.270471-27.442183 0.084698-5.615484-0.779222-5.640893-4.184086-5.996626-4.268784 29.076857 3.015252 52.580579-2.879735 79.429876-12.543788 4.243375 14.110703-13.585575 19.311166-16.134987 27.755567-10.206121 33.811481-3.845294 82.021638 18.404896 110.014359 14.898395 18.743689 43.340017 30.72847 66.79292 33.515037 18.116923 2.151332 38.461406-7.224748 57.755633-4.751564 56.442812-20.632457 67.047014-84.859024 51.013664-137.431133-8.291944-27.196559-23.918743-41.688404-44.051481-60.457502l29.254723-2.083573z" fill="#F9E4CE" p-id="1758"></path><path d="M110.937568 589.947659l25.079107 2.083573c-4.929429 6.479404-12.45062 5.810289-18.997783 10.26541-5.031067 3.421803-18.548883 18.24397-22.233251 23.757816-27.891084 41.713813-28.195997 77.964599-6.911365 122.812242 20.700215 43.61952 68.300546 50.090455 113.11431 46.092704 71.281919-6.360827 109.785674-96.60665 70.960066-154.92129l10.383987-8.291944c22.292539 7.046882 47.896774 3.226998 71.070173 4.184086-0.338792 0.135517-0.220215 3.57426-5.988155 4.294194-9.875798 1.236592-21.470968-1.075666-31.64321-0.127047l4.090919 56.366584c-5.437618 22.402647-8.410521 63.438875-25.85833 80.725757-1.880298 1.863358-6.801257 1.973466-9.638643 4.86167-7.656708 7.792225-19.014723 21.775881-27.205029 27.264318-22.902366 15.330356-71.197221 17.35464-98.046518 14.635831-17.879768-1.812539-41.586766-17.659553-56.52751 0.093168-4.89555-5.302101-12.831762-9.621704-18.633582-16.90574-23.867924-29.991596-55.367146-99.774359-52.436592-137.769926 2.955964-38.368238 39.833515-77.600397 79.429876-79.429876z" fill="#F9E5CF" p-id="1759"></path><path d="M173.63957 589.947659l2.600231 3.718247 9.943557 0.457369c28.975219 11.180149 68.57158 28.907461 96.149281 37.622895l-10.383987 8.291944c38.825608 58.31464 0.321853 148.560463-70.960066 154.92129-44.813763 3.99775-92.414094-2.481654-113.11431-46.092704-21.284632-44.847643-20.979719-81.098428 6.911365-122.812242 3.684367-5.513846 17.202184-20.327543 22.233251-23.757816 6.547163-4.46359 14.068354-3.786005 18.997783-10.26541l-25.079107-2.083573v-2.176741c20.327543-4.997188 42.162713-1.092605 62.710472 2.176741z m84.079801 101.248106c0-43.64493-35.378395-79.031795-79.031794-79.031795s-79.031795 35.378395-79.031795 79.031795 35.378395 79.031795 79.031795 79.031795 79.031795-35.378395 79.031794-79.031795z" fill="#F9D8BE" p-id="1760"></path><path d="M800.710405 606.667064c-1.516096 13.678743 3.735186 7.58048 11.425774 5.158114 17.532506-5.513846 28.9244-12.00172 48.388023-8.520629 18.743689 3.354045 39.672589 18.633581 48.125459 35.471563 8.215715 16.363672 16.507659 60.618428 12.628486 78.015418-0.931679 4.167146-14.491844 33.201654-16.821042 35.420745-1.304351 1.245062-29.491878 14.762878-32.464781 15.626799-13.483937 3.904582-38.232721 4.675335-51.809826 1.211182-5.166584-1.32129-32.227626-13.856609-35.319107-16.939619-0.694524-0.686055-10.350108-14.381737-11.239437-15.948652-5.183524-9.113515-13.111266-30.576013-13.890488-40.392523-0.220215-2.752688 3.11689-27.721687 4.023159-31.998941 2.075103-9.80804 14.313978-25.612705 15.863954-38.486815l-8.173366-6.081324c8.825542-3.354045 19.57373-8.690025 29.263192-12.543788z m19.404334 29.864549c-3.015252 0.87239-19.548321 13.009628-21.496377 16.126518-1.685492 2.701869-9.486187 25.129926-9.723341 27.874144-0.516658 6.072854 6.081323 19.15024 4.124797 27.865674 11.349545 41.341141 93.659156 44.695186 99.638842 0.677584 3.345575-24.587858 2.159801-49.285823-18.71828-64.878742-12.433681-9.282911-39.282978-11.883143-53.83411-7.673648z" fill="#F9CEB1" p-id="1761"></path><path d="M921.938792 589.947659l-29.254723 2.083573c20.132738 18.769098 35.759537 33.260943 44.051481 60.457502 16.03335 52.572109 5.429148 116.798677-51.013664 137.431134-19.294227-2.473184-39.63871 6.902895-57.755633 4.751563-23.444433-2.786567-51.886055-14.762878-66.79292-33.515037-22.25019-27.992721-28.611017-76.211348-18.404896-110.014359 2.549413-8.4444 20.386832-13.644864 16.134987-27.755567 3.972341-1.431398 8.071729-2.481654 12.543789-4.184086l8.173366 6.081324c-1.549975 12.865641-13.78885 28.678776-15.863954 38.486815-0.90627 4.268784-4.243375 29.237783-4.023159 31.998941 0.779222 9.80804 8.706964 31.270538 13.890488 40.392523 0.88933 1.566915 10.544913 15.262597 11.239437 15.948652 3.083011 3.083011 30.144053 15.618329 35.319107 16.939619 13.577105 3.464152 38.325889 2.6934 51.809826-1.211182 2.981373-0.863921 31.16043-14.381737 32.464781-15.626799 2.329198-2.21909 15.889363-31.253598 16.821042-35.420745 3.879173-17.396989-4.412771-61.651745-12.628486-78.015418-8.45287-16.837982-29.38177-32.117519-48.125459-35.471563-19.463623-3.481092-30.855517 3.006782-48.388023 8.520629-7.699057 2.422366-12.941869 8.520629-11.425774-5.158114 11.917022-4.734624 20.556228-8.757783 33.447279-12.543789l9.943557-0.457369 2.600231-3.718247c2.727279-0.254094 5.717122 0.381141 8.359703 0 7.199338-1.041787 15.804665-4.116328 16.719404-4.184086 15.770786-1.126485 35.005724-0.855451 50.166683 2.007345v2.176741z" fill="#F9D7BE" p-id="1762"></path><path d="M871.772109 585.763573c-0.914739 0.067758-9.528536 3.142299-16.719404 4.184086l2.532473-3.726716 14.186931-0.45737zM846.693002 589.947659l-2.600231 3.718247-9.943557 0.457369c2.540943-0.745343 3.074541-3.303226 12.543788-4.184086z" fill="#F9CEB1" p-id="1763"></path><path d="M186.183358 594.131745l-9.943557-0.457369-2.600231-3.718247c8.698495 1.389049 8.114078 2.473184 12.543788 4.184086z" fill="#F9C9AB" p-id="1764"></path><path d="M450.432953 607.556394c6.860546-6.792787 37.021538-16.304384 47.295418-17.507097 24.757254-2.888205 67.597552 4.133267 80.818924 27.670868 18.989313 33.794541-29.81373 65.276824-60.118709 68.309016-31.033383 3.09995-82.919438-24.697965-77.337833-60.635368 0.398081-2.549413 7.910802-16.414491 9.3422-17.837419z" fill="#52322A" p-id="1765"></path><path d="M420.314309 794.798478l-0.508188 14.102233-14.169992 10.002846-10.333168-3.286287c-0.855451-13.068916 0.863921-26.468156-0.177866-39.554011-0.533598-6.65727-10.900645-27.857204 2.193681-31.422994 15.652208-4.260314 16.533069 14.381737 20.751034 21.022068 6.462465 10.163772 24.003441 0.177866 33.38799-0.313383 22.233251-1.160364 45.321952-3.320165 66.886088-4.175617 18.464185-0.728404 50.073515-2.261439 67.191 0.059289 5.022597 0.677585 7.55507 2.252969 10.172242 6.547163l-1.812539 14.601952-4.658396 3.701307c-23.537601 1.668553-47.371646-0.923209-70.892307 0.177866-24.240596 1.126485-55.129992 4.844731-79.319769 8.46134-6.123672 0.914739-12.577667-0.347262-18.718279 0.084698z" fill="#53342A" p-id="1766"></path><path d="M257.719371 691.195765c0 43.64493-35.378395 79.031795-79.031794 79.031795s-79.031795-35.378395-79.031795-79.031795 35.378395-79.031795 79.031795-79.031795 79.031795 35.378395 79.031794 79.031795z m-85.45191-50.336079c-3.752126 0.313383-17.134425 5.80182-21.081357 8.147957-31.846485 18.938495-24.02885 74.381869 9.706402 85.375682 57.992787 18.887676 91.406187-53.300513 46.075765-83.70713-6.23378-4.184086-28.04354-10.367047-34.70928-9.816509z" fill="#F9C9AB" p-id="1767"></path><path d="M820.114739 636.531613c14.551133-4.209495 41.40043-1.609264 53.834111 7.673648 20.878081 15.59292 22.063854 40.290885 18.71828 64.878742-5.979686 44.017601-88.297767 40.663557-99.638842-0.677584 1.956526-8.723904-4.649926-21.792821-4.124798-27.865675 0.237155-2.744218 8.037849-25.180744 9.723342-27.874144 1.948056-3.12536 18.481125-15.254127 21.496377-16.126517z" fill="#FABE9D" p-id="1768"></path><path d="M172.267461 640.859686c6.66574-0.550538 28.4755 5.632423 34.70928 9.816509 45.321952 30.398147 11.917022 102.586336-46.075765 83.70713-33.743722-10.985343-41.561356-66.437188-9.706402-85.375682 3.946931-2.346137 17.329231-7.834574 21.081357-8.147957z" fill="#FABC9B" p-id="1769"></path></svg>