<?xml version="1.0" standalone="no"?><!DOCTYPE svg PUBLIC "-//W3C//DTD SVG 1.1//EN" "http://www.w3.org/Graphics/SVG/1.1/DTD/svg11.dtd"><svg t="1772951654216" class="icon" viewBox="0 0 1024 1024" version="1.1" xmlns="http://www.w3.org/2000/svg" p-id="2997" xmlns:xlink="http://www.w3.org/1999/xlink" width="200" height="200"><path d="M844.651778 984.598445c-7.859983-4.260314-5.496907-5.395269-7.859983-11.459653-9.918147-25.434839-14.601952-53.393681-13.3823-80.590239 2.473184-7.538131 7.809165-19.209529 9.892738-27.281258 5.937337-23.054822 12.492969-45.923309-2.744218-66.606584-3.159239-4.294194-21.064417-19.760066-24.850422-15.855484 1.058726 17.490157 19.074012 41.341141-5.115765 49.480629-16.47378-10.782068-3.074541-35.039603-19.556791-47.812076-6.166022-4.937899-39.079702 5.530786-39.037353 10.714309 11.984781 9.011878 22.309479 45.804731 5.098826 51.259289-12.213466 3.870703-15.14402-34.090984-19.285757-42.408337-25.511067 18.277849-42.73866 45.474409-49.497569 76.185938-1.067196 4.861671 0.601356 10.875236-0.050818 15.855484-0.042349 0.313383-3.243937 0.90627-3.59967 5.107295-1.77866 20.844202 3.243937 56.696907 7.267097 77.95613 2.388486 12.662366 7.715997 24.774194 10.494095 37.301042-2.058164 7.368734-9.223623 8.681555-15.567511 6.733498-12.137237-3.735186-12.586137-31.389115-16.304384-42.145773-7.072291 2.922084-15.609859 5.573135-23.12258 6.970654-67.462035 12.577667-136.787428 13.661803-205.130323 7.131579l-76.10971-14.017535c-3.786005 8.800132-2.871266 28.50091-10.511034 33.735252-6.089793 4.167146-16.109578 2.108983-17.879769-5.488436 9.232093-39.469313 16.236625-75.931844 14.161522-116.824086-1.753251-34.641522-21.242283-79.158842-53.088767-95.581803l-8.706965 35.547791-15.991001 3.311696c-7.224748-8.071729 1.524566-40.49416 10.511034-47.710439-7.428023-7.444963-26.959404-15.016973-36.902961-12.128767-7.317916 2.125922-13.577105 37.080827-12.645426 45.770852-29.305542 2.193681-19.489032-23.664648-14.161522-42.484566-26.891646 5.742531-34.649992 29.500347-31.770256 54.78273 1.846419 16.202746 12.382862 34.777039 14.076824 51.420215 3.032192 29.805261-2.295318 66.233912-17.701903 92.041422-7.792225-3.464152-15.12708-0.355732-16.668585-12.357452 7.809165-23.884864 16.00794-48.430372 12.687775-73.93297-24.079669-25.011348-48.675997-48.455782-66.267792-78.879338-43.077452-74.500447-39.062763-168.74402-16.583887-249.122514 7.758346-27.755567 30.474376-72.865773 33.667493-97.309645 3.760596-28.788883-1.78713-65.547858-0.093167-95.674971 2.532473-45.084797 13.001158-108.718478 29.229313-151.313151 20.708685-54.33383 49.4044-80.929032 109.040331-57.45072 43.678809 17.193714 87.662531 52.021572 122.507328 82.80086 11.103921 3.294756 33.354111-5.056476 45.660745-6.564102 59.635931-7.309446 124.861935-4.480529 183.947328 3.54038 7.394144 1.007907 17.295352 4.45512 24.977469 6.149082 36.149148-32.337734 79.844897-68.224318 125.497171-85.92622 72.027262-27.924963 101.49373 25.765161 118.738263 86.688503 9.249032 32.659586 17.015848 78.430438 19.302697 111.682912 2.380017 34.72622-4.124797 76.372275 0.127047 109.607808 2.608701 20.386832 23.808635 62.024417 30.948685 85.875401 28.467031 95.124433 31.228189 197.075533-29.39871 280.426931-16.837982 23.14799-38.817138 41.231034-57.806452 62.549545-0.838511 25.096046 5.463027 50.361489 13.865079 73.958379-0.931679 9.765691-8.402051 9.740281-14.313978 12.332043zM97.690786 712.006088c-1.245062 11.637519 1.566915 21.674243 4.395831 32.769694 7.385674 28.95828 28.399272 70.892308 48.625178 92.973101 3.243937 3.54038 5.285161 6.352357 10.69737 5.225873-6.877486-14.364797-3.11689-42.509975 3.54038-56.629148 2.879735-6.098263 15.016973-17.396989 21.242283-21.242283 6.428586-3.963871 16.363672-8.156427 23.690058-9.943557 21.733532-5.310571 43.780447-1.837949 64.810984 6.403177 10.206121 3.99775 27.17962 14.110703 35.403805 21.242282 26.442746 22.927775 50.344549 65.530918 53.258164 100.739918 1.863358 22.504285 0.660645 50.869677-3.701307 72.730256l86.80708 17.625674c45.000099 4.88708 89.348023 3.743656 134.382002 0l76.177469-14.119173c-2.608701-19.336576-5.208933-38.825608-3.684368-58.534855 2.803507-36.233846 24.909711-87.933565 53.258164-111.361059 11.942432-9.867328 34.446716-21.276162 49.565327-24.782663 25.062167-5.80182 55.240099-7.317916 77.879901 7.080761 14.059884 8.935649 15.288007 19.726187 24.782663 31.863424 2.346137 16.821042 5.225873 29.085327 0 46.024947 33.862299-32.464781 58.653433-79.23507 67.174061-125.776675 0.940149-5.115765-0.550538-10.782068 0.076229-15.821605 0.042349-0.313383 3.243937-0.90627 3.599669-5.107295 3.514971-41.713813-4.658395-89.364963-15.889363-129.511861-7.758346-27.755567-30.474376-72.865773-33.667494-97.309645-3.760596-28.788883 1.78713-65.547858 0.093168-95.674971-2.524003-44.940811-17.964467-149.051712-46.109645-183.998147-21.623424-26.857767-44.53426-23.427494-73.399371-9.545476-30.406617 14.618892-68.58005 42.831828-94.887279 64.412904-4.954839 4.065509-13.416179 15.940182-18.057634 17.320761-11.696807 3.472622-29.932308-4.88708-42.120364-6.564103-73.949909-10.172242-149.907163-10.045194-223.035501 7.14852l-5.31904-1.770191c-32.659586-27.374425-67.072423-55.545012-104.890124-75.703159-11.747626-6.259189-40.036791-19.260347-52.453532-18.421837-22.732969 1.541505-39.884334 33.489628-47.134491 52.275666-17.219123 44.618958-26.434276 114.926849-29.009099 162.154508-1.507626 27.62005 3.54038 62.541075-0.067758 88.433284-2.151332 15.389644-18.625112 47.278478-24.05426 64.446782-16.397552 51.801356-25.976907 96.928503-25.494127 151.491018 0.050819 5.818759-2.608701 16.524599 3.53191 19.480562z" fill="#4E2C23" p-id="2998"></path><path d="M341.960099 892.557022c2.075103 40.883772-4.929429 77.354773-14.161522 116.824086-33.464218 6.479404-73.085988 6.343888-105.135748-6.377766-16.583888-6.581042-30.830108-18.26091-47.083673-25.485658 15.406584-25.80751 20.734094-62.236162 17.701903-92.041423 22.995533 1.236592 46.465376 2.828916 68.876493 7.233218l79.802547-0.152457z" fill="#F7C17C" p-id="2999"></path><path d="M823.409495 892.557022c-1.219653 27.196559 3.464152 55.155401 13.3823 80.59024 2.363077 6.064384 0 7.190868 7.859983 11.459653-30.533664 13.36536-53.537667 32.524069-90.118776 35.556261-9.265972 0.770753-59.000695 1.304351-62.100645-3.692837-2.778098-12.526849-8.097138-24.638677-10.494094-37.301042-4.01469-21.267692-9.045757-57.120397-7.267097-77.956129 0.355732-4.201026 3.55732-4.802382 3.599669-5.107295v7.080761c12.298164-0.575947 24.892771 0.796162 37.216344 0.042349 3.845294-0.237155 6.572572-3.58273 7.038412-3.58273h53.097238c0.415021 0 3.184648-3.252407 7.038412-3.582729 13.704152-1.168834 26.747659 0.87239 40.756724-3.498032z" fill="#F6C17E" p-id="3000"></path><path d="M387.976576 113.749545c-9.613234 1.736311-19.15024-5.666303-17.312291-15.398114 2.058164-10.892175 16.101108-19.954872 25.477187-24.249065 53.85952-24.638677 157.826435-23.850984 214.972242-8.258065 70.375649 19.209529 62.134524 62.286981-2.735749 82.428189-74.085426 22.995533-205.630041 27.61158-278.021505 0.093168-27.323606-10.392457-57.162746-34.472126-34.480596-64.794045 27.831795-37.207874 97.199537-48.015352 139.955137-58.467097 9.587825-0.287974 12.882581 13.162084 3.11689 17.456278-30.491315 2.185211-116.790207 26.146303-130.697635 53.376741-9.884268 19.353515 15.406584 31.558511 30.127114 37.317982 63.921654 24.994409 229.142233 22.021505 290.184152-10.824417 7.792225-4.192556 14.034475-9.215153 17.481687-17.591795-10.604202-13.602514-31.465343-22.029975-48.09158-25.841389-50.268321-11.518941-140.615782-11.307196-188.775119 8.139487-12.814822 5.175054-24.122018 10.782068-21.199934 26.612142z" fill="#522C23" p-id="3001"></path><path d="M618.346931 14.347858C610.910438-0.279504 622.40397-0.635236 634.160066 0.313383c29.491878 2.371547 91.075864 26.239471 114.748983 44.542729 34.751629 26.866237 41.044698 64.006352 5.530786 93.726915-72.738726 60.847113-251.798974 71.002415-343.383028 63.582862-14.330918-1.160364-50.132804-6.69962-63.015384-11.324135-19.048602-6.843606-16.795633-18.303259 2.896675-17.092077 16.084169 0.990968 36.394773 8.613797 53.046418 10.71431 62.507196 7.893863 126.293333 2.447775 187.665575-6.894425 49.692374-7.56354 132.815087-23.046352 164.576873-65.530918 21.064417-28.179057-11.358015-52.199438-34.26038-65.01426-30.787758-17.236063-69.139057-25.917618-103.611183-32.676526z" fill="#542E25" p-id="3002"></path><path d="M387.985045 14.601952c-31.931183 7.013002-64.751696 13.602514-94.523076 27.62005-10.265409 4.836261-29.203904 15.491282-36.606518 23.57995-6.140612 6.708089-11.298726 28.9244-15.804665 30.228751-12.357452 3.591199-10.002845-22.131613-3.430273-31.761787 18.345608-26.866237 56.391993-42.349049 86.536046-51.521852C336.370025 9.028817 360.475103 1.78713 372.112622 0.491249c4.175616-0.46584 8.935649-1.016377 12.433681 1.634673l3.438742 12.4845z" fill="#573328" p-id="3003"></path><path d="M536.655616 39.384615V25.231563c48.98091-1.32129 104.6445 6.487874 147.611845 31.1689 6.818197 3.913052 21.445558 10.69737 18.769098 20.149678-0.990968 3.514971-7.826104 6.970653-11.99325 4.937899C648.23689 48.311795 589.02445 41.544417 536.647146 39.384615z" fill="#573227" p-id="3004"></path><path d="M489.622763 86.163375c24.172837-3.354045 74.229413-6.445525 85.629776 18.760628l-11.688337 8.639206c-14.390207-13.517816-37.800761-15.516691-56.917122-13.915897-15.508222 1.295881-31.422994 3.98928-41.366551 15.271067-12.958809 14.70359-23.291977-2.041224-13.721091-13.721092 5.666303-6.902895 28.890521-13.763441 38.063325-15.033912z" fill="#553027" p-id="3005"></path><path d="M258.862796 1.151894c2.007345 0.127047 9.731811 7.792225 8.749313 11.671398-27.467593 15.770786-46.177403 23.368205-58.568734 54.731911-2.68493 6.801257-0.601356 21.716592-14.000596 17.845889-8.842481-2.557883-2.481654-22.809198-0.152456-28.458561 6.767378-16.406022 32.998379-42.349049 48.930091-50.183623 2.439305-1.202713 14.136112-5.657833 15.033912-5.607014z" fill="#533125" p-id="3006"></path><path d="M789.80976 32.303854c36.852142 13.043507 47.066733 74.33952 17.676493 99.113714l-8.571447-11.891613c11.713747-18.227031 14.195401-37.580546 2.811976-56.671497-6.140612-10.307758-26.756129-18.25244-11.908552-30.550604z" fill="#522F26" p-id="3007"></path><path d="M926.07206 708.465707c-10.638081-32.185277-35.048073-60.593019-70.79914-63.718379-4.802382-5.76794-19.785476-4.251844-26.70531-3.692837-6.166022 0.499719-11.103921 3.12536-17.405459 3.845294-6.360827 0.728404-14.745939 2.6934-12.526849-7.224748 7.233218-26.832357-1.753251-45.025509-7.10617-70.833019l-3.514972 3.56579-3.481091-1.812539c-0.254094-7.190868-3.938462-14.720529-7.622829-20.708685-18.565823-30.152523-59.856146-49.251944-95.099024-44.737535 37.216344-57.459189-23.520662-88.331646-70.714442-54.78273-24.723375 17.574855-30.457436 56.307295-0.160926 70.773731 3.701307 1.77019 14.23775 5.590074 17.769661 5.242812-4.556758 6.24225-4.556758 11.459653 0 17.701902-18.506534 7.326385-35.352986 56.400463-35.429215 75.982664l10.646551 40.841422c-11.019222-5.048007-18.176212-12.865641-29.38177-18.396427-42.992754-21.216873-101.256576-19.624549-140.446385 9.630174-7.766816 5.80182-13.145145 16.90574-23.088702 19.395865l11.747627-23.656179c-0.999438-7.300976 3.54038-14.68665 4.090918-20.674806 2.193681-23.884864-12.89952-71.646121-35.310637-83.122713 4.556758-6.24225 4.556758-11.459653 0-17.701902 11.620579 1.77019 32.566419-9.33373 38.444466-19.963342 27.636989-49.971878-62.76976-98.85962-93.218726-54.274541-13.754971 20.132738-1.516096 40.604268 12.289694 56.53598-22.868486-5.34445-44.263226-3.404864-66.183093 6.386237-21.792821 9.731811-34.768569 27.213499-47.100613 46.719471-2.964433 4.692275-6.394706 7.775285-8.90177 14.110703-9.206683 23.207279-11.273317 51.039074-1.719371 74.390339-8.630736-3.066071-20.962779-6.411646-29.940777-7.233218-6.784318-0.626766-21.979156-2.024285-26.705311 3.692837-33.938528-1.211183-67.318048 34.72622-70.799139 67.25876-6.140612-2.955964-3.481092-13.661803-3.531911-19.480563-0.474309-54.554045 9.096576-99.689661 25.494127-151.491017 5.437618-17.168304 21.902928-49.057138 24.05426-64.446783 3.616609-25.892208-1.431398-60.804764 0.067758-88.433283 2.574822-47.227659 11.798445-117.53555 29.009099-162.154508 7.250157-18.786038 24.401522-50.73416 47.134491-52.275666 12.416741-0.838511 40.705906 12.154177 52.453532 18.421836 37.817701 20.158147 72.230538 48.328734 104.890124 75.70316l5.319041 1.77019c73.136807-17.193714 149.085591-17.320761 223.0355-7.148519 12.188056 1.677022 30.423557 10.036725 42.120364 6.564102 4.641456-1.380579 13.111266-13.263722 18.057634-17.320761 26.307229-21.581075 64.489132-49.802481 94.887279-64.412903 28.865112-13.873548 51.775947-17.303821 73.399372 9.545476 28.145178 34.946435 43.585641 139.057337 46.109644 183.998147 1.693962 30.127113-3.853763 66.886088-0.093168 95.674971 3.193118 24.443871 25.909148 69.562548 33.667494 97.309644 11.230968 40.146898 19.404334 87.798048 15.889363 129.511861-0.355732 4.201026-3.55732 4.793912-3.599669 5.107296zM196.812969 386.316493c12.382862 0.271034 15.991001-14.906865 22.868487-21.38627 7.809165-7.360265 21.767411-19.378925 30.389677-26.25641 19.887113-15.880893 42.645492-28.212936 63.557453-42.628552-17.693433-21.691183-77.998478-93.286485-102.001919-45.372771-8.215715 16.397552-9.105045 38.402117-11.214028 56.053201-0.45737 3.862233-3.599669 6.631861-3.59967 7.021472v72.56933z m630.136907-5.310571c2.795037-10.477155 0-46.084235 0-60.177998 0-0.398081-3.091481-3.159239-3.599669-7.021472-1.981935-15.177899-3.201588-34.031696-7.656708-48.98091-5.903457-19.802415-18.057634-31.422994-39.494723-26.603673-12.298164 2.761158-48.52354 37.82617-57.238975 48.955501-2.600232 3.320165-4.539818 3.12536-5.378329 8.850951-1.109545 7.58895 2.456245 4.268784 4.692275 5.945806 10.875236 8.173366 23.308916 14.483375 34.175682 22.546634 24.291414 18.023755 46.694061 38.020976 67.419686 60.034012 1.7956 3.464152 6.826667-2.608701 7.080761-3.548851z" fill="#F7C27D" p-id="3008"></path><path d="M391.516956 542.084764c22.411117 11.476592 37.504318 59.237849 35.310637 83.122713-0.550538 5.988156-5.090356 13.382299-4.090918 20.674806l-11.747626 23.656179c9.943557-2.490124 15.321886-13.594045 23.088701-19.395865 39.18981-29.263193 97.453631-30.847047 140.446386-9.630174 11.214028 5.530786 18.362548 13.34842 29.38177 18.396427l-10.646551-40.841422c0.076228-19.5822 16.93115-68.647808 35.429214-75.982664 12.188056-4.827792 23.918743-11.993251 35.276758-16.058759 76.821175-27.484533 140.514144 52.614458 95.226071 120.000265-27.188089 40.451811-102.230604 44.398743-124.175881-2.295319-11.11239-23.630769-8.808602-53.87646 9.655583-73.289264 23.681588-24.909711 75.330488-26.197122 90.982697 8.063259 8.097138 17.727312 2.947494 50.158213-15.914773 59.923904-31.245128 16.177337-65.403871-5.996625-55.18928-41.027758 7.461902-25.604235 62.905277-10.146832 33.176244 15.482812-6.504814 2.151332-10.273879-8.90177-8.842481-14.169992-21.598015-3.701307-15.753846 23.681588-1.32129 27.891084 26.806948 7.817634 44.856112-19.548321 31.389115-42.010257-18.845327-31.431464-67.622961-18.337138-72.535451 15.906303-6.725029 46.838048 47.295418 76.287577 84.859024 49.472159 40.189247-28.695715 31.431464-91.406187-14.026005-109.700976-71.917155-28.93287-139.751861 60.711596-88.61115 124.014954 57.035699 70.604334 170.141538 11.188619 162.832093-74.33105-0.499719-5.827229-5.547725-12.357452-3.455683-19.548321l3.514972-3.56579c5.35292 25.80751 14.339388 43.992192 7.10617 70.833019-4.234905 15.703027-13.272192 26.967874-24.782663 38.944185-11.256377 11.705277-26.468156 23.266567-42.484566 28.323044-2.964433 0.931679-12.857171 3.083011-16.007941 3.472622-8.147957 1.007907-27.103391-3.472622-29.712092 5.683243-7.250157 25.460248 9.858859 54.054326 20.937369 75.813267-28.348453 23.427494-50.454657 75.127213-53.258163 111.361059-1.524566 19.709247 1.075666 39.18981 3.684367 58.534855l-76.177469 14.119173c-45.025509 3.743656-89.381902 4.88708-134.382002 0l-86.80708-17.625674c4.361952-21.852109 5.564665-50.225972 3.701307-72.730257-2.913615-35.208999-26.806948-77.812142-53.258164-100.739917 1.626203-6.038974 10.544913-4.87861 13.534756-7.724467 6.369297-6.055914 19.15024-41.790041 18.464185-50.522415-0.381141-4.836261-5.031067-10.019785-3.769065-15.99947-10.917585-0.982498-22.800728 1.058726-33.574326-0.160927-3.896112-0.44043-6.310008-2.854326-8.808602-3.472622-18.625112-4.582167-44.873052-16.406022-56.637618-31.863424-0.87239-1.151894-13.526286-23.232688-14.161522-24.782664-9.553945-23.351266-7.487312-51.174591 1.719372-74.390339 2.515533-6.335418 5.937337-9.418428 8.90177-14.110703-4.43818 24.342233-7.148519 50.810389 1.719371 74.390339 27.15421 72.247477 136.033615 85.841522 166.482581 10.612672 25.799041-63.735318-36.93684-128.461605-101.06177-104.60215-44.746005 16.651646-53.707064 81.420281-13.949777 109.777204 21.233813 15.13555 59.788387 13.153615 75.923375-8.859421 17.524036-23.893333 11.654458-63.862366-19.201059-72.645559-30.448966-8.664615-60.677717 20.522349-44.390273 47.930654 8.766253 14.737469 26.205591 12.653896 40.172308 6.597982l3.99775-24.240596-8.791663-3.54885-10.638081 17.668023c-16.668586 0.948619-13.653333-13.179024-8.317353-24.249065 38.486816-18.150802 56.56139 28.695715 24.172837 50.72569-42.831828 29.136146-88.119901-44.94928-42.29823-77.693565 32.634177-23.317386 77.46488-2.312258 90.313582 33.4134 4.810852 13.382299 5.200463 26.502035 1.007907 40.197717-4.522878 14.771348-19.616079 30.940215-33.726782 37.080827-23.1734 10.087543-44.54273 8.664615-67.292639-2.049694-25.680463-12.094888-46.245161-48.743755-43.424715-76.787295 4.870141-48.430372 44.96622-78.769231 92.998512-71.908685 12.586137 1.7956 39.816576 14.203871 52.08086 20.48847z m162.840563 173.478644c10.197651-0.245624 21.513317-21.064417 21.513316-30.110174-0.025409-40.934591-80.522481-43.500943-107.74445-26.061605-30.347328 19.446683-15.56751 43.094392 4.819322 63.22713-28.145178 6.098263-46.838048 46.473846-49.480628 72.662498-3.735186 37.046948 15.415054 84.189909 46.033416 106.033549 37.436559 26.70531 88.018263 11.57823 112.707758-25.180745 30.923275-46.050356 25.290852-109.014921-15.372705-146.493829-4.802382-4.421241-14.364797-5.124235-12.46756-14.076824z" fill="#F9EFDC" p-id="3009"></path><path d="M678.262366 896.097403c0.660645-4.971778-1.016377-10.993813 0.050818-15.855484 6.758908-30.71153 23.986501-57.908089 49.497569-76.185939 4.133267 8.317353 7.072291 46.279041 19.285757 42.408338 17.210653-5.454557 6.885955-42.247411-5.098826-51.259289-0.042349-5.183524 32.871332-15.660678 39.037353-10.714309 16.48225 12.772473 3.083011 37.030008 19.556791 47.812076 24.198246-8.139487 6.182961-31.990471 5.115765-49.480629 3.777535-3.904582 21.682713 11.56129 24.850422 15.855484 15.228718 20.683275 8.681555 43.551762 2.744218 66.606584-2.083573 8.071729-7.419553 19.743127-9.892738 27.281257-14.009065 4.370422-27.052572 2.329198-40.756724 3.498032-3.853763 0.330323-6.623391 3.58273-7.038412 3.582729h-53.097237c-0.46584 0-3.184648 3.354045-7.038412 3.58273-12.323573 0.753813-24.91818-0.618296-37.224814-0.042349V896.105873z" fill="#F6EDDB" p-id="3010"></path><path d="M193.272589 885.476261c-1.693962-16.634706-12.230405-35.217469-14.076824-51.420215-2.879735-25.282382 4.87861-49.040199 31.770257-54.782729-5.32751 18.828387-15.14402 44.686716 14.161521 42.484566-0.931679-8.690025 5.32751-43.64493 12.645426-45.770852 9.943557-2.888205 29.474938 4.683805 36.902962 12.128767-8.994938 7.207808-17.735782 39.63871-10.511034 47.710439l15.991-3.311696 8.706965-35.547792c31.854955 16.422961 51.335517 60.940281 53.088767 95.581804l-79.802547 0.152456c-22.411117-4.404301-45.889429-5.996625-68.876493-7.233217z" fill="#F6EDDA" p-id="3011"></path><path d="M239.297535 673.070372c11.773036 15.457403 38.012506 27.281257 56.637618 31.863425-2.803507 10.595732-4.649926 21.682713-8.808602 31.905773-3.633548 8.927179-10.722779 15.609859-12.433681 24.731844-21.030538-8.241125-43.077452-11.713747-64.810984-6.403176-7.326385 1.78713-17.261472 5.979686-23.690058 9.943557-18.540414-21.742002-15.288007-42.679371-2.888205-66.615054 17.37158-11.171679 32.718875-26.620612 55.985442-25.426369z" fill="#FAB997" p-id="3012"></path><path d="M834.030637 772.192556c-22.639801-14.398677-52.826203-12.882581-77.879901-7.080761l-15.99947-21.174525c-3.667428-12.840232-10.621141-25.087577-8.783193-39.003473 16.01641-5.056476 31.228189-16.609297 42.484566-28.323044 28.771944 8.766253 51.64043 8.156427 66.708221 37.724532 8.554508 16.795633 4.539818 42.340579-6.521753 57.857271z" fill="#F9B897" p-id="3013"></path><path d="M855.27292 644.747328c35.751067 3.12536 60.169529 31.533102 70.79914 63.718379-0.635236 5.039537 0.855451 10.70584-0.076229 15.821605-8.520629 46.541605-33.303292 93.311894-67.174061 125.776675 5.217403-16.93115 2.337667-29.195434 0-46.024946-2.083573-9.426898 6.081323-6.157552 10.273879-12.730125 3.091481-4.844731 12.772473-33.116956 13.8312-39.274507 6.098263-35.61555-12.713184-78.201754-44.08536-96.16622-6.445525-3.692837-14.102233-3.311696-18.963904-9.35914l35.395335-1.761721z" fill="#F7E9D4" p-id="3014"></path><path d="M168.489926 644.747328l24.774193 1.761721c-18.726749 13.204433-40.993879 23.656179-48.803044 46.778759-9.028817 26.73072-19.844764 91.109744 20.48847 93.0578-6.65727 14.119173-10.417866 42.272821-3.54038 56.629148-5.403739 1.126485-7.444963-1.685492-10.69737-5.225873-20.225906-22.080794-41.247974-64.014822-48.625178-92.973101-2.828916-11.095451-5.640893-21.140645-4.395831-32.769694 3.481092-32.541009 36.869082-68.469942 70.79914-67.25876z" fill="#FAE7D2" p-id="3015"></path><path d="M798.626832 637.666567c-2.21062 9.926617 6.166022 7.953151 12.526849 7.224748 6.301538-0.719934 11.239438-3.345575 17.405459-3.845293 6.919835-0.559007 21.902928-2.075103 26.70531 3.692837l-35.395335 1.76172c4.861671 6.047444 12.518379 5.674773 18.963904 9.35914 31.372175 17.964467 50.175153 60.55914 44.08536 96.16622-1.050256 6.157552-10.731249 34.438246-13.8312 39.274508-4.201026 6.572572-12.357452 3.303226-10.273879 12.730124-9.494657-12.128768-10.722779-22.919305-24.782663-31.863425 11.061572-15.516691 15.076261-41.061638 6.521753-57.85727-15.067792-29.568106-37.936278-28.95828-66.708221-37.724533 11.502002-11.967841 20.547758-23.232688 24.782663-38.944185z" fill="#F9D0B4" p-id="3016"></path><path d="M225.136013 648.287709c0.635236 1.541505 13.289132 23.630769 14.161522 24.782663-23.266567-1.194243-38.613863 14.25469-55.985442 25.426369-12.399801 23.935682-15.652208 44.881522 2.888205 66.615054-6.22531 3.845294-18.362548 15.13555-21.242283 21.242283-40.333234-1.948056-29.517287-66.33555-20.48847-93.0578 7.817634-23.122581 30.076294-33.574326 48.803044-46.778759l-24.774194-1.761721c4.726154-5.717122 19.920993-4.319603 26.705311-3.692837 8.977998 0.821572 21.310041 4.167146 29.940777 7.233218z" fill="#FAD1B5" p-id="3017"></path><path d="M731.368073 704.925327c-1.837949 13.915897 5.115765 26.171712 8.783193 39.003474l15.99947 21.174524c-15.11861 3.498031-37.614425 14.906865-49.565327 24.782663-11.078511-21.758941-28.187527-50.353019-20.937369-75.813267 2.608701-9.147395 21.564136-4.675335 29.712092-5.683242 3.159239-0.389611 13.051977-2.532473 16.007941-3.472622z" fill="#FAD8BD" p-id="3018"></path><path d="M295.935153 704.925327c2.498594 0.618296 4.91249 3.032192 8.808602 3.472622 10.773598 1.219653 22.648271-0.821572 33.574326 0.160926-1.262002 5.988156 3.387924 11.171679 3.769065 15.999471 0.694524 8.732374-12.094888 44.466501-18.464185 50.522415-2.989843 2.837386-11.900083 1.677022-13.534756 7.724466-8.215715-7.12311-25.197684-17.244533-35.403805-21.242282 1.710902-9.121985 8.800132-15.804665 12.433681-24.731845 4.158677-10.22306 5.996625-21.310041 8.808602-31.905773z" fill="#FADBC0" p-id="3019"></path><path d="M788.005691 570.407808c-2.092043 7.190868 2.964433 13.721092 3.455682 19.548321 7.317916 85.519669-105.796394 144.943854-162.832093 74.33105-51.140711-63.303358 16.693995-152.956294 88.61115-124.014954 45.448999 18.286319 54.215252 81.005261 14.026005 109.700976-37.563606 26.823888-91.584053-2.634111-84.859024-49.472159 4.91249-34.243441 53.690124-47.337767 72.535451-15.906303 13.466998 22.461935-4.582167 49.827891-31.389115 42.010257-14.441026-4.209495-20.285194-31.59239 1.32129-27.891084-1.431398 5.268222 2.346137 16.329793 8.842482 14.169992 29.729032-25.621175-25.705873-41.087047-33.176245-15.482812-10.214591 35.031133 23.944152 57.205095 55.18928 41.027758 18.862266-9.765691 24.011911-42.196592 15.914773-59.923904-15.652208-34.26038-67.292639-32.972969-90.982697-8.063259-18.455715 19.412804-20.759504 49.658495-9.655583 73.289264 21.945277 46.694061 96.987792 42.74713 124.175881 2.295319 45.296543-67.385806-18.396427-147.484797-95.226071-120.000265-11.358015 4.065509-23.080232 11.230968-35.276758 16.058759-4.556758-6.24225-4.556758-11.459653 0-17.701902 4.988718-0.491249 17.972936-9.926617 24.731845-12.442151 7.013002-2.608701 21.877519-7.970091 28.373862-8.800132 35.234409-4.514409 76.533201 14.585012 95.099024 44.737535 3.684367 5.979686 7.377204 13.517816 7.622829 20.708685l3.481092 1.812539z" fill="#553127" p-id="3020"></path><path d="M349.04086 506.680959c14.813697 3.455682 33.82842 16.380612 42.484566 17.701903 4.556758 6.24225 4.556758 11.459653 0 17.701902-12.272754-6.284599-39.494723-18.69287-52.08086-20.48847-48.032291-6.860546-88.128371 23.469843-92.998511 71.908685-2.820447 28.03507 17.752721 64.683937 43.424714 76.787296 22.741439 10.714309 44.119239 12.137237 67.292639 2.049694 14.110703-6.140612 29.203904-22.301009 33.726782-37.080828 4.192556-13.704152 3.811414-26.823888-1.007907-40.197717-12.848701-35.725658-57.679404-56.730786-90.313582-33.413399-45.830141 32.744285-0.542068 106.829711 42.29823 77.693565 32.388553-22.029975 14.313978-68.876493-24.172837-50.725691-5.33598 11.061572-8.351232 25.197684 8.317353 24.249065l10.638082-17.668023 8.791662 3.548851-3.99775 24.240595c-13.966716 6.055914-31.406055 8.139487-40.172308-6.597982-16.287444-27.399835 13.941307-56.595269 44.390273-47.930653 30.855517 8.783193 36.725095 48.743755 19.201059 72.645558-16.134988 22.004566-54.689562 23.994971-75.923375 8.859421-39.765757-28.356923-30.796228-93.125558 13.949777-109.777204 64.12493-23.859454 126.860811 40.866832 101.06177 104.60215-30.448966 75.22885-139.328371 61.634806-166.482581-10.612671-8.867891-23.57995-6.157552-50.048106-1.719371-74.390339 12.332043-19.505972 25.299322-36.979189 47.100612-46.719471 21.919868-9.7911 43.314607-11.730687 66.183093-6.386237z" fill="#552F26" p-id="3021"></path><path d="M196.812969 386.316493v-72.56933c0-0.398081 3.13383-3.159239 3.59967-7.021472 2.108983-17.651084 2.998313-39.655649 11.214028-56.053201 23.994971-47.913714 84.300017 23.681588 102.001919 45.372771-20.90349 14.415616-43.670339 26.756129-63.557453 42.628552-8.613797 6.877486-22.572043 18.896146-30.389677 26.25641-6.877486 6.479404-10.485624 21.657304-22.868487 21.38627zM826.949876 381.005922c-0.254094 0.940149-5.285161 7.013002-7.080761 3.548851-20.725624-22.013036-43.128271-42.010256-67.419686-60.034012-10.875236-8.063259-23.300447-14.381737-34.175682-22.546634-2.23603-1.685492-5.810289 1.643143-4.692275-5.945806 0.838511-5.717122 2.778098-5.530786 5.378329-8.850951 8.715434-11.12933 44.940811-46.194342 57.238975-48.955501 21.445558-4.819322 33.591266 6.801257 39.494723 26.603673 4.45512 14.949214 5.683242 33.803011 7.656708 48.98091 0.508189 3.862233 3.599669 6.631861 3.599669 7.021472 0 14.093763 2.795037 49.700844 0 60.177998z" fill="#F9C8B7" p-id="3022"></path><path d="M391.516956 524.382862c-8.647676-1.32129-27.670868-14.23775-42.484566-17.701903-13.80579-15.931712-26.044665-36.403242-12.289694-56.53598 30.448966-44.585079 120.855715 4.302663 93.218727 54.274541-5.886518 10.638081-26.832357 21.742002-38.444467 19.963342z" fill="#F7EDDA" p-id="3023"></path><path d="M681.802746 503.140579c-6.487874 0.830041-21.36086 6.191431-28.373863 8.800132-6.758908 2.515533-19.734657 11.950902-24.731844 12.442151-3.531911 0.347262-14.068354-3.481092-17.769661-5.242812-30.29651-14.466435-24.562448-53.198875 0.160926-70.773731 47.19378-33.548916 107.930786-2.67646 70.714442 54.78273z" fill="#F7EDDB" p-id="3024"></path><path d="M554.357519 715.563408c-1.897237 8.952589 7.665178 9.647113 12.46756 14.076824 40.672026 37.478908 46.29598 100.451944 15.372704 146.493829-24.689495 36.758974-75.271199 51.886055-112.707758 25.180745-30.618362-21.843639-49.768602-68.9866-46.033416-106.033549 2.642581-26.188652 21.335451-66.564235 49.480628-72.662498-20.386832-20.132738-35.16665-43.780447-4.819321-63.22713 27.221969-17.439338 107.72751-14.872986 107.74445 26.061605 0 9.045757-11.307196 29.864549-21.513317 30.110174z m-50.556295 85.714475c-20.513879 2.481654-40.451811 11.823854-54.062796 27.535351l-1.185773 4.726154c21.852109 80.454723 111.598213 79.336708 130.324963-2.515534-17.862829-21.233813-47.447874-33.091547-75.076394-29.745971z" fill="#523028" p-id="3025"></path><path d="M503.801224 801.277883c27.628519-3.345575 57.213565 8.512159 75.076394 29.745971-18.726749 81.852242-108.472854 82.970256-130.324963 2.515534l1.185773-4.726154c13.610984-15.711497 33.548916-25.053697 54.062796-27.535351z" fill="#F49B83" p-id="3026"></path></svg>