<?xml version="1.0" standalone="no"?><!DOCTYPE svg PUBLIC "-//W3C//DTD SVG 1.1//EN" "http://www.w3.org/Graphics/SVG/1.1/DTD/svg11.dtd"><svg t="1772951621987" class="icon" viewBox="0 0 1024 1024" version="1.1" xmlns="http://www.w3.org/2000/svg" p-id="7961" xmlns:xlink="http://www.w3.org/1999/xlink" width="200" height="200"><path d="M126.709453 966.062557c-4.147134-1.501843-9.949709-2.585559-14.421104-3.729007-0.332795-3.97647-0.554658-8.098005 0.469326-12.040342 3.711941-14.233374 29.294468-42.427059 35.370104-58.665735-30.429383-27.809691-54.97086-61.362225-70.441547-99.710415-28.637412-71.004738-23.116433-142.495869-4.531128-215.062183 8.080938-31.547232 31.786162-78.872347 35.344505-106.170046 3.711941-28.458214-1.766372-64.681639-0.093865-94.445432 2.926887-52.206104 16.861599-146.472339 44.193431-191.672687 36.675684-60.645436 88.992719-36.786615 138.65593-9.002524 32.673614 18.27811 62.002215 42.981717 91.185751 64.852303 14.216307 0.733855 29.934458-5.691643 43.707038-7.278818 51.216253-5.89644 111.861689-5.427114 163.146208 0 10.632364 1.126382 25.812923 6.015904 36.428221 7.099621 5.828174 0.597324 11.827012 0.452259 17.629586-0.375461 40.123096-32.90401 120.770347-100.6832 174.572159-93.822509 17.228526 2.201565 35.097042 17.330925 45.481944 30.702445 29.499265 37.964197 47.154451 137.717278 50.653062 185.213057 2.449028 33.279471-4.027669 73.231903 0.136531 105.103396 3.12315 23.952686 23.0567 63.128597 30.890176 88.856188 20.206612 66.388278 29.56753 136.667695 11.71608 204.242088-13.601917 51.506381-43.894769 95.904609-82.481889 131.795239-1.587175 5.401514 32.204288 49.10002 34.661849 59.501987 0.921585 3.874072-2.235698 6.826558-2.551426 10.666498-2.099167 1.297046-5.503913-0.298662-6.809491 0.315728-12.040342 2.449028-15.829082-8.729461-21.222063-16.887198-18.593838-28.151019-35.301839-60.636903-47.726175-91.979339-3.831406-9.65958-5.077253-23.628425-10.163039-35.190907-9.983841-22.698306-29.371267-45.157682-55.150057-48.255233-1.501843 1.271446 11.562483 17.61252 12.893662 21.56339 3.720474 11.076091 3.464478 23.500427-10.948092 21.836453-3.754607-1.109316-19.233828-34.431453-30.881643-41.718803-9.608381-6.015904-29.840592 10.197171-36.359956 18.261043 9.121988 9.301186 22.809238 22.007117 27.383032 34.286388 1.86877 5.008987 3.57541 9.471849-1.945569 12.944861-17.783184 11.178489-25.266798-24.217215-38.16046-30.881642-22.271646 30.890176-9.608381 72.173786 1.817571 105.214328 11.417419 33.032008 25.744658 54.066341 41.52254 83.668003 3.131684 5.87084 7.014289 10.589698 5.648977 17.936782-1.109316 0.870386-1.459177 5.666043-5.759909 6.894824-19.822618 7.159353-22.604441-31.760562-35.984494-32.52855-8.891592-0.511992-30.01979 8.123604-40.737486 10.291037-100.538136 20.257811-203.567965 21.913252-303.09065-3.669276-8.720928-2.244231-18.175711-5.828174-26.341982-9.659579-3.805806-0.127998-20.505274 41.300677-32.187222 39.372174-4.104468-0.682656-7.517747-5.990305-9.480382-7.056955-2.090633-9.608381 1.203181-11.571016 5.452713-18.133045 19.250894-29.712594 26.111585-47.837106 38.092195-79.836598 0.204797-0.554658 4.138601-2.926887 5.546578-7.031355 10.751829-31.325369 21.819387-73.726828-0.102398-101.818115l-25.565461 32.520017c-15.547486-1.06665-19.208228-9.04519-10.632364-21.563391 6.425498-9.386517 15.393889-19.208228 23.466294-27.348899 2.193032-7.193486-24.746273-19.984749-30.881643-20.070081-15.34269-0.21333-28.040088 40.106029-39.790301 40.182828l-8.985457-5.717242c-4.078869-13.857913 19.677554-36.436754 17.996514-37.930064-29.004339 7.176419-48.630694 27.493963-59.928648 54.365003-3.848472 9.156121-5.512446 20.300477-9.01959 29.089671-16.230142 40.703353-33.561067 78.309156-61.686486 112.493145z m-39.918299-232.239509c2.406362 46.096334 36.667151 105.709253 72.566314 134.261333 6.493763-15.069627 8.737994-31.982425 14.523502-47.171517 1.937036-5.077253 8.456399-21.196463 10.88836-25.40333 4.292198-7.432415 24.916937-27.562229 32.656548-32.656548 16.57147-10.905427 38.279925-15.888814 58.059877-14.514969 5.751375 1.527442 16.57147 1.826104 21.768188 3.626609 5.725776 1.988235 16.673868 7.52628 21.768187 10.88836 11.306487 7.458015 27.929156 24.652408 34.320521 36.436755 27.929156 51.531981 5.205251 108.337478-16.699467 157.190035-1.595708 3.566877-5.392981 4.360464 0.426659 7.859075 7.202019 4.334864 29.652862 9.625447 39.03938 11.76728 64.357377 14.694166 133.177617 18.124512 198.669909 11.647815l110.752374-21.699922-20.889268-53.50315c-11.886744-41.155613-18.858367-79.077143 3.31088-118.287187 7.76521-13.721382 18.423174-27.895023 32.084824-35.045843 2.380762-1.245847 13.729915-6.971623 14.514969-7.253218 10.854228-3.916738 36.249024-8.80626 47.171517-7.253218 3.524211 5.691643 11.494217 2.824488 18.337842 5.25645 8.558797 3.046352 33.595199 17.595454 39.722036 23.773489 1.083716 1.092249 4.923655 7.705478 7.253218 10.88836 3.652209 4.974854 13.02166 18.150112 14.514969 21.768187 3.217016 7.816409 7.671345 23.398028 10.88836 32.656548 2.414895 6.963089 3.310881 15.701084 6.604695 24.319614 1.578642 4.130068-0.998384 5.725776 6.075637 4.701791 37.529004-34.235189 64.894969-86.048766 74.315619-136.147169 1.169048-6.195102-0.61439-13.533652 0.085332-19.882351 0.034133-0.315728 3.36208-0.938652 3.686342-5.239383 3.421812-44.705423-7.534814-96.928593-19.916484-140.012709-7.287351-25.360664-27.954756-66.456544-30.881643-88.864721-2.995152-22.89457 1.160515-52.257303 0.093866-76.303854-2.440495-55.107391-12.885129-135.711977-34.576518-186.774632-7.816409-18.397574-28.040088-48.946422-50.678661-47.231249-8.627063 0.648523-32.28962 9.676646-40.874017 13.84938-32.980809 16.016812-71.900724 46.514461-100.887997 69.656493-4.471396 3.566877-10.350769 12.78273-14.881897 14.130975-11.989143 3.558343-30.676846-5.008987-43.17798-6.72416-55.602316-7.645745-110.547577-9.053723-166.772816-3.626609l-61.729153 11.076091c-12.279272 0.196264-21.358594-15.982679-31.026707-23.69669-22.715372-18.133045-92.371865-65.782421-118.48345-70.211151-38.459122-6.519363-50.823726 10.214238-64.673106 42.785454-16.648269 39.150311-28.415548 104.941266-30.949908 146.864866-2.073567 34.303455 4.37753 76.13319 0.093865 108.960401-3.515677 26.973438-27.092903 72.472448-35.344505 102.543437C87.644474 612.933235 80.468055 655.087232 79.358739 695.884451l7.415349 37.94713z" fill="#502E24" p-id="7962"></path><path d="M830.681199 853.569411c12.424336 31.333902 29.132337 63.828319 47.726175 91.979339 5.392981 8.157737 9.181721 19.336226 21.222063 16.887198-39.483106 18.65357-61.959549 42.179596-110.760907 47.094718-13.832314 1.390911-43.195047-3.626609-52.530365 3.711941 1.365312-7.355616-2.525827-12.065942-5.648977-17.936781-15.769349-29.59313-30.096588-50.635995-41.52254-83.668004 6.169502 5.136985 9.028123 0.605857 14.532036-1.809038 42.316128-18.593838 83.241344-41.189745 126.991048-56.250839z" fill="#F7C27D" p-id="7963"></path><path d="M326.292415 918.89104c-11.98061 31.999491-18.832767 50.132537-38.092195 79.836598-4.249532 6.562029-7.543347 8.533198-5.452713 18.133045-13.542185-7.33855-33.236805-2.141833-48.903757-3.711941-22.20338-2.218631-56.745765-13.926179-75.791862-25.812923-11.400352-7.116687-17.80025-16.375206-31.333902-21.281795 28.12542-34.18399 45.464877-71.789792 61.686487-112.493146l137.887942 65.313096z" fill="#F8C27D" p-id="7964"></path><path d="M678.201489 91.478056l-12.287805 3.54981c-4.061802-1.06665-9.437717-15.419488-16.699468-19.779952-10.111839-6.075637-37.435138-13.328855-49.71441-15.607219-51.15652-9.488916-133.570144-11.519817-182.542165 8.268668-12.057408 4.872456-25.59106 11.408885-21.469526 26.999038 7.184952 0.836253 11.306487 6.544963 17.808784 9.412117 65.133898 28.722744 234.680004 26.171317 302.331195 4.607927 76.37212-24.345213 23.210298-55.303654-22.689773-70.151419-32.238421-10.427568-66.09815-14.566169-99.437353-20.30901-8.413733-2.141833-7.594546-15.820549-0.307195-17.61252 2.764756-0.682656 6.997222 3.242615 10.760362 3.532744 40.686287 3.114617 117.186404 17.450389 148.776303 43.536374 38.075128 31.444834 15.07816 60.722235-23.526026 74.580149-73.513498 26.401714-212.075563 25.889722-287.77356 8.106537-22.01565-5.171118-65.910419-16.887198-64.519508-44.620091 0.767988-15.359756 13.670183-25.232666 26.623576-31.521632 54.467401-26.469979 182.013108-22.305779 238.588209-1.169048 17.18586 6.416965 40.259627 16.733601 36.086893 38.168993z" fill="#533027" p-id="7965"></path><path d="M434.109368 1.597884c9.429183-0.981318 34.900779-2.756223 42.503858-0.511992 7.432415 2.193032 7.389749 10.982225-0.085332 13.900579-33.654932 4.309265-67.284264 7.091087-100.376005 15.74375-25.010803 6.544963-99.625083 30.600047-97.210189 62.539806 1.749306 23.0823 49.850941 38.16046 69.016504 43.732638 90.62256 26.333448 192.235878 25.002269 285.02587 16.298408 16.853066-1.578642 34.363187-0.691189 50.857859-6.416965 26.20545 20.419942-18.499973 18.8669-32.724814 20.923401-76.184389 10.990759-166.883748 11.229688-243.119336-0.127998-36.957279-5.503913-116.520815-22.391111-137.870876-54.450334-15.905881-23.88442-6.152436-44.824888 14.361372-61.66942 30.122188-24.720674 110.55611-45.883004 149.621089-49.961873z" fill="#543027" p-id="7966"></path><path d="M583.372063 81.204086c4.607927 10.069173 7.95294 19.848218-3.089018 26.640643-12.893662 7.935874-60.850233 6.997222-77.225439 4.693259-19.48129-2.739156-47.308048-15.991213-28.099821-37.435139 36.027161-13.900579 74.02549-10.205704 108.405744 6.101237z m-13.960312 13.960311c-1.578642-7.944407-7.876142-5.964705-12.697398-7.253218-16.042412-4.266599-34.192523-4.770058-50.849325-3.669275-6.681494 0.443726-11.630749-1.365312-16.281342 5.495379 2.29543 2.679424 9.241453 4.727392 12.740065 5.392981 15.069627 2.875688 35.822364 5.154051 50.926124 3.839939 6.263367-0.546125 10.342236-3.302348 16.161876-3.805806z" fill="#553129" p-id="7967"></path><path d="M587.52773 185.949088l3.293814 9.028123c-7.048421 12.586467-16.076545 7.483614-26.785707 9.113455-38.254325 5.819641-70.970605 3.831406-109.011601 0.0256-19.097297-1.911436-14.856297-17.85145-3.515678-18.457307 5.828174-0.307195 9.924109 3.387679 14.557635 3.78874 31.282703 2.72209 63.179796 2.53436 94.4369 0.221863 8.976924-0.665589 17.228526-6.05857 27.024637-3.720474z" fill="#5B372E" p-id="7968"></path><path d="M266.944024 19.492c7.679878-1.86877 15.172026-0.793587 15.803483 8.533197-23.406561 15.948547-46.659525 29.243269-43.46811 61.643821 0.82772 8.3796 10.768896 20.530874-5.503912 23.636957-2.568493-3.114617-7.372683-5.68311-8.567331-9.591314-4.113001-13.508052-3.771673-28.185152 1.169048-41.33481 5.819641-15.513353 24.046551-38.877249 40.566822-42.896385z" fill="#553227" p-id="7969"></path><path d="M939.539202 712.05486c-8.900125-7.449482-10.470234-22.775105-17.996514-30.992574-7.807876-8.533198-24.106284-15.34269-32.801612-23.440694l-2.389295-3.046352c-15.282957-4.488462-29.064071-4.411663-44.790755-4.215399-10.794495 0.136531-20.402876-1.211714-30.600047 3.515677l-2.056501-3.515677c5.640444-32.229888 5.094319-51.574647-10.88836-79.828065-13.141124-23.235897-26.341981-43.86917-51.830643-55.218323-15.812015-7.039888-50.840792-9.002524-67.915721-6.468163 13.473919-15.436555 28.876341-33.441602 16.306941-54.407669-17.484522-29.157937-62.28381-20.454075-85.084514-1.68104-20.496741 16.878665-24.575609 46.685125-2.047968 63.410192 6.135369 4.556728 19.839685 10.811562 27.289167 10.811562-4.667659 6.399898-4.667659 11.74168 0 18.141578-13.857913 3.652209-24.294014 23.799088-29.755261 37.375406-4.070335 10.111839-11.204089 33.962127-10.197171 44.133699 0.631457 6.348699 12.432869 40.063363 10.91396 41.863868-64.493908-54.578333-145.883548-44.338495-203.192504 14.514969l13.738448-31.606964c0.383994-11.229688 5.495379-20.283411 4.326331-31.803228-2.005301-19.814085-21.785254-65.227763-39.850033-74.47775l3.319414-12.202473-6.954556-9.574247c25.539861 2.884221 50.78106-1.365312 54.390602-30.907243 7.270284-59.476388-115.76136-85.835436-105.180195-10.828628 1.49331 10.589698 11.494217 17.373591 14.506436 27.212368-17.731985-2.628225-48.681893-0.887453-65.372828 5.392981-26.401714 9.924109-35.131175 24.294014-50.746927 45.413678-2.116233 2.858621-5.563645 3.080484-9.130521 10.837161-12.125674 26.401714-15.590152 52.726629-5.384448 79.879264-10.845694 0.204797-21.819387-0.290129-32.656548 0-24.498811 0.665589-43.084115 2.150366-63.572323 18.073313-19.984749 15.538953-28.424082 40.788685-27.144102 65.389894l-7.415349-37.94713c1.109316-40.788685 8.285735-82.942682 19.182629-122.656184 8.260135-30.070989 31.828828-75.569999 35.344505-102.543437 4.283665-32.827212-2.167432-74.656947-0.093865-108.960402 2.525827-41.915067 14.301639-107.714555 30.949908-146.864866 13.84938-32.571216 26.213983-49.31335 64.673105-42.785453 26.111585 4.42873 95.768078 52.078106 118.483451 70.21115 9.668113 7.722544 18.747435 23.901487 31.026707 23.696691l61.729152-11.076091c56.233773-5.427114 111.1705-4.019136 166.772816 3.626609 12.501135 1.715173 31.188838 10.291036 43.177981 6.72416 4.531128-1.348245 10.410501-10.555566 14.881897-14.130976 28.995806-23.142032 67.915721-53.639681 100.887996-69.656493 8.59293-4.172734 32.246954-13.200857 40.874018-13.84938 22.638574-1.70664 42.862252 28.833675 50.678661 47.23125 21.691389 51.062655 32.136023 131.667241 34.576517 186.774632 1.06665 24.038018-3.089018 53.409285-0.093865 76.303854 2.926887 22.408177 23.594292 63.495524 30.881642 88.864721 12.38167 43.084115 23.338296 95.307285 19.916484 140.012708-0.332795 4.292198-3.652209 4.915122-3.686342 5.239383zM216.0691 233.521665c-6.835091 4.317798-11.707547 10.333702-15.035495 17.61252-11.349153 24.806006-18.508506 94.368634-16.341073 121.700466 0.469326 5.922039-0.21333 8.729461 5.520979 12.612066 21.879119-16.528804 39.696436-38.092195 61.61822-54.484467 16.801866-12.5694 36.308756-21.239129 52.573032-34.559451 1.450644-5.341782-0.588791-7.15082-3.430346-10.811562-10.692097-13.781114-47.930972-48.340565-64.17818-51.933041-6.604695-1.459177-14.020044-0.878919-20.727137-0.136531z m618.238708 148.31551v-81.645636c0-0.716789-2.602625-2.073567-2.943953-4.317798-2.312497-15.368289-9.821711-60.372374-27.818225-62.898201-36.701283-5.145518-64.041649 35.199441-85.212512 59.954248 0.034133 3.57541 49.90214 33.987727 57.752682 40.071896 16.059478 12.449935 31.811761 30.472049 47.333648 43.39131 3.677808 3.054885 4.650593 6.928957 10.88836 5.444181z" fill="#F7C27F" p-id="7970"></path><path d="M380.71715 545.128446c18.06478 9.249986 37.844732 54.655131 39.850033 74.47775 1.169048 11.519817-3.942337 20.57354-4.326331 31.803228l-13.738448 31.606964c57.308956-58.853465 138.698596-69.093302 203.192504-14.514969 1.518909-1.800505-10.282503-35.515169-10.91396-41.863868-1.006917-10.171572 6.126836-34.021859 10.197171-44.133699 5.461247-13.576318 15.897347-33.723197 29.755261-37.375406 12.859529-3.387679 15.257358-6.621761 26.504112-11.596615 24.52441-10.845694 53.981009-11.972076 78.804081-1.177582 56.19964 24.439078 57.283356 110.692641 7.082554 141.506018-23.679624 14.540569-55.98631 19.046097-81.090978 5.077253-13.106992-7.295884-22.391111-19.617822-28.381416-33.305071-8.524665-19.464224-9.249986-32.767479-0.068265-52.291436 27.963289-59.467855 124.789484-46.37793 109.045733 25.582527-8.865992 40.524156-70.117286 42.435592-78.667549 3.660742-5.461247-24.754807 20.181013-43.348644 42.452658-29.75526 5.264983 9.693713 4.019136 14.839231 0.332795 24.686541l-14.156575 0.059732-1.86877-10.828628-12.80833-3.558343c-11.571016 24.908404 24.345213 45.217415 41.744403 25.428929 18.295176-20.803936 3.046352-52.957025-22.493509-57.360155-40.592422-6.988689-64.39151 39.372174-42.759854 71.764193 17.21146 25.77879 54.885528 33.057608 79.819532 14.6771 52.026907-38.365257 25.975054-113.49153-36.453821-119.754897-10.999292-1.100783-36.786615 5.555112-46.625392 11.280887-41.189745 23.961219-53.998075 77.140107-27.169702 116.973075 44.236097 65.688556 143.024927 40.583888 168.368524-30.216053 8.098005-22.638574 5.418581-42.40146 1.68104-65.449627 15.982679 28.253418 16.528804 47.598177 10.888361 79.828065-5.307649 6.015904-6.434031 14.745366-10.888361 21.768187-10.837161 17.109061-27.741426 24.993736-43.544908 36.283157-2.116233 0.307195-6.869224 2.69649-10.88836 3.626609-10.256904 2.389295-18.184244 6.357232-29.029939 7.253218-9.523049 0.793587-19.472757-0.554658-29.038471 0-1.134915 17.006663-1.25438 30.105122 14.523502 39.918299-13.66165 7.159353-24.319614 21.324461-32.084823 35.045843-22.169248 39.20151-15.206158 77.123041-3.310881 118.287187l20.889268 53.50315-110.752373 21.699921c-65.492293 6.476697-134.312532 3.046352-198.66991-11.647814-9.377984-2.141833-31.837361-7.440948-39.039379-11.76728-5.819641-3.498611-2.022368-4.292198-0.42666-7.859075 21.904719-48.852557 44.628624-105.658054 16.699468-157.190036-6.391365-11.784346-23.014034-28.987273-34.320522-36.436754 8.072405-9.002524 20.846602-16.033879 17.621054-30.275785-4.471396-19.728753-20.889268-11.605149-35.771165-13.269123-15.146426-1.698106-34.013326-6.971623-47.171517-14.514969-3.592476-2.056501-10.504366-7.824942-14.51497-10.888361-6.570562-5.01752-14.258973-10.564099-18.141578-18.141578-3.097551-6.050037-8.3796-18.721836-10.88836-25.403329-10.205704-27.152635-6.741226-53.47755 5.384448-79.879264 3.566877-7.756677 7.014289-7.97854 9.130521-10.837162-29.422466 75.73213 23.065233 156.046587 106.989233 145.089961 75.160406-9.813177 97.585649-114.31925 32.221355-151.848253-52.189037-29.960057-121.973528-1.314112-113.738993 62.949399 10.035041 78.385954 131.573376 63.102997 115.454166-10.239837-6.05857-27.587828-42.725721-41.189745-66.029884-27.297699-25.369197 15.120826-16.409339 63.000599 21.358593 57.624684 14.472303-2.056501 21.068465-23.816155 7.15082-32.733347l-14.497903 18.124512c-1.416511-4.121535-8.729461-1.996768-9.173187-5.725775-3.899671-32.784546 24.669475-33.979193 41.9236-12.492602 18.798635 60.671036-70.569545 65.159498-78.095825 12.791264-9.565715-66.627208 78.02756-79.25634 108.286279-24.840139 20.095681 36.138092 4.019136 80.74965-35.540769 93.967573-20.906334 6.980156-40.933749 4.522595-60.833166-4.846856-63.452858-29.883258-60.730768-132.503494 8.814793-152.402911 21.315928-6.101236 39.355108-3.626609 60.107845 3.652208 8.16627 2.858621 23.93562 9.770511 31.641097 13.712849z m107.825486 113.269667c-36.206358 5.085786-56.6263 37.273008-26.23105 64.60484 15.777883 14.190708 37.230342 20.257811 58.273208 18.235443 34.789847-3.345014 77.225439-44.995552 39.8415-72.796709-17.928248-13.328855-50.362933-13.064326-71.875125-10.043574z m21.631656 108.695873c-53.87861 4.787124-52.504766 110.965703 3.063418 108.456943 44.236097-1.996768 50.294667-84.487191 15.231758-102.60317-3.626609-1.86877-14.967229-6.152436-18.295176-5.853773z" fill="#F9F0DD" p-id="7971"></path><path d="M188.395939 853.569411c3.498611-8.78066 5.171118-19.93355 9.01959-29.089671 11.297954-26.879573 30.924309-47.188583 59.928648-54.365002 1.68104 1.49331-22.066849 24.072151-17.996514 37.930063l8.985457 5.717243c11.750213-0.076799 24.447611-40.396158 39.790301-40.182828 6.135369 0.085332 33.074674 12.876595 30.881643 20.070081-8.072405 8.140671-17.040796 17.962381-23.466294 27.348899-8.575864 12.518201-4.915122 20.496741 10.632364 21.56339l25.565461-32.520016c21.921785 28.082754 10.854228 70.484213 0.102398 101.818115-1.407978 4.095935-5.333249 6.476697-5.546578 7.031355l-137.887942-65.313095zM689.158115 911.629289c-11.425952-33.040542-24.080684-74.324152-1.817571-105.214328 12.893662 6.672961 20.377276 42.068665 38.16046 30.881642 5.520979-3.473011 3.814339-7.935874 1.945569-12.944861-4.573794-12.279272-18.261043-24.985203-27.383032-34.286388 6.519363-8.063872 26.751575-24.276948 36.359956-18.261043 11.647815 7.287351 27.127036 40.609488 30.881643 41.718803 14.412571 1.663974 14.660034-10.760362 10.948092-21.836453-1.331179-3.959404-14.395505-20.300477-12.893662-21.56339 25.77879 3.106084 45.166216 25.56546 55.150057 48.255233 5.085786 11.562483 6.340166 25.539861 10.163039 35.190907-43.749705 15.061094-84.674921 37.657002-126.991049 56.25084-5.503913 2.414895-8.362534 6.946023-14.532035 1.809038z" fill="#F8EFDD" p-id="7972"></path><path d="M177.516112 650.359841c-1.826104 8.874526-13.82378 11.690481-17.39919 15.26589-1.518909 1.518909-1.817571 5.674576-4.206866 8.388134-14.088309 15.999746-29.234735 32.750413-33.117341 54.390602 7.219085 26.009187 5.068719 70.177018 32.946677 83.437607 8.601463 4.095935 20.249278-3.379146 18.141578 9.079323-5.785508 15.197625-8.038272 32.10189-14.523502 47.171517-35.899163-28.55208-70.159952-88.164999-72.566314-134.261333-1.27998-24.601209 7.159353-49.850941 27.144102-65.389894 20.488208-15.922947 39.073512-17.416257 63.572323-18.073313z" fill="#F9E6D0" p-id="7973"></path><path d="M210.17266 650.359841c2.50876 6.672961 7.782276 19.353292 10.88836 25.403329l-36.385555 8.976924c-35.395704 27.732893-52.103705 93.609179 0.093865 110.76944-2.423428 4.198333-8.951324 20.326077-10.88836 25.40333 2.099167-12.458469-9.540115-4.983387-18.141578-9.079323-27.877957-13.260589-25.727591-57.428421-32.946677-83.437607 3.882605-21.631656 19.029031-38.390857 33.117341-54.390602 2.389295-2.713557 2.679424-6.860691 4.206866-8.388134 3.566877-3.57541 15.573086-6.391365 17.39919-15.26589 10.837161-0.290129 21.810853 0.204797 32.656548 0z" fill="#FAD4BA" p-id="7974"></path><path d="M888.741076 657.621592c-7.594546 1.928503 0.017066 10.768896 1.817572 14.514969 13.721382 28.535013 17.279725 56.054576 26.461446 86.014633 5.324715 13.781114-4.548194 16.554404-9.642514 25.155867-15.325623 25.872656-16.818933 32.468817-42.13693 52.291436-7.210552 5.648977-9.966775-1.689573-12.791264 3.464478-3.217016-9.25852-7.662812-24.840139-10.88836-32.656547 5.623377-8.900125-0.443726 4.326331 9.036657 3.771673 5.913506-0.341328 10.5129-2.056501 15.735216-4.42873 4.659126-12.023276 17.117595-18.926633 20.778337-31.820294 1.194648-4.1898 4.795657-23.764956 4.539661-26.725975-2.235698-26.060386-9.403584-53.528749-28.159553-73.394034-6.749759-7.15082-21.853519-10.436101-21.921785-23.440694 15.726683-0.196264 29.507798-0.273062 44.790755 4.2154l2.389296 3.046351z" fill="#FAE1CB" p-id="7975"></path><path d="M841.569559 650.359841c0.068266 13.004593 15.172026 16.289874 21.921785 23.440694 18.755969 19.865284 25.932388 47.333648 28.159553 73.394033 0.255996 2.96102-3.345014 22.536175-4.539661 26.725976-3.660742 12.893662-16.119211 19.788486-20.778337 31.820294-5.213784 2.372229-9.813177 4.087402-15.735216 4.42873-9.471849 0.546125-3.413279-12.671799-9.036657-3.771674-1.49331-3.626609-10.862761-16.793333-14.514969-21.768187l10.871294 2.039434c16.38374-7.884675 28.014488-25.420396 29.200602-43.638773 0.435193-6.732693-2.338096-25.881189-4.292198-32.28962-0.341328-1.117849-12.219539-17.066395-13.866446-18.790102-14.48937-15.146426-33.014942-12.023276-50.951724-19.814085 4.454329-7.031355 5.580711-15.752283 10.88836-21.768187l2.056501 3.515677c10.197171-4.727392 19.805552-3.379146 30.600047-3.515677z" fill="#F9D3BA" p-id="7976"></path><path d="M239.202599 693.904749c-11.92941 8.499065-21.61459 3.157283-33.979194 11.391819-13.226456 8.80626-25.437462 34.346121-15.146426 46.813122 4.906589 5.947639 22.143648 2.739156 27.348899 10.734763-7.73961 5.094319-28.364349 25.224132-32.656548 32.656548-52.19757-17.160261-35.498103-83.036547-0.093865-110.76944l36.385555-8.976924c3.882605 7.57748 11.571016 13.124058 18.141579 18.141578z" fill="#FAC4A5" p-id="7977"></path><path d="M939.539202 712.05486c-0.699722 6.348699 1.075183 13.687249-0.085331 19.882351-9.42065 50.089871-36.786615 101.91198-74.315619 136.14717-7.082554 1.023984-4.496995-0.571724-6.075637-4.701792-3.302348-8.61853-4.1898-17.356524-6.604695-24.319614 2.815955-5.145518 5.572178 2.184499 12.791263-3.464478 25.317998-19.814085 26.811307-26.410247 42.13693-52.291436 5.094319-8.601463 14.967229-11.374753 9.642514-25.155867-9.181721-29.960057-12.740064-57.47962-26.461446-86.014633-1.800505-3.746074-9.412117-12.586467-1.817571-14.514969 8.695328 8.098005 24.993736 14.907496 32.801612 23.440694 7.52628 8.217469 9.096389 23.534559 17.996514 30.992574z" fill="#F9ECD9" p-id="7978"></path><path d="M819.792839 773.741347c-6.126836-6.178035-31.154705-20.727137-39.722036-23.773489-6.843625-2.431961-14.822164 0.435193-18.337842-5.25645l-21.111131-27.220901 2.969553-5.44418c4.010603-0.938652 8.772127-3.327947 10.88836-3.626609 7.330017-1.049583 16.093611 1.04105 23.594292 0 6.493763-0.895986 10.376368-5.734309 15.086694-6.800959 8.601463-1.945569 34.704515 4.863923 41.292143 12.108608 19.071697 20.983133 1.203181 44.261697-14.6515 60.01398z" fill="#F8BB9A" p-id="7979"></path><path d="M827.05459 784.629707c-2.329563-3.17435-6.178035-9.796111-7.253218-10.88836 15.854681-15.74375 33.723197-39.022313 14.6515-60.01398-6.587629-7.244685-32.69068-14.054177-41.292143-12.108608-4.710325 1.06665-8.59293 5.904973-15.086694 6.800959-7.500681 1.032517-16.264275-1.049583-23.594292 0 15.803482-11.289421 32.707747-19.182628 43.544908-36.283157 17.936782 7.79081 36.453821 4.667659 50.951724 19.814085 1.65544 1.723706 13.525118 17.672252 13.866446 18.790102 1.954102 6.408431 4.727392 25.556927 4.292199 32.28962-1.186114 18.218377-12.825396 35.754098-29.200603 43.638773l-10.871294-2.039434z" fill="#F9C6A9" p-id="7980"></path><path d="M253.717568 704.793109c-3.251148 14.941629 13.499519 26.478513 7.210552 39.875633 7.219085-3.020752 12.78273 3.191416 14.557635 3.669275-19.779952-1.373845-41.488407 3.609543-58.059877 14.514969-5.205251-8.004139-22.44231-4.787124-27.348899-10.734762-10.291036-12.475535 1.919969-38.006863 15.146426-46.813123 12.364604-8.234536 22.049783-2.892754 33.979194-11.391819 4.010603 3.063418 10.922493 8.823326 14.514969 10.88836z" fill="#FAB997" p-id="7981"></path><path d="M300.889085 719.308078c5.273516 8.499065-0.264529 23.193231-3.626609 32.656548-5.196717-1.809038-16.016812-2.099167-21.768187-3.626609-1.774905-0.469326-7.33855-6.690027-14.557636-3.669275 6.288967-13.39712-10.4617-24.934004-7.210552-39.875633 13.166724 7.543347 32.025091 12.816863 47.171517 14.514969z" fill="#F8C9AB" p-id="7982"></path><path d="M300.889085 719.308078c14.873364 1.663974 31.299769-6.459631 35.771165 13.269123 3.225549 14.233374-9.548648 21.264729-17.621053 30.275785-5.094319-3.36208-16.042412-8.900125-21.768188-10.88836 3.370613-9.471849 8.900125-24.157483 3.626609-32.656548z" fill="#F9E1CA" p-id="7983"></path><path d="M743.591383 712.05486l-2.969553 5.44418 21.111131 27.220901c-10.931026-1.553042-36.31729 3.33648-47.171517 7.253218v-32.656547c10.845694-0.904519 18.773035-4.872456 29.029939-7.253219z" fill="#F7CBAF" p-id="7984"></path><path d="M714.561444 719.308078v32.656548c-0.785054 0.281596-12.134207 6.007371-14.514969 7.253218-15.769349-9.813177-15.658418-22.920169-14.523502-39.918299 9.565715-0.554658 19.50689 0.802121 29.038471 0z" fill="#FAE1CA" p-id="7985"></path><path d="M569.411751 95.164397c-5.819641 0.503459-9.898509 3.259682-16.161876 3.805806-15.10376 1.314112-35.856497-0.964251-50.926124-3.839939-3.498611-0.665589-10.444634-2.72209-12.740065-5.392981 4.650593-6.860691 9.599847-5.051653 16.281342-5.495379 16.656802-1.100783 34.806914-0.597324 50.849325 3.669275 4.821257 1.27998 11.110223-0.691189 12.697398 7.253218z" fill="#E0DBD1" p-id="7986"></path><path d="M340.807384 508.84529c11.664881 1.732239 24.328147 13.166724 36.283157 14.514969l6.954556 9.574248-3.319414 12.202473c-7.705478-3.942337-23.474827-10.854228-31.641097-13.712849-20.752737-7.278818-38.791917-9.753445-60.107845-3.652209-69.545561 19.90795-72.267652 122.528186-8.814793 152.402912 19.899417 9.369451 39.926832 11.835545 60.833166 4.846856 39.559905-13.217923 55.627916-57.829481 35.540769-93.967574-30.258719-54.416202-117.851994-41.787069-108.286279 24.840139 7.52628 52.376768 96.89446 47.888306 78.095825-12.791263-17.254126-21.495125-45.823272-20.300477-41.9236 12.492601 0.443726 3.729007 7.76521 1.604241 9.173187 5.725776l14.497903-18.124512c13.917645 8.917192 7.31295 30.668313-7.150819 32.733346-37.7594 5.375915-46.719258-42.503858-21.358594-57.624684 23.304163-13.892046 59.96278-0.281596 66.029884 27.2977 16.119211 73.342834-105.419125 88.625792-115.454165 10.239837-8.226003-64.263512 61.558488-92.909457 113.738992-62.9494 65.364295 37.529004 42.939051 142.035076-32.221355 151.848254-83.924 10.956626-136.411699-69.357831-106.989233-145.089961 15.615752-21.119664 24.345213-35.489569 50.746927-45.413678 16.690935-6.2719 47.640843-8.021206 65.372828-5.392981z" fill="#563128" p-id="7987"></path><path d="M798.024651 570.531776c3.737541 23.039634 6.416965 42.811053-1.68104 65.449627-25.335064 70.799942-124.123894 95.904609-168.368524 30.216053-26.828374-39.832967-14.011511-93.011855 27.169702-116.973075 9.838777-5.725776 35.626101-12.38167 46.625392-11.280887 62.428875 6.263367 88.480727 81.38964 36.453821 119.754897-24.934004 18.389041-62.608072 11.10169-79.819532-14.6771-21.631656-32.392019 2.167432-78.752882 42.759854-71.764193 25.539861 4.394597 40.788685 36.547686 22.493509 57.360155-17.407723 19.797019-53.315419-0.520525-41.744403-25.428929l12.80833 3.558343 1.86877 10.828628 14.156575-0.059732c3.677808-9.84731 4.932188-14.992828-0.332795-24.686541-22.271646-13.593384-47.905372 5.000454-42.452658 29.75526 8.550264 38.77485 69.810091 36.863414 78.667549-3.660742 15.74375-71.960456-81.082445-85.058915-109.045733-25.582527-9.181721 19.53249-8.456399 32.827212 0.068265 52.291436 5.990305 13.687249 15.274424 26.01772 28.381416 33.305071 25.104668 13.968845 57.411354 9.454783 81.090978-5.077253 50.200802-30.82191 49.117086-117.06694-7.082554-141.506018-24.831605-10.794495-54.279671-9.668113-78.804081 1.177582-11.246755 4.974854-13.644583 8.208936-26.504112 11.596615-4.667659-6.399898-4.667659-11.74168 0-18.141578 11.263821 0 30.224586-16.17041 43.544908-18.141578 17.083462-2.53436 52.103705-0.571724 67.91572 6.468163 25.488662 11.349153 38.689518 31.982425 51.830643 55.218323z" fill="#56332A" p-id="7988"></path><path d="M216.0691 233.521665c6.707093-0.733855 14.122442-1.322646 20.727137 0.136531 16.247208 3.592476 53.486083 38.151927 64.17818 51.933041 2.841555 3.660742 4.872456 5.46978 3.430346 10.811562-16.264275 13.320322-35.771165 21.990051-52.573032 34.559451-21.921785 16.400806-39.739102 37.955663-61.61822 54.484467-5.734309-3.882605-5.051653-6.681494-5.520979-12.612066-2.167432-27.340366 4.983387-96.902993 16.341073-121.700466 3.33648-7.278818 8.208936-13.303255 15.035495-17.61252z" fill="#FAC9BA" p-id="7989"></path><path d="M834.307808 381.837175c-6.237768 1.49331-7.210552-2.389295-10.88836-5.444181-15.521887-12.919261-31.27417-30.941375-47.333648-43.39131-7.850542-6.08417-57.718549-36.496487-57.752682-40.071896 21.170864-24.754807 48.511229-65.099765 85.212512-59.954248 17.987981 2.525827 25.505728 47.521378 27.818225 62.898201 0.332795 2.235698 2.943953 3.592476 2.943953 4.317798v81.645636z" fill="#F9C7B8" p-id="7990"></path><path d="M377.090541 523.360259c-11.95501-1.348245-24.618275-12.78273-36.283157-14.514969-3.012219-9.838777-13.013127-16.631202-14.506436-27.212368-10.581165-75.006808 112.45048-48.656293 105.180195 10.828628-3.609543 29.541931-28.850742 33.791463-54.390602 30.907242z" fill="#F8EEDC" p-id="7991"></path><path d="M678.278288 508.84529c-13.320322 1.979702-32.281087 18.141578-43.544908 18.141578-7.440948 0-21.153797-6.254834-27.289167-10.811562-22.519109-16.733601-18.448773-46.531527 2.047968-63.410192 22.800704-18.773035 67.608526-27.476897 85.084514 1.68104 12.5694 20.966067-2.833022 38.962581-16.306941 54.407669z" fill="#F9EFDD" p-id="7992"></path><path d="M488.542636 658.398113c21.512191-3.020752 53.946876-3.293814 71.875125 10.043574 37.383939 27.801158-5.051653 69.451696-39.8415 72.796709-21.034332 2.022368-42.495325-4.044736-58.273208-18.235443-30.39525-27.331832-9.975308-59.519054 26.23105-64.60484z" fill="#513028" p-id="7993"></path><path d="M510.174292 767.093986c3.327947-0.298662 14.668567 3.985003 18.295176 5.853773 35.071443 18.115979 29.004339 100.606401-15.231758 102.60317-55.568184 2.50876-56.942028-103.669819-3.063418-108.456943z m-3.874071 21.529257c-25.19 9.130522-17.61252 72.148187 6.314566 68.18025 23.594292-3.916738 21.990051-58.597469 6.118303-66.832004l-12.424336-1.339712z" fill="#583429" p-id="7994"></path><path d="M506.300221 788.623243l12.424336 1.339713c15.871748 8.234536 17.475989 62.915267-6.118303 66.832004-23.918553 3.97647-31.504566-59.041195-6.314566-68.18025z" fill="#F6EFE1" p-id="7995"></path></svg>