<?xml version="1.0" standalone="no"?><!DOCTYPE svg PUBLIC "-//W3C//DTD SVG 1.1//EN" "http://www.w3.org/Graphics/SVG/1.1/DTD/svg11.dtd"><svg t="1772951626632" class="icon" viewBox="0 0 1024 1024" version="1.1" xmlns="http://www.w3.org/2000/svg" p-id="8325" xmlns:xlink="http://www.w3.org/1999/xlink" width="200" height="200"><path d="M68.651042 428.526933c-3.9168 26.112-16.2048 50.158933-23.159467 75.392-14.8992 54.0672-17.7408 95.931733-17.0496 151.850667 0.093867 7.253333-2.8672 17.442133 4.010667 22.144 0.059733 38.980267 27.170133 97.0496 50.440533 128.580267 3.447467 4.667733 8.3968 6.357333 9.890134 8.174933 105.565867 128.375467 322.423467 173.909333 480.8448 157.047467 123.2384-13.115733 263.364267-59.306667 343.7312-157.047467 40.789333-49.604267 55.0144-80.213333 64.3584-144.802133 9.0368-62.481067-2.2784-120.763733-21.077334-182.050134-5.367467-17.4848-12.245333-34.389333-19.1488-51.242666 0.341333-0.1024 0.401067-3.3536 5.76-4.104534 6.058667-0.853333 15.965867-0.443733 22.4 0.085334 15.530667 48.418133 31.735467 96.4352 40.1408 146.901333 40.260267 326.459733-329.403733 447.3088-593.1264 416.145067-232.874667-27.528533-450.423467-164.983467-412.296533-428.228267 6.869333-47.453867 24.6016-92.629333 36.1216-138.845867 15.965867-1.800533 11.741867-3.208533 28.16 0z" fill="#4D2C23" p-id="8326"></path><path d="M663.944909 637.687467c3.541333 6.954667 13.2864 3.490133 20.113066 4.0192 3.626667 0.6912 12.228267 0.554667 16.085334 0l14.071466 4.002133c-7.0144 22.280533-27.2128 36.130133-21.4528 61.7216 1.3312 5.930667 7.424 12.509867 9.5488 18.5856 5.7088 16.2816 8.849067 34.952533 18.500267 49.877333 13.1584 20.352 57.9584 48.580267 82.048 50.8672 9.335467 0.887467 13.866667-3.584 20.036267-3.976533 10.538667-0.674133 21.956267 1.152 32.034133-0.145067 11.392-1.4592 24.866133-10.3936 36.334933-11.9296 6.5024-0.8704 22.0928-2.6112 26.077867 3.950934-80.375467 97.7408-220.501333 143.931733-343.7312 157.047466-158.4128 16.861867-375.278933-28.672-480.8448-157.047466l22.126933-8.174934c16.093867 10.914133 32.213333 8.968533 48.213334 12.253867 18.449067 3.7888 25.9328 10.436267 48.221866 7.893333 30.216533-3.438933 70.877867-28.654933 85.998934-54.775466 6.468267-11.170133 25.762133-61.312 24.712533-71.697067-1.9968-19.6864-16.366933-38.442667-16.093867-58.453333 1.3312 0.0768 2.688 0 4.0192 0 5.213867 0 11.118933 0.554667 16.085334 0l13.2352-0.648534 2.850133-3.370666c51.182933-10.606933 76.731733-56.482133 127.4624-67.618134 6.007467-1.322667 30.165333-5.111467 35.447467-5.12 10.154667 0 44.194133 6.5792 54.442666 10.248534 37.4784 13.405867 65.024 56.072533 104.439467 62.4896z m-97.3824-27.306667c-0.9216-0.913067-11.733333-7.0144-14.0544-8.081067-30.216533-13.883733-87.287467-14.702933-109.866667 13.184-29.124267 35.976533 32.4864 77.730133 66.286933 74.5216 27.528533-2.6112 71.466667-31.3088 66.619734-62.464-0.384-2.4576-7.611733-15.7952-8.9856-17.160533zM354.227575 722.158933c-1.732267 4.232533-3.114667 3.003733-4.0192 12.066134-0.264533 2.6112 0.008533 5.4016 0 8.046933l-3.652266 2.295467c-4.462933 8.917333 2.909867 15.300267 3.652266 17.8176 3.626667 12.219733 7.1936 28.663467 15.940267 38.357333 23.773867 26.3168 58.222933 6.459733 86.7072 1.9456 33.578667-5.316267 66.747733-5.333333 100.4032 0 34.525867 5.469867 66.619733 28.0064 92.484267-8.226133 10.222933-14.318933 9.122133-26.769067 13.380266-42.871467-3.712-16.887467-2.875733-30.6688-13.380266-45.405867-32.443733-45.508267-67.4048-16.093867-108.6464-8.2944-32.529067 6.152533-59.502933 3.950933-91.383467-4.864-20.4544-5.6576-28.996267-14.404267-53.2736-11.076266-18.594133 2.551467-31.982933 24.96-38.2208 40.2176z" fill="#FAF0DE" p-id="8327"></path><path d="M104.849442 593.442133l28.151467 2.005334c-12.168533 16.247467-43.485867 36.386133-50.423467 54.152533-12.4416 31.837867-6.101333 78.165333 8.123733 108.834133 5.905067 12.731733 13.474133 17.015467 26.171734 22.101334 22.2464 8.9088 42.871467 14.1568 65.646933 14.916266 3.2 0.1024 7.04 3.729067 12.6208 3.3024 3.882667-0.298667 7.6032-3.5072 12.381867-3.9936 2.926933-0.298667 6.024533 3.029333 10.120533 2.039467 7.355733-1.774933 49.134933-35.217067 54.084267-42.513067 3.1744-4.6848 3.473067-13.781333 9.463466-18.696533 9.565867-34.346667 0.3584-68.4032-7.3984-101.922133 8.96 4.215467 11.349333 3.140267 20.113067 4.0192l2.5088 3.584c3.140267 1.0752 6.408533 0.273067 9.557333 0.443733-0.273067 20.010667 14.097067 38.766933 16.093867 58.453333 1.0496 10.385067-18.244267 60.526933-24.712533 71.697067-15.1296 26.129067-55.790933 51.336533-85.998934 54.775467-22.289067 2.542933-29.7728-4.104533-48.221866-7.893334-16-3.285333-32.110933-1.339733-48.213334-12.253866l-22.126933 8.174933c-1.493333-1.8176-6.4512-3.5072-9.890133-8.174933-23.2704-31.530667-50.3808-89.608533-50.440534-128.580267-0.068267-41.224533 31.854933-78.472533 72.405334-84.471467z" fill="#FBE6D1" p-id="8328"></path><path d="M909.312375 593.442133c3.362133 0.8448 7.168-0.2048 12.100267 1.8432 34.184533 14.139733 49.109333 40.661333 60.305067 74.581334-9.344 64.5888-23.569067 95.197867-64.3584 144.802133-3.985067-6.570667-19.575467-4.821333-26.077867-3.950933-11.460267 1.536-24.9344 10.4704-36.334933 11.9296-10.077867 1.297067-21.495467-0.529067-32.034134 0.145066-6.1696 0.392533-10.692267 4.864-20.036266 3.976534-24.0896-2.286933-68.8896-30.523733-82.048-50.8672-9.6512-14.9248-12.8-33.595733-18.500267-49.877334-2.133333-6.075733-8.2176-12.654933-9.5488-18.5856-5.76-25.591467 14.4384-39.441067 21.4528-61.7216l-14.071467-4.002133c0.349867-0.0512 0.750933-3.191467 5.845334-4.0448 8.9344-1.501867 21.248-1.134933 30.3616-3.9936 6.877867 1.7664 0.785067 12.8256-0.324267 17.792-7.022933 31.36-11.451733 51.5584-2.850133 83.933867 13.789867 51.8912 76.672 74.146133 125.0048 58.3168 7.688533-2.517333 14.097067-7.842133 21.666133-10.504534 4.718933-1.664 11.221333-0.426667 17.595733-2.5088 13.269333-4.343467 22.6816-20.855467 27.067734-33.271466 2.9184-8.285867 8.584533-27.707733 9.088-35.5072 0.392533-6.033067-3.7632-10.427733-3.396267-15.163734 0.3584-4.573867 3.831467-9.181867 3.524267-16.887466-0.196267-4.829867-3.549867-22.801067-4.949334-27.451734-2.4064-8.0384-34.4064-43.9296-42.350933-50.158933-5.802667-4.5568-12.433067-3.362133-5.282133-12.8256 1.339733 0 2.688-0.0512 4.0192 0l2.3552 3.584 21.777066 0.4352z" fill="#FAE7D0" p-id="8329"></path><path d="M881.152375 589.422933c-7.159467 9.463467-0.529067 8.2688 5.282134 12.8256 7.944533 6.229333 39.944533 42.129067 42.350933 50.158934 1.399467 4.650667 4.753067 22.621867 4.949333 27.451733 0.3072 7.714133-3.1744 12.3136-3.524266 16.887467-0.366933 4.727467 3.7888 9.130667 3.396266 15.163733-0.503467 7.799467-6.1696 27.221333-9.088 35.5072-4.3776 12.416-13.7984 28.928-27.067733 33.271467-6.3744 2.082133-12.885333 0.8448-17.595733 2.5088-7.569067 2.670933-13.9776 7.9872-21.666134 10.504533-48.3328 15.829333-111.2064-6.4256-125.0048-58.3168-8.6016-32.375467-4.1728-52.573867 2.850134-83.933867 1.109333-4.957867 7.202133-16.0256 0.324266-17.792 52.932267-16.631467 83.1232-44.049067 144.802134-44.245333z m29.7472 102.741334c0-43.298133-35.0976-78.404267-78.404266-78.404267s-78.404267 35.0976-78.404267 78.404267 35.0976 78.404267 78.404267 78.404266 78.404267-35.0976 78.404266-78.404266z" fill="#FADAC0" p-id="8330"></path><path d="M273.783842 633.668267c7.7568 33.518933 16.955733 67.575467 7.3984 101.922133-5.9904 4.906667-6.289067 14.011733-9.463467 18.696533-4.9408 7.296-46.728533 40.738133-54.084266 42.513067-4.096 0.989867-7.1936-2.338133-10.120534-2.039467-4.770133 0.4864-8.4992 3.694933-12.381866 3.9936-5.5808 0.4352-9.4208-3.191467-12.6208-3.3024-22.775467-0.750933-43.400533-5.998933-65.646934-14.916266-12.689067-5.085867-20.266667-9.3696-26.171733-22.101334-14.216533-30.6688-20.5568-76.996267-8.123733-108.834133 6.946133-17.774933 38.254933-37.905067 50.423466-54.152533l-28.151466-2.005334c3.345067-6.9632 15.5392-3.976533 22.135466-4.010666 53.947733-0.238933 99.976533 22.2208 146.807467 44.2368z m-16.128 59.5456c0-43.997867-35.669333-79.6672-79.6672-79.6672s-79.6672 35.669333-79.6672 79.6672 35.669333 79.6672 79.6672 79.6672 79.6672-35.669333 79.6672-79.6672z" fill="#FAD8BE" p-id="8331"></path><path d="M350.208375 762.376533c0.017067-6.690133-0.0256-13.422933 0-20.113066 0.008533-2.645333-0.264533-5.435733 0-8.046934l3.584-2.500266 0.443734-9.565867c6.237867-15.2576 19.626667-37.666133 38.2208-40.2176 24.277333-3.328 32.8192 5.418667 53.2736 11.076267 31.880533 8.814933 58.8544 11.025067 91.383466 4.864 41.2416-7.799467 76.194133-37.213867 108.6464 8.2944 10.504533 14.737067 9.668267 28.5184 13.380267 45.405866-4.258133 16.1024-3.157333 28.561067-13.380267 42.871467-25.873067 36.232533-57.9584 13.696-92.484266 8.226133-33.646933-5.333333-66.824533-5.316267-100.4032 0-28.484267 4.514133-62.933333 24.3712-86.7072-1.9456-8.7552-9.693867-12.322133-26.1376-15.940267-38.357333z m277.5552-32.1792c2.1248-13.653333-11.050667-22.587733-22.0672-26.9056-22.408533 4.352-45.943467 16.529067-68.539733 18.773334-17.860267 1.774933-50.577067 1.885867-68.4544 0.256-15.872-1.442133-61.2608-20.778667-67.584-19.754667-9.4976 1.536-17.527467 12.16-18.807467 21.546667-1.220267 8.891733 1.450667 4.829867 5.9648 6.1184 3.165867 0.904533 6.749867 2.8416 9.045334 3.1488 63.778133 8.695467 144.136533 7.424 208.2304 0.7424 6.826667-0.708267 13.960533-6.1696 22.229333-3.933867z m-253.4144 20.1216c-1.792 14.574933 3.626667 30.0288 14.464 39.816534 13.738667 4.061867 53.7088-10.4448 71.8336-11.835734 24.200533-1.860267 64.503467-1.8944 88.584534 0.256 16.4864 1.476267 37.248 10.257067 52.4544 11.886934 27.255467 2.935467 25.864533-13.610667 34.0736-34.107734-6.289067-9.156267-6.766933-3.003733-10.666667-2.679466-58.555733 4.855467-116.539733 12.561067-176.512 8.900266l-74.231467-12.2368z" fill="#502F26" p-id="8332"></path><path d="M566.562509 610.3808c1.3824 1.365333 8.610133 14.702933 8.9856 17.160533 4.846933 31.163733-39.0912 59.8528-66.619734 62.464-33.809067 3.208533-95.419733-38.545067-66.286933-74.5216 22.5792-27.886933 79.650133-27.067733 109.866667-13.184 2.321067 1.066667 13.1328 7.168 14.0544 8.081067z" fill="#503129" p-id="8333"></path><path d="M350.208375 762.376533c-0.750933-2.525867-8.1152-8.9088-3.652266-17.8176l3.652266-2.295466c-0.0256 6.690133 0.017067 13.422933 0 20.113066zM350.208375 734.225067c0.904533-9.0624 2.286933-7.8336 4.0192-12.066134l-0.443733 9.565867-3.584 2.500267z" fill="#FBE6D1" p-id="8334"></path><path d="M910.899575 692.164267c0 43.298133-35.0976 78.404267-78.404266 78.404266s-78.404267-35.0976-78.404267-78.404266 35.0976-78.404267 78.404267-78.404267 78.404267 35.0976 78.404266 78.404267zM797.534242 725.333333c1.425067 1.425067 19.601067 11.741867 21.922133 12.2624 8.516267 1.92 18.0992-0.2304 27.042134 4.343467 28.936533-19.729067 48.699733-42.0864 24.4992-75.989333-18.2784-25.6-44.219733-28.356267-68.352-8.226134-14.08 11.7504-20.7104 23.296-18.013867 42.3168 0.631467 4.437333 10.197333 22.587733 12.893867 25.2928z" fill="#FAC9AB" p-id="8335"></path><path d="M257.655842 693.213867c0 43.997867-35.669333 79.6672-79.6672 79.6672s-79.6672-35.669333-79.6672-79.6672S133.990775 613.546667 177.988642 613.546667s79.6672 35.669333 79.6672 79.6672zM216.747042 654.481067c-2.5856-2.7136-21.5552-11.127467-26.205867-11.972267-27.6992-5.000533-49.655467 9.181867-60.7232 34.2272-16.699733 37.8112 19.063467 71.031467 57.489067 65.518933 21.009067-3.012267 43.886933-28.6976 42.385067-50.0992-0.238933-3.362133-11.5712-36.232533-12.945067-37.674666z" fill="#FACBAE" p-id="8336"></path><path d="M945.510775 239.479467c0.034133 8.029867-0.008533 16.119467 0 24.149333l-8.046933-0.017067c-2.858667-2.7904-11.9808-5.3248-16.085333-8.046933-5.469867-51.259733-12.757333-112.930133-35.4048-159.675733-29.422933-60.7232-61.559467-53.7344-114.816-24.7296-43.118933 23.483733-79.701333 56.9856-117.7344 87.534933l-55.918934-11.656533c-62.208-5.009067-126.754133-7.202133-188.893866-0.008534-19.3792 2.244267-39.6544 11.426133-59.904 7.4752-37.956267-30.2848-78.660267-64.6912-121.796267-87.364266-51.899733-27.2896-83.677867-25.728-108.040533 31.488-24.584533 57.745067-29.610667 129.5616-33.954134 191.300266-0.904533 12.859733-5.981867 22.5024-4.1984 38.033067-15.573333 8.388267-14.5664 20.514133-24.132266 32.1792 1.425067-28.424533-1.8688-58.4192-0.1792-86.656 0.384-6.442667 3.703467-11.136 4.113066-15.991467 5.265067-62.276267 19.003733-185.198933 74.325334-223.325866 17.160533-11.8272 44.5184-12.552533 63.8208-7.176534 29.115733 8.1152 73.8304 35.933867 99.072 53.777067 11.306667 7.995733 59.374933 50.338133 66.449066 50.235733l60.509867-12.125866c61.841067-4.4288 123.5968-4.2752 184.866133 4.0192 10.171733 1.373867 31.624533 10.077867 39.8336 7.586133 29.696-27.9552 64.64-56.4992 100.2496-76.8256 15.556267-8.874667 41.019733-22.050133 57.941334-26.530133 22.980267-6.075733 45.346133-4.8896 65.416533 9.309866 44.8512 31.735467 72.302933 150.493867 72.507733 203.025067z" fill="#4C2D24" p-id="8337"></path><path d="M969.643042 432.546133c-6.4256-0.529067-16.341333-0.938667-22.4-0.085333-5.358933 0.750933-5.418667 4.002133-5.76 4.104533-6.510933 2.013867-12.8768 2.0736-18.1248 8.021334-12.731733 14.421333 4.4032 48-29.559467 31.616-14.549333-23.808 15.479467-66.926933 39.637334-71.816534 3.805867-0.768 9.233067 0.494933 13.969066-0.093866 4.1472-0.520533 8.593067-3.908267 10.1632-3.925334 1.885867-0.017067 32.349867 8.354133 36.352 9.9072 9.309867 3.6096 16.930133 9.856 16.1024 20.283734-1.604267 20.232533-27.434667 3.054933-40.388266 1.988266z" fill="#D73329" p-id="8338"></path><path d="M953.557709 311.876267c2.8672-5.4528 15.291733-23.893333 19.9936-26.257067 5.1456-2.594133 11.460267-3.643733 16.298666 0.0256 13.858133 8.866133-9.088 30.097067-11.4944 40.968533-3.771733 17.0496-0.008533 30.984533 16.580267 38.408534 15.010133 6.715733 36.514133-0.059733 26.504533 26.8288-12.672 6.9376-29.824 3.2256-42.615466-2.670934-9.949867-4.590933-13.6192-16.725333-25.2672-16.964266-3.217067-18.235733-8.738133-43.690667 0-60.330667z" fill="#D6322A" p-id="8339"></path><path d="M953.557709 311.876267c-8.738133 16.64-3.217067 42.103467 0 60.330666 1.4592 8.251733 6.929067 17.271467 4.0192 28.16-1.578667 0.017067-6.016 3.413333-10.1632 3.925334-4.727467 0.5888-10.1632-0.674133-13.969067 0.093866-8.8064-27.613867-1.851733-59.707733-4.0192-88.490666 3.2512-14.4896 21.6832-38.9632 8.046933-52.292267l8.046934 0.017067c-0.017067-8.021333 0.0256-16.119467 0-24.149334l8.046933 72.405334z" fill="#5A3A2A" p-id="8340"></path><path d="M112.896375 432.546133c0.3072 14.3872 2.688 22.766933-9.9328 32.298667-5.154133 3.8912-9.847467 5.563733-16.2048 3.8912-11.298133-2.9696 1.2544-12.0832 2.090667-17.9968 1.2288-8.704 2.0992-26.589867-10.1376-26.333867-3.899733 0.085333-8.994133 4.3264-10.0608 4.113067-16.418133-3.208533-12.1856-1.800533-28.16 0-5.230933 0.5888-10.8288-0.384-16.093867 0-1.5616-10.999467 1.109333-19.899733 12.074667-24.132267 1.237333-0.477867 15.2832-4.1984 16.085333-4.0192 0.349867 0.0768 1.416533 4.2752 5.802667 4.087467 5.290667-0.221867 11.3664-5.2736 17.9456-4.471467-1.527467-6.724267 3.5072-9.642667 4.4032-11.690666-1.604267 17.937067 16.64 38.1696 32.1792 44.245333z" fill="#C83128" p-id="8341"></path><path d="M84.736375 356.1216l-3.336533 2.577067c-2.133333 15.1808-10.871467 24.490667-24.814933 29.5936-10.410667 3.8144-21.085867 4.872533-32.1792 4.0192l0.093866-20.010667 25.429334-4.804267c4.864-0.494933 5.009067-5.367467 6.647466-7.364266 9.565867-11.656533 8.558933-23.790933 24.132267-32.1792 0.896 7.808 3.8144 15.684267 4.0192 28.16z" fill="#D7362C" p-id="8342"></path><path d="M56.576375 388.3008l-4.0192 12.066133c-0.810667-0.1792-14.856533 3.541333-16.085333 4.0192l4.027733-8.0384-13.9008-0.256-2.184533-3.771733c11.093333 0.8448 21.768533-0.213333 32.1792-4.0192z" fill="#E2D3C4" p-id="8343"></path><path d="M921.378509 255.5648c-12.8256 6.4-6.152533 11.153067-8.098134 22.0672-5.009067 28.0832-19.106133 33.297067-46.1056 30.122667-12.4672-1.467733-25.514667-12.936533-34.3552-1.979734-18.107733 22.4768 38.997333 31.7696 54.545067 30.378667 18.747733-1.672533 26.487467-15.240533 42.0608-20.258133 2.167467 28.782933-4.7872 60.8768 4.0192 88.490666-24.157867 4.881067-54.186667 48.008533-39.637333 71.816534 33.962667 16.392533 16.827733-17.186133 29.559466-31.616 5.248-5.947733 11.613867-6.016 18.1248-8.021334 6.903467 16.853333 13.781333 33.757867 19.1488 51.242667 18.807467 61.2864 30.114133 119.569067 21.077334 182.050133-11.195733-33.92-26.120533-60.4416-60.305067-74.581333-4.932267-2.039467-8.738133-0.9984-12.100267-1.8432-0.341333-0.085333-0.6656-3.310933-5.828266-4.087467-5.6576-0.853333-12.322133 0.3072-18.304 0.059734-1.3312-0.0512-2.688 0-4.0192 0-61.678933 0.196267-91.8784 27.613867-144.802134 44.245333-9.1136 2.8672-21.418667 2.500267-30.3616 3.9936-5.0944 0.853333-5.495467 4.002133-5.845333 4.0448-3.857067 0.554667-12.4672 0.6912-16.085333 0-0.213333-0.042667 0.981333-3.1488-2.372267-3.584-6.1696-0.802133-12.526933 0.4096-17.7408-0.4352-39.415467-6.417067-66.952533-49.083733-104.439467-62.4896-10.257067-3.669333-44.288-10.257067-54.442666-10.248533-5.282133 0-29.431467 3.797333-35.447467 5.12-50.730667 11.136-76.279467 57.019733-127.4624 67.618133-5.623467 1.160533-15.197867 3.925333-16.085333 4.0192-4.974933 0.554667-10.88 0-16.085334 0l-2.432-3.584c-4.471467-1.297067-9.2416 0-13.653333-0.4352-8.763733-0.878933-11.144533 0.187733-20.113067-4.0192-46.8224-22.016-92.859733-44.475733-146.807466-44.2368-6.587733 0.0256-18.7904-2.952533-22.135467 4.010667-40.541867 5.998933-72.465067 43.246933-72.405333 84.471466-6.869333-4.701867-3.9168-14.890667-4.010667-22.144-0.6912-55.9104 2.1504-97.783467 17.0496-151.850666 6.954667-25.233067 19.242667-49.271467 23.159467-75.392 1.066667 0.2048 6.161067-4.036267 10.0608-4.113067 12.2368-0.256 11.357867 17.6384 10.1376 26.333867-0.836267 5.905067-13.3888 15.018667-2.090667 17.9968 6.357333 1.672533 11.042133 0 16.2048-3.8912 12.6208-9.5232 10.24-17.911467 9.9328-32.298667-0.469333-21.802667-5.768533-40.1664-28.16-48.264533 1.4848-6.2976 0.128-20.343467 0-28.16-0.2048-12.475733-3.131733-20.352-4.0192-28.16-1.783467-15.530667 3.293867-25.173333 4.1984-38.033067 4.343467-61.738667 9.3696-133.546667 33.954133-191.300267 24.362667-57.216 56.1408-58.7776 108.040534-31.488 43.136 22.6816 83.84 57.079467 121.796266 87.364267 20.2496 3.950933 40.5248-5.230933 59.904-7.4752 62.139733-7.1936 126.685867-5.000533 188.893867 0.008533l55.918933 11.656534c38.0416-30.549333 74.615467-64.059733 117.7344-87.534934 53.256533-28.996267 85.393067-35.985067 114.816 24.7296 22.647467 46.7456 29.934933 108.416 35.4048 159.675734zM145.067042 295.790933c26.8544-22.0416 48.5376-49.570133 76.5952-70.2208 17.911467-13.184 38.766933-22.306133 56.098133-36.360533-17.9456-24.106667-62.199467-75.255467-94.583466-70.5024-28.637867 12.501333-31.1552 46.250667-34.7648 73.8304-0.3072 2.346667-3.345067 3.805867-3.345067 4.701867v98.542933z m715.972267-4.0192V205.294933c0-3.549867-7.04-36.283733-8.891734-43.400533-21.725867-83.345067-80.0768-25.966933-113.809066 13.2096-17.800533 20.676267 12.5184 25.002667 26.0608 34.321067 33.774933 23.236267 54.980267 51.694933 84.573866 76.322133 4.0704 3.387733 5.154133 7.688533 12.066134 6.033067zM114.944375 324.309333c-15.4112 5.8624-16.059733 14.020267-14.045866 29.7472 4.6848 36.539733 55.1936 55.313067 80.042666 28.253867L170.837709 368.384c-13.755733 2.730667-28.808533 8.3712-39.876267-4.181333-10.734933-12.177067 0.213333-31.069867-16.017067-39.893334z m730.1632 132.215467c35.9424 7.2192 43.6224-47.9744 40.064-74.248533-3.6608-26.973867-53.085867-56.029867-72.123733-27.656534l4.0192 13.303467 36.053333 10.197333c10.811733 15.7952 8.490667 28.8768 0.750934 45.2352-5.930667 12.535467-17.595733 16.4352-8.7552 33.160534z m-516.266666-107.707733c-45.678933 8.302933-52.497067 58.8032-16.290134 83.1744 38.5536 25.941333 106.6496 28.1856 97.979734-33.629867-3.8144-27.2128-56.704-54.075733-81.6896-49.536z m333.9264 0.085333c-26.606933 3.6608-64.733867 24.285867-67.3536 53.307733-6.510933 72.132267 104.6016 53.0176 119.005866 2.3808 9.7792-34.397867-18.807467-60.202667-51.652266-55.688533zM161.160909 404.394667c-0.349867-0.059733-1.006933-3.626667-5.802667-4.087467-11.0592-1.066667-23.202133 0.861867-34.423467 0.059733 0.2048 11.349333-0.273067 22.818133 0 34.210134 0.247467 10.0864-2.747733 13.098667 8.046934 6.024533-7.637333 21.546667-17.425067 34.833067 16.085333 32.187733-3.029333-18.491733 4.5056-35.9936 20.1472-46.225066 7.517867-4.923733 15.5136-2.005333 20.053333-16.128-6.178133-9.770667-15.726933-4.650667-24.1152-6.033067z m466.4832 160.981333c2.269867 42.103467 59.400533 64.238933 92.5184 42.0352 33.015467-22.135467 39.7824-67.293867 12.1856-96.4352-0.110933-6.826667 57.745067-25.736533 42.325333-46.378667l-11.648-7.620266-145.757867 83.9168-5.751466-1.5616c-13.858133-29.687467-41.6512-10.862933-20.036267 15.965866 10.999467 13.661867 19.899733 9.9072 36.1728 10.077867z m-379.818667-104.4992c-7.842133 2.244267-8.0128 17.595733-4.420267 24.174933l38.408534 25.9328c-20.642133 19.7376-22.263467 55.3984-5.9136 78.327467 17.041067 23.901867 47.453867 32.4608 74.453333 22.365867 10.325333-3.857067 23.7824-13.175467 29.917867-22.3744 6.229333-9.326933 4.522667-17.6896 9.966933-26.24 9.813333-6.8096 30.2592 7.330133 38.613333-17.6896 2.167467-6.5024 4.010667-17.834667-4.3776-20.181334-18.193067-5.0944-19.464533 15.914667-23.970133 15.8464-29.994667-17.262933-61.815467-31.7696-91.921067-48.785066-13.832533-7.816533-47.240533-35.259733-60.765866-31.3856z" fill="#F8C17C" p-id="8344"></path><path d="M937.463842 263.611733c13.636267 13.329067-4.7872 37.802667-8.046933 52.292267-15.573333 5.0176-23.313067 18.5856-42.0608 20.258133-15.547733 1.390933-72.6528-7.901867-54.545067-30.378666 8.832-10.965333 21.879467 0.512 34.3552 1.979733 26.999467 3.165867 41.096533-2.039467 46.1056-30.122667 1.9456-10.914133-4.727467-15.6672 8.098133-22.0672 4.104533 2.7136 13.2352 5.256533 16.085334 8.046934z" fill="#DC352E" p-id="8345"></path><path d="M112.896375 432.546133c-15.5392-6.075733-33.783467-26.308267-32.1792-44.245333 1.390933-3.165867 3.959467-3.746133 4.0192-4.0192 22.382933 8.106667 27.690667 26.461867 28.16 48.264533z" fill="#EA302D" p-id="8346"></path><path d="M84.736375 384.2816c-0.068267 0.273067-2.628267 0.853333-4.0192 4.0192-0.896 2.048-5.9392 4.9664-4.4032 11.690667-6.5792-0.802133-12.654933 4.241067-17.9456 4.471466-4.3776 0.187733-5.4528-4.010667-5.802666-4.087466l4.0192-12.066134c13.943467-5.102933 22.6816-14.421333 24.814933-29.5936l3.336533-2.577066c0.128 7.816533 1.4848 21.853867 0 28.16z" fill="#523D27" p-id="8347"></path><path d="M627.644109 565.376c-16.264533-0.170667-25.1648 3.584-36.1728-10.077867-21.614933-26.8288 6.178133-45.653333 20.036266-15.965866l5.751467 1.5616 145.757867-83.9168 11.648 7.620266c15.419733 20.642133-42.436267 39.552-42.325334 46.378667 27.5968 29.1328 20.829867 74.299733-12.1856 96.4352-33.109333 22.203733-90.248533 0.068267-92.5184-42.0352z m55.790933 7.338667c10.632533-17.937067 1.851733-37.1712-19.720533-29.7728-6.8608 2.3552-11.528533 10.222933-19.601067 10.555733-3.6864 25.557333 20.701867 31.470933 39.313067 19.208533z" fill="#53342A" p-id="8348"></path><path d="M247.825442 460.8768c13.525333-3.874133 46.933333 23.569067 60.765867 31.3856 30.1056 17.024 61.917867 31.522133 91.921066 48.785067 4.497067 0.0768 5.768533-20.9408 23.970134-15.8464 8.379733 2.346667 6.545067 13.678933 4.3776 20.181333-8.354133 25.019733-28.8 10.88-38.613334 17.6896-5.444267 8.5504-3.729067 16.904533-9.966933 26.24-6.144 9.1904-19.592533 18.5088-29.917867 22.3744-26.999467 10.094933-57.403733 1.536-74.453333-22.365867-16.349867-22.929067-14.728533-58.589867 5.9136-78.327466l-38.408533-25.9328c-3.584-6.5792-3.421867-21.930667 4.420266-24.174934z m122.257067 88.558933l-29.533867-12.125866c-13.346133 9.403733-20.164267 25.873067-6.459733 38.058666 17.143467 15.240533 42.6752-3.7632 35.9936-25.9328z" fill="#513027" p-id="8349"></path><path d="M145.067042 295.790933V197.248c0-0.896 3.037867-2.3552 3.345067-4.701867 3.6096-27.588267 6.126933-61.329067 34.7648-73.8304 32.384-4.753067 76.637867 46.3872 94.583466 70.5024-17.3312 14.0544-38.178133 23.176533-56.098133 36.360534-28.0576 20.650667-49.7408 48.1792-76.5952 70.2208z" fill="#FAC6B8" p-id="8350"></path><path d="M861.039309 291.771733c-6.912 1.655467-7.995733-2.645333-12.066134-6.033066-29.585067-24.618667-50.798933-53.085867-84.573866-76.322134-13.5424-9.3184-43.869867-13.6448-26.0608-34.321066 33.732267-39.176533 92.0832-96.546133 113.809066-13.2096 1.851733 7.1168 8.891733 39.850667 8.891734 43.400533v86.4768z" fill="#FAC6B7" p-id="8351"></path><path d="M662.767309 348.9024c32.8448-4.514133 61.431467 21.282133 51.652266 55.688533-14.395733 50.6368-125.508267 69.751467-119.005866-2.3808 2.619733-29.021867 40.746667-49.646933 67.3536-53.307733z" fill="#F8EEDC" p-id="8352"></path><path d="M328.840909 348.817067c24.9856-4.539733 77.8752 22.331733 81.6896 49.536 8.669867 61.815467-59.4176 59.579733-97.979734 33.629866-36.215467-24.362667-29.3888-74.871467 16.290134-83.1744z" fill="#F8EFDC" p-id="8353"></path><path d="M845.107575 456.5248c-8.840533-16.725333 2.824533-20.625067 8.7552-33.160533 7.739733-16.3584 10.069333-29.44-0.750933-45.2352l-36.053333-10.197334-4.0192-13.303466c19.037867-28.373333 68.462933 0.682667 72.123733 27.656533 3.566933 26.274133-4.1216 81.467733-40.064 74.248533z" fill="#DB3D2F" p-id="8354"></path><path d="M114.944375 324.309333c16.2304 8.823467 5.290667 27.716267 16.017067 39.893334 11.0592 12.552533 26.120533 6.912 39.876267 4.181333l10.103466 13.9264c-24.849067 27.0592-75.357867 8.285867-80.042666-28.253867-2.013867-15.726933-1.373867-23.8848 14.045866-29.7472z" fill="#DB3331" p-id="8355"></path><path d="M161.160909 404.394667c8.388267 1.373867 17.928533-3.746133 24.1152 6.033066-4.5312 14.122667-12.535467 11.2128-20.053334 16.128-15.6416 10.24-23.176533 27.733333-20.1472 46.225067-33.5104 2.645333-23.722667-10.641067-16.085333-32.187733 6.852267-19.336533 9.344-31.197867 32.1792-36.1984z" fill="#D73029" p-id="8356"></path><path d="M161.160909 404.394667c-22.8352 5.009067-25.326933 16.8704-32.1792 36.1984-10.794667 7.074133-7.790933 4.061867-8.046934-6.024534-0.2816-11.392 0.196267-22.852267 0-34.210133 11.229867 0.802133 23.364267-1.1264 34.423467-0.059733 4.795733 0.4608 5.4528 4.027733 5.802667 4.087466z" fill="#F5E7C1" p-id="8357"></path><path d="M909.312375 593.442133l-21.777066-0.4352-2.3552-3.584c5.981867 0.247467 12.6464-0.913067 18.304-0.059733 5.162667 0.776533 5.4784 4.002133 5.828266 4.087467z" fill="#FADAC0" p-id="8358"></path><path d="M684.057975 641.706667c-6.826667-0.5376-16.571733 2.935467-20.113066-4.0192 5.205333 0.8448 11.5712-0.366933 17.7408 0.4352 3.3536 0.4352 2.158933 3.541333 2.372266 3.584z" fill="#FAE7D0" p-id="8359"></path><path d="M342.161442 637.687467l-2.850133 3.370666-13.2352 0.648534c0.896-0.1024 10.4704-2.858667 16.085333-4.0192zM309.982242 641.706667c-1.339733 0-2.688 0.0768-4.0192 0-3.1488-0.170667-6.4256 0.631467-9.557333-0.443734l-2.5088-3.584c4.411733 0.443733 9.181867-0.861867 13.653333 0.4352l2.432 3.584z" fill="#FAD8BE" p-id="8360"></path><path d="M683.435042 572.714667c-18.6112 12.2624-43.008 6.3488-39.313067-19.208534 8.072533-0.3328 12.740267-8.209067 19.601067-10.555733 21.572267-7.3984 30.353067 11.8272 19.720533 29.7728z" fill="#F4EFE4" p-id="8361"></path><path d="M370.082509 549.435733c6.6816 22.1696-18.858667 41.173333-35.9936 25.9328-13.704533-12.177067-6.8864-28.654933 6.459733-38.058666l29.533867 12.125866z" fill="#F0EAE0" p-id="8362"></path><path d="M374.349175 750.318933l74.231467 12.2368c59.972267 3.6608 117.956267-4.0448 176.512-8.900266 3.899733-0.324267 4.386133-6.485333 10.666667 2.679466-8.200533 20.5056-6.818133 37.0432-34.0736 34.107734-15.2064-1.6384-35.968-10.4192-52.4544-11.886934-24.081067-2.158933-64.384-2.116267-88.584534-0.256-18.1248 1.390933-58.103467 15.906133-71.8336 11.835734-10.837333-9.787733-16.256-25.2416-14.464-39.816534z" fill="#F6F5E9" p-id="8363"></path><path d="M627.763575 730.197333c-8.2688-2.235733-15.402667 3.2256-22.229333 3.933867-64.093867 6.6816-144.452267 7.953067-208.2304-0.7424-2.295467-0.315733-5.879467-2.244267-9.045333-3.1488-4.5056-1.288533-7.185067 2.773333-5.9648-6.1184 1.288533-9.386667 9.3184-20.010667 18.807466-21.546667 6.331733-1.024 51.720533 18.304 67.584 19.754667 17.885867 1.629867 50.594133 1.518933 68.4544-0.256 22.596267-2.2528 46.1312-14.429867 68.539734-18.773333 11.008 4.3264 24.192 13.2608 22.0672 26.9056z" fill="#F7F5EA" p-id="8364"></path><path d="M797.534242 725.333333c-2.705067-2.705067-12.270933-20.855467-12.893867-25.2928-2.705067-19.0208 3.933867-30.5664 18.013867-42.3168 24.132267-20.130133 50.0736-17.373867 68.352 8.226134 24.200533 33.902933 4.437333 56.260267-24.4992 75.989333-8.942933-4.573867-18.525867-2.414933-27.042133-4.343467-2.3296-0.529067-20.5056-10.845867-21.922134-12.2624z" fill="#FBBD9C" p-id="8365"></path><path d="M216.747042 654.481067c1.373867 1.442133 12.706133 34.312533 12.945067 37.674666 1.501867 21.4016-21.376 47.086933-42.385067 50.0992-38.4256 5.512533-74.1888-27.707733-57.489067-65.518933 11.067733-25.053867 33.015467-39.236267 60.7232-34.2272 4.642133 0.836267 23.620267 9.258667 26.205867 11.972267z" fill="#FBBC9A" p-id="8366"></path></svg>