<?xml version="1.0" standalone="no"?><!DOCTYPE svg PUBLIC "-//W3C//DTD SVG 1.1//EN" "http://www.w3.org/Graphics/SVG/1.1/DTD/svg11.dtd"><svg t="1772951669543" class="icon" viewBox="0 0 1024 1024" version="1.1" xmlns="http://www.w3.org/2000/svg" p-id="4265" xmlns:xlink="http://www.w3.org/1999/xlink" width="200" height="200"><path d="M641.730362 885.281826c-0.059289 37.148486 26.205521 89.90679 1.58385 123.464087-18.69282 25.485589-53.139444 16.905695-64.751523-10.053637-12.882546-29.915288-8.029358-67.512673-4.531336-98.605262-13.094291 0.80463-26.222461 2.430829-39.308282 3.811404-95.750944 10.087516-179.889809 6.665722-272.007214-28.153572C114.98583 819.912009 49.573664 706.272875 60.313354 549.497116c2.896667-42.289647 19.472041-85.95987 22.571983-127.411008 1.236589-16.558434-5.691697-33.142277-7.58046-48.997719-8.393559-70.223005-18.404847-192.95869 17.955949-255.685934 20.734039-35.767911 49.71765-39.418389 88.085786-30.364187 49.505906 11.679836 99.07957 42.543741 143.23257 66.885909 18.955384-6.309991 37.690553-13.433082 57.188003-18.040646 63.455645-14.991523 128.715355-19.819302 193.687092-20.090335C612.501126 81.947926 645.279202 41.360706 689.017183 15.587144c73.297538-43.178975 115.172165 10.434778 141.987512 74.364731 28.746458 68.545987 37.859948 135.863855 46.888741 208.136549 2.676453 21.445501 38.512122 75.59285 49.438148 100.570252 41.696762 95.318984 56.705225 198.641918 2.413889 292.690434-58.331424 101.05303-179.279984 162.907886-288.006642 193.924247z m-547.741134-221.467994c-2.574815 21.784293 28.966672 79.353436 43.289082 97.51266 2.058158 2.608694 4.929416 3.116882 5.463013 3.752115 91.092561 107.955907 255.143868 131.30711 388.229632 116.324057 8.122526-0.914737 40.519462-0.203275 42.99264-9.621678-3.913042-10.790509-2.185205-22.902304-4.38735-32.862774-1.092603-4.954825-10.595704-36.784286-18.040647-28.831156-1.829474 50.759434-54.89269 57.331989-70.654964 8.76623-6.420099-43.119686-2.430829-87.027063-17.337654-128.9271l-4.226424-3.277807c-29.805181 2.092037-65.005616-20.090335-61.482185-52.783714 24.26594-9.469222 17.083561 11.9424 26.129294 20.632402 5.208919 4.997174 25.011281 13.018063 31.931097 13.026532 5.471482 0.00847 28.433075-7.521171 34.556732-10.409368 9.858832-4.641443 25.714274-21.614897 33.531887-22.817607 6.36928-0.982495 19.616027 8.232633 26.324098 10.112926 21.149058 5.920381 51.106696 7.377185 66.86897-10.587234 10.765099-12.264252 9.808013-56.832272 32.024265-20.708629-5.268208 24.604732-17.413882 37.910767-36.792755 52.444922l21.640306 197.015718c3.303217 3.387915 72.577606-23.689995 82.571954-28.060405 83.012384-36.284568 165.016863-93.565738 202.453322-178.204321 14.280061-32.286829 22.936184-64.878569 22.504225-101.256305-0.669113-55.426287-17.667976-106.134903-40.502522-156.38615-10.400899-22.876895-41.645943-70.104428-45.033859-89.983018-15.033872-88.280591-20.149624-167.413812-67.495733-247.529529-21.767353-36.826634-44.762825-50.395233-84.528476-26.815346-14.695081 8.715411-36.403145 25.47712-49.412738 36.843574-22.436466 19.599087-44.754355 50.479931-67.292459 67.724418-2.718802 2.075098-3.675888 3.159231-7.55505 3.701297-27.730083 3.862223-64.700704-2.168266-94.014637-0.254094-37.749841 2.464708-85.443213 13.653297-122.693336 23.571418-14.254652 3.794465-28.594001 8.512136-42.19648 14.288531-45.389589-26.849225-92.871216-55.527924-144.248945-69.680939-37.038379-10.206093-54.968918-5.344436-69.536952 31.931097-30.440415 77.854283-12.501406 194.737346 1.888763 275.700041l-18.633532 86.33254c-6.403159 48.650457-10.587234 92.456196-3.032184 141.64872 0.677583 4.404289 2.79503 15.338784 6.708072 17.667976z m498.794234 3.743646c-20.666281 9.638618-45.457348-3.108412-65.66626-10.197623l-42.907941 27.43364c3.023714 15.669106 8.715411 32.947472 11.002253 48.472592 1.448334 9.833423 3.023714 23.46978 3.98927 33.514948 2.210614 23.003942-7.859962 54.774113 20.27667 65.742487 16.685481-9.037263 10.553355-42.154131 30.093154-45.033858 12.636922-1.863353 19.073961 1.549971 26.24787 11.434213 30.127033 41.510427 10.807448 124.903951 17.041212 174.223521 2.092037 16.524555 17.845841 39.172765 33.794451 22.66515 8.571425-8.867867 8.427438-22.241661 7.309426-33.777511-3.235459-33.489538-17.329184-73.399175-22.343299-108.904523-7.95313-56.298675-9.325236-112.58888-15.135509-168.624992-0.559006-5.420664-5.115751-10.621113-3.684358-16.956513z" fill="#512F25" p-id="4266"></path><path d="M649.048258 562.557527c0.313382 0.093168 0.38114 3.17617 5.369845 3.845284 10.087516 1.355166 19.556738-3.743646 26.603601 7.309426 8.020888 41.984735 14.076786 83.749255 48.591169 112.673578 28.687169 24.045726 43.238263 24.130424 78.752081 26.24787 3.887632 0.228684 7.622808 3.514962 11.51044 3.819874 8.562955 0.660643 23.546008-6.962165 32.879714-8.3258 18.70976-18.828337 39.596255-35.496878 58.822672-53.681511 5.522301-5.217389 8.35121-10.460187 7.504231 1.880293-37.436459 84.638583-119.449408 141.919753-202.453322 178.204321-9.985879 4.36194-79.268738 31.43985-82.571955 28.060405l-21.640306-197.015719c19.378873-14.534155 31.524548-27.831721 36.792756-52.444922-22.216252-36.123642-21.250696 8.444378-32.024265 20.70863-15.762274 17.955949-45.719911 16.507615-66.86897 10.587234-6.708071-1.880293-19.954818-11.095421-26.324098-10.112926-7.817614 1.20271-23.673055 18.176163-33.531888 22.817606-6.123656 2.879728-29.085249 10.417838-34.556731 10.409369-6.919816-0.01694-26.722178-8.029358-31.931098-13.026533-9.045733-8.690002-1.863353-30.101623-26.129293-20.632401-3.523431 32.693378 31.677004 54.875751 61.482185 52.783713l4.226424 3.277808c14.906825 41.891567 10.917556 85.798944 17.337654 128.927099 15.770744 48.565759 68.82549 41.993205 70.654964-8.766229 7.444943-7.95313 16.948044 23.87633 18.040647 28.831155 2.202145 9.968939 0.474308 22.080735 4.38735 32.862774-2.473178 9.418403-34.870114 8.706941-42.99264 9.621678-133.085765 14.983053-297.137072-8.36815-388.229633-116.324056 1.558441-7.487292 9.409934 3.913042 11.247878 5.623939 3.387915 3.159231 10.519476 12.171084 13.577068 12.738559 2.922077 0.542066 6.343871-2.879728 10.087517-2.540936 14.415578 1.304347 35.996595 10.73969 49.463557 10.74816 5.97967 0 10.206093-3.472613 15.059281-4.006209 13.043472-1.414454 19.048551 0.245624 32.862774-4.641443 58.238256-20.590053 80.471448-73.162021 73.865014-132.221847-1.524562-13.610948-10.511006-25.756623-11.16318-39.469208 9.113491-0.694523 10.951435-2.79503 14.999993-3.752116 57.526794-13.54319 63.066035-52.978519 109.8362-75.813065 13.610948-6.648783 50.13267-15.12704 64.624476-14.449457 43.060398 2.00734 79.717636 33.074519 121.820948 45.254073zM497.871027 544.52535c-12.569164 2.142856-36.724997 13.178989-43.322961 24.189713-23.09711 38.562941 40.112912 63.989242 71.993191 56.993197 30.855435-6.76736 69.706348-53.961014 32.464694-76.245024-12.408238-7.428003-46.55842-7.428003-61.134924-4.937886z" fill="#FAF1DE" p-id="4267"></path><path d="M592.783462 667.557478c-1.431394 6.343871 3.125351 11.54432 3.684357 16.956514 5.810274 56.044581 7.182379 112.334787 15.13551 168.624992 5.022584 35.505348 19.10784 75.414985 22.343298 108.904523 1.118012 11.53585 1.261998 24.901174-7.309426 33.777511-15.940139 16.507615-31.702413-6.140596-33.794451-22.66515-6.233763-49.31957 13.085821-132.713095-17.041211-174.223521-7.17391-9.884242-13.602478-13.297566-26.247871-11.434213-19.548269 2.879728-13.407673 35.996595-30.093153 45.033858-28.136633-10.968374-18.066056-42.738546-20.276671-65.742488-0.965556-10.053637-2.540936-23.681525-3.98927-33.514947-2.286843-15.52512-7.978539-32.803486-11.002253-48.472592l42.907942-27.433641c20.208912 7.080742 44.999979 19.836241 65.666259 10.197624z" fill="#9FDDF7" p-id="4268"></path><path d="M941.569296 555.053296c0.440429 36.377736-8.224163 68.977946-22.504225 101.256305 0.846979-12.34048-1.98193-7.097682-7.504231-1.880293-19.226417 18.193103-40.112912 34.853174-58.822672 53.681511-9.325236 1.363636-24.308289 8.994914-32.879713 8.325801-3.879163-0.304912-7.622808-3.58272-11.510441-3.819874-35.505348-2.117447-50.056442-2.210614-78.752081-26.24787-34.514383-28.924323-40.57028-70.688843-48.591168-112.673579-7.046863-11.053072-16.516085-5.96273-26.603602-7.309426-4.988705-0.669113-5.047993-3.752116-5.369845-3.845283 9.1389-0.635234 19.065491 1.041784 28.043465-0.093168 11.281756-1.414454 32.532452-9.714846 43.212854-14.915295 17.49011-1.770186-1.414454 17.159789-3.032184 21.343863-15.711455 40.58722 19.89553 104.66116 61.871795 112.953082 6.309991 1.245059 12.044037 0.084698 17.972889 0.76228 4.937886 0.567476 8.817048 4.294182 14.881416 3.828344 6.547145-0.499717 26.789937-5.649348 33.159216-8.410498 7.690567-3.337096 27.687734-19.184068 34.607551-25.400892 8.503666-7.639748 22.766788-20.649341 24.299819-31.956507 3.557311-26.205521-1.414454-62.47315-16.964984-84.282852-11.459622-16.067186-33.252384-22.724439-46.829453-35.674743-8.376619-7.987009 1.092603-3.921511 3.802935-9.426873 20.191973-1.702427 38.19027-0.203275 56.0954 9.53698 14.576504 7.927721 26.324098 22.741378 34.040074 37.216245 3.531901 6.623374 2.447768 13.483901 7.368715 17.007333z" fill="#F9E8D1" p-id="4269"></path><path d="M157.749785 592.557513c6.809709 0.228684 14.754369-3.455673 9.503101 7.631278-21.07283 44.508731-34.683778 74.042879-15.177858 123.684302 8.402029 21.386213 23.774692 31.295863 45.77073 36.741937 9.062672 2.244494 31.744762 5.395254 40.460173 4.36194 33.150747-3.929981 62.896639-24.951993 75.127012-56.10387 7.936191-20.208912 9.1389-40.053623 4.870127-61.228091-1.821004-9.062672-7.487292-21.369273-10.32467-30.753797 6.589494-9.392994 19.455101-4.78543 29.779771-5.58159 0.652174 13.712585 9.638618 25.85826 11.16318 39.469208 6.597964 59.068295-15.635227 111.631794-73.865014 132.221847-13.822693 4.887067-19.819302 3.218519-32.862774 4.641443-4.853188 0.525127-9.079612 4.006209-15.059281 4.00621-13.466962-0.00847-35.047979-9.443813-49.463557-10.74816-3.752116-0.338791-7.17391 3.083003-10.087517 2.540936-3.057593-0.567476-10.189154-9.579329-13.577069-12.73856-1.846414-1.719367-9.689436-13.1197-11.247877-5.623939-0.533597-0.635234-3.404854-1.143421-5.463013-3.752115-14.33088-18.159224-45.863897-75.728367-43.289082-97.51266 1.304347-11.027663 11.713716-33.989256 18.675881-43.204384 13.729525-18.167693 24.714839-21.597957 45.076207-28.051935z" fill="#FBE5CF" p-id="4270"></path><path d="M844.065106 491.301208c-2.710332 5.505362-12.171084 1.439864-3.802934 9.426873 13.577069 12.950305 35.378301 19.607557 46.829453 35.674744 15.550529 21.809702 20.530764 58.07733 16.964984 84.282851-1.533031 11.307166-15.787683 24.316759-24.29982 31.956507-6.919816 6.216824-26.908514 22.063795-34.60755 25.400892-6.36928 2.761151-26.612071 7.910781-33.159216 8.410498-6.055898 0.465838-9.94353-3.260868-14.881416-3.828343-5.928851-0.686053-11.662897 0.482778-17.972889-0.762281-41.976265-8.291922-77.58325-72.365861-61.871795-112.953081 1.617729-4.184075 20.522294-23.122519 3.032184-21.343864 41.36644-20.115744 73.424585-52.004493 123.76053-56.256326z m-57.501384 34.387336c-12.831728 2.76962-23.139458 24.037256-27.950298 35.80179-10.400899 25.443241-11.722185 44.584959 6.623374 66.767332 27.891009 33.743632 85.765064 21.792762 103.145067-17.007333 8.588364-19.184068 3.303217-44.508731-11.103891-60.033851-8.080177-8.706941-37.258594-24.587792-48.904551-26.095414-6.318461-0.8131-15.618287-0.770751-21.809701 0.567476z" fill="#FBD7BC" p-id="4271"></path><path d="M352.766634 607.565976c-4.048558 0.948616-5.886502 3.049123-14.999993 3.752116-10.316201 0.78769-23.190277-3.819874-29.779772 5.58159 2.837379 9.392994 8.495196 21.691125 10.324671 30.753797 4.260303 21.165998 3.066063 41.019179-4.870128 61.228091-12.230373 31.151877-41.984735 52.173889-75.127011 56.10387-8.715411 1.033314-31.397501-2.125917-40.460174-4.361941-21.996037-5.446073-37.368701-15.355724-45.770729-36.741936-19.49745-49.641422-5.886502-79.1671 15.177858-123.684302 5.251268-11.086951-2.701862-7.402594-9.503101-7.631278 43.111217-13.661767 70.01126-5.894972 113.478208 4.658383 9.926591 2.413889 21.564078 9.054202 30.974012 10.282322 15.711455 2.049688 34.429685-1.329757 50.564629 0.059288z m-132.255726 4.311122c-59.042886 8.893276-66.0474 108.269289-7.639748 118.704066 20.539234 3.667418 50.259717-4.624504 62.913579-21.86899 16.050247-21.87746 14.686611-68.241075-9.359115-84.189684-7.927721-5.259738-37.436459-13.92433-45.914716-12.645392z" fill="#FAD6BA" p-id="4272"></path><path d="M497.871027 544.52535c14.576504-2.490117 48.726685-2.481648 61.134924 4.937886 37.250124 22.28401-1.60079 69.469194-32.464694 76.245024-31.880279 6.996044-95.0903-18.430257-71.993191-56.993197 6.589494-11.010723 30.753797-22.038386 43.322961-24.189713z" fill="#523029" p-id="4273"></path><path d="M786.563722 525.688544c6.191414-1.338226 15.491241-1.380575 21.809701-0.567476 11.645957 1.507622 40.824374 17.388473 48.904551 26.095414 14.407108 15.52512 19.692255 40.849783 11.103891 60.033851-17.380003 38.800095-75.254059 50.742495-103.145067 17.007333-18.337089-22.182372-17.024272-41.324091-6.623374-66.767332 4.810839-11.773004 15.11857-33.03217 27.950298-35.80179z" fill="#FBBD9D" p-id="4274"></path><path d="M220.510908 611.877098c8.478257-1.278938 37.986995 7.385654 45.914716 12.645392 24.037256 15.957079 25.409361 62.312224 9.359115 84.189684-12.653862 17.244487-42.365875 25.536408-62.913579 21.86899-58.399182-10.434778-51.403138-109.81079 7.639748-118.704066z" fill="#FBBD9C" p-id="4275"></path><path d="M941.569296 555.053296c-4.920946-3.514962-3.836814-10.375489-7.368715-17.007333-7.715976-14.474866-19.463571-29.288524-34.040074-37.216244-17.90513-9.740255-35.911897-11.239408-56.095401-9.536981-50.335945 4.251833-82.394089 36.132112-123.760529 56.256326-10.680402 5.200449-31.931097 13.492371-43.212854 14.915296-8.977974 1.126482-18.896095-0.542066-28.043465 0.093167-42.111782-12.188024-78.760551-43.246733-121.820949-45.254072-14.483336-0.677583-51.013528 7.800674-64.624475 14.449456-46.770165 22.834546-52.300936 62.261405-109.8362 75.813065-16.134944-1.397515-34.861644 1.9904-50.564629-0.059288-9.409934-1.228119-21.047421-7.868432-30.974012-10.282322-43.466948-10.553355-70.366991-18.32015-113.478208-4.658383-20.361368 6.453978-31.355152 9.884242-45.076207 28.051935-6.962165 9.215128-17.380003 32.176721-18.67588 43.204384-3.913042-2.329191-6.030488-13.263687-6.708072-17.667976-7.55505-49.192524-3.370975-92.998263 3.032184-141.64872l18.633532-86.33254c-14.390168-80.962695-32.320708-197.854227-1.888763-275.700041 14.568034-37.267063 32.507043-42.137191 69.536952-31.931097 51.377729 14.153014 98.859355 42.823244 144.248945 69.680938 13.602478-5.776395 27.941828-10.485596 42.19648-14.288531 37.250124-9.926591 84.943495-21.115179 122.693336-23.571417 29.313933-1.914172 66.284554 4.116317 94.014637 0.254093 3.879163-0.542066 4.836248-1.617729 7.55505-3.701297 22.538104-17.236017 44.864462-48.12533 67.292459-67.724417 13.009593-11.366454 34.717657-28.128163 49.412738-36.843574 39.765651-23.579887 62.761123-10.011288 84.528476 26.815346 47.35458 80.115716 52.461861 159.248938 67.495733 247.529529 3.387915 19.87859 34.63296 67.106123 45.033859 89.983018 22.843016 50.259717 39.833409 100.968332 40.502522 156.38615z m-150.01687-322.529494c-4.573685-19.006202-4.294182-37.682083-8.35968-57.264231-3.455673-16.634662-15.296436-56.468071-23.537538-70.223005-1.719367-2.871258-16.72783-17.583278-19.184068-18.30321-6.987574-1.363636-13.560129-1.007905-20.352898 1.219649-12.984184 4.251833-49.031598 46.820983-56.12928 60.127019-1.914172 3.58272-5.293617 5.259738-3.658948 11.256347 0.957086 3.506492 55.570273 26.942393 65.014086 32.523983 13.568599 8.029358 27.137198 18.260861 39.808 27.704674 9.113491 6.792769 11.569729 16.439857 26.408796 12.958774zM146.501908 322.53223c6.284582 1.21118 9.426873-3.362505 13.204398-7.411064 7.411064-7.94466 13.441552-20.268201 20.471476-28.289089 21.648776-24.689429 47.862767-45.135496 71.247849-67.665129 1.897232-6.132126-24.418396-25.671925-30.084684-29.610376-12.33201-8.571425-46.575359-29.762832-59.957623-22.775258-4.853188 2.532466-16.770179 17.52399-18.023707 23.215687-5.335966 24.206652-6.614904 64.438141-4.522866 89.559529 1.143421 13.729525 8.317331 28.712578 7.665157 42.96723z m467.642357-10.527946c-17.947479 3.074533-46.626178 24.604732-50.734025 43.018049-6.970635 31.219635 15.11857 53.918665 46.211159 49.946335 17.346124-2.219084 53.774679-26.281749 57.560673-43.678692 3.819874-17.51552 2.066628-31.83793-12.425178-42.58609-12.298131-9.121961-25.714274-9.249008-40.604159-6.699602zM321.631697 353.277557c-38.164861 6.597964-41.637474 49.937865-10.019759 72.289633 46.338205 32.761137 115.443199 0.914737 80.437569-50.437582-13.322975-19.539799-48.370954-25.671925-70.42628-21.852051z m360.008302 78.735141c-34.201 5.835683-72.857109 35.962716-85.765065 68.02933-4.141726 10.282322-2.252963 9.93506 6.242233 17.159789 15.669106-9.630148 27.010151-22.834546 44.313926-30.381126 9.672497-4.217954 28.229801-9.54545 38.376606-10.544885 15.846972-1.566911 62.490089 19.49745 68.766202-2.312252 9.333705-41.281742-41.40032-47.151305-71.942372-41.942386z m-360.025242 30.008456c-60.237126 10.375489-74.059819 89.212268-22.707499 122.523941 19.184068 12.442117 53.859376 11.883111 72.518317-1.456804 62.227526-44.483322 21.741944-133.382208-49.810818-121.067137z" fill="#F8C17E" p-id="4276"></path><path d="M321.614757 462.021154c71.552762-12.32354 112.029874 76.583815 49.810818 121.067137-18.658941 13.339915-53.33425 13.898921-72.518317 1.456804-51.352319-33.311673-37.529627-112.148451 22.707499-122.523941z m59.322389 34.133242c0-11.586669-9.392994-20.971193-20.971193-20.971193s-20.971193 9.392994-20.971193 20.971193 9.392994 20.971193 20.971193 20.971193 20.971193-9.392994 20.971193-20.971193z" fill="#512F28" p-id="4277"></path><path d="M791.552426 232.523802c-14.839067 3.472613-17.295305-6.166005-26.408796-12.958774-12.662332-9.443813-26.230931-19.675316-39.808-27.704674-9.443813-5.58159-64.057-29.017491-65.014086-32.523983-1.634669-5.996609 1.744776-7.673627 3.658948-11.256347 7.097682-13.297566 43.145096-55.875186 56.12928-60.127019 6.792769-2.227554 13.365324-2.583285 20.352898-1.219649 2.456238 0.728402 17.464701 15.431952 19.184068 18.30321 8.241103 13.754934 20.081865 53.588343 23.537539 70.223005 4.065498 19.573678 3.794465 38.258028 8.359679 57.264231z" fill="#FAC6B8" p-id="4278"></path><path d="M146.501908 322.53223c0.652174-14.254652-6.521736-29.229235-7.665157-42.96723-2.092037-25.121389-0.8131-65.352878 4.522866-89.55953 1.253528-5.691697 13.170519-20.69169 18.023707-23.215686 13.382264-6.987574 47.634083 14.203833 59.957623 22.775258 5.666288 3.938451 31.981916 23.47825 30.084684 29.610375-23.376612 22.529634-49.599073 42.96723-71.247849 67.66513-7.029923 8.020888-13.060412 20.344429-20.471476 28.289089-3.777525 4.048558-6.919816 8.622243-13.204398 7.411064z" fill="#FBC7B9" p-id="4279"></path><path d="M614.144265 312.004284c14.889886-2.549406 28.306029-2.422359 40.604159 6.699602 14.500276 10.75663 16.245052 25.07057 12.425178 42.58609-3.785995 17.388473-40.223019 41.459608-57.560673 43.678692-31.092589 3.97233-53.181793-18.726699-46.211159-49.946335 4.107847-18.413317 32.795016-39.943516 50.734025-43.018049z" fill="#F9EFDC" p-id="4280"></path><path d="M321.631697 353.277557c22.046856-3.811404 57.103305 2.312252 70.42628 21.852051 35.00563 51.352319-34.099363 83.198719-80.437569 50.437582-31.626185-22.360238-28.145103-65.691669 10.019758-72.289633z" fill="#F9F0DE" p-id="4281"></path><path d="M681.639999 432.012698c30.542052-5.208919 81.276077 0.660643 71.942371 41.942386-6.284582 21.809702-52.91923 0.745341-68.766201 2.312252-10.146805 0.999435-28.712578 6.326931-38.376606 10.544885-17.303775 7.54658-28.64482 20.750978-44.313926 30.381126-8.495196-7.224728-10.383959-6.868997-6.242233-17.159788 12.907956-32.058144 51.564064-62.193647 85.765064-68.029331z" fill="#57352B" p-id="4282"></path><path d="M359.965953 496.154396m-20.971193 0a20.971193 20.971193 0 1 0 41.942386 0 20.971193 20.971193 0 1 0-41.942386 0Z" fill="#F2E8D9" p-id="4283"></path></svg>