<?xml version="1.0" standalone="no"?><!DOCTYPE svg PUBLIC "-//W3C//DTD SVG 1.1//EN" "http://www.w3.org/Graphics/SVG/1.1/DTD/svg11.dtd"><svg t="1772951690940" class="icon" viewBox="0 0 1028 1024" version="1.1" xmlns="http://www.w3.org/2000/svg" p-id="6096" xmlns:xlink="http://www.w3.org/1999/xlink" width="200.78125" height="200"><path d="M765.828637 630.365591c7.385674 1.219653-2.337667 12.814822-4.175616 14.517254-3.032192 2.820447-8.562978 3.828354-12.620017 8.147957-10.6889 11.383424-7.478842 23.61383-8.258064 37.487378-0.186336 3.345575-2.972903 6.496344-3.201588 9.155865-0.601356 6.970653 5.640893 39.799636 8.368172 48.210157 7.444963 22.893896 31.660149 44.96622 53.063358 54.960595 34.73469 16.219686 64.878743 11.290256 100.833085 0.990968 17.35464-4.971778 29.762911-10.832887 39.909744-26.561323 12.840232-19.920993 28.661836-71.2311 24.706435-94.175815-1.541505-8.927179-18.887676-41.569826-25.002879-47.710438-6.65727-6.69115-28.526319-6.276129-15.745376-21.648834 5.386799-2.515533 14.381737-11.883143 16.617767-16.617767 4.133267 6.437055 12.416741 7.360265 18.777568 12.382862 19.861704 15.660678 38.817138 45.338892 39.384616 70.714442 1.448337 64.777105-59.432655 146.231266-108.20182 184.701141-202.301406 159.605095-611.232291 157.995831-791.266568-35.14971-4.590637-4.920959-11.332605-8.317353-10.400926-16.609297 3.447213 3.320165 21.902928 20.064979 23.402084 20.488469 5.014127 1.414458 15.56751-4.082448 24.376113-4.099387 9.096576-0.01694 14.957684 3.98928 20.861141 4.302663 67.750008 3.608139 134.407411-13.882018 154.692606-86.104086 7.656708-27.264318-0.237155-32.710405 0.736873-53.063358 0.313383-6.614921 3.726716-11.281787 4.353482-16.626237 1.024847-8.656146-2.964433-24.850422 4.0401-29.195434 4.47206-2.769628 9.943557-1.118015 14.22081-2.515534 3.845294-1.262002 2.380017-3.455682 2.591762-3.52344 44.585079-14.271629 43.534822-17.439338 79.116493-43.441655 42.882647-31.338296 104.051613-41.264913 153.59153-21.005128 36.301605 14.847577 64.1334 57.137337 102.535517 63.65062 30.847047 5.234342 63.972473-0.669115 92.676659-11.662928z m-262.936774-36.48794c-18.159272 2.100513-58.128304 13.34842-61.211315 34.29426-5.158114 35.090422 27.823325 54.045856 56.417403 64.268916 14.347858 38.7155-45.355831 55.722878-74.331051 49.4044-6.276129-1.372109-23.004003-14.610422-25.722812-19.980281-4.44665-8.749313 2.803507-34.624582-16.346733-29.034508-18.040695 5.268222-5.945806 43.416245 4.040099 53.808702 32.718875 34.023226 90.271232 20.971249 124.557023-4.319603 36.386303 23.376675 83.808768 38.664682 122.481919 10.485624 16.278974-11.866203 31.634739-47.244599 10.265409-60.034011-16.558478 2.735749-12.230405 15.796195-15.050852 26.171712-9.223623 33.946998-74.703722 28.246816-96.920033 7.004533-5.962746-6.826667-8.300414-22.284069-5.844169-30.838578 2.024285-7.063821 13.068916-6.589512 19.243408-9.824979 25.917618-13.585575 53.817171-40.409462 30.330389-69.545608-13.306071-16.499189-51.809826-24.189777-71.908685-21.860579z" fill="#F9EFDC" p-id="6097"></path><path d="M117.701855 592.971381l14.542663 4.150207c-17.947527 13.619454-59.237849 52.402713-63.726849 73.382432-1.702432 7.970091-0.135517 16.109578-0.745343 24.155897-0.321853 4.260314-4.040099 8.334293-4.040099 12.560728 0 3.040662 4.607577 23.207279 5.962746 27.230439 4.616046 13.712622 21.521787 28.721125 31.465343 39.1644 8.054789 8.46134 9.570885 15.974061 23.6223 22.080794 49.709313 21.598015 128.986733 6.725029 149.881753-47.829016 9.960496-26.002316 15.220248-66.132275 1.81254-91.397717-4.91249-9.249032-14.635831-15.12708-17.524037-26.103954 24.342233 9.79957 52.936311 13.34842 78.938627 12.46756-0.211745 0.067758 1.253532 2.261439-2.591762 3.523441-4.285724 1.405988-9.757221-0.254094-14.22081 2.515534-7.004533 4.345012-3.015252 20.539289-4.0401 29.195434-0.635236 5.34445-4.040099 10.011315-4.353482 16.626237-0.974028 20.352953 6.919835 25.799041-0.736873 53.063358-20.293664 72.222068-86.942597 89.712225-154.692606 86.104086-5.903457-0.313383-11.764566-4.319603-20.861141-4.302664-8.800132 0.01694-19.361985 5.513846-24.376113 4.099388-1.499156-0.42349-19.954872-17.168304-23.402084-20.48847-29.678213-28.611017-58.052076-91.397717-58.162184-132.950603-0.084698-31.346766 22.089264-66.843739 51.115302-79.751729 15.093201-6.708089 22.029975-5.217403 36.132209-7.495782z" fill="#F8E8D3" p-id="6098"></path><path d="M873.852591 592.971381c0.355732 1.236592 11.917022 14.618892 14.457965 16.702465 11.612109 9.503127 21.80129 10.417866 35.395335 4.073979-12.780943 15.372705 9.088106 14.957684 15.745376 21.648833 6.115203 6.140612 23.461373 38.783259 25.002879 47.710439 3.955401 22.944715-11.857734 74.254822-24.706435 94.175814-10.138362 15.736907-22.555103 21.589545-39.909744 26.561324-35.954342 10.299289-66.098395 15.228718-100.833085-0.990968-21.394739-9.994376-45.618395-32.0667-53.063358-54.960595-2.735749-8.402051-8.977998-41.231034-8.368172-48.210158 0.228685-2.66799 3.015252-5.810289 3.201588-9.155864 0.779222-13.873548-2.430835-26.103954 8.258064-37.487378 4.065509-4.328073 9.596294-5.32751 12.620017-8.147957 1.837949-1.710902 11.56129-13.297601 4.175616-14.517254 0.601356-0.228685 2.066634-3.870703 5.141175-5.073416 33.150835-12.958809 67.22488-29.085327 102.874309-32.320794z m-34.633052 38.080265c-13.915897 3.091481-44.669777 37.690653-47.786667 51.919934-11.739156 53.690124 36.49641 94.700943 86.739322 74.271762 23.723937-9.647113 40.417932-36.775914 37.140116-62.430968-4.319603-33.862299-40.002911-71.773168-76.092771-63.760728z" fill="#F9D5B9" p-id="6099"></path><path d="M258.961342 630.365591c2.879735 10.976873 12.611547 16.854921 17.524036 26.103954 13.416179 25.256973 8.147957 65.395401-1.812539 91.397717-20.895021 54.554045-100.17244 69.4355-149.881753 47.829016-14.051414-6.106733-15.56751-13.619454-23.6223-22.080794-9.943557-10.443275-26.849297-25.451778-31.465343-39.1644-1.35517-4.02316-5.962746-24.189777-5.962746-27.230439 0-4.226435 3.718246-8.300414 4.040099-12.560728 0.609826-8.037849-0.957089-16.185806 0.745343-24.155897 4.488999-20.988189 45.779322-59.771447 63.726849-73.382432l-14.542663-4.150207c0.220215-0.033879-1.016377-3.193118 2.422365-3.709776 14.127643-2.125922 50.048106 4.760033 65.107428 8.88483 26.900116 7.368734 49.963408 22.648271 73.729694 32.219156z m-101.112589 0.677585c-23.732407 5.183524-49.937998 40.985409-51.792887 64.497602-1.304351 16.507659 18.057634 48.862333 32.447842 57.357551 20.767974 12.264285 53.232754 12.442151 72.764135-1.956526 31.067262-22.910835 35.17512-60.864053 12.196526-91.313019-17.253002-22.860017-35.708718-35.115831-65.615616-28.585608z" fill="#F9D7BC" p-id="6100"></path><path d="M502.891863 593.877651c20.098859-2.329198 58.602614 5.36139 71.908685 21.860579 23.495252 29.136146-4.404301 55.960033-30.330389 69.545608-6.174491 3.235467-17.219123 2.761158-19.243408 9.824979-2.456245 8.546038-0.127047 24.003441 5.844169 30.838578 22.216311 21.242283 87.69641 26.942465 96.920033-7.004533 2.820447-10.375517-1.507626-23.435964 15.050852-26.171712 21.36933 12.789413 6.013565 48.176278-10.265409 60.034011-38.673151 28.179057-86.087146 12.89105-122.481919-10.485624-34.29426 25.299322-91.838147 38.342829-124.557023 4.319603-9.994376-10.392457-22.089264-48.54048-4.040099-53.808702 19.15871-5.590074 11.908553 20.285194 16.346733 29.034508 2.727279 5.36139 19.446683 18.608172 25.722812 19.980281 28.975219 6.318478 88.678908-10.6889 74.331051-49.4044-28.585608-10.22306-61.567047-29.178495-56.417403-64.268916 3.074541-20.94584 43.052043-32.193747 61.211315-34.29426z" fill="#522F27" p-id="6101"></path><path d="M839.219539 631.051646c36.098329-8.01244 71.773168 29.898428 76.092771 63.760728 3.277816 25.663524-13.416179 52.783854-37.140116 62.430968-50.242911 20.429181-98.478478-20.581638-86.739322-74.271762 3.10842-14.22928 33.870769-48.836923 47.786667-51.919934z" fill="#F9BC9B" p-id="6102"></path><path d="M157.848753 631.043176c29.906898-6.538693 48.354144 5.725591 65.615616 28.585608 22.978594 30.448966 18.870736 68.402184-12.196526 91.313019-19.522911 14.398677-51.987692 14.220811-72.764135 1.956526-14.390207-8.495219-33.743722-40.841423-32.447842-57.357551 1.854888-23.512192 28.05201-59.305608 51.792887-64.497602z" fill="#F9BB9A" p-id="6103"></path><path d="M162.134477 16.278974c7.58895-1.312821 16.397552-1.566915 24.02885-0.694524 33.972407 3.870703 101.629247 47.532572 130.790802 68.622399 14.373267 10.400926 39.63871 38.944185 56.197188 39.554011 9.181274 0.338792 13.941307-3.413333 20.91196-4.345012 87.992854-11.696807 178.99249-13.102796 265.977436 7.224748 36.132208-31.194309 74.475037-62.964566 116.815617-85.595898 51.63196-27.59464 106.914409-37.724533 142.131877 18.625112 30.067825 48.108519 47.447874 146.612407 50.598644 202.835004 2.202151 39.325327-4.929429 87.111993-0.110108 124.751828 3.506501 27.382895 31.541572 81.005261 40.468751 113.249826 76.448503 276.081919-90.703193 443.386071-350.929628 494.603011-317.202845 62.414028-744.233714-84.520232-644.171381-482.15239 9.435368-37.478908 41.790041-103.204632 44.754475-134.085559 1.160364-12.120298-5.640893-28.9244-4.395831-45.753912 5.098825-68.935782 6.936774-139.201323 26.112423-206.544781C92.910722 85.841522 115.016925 24.401522 162.126007 16.270505zM30.454344 680.218892c0.118577 41.552887 28.48397 104.331117 58.162184 132.950603-0.931679 8.291944 5.810289 11.688337 10.400926 16.609297 180.042746 193.145542 588.965161 194.746336 791.266568 35.149711 48.760695-38.469876 109.650157-119.932506 108.20182-184.701142 7.11464-4.861671 4.031629-15.381175 4.141736-22.876956 0.948619-65.539388-7.343325-114.41866-26.874706-176.663292-7.436493-23.706998-28.534789-64.251977-31.211249-85.121588-4.184086-32.634177 1.897237-74.009198 0.110108-108.134061-2.608701-49.794012-19.700778-173.64804-48.066171-213.676361-33.921588-47.854425-70.426468-28.356923-112.877154-5.073416-21.564136 11.832324-48.015352 29.610455-67.563673 44.610488-7.707527 5.911927-41.163275 37.84311-44.322514 38.76632-5.386799 1.575385-14.280099 1.016377-20.175087 0.42349-19.116361-1.939586-42.484566-9.994376-62.490257-12.272754-59.093863-6.741969-128.063524-4.116328-186.793184 4.150207-13.568635 1.905707-35.945873 12.442151-47.981472 6.259189-28.085889-26.315699-61.253664-51.835236-93.997949-72.179719-17.930587-11.1378-63.320298-36.860612-82.631464-38.190372-45.389711-3.12536-68.156559 81.200066-75.728569 115.367279-8.546038 38.571514-15.220248 80.827395-17.490157 119.610653-2.151332 36.691216 4.404301 81.318644-0.152457 116.180381-3.853763 29.491878-31.211249 83.800298-40.468751 117.408503-14.576543 52.877022-18.032225 93.837022-17.617204 148.551993 0.050819 6.826667-3.057601 19.404334 4.141737 22.860016z" fill="#4F2C22" p-id="6104"></path><path d="M998.485842 680.218892c-0.567477-25.37555-19.522911-55.045294-39.384616-70.714442-6.360827-5.014127-14.644301-5.945806-18.777568-12.382862 10.536443-22.317949-8.486749-64.268916-21.284632-84.664218-5.158114-8.215715-17.38005-10.553383-22.453466-2.70187-2.371547 3.667428-10.172242 23.207279-12.416741 29.127676-5.446088 14.347858-14.483375 39.562481-10.316228 54.079735-35.649429 3.243937-69.723474 19.361985-102.874309 32.320795-3.074541 1.202713-4.539818 4.836261-5.141175 5.073416-28.704185 10.993813-61.829611 16.888801-92.676658 11.662928-38.410587-6.513284-66.233912-48.803044-102.535517-63.650621-49.539917-20.259785-110.717353-10.333168-153.591531 21.005128-35.590141 26.010786-34.531414 29.170025-79.116492 43.441655-26.002316 0.88933-54.596394-2.65952-78.938627-12.46756-23.766286-9.570885-46.829578-24.841952-73.729694-32.219157-15.059322-4.124797-50.979785-11.010753-65.107428-8.88483-3.438743 0.516658-2.202151 3.675897-2.422366 3.709777-14.102233 2.278379-21.039007 0.779222-36.132208 7.495781-29.034508 12.90799-51.20847 48.404963-51.115302 79.751729-7.199338-3.464152-4.090918-16.03335-4.141737-22.860017-0.415021-54.714971 3.040662-95.666501 17.617204-148.551993 9.257502-33.599735 36.614988-87.916625 40.468751-117.408503 4.556758-34.861737-1.998875-79.489165 0.152457-116.18038 2.269909-38.783259 8.944119-81.03914 17.490157-119.610654 7.57201-34.167213 30.330389-118.492639 75.728569-115.367278 19.311166 1.32976 64.700877 27.044103 82.631464 38.190372 32.744285 20.336013 65.91206 45.86402 93.997949 72.179719 12.044069 6.182961 34.412837-4.345012 47.981472-6.25919 58.729661-8.266534 127.699322-10.892175 186.793185-4.150207 20.005691 2.278379 43.373896 10.341638 62.490256 12.272755 5.894988 0.592887 14.779818 1.151894 20.175087-0.423491 3.159239-0.923209 36.614988-32.854392 44.322514-38.766319 19.548321-15.000033 45.999537-32.778164 67.563673-44.610488 42.450687-23.283507 78.955567-42.781009 112.877155 5.073416 28.373863 40.028321 45.457469 163.882349 48.06617 213.676361 1.78713 34.124864-4.294194 75.499884-0.110108 108.134061 2.67646 20.869611 23.774756 61.414591 31.211249 85.121588 19.522911 62.244632 27.823325 111.123904 26.874707 176.663292-0.110108 7.495782 2.972903 18.015285-4.141737 22.876956zM146.795651 289.684433c22.165492-18.616642 41.442779-40.273945 64.294326-58.255351 21.987626-17.295352 47.354706-30.29651 68.58005-47.888304 1.448337-4.827792-3.658958-7.317916-6.166022-10.189182-14.856046-17.066667-54.494756-56.959471-75.457535-61.744913-16.812572-3.836824-32.625707 12.518379-37.919338 27.323606-11.662928 32.608768-14.559603 72.755666-17.676493 106.948288-1.456807 15.974061 3.718246 28.424682 4.336542 43.814326z m735.365823 0v-81.01373c0-0.931679-3.150769-2.439305-3.455682-4.853201-4.302663-34.133333-7.919272-98.766452-56.11249-87.942035-15.635269 3.514971-55.384086 43.738098-67.174061 57.45919-6.996063 8.139487-11.061572 13.212903 0.525128 20.293664 18.193151 11.11239 38.698561 22.851547 55.401026 35.996691 19.556791 15.398114 39.122051 37.83464 58.348519 53.834111 4.209495 3.498031 5.32751 7.936212 12.46756 6.23378z m-0.177866 49.997287c-23.817105-3.642018-17.032787 7.046882-22.495814 20.810323-8.529098 21.496377-29.889959 54.139024-27.137271 76.609429 3.769065 30.72847 39.037353 51.725128 66.310141 33.193185 27.984251-19.014723 21.242283-45.177965 10.561852-72.654028-7.631299-19.624549-21.894458-37.216344-27.238908-57.958909z m-553.790041 8.842482c-31.033383 6.835136-42.577734 44.839173-25.494127 69.833581 32.346203 47.329297 129.071431 48.98091 113.461571-22.055384-6.979123-31.744847-58.221472-54.32536-87.967444-47.778197z m345.02617 0.177866c-35.463093 4.43818-88.297767 39.943623-64.692407 79.573863 31.812605 53.41062 131.290521 9.308321 119.221043-44.458032-5.488437-24.452341-30.821638-38.088734-54.528636-35.115831z m-544.828982 57.594706c-11.358015 3.345575-37.995567 62.973036-39.714938 76.634839-4.133267 32.871332 30.669181 56.070141 59.602051 38.825608 35.768007-21.318511 0.87239-82.089396-7.631299-111.682912-3.12536-4.43818-7.207808-5.259752-12.255814-3.777535z m262.072853 120.64397c-6.064384 1.185773-12.247345 8.673085-18.083044 11.180149-29.186964 12.569198-63.904715 14.779818-94.633184 9.062697-16.693995-3.10842-61.253664-25.163805-68.11421-1.473747-6.784318 23.410554 11.874673 31.694028 31.516162 38.071795 55.138462 17.913648 136.109843 11.798445 167.066998-43.297668-1.177304-8.749313-9.079636-15.237188-17.752722-13.543226z m420.432887 44.635898c6.267659-11.485062 6.945244-25.409429-3.464152-34.73469-13.831199-12.382862-26.679901 1.524566-40.384053 5.412208-30.059355 8.529098-63.379586 11.798445-93.904781 4.217966-20.319074-5.039537-36.08139-21.233813-56.807014-19.904053-12.306634 25.629644 24.003441 44.703656 44.449562 53.029479 50.945906 20.759504 101.680066 17.447808 150.110438-8.03785z" fill="#F7C27E" p-id="6105"></path><path d="M146.795651 289.684433c-0.618296-15.389644-5.79335-27.831795-4.336542-43.814325 3.11689-34.192622 6.005095-74.33105 17.676493-106.948288 5.293631-14.796758 21.106766-31.15196 37.919338-27.323607 20.954309 4.776973 60.593019 44.669777 75.457535 61.744914 2.507064 2.879735 7.614359 5.36139 6.166022 10.189181-21.225343 17.600265-46.592423 30.592953-68.58005 47.888304-22.851547 17.981406-42.137304 39.63871-64.294326 58.255352zM882.161474 289.684433c-7.14005 1.702432-8.258065-2.727279-12.46756-6.23378-19.226468-15.999471-38.783259-38.427527-58.348519-53.83411-16.702465-13.153615-37.207874-24.884301-55.401026-35.996692-11.59517-7.080761-7.521191-12.154177-0.525128-20.293664 11.789975-13.712622 51.538792-53.944218 67.174061-57.459189 48.193218-10.824417 51.801356 53.808701 56.11249 87.942034 0.304913 2.413896 3.455682 3.929992 3.455682 4.853201v81.013731z" fill="#F9C7B6" p-id="6106"></path><path d="M673.219737 348.702068c23.706998-2.964433 49.031729 10.66349 54.528636 35.115831 12.069479 53.766352-87.408437 97.868652-119.221043 44.458032-23.60536-39.63024 29.229313-75.135682 64.692407-79.573863z" fill="#F8EEDB" p-id="6107"></path><path d="M328.193567 348.524202c29.745972-6.547163 80.988321 16.03335 87.967444 47.778197 15.609859 71.036294-81.115368 69.384682-113.461571 22.055384-17.083606-24.994409-5.539256-63.006915 25.494127-69.833581z" fill="#F8EFDC" p-id="6108"></path><path d="M810.896495 571.576642c-48.430372 25.477188-99.164533 28.797353-150.110438 8.037849-20.446121-8.334293-56.756195-27.408304-44.449562-53.029479 20.734094-1.33823 36.48794 14.856046 56.807014 19.904053 30.516725 7.57201 63.845426 4.302663 93.904781-4.217965 13.695682-3.887643 26.552854-17.79507 40.384053-5.412208 10.409396 9.325261 9.731811 23.249628 3.464152 34.734689z" fill="#513027" p-id="6109"></path><path d="M390.463608 526.940744c8.673085-1.693962 16.575418 4.793912 17.752722 13.543226-30.957155 55.096112-111.928536 61.202845-167.066998 43.297668-19.641489-6.377767-38.30048-14.652771-31.516162-38.071795 6.860546-23.690058 51.420215-1.634673 68.11421 1.473747 30.72847 5.717122 65.44622 3.506501 94.633184-9.062697 5.835699-2.515533 12.01866-10.002845 18.083044-11.180149z" fill="#523028" p-id="6110"></path><path d="M881.983608 339.68172c5.34445 20.734094 19.60761 38.334359 27.238908 57.958909 10.68043 27.476063 17.430868 53.639305-10.561852 72.654028-27.272787 18.531944-62.549545-2.464715-66.310141-33.193185-2.752688-22.470405 18.608172-55.113052 27.137271-76.609429 5.463027-13.754971-1.32129-24.452341 22.495814-20.810323z m-8.122547 28.94134c-6.445525 21.80976-35.225939 63.413466-14.678181 83.215881 13.314541 12.831762 26.222531 8.300414 37.631365-4.175616 7.207808-19.937932-1.710902-36.208437-8.351232-54.198313l-14.601952-24.850421z" fill="#44B0D5" p-id="6111"></path><path d="M128.390755 406.296774c5.048007-1.490687 9.130455-0.660645 12.255814 3.777535 8.503689 29.593515 43.407775 90.3644 7.631299 111.682912-28.93287 17.244533-63.735318-5.954276-59.602051-38.825608 1.719371-13.661803 28.356923-73.297734 39.714938-76.634839z m-2.363077 32.95603c-5.005658 21.166055-20.183557 32.524069-16.710935 56.188718 2.269909 15.474342 26.120893 21.242283 32.676526 7.56354 7.800695-16.270505-0.525128-37.055418-7.487312-53.554607-1.7956-4.243375-2.549413-9.697932-8.478279-10.206121z" fill="#45B1D8" p-id="6112"></path><path d="M940.323658 597.121588c-2.23603 4.734624-11.230968 14.102233-16.617767 16.617767-13.594045 6.343888-23.783226 5.429148-35.395335-4.073979-2.540943-2.083573-14.102233-15.457403-14.457965-16.702465-4.167146-14.517254 4.870141-39.723408 10.316228-54.079735 2.2445-5.920397 10.045194-25.460248 12.416741-29.127676 5.073416-7.851514 17.303821-5.513846 22.453466 2.70187 12.797883 20.386832 31.812605 62.3378 21.284632 84.664218z m-31.16043-62.295451c-11.688337 11.806915-26.417337 49.641555-10.604202 60.440563 40.358644 13.119735 25.80751-40.621208 10.604202-60.440563z" fill="#47B0D7" p-id="6113"></path><path d="M873.861061 368.62306l14.601952 24.850422c6.640331 17.981406 15.559041 34.26038 8.351232 54.198313-11.408834 12.47603-24.316824 17.007378-37.631365 4.175616-20.547758-19.802415 8.232655-61.406121 14.678181-83.215881z" fill="#BCDBE9" p-id="6114"></path><path d="M126.027678 439.252804c5.928867 0.508189 6.68268 5.962746 8.478279 10.206121 6.962184 16.49072 15.288007 37.284103 7.487312 53.554607-6.555633 13.678743-30.406617 7.910802-32.676526-7.56354-3.464152-23.664648 11.705277-35.031133 16.710935-56.188718z" fill="#C1DFEA" p-id="6115"></path><path d="M909.163228 534.826137c15.203309 19.810885 29.754442 73.551828-10.604202 60.440563-15.821605-10.799007-1.084136-48.633648 10.604202-60.440563z" fill="#BDDFED" p-id="6116"></path></svg>