<?xml version="1.0" standalone="no"?><!DOCTYPE svg PUBLIC "-//W3C//DTD SVG 1.1//EN" "http://www.w3.org/Graphics/SVG/1.1/DTD/svg11.dtd"><svg t="1772951583892" class="icon" viewBox="0 0 1024 1024" version="1.1" xmlns="http://www.w3.org/2000/svg" p-id="5781" xmlns:xlink="http://www.w3.org/1999/xlink" width="200" height="200"><path d="M913.925623 127.470933c16.4608 38.468267-4.608 82.952533-45.8752 93.243734-3.217067 0.802133-22.212267 4.0448-24.379733 3.899733-9.0368-0.622933-16.750933-7.978667-14.293333-17.4848 1.877333-13.713067 22.536533-9.8048 32.384-11.4944 12.407467-2.133333 27.1104-14.1824 29.866666-26.530133 2.9184-13.064533-2.679467-28.526933 3.797334-41.634134h18.491733z" fill="#523228" p-id="5782"></path><path d="M957.51389 124.629333c6.8864 6.596267 0.6912 17.5104 1.058133 22.468267 0.7424 9.966933 6.562133 26.077867 13.508267 33.450667 4.0704 4.317867 19.618133 10.794667 25.634133 11.963733 9.873067 1.92 27.741867-2.372267 26.197334 14.72-2.1248 23.5264-52.215467 4.8384-64.452267-4.6592-9.693867-7.5264-21.8368-27.204267-23.389867-39.278933-0.9984-7.825067-1.553067-33.297067 2.9952-37.632 4.9152-4.0192 13.781333-5.512533 18.449067-1.041067z" fill="#503027" p-id="5783"></path><path d="M988.319223 231.3216c12.817067-2.193067 37.640533-2.414933 31.982934 16.3072-3.285333 10.871467-17.425067 7.159467-25.719467 8.7552-14.3104 2.756267-27.818667 12.996267-32.827733 26.709333-0.8704 2.389333-3.797333 13.312-3.780267 15.0016 0.0512 5.930667 8.772267 19.072-5.085867 23.125334-24.704 7.227733-20.932267-29.218133-16.3072-44.501334 6.161067-20.360533 30.685867-41.787733 51.746134-45.3888z" fill="#533127" p-id="5784"></path><path d="M916.75869 327.3984c-8.251733 4.352-12.8256 3.8144-21.154133 0.136533-3.882667-9.233067 0.699733-17.211733-0.341334-26.2656-1.8944-16.392533-12.936533-29.056-28.066133-34.628266-15.240533-5.6064-45.815467-1.877333-28.4672-25.122134 51.5072-11.579733 95.317333 35.652267 78.037333 85.870934z" fill="#4F2E26" p-id="5785"></path><path d="M725.21949 80.878933l5.410133-0.6656c21.205333 3.421867 35.1744 9.838933 48.776534 26.683734 32.810667 40.644267 49.911467 137.002667 53.1456 188.117333 2.184533 34.525867-4.181333 76.672 0.119466 109.550933 2.816 21.563733 23.253333 61.090133 30.523734 85.4016 73.1392 244.548267-64.6144 393.335467-296.064 441.8816-204.8512 42.965333-530.3808-25.992533-564.7616-273.5104-8.072533-58.103467 5.666133-126.984533 23.338666-183.313066 5.521067-17.604267 24.968533-56.849067 26.171734-70.9376 0.290133-3.421867-2.679467-7.313067-2.730667-11.8784-0.750933-70.801067 5.2736-226.269867 50.218667-282.180267 38.033067-47.300267 86.459733-24.132267 129.604266 2.107733 16.938667 10.299733 35.976533 23.867733 52.0448 35.6864 8.311467 6.109867 25.0624 24.072533 33.536 25.975467 12.3648 2.773333 25.1392-4.061867 37.154134-5.6832 57.224533-7.7056 121.1904-7.7056 178.474666 0 15.863467 2.133333 29.9008 12.023467 45.405867 1.416533 4.189867-2.8672 7.057067-7.799467 10.990933-10.939733 36.189867-28.910933 92.416-71.330133 138.624-77.713067zM27.372023 650.581333c5.154133 43.434667 11.989333 66.005333 34.466134 103.3984 83.2512 138.461867 309.973333 182.5024 458.9568 162.8672 101.572267-13.380267 235.741867-65.1008 293.026133-153.463466 27.042133-41.719467 37.930667-62.6944 43.869867-112.7936 6.877867-58.129067-2.184533-109.627733-20.292267-166.135467-6.587733-20.5568-24.174933-54.613333-26.658133-73.608533-3.8144-29.166933 1.800533-66.6624 0.085333-97.220267-2.7136-48.426667-16.4608-139.144533-41.361067-181.102933-25.540267-43.050667-58.222933-28.398933-94.583466-7.8336-36.164267 20.4544-68.334933 49.28-101.1712 74.282666l-52.898134-8.917333c-60.032-5.1968-122.1888-5.674667-181.563733 3.182933-9.3184 1.390933-26.0096 8.2944-34.210133 5.794134-29.064533-26.1632-62.779733-52.846933-96.878934-72.311467-29.806933-17.006933-66.594133-37.461333-91.392-2.440533-24.644267 34.7904-40.123733 130.986667-42.513066 173.678933-1.937067 34.449067 4.369067 76.885333 0.085333 109.7472-2.688 20.5824-19.882667 54.596267-26.6752 76.7232-17.262933 56.251733-27.118933 108.4928-20.2752 166.152533z" fill="#4B2B22" p-id="5786"></path><path d="M857.682423 650.581333c-7.304533-12.501333-9.762133-27.392-18.7392-39.227733-4.8896-6.442667-16.827733-16.093867-24.029866-19.822933-6.161067-3.191467-8.823467-2.304-13.627734-3.6096-1.706667-0.4608-2.372267-2.56-9.403733-3.131734-2.602667-5.418667-12.1088-3.106133-17.245867-3.1232-50.269867-0.187733-71.936 16.861867-114.3552 34.4576-6.101333 2.5344-19.2 4.770133-26.231466 6.7584l-1.9712 2.645334c-1.024-0.017067-2.1248-0.110933-3.131734 0-7.022933 0.785067-8.8576 3.080533-9.403733 3.131733-7.970133 0.836267-16.913067-0.571733-25.0624 0-43.118933-11.332267-42.6496-16.836267-75.332267-42.1632-28.245333-21.888-66.679467-27.537067-101.623466-23.560533-60.526933 6.8864-87.3984 74.376533-152.0384 65.723733l-43.869867-12.535467c-28.586667-17.425067-62.199467-28.450133-95.428267-34.602666l-29.9008 3.268266c-23.125333 2.722133-44.501333 16.247467-55.901866 36.5312-5.393067 9.591467-7.133867 20.189867-13.0304 29.269334-6.8352-57.668267 3.012267-109.9008 20.2752-166.152534 6.792533-22.126933 23.9872-56.1408 26.6752-76.7232 4.292267-32.861867-2.013867-75.306667-0.085334-109.7472 2.397867-42.692267 17.8688-138.888533 42.513067-173.678933 24.8064-35.012267 61.585067-14.5664 91.392 2.440533 34.0992 19.464533 67.8144 46.148267 96.878933 72.311467 8.209067 2.500267 24.900267-4.4032 34.210134-5.794133 59.383467-8.8576 121.531733-8.388267 181.563733-3.182934l52.898133 8.917334c32.836267-25.002667 65.006933-53.828267 101.1712-74.282667 36.360533-20.565333 69.0432-35.217067 94.583467 7.8336 24.891733 41.9584 38.638933 132.676267 41.361067 181.102933 1.7152 30.557867-3.899733 68.0448-0.085334 97.220267 2.4832 18.9952 20.0704 53.060267 26.658134 73.608533 18.107733 56.507733 27.170133 108.014933 20.292266 166.135467zM124.506957 318.446933c5.376 1.297067 6.229333-2.056533 9.3952-4.693333 18.653867-15.530667 33.928533-35.191467 53.4016-49.9968 7.5008-5.700267 52.155733-31.6928 53.026133-34.7392 1.314133-4.565333-0.546133-6.2208-2.961067-9.344-8.832-11.400533-26.3424-28.663467-37.8112-37.384533-33.655467-25.6-52.3008-23.458133-64.896 19.4304-5.5296 18.8416-8.9344 45.841067-10.103466 65.092266-1.041067 17.109333 0.6144 34.525867-0.059734 51.6352z m516.992-87.7568c42.820267 18.3296 76.9792 53.546667 109.653333 86.203734 1.7152 3.054933 5.777067-2.065067 6.126933-3.2768 1.8944-6.6048 0.878933-40.8576 0.273067-50.133334-1.2288-18.875733-7.492267-55.765333-14.1312-73.6-13.533867-36.3776-39.04-26.2144-62.830933-6.2208-5.4528 4.5824-35.6352 33.792-37.640534 37.563734-1.757867 3.319467-1.8432 5.888-1.4592 9.463466zM390.840823 465.732267c-5.0176 10.3936 3.831467 17.1264 5.649067 27.221333 3.208533 17.834667-3.831467 25.454933-11.844267 39.893333 13.6704 20.292267 28.151467-7.9104 30.6432-22.289066 2.363733-13.653333-4.5568-49.911467-24.448-44.8256z m93.969067 3.1232c-3.7376 0.657067-5.8112-2.577067-9.412267-1.774934-16.162133 3.592533-17.937067 38.869333-14.225066 52.053334 3.293867 11.6992 14.293333 24.789333 26.769066 18.645333 2.6368-12.7488-12.535467-23.620267-12.535466-36.027733 0-9.693867 12.381867-21.742933 9.3952-32.896z m190.7968 0.3584c-0.64-0.631467-7.150933-2.730667-9.130667-2.176l-151.492266 80.529066-7.5008 10.5984 2.466133 7.748267 18.4576 0.3584c9.813333 29.457067 51.037867 39.6544 76.6464 24.379733 27.639467-16.477867 32.861867-49.416533 22.152533-77.943466l51.669334-33.271467c0.238933-1.152-2.901333-9.847467-3.2768-10.222933zM368.76509 565.845333l3.012267-8.123733c1.2544-6.391467-23.995733-19.259733-30.0032-22.587733-41.1648-22.801067-85.341867-40.6528-125.2608-65.860267-6.4768-1.211733-12.663467-1.783467-16.810667 4.292267-3.131733 11.579733 26.4448 25.147733 35.421867 30.3616 4.4032 2.56 9.514667 5.2736 14.6688 5.7088 2.141867 1.9968-6.1952 24.746667-6.1952 29.7216 0 4.164267 4.898133 22.9888 6.877866 27.5456 17.646933 40.695467 84.053333 41.514667 99.899734-0.631467l18.389333-0.418133z m59.665067-89.1648v50.133334c0 2.6368 6.903467 5.7344 10.8288 4.565333 11.921067-3.549867 9.002667-48.699733 4.753066-59.332267l-10.709333 0.1024-4.872533 4.522667z" fill="#F7C07B" p-id="5787"></path><path d="M124.506957 318.446933c0.674133-17.109333-0.981333-34.525867 0.059733-51.6352 1.169067-19.2512 4.573867-46.250667 10.103467-65.092266 12.586667-42.888533 31.240533-45.038933 64.896-19.4304 11.460267 8.721067 28.970667 25.992533 37.8112 37.384533 2.414933 3.114667 4.2752 4.778667 2.961066 9.344-0.878933 3.0464-45.525333 29.0304-53.026133 34.7392-19.473067 14.805333-34.747733 34.466133-53.4016 49.9968-3.165867 2.6368-4.0192 5.9904-9.3952 4.693333z" fill="#F9C6B4" p-id="5788"></path><path d="M641.498957 230.690133c-0.375467-3.584-0.298667-6.152533 1.4592-9.463466 1.9968-3.771733 32.187733-32.981333 37.640533-37.563734 23.799467-19.9936 49.297067-30.1568 62.830933 6.2208 6.638933 17.834667 12.9024 54.724267 14.1312 73.6 0.605867 9.275733 1.621333 43.52-0.273066 50.133334-0.349867 1.211733-4.411733 6.340267-6.126934 3.2768-32.682667-32.657067-66.8416-67.882667-109.653333-86.203734z" fill="#F8C6B4" p-id="5789"></path><path d="M368.76509 565.845333l-18.389333 0.418134c-15.837867 42.146133-82.2528 41.326933-99.899734 0.631466-1.979733-4.565333-6.877867-23.389867-6.877866-27.5456 0-4.974933 8.328533-27.716267 6.1952-29.7216-5.154133-0.4352-10.2656-3.1488-14.6688-5.7088-8.977067-5.213867-38.5536-18.781867-35.421867-30.3616 4.155733-6.075733 10.3424-5.504 16.810667-4.292266 39.927467 25.207467 84.104533 43.0592 125.2608 65.860266 6.007467 3.328 31.2576 16.196267 30.0032 22.587734l-3.012267 8.123733z" fill="#513128" p-id="5790"></path><path d="M675.60669 469.213867c0.384 0.375467 3.515733 9.070933 3.2768 10.222933l-51.669333 33.271467c10.7008 28.5184 5.4784 61.457067-22.152534 77.943466-25.608533 15.274667-66.833067 5.077333-76.6464-24.379733l-18.4576-0.3584-2.466133-7.748267 7.5008-10.5984 151.492267-80.529066c1.988267-0.554667 8.4992 1.544533 9.130666 2.176z" fill="#513028" p-id="5791"></path><path d="M390.840823 465.732267c19.8912-5.077333 26.811733 31.172267 24.448 44.8256-2.491733 14.378667-16.9728 42.581333-30.6432 22.289066 8.0128-14.4384 15.0528-22.058667 11.844267-39.893333-1.8176-10.094933-10.666667-16.827733-5.649067-27.221333z" fill="#4F3127" p-id="5792"></path><path d="M484.80989 468.855467c2.986667 11.153067-9.3952 23.202133-9.3952 32.896 0 12.407467 15.163733 23.278933 12.535467 36.027733-12.475733 6.152533-23.4752-6.9376-26.769067-18.645333-3.712-13.184-1.937067-48.4608 14.225067-52.053334 3.601067-0.802133 5.674667 2.432 9.412266 1.774934z" fill="#563429" p-id="5793"></path><path d="M428.430157 476.680533l4.872533-4.522666 10.709333-0.1024c4.258133 10.632533 7.168 55.7824-4.753066 59.332266-3.925333 1.169067-10.8288-1.928533-10.8288-4.565333v-50.133333z" fill="#5D3A2E" p-id="5794"></path><path d="M594.488823 628.642133c1.5104 0.392533 6.2976 5.7344 12.526934 3.157334-0.145067 13.056 0.170667 26.180267 0.1536 39.261866-0.017067 10.939733-1.8944 21.853867-0.085334 34.2784 8.8064 60.535467 55.842133 91.323733 114.167467 95.761067 14.5408 1.109333 29.789867-2.850133 43.648 2.756267 7.765333-5.3248 9.821867-14.336 17.672533-20.0448 8.2944-6.033067 13.1328-7.492267 21.853867-15.744 1.5104-1.425067 8.1152-10.948267 9.403733-4.701867-57.284267 88.3712-191.453867 140.0832-293.026133 153.463467-148.992 19.6352-375.714133-24.405333-458.9568-162.8672 5.461333-9.4976 5.853867 0.622933 7.850667 3.003733 28.458667 33.8944 80.136533 40.584533 121.5232 30.813867 27.1872-6.417067 56.891733-28.014933 68.6336-53.563734 12.219733-26.581333 14.267733-56.4736 8.302933-84.727466-1.152-5.444267-11.7248-15.0016-2.645333-20.846934 64.64 8.6528 91.511467-58.837333 152.0384-65.723733 34.935467-3.976533 73.378133 1.672533 101.623466 23.560533 32.6912 25.326933 32.213333 30.830933 75.332267 42.1632z m-170.094933-43.195733c-6.8864 0.964267-22.5536 5.614933-28.4672 9.1392-35.754667 21.265067-16.426667 55.4752 14.651733 69.1456 29.866667 13.141333 72.5248 3.985067 87.458134-26.5728 5.265067-10.769067 6.101333-16.443733 0.9472-27.383467-10.641067-22.587733-52.215467-27.477333-74.5984-24.337066zM543.92029 772.334933c7.714133-7.3728 1.1008-23.1936-4.343467-30.805333-26.308267-36.753067-89.1392-49.373867-130.926933-40.226133-23.3728 5.12-58.922667 24.0896-70.656 45.269333-13.115733 23.671467 9.890133 39.6544 19.9168 23.048533 3.072-5.077333 2.978133-10.786133 7.790933-17.271466 26.8544-36.206933 106.734933-33.646933 140.9792-9.258667 13.4144 9.557333 13.243733 23.005867 18.773334 28.219733 4.462933 4.206933 14.088533 5.213867 18.474666 1.015467z" fill="#F9EFDD" p-id="5795"></path><path d="M96.30429 584.7808l28.194133 1.5616c-27.6224 19.669333-49.271467 37.051733-56.354133 72.1152-0.5888 2.926933-3.1744 20.130133-3.1488 21.870933 0.0512 3.268267 3.0464 6.178133 3.089067 9.437867 0.042667 3.566933-3.5584 7.168-3.2512 12.381867 0.648533 11.050667 11.946667 28.996267 20.445866 36.224 22.237867 18.901333 52.1984 31.044267 81.450667 28.074666 51.4304-5.2224 84.48-50.235733 76.0064-101.060266-3.2-19.217067-10.461867-22.3232-19.345067-36.923734-1.783467-2.935467-8.388267-10.666667-1.757866-12.3392l43.869866 12.535467c-9.070933 5.845333 1.501867 15.402667 2.645334 20.846933 5.9648 28.253867 3.9168 58.146133-8.302934 84.727467-11.741867 25.5488-41.4464 47.146667-68.6336 53.563733-41.386667 9.7792-93.064533 3.089067-121.5232-30.813866-1.9968-2.3808-2.389333-12.501333-7.850666-3.003734-22.4768-37.393067-29.312-59.963733-34.466134-103.3984 5.896533-9.079467 7.637333-19.677867 13.0304-29.269333 11.400533-20.2752 32.776533-33.809067 55.901867-36.5312z" fill="#F9E4CC" p-id="5796"></path><path d="M801.285623 587.912533c4.8128 1.3056 7.4752 0.418133 13.627734 3.6096 7.202133 3.7376 19.140267 13.380267 24.029866 19.822934 8.977067 11.835733 11.434667 26.7264 18.7392 39.227733-5.930667 50.0992-16.8192 71.074133-43.869866 112.7936-1.28-6.2464-7.893333 3.268267-9.403734 4.701867-8.721067 8.260267-13.559467 9.710933-21.853866 15.744-7.850667 5.7088-9.898667 14.72-17.672534 20.0448-13.858133-5.6064-29.1072-1.646933-43.648-2.756267-58.325333-4.437333-105.361067-35.2256-114.167466-95.761067-1.809067-12.424533 0.068267-23.3472 0.085333-34.2784 0.017067-13.0816-0.298667-26.2144-0.1536-39.261866-6.229333 2.568533-11.016533-2.7648-12.526933-3.157334 8.149333-0.571733 17.092267 0.836267 25.0624 0l7.441066-0.341333 1.954134-2.7904c1.006933-0.110933 2.107733-0.017067 3.131733 0 2.858667 0.042667 8.7808-1.476267 9.3952 1.5616-33.271467 35.242667-21.6064 105.582933 15.803733 134.596267 22.826667 17.698133 66.909867 26.146133 94.916267 19.9936 11.793067-2.594133 33.024-18.184533 44.962133-23.970134 4.317867-2.090667 9.847467-0.904533 16.554667-5.376 9.634133-6.408533 14.609067-24.4224 21.290667-34.389333-10.8032-19.080533-3.191467-43.4176-6.203734-65.1264-3.285333-23.68-15.488-45.474133-35.387733-58.615467l7.850667-6.280533z" fill="#F7E8D3" p-id="5797"></path><path d="M221.633357 616.1152c-6.6304 1.681067-0.0256 9.412267 1.757866 12.3392 8.8832 14.592 16.136533 17.706667 19.345067 36.923733 8.4736 50.824533-24.576 95.8464-76.0064 101.060267-29.252267 2.9696-59.2128-9.173333-81.450667-28.074667-8.4992-7.227733-19.797333-25.1648-20.445866-36.224-0.3072-5.213867 3.293867-8.814933 3.2512-12.381866-0.042667-3.259733-3.037867-6.1696-3.089067-9.437867-0.0256-1.7408 2.56-18.944 3.1488-21.870933 7.082667-35.054933 28.7232-52.445867 56.354133-72.1152l-28.194133-1.5616 29.9008-3.268267c33.2288 6.144 66.8416 17.169067 95.428267 34.602667z m-79.300267-11.912533c-18.824533 3.2768-47.658667 32.4352-51.703467 51.677866-2.816 20.522667-7.133867 32.699733 2.986667 52.215467 12.706133 24.4992 42.5728 39.483733 69.973333 36.411733 21.691733-2.432 37.0176-18.645333 50.295467-34.304 1.527467-16.4352 8.439467-29.0048 4.573867-45.4912-3.1232-13.294933-17.1008-39.022933-28.2368-46.9504-11.579733-8.2432-33.911467-15.991467-47.880534-13.559466z" fill="#F9D6BB" p-id="5798"></path><path d="M791.890423 584.7808c-8.106667-0.657067-18.397867-0.4096-26.658133 0-6.101333 0.298667-4.9408-0.4096-4.6848 6.254933 5.572267 0.119467 9.9328 2.978133 14.165333 6.2208 18.005333 13.7728 39.202133 41.4976 42.1888 64.341334 1.672533 12.817067 2.4576 33.851733-0.546133 46.344533-5.265067 21.922133-26.308267 38.894933-46.353067 47.6416-6.749867 2.944-23.739733 9.173333-30.4128 10.325333-17.245867 2.986667-52.138667-3.2768-66.679466-13.585066-36.778667-26.069333-41.608533-88.004267-17.237334-123.605334 1.664-2.423467 18.4064-14.3872 4.625067-12.612266 42.4192-17.595733 64.085333-34.653867 114.3552-34.4576 5.128533 0.017067 14.6432-2.286933 17.245867 3.1232z m10.461867 91.246933c0-40.209067-32.597333-72.8064-72.8064-72.8064s-72.8064 32.597333-72.8064 72.8064 32.597333 72.8064 72.8064 72.8064 72.8064-32.597333 72.8064-72.8064z" fill="#F9D7BC" p-id="5799"></path><path d="M791.890423 584.7808c7.031467 0.571733 7.697067 2.670933 9.403734 3.131733l-7.850667 6.280534c19.899733 13.141333 32.093867 34.926933 35.387733 58.615466 3.012267 21.7088-4.590933 46.045867 6.203734 65.1264-6.690133 9.966933-11.656533 27.972267-21.290667 34.389334-6.715733 4.471467-12.2368 3.285333-16.554667 5.376-11.938133 5.777067-33.169067 21.376-44.962133 23.970133-28.014933 6.152533-72.098133-2.286933-94.916267-19.9936-37.410133-29.021867-49.0752-99.3536-15.803733-134.596267-0.6144-3.037867-6.536533-1.518933-9.3952-1.5616l1.9712-2.645333c7.031467-1.988267 20.130133-4.224 26.231467-6.7584 13.781333-1.783467-2.961067 10.180267-4.625067 12.612267-24.362667 35.601067-19.541333 97.536 17.237333 123.605333 14.5408 10.308267 49.4336 16.571733 66.679467 13.585067 6.664533-1.152 23.662933-7.381333 30.4128-10.325334 20.053333-8.746667 41.088-25.719467 46.353067-47.6416 3.003733-12.4928 2.2272-33.527467 0.546133-46.344533-2.986667-22.843733-24.183467-50.568533-42.1888-64.341333-4.232533-3.242667-8.6016-6.101333-14.165333-6.2208-0.256-6.664533-1.416533-5.956267 4.6848-6.254934 8.260267-0.4096 18.551467-0.657067 26.658133 0zM628.954957 625.5104l-1.954134 2.7904-7.441066 0.341333c0.5376-0.059733 2.3808-2.346667 9.403733-3.131733z" fill="#F8E2CB" p-id="5800"></path><path d="M424.39389 585.4464c22.382933-3.140267 63.9488 1.7408 74.5984 24.337067 5.154133 10.9312 4.317867 16.6144-0.9472 27.383466-14.933333 30.549333-57.591467 39.714133-87.458133 26.5728-31.0784-13.678933-50.4064-47.880533-14.651734-69.1456 5.9136-3.515733 21.5808-8.1664 28.4672-9.1392z" fill="#4F2F27" p-id="5801"></path><path d="M543.92029 772.334933c-4.386133 4.1984-14.011733 3.191467-18.474667-1.015466-5.5296-5.213867-5.3504-18.670933-18.773333-28.219734-34.235733-24.388267-114.116267-26.948267-140.9792 9.258667-4.8128 6.493867-4.718933 12.194133-7.790933 17.271467-10.026667 16.597333-33.032533 0.622933-19.9168-23.048534 11.733333-21.188267 47.2832-40.157867 70.656-45.269333 41.787733-9.147733 104.618667 3.464533 130.926933 40.226133 5.444267 7.611733 12.0576 23.432533 4.343467 30.805334z" fill="#4F2F26" p-id="5802"></path><path d="M142.33309 604.202667c13.969067-2.432 36.3008 5.316267 47.880533 13.559466 11.136 7.927467 25.1136 33.655467 28.2368 46.9504 3.8656 16.4864-3.037867 29.056-4.573866 45.4912-13.277867 15.658667-28.5952 31.880533-50.295467 34.304-27.400533 3.063467-57.2672-11.921067-69.973333-36.411733-10.120533-19.515733-5.802667-31.684267-2.986667-52.215467 4.0448-19.234133 32.878933-48.392533 51.703467-51.677866z m3.0464 24.96c-6.852267 1.518933-23.0144 17.117867-26.752 23.381333-10.581333 17.7408-8.004267 38.340267 4.360533 54.365867 9.1136 11.810133 29.2608 15.138133 43.281067 12.0832 4.053333-0.878933 21.2992-13.499733 23.68-17.0496 20.744533-30.9504-6.058667-81.322667-44.578133-72.772267z" fill="#FAC9A9" p-id="5803"></path><path d="M802.35229 676.027733c0 40.209067-32.597333 72.8064-72.8064 72.8064s-72.8064-32.597333-72.8064-72.8064 32.597333-72.8064 72.8064-72.8064 72.8064 32.597333 72.8064 72.8064z m-106.939733 33.425067c1.169067 1.169067 12.458667 7.5008 14.941866 8.558933 35.106133 15.061333 71.620267-11.5712 65.860267-50.193066-0.9728-6.510933-12.177067-25.412267-17.1008-29.892267-15.2064-13.832533-47.2832-18.875733-61.277867-1.493333-1.8688 2.321067-11.477333 17.6384-11.989333 19.345066-0.9728 3.2512-3.8656 18.346667-3.882667 21.435734-0.034133 6.843733 8.797867 27.5968 13.448534 32.247466z" fill="#F9CDAE" p-id="5804"></path><path d="M145.37949 629.162667c38.519467-8.5504 65.322667 41.821867 44.578133 72.772266-2.3808 3.549867-19.626667 16.170667-23.68 17.0496-14.020267 3.054933-34.167467-0.273067-43.281066-12.0832-12.373333-16.0256-14.941867-36.625067-4.360534-54.365866 3.729067-6.263467 19.899733-21.853867 26.752-23.381334z" fill="#FBBD99" p-id="5805"></path><path d="M695.412557 709.4528c-4.650667-4.650667-13.482667-25.403733-13.448534-32.247467 0.017067-3.089067 2.909867-18.184533 3.882667-21.435733 0.512-1.706667 10.120533-17.024 11.989333-19.345067 13.986133-17.3824 46.071467-12.3392 61.277867 1.493334 4.923733 4.48 16.136533 23.381333 17.1008 29.892266 5.76 38.621867-30.754133 65.2544-65.860267 50.193067-2.474667-1.066667-13.764267-7.389867-14.941866-8.558933z" fill="#FABD9A" p-id="5806"></path></svg>