<?xml version="1.0" standalone="no"?><!DOCTYPE svg PUBLIC "-//W3C//DTD SVG 1.1//EN" "http://www.w3.org/Graphics/SVG/1.1/DTD/svg11.dtd"><svg t="1772951633454" class="icon" viewBox="0 0 1024 1024" version="1.1" xmlns="http://www.w3.org/2000/svg" p-id="8892" xmlns:xlink="http://www.w3.org/1999/xlink" width="200" height="200"><path d="M894.311545 0.769288c49.868737-6.033059 100.923606 23.98717 119.944382 70.101245 35.532755 86.178025-30.788228 172.347516-123.067579 162.354995-5.08586-0.554666-11.912518-4.590928-17.169045-3.950928-12.689051 1.535998-43.562612 24.942902-53.478332 22.289039-10.931186-2.92693 2.892796-35.285289 3.746128-43.212746 0.2816-2.611197 0.290133-5.230927 0.119467-7.85919-7.586124-14.276249-18.943976-25.130635-24.977035-40.499149-27.912498-71.014311 19.814375-150.152344 94.890547-159.2318zM834.817219 228.054335c4.027728 3.891195 32.767959-14.481048 38.374352-15.368514 4.514128-0.708266 29.07303 8.644256 41.454881 7.449591 146.926748-14.207982 108.48413-240.511697-35.976488-200.951214-70.519378 19.310909-91.784418 103.935869-50.28687 161.62113 2.74773 3.814395 10.37652 8.900255 11.340786 12.228251 3.191463 10.982386-2.909863 24.251703-4.906661 35.020756z" fill="#4E2E25" p-id="8893"></path><path d="M834.817219 228.054335c1.996797-10.769053 8.098123-24.03837 4.906661-35.020756-0.964265-3.327996-8.601589-8.413856-11.340786-12.228251-41.497548-57.685261-20.232508-142.310221 50.28687-161.62113 144.452085-39.560484 182.903237 186.743232 35.976488 200.951214-12.373318 1.194665-36.93222-8.157856-41.454881-7.449591-5.606393 0.878932-34.346623 19.259709-38.374352 15.368514z m83.959361-94.122548c28.467164-7.057058 45.286343-28.578097 38.698618-58.65806-8.123723-37.077287-72.695375-41.224481-92.475617-12.142918-5.29066 7.773857-4.462928 15.470914-3.729062 24.541836 5.870926 7.85919 14.463982 8.371189 22.911972 3.797328 5.154127-24.16637 29.593563-31.505027 44.58661-11.050652 2.31253 12.910917 0.0512 22.826638-11.810118 29.439963-6.783991 3.780262-14.865048 2.59413-20.735974 8.072523l-3.660796 31.428227c9.292788 3.720529 16.639979 3.703462 25.932768 0l0.281599-15.428247z m3.037863 42.743413c0-9.070922-7.355724-16.418113-16.418112-16.418113s-16.418113 7.355724-16.418113 16.418113 7.355724 16.418113 16.418113 16.418112 16.418113-7.355724 16.418112-16.418112z" fill="#F7F0E0" p-id="8894"></path><path d="M918.77658 133.931787l-0.281599 15.428247c-9.292788 3.703462-16.639979 3.711995-25.932768 0l3.660796-31.428227c5.870926-5.478393 13.951982-4.292261 20.735974-8.072523 11.861318-6.604792 14.122649-16.529046 11.810118-29.439963-14.993048-20.454374-39.432484-13.107184-44.58661 11.050652-8.439456 4.573861-17.041045 4.061862-22.911972-3.797328-0.733866-9.070922-1.561598-16.767979 3.729062-24.541836 19.780242-29.081563 84.351894-24.934369 92.475617 12.142918 6.587725 30.079962-10.231454 51.601002-38.698618 58.65806z" fill="#503128" p-id="8895"></path><path d="M905.396331 176.6752m-16.418113 0a16.418113 16.418113 0 1 0 32.836225 0 16.418113 16.418113 0 1 0-32.836225 0Z" fill="#51332A" p-id="8896"></path><path d="M403.526029 891.537233c-3.336529 19.225576-8.21759 37.956219-14.591982 56.396729l-30.429828 71.722577c-58.726326-6.954658-112.938525-23.364237-166.212058-48.477806 8.849056 1.894398 6.783991-3.848528 9.693855-9.284255 27.050633-50.602603 54.621798-97.382277 97.655343-136.157695 17.595711 40.678349 61.081523 61.968989 103.88467 65.791917z" fill="#F7C07A" p-id="8897"></path><path d="M680.551814 971.178733c-53.700199 25.028235-106.905465 41.164748-166.212058 48.477806-7.304524-21.171173-19.157309-40.251683-26.965299-61.337523-7.978657-21.54664-14.122649-44.134344-18.056511-66.781783 34.321023-3.234129 70.143912-17.339712 91.613751-45.166876 5.350393-6.937591 10.63252-14.481048 8.806389-24.08957 48.187673 41.343948 67.660715 85.998825 98.670809 138.529959 3.148796 5.333327 3.575462 11.349319 12.134385 10.37652z" fill="#F8C17B" p-id="8898"></path><path d="M483.167529 773.802981l-13.849583 20.770108c6.604792 2.073597 8.200523-5.34186 12.740251-6.638925 3.524262-0.998399 4.266661 3.071996 4.573861 3.174396-0.708266 6.297592-8.174923 5.205327-10.58132 9.070922-15.547714 24.994102-11.596785 63.33432-6.732792 91.349218 3.933862 22.647438 10.077854 45.235143 18.056511 66.781783 7.80799 21.08584 19.660775 40.166349 26.965299 61.337522-47.803673 5.896526-107.963597 5.666126-155.827004 0l30.429828-71.722576c6.374392-18.44051 11.255453-37.171153 14.591982-56.396729 3.447462-19.874108 6.220792-46.737008 2.790397-66.858583-0.622933-3.635195-8.601589-24.16637-10.367987-26.001033-5.094394-5.299193-18.457577-6.229325-23.594637-11.025053 3.985062-0.691199 8.959989-3.396262 11.605318-3.020796 5.21386 0.742399 9.821854 8.21759 16.093847 6.485325l-3.455996-13.849583c4.215461 2.158931 10.91412 4.130128 15.547714 7.108258 11.690652-5.41866 20.633574-9.651188 34.116224-6.553592 4.838394 1.109332 9.224522 6.587725 14.421315 6.553592 2.457597-0.017067 14.933315-8.328523 22.476772-10.564254z m-31.163695 27.733299l-15.581847-6.169592-15.607447 6.178125c14.156782 41.028215 6.417059 90.333753-5.077327 131.643568-6.280525 22.579172-15.803713 44.71461-26.0693 65.689517 11.699185-2.705063 22.476772 2.909863 32.750892 3.626662 19.976508 1.382398 37.529553-5.102927 57.284195-3.618128 1.672531-9.446388-5.742926-16.110913-8.703989-24.183437-15.394114-41.881547-34.278357-107.024932-25.864501-150.638743 0.921599-4.770127 8.379723-21.13704 6.869324-22.527972z" fill="#533128" p-id="8899"></path><path d="M614.759896 711.475593c2.278397-0.068267 4.881061 0.341333 6.929058 0l-17.254378 32.955692 3.327996 38.101286c0.947199 10.828786-1.979731 16.622912-2.705063 24.814902-0.443733 5.026127 7.842123 14.694382-0.674133 18.406376-31.66716-32.793559-73.267108-66.175917-121.198781-51.942334-7.543457 2.244264-20.019175 10.547187-22.476772 10.564253-5.196793 0.034133-9.582921-5.44426-14.421315-6.553592-13.48265-3.089063-22.425572 1.134932-34.116223 6.553592-4.633594-2.97813-11.332252-4.940794-15.547714-7.108258-5.478393-2.807463-4.821327-6.152526-15.453847-7.065591-50.218603-4.292261-80.076699 22.638905-112.673992 55.543397l-6.911991-5.196793 8.874655-8.652789c2.295464-2.679463-1.962664-4.548261-1.962664-5.196794v-72.720975c0-1.578665-7.697057-18.380777-6.929058-19.037843 10.538653-1.066665 22.946104 1.459198 33.117825 0.068267 4.616528-0.631466 4.676261-3.447462 4.974927-3.532796 36.130088-11.349319 56.635662-40.618616 89.983887-53.725799 37.102887-14.574915 81.365231-11.656519 115.583854 9.173322 47.906073 29.166897 42.615413 46.566341 109.550796 44.543944z m-181.077105-40.849015c-21.905039 4.522661-51.404735 6.613325-57.386595 32.742359-5.08586 22.237839 29.986096 47.010074 49.800471 49.604204 23.816503 3.106129 67.088982-8.823456 70.920444-36.309288 5.03466-36.172754-25.489035-40.567416-53.794066-46.771141l-9.540254 0.733866z" fill="#F9F0DD" p-id="8900"></path><path d="M102.265608 669.918312c1.143465-0.085333 2.31253 0.059733 3.464529 0-3.737595 7.944523-12.100251 12.415984-17.382378 18.97811-8.959989 11.135986-22.434105 47.889006-24.08957 62.480988-0.691199 6.084259-0.691199 14.532248 0 20.607974 0.810666 7.142391 10.163187 39.98715 13.61065 45.25221 8.106656 12.373318 47.061274 29.994629 61.542322 32.255959 4.377594 0.682666 7.372791-1.715198 9.574388-1.535998 25.898634 2.124797 41.437815 1.297065 63.991386-13.644783 3.754662-2.483197 20.172775-16.02558 22.527972-19.029309 15.001581-19.123176 6.536525-48.187673 8.866122-71.065511l-10.53012-39.67995c22.024506 7.389857 42.65808 7.88479 65.791917 6.929058-0.290133 0.093867-0.3584 2.90133-4.974927 3.532795-10.180254 1.390932-22.587705-1.134932-33.117825-0.068266-0.776532 0.657066 6.929058 17.459178 6.929058 19.037843v72.720975c0 0.648533 4.266661 2.51733 1.962664 5.196793l-8.874655 8.652789 6.911991 5.196794c-4.036262 4.070395-6.903458 11.716252-13.849583 13.849582l-27.861298 8.49919c-26.333834 19.438909-44.083145 26.444767-77.670302 22.579171-19.660775-2.26133-46.737008-20.565307-64.144986-3.379195-2.986663-3.387729-10.129054-7.022924-13.917849-12.057585-27.528499-36.633554-39.688483-78.498035-44.953544-122.990779 6.732792-9.198922 9.028255-21.751439 15.667181-31.078361 13.841049-19.430376 37.512486-29.499696 60.50979-31.25756z" fill="#FAE6D0" p-id="8901"></path><path d="M791.357007 673.382841c36.838354 12.569584 57.523128 35.524222 55.406864 76.185504-1.954131 37.39302-21.068773 68.249514-41.557281 96.955612-1.382398-6.894925-8.806389 3.635195-10.385054 5.196793-3.217063 3.165863-9.164788 10.692253-12.552517 11.682119-11.810118 3.455996-43.639412 1.885864-58.436193 3.891195-6.084259 0.827732-9.753588 5.333327-14.395716 6.382925-32.631426 7.364257-38.843684-13.35465-64.554585-24.388236l-23.202104-6.229325c-3.379196-4.095995-12.407451-12.228251-17.314112-17.314112 8.516256-3.711995 0.2304-13.38025 0.674133-18.406377 0.725332-8.200523 3.652262-13.994649 2.705063-24.814902l-3.327996-38.101285 17.254379-32.955692c2.227197-0.375466 3.771729-0.947199 3.464529-3.464529 2.218664-0.324266 5.043194 0.494933 6.929058 0 11.170119-1.254398 6.459725 3.020796 4.275194 9.463455-3.601062 10.598387-9.855988 22.903438-11.118919 33.90289-2.858663 24.968502 7.850657 60.048991 27.767432 75.946571 4.241061 3.387729 33.826091 21.794106 36.838353 22.306106 5.333327 0.895999 8.610122-2.781863 12.586651-2.431997 4.923727 0.435199 28.305031 3.345062 31.257561 2.500263 2.59413-0.742399 4.582394-4.693327 8.106656-6.015992 9.079455-3.413329 23.389837-5.427193 32.213293-9.335455 4.275195-1.894398 14.216515-9.864521 17.425045-13.738649 10.88852-13.14985 23.850637-59.255392 20.164241-75.690572-2.585597-11.554119-12.518384-24.422369-17.510378-34.431956-2.423464-4.863994-2.935463-10.47892-5.49546-15.283181-4.872527-9.139188-11.963718-15.982913-14.532248-25.284235 1.151999 0.0512 2.31253-0.0768 3.464529 0l2.099197 3.080529 11.750385 0.375467z" fill="#FAE9D3" p-id="8902"></path><path d="M510.875227 787.652564l2.099197 3.08053 11.750386 0.375466c18.065044 10.78612 29.311963 17.698111 45.013276 31.163694 1.826131 9.617055-3.455996 17.160512-8.806389 24.08957-21.46984 27.827165-57.292728 41.932747-91.613751 45.166876-4.863994-28.014898-8.806389-66.355117 6.732792-91.349218 2.406397-3.865595 9.873054-2.77333 10.58132-9.070922 1.169065 0.401066 17.143445-3.566929 24.243169-3.464529z" fill="#F7EFDC" p-id="8903"></path><path d="M372.362335 787.652564c5.13706 4.795727 18.500243 5.717326 23.594637 11.025053 1.766398 1.843198 9.745054 22.365839 10.367987 26.001034 3.421862 20.121575 0.657066 46.984474-2.790397 66.858582-42.794613-3.822929-86.288958-25.113568-103.884669-65.791917 25.941301-23.381304 37.051687-31.931693 72.720975-38.092752z" fill="#F8EFDC" p-id="8904"></path><path d="M254.628083 839.594899l-67.728982 103.824936c-4.488528 1.151999-46.378608-24.584502-53.316199-29.525296-13.397316-9.540255-36.497021-27.835698-46.933274-39.773817-2.030931-2.321064-1.237332-6.297592-1.698132-6.818125 17.407978-17.186112 44.484211 1.117865 64.144986 3.379196 33.587158 3.865595 51.336469-3.140263 77.670303-22.579172l27.861298-8.499189z" fill="#F9EFDE" p-id="8905"></path><path d="M805.215123 846.523957c-16.264513 22.801038-27.716232 37.862352-50.141803 55.47513-20.95784 16.452246-44.467144 30.975961-68.98338 41.326881-6.280525-1.365332-24.729569-40.618616-30.301829-49.518871-8.729589-13.943449-24.789302-39.44955-34.099157-50.739136l23.202104 6.229326c25.710901 11.033586 31.914627 31.752493 64.554586 24.388235 4.642127-1.049599 8.311456-5.555193 14.395715-6.382925 14.796781-2.005331 46.626075-0.443733 58.436193-3.891195 3.387729-0.989865 9.343988-8.516256 12.552518-11.682119 1.578665-1.561598 9.002655-12.091718 10.385053-5.196793z" fill="#FAF0DE" p-id="8906"></path><path d="M524.72481 791.117093l-11.750386-0.375466-2.099197-3.08053c3.874128 0.0512 7.790924-0.580266 11.639452 0.426667 1.894398 0.614399 1.885864 2.841596 2.210131 3.037862z" fill="#533128" p-id="8907"></path><path d="M452.003834 801.53628c1.510398 1.390932-5.947726 17.757844-6.869324 22.527972-8.413856 43.605278 10.470387 108.757196 25.864501 150.638743 2.969596 8.072523 10.37652 14.737048 8.703989 24.183437-19.754642-1.484798-37.299153 5.000527-57.284195 3.618128-10.27412-0.708266-21.051707-6.331725-32.750892-3.626662 10.265587-20.974907 19.788775-43.110346 26.0693-65.689517 11.494386-41.301281 19.225576-90.615353 5.077327-131.643568l15.607447-6.178125 15.581847 6.169592z" fill="#F7EFDD" p-id="8908"></path><path d="M774.042896 669.918312c2.56853 9.301322 9.668255 16.145046 14.532248 25.284235 2.559997 4.804261 3.071996 10.419187 5.49546 15.283181 4.991994 10.009587 14.924781 22.877838 17.510378 34.431957 3.686395 16.435179-9.275722 62.540721-20.164241 75.690571-3.208529 3.874128-13.14985 11.844252-17.425045 13.738649-8.823456 3.908262-23.133838 5.922126-32.213293 9.335455-3.524262 1.322665-5.512526 5.273593-8.106656 6.015993-2.95253 0.844799-26.3253-2.065064-31.257561-2.500264-3.976528-0.349866-7.261858 3.327996-12.586651 2.431997-3.012263-0.511999-32.597292-18.918376-36.838353-22.306105-19.916775-15.906113-30.626095-50.978069-27.767432-75.946571 1.254398-10.999453 7.517857-23.304504 11.118919-33.902891 2.184531-6.451192 6.894925-10.726387-4.275194-9.463455 16.836245-4.454394 43.170079-17.484778 62.327388-24.243169 6.886391 1.322665-3.694929 8.959989-5.205327 10.385053-11.067719 10.42772-28.484231 16.034113-32.273026 30.054363-1.092265 4.044795-0.1536 8.593056-1.203199 12.63785-1.109332 4.275195-5.375993 8.149323-5.870926 11.485853-0.486399 3.259729 2.628263 6.553592 2.909863 9.958387 1.544531 18.77331 4.249595 39.620217 20.949307 51.780202 18.26131 13.30345 25.412235 11.827185 46.822342 12.066118 4.164261 0.042667 8.01279 2.559997 10.291187 2.500263 3.933862-0.093867 12.467184-6.920525 17.834644-8.695456 3.891195-1.288532 8.814922 0.110933 12.782917-1.066665 5.384527-1.595731 15.274647-14.702915 17.851711-20.241041 4.164261-8.951455 9.582921-37.196753 7.953057-46.165275-5.026127-27.682099-24.652769-49.331138-47.991407-62.830855-6.357325-3.677862-19.302376-2.065064-17.169045-12.270917 2.039464-0.435199 4.744527 0.366933 6.929058 0 6.041592-1.006932 9.804788-3.404796 10.385054-3.464529 10.308254-0.964265 24.046903-0.477866 34.628223 0z" fill="#FAD9C0" p-id="8909"></path><path d="M722.100561 673.382841c-2.133331 10.205854 10.81172 8.593056 17.169045 12.270918 23.338637 13.499716 42.956746 35.140222 47.991407 62.830854 1.629865 8.968522-3.788795 37.21382-7.953057 46.165276-2.577063 5.538126-12.467184 18.64531-17.851711 20.241041-3.967995 1.177599-8.891722-0.221866-12.782917 1.066665-5.375993 1.774931-13.909316 8.601589-17.834644 8.695456-2.278397 0.0512-6.126926-2.457597-10.291187-2.500264-21.410106-0.238933-28.561031 1.237332-46.822342-12.066118-16.699712-12.168518-19.404776-33.006892-20.949307-51.780201-0.2816-3.404796-3.396262-6.698658-2.909863-9.958388 0.494933-3.336529 4.761594-7.210658 5.870926-11.485852 1.049599-4.053328 0.110933-8.593056 1.203199-12.637851 3.797329-14.020249 21.205307-19.626642 32.273026-30.054362 1.510398-1.416532 12.091718-9.062389 5.205327-10.385054 9.096522-3.208529 17.160512-8.123723 27.699165-10.385053z m-18.46611 42.120481c-6.126926 1.476265-25.386635 18.022377-26.188767 22.357305-0.486399 2.636797 2.559997 5.777059 2.372264 9.309855-0.1536 2.82453-3.140263 6.067192-2.884263 10.905586 1.595731 29.841029 42.22288 50.815936 65.85165 34.679423 17.314112-11.818652 19.618109-24.669836 20.514108-44.296478l-23.790904-31.880493-35.874088-1.075198z" fill="#F9CAAC" p-id="8910"></path><path d="M126.500244 669.918312c3.430396 0.170666 6.980258-0.315733 10.385054 0 5.62346 7.483724 1.382398 7.458124-4.505595 11.076253-7.927457 4.872527-26.598367 14.037316-31.87196 20.070375-9.779188 11.195719-18.030911 42.137547-19.174375 56.994061-2.781863 36.241021 18.28691 60.006324 51.950867 69.555113 12.305051 3.490129 34.380757 4.599461 46.395675 1.109332 2.72213-0.793599 4.676261-4.590928 8.055457-5.794126 6.280525-2.227197 14.984514-0.947199 20.095975-7.603191 18.85011-28.219698 26.777566-51.054869 14.882114-84.070294-4.155728-11.519986-12.535451-19.583975-20.044774-28.433031-2.551463-3.012263-12.091718-8.925855-3.464529-12.125851 11.118919 4.164261 24.516236 10.461854 34.628223 13.849582l10.53012 39.67995c-2.329597 22.877838 6.135459 51.942335-8.866122 71.065511-2.355197 3.00373-18.77331 16.537579-22.527972 19.029309-22.562105 14.941848-38.092752 15.761047-63.991386 13.644783-2.201597-0.1792-5.205327 2.218664-9.574388 1.535998-14.481048-2.26133-53.435666-19.882642-61.542323-32.255959-3.447462-5.26506-12.799984-38.118352-13.610649-45.25221-0.691199-6.084259-0.691199-14.532248 0-20.607974 1.655465-14.591982 15.138114-51.345002 24.089569-62.480988 5.282127-6.570658 13.644783-11.042119 17.382379-18.978109 6.681592-0.349866 14.088516-0.3328 20.77864 0z" fill="#FADAC0" p-id="8911"></path><path d="M199.221219 690.696953c-8.627189 3.191463 0.904532 9.113589 3.464529 12.125851 7.509324 8.849056 15.889047 16.913045 20.044775 28.433031 11.895452 33.015425 3.967995 55.850596-14.882115 84.070294-5.119994 6.655992-13.815449 5.375993-20.095974 7.603191-3.387729 1.203198-5.333327 5.000527-8.055457 5.794126-12.014918 3.490129-34.090624 2.380797-46.395675-1.109332-33.663958-9.548788-54.732731-33.305558-51.950868-69.555113 1.143465-14.856515 9.386655-45.798342 19.174376-56.994061 5.273593-6.033059 23.944503-15.197848 31.87196-20.070375 5.887993-3.618129 10.129054-3.592529 4.505594-11.076253 24.891702 2.321064 41.173282 12.859717 62.327389 20.778641z m-53.1114 4.036261c-16.383979 3.660795-35.660755 21.46984-43.349278 36.292221-21.410106 41.301281 3.771729 81.766297 49.715137 82.969496 3.293863 0.085333 20.872507-1.783464 23.739703-2.585597 6.203726-1.732264 26.060767-19.788775 29.269297-26.137567 6.485325-12.799984 6.340259-47.48794-1.109332-59.920991-2.227197-3.720529-18.49171-19.524242-22.570638-22.442639-10.410654-7.441057-22.911971-11.033586-35.703422-8.174923z" fill="#F9CFB3" p-id="8912"></path><path d="M433.682791 670.626578l9.540254-0.733866c28.296498 6.203726 58.828726 10.598387 53.794066 46.771141-3.831462 27.485832-47.103941 39.415417-70.920444 36.309288-19.814375-2.585597-54.886331-27.366366-49.800471-49.604204 5.981859-26.129034 35.481555-28.219698 57.386595-32.742359z" fill="#513129" p-id="8913"></path><path d="M680.551814 971.178733c-8.558923 0.972799-8.985589-5.03466-12.134385-10.37652-31.010094-52.531134-50.49167-97.186011-98.670809-138.529959-15.701314-13.474116-26.948233-20.377574-45.013277-31.163694-0.324266-0.196266-0.315733-2.423464-2.210131-3.037863-3.848528-1.006932-7.765324-0.375466-11.639452-0.426666-7.099724-0.1024-23.074104 3.865595-24.243169 3.464529-0.3072-0.1024-1.049599-4.181328-4.573861-3.174396-4.539728 1.288532-6.135459 8.712522-12.740251 6.638925l13.849583-20.770108c47.931673-14.233582 89.531621 19.148776 121.198781 51.942335 4.90666 5.08586 13.934916 13.218117 17.314111 17.314112 9.309855 11.289586 25.369568 36.80422 34.099157 50.739136 5.57226 8.900255 24.021303 48.153539 30.301829 49.518871 24.516236-10.35092 48.02554-24.866102 68.98338-41.326881 22.425572-17.612778 33.877291-32.674092 50.141803-55.475131 20.479974-28.706097 39.60315-59.562592 41.557281-96.955611l7.074125-36.206888c-0.503466-47.172207-10.70932-93.303349-25.105035-137.949693-6.698658-20.778641-24.371169-53.845266-26.931166-73.488974-3.251196-24.891702 1.305598-56.738062-0.128-82.978029-2.559997-46.873541-11.588252-114.167323-28.373298-158.6174-18.21011-48.213273-37.734353-69.26498-89.343887-45.806876-26.8117 12.185585-57.770594 35.532755-81.399365 53.648999-7.500791 5.751459-31.726893 29.994629-37.956219 30.139696-14.583448-2.628263-30.634628-7.321591-45.141276-9.233056-40.729549-5.350393-100.590807-6.604792-142.062755-3.677862-18.628243 1.314132-40.499149 8.618656-58.777526 10.461854-23.52637 2.372264-20.198375-5.913593-34.500223-17.297045-27.929565-22.237839-100.85534-75.152972-135.11663-74.751906-22.254905 0.264533-38.391418 27.460232-45.994609 46.131142-24.200503 59.391925-27.391966 130.295303-32.059693 193.015224-1.288532 17.331178 5.39306 32.358359 3.524262 48.554605-3.379196 29.25223-27.511432 77.405769-36.360487 109.055863C27.138236 639.829817 19.133979 686.447358 22.572908 727.245173c0.349866 4.104528 3.481596 4.693327 3.515729 4.991994 5.26506 44.492744 17.433578 86.357225 44.953543 122.990779 3.788795 5.043194 10.931186 8.669856 13.91785 12.057585 0.460799 0.520533-0.3328 4.497061 1.698131 6.818124 10.444787 11.938118 33.535958 30.233562 46.933274 39.773817 6.946125 4.940794 48.827672 30.677295 53.3162 29.525296l67.728981-103.824936c6.946125-2.133331 9.813321-9.779188 13.849583-13.849583 32.597292-32.895959 62.455388-59.835658 112.673991-55.543396 10.63252 0.913066 9.975454 4.249595 15.453847 7.065591l3.455996 13.849582c-6.271992 1.732264-10.879986-5.742926-16.093846-6.485325-2.64533-0.375466-7.620257 2.33813-11.605319 3.020796-35.669288 6.161059-46.771141 14.711448-72.720975 38.092752-43.025013 38.775418-70.604711 85.555092-97.655344 136.157696-2.90133 5.435726-0.844799 11.170119-9.693854 9.284255C26.421437 892.996432-32.944889 770.210453 17.324915 590.182946c7.765324-27.818632 29.661829-70.126845 32.938625-95.189214 3.805862-29.17543-1.809064-66.201517 0.128-96.827611 3.089063-48.785005 18.449043-147.592348 48.341272-187.127231 24.328503-32.17916 50.431937-34.31249 86.664425-20.735974 48.443672 18.150377 88.567355 54.544998 129.766236 83.771628 7.773857-1.211732 17.041045-4.735994 24.37117-5.759993 56.251663-7.88479 112.648392-8.618656 169.540053-3.455996l51.609535 10.026654c36.189821-30.830895 78.472435-67.225515 123.289445-84.59936 52.343401-20.292241 82.431896-0.128 104.627068 47.837807 18.978109 41.019682 31.573294 111.61586 34.082091 156.364603 1.757864 31.291694-4.275195 71.014311-0.1536 100.57374 2.90133 20.821307 25.753568 66.46605 32.989825 91.664951 52.437267 182.50217-6.135459 305.774549-174.967246 384.46885z" fill="#4E2D24" p-id="8914"></path><path d="M846.763871 749.559812c2.124797-40.661282-18.56851-63.607387-55.406864-76.185504-5.350393-1.826131-5.068794-2.892796-13.849582-3.464529-1.151999-0.0768-2.31253 0.0512-3.464529 0-10.58132-0.477866-24.319969-0.964265-34.628223 0l-8.234657 0.383999-2.150397 3.08053c-2.175997 0.366933-4.881061-0.435199-6.929058 0-10.538653 2.269864-18.602643 7.185058-27.699165 10.385053-19.165843 6.758391-45.491143 19.788775-62.327388 24.24317-1.877331 0.494933-4.710394-0.324266-6.929058 0-2.457597 0.3584-5.563726-0.699732-8.226123 0.383999l-2.158931 3.08053c-66.926849 2.022397-61.644722-15.377047-109.550795-44.543944-34.218624-20.838374-78.480968-23.75677-115.583855-9.173322-33.348225 13.09865-53.845266 42.37648-89.983887 53.725799-23.133838 0.964265-43.767412 0.460799-65.791917-6.929058-10.111987-3.396262-23.509304-9.693854-34.628223-13.849582-21.154107-7.91039-37.435686-18.457577-62.327388-20.778641-3.404796-0.315733-6.954658 0.170666-10.385054 0l-2.039464-3.080529c-6.655992-0.776532-13.491183-0.776532-20.155708 0l-2.039464 3.080529c-22.997304 1.757864-46.668741 11.818652-60.50979 31.257561-6.647458 9.326922-8.942922 21.879439-15.667181 31.078361-0.034133-0.3072-3.174396-0.887466-3.515729-4.991994-3.438929-40.797815 4.565328-87.415357 15.547714-126.685707 8.849056-31.650094 32.981292-79.803633 36.360488-109.055863 1.868798-16.187713-4.812794-31.223427-3.524262-48.554606 4.667727-62.719921 7.867723-133.623299 32.059693-193.015223 7.611724-18.67091 23.739703-45.866609 45.994608-46.131142 34.26129-0.401066 107.187065 52.505534 135.11663 74.751906 14.301849 11.391986 10.973853 19.669309 34.500224 17.297045 18.278377-1.843198 40.149283-9.139188 58.777526-10.461854 41.471948-2.935463 101.333206-1.672531 142.062754 3.677862 14.498115 1.902931 30.557828 6.604792 45.141277 9.233055 6.229325-0.145066 30.455428-24.388236 37.956219-30.139695 23.620237-18.116244 54.579131-41.463414 81.399364-53.648999 51.609535-23.44957 71.133777-2.406397 89.343887 45.806875 16.785046 44.450077 25.813301 111.743859 28.373298 158.617401 1.433598 26.239967-3.123196 58.086327 0.128 82.978029 2.56853 19.635175 20.241041 52.710334 26.931166 73.488974 14.387182 44.654877 24.593036 90.777486 25.105035 137.949693l-7.074124 36.206888zM126.500244 413.671168c5.947726 1.425065 6.886391-2.278397 10.385054-5.196793 14.532248-12.091718 26.999433-29.20103 41.702347-41.403682 19.089043-15.84638 42.001014-27.374899 62.182322-41.719414 1.220265-4.266661-3.054929-6.178126-5.196794-8.644256-29.448496-33.937024-83.259629-89.71082-101.427072-14.856514-1.629865 6.724258-7.645857 33.894357-7.645857 37.367419v74.45324z m619.843487 0v-70.988711c0-1.075199-2.815996-16.554646-3.532796-20.710374-2.36373-13.644783-12.151451-52.6506-26.333833-56.772195-28.799964-8.371189-40.917282 18.005311-61.960456 30.660228l-22.425572 26.035167c20.019175 17.297045 44.100211 29.371696 64.110853 46.677275 13.755716 11.895452 25.855967 28.322098 39.75675 39.893283 3.507196 2.918396 4.437328 6.613325 10.385054 5.196794z m-465.177015 49.049538c-29.439963 6.485325-34.61969 39.739683-17.732244 61.619123 19.362109 25.096502 71.39831 37.956219 89.855887 7.048524 23.074104-38.630351-35.404755-76.748703-72.123643-68.659113z m284.048709 0.1024c-20.556774 3.515729-47.103941 25.489035-50.41487 46.822341-2.175997 14.037316 12.031985 35.438889 26.077834 38.502352 38.553551 8.405323 86.340158-18.978109 76.774304-62.916188-4.556794-20.940774-34.423423-25.489035-52.428734-22.408505zM342.598105 630.793028c0-35.874088-29.081563-64.955652-64.955651-64.955651s-64.955652 29.081563-64.955652 64.955651 29.081563 64.955652 64.955652 64.955652 64.955652-29.081563 64.955651-64.955652z m317.123868-0.1792c0-35.908221-29.107163-65.015385-65.015385-65.015385s-65.015385 29.107163-65.015385 65.015385 29.107163 65.015385 65.015385 65.015385 65.015385-29.107163 65.015385-65.015385z" fill="#F7C17C" p-id="8915"></path><path d="M342.598105 630.793028c0 35.874088-29.081563 64.955652-64.955651 64.955652s-64.955652-29.081563-64.955652-64.955652 29.081563-64.955652 64.955652-64.955651 64.955652 29.081563 64.955651 64.955651z m-17.587177-27.758898c0-10.641053-8.627189-19.259709-19.25971-19.259709s-19.259709 8.627189-19.259709 19.259709 8.627189 19.259709 19.259709 19.259709 19.259709-8.627189 19.25971-19.259709z" fill="#4F3028" p-id="8916"></path><path d="M659.721973 630.613828c0 35.908221-29.107163 65.015385-65.015385 65.015385s-65.015385-29.107163-65.015385-65.015385 29.107163-65.015385 65.015385-65.015385 65.015385 29.107163 65.015385 65.015385z m-74.01804-27.955164c0-10.973853-8.891722-19.865575-19.865575-19.865575s-19.865575 8.891722-19.865575 19.865575 8.891722 19.865575 19.865575 19.865575 19.865575-8.891722 19.865575-19.865575z" fill="#503129" p-id="8917"></path><path d="M126.500244 413.671168v-74.45324c0-3.473062 6.015992-30.643161 7.645857-37.367419 18.175977-74.854306 71.987109-19.071976 101.427072 14.856514 2.141864 2.46613 6.408525 4.377594 5.196794 8.644256-20.181308 14.344515-43.093279 25.864501-62.182322 41.719414-14.702915 12.202651-27.170099 29.311963-41.702347 41.403682-3.507196 2.918396-4.437328 6.613325-10.385054 5.196793zM746.343731 413.671168c-5.947726 1.425065-6.886391-2.278397-10.385054-5.196793-13.900783-11.571185-26.001034-27.997831-39.75675-39.893284-20.019175-17.305578-44.100211-29.38023-64.110853-46.677274l22.425572-26.035167c21.043174-12.663451 33.151958-39.031418 61.960456-30.660229 14.182382 4.121595 23.978636 43.127412 26.333833 56.772196 0.716799 4.147195 3.532796 19.626642 3.532796 20.710374v70.98871z" fill="#FAC5B6" p-id="8918"></path><path d="M281.166716 462.720706c36.718887-8.08959 95.197747 30.028762 72.123643 68.659114-18.457577 30.907694-70.493778 18.047977-89.855887-7.048525-16.887445-21.879439-11.707719-55.133797 17.732244-61.619122z" fill="#F8EFDD" p-id="8919"></path><path d="M565.215425 462.823106c18.005311-3.080529 47.87194 1.476265 52.428734 22.408505 9.565855 43.938078-38.220752 71.330044-76.774303 62.916188-14.045849-3.063463-28.262364-24.465036-26.077834-38.502352 3.310929-21.34184 29.866629-43.315145 50.41487-46.822341z" fill="#F7EEDD" p-id="8920"></path><path d="M126.500244 669.918312c-6.690125-0.3328-14.097049-0.349866-20.77864 0-1.151999 0.059733-2.31253-0.085333-3.464529 0l2.039464-3.080529c6.664525-0.776532 13.499716-0.776532 20.155708 0l2.039464 3.080529z" fill="#F9CFB3" p-id="8921"></path><path d="M791.357007 673.382841l-11.750385-0.375466-2.099197-3.080529c8.780789 0.571733 8.499189 1.638398 13.849582 3.464529zM625.14495 708.011064c0.3072 2.508797-1.237332 3.089063-3.464529 3.464529-2.047997 0.341333-4.650661-0.068267-6.929058 0l2.158931-3.080529c2.662397-1.083732 5.768526-0.017067 8.226123-0.384z" fill="#FAD9C0" p-id="8922"></path><path d="M739.414673 669.918312c-0.580266 0.0512-4.351995 2.457597-10.385054 3.464529l2.150397-3.080529 8.234657-0.384z" fill="#F9CAAC" p-id="8923"></path><path d="M305.751218 603.03413m-19.259709 0a19.259709 19.259709 0 1 0 38.519419 0 19.259709 19.259709 0 1 0-38.519419 0Z" fill="#F3EBDA" p-id="8924"></path><path d="M565.846891 602.658664m-19.865575 0a19.865575 19.865575 0 1 0 39.73115 0 19.865575 19.865575 0 1 0-39.73115 0Z" fill="#F1E9D6" p-id="8925"></path><path d="M703.634451 715.503322l35.874088 1.075198 23.790904 31.880493c-0.895999 19.626642-3.199996 32.477826-20.514108 44.296478-23.62877 16.136513-64.264452-4.838394-65.85165-34.679423-0.256-4.838394 2.730663-8.081056 2.884263-10.905586 0.187733-3.541329-2.858663-6.673058-2.372264-9.309855 0.802132-4.334928 20.053308-20.88104 26.188767-22.357305z" fill="#FBBD9C" p-id="8926"></path><path d="M146.109819 694.733214c12.799984-2.858663 25.292768 0.733866 35.703422 8.174923 4.078928 2.918396 20.343441 18.72211 22.570638 22.442639 7.449591 12.433051 7.594657 47.121007 1.109332 59.920991-3.217063 6.340259-23.074104 24.405303-29.269296 26.137567-2.87573 0.802132-20.445841 2.67093-23.739704 2.585597-45.943409-1.203198-71.125244-41.668214-49.715137-82.969496 7.688524-14.822381 26.956766-32.631426 43.349279-36.292221z m7.108258 20.667708c-31.84636 4.95786-49.663938 41.659681-26.837299 67.182848 4.130128 4.616528 20.343441 12.014918 26.077833 11.980785 3.908262-0.0256 22.911971-5.887993 26.009568-8.618655 0.802132-0.699732 11.733319-14.634648 12.185584-15.513581 7.227724-13.960516-3.080529-45.448476-18.00531-51.438869-3.106129-1.245865-16.28158-4.087462-19.430376-3.592528z" fill="#FAC5A6" p-id="8927"></path><path d="M153.218077 715.400922c3.148796-0.486399 16.332779 2.346664 19.430376 3.592528 14.924781 5.990392 25.224502 37.46982 18.00531 51.438869-0.452266 0.878932-11.391986 14.813848-12.185584 15.513581-3.106129 2.730663-22.101306 8.601589-26.009568 8.618655-5.734393 0.034133-21.947706-7.364257-26.077833-11.980785-22.826638-25.523168-5.00906-62.224988 26.837299-67.182848z" fill="#FBBB98" p-id="8928"></path></svg>