<?xml version="1.0" standalone="no"?><!DOCTYPE svg PUBLIC "-//W3C//DTD SVG 1.1//EN" "http://www.w3.org/Graphics/SVG/1.1/DTD/svg11.dtd"><svg t="1772951664874" class="icon" viewBox="0 0 1030 1024" version="1.1" xmlns="http://www.w3.org/2000/svg" p-id="3889" xmlns:xlink="http://www.w3.org/1999/xlink" width="201.171875" height="200"><path d="M907.305527 59.788387c40.49416-6.877486 78.269512 11.349545 92.20235 50.691812 11.866203 33.515037 2.413896 67.953284-25.316262 89.873151-21.860579 17.278412-42.823358 14.71206-69.155997 16.660116-9.282911 15.923242-10.527974 37.030008-32.058229 40.705905l-12.298164-8.266534c-10.375517-20.395302 19.954872-39.003474 16.702465-50.31914-1.075666-3.726716-11.781505-11.408834-15.14402-15.652208-33.548916-42.349049-8.46981-114.596526 45.084797-123.693102z m9.206684 21.487907c-17.566385 3.12536-38.681621 31.838015-20.607047 40.883772 20.166617 10.087543 12.044069-17.439338 20.259784-19.768536l14.686651 0.135517c21.259222 14.771348-3.56579 24.443871-11.789976 36.50488-7.394144 10.832887-9.155864 35.539322 8.969529 30.448966 4.45512-1.253532 6.013565-13.136675 9.409959-18.184681 6.479404-9.630174 21.055947-15.931712 22.902365-29.212374 3.853763-27.713218-16.92268-45.584516-43.822796-40.799074z m16.101108 94.624715c-11.798445-2.532473-22.123143 2.066634-19.904053 15.237188 15.12708 14.288569 29.678213 4.683805 19.904053-15.237188z" fill="#F4EDDE" p-id="3890"></path><path d="M828.112806 293.224814a7.504251 7.495782 90 1 0 14.991563 0 7.504251 7.495782 90 1 0-14.991563 0Z" fill="#EDE6DF" p-id="3891"></path><path d="M916.512211 81.276294c26.900116-4.785443 47.685029 13.085856 43.822795 40.799074-1.846419 13.280662-16.422961 19.5822-22.902365 29.212374-3.396394 5.048007-4.954839 16.93962-9.409959 18.184681-18.116923 5.090356-16.363672-19.60761-8.969528-30.448966 8.224185-12.052539 33.049198-21.733532 11.789975-36.50488l-14.68665-0.135517c-8.215715 2.320728-0.093168 29.856079-20.259785 19.768536-18.074574-9.045757 3.040662-37.758412 20.607047-40.883771z" fill="#513027" p-id="3892"></path><path d="M932.613319 175.901009c9.78263 19.920993-4.776973 29.525757-19.904053 15.237188-2.21909-13.170554 8.097138-17.769661 19.904053-15.237188z" fill="#57372D" p-id="3893"></path><path d="M850.761078 267.1378c-1.151894-1.168834-8.927179-14.906865-9.342201-16.727874-3.243937-14.466435 1.685492-31.888834 11.485062-42.806419l0.076229-5.479967c-48.464251-54.570984-22.766849-141.911663 48.337204-160.689231 51.479504-13.594045 106.973697 20.344483 119.813929 72.027263 12.984218 52.250256-19.438213 107.685161-72.010323 120.000264-4.00622 0.940149-7.885393 0.093168-11.586699 0.660645-6.453995 0.990968-11.603639 6.22531-18.565823 0.304914l-3.057602 2.566352c-6.894425 25.519537-24.299884 41.137866-52.08933 36.987659-1.846419-0.279504-12.069479-5.818759-13.077386-6.852076z m56.637617-207.349413c-53.554607 9.096576-78.633714 81.344053-45.084797 123.693102 3.362514 4.251844 14.076824 11.933962 15.14402 15.652208 3.252407 11.315666-27.069512 29.923838-16.702465 50.31914l12.298164 8.266534c21.530256-3.675897 22.775318-24.782663 32.05823-40.705905 26.332639-1.956526 47.295418 0.618296 69.155996-16.660116 27.730157-21.911398 37.182465-56.358114 25.316262-89.873151-13.932837-39.342266-51.708189-57.577767-92.202349-50.691812z" fill="#4B2A23" p-id="3894"></path><path d="M827.630027 268.289694c26.866237-5.971216 44.906931 20.717155 28.661836 40.96-7.334855 9.130455-17.329231 9.587825-28.661836 7.10617-21.8267-4.776973-23.766286-42.781009 0-48.0577z m15.56751 24.93512c0-4.141737-3.354045-7.504251-7.495781-7.504252s-7.495782 3.362514-7.495782 7.504252 3.354045 7.504251 7.495782 7.504251 7.495782-3.362514 7.495781-7.504251z" fill="#4A2A23" p-id="3895"></path><path d="M831.729415 626.672754c-5.547725-7.927742-6.936774-17.727312-11.662928-26.662961-11.510471-21.775881-29.729032-32.202217-52.690687-37.749942-0.262564-0.059289-0.567477-2.65105-4.42124-3.11689-59.873085-7.241687-89.144748 18.032225-139.607875 36.860612-13.36536 4.988718-36.648867 10.714309-50.497005 9.121985-43.145211-4.971778-58.975285-40.104549-94.455319-55.739818-41.688404-18.371017-86.400529-13.500877-123.252671 12.814822-25.138395 17.955997-38.978065 38.944185-73.551828 42.924996-11.773036 1.35517-42.264351-4.46359-53.563077-9.121985-0.152457-0.059289-0.050819-2.007345-1.7956-2.718809-39.477783-16.143457-70.045327-35.014194-114.647345-34.090984-5.513846 0.118577-11.425773-0.609826-16.787163 0.076228-37.165525 4.700744-68.376774 39.376146-69.01201 76.60943-5.319041-2.557883-3.015252-11.840794-3.057601-16.880331-0.45737-51.538792 2.67646-86.993416 16.761753-136.575683 7.029942-24.757254 29.407179-69.89287 32.261506-90.406749 4.370422-31.363706-1.880298-74.204003-0.135517-107.490356 2.286849-43.63646 15.110141-127.402878 37.38574-165.025773 17.041257-28.788883 34.048635-30.516725 63.921654-18.930025 11.891613 4.616046 26.70531 13.653333 37.792292 20.454591 30.609892 18.760629 60.127179 42.645492 86.637684 66.75904l64.057171-11.950901c49.590736-3.811414 97.826303-3.743656 146.976609 3.057601 14.898395 2.058164 30.576013 6.945244 45.618395 8.935649 35.471563-28.975219 74.458098-63.769198 116.248139-83.215881 19.785476-9.206683 42.374458-18.142333 60.330455-0.88933 27.780976 26.688371 44.339454 109.353714 49.006319 147.264583 5.590074 45.372771-2.354607 95.539454 3.176179 137.922382 2.015815 15.465873 15.338825 39.892804 20.742564 55.917684 20.784913 61.575517 36.343954 116.561522 28.238346 181.855285zM120.773584 301.525227c5.268222 1.262002 6.089793-2.015815 9.189743-4.599106 22.157022-18.455715 39.799636-40.155368 64.480662-58.153714 13.094326-9.545476 28.822763-15.618329 39.689529-27.738627-8.520629-9.240562-15.14402-18.930025-24.418462-27.679338-9.147395-8.622266-27.933433-23.478313-39.011944-28.433152-4.268784-1.905707-9.875798-3.54885-14.601952-3.853763-25.502597 1.77866-30.618362 58.534855-32.778164 77.862961-0.194806 1.736311-2.549413 2.854326-2.549412 3.58273v69.020479z m609.817833 0c6.979123-13.195964 0.415021-23.622299-0.127048-35.14124-1.372109-29.026038 0.033879-56.959471-9.706401-85.367213-6.953714-20.268255-13.78885-31.346766-37.157056-26.222531-16.422961 3.599669-49.548387 39.003474-60.262696 53.173466-2.007345 2.65105-4.226435 2.972903-3.066071 7.665178 16.236625 7.504251 33.345641 19.421274 47.574921 30.618362 19.887113 15.652208 35.039603 35.259818 53.563077 50.683342 3.09995 2.583292 3.929992 5.869578 9.189743 4.599106z m-457.623822 49.573797c-19.624549 4.294194-29.136146 24.714905-25.951497 43.390835 6.826667 39.985972 81.970819 60.08483 99.054425 23.647709 5.962746-12.713184 5.081886-18.201621-0.016939-30.770819-10.527974-25.934557-46.067295-42.179653-73.085989-36.267725z m278.953185 0.093168c-31.109611 5.293631-57.306733 34.30273-46.711001 67.038544 11.171679 34.514475 90.8133 17.81201 99.240761-20.590107 7.699057-35.081952-20.700215-51.860645-52.53823-46.448437zM329.012326 519.224748c0-31.541572-25.544946-57.103457-57.052638-57.103458s-57.052639 25.570356-57.052639 57.103458 25.544946 57.103457 57.052639 57.103457 57.052639-25.570356 57.052638-57.103457z m241.33876-57.569297c-43.975252 5.861108-66.623524 54.401588-40.392523 91.321489 16.397552 23.080232 55.265509 30.059355 77.990008 13.80579 27.857204-19.929462 33.913118-56.408933 13.788851-84.189909-8.961059-12.374392-36.547229-22.910835-51.377866-20.9289z" fill="#F7C17B" p-id="3896"></path><path d="M570.351086 461.655451c14.830637-1.973466 42.408337 8.554508 51.377866 20.9289 20.132738 27.780976 14.068354 64.260447-13.78885 84.189909-22.7245 16.262035-61.592457 9.274442-77.990009-13.80579-26.231001-36.919901-3.57426-85.46038 40.392523-91.321489z m47.354706 34.031695c0-9.528536-7.715997-17.261472-17.244533-17.261472s-17.244533 7.724467-17.244532 17.261472 7.715997 17.261472 17.244532 17.261473 17.244533-7.724467 17.244533-17.261473z" fill="#4E2C25" p-id="3897"></path><path d="M329.012326 519.224748c0 31.541572-25.544946 57.103457-57.052638 57.103457s-57.052639-25.570356-57.052639-57.103457 25.544946-57.103457 57.052639-57.103458 57.052639 25.570356 57.052638 57.103458z m-16.02488-23.351266c0-9.325261-7.55507-16.880331-16.863391-16.880331s-16.863391 7.55507-16.863391 16.880331 7.55507 16.880331 16.863391 16.880331 16.863391-7.55507 16.863391-16.880331z" fill="#4E2C24" p-id="3898"></path><path d="M120.773584 301.525227v-69.020479c0-0.728404 2.354607-1.846419 2.549412-3.58273 2.159801-19.319636 7.275567-76.075831 32.778164-77.862961 4.726154 0.313383 10.324698 1.948056 14.601952 3.853764 11.078511 4.954839 29.873019 19.810885 39.011944 28.433151 9.282911 8.749313 15.897833 18.438776 24.418462 27.679338-10.866766 12.120298-26.586733 18.193151-39.689529 27.738627-24.689495 17.989876-42.323639 39.697998-64.480662 58.153714-3.09995 2.583292-3.929992 5.861108-9.189743 4.599107z" fill="#F7C7B4" p-id="3899"></path><path d="M730.591417 301.525227c-5.259752 1.270471-6.089793-2.015815-9.189744-4.599106-18.515004-15.423524-33.675964-35.031133-53.563077-50.683342-14.22928-11.197089-31.338296-23.114111-47.574921-30.618362-1.160364-4.692275 1.050256-5.005658 3.066071-7.665178 10.722779-14.169992 43.839735-49.565327 60.262696-53.173466 23.368205-5.124235 30.203342 5.954276 37.157056 26.222531 9.740281 28.407742 8.342763 56.341175 9.706402 85.367213 0.542068 11.518941 7.10617 21.945277 0.127047 35.141241z" fill="#F7C8B5" p-id="3900"></path><path d="M272.967595 351.099024c27.018693-5.911927 62.566485 10.333168 73.085989 36.267725 5.098825 12.569198 5.979686 18.057634 0.016939 30.770819-17.083606 36.428652-92.227758 16.338263-99.054425-23.647709-3.184648-18.667461 6.326948-39.096642 25.951497-43.390835zM551.92078 351.192192c31.838015-5.412208 60.237287 11.366485 52.53823 46.448437-8.427461 38.402117-88.069082 55.113052-99.240761 20.590107-10.604202-32.744285 15.59292-61.753383 46.711001-67.038544z" fill="#F6EDDA" p-id="3901"></path><path d="M623.346685 595.995103l-9.130454 47.608801c0.067758 24.816543 2.6934 52.318015 19.963341 71.917155 26.408867 29.974657 82.3689 33.896179 117.916692 20.090388 24.579388-9.545476 39.105112-16.829512 45.347361-43.568701 10.502564-45.042448-3.252407-75.389777-28.670306-111.250951-3.913052-5.522316-22.656741-19.59914-1.397519-18.540414 22.961654 5.547725 41.180215 15.974061 52.690687 37.749942 4.726154 8.944119 6.115203 18.743689 11.662928 26.662962-21.80976 175.663854-214.218428 258.125922-372.19732 267.002282-18.726749 1.050256-38.063325-1.041787-56.823954-0.135517 2.346137-19.074012 13.33995-37.614425 15.254128-56.815483 3.963871-39.875864-6.521754-82.682283-38.181903-108.879405-67.936344-56.214127-151.050587-6.487874-193.043904 55.341737-8.639206 12.721654-15.550571 28.145178-20.04804 42.823358-2.388486 0.228685-4.836261 0.321853-7.207808-0.330322-8.825542-2.439305-43.932903-28.915931-52.555169-36.377833-39.60483-34.26038-82.063987-99.681191-81.149248-153.430604 0.635236-37.233284 31.846485-71.908685 69.01201-76.609429 5.369859-0.677585 11.273317 0.042349 16.787163-0.076229 1.651613 6.504814-4.861671 7.656708-9.384549 10.527974C75.680317 586.525856 61.849117 602.355931 56.479258 634.388751c-0.948619 5.649363-2.854326 16.626237-3.235467 21.555666-0.389611 5.014127 2.820447 8.300414 3.125359 12.188056 0.474309 6.098263-0.652175 12.408271 0.101638 18.294789 2.532473 19.810885 23.376675 43.272258 41.967907 50.014227 14.186931 5.141175 54.410058 8.435931 69.757354 6.716559 18.2355-2.049694 38.622333-16.134988 56.290355-21.877519 5.861108-15.906303 17.36311-32.786634 18.989314-50.005756 0.88086-9.376079 1.228122-34.107924-0.626766-42.569264-2.507064-11.417304-14.864516-20.090389-14.822167-32.710406 11.298726 4.658395 41.781572 10.477155 53.563077 9.121986 34.573763-3.980811 48.413433-24.977469 73.551828-42.924996 36.852142-26.315699 81.555798-31.194309 123.252671-12.814823 35.480033 15.635269 51.318577 50.77651 94.455319 55.739819 13.848139 1.592324 37.131646-4.133267 50.497005-9.121986zM411.017025 562.903557c-43.323077 6.030505-59.754508 41.773102-22.165493 69.960628 7.910802 5.928867 30.25416 12.840232 39.943623 12.416741 24.291414-1.058726 67.131712-24.122018 58.34005-52.51282-8.800132-28.416212-50.818859-33.37952-76.11818-29.85608z m110.793581 155.37866c0.296443-0.296443 2.964433-6.928304 3.091481-7.732937 1.35517-8.063259-13.636394-17.752721-17.583325-24.494689-5.496907-9.393019-0.499719-19.819355-11.535881-25.426369l-13.246783 2.989843-0.143987 15.194838-105.804863 0.067759-24.46928-15.567511c-27.306667 11.298726 5.005658 36.555699 22.063854 39.443904 33.455749 5.657833 78.117055-2.913615 112.868685 0.516659 8.47828 1.194243 15.203309 16.643176 24.94359 18.108453 1.431398 0.211745 9.240562-2.524003 9.816509-3.09995z" fill="#F7EDDA" p-id="3902"></path><path d="M317.052955 728.047907c20.564698-2.811977 41.129396 8.664615 54.977535 22.851547-7.741406 6.123672-35.268288 46.143524-27.425244 53.546137l15.271067 1.770191c8.927179-9.113515 13.33995-21.293102 20.852672-31.355236 1.77866-2.380017-0.90627-5.835699 6.631861-4.02316 31.295947 78.108586-25.011348 180.923606-108.930223 193.357287-15.830074-3.032192-28.848172-4.031629-43.340017-11.781505-21.631894-11.57823-41.146336-31.490753-49.294293-54.943656-7.868453-22.648271-7.428023-40.299355-0.025409-63.091613 14.669711-45.144086 60.98263-92.778296 106.601025-106.482448 3.184648 3.650488-25.019818 57.399901 4.387362 48.862332 7.639768-2.21909 17.049727-39.748817 20.293664-48.709876z" fill="#F7EDDA" p-id="3903"></path><path d="M767.3758 562.251381c-21.259222-1.067196-2.515533 13.018098 1.397519 18.540414 25.417899 35.852705 39.17287 66.200033 28.670306 111.250951-6.23378 26.739189-20.759504 34.023226-45.347361 43.568701-35.547792 13.80579-91.507825 9.884268-117.916692-20.090388-17.269942-19.59067-19.895583-47.092142-19.963341-71.917155l9.130454-47.608801c50.463127-18.828387 79.734789-44.102299 139.607875-36.860612 3.845294 0.46584 4.158677 3.049132 4.42124 3.11689z m-70.485756 33.743722c-14.864516 3.252407-10.358577-3.980811-16.753284-9.308321-3.015252-2.515533-4.726154-4.090918-9.037287-2.769627-3.938462 1.143424-25.197684 33.625145-26.053135 38.579983s7.046882 10.129892 11.722217 10.587262c-7.394144 50.640993 39.316857 86.82402 84.13062 57.569297 22.26713-14.542663 24.359173-57.831861 1.964996-73.187626 5.302101-7.385674 20.49694-28.627957 4.675335-30.779289-9.689462-1.312821-12.281224 1.905707-16.93115 9.308321-4.234905-1.677022-8.01244-4.505939-12.255814-6.132142-14.415616-5.539256-12.560728-4.243375-21.454029 6.132142z" fill="#F7D5B8" p-id="3904"></path><path d="M228.026785 595.995103c-0.042349 12.620017 12.315103 21.293102 14.822167 32.710406 1.854888 8.46134 1.507626 33.193184 0.626766 42.569264-1.626203 17.227593-13.128205 34.099454-18.989314 50.005756-17.659553 5.742531-38.046385 19.827825-56.290355 21.877519-15.347295 1.719371-55.570422-1.566915-69.757354-6.716559-18.591232-6.741969-39.435434-30.203342-41.967907-50.014227-0.753813-5.886518 0.372672-12.196526-0.101638-18.294789-0.304913-3.887643-3.514971-7.173929-3.125359-12.188056 0.381141-4.937899 2.286849-15.914773 3.235467-21.555666 5.369859-32.032821 19.209529-47.862895 45.711563-64.683937 4.522878-2.871266 11.036162-4.02316 9.384549-10.527974 44.602018-0.923209 75.169562 17.947527 114.647345 34.090985 1.744781 0.711464 1.651613 2.65952 1.7956 2.718809zM90.129812 632.804897c1.287411 2.879735-0.508189 16.050289 0.584417 22.419586 3.514971 20.454591 19.870174 43.890554 41.375021 47.541042 60.144119 10.206121 86.663093-47.778197 56.104019-94.497667 10.502564-18.125393-5.607014-31.854955-18.387957-12.272755h-12.255814l-2.862796-7.817634c-11.019222-5.386799-15.948652 3.066071-21.657304 10.883706-2.125922-2.320728-8.037849-2.261439-9.189743-3.066072-2.405426-1.677022-3.802945-9.384549-10.731249-9.384549-8.435931 0-24.841952 27.628519-28.763474 35.928933l-0.101638 5.34445c0.965558 3.58273 5.734061 4.573697 5.886518 4.92096z" fill="#F8D4B7" p-id="3905"></path><path d="M411.017025 562.903557c25.299322-3.523441 67.318048 1.439868 76.11818 29.856079 8.791663 28.390802-34.040165 51.454094-58.34005 52.512821-9.697932 0.42349-32.032821-6.479404-39.943623-12.416742-37.589016-28.187527-21.157585-63.930124 22.165493-69.960628z" fill="#4F2E26" p-id="3906"></path><path d="M521.810606 718.282217c-0.575947 0.575947-8.385112 3.320165-9.816509 3.09995-9.740281-1.456807-16.45684-16.90574-24.94359-18.108453-34.751629-3.430273-79.404467 5.141175-112.868685-0.516659-17.066667-2.888205-49.370521-28.145178-22.063854-39.443904l24.46928 15.567511 105.804863-0.067759 0.143987-15.194838 13.246783-2.989843c11.036162 5.607014 6.047444 16.03335 11.535881 25.426369 3.946931 6.741969 18.938495 16.431431 17.583325 24.494689-0.135517 0.796162-2.803507 7.436493-3.091481 7.732937z" fill="#4C2D24" p-id="3907"></path><path d="M742.855701 617.466071c22.402647 15.355765 20.310604 58.653433-1.964996 73.187626-44.813763 29.254723-91.516294-6.928304-84.13062-57.569297-4.666865-0.46584-12.603077-5.471497-11.722217-10.587262s22.114673-37.436559 26.053135-38.579983c4.319603-1.32129 6.022035 0.254094 9.037287 2.769627 6.394706 5.32751 1.888768 12.552258 16.753284 9.308321-9.579355 11.171679-28.458561 38.232721-1.837949 36.50488 5.251282-1.524566 26.917055-33.752192 23.283507-42.637022 4.243375 1.634673 8.02091 4.45512 12.255815 6.132142-5.064946 8.071729-14.551133 23.308916-12.052539 32.007411 8.393581 12.391332 18.794508-2.854326 24.308354-10.536443z" fill="#F8BD99" p-id="3908"></path><path d="M718.344072 589.862961c3.625079 8.88483-18.032225 41.120926-23.283507 42.637022-26.620612 1.727841-7.741406-25.333201 1.837948-36.50488 8.8933-10.375517 7.029942-11.671398 21.454029-6.132142z" fill="#F49D79" p-id="3909"></path><path d="M742.855701 617.466071c-5.513846 7.682117-15.914773 22.927775-24.308354 10.536443-2.498594-8.706964 6.987593-23.935682 12.052539-32.007411 4.649926-7.402614 7.241687-10.621141 16.93115-9.308321 15.830074 2.151332 0.626766 23.393615-4.675335 30.779289z" fill="#F39F7B" p-id="3910"></path><path d="M133.029398 599.061175c-4.607577 6.310008-22.478875 30.033945-10.527973 33.540446 18.277849 4.556758 29.186964-22.233251 35.048073-36.606518h12.255814c-4.073978 6.25072-22.919305 33.201654-10.621141 36.708156 13.170554 2.905145 18.896146-11.908553 24.562448-21.352391 1.3467-2.2445 4.260314-2.761158 4.45512-3.09148 30.559074 46.719471 4.040099 104.703788-56.10402 94.497667-21.504847-3.650488-37.86005-27.086452-41.37502-47.541042-1.092605-6.369297 0.702994-19.539851-0.584417-22.419586 18.608172-0.499719 25.028288-23.994971 33.709843-36.809793 1.151894 0.804632 7.072291 0.753813 9.189743 3.066071z" fill="#F9BF9A" p-id="3911"></path><path d="M157.549498 595.995103c-5.861108 14.373267-16.770223 41.154806-35.048073 36.606518-11.950902-3.498031 5.920397-27.230438 10.527973-33.540446 5.708652-7.817634 10.629611-16.270505 21.657304-10.883706l2.862796 7.817634z" fill="#F49E79" p-id="3912"></path><path d="M123.839655 595.995103c-8.681555 12.814822-15.101671 36.310074-33.709843 36.809794-0.152457-0.347262-4.920959-1.33823-5.886518-4.92096l0.101638-5.34445c3.929992-8.300414 20.327543-35.928933 28.763474-35.928933 6.928304 0 8.325823 7.707527 10.731249 9.384549z" fill="#F5A07B" p-id="3913"></path><path d="M188.193269 608.267858c-0.186336 0.330323-3.10842 0.846981-4.45512 3.09148-5.666303 9.435368-11.383424 24.249065-24.562448 21.352391-12.298164-3.506501 6.547163-30.457436 10.621142-36.708156 12.780943-19.59067 28.890521-5.861108 18.387957 12.272755z" fill="#F39C77" p-id="3914"></path><path d="M583.216727 495.687146a17.261472 17.244533 90 1 0 34.489065 0 17.261472 17.244533 90 1 0-34.489065 0Z" fill="#F2E9DA" p-id="3915"></path><path d="M279.252194 495.873482a16.880331 16.863391 90 1 0 33.726783 0 16.880331 16.863391 90 1 0-33.726783 0Z" fill="#F0E9DA" p-id="3916"></path><path d="M157.363162 847.717849c-5.615484-1.101075-11.324136-3.845294-16.185807-6.809727-136.524864-83.088834-165.550902-215.446551-123.151033-364.62531 6.996063-24.621737 29.610455-70.146964 32.210686-90.457568 4.268784-33.337171-2.176741-75.720099-0.084698-110.514078 2.566352-42.535385 15.262597-114.977667 33.227064-153.854094 17.862829-38.647742 42.603143-58.856708 86.485227-45.465939 50.225972 15.321886 95.28536 57.535418 136.321588 87.70488 9.858859-1.524566 21.022068-4.954839 30.677651-6.293068 58.145244-8.063259 119.441257-8.393581 177.620381 0 9.926617 1.431398 26.654491 9.181274 35.395335 4.624516 36.08139-31.406055 77.354773-65.44622 122.439569-82.944847 51.056013-19.819355 78.117055 2.896675 98.715633 48.5066 27.679338 61.279074 32.634177 142.995798 36.293135 209.068784 0.846981 15.237188-1.660083 26.188652-3.150769 40.07067-1.660083 15.499752 9.587825 32.100579 14.618891 46.600894 24.553978 70.816079 46.854988 144.791398 34.30273 220.138825-33.862299 203.250025-283.882614 282.544384-463.823722 271.906303-5.285161 1.524566-15.465873 20.293664-20.234376 25.756691-11.425773 13.094326-35.979752 30.448966-52.114739 36.792854-82.877089 32.591828-170.217767-44.50885-159.579686-130.223325zM25.776197 635.870968c-0.914739 53.749413 41.544417 119.170223 81.149248 153.430604 8.622266 7.461902 43.729628 33.938528 52.555169 36.377832 2.371547 0.652175 4.810852 0.559007 7.207808 0.330323 4.497469-14.68665 11.408834-30.110174 20.04804-42.823358 41.993317-61.829611 125.10756-111.555864 193.043904-55.341737 31.660149 26.197122 42.145773 69.00354 38.181903 108.879404-1.905707 19.201059-12.90799 37.741472-15.254128 56.815484 18.760629-0.8978 38.097204 1.185773 56.823954 0.135517 157.978892-8.876361 350.38756-91.338428 372.19732-267.002283 8.105608-65.293763-7.453433-120.288238-28.238346-181.855285-5.412208-16.02488-18.726749-40.451811-20.742564-55.917684-5.530786-42.391398 2.413896-92.558081-3.176179-137.922382-4.666865-37.910868-21.225343-120.576212-49.006319-147.264582-17.947527-17.244533-40.544979-8.317353-60.330455 0.88933-41.790041 19.446683-80.776576 54.240662-116.248139 83.21588-15.033912-1.990405-30.71153-6.877486-45.618395-8.935649-49.150306-6.801257-97.385873-6.869016-146.976609-3.057601l-64.057171 11.950901c-26.510505-24.105079-56.027792-47.989942-86.637684-66.75904-11.086981-6.801257-25.900678-15.838544-37.792291-20.454591-29.864549-11.59517-46.880397-9.867328-63.921654 18.930025-22.2756 37.631365-35.098892 121.397783-37.385741 165.025773-1.744781 33.294822 4.505939 76.12665 0.135517 107.490356-2.854326 20.513879-25.231563 65.649495-32.261505 90.40675-14.085294 49.590736-17.219123 85.03689-16.761754 136.575682 0.042349 5.039537-2.261439 14.322448 3.057602 16.880331z m291.276758 92.176939c-3.243937 8.961059-12.653896 46.490786-20.293664 48.709876-29.407179 8.537568-1.202713-45.203375-4.387362-48.862332-45.609926 13.704152-91.931315 61.338362-106.601025 106.482448-7.402614 22.792258-7.851514 40.443342 0.025409 63.091613 8.156427 23.461373 27.662399 43.373896 49.294293 54.943656 14.500314 7.758346 27.509942 8.757783 43.340017 11.781505 83.918875-12.442151 140.22617-115.248701 108.930223-193.357287-7.538131-1.812539-4.861671 1.643143-6.631861 4.02316-7.512721 10.062134-11.925492 22.24172-20.852672 31.355236l-15.271067-1.770191c-7.843044-7.402614 19.683838-47.422465 27.425244-53.546137-13.856609-14.195401-34.412837-25.663524-54.977535-22.851547z" fill="#492820" p-id="3917"></path></svg>