<?xml version="1.0" standalone="no"?><!DOCTYPE svg PUBLIC "-//W3C//DTD SVG 1.1//EN" "http://www.w3.org/Graphics/SVG/1.1/DTD/svg11.dtd"><svg t="1772951611564" class="icon" viewBox="0 0 1024 1024" version="1.1" xmlns="http://www.w3.org/2000/svg" p-id="7230" xmlns:xlink="http://www.w3.org/1999/xlink" width="200" height="200"><path d="M946.776141 292.155733c-15.5392 8.3712-40.448 6.2976-44.8-13.474133-12.4928-56.6528 78.9504-39.9872 44.8 13.474133z" fill="#51332A" p-id="7231"></path><path d="M963.151607 201.1136c-1.655467 1.322667-6.212267 19.498667-8.704 21.981867-7.5264 7.5008-37.930667 5.700267-41.224533-5.5552-2.4832-19.874133 2.8928-44.561067 22.6816-53.256534 8.925867-3.925333 15.402667-2.030933 24.951467-9.582933 26.658133-21.0944-3.959467-49.262933-33.885867-33.885867-5.486933 2.816-8.712533 9.147733-12.6976 10.3168-18.116267 5.316267-32.290133-2.235733-36.164267-20.736 4.2752-44.868267 62.114133-50.8928 97.2032-39.355733 56.2944 18.5088 66.730667 91.1104 15.675734 121.463467-7.296 4.334933-25.975467 7.133867-27.835734 8.618666z" fill="#4D2F27" p-id="7232"></path><path d="M654.611874 17.2544c58.001067-10.069333 104.618667 63.914667 128.529067 107.8528 33.2544 61.115733 45.346133 117.572267 69.1456 180.224 10.180267 26.8032 49.911467 69.265067 67.626666 97.339733 157.201067 249.1392 6.656 444.9024-229.538133 548.096-195.1488 85.256533-517.563733 99.131733-615.8848-132.360533-32.443733-76.381867-28.885333-144.1792-24.704-224.3328 2.449067-47.061333-10.615467-66.1248-22.254933-108.5184-17.6128-64.145067-40.618667-176.605867-18.3296-238.993067 21.896533-61.269333 81.220267-52.778667 133.614933-41.2672 36.573867 8.0384 73.847467 22.971733 108.219733 37.6832 78.8224-40.0384 164.002133-70.536533 252.7232-77.329066 9.3184-2.696533 24.413867-32.3328 31.342934-41.5488 23.901867-31.7952 80.162133-100.0192 119.5008-106.845867zM99.501474 806.826667c0.878933 17.6128 33.28 64.068267 45.960533 78.72 66.901333 77.312 203.818667 103.406933 301.405867 97.92 218.5216-12.279467 554.3168-167.6288 508.168533-433.6896-6.9376-39.995733-22.4256-77.499733-42.8032-112.580267-19.490133-33.5616-70.5024-88.3712-82.039466-117.4528-10.632533-26.8032-16.264533-60.066133-26.658134-88.439467-12.407467-33.877333-30.779733-73.463467-48.5888-104.874666-15.547733-27.426133-56.541867-92.032-92.6464-86.2976-33.7664 5.358933-87.185067 71.509333-108.0064 99.3024-9.591467 12.8-24.738133 46.020267-39.176533 49.058133-13.7984 2.901333-34.414933 2.107733-49.152 4.5568-25.2672 4.206933-57.924267 13.294933-82.6624 20.9152-46.062933 14.190933-89.096533 34.8928-132.2496 55.850667-42.197333-16.7168-96.8448-41.5232-142.037333-46.062934-34.184533-3.438933-66.440533-4.539733-77.8752 33.211734-19.234133 63.530667 8.763733 179.456 27.093333 243.925333 4.0448 14.225067 17.655467 43.1616 18.414933 54.801067 0.418133 6.340267-3.703467 10.606933-3.925333 15.2576-3.1744 66.4064-5.8112 137.582933 12.373333 202.325333 2.986667 10.632533 6.528 25.659733 14.4128 33.544533z" fill="#4D2B22" p-id="7233"></path><path d="M955.027874 549.7856l-15.342933-15.342933c-9.9328-16.247467-31.368533-29.2096-49.877334-30.6944-3.899733-6.178133-18.696533-4.5824-25.096533-3.9936-24.260267 2.235733-54.0416 18.048-74.6496 30.848-8.081067 5.0176-13.2352 10.862933-19.182933 15.342933-18.056533 13.602133-33.749333 29.994667-49.877334 42.197333-0.682667 0.512-10.862933 7.304533-11.511466 7.671467-1.527467 0.8704-7.8592 2.261333-11.511467 3.84-19.959467 8.618667-45.303467 10.402133-67.072 7.611733-17.152-2.2016-40.1152-17.416533-58.4192-22.144-47.6928-12.3136-111.931733 8.379733-143.1296 47.0784-9.7792 12.125867-15.598933 28.074667-25.0368 40.183467-14.788267 18.978133-46.941867 36.130133-70.8096 38.528-11.665067 1.169067-26.248533 0.1536-38.365867 0l-2.2528-3.421867c-6.894933-1.015467-13.8752-0.324267-20.770133-0.418133-5.111467-0.068267-10.231467 0.0256-15.342933 0l-2.261334-3.421867c-16.955733 0-35.106133-2.414933-51.447466 1.425067v1.9968c-2.525867 0.162133-5.162667-0.264533-7.671467 0l-9.122133 0.418133-2.3808 3.413334c-2.346667 0.4864-5.504-0.554667-7.671467 0-19.2768 4.957867-32.443733 13.482667-46.037333 26.8544-7.748267 7.620267-14.7456 13.201067-20.002134 24.1152-4.360533 9.045333-11.1616 35.3792-10.683733 44.945066-7.8848-7.8848-11.426133-22.912-14.4128-33.544533-18.184533-64.7424-15.547733-135.918933-12.373333-202.325333 0.221867-4.650667 4.343467-8.917333 3.925333-15.2576-0.759467-11.630933-14.370133-40.567467-18.414933-54.801067-18.3296-64.4608-46.318933-180.394667-27.093334-243.925333 11.426133-37.751467 43.690667-36.650667 77.8752-33.211734 45.184 4.548267 99.84 29.346133 142.037334 46.062934 43.1616-20.957867 86.186667-41.659733 132.2496-55.850667 24.738133-7.620267 57.3952-16.7168 82.6624-20.9152 14.737067-2.449067 35.3536-1.655467 49.152-4.5568 14.4384-3.037867 29.5936-36.258133 39.176533-49.058133 20.821333-27.793067 74.24-93.943467 108.0064-99.3024 36.104533-5.7344 77.1072 58.871467 92.6464 86.2976 17.800533 31.4112 36.181333 70.9888 48.5888 104.874666 10.3936 28.373333 16.0256 61.636267 26.658133 88.439467 11.537067 29.0816 62.549333 83.8912 82.039467 117.4528 20.369067 35.072 35.8656 72.576 42.8032 112.580267zM747.855607 250.538667c-7.304533-32.1536-35.447467-121.924267-63.837866-137.5744-22.954667-12.654933-37.128533 3.106133-51.328 20.497066-13.696 16.785067-22.365867 37.649067-30.6176 57.5232 1.629867 6.4256 52.053333 18.244267 62.481066 22.007467 11.963733 4.317867 26.914133 10.094933 38.4 15.3088 6.254933 2.8416 41.284267 25.9584 44.9024 22.229333zM107.155874 446.208L139.949474 384.989867l51.575467-63.291734c-17.7152-18.500267-81.015467-50.0992-103.6288-38.638933-10.5216 5.333333-16.042667 30.967467-15.5136 42.359467 1.024 21.853867 6.997333 53.947733 12.6976 75.733333 3.3536 12.8256 8.866133 27.656533 13.696 40.132267 2.1504 5.5552 0.1792 5.922133 8.379733 4.923733z m489.915733-99.1488c-29.602133 4.6592-70.365867 41.745067-63.453866 73.6 13.457067 62.011733 120.200533 18.1504 106.180266-44.808533-3.592533-16.145067-26.487467-31.351467-42.7264-28.791467zM305.547341 439.355733c-24.840533 3.2512-46.967467 20.5568-45.0816 47.274667 3.012267 42.734933 85.666133 55.586133 109.3888 20.846933 26.811733-39.253333-27.477333-72.942933-64.3072-68.1216zM639.149474 462.173867c-28.5184 6.254933-48.9728 45.713067-43.997867 73.4464 12.996267 72.490667 121.463467 67.771733 129.629867 4.5056 4.0704-31.556267-2.9952-56.721067-31.803733-71.6544-15.044267-7.799467-37.102933-9.966933-53.828267-6.2976zM393.671074 627.0208c0-36.522667-29.610667-66.133333-66.133333-66.133333s-66.133333 29.610667-66.133334 66.133333 29.610667 66.133333 66.133334 66.133333 66.133333-29.610667 66.133333-66.133333z" fill="#F7C17D" p-id="7234"></path><path d="M939.684941 534.442667l15.342933 15.342933c46.148267 266.052267-289.646933 421.4016-508.168533 433.6896-97.578667 5.486933-234.504533-20.608-301.405867-97.92-12.680533-14.651733-45.090133-61.1072-45.960533-78.72-0.477867-9.565867 6.3232-35.8912 10.683733-44.945067 5.265067-10.914133 12.253867-16.4864 20.002133-24.1152 6.596267 1.7408 0.708267 12.125867-0.3072 16.9728-5.888 28.023467-3.7376 45.883733 0.238934 73.250134 2.833067 19.5072-0.008533 22.5536 13.661866 40.046933 10.589867 13.550933 26.990933 28.544 38.920534 41.642667 6.144 1.851733 11.784533 4.096 18.295466 4.718933 36.539733 3.5072 66.952533 0.759467 99.131734-16.290133 28.245333-14.958933 45.9008-36.437333 55.569066-67.191467 9.096533-28.919467 5.0944-71.4752-12.6976-96.896-5.3504-7.645867-18.773333-11.52-9.489066-23.1168 23.867733-2.397867 56.021333-19.549867 70.8096-38.528 9.437867-12.1088 15.2576-28.0576 25.0368-40.183467 31.197867-38.698667 95.4368-59.392 143.1296-47.0784 18.304 4.727467 41.2672 19.950933 58.4192 22.144 21.777067 2.7904 47.121067 1.006933 67.072-7.611733 7.441067 12.100267 2.2272 27.0592 3.899733 40.2176 1.809067 14.225067 24.132267 55.082667 34.500267 65.2544 3.387733 3.328 24.567467 20.4288 27.904 21.973333 18.986667 8.746667 38.408533 9.1648 58.308266 10.734934 4.855467 0.384 8.9344 4.360533 15.232 3.899733 3.208533-0.2304 14.72-3.490133 18.56-4.7872 21.853867-7.355733 41.301333-27.6224 58.299734-41.454933 18.261333-14.856533 24.5248-9.6512 31.872-37.188267 10.709333-40.132267-8.558933-70.869333-14.464-110.532267-1.0496-7.04-3.2768-15.633067 7.594666-13.346133zM562.912674 679.424c1.408-1.408 11.656533-16.6656 13.149867-19.464533 28.0832-52.727467-39.970133-60.501333-77.704534-47.010134-54.818133 19.592533-65.3312 71.133867-1.0496 85.725867 10.026667 2.2784 22.408533-3.5584 24.311467 10.197333 6.0928 44.1344-46.0032 60.765867-71.031467 25.437867-14.037333 6.784-17.0496 9.079467-7.620266 22.545067 18.286933 26.1376 53.870933 27.5712 78.446933 9.5744 11.272533-8.251733 12.450133-19.1488 21.418667-28.612267 45.8496 27.562667 103.4496 3.1488 93.687466-53.674667h-18.986666c1.604267 55.364267-71.825067 56.311467-72.721067 4.010667 4.3776-1.245867 15.607467-6.2464 18.107733-8.738133z" fill="#FAF0DD" p-id="7235"></path><path d="M287.482274 710.920533c2.551467 0.085333 5.12-0.034133 7.671467 0 12.117333 0.1536 26.7008 1.169067 38.365866 0-9.284267 11.5968 4.138667 15.479467 9.489067 23.1168 17.792 25.4208 21.794133 67.976533 12.6976 96.896-9.6768 30.754133-27.323733 52.232533-55.569067 67.191467-32.1792 17.041067-62.592 19.797333-99.131733 16.290133-6.519467-0.622933-12.151467-2.875733-18.295467-4.718933-11.9296-13.098667-28.330667-28.091733-38.920533-41.642667-13.6704-17.493333-10.8288-20.539733-13.661867-40.046933-3.976533-27.374933-6.126933-45.226667-0.238933-73.250133 1.015467-4.846933 6.903467-15.232 0.3072-16.9728 13.5936-13.380267 26.760533-21.896533 46.037333-26.8544 6.749867 8.405333-0.4608 8.209067-3.908266 13.3632-23.9616 35.857067-33.6896 82.0736-9.4208 120.8064 16.042667 25.6 34.082133 39.748267 64.9472 42.453333 37.700267 3.3024 79.5136-20.1216 95.914666-54.024533 6.272-12.9536 9.250133-49.373867 5.358934-62.583467-1.979733-6.715733-15.752533-30.464-20.7104-36.8384-6.382933-8.200533-16-13.7984-20.932267-23.185067z" fill="#FBE1C9" p-id="7236"></path><path d="M327.546274 627.0208m-66.133333 0a66.133333 66.133333 0 1 0 132.266666 0 66.133333 66.133333 0 1 0-132.266666 0Z" fill="#4F3028" p-id="7237"></path><path d="M639.149474 462.173867c16.725333-3.669333 38.784-1.501867 53.828267 6.2976 28.8 14.941867 35.874133 40.106667 31.803733 71.6544-8.157867 63.266133-116.6336 67.985067-129.629867-4.5056-4.974933-27.733333 15.479467-67.2 43.997867-73.4464z" fill="#4E3128" p-id="7238"></path><path d="M790.061474 530.602667c-2.500267 14.7968 13.661867 4.206933 20.923733 3.6608 27.3664-2.056533 60.689067 12.1344 76.808534 34.798933 12.4672 17.527467 13.576533 34.4576 16.392533 55.022933-5.768533 50.397867-72.456533 82.261333-115.515733 55.611734-16.512-10.222933-28.689067-22.929067-35.191467-41.540267-10.888533-31.172267-0.955733-50.952533 14.122667-78.225067 2.141867-3.874133 12.509867-10.914133 3.2768-13.986133 5.947733-4.48 11.101867-10.325333 19.182933-15.342933z m29.602133 31.2064c-44.4672 7.031467-54.980267 64.238933-17.979733 89.531733 17.416533 11.904 40.226133 7.355733 55.594667-5.5808 17.553067-14.762667 20.2496-34.961067 9.002666-55.185067-6.408533-11.52-33.288533-30.882133-46.6176-28.765866z" fill="#FACAAD" p-id="7239"></path><path d="M889.816141 503.748267c-14.208-1.143467-28.6976-0.512-42.197334 3.84-4.420267 1.425067-10.376533 0.290133-11.511466 7.662933 6.8096-0.810667 11.8784 0.2304 18.082133 3.029333 10.948267 4.9408 44.091733 28.3392 50.449067 37.794134 2.653867 3.9424 15.325867 27.0336 15.931733 30.1056 0.6656 3.413333-0.64 7.7056 0.042667 11.4688 3.464533 19.0208 7.022933 37.751467-0.750934 56.9856-0.5632 1.390933-16.196267 21.5296-18.363733 23.8336-9.224533 9.7792-46.779733 33.143467-59.630933 34.7904-1.723733 0.221867-4.701867-2.133333-7.560534-2.048-3.84 0.119467-7.0656 3.037867-10.9312 2.773333-8.661333-0.605867-33.152-5.376-40.9088-8.874667-32.008533-14.421333-50.500267-48.008533-56.721066-81.390933l-4.727467-35.5584c16.128-12.2112 31.812267-28.603733 49.877333-42.197333 9.233067 3.080533-1.134933 10.112-3.2768 13.986133-15.086933 27.272533-25.019733 47.0528-14.122666 78.225067 6.5024 18.6112 18.670933 31.325867 35.191466 41.540266 43.0592 26.6496 109.7472-5.213867 115.515734-55.611733-2.816-20.565333-3.925333-37.495467-16.392534-55.022933-16.119467-22.673067-49.442133-36.864-76.808533-34.798934-7.261867 0.546133-23.424 11.136-20.923733-3.6608 20.608-12.8 50.389333-28.6208 74.6496-30.848 6.4-0.5888 21.205333-2.176 25.096533 3.9936z" fill="#FAD9BF" p-id="7240"></path><path d="M107.155874 446.208c-8.192 0.9984-6.229333 0.631467-8.379733-4.923733-4.829867-12.484267-10.3424-27.306667-13.696-40.132267-5.700267-21.7856-11.6736-53.879467-12.6976-75.733333-0.5376-11.392 4.983467-37.026133 15.5136-42.359467 22.613333-11.460267 85.9136 20.138667 103.6288 38.638933L139.949474 384.989867l-32.7936 61.218133z" fill="#FAC5B7" p-id="7241"></path><path d="M747.855607 250.538667c-3.618133 3.729067-38.647467-19.387733-44.9024-22.229334-11.485867-5.2224-26.436267-10.999467-38.4-15.3088-10.427733-3.7632-60.842667-15.5904-62.481066-22.007466 8.260267-19.874133 16.9216-40.746667 30.6176-57.5232 14.190933-17.3824 28.3648-33.152 51.328-20.497067 28.3904 15.650133 56.533333 105.4208 63.837866 137.5744z" fill="#FAC6B8" p-id="7242"></path><path d="M203.087607 707.080533c17.1776-1.1008 36.258133-0.085333 53.7088 0 5.111467 0.0256 10.24-0.068267 15.342934 0l2.321066 3.421867c4.317867 1.0496 8.704 0.273067 13.021867 0.418133 4.932267 9.378133 14.557867 14.984533 20.932267 23.185067 4.957867 6.3744 18.730667 30.122667 20.7104 36.8384 3.8912 13.2096 0.904533 49.629867-5.358934 62.583467-16.4096 33.902933-58.222933 57.335467-95.914666 54.024533-30.865067-2.705067-48.904533-16.853333-64.9472-42.453333-24.277333-38.7328-14.5408-84.949333 9.4208-120.8064 3.447467-5.162667 10.658133-4.957867 3.908266-13.3632 2.167467-0.554667 5.333333 0.4864 7.671467 0 5.879467-1.211733 10.862933-3.771733 11.511467-3.84 2.5088-0.264533 5.1456 0.162133 7.671466 0z m85.376 37.572267c-6.1696-6.6304-10.811733-14.250667-20.258133-20.206933-26.248533-16.546133-61.013333-13.892267-80.5376 11.332266-7.227733 9.335467-23.8848 46.754133-23.0656 57.437867 0.554667 7.1168 8.712533 31.044267 12.330667 37.845333 1.664 3.1232 12.5184 18.056533 14.6176 19.908267 9.9072 8.712533 38.545067 19.165867 51.822933 17.237333 4.334933-0.631467 29.9264-9.745067 33.9968-12.014933 17.160533-9.557333 33.4592-39.6288 33.442133-58.9568 0-8.635733-10.862933-45.866667-16.546133-51.106133-1.1776-1.083733-4.667733-0.238933-5.819733-1.467734z" fill="#FBD5BA" p-id="7243"></path><path d="M597.071607 347.0592c16.238933-2.56 39.133867 12.6464 42.7264 28.791467 14.020267 62.958933-92.731733 106.820267-106.180266 44.808533-6.912-31.854933 33.851733-68.9408 63.453866-73.6z" fill="#F8EFDE" p-id="7244"></path><path d="M305.547341 439.355733c36.8384-4.821333 91.118933 28.868267 64.3072 68.1216-23.722667 34.7392-106.376533 21.896533-109.3888-20.846933-1.885867-26.717867 20.241067-44.032 45.0816-47.274667z" fill="#F8EFDD" p-id="7245"></path><path d="M889.816141 503.748267c18.5088 1.4848 39.944533 14.4384 49.877333 30.6944-10.871467-2.286933-8.644267 6.306133-7.594667 13.346133 5.896533 39.662933 25.173333 70.4 14.464 110.532267-7.3472 27.537067-13.610667 22.3232-31.872 37.188266-16.9984 13.832533-36.437333 34.0992-58.299733 41.454934-3.831467 1.288533-15.351467 4.5568-18.56 4.7872-6.2976 0.452267-10.376533-3.524267-15.232-3.899734-19.899733-1.570133-39.3216-1.988267-58.308267-10.734933-3.336533-1.536-24.516267-18.645333-27.904-21.973333-10.368-10.171733-32.6912-51.029333-34.500266-65.2544-1.672533-13.1584 3.541333-28.117333-3.899734-40.2176 3.643733-1.578667 9.984-2.9696 11.511467-3.84 13.568-1.1264 4.420267 2.5344 3.848533 9.582933-1.706667 21.111467 6.212267 52.736 17.3056 70.920533 5.870933 9.617067 34.013867 36.241067 44.066134 40.337067 6.485333 2.6368 48.2048 10.385067 55.3984 9.693867 16.8704-1.604267 42.120533-11.0848 55.7568-21.290667 6.340267-4.753067 11.204267-12.279467 17.28-17.245867 11.485867-9.386667 26.4704-14.660267 31.9488-29.448533 1.527467-4.130133 4.898133-18.2016 4.8896-22.272 0-5.376-3.5328-32.110933-4.7616-37.751467-1.092267-5.0176-11.229867-30.830933-13.909334-35.968-7.5264-14.4128-21.248-25.514667-33.962666-35.0976l-39.765334-19.703466c13.508267-4.352 27.989333-4.974933 42.197334-3.84z" fill="#F9E5CF" p-id="7246"></path><path d="M847.610274 507.579733l39.765333 19.703467c12.714667 9.5744 26.436267 20.676267 33.962667 35.0976 2.679467 5.137067 12.817067 30.9504 13.909333 35.968 1.2288 5.649067 4.7616 32.375467 4.7616 37.751467 0 4.0704-3.362133 18.141867-4.8896 22.272-5.4784 14.788267-20.4544 20.0704-31.9488 29.448533-6.075733 4.9664-10.939733 12.501333-17.28 17.245867-13.636267 10.2144-38.8864 19.6864-55.7568 21.290666-7.1936 0.682667-48.9216-7.0656-55.3984-9.693866-10.052267-4.087467-38.203733-30.72-44.066133-40.337067-11.101867-18.184533-19.0208-49.8176-17.3056-70.920533 0.571733-7.057067 9.719467-10.709333-3.848533-9.582934 0.648533-0.366933 10.8288-7.159467 11.511466-7.671466l4.727467 35.5584c6.2208 33.3824 24.712533 66.9696 56.721067 81.390933 7.7568 3.490133 32.247467 8.2688 40.9088 8.874667 3.874133 0.273067 7.0912-2.645333 10.9312-2.773334 2.858667-0.093867 5.8368 2.269867 7.560533 2.048 12.842667-1.646933 50.4064-25.0112 59.630933-34.7904 2.176-2.304 17.800533-22.434133 18.363734-23.8336 7.773867-19.234133 4.215467-37.9648 0.750933-56.9856-0.682667-3.7632 0.622933-8.046933-0.042667-11.4688-0.597333-3.072-13.277867-26.1632-15.931733-30.1056-6.357333-9.4464-39.492267-32.853333-50.449067-37.794133-6.1952-2.798933-11.272533-3.84-18.082133-3.029333 1.134933-7.3728 7.0912-6.237867 11.511467-7.662934z" fill="#FAE4CC" p-id="7247"></path><path d="M256.796407 707.080533c-17.450667-0.085333-36.5312-1.1008-53.7088 0v-1.9968c16.341333-3.831467 34.491733-1.416533 51.447467-1.425066l2.261333 3.421866zM295.162274 710.920533c-2.551467-0.034133-5.12 0.085333-7.671467 0-4.317867-0.145067-8.712533 0.631467-13.021866-0.418133l-2.321067-3.421867c6.894933 0.093867 13.8752-0.597333 20.770133 0.418134l2.2528 3.421866zM195.407607 707.080533c-0.648533 0.068267-5.632 2.619733-11.511466 3.84l2.3808-3.413333 9.122133-0.418133z" fill="#FACAAC" p-id="7248"></path><path d="M562.912674 679.424c-2.500267 2.491733-13.730133 7.492267-18.107733 8.738133 0.896 52.292267 74.325333 51.345067 72.721066-4.010666h18.986667c9.762133 56.823467-47.837867 81.237333-93.687467 53.674666-8.977067 9.454933-10.154667 20.360533-21.418666 28.612267-24.576 17.9968-60.16 16.554667-78.446934-9.5744-9.4208-13.4656-6.408533-15.761067 7.620267-22.545067 25.028267 35.328 77.1328 18.696533 71.031467-25.437866-1.902933-13.755733-14.2848-7.918933-24.311467-10.197334-64.2816-14.600533-53.768533-66.133333 1.0496-85.725866 37.7344-13.4912 105.787733-5.717333 77.704533 47.010133-1.493333 2.798933-11.733333 18.065067-13.149866 19.464533z" fill="#512F28" p-id="7249"></path><path d="M819.663607 561.809067c13.3376-2.107733 40.2176 17.245867 46.6176 28.765866 11.246933 20.224 8.5504 40.4224-9.002666 55.185067-15.368533 12.928-38.178133 17.4848-55.594667 5.5808-37.000533-25.2928-26.478933-82.500267 17.979733-89.531733z" fill="#FABB9B" p-id="7250"></path><path d="M288.463607 744.6528c1.152 1.237333 4.642133 0.384 5.819734 1.467733 5.674667 5.248 16.5376 42.4704 16.546133 51.106134 0.017067 19.328-16.2816 49.390933-33.442133 58.9568-4.078933 2.269867-29.6704 11.383467-33.9968 12.014933-13.277867 1.928533-41.915733-8.5248-51.822934-17.237333-2.107733-1.851733-12.9536-16.776533-14.6176-19.908267-3.618133-6.801067-11.784533-30.728533-12.330666-37.845333-0.827733-10.683733 15.837867-48.1024 23.0656-57.437867 19.524267-25.224533 54.2976-27.8784 80.5376-11.332267 9.4464 5.956267 14.088533 13.576533 20.258133 20.206934z m-52.718933-5.7856c-15.7696-0.110933-37.009067 18.030933-43.3664 32.324267-14.020267 31.505067 18.432 77.568 54.212267 69.538133 42.350933-9.506133 49.8176-63.9488 13.943466-89.429333-3.285333-2.3296-22.673067-12.416-24.789333-12.433067z" fill="#FACAAC" p-id="7251"></path><path d="M235.744674 738.8672c2.107733 0.017067 21.504 10.094933 24.789333 12.433067 35.874133 25.472 28.398933 79.914667-13.943466 89.429333-35.780267 8.029867-68.232533-38.024533-54.212267-69.538133 6.357333-14.2848 27.605333-32.426667 43.3664-32.324267z" fill="#FABC9B" p-id="7252"></path></svg>