<?xml version="1.0" standalone="no"?><!DOCTYPE svg PUBLIC "-//W3C//DTD SVG 1.1//EN" "http://www.w3.org/Graphics/SVG/1.1/DTD/svg11.dtd"><svg t="1772951552074" class="icon" viewBox="0 0 1024 1024" version="1.1" xmlns="http://www.w3.org/2000/svg" p-id="3540" xmlns:xlink="http://www.w3.org/1999/xlink" width="200" height="200"><path d="M706.789068 0.972786c63.913775-11.451573 113.158954 81.509262 134.389591 130.140051 12.270762 28.099874 25.070583 63.74311 33.731795 93.182699 8.712412 29.593187 12.868087 73.402709 23.346874 99.480211 9.224405 22.945813 40.473035 59.7325 54.808835 84.393489 146.549421 252.113814 20.28345 444.247666-221.675839 550.836045-93.080301 41.010628-174.495698 55.482959-275.298557 60.415156-8.473482 0.418127-14.873392 5.000464-24.456192 4.548203-114.891196-5.427124-246.242963-34.576584-323.186955-127.366755-85.135878-102.680167-79.981817-245.884568-60.346891-369.573508-2.218636-11.647837-8.012688-22.988479-10.615319-34.363254C19.899456 415.874728-0.008533 316.974776 12.15983 239.766253c5.512456-34.977645 23.551671-78.855433 63.427382-83.958294 68.700908-8.797744 142.368146 31.470494 204.012085 56.78854 83.241505-39.355184 174.367699-60.457823 266.330149-65.449753 35.626169-43.24633 104.036948-135.993835 160.859622-146.17396z m279.659029 572.365344c-2.833027-60.807685-35.242175-118.176484-66.13241-169.27337-12.040365-19.916522-39.61118-53.093659-46.599883-72.13126-12.083031-32.92114-17.194427-78.872499-28.398537-114.891196-16.434971-52.829129-55.354961-149.638445-100.529796-181.96226-39.355184-28.151074-73.069913 13.235015-100.137269 38.971189-13.465412 12.799821-30.173445 27.528149-43.126865 42.71727-7.765225 9.10494-37.358412 53.093659-43.416994 54.842968-97.799168 4.070343-193.686896 27.570815-281.971531 69.144635-42.964734-21.273303-90.52887-42.29061-137.04342-54.42484-30.156379-7.85909-68.188915-15.29152-88.045705 14.540597-28.262006 42.461274-11.622238 178.557508-1.19465 230.277319 11.067579 54.9027 25.599643 76.619731 19.455729 135.976769-8.968408 86.577992-16.332572 151.345087 16.443504 235.482579 17.262692 44.312981 31.607025 65.722816 65.500952 98.259962 132.486684 127.170492 380.19736 109.865133 540.476723 47.146009 124.798258-48.827052 286.843996-161.43988 298.978226-306.939716 1.245849-14.916058 2.013839-56.370413-4.27514-67.728121z" fill="#4C2B23" p-id="3541"></path><path d="M986.448097 573.33813c-12.577958-22.749549-29.285991-36.411225-53.221657-45.038304-22.979946-8.277218-28.082808-9.284137-53.221657-4.095943-2.679429 0.554659-6.613241-0.921587-9.710798 0.469327l-2.568497 3.626616c-1.390914 0.196264-2.89276-0.298662-4.095943 0-14.856326 3.703415-24.422059 10.017993-36.846419 16.375238-1.143451 0.588792-3.55835-0.324262-5.529523 0.733856-7.64576 4.130076-30.002781 16.537369-31.316896 23.824734-14.890459 2.466099-24.951118 16.665367-36.846419 24.567124-14.60033 9.693731-29.559054 16.639768-45.038305 24.567124-13.840873 0.546126-24.814587 5.640455-38.809058 3.985011-40.285304-4.7786-73.445375-33.518465-114.541334-36.914685-30.403842-2.508765-66.695602 5.896451-92.192847 22.792215-38.65546 25.616709-52.931528 72.984581-97.201843 91.109129-7.952956 3.259688-14.395532 3.285287-21.623165 5.000463-26.572429 2.995158-52.359802-3.157289-77.788781-4.095943l-50.994488-8.36255-30.881702 4.275141c-2.679429 0.26453-5.486857-0.179197-8.191886 0l-13.892073 0.45226-2.483165 3.643683c-7.236166-3.08049-11.01638 3.60955-12.279295 4.095942-44.219116 16.895764-64.092972 51.045687-61.413543 98.259962-32.776076-84.128959-25.411912-148.904588-16.443504-235.482579 6.143914-59.357038-8.38815-81.074068-19.455728-135.976769-10.427588-51.719811-27.058822-187.816045 1.19465-230.277319 19.856789-29.832117 57.880792-22.399687 88.045704-14.540597 46.514551 12.125697 94.078687 33.143004 137.04342 54.42484 88.284634-41.57382 184.172363-65.074292 281.971531-69.144635 6.050049-1.749309 35.651769-45.738028 43.416994-54.842968 12.953419-15.189121 29.661453-29.917449 43.126865-42.71727 27.067356-25.736174 60.782085-67.130796 100.137269-38.971189 45.174836 32.315282 84.094826 129.133131 100.529797 181.96226 11.20411 36.018697 16.315506 81.978589 28.398537 114.891196 6.988702 19.037601 34.559518 52.214738 46.599882 72.13126 30.890235 51.096887 63.299383 108.465686 66.132411 169.27337zM789.919641 253.999655c1.979706-23.739402-5.350325-48.349192-13.158217-70.757413-7.074035-20.317583-29.337191-74.443761-46.77908-84.222824-3.592483-2.013839-7.628694-4.556736-11.792902-4.872465-26.290833-2.005305-68.291313 64.383101-75.655477 88.173702 1.279982 5.026063 36.55629 13.021685 45.10657 16.349639 36.50509 14.207802 68.103583 36.709888 102.279106 55.329361zM114.39627 417.769102c4.292207-17.527222 16.537369-34.149923 26.811359-48.95505 19.029068-27.442817 40.515701-45.644163 61.251412-69.759026 13.849407-16.102175-0.972786-21.102639-15.598716-29.482255-21.580499-12.347561-87.388647-49.842504-96.322922-8.755078-8.191886 37.622942-3.029291 75.757876 4.351939 113.005356 2.329567 11.758769 6.459643 27.459883 10.572653 38.672527 1.740776 4.735934 4.351939 11.315042 8.934275 5.264993z m506.403598-72.899249c-34.081658 5.990316-79.179695 49.816905-58.05999 85.144411 28.782532 48.152928 116.606372 2.798894 108.44862-55.235495-3.10609-22.066892-30.540374-33.399-50.38863-29.908916z m181.416134 40.14024c-3.976478 20.727177 19.105867 42.316209 0.042666 59.399704-21.187971 18.994935-34.687516-14.131003-36.803752-32.895541-1.928506-17.117628 8.405216-53.887248-12.373161-55.16723-0.648524 6.527909-3.711948 11.20411-4.292207 18.235479-2.15037 25.966571-5.008997 84.50442 27.47695 91.621121 43.050066 9.429202 59.391171-22.783682 48.647854-60.935683-2.764761-9.830263-10.478787-23.799134-22.715416-20.266384z m-500.857008 41.607952c-11.366241 2.491699-28.031609 14.625929-30.693972 26.615095-15.410985 69.451831 107.108905 82.336984 117.365828 35.498171 4.599402-21.02584-1.006919-37.580275-17.663753-50.57636-17.330958-13.516611-47.97373-16.144841-69.008103-11.536906zM667.109622 520.099407c5.981783-20.30905 73.547773-26.700427 73.368575-38.843191-8.405216-24.208729-37.452277-14.327267-55.756021-6.997236-37.571742 15.05259-85.170011 59.101042-78.812767 102.961763 20.54798 11.357708 28.151074-6.382844 43.340195-15.615782 15.402452-9.369469 42.802603-19.626393 60.671153-21.187971 19.506928-1.706643 35.865099 6.783905 55.244029 4.053277l4.514071-14.156603c0.110932-6.399911-7.995622-12.654757-13.67021-15.172055-5.785519-2.568497-23.201809-6.596175-29.627319-7.244698-18.61094-1.877307-41.275157 8.405216-59.271706 12.202496z m-343.9056 77.788781c-18.354944 5.392991-41.556753 11.49424-57.206668 22.630084-18.653606 13.277681-34.422986 35.242175-2.687963 42.572206 30.975568-27.622014 65.116958-39.466116 106.895575-36.453891 13.88354 0.998386 27.775612 12.432893 38.774925-6.647374-15.069656-39.824511-72.916316-58.614649-112.553095-55.022166-6.732706 0.614391-43.67299 10.145992-46.343887 13.021685-6.783905 7.304431-3.993544 20.52238 6.050049 23.611404 8.669746 2.670896 29.089727-6.724173 40.285304-7.970022 3.916745-0.435194 8.354017 0.21333 12.467026 0.187731 4.829799-0.034133 15.308586-2.978092 14.310201 4.070343z" fill="#F7C07C" p-id="3542"></path><path d="M789.919641 253.999655c-34.175523-18.628007-65.774015-41.121559-102.279106-55.329361-8.558814-3.327954-43.826588-11.323575-45.10657-16.349639 7.364164-23.790601 49.364644-90.179008 75.655477-88.173702 4.172742 0.315729 8.200419 2.858627 11.792902 4.872465 17.44189 9.779064 39.705046 63.905241 46.77908 84.222824 7.807891 22.416754 15.137922 47.01801 13.158217 70.757413z" fill="#FAC6B6" p-id="3543"></path><path d="M114.39627 417.769102c-4.582336 6.058582-7.1935-0.520526-8.934275-5.264993-4.121542-11.221177-8.243085-26.913758-10.572653-38.672527-7.389764-37.24748-12.543825-75.382414-4.351939-113.005356 8.942809-41.087426 74.750957-3.592483 96.322922 8.755078 14.625929 8.371083 29.448122 13.38008 15.598716 29.482255-20.735711 24.10633-42.222344 42.307676-61.251412 69.759026-10.265457 14.805127-22.519152 31.427828-26.811359 48.95505z" fill="#FAC5B6" p-id="3544"></path><path d="M620.799868 344.869853c19.839723-3.490085 47.28254 7.842024 50.38863 29.908916 8.157753 58.03439-79.666088 103.388424-108.44862 55.235495-21.119705-35.327507 23.978332-79.145562 58.05999-85.144411z" fill="#F8EFDD" p-id="3545"></path><path d="M301.358994 426.618045c21.034373-4.607936 51.677145-1.988239 69.008103 11.536906 16.665367 12.996085 22.271689 29.550521 17.663753 50.57636-10.256923 46.838813-132.776813 33.962193-117.365828-35.498171 2.662363-11.989166 19.32773-24.123397 30.693972-26.615095z" fill="#F7EFDC" p-id="3546"></path><path d="M667.109622 520.099407c17.996549-3.805814 40.660766-14.079803 59.271706-12.202496 6.416977 0.648524 23.841801 4.676201 29.627319 7.244698 5.674587 2.517298 13.772608 8.772144 13.67021 15.172055l-4.514071 14.156603c-19.37893 2.739162-35.737101-5.751386-55.244029-4.053277-17.877084 1.561578-45.268701 11.818502-60.671153 21.187971-15.189121 9.232938-22.783682 26.97349-43.340195 15.615782-6.357245-43.852188 41.241024-87.909173 78.812767-102.961763 18.303745-7.330031 47.350806-17.220026 55.756021 6.997236 0.179197 12.142764-67.37826 18.534141-73.368575 38.843191z" fill="#513129" p-id="3547"></path><path d="M323.204022 597.888188c0.998386-7.048435-9.480401-4.104476-14.3102-4.070343-4.113009 0.0256-8.558814-0.622925-12.467026-0.187731-11.195577 1.245849-31.615559 10.632385-40.285305 7.970022-10.043593-3.089024-12.833954-16.306972-6.050049-23.611404 2.670896-2.875693 39.602647-12.407293 46.343887-13.021685 39.645313-3.592483 97.483439 15.197655 112.553096 55.022166-10.999313 19.080267-24.891386 7.64576-38.774926 6.647374-41.778617-3.012225-75.920007 8.831877-106.895574 36.453891-31.735024-7.330031-15.965644-29.294524 2.687962-42.572206 15.649915-11.135845 38.851724-17.237093 57.206668-22.630084z" fill="#503128" p-id="3548"></path><path d="M802.216002 385.010093c12.236629-3.541284 19.950655 10.436121 22.715417 20.266383 10.734783 38.152001-5.606322 70.364884-48.647855 60.935683-32.485947-7.116701-29.62732-65.65455-27.476949-91.621121 0.580259-7.031369 3.643682-11.70757 4.292206-18.235479 20.778377 1.279982 10.444654 38.058135 12.373161 55.16723 2.116237 18.764538 15.615782 51.890476 36.803753 32.895541 19.063201-17.092028-4.019144-38.672527-0.042666-59.399704z" fill="#F3F4EF" p-id="3549"></path><path d="M933.217907 528.299826c23.935666 8.62708 40.643699 22.288756 53.221657 45.038304 6.280446 11.357708 5.512456 52.812063 4.275141 67.728122-12.125697 145.499836-174.179969 258.112664-298.978227 306.939715-160.287896 62.710591-407.990038 80.024483-540.476723-47.146008 2.824494-7.312965 20.983174-0.819189 25.744708 0.870388 12.612091 4.454338 30.327043 16.230173 42.461274 18.952268 35.771234 8.021221 98.712222-25.736174 120.207388-54.535772 3.720481-4.983397 18.576807-36.342959 19.720258-41.684751 1.681043-7.850557 0.127998-15.880312 0.733857-23.799135 0.324262-4.198341 3.985011-8.208952 3.985011-12.37316 0-8.925742-9.907062-41.949281-14.207802-51.259018-5.563656-12.040365-16.853098-16.03391-18.500008-28.577734 9.369469-0.71679 11.588105-3.933812 12.279295-4.095943 7.236166-1.706643 13.670209-1.740776 21.623165-5.000464 44.270315-18.124547 58.554916-65.492419 97.201843-91.109128 25.497244-16.895764 61.789004-25.309513 92.192847-22.792215 41.09596 3.396219 74.25603 32.136085 114.541334 36.914684 13.994471 1.655444 24.968185-3.438885 38.809058-3.985011 5.427124-0.21333 10.948114 0.136531 16.375239 0 0.443727 6.800972-4.821266 11.033446-4.249541 18.20988 1.928506 24.353793 12.577958 56.472812 25.360713 77.353586 13.030218 21.290369 20.78691 22.246089 40.268237 33.424601 3.933812 2.261302 5.589255 7.543361 10.956648 9.514533 15.914445 5.819652 68.154782 7.714026 84.615352 4.11301 6.681507-1.45918 54.143244-29.021462 60.056761-34.107258 2.65383-2.286901 21.367168-25.258314 23.969799-29.251858 5.162595-7.893223 12.023299-27.255086 12.87662-36.436825 0.913054-9.753464-3.729015-14.054204-4.266607-20.539446-0.409594-4.915131 2.89276-9.395069 2.619697-12.074498-1.228783-12.125697-4.454338-34.798448-11.110245-44.586045-4.258074-6.263379-10.03506-6.340178-13.866473-10.70065-2.338101-2.65383-3.234088-7.159367-6.092715-10.282524-10.393455-11.340642-22.382621-21.358635-32.827275-32.673677l20.462648-2.039438z m-398.313373 82.720979c-11.716103 1.43358-29.072661 4.607936-39.833044 9.309736-72.003262 31.427828-30.173445 92.986435 38.911456 83.949762 24.524458-3.208489 57.658929-33.945126 59.578902-59.459437 1.894374-25.198582-39.082121-36.197895-58.657314-33.808595zM625.313938 801.746676c13.83234-18.167213 13.235015-41.974881-8.499081-53.247257-29.533454-15.31712-71.755798-10.760383-101.272186 2.84156-26.359099 12.142764-67.420926 56.105884-27.400151 76.713596s103.19216-0.725323 137.179952-26.299366z" fill="#FAEFDD" p-id="3550"></path><path d="M147.163813 704.340035l12.287828 8.166286c-8.720945-0.750923-14.455265 9.514534-18.252545 16.580036-21.4781 40.003708-18.721872 93.643493 8.12362 130.720308 14.660062 20.249317 82.089521 39.261319 105.74359 32.272616 3.199955-0.947187 5.725787-5.273526 9.616933-6.766838 29.780918-11.417441 39.781845-16.349638 57.957591-44.389781 11.895301-18.346411 15.547516-43.408461 12.782755-64.860961-1.032519-7.995622-16.298439-45.524698-21.256237-50.38863-4.06181-3.985011-17.834418-7.526295-19.617859-17.220026 12.134231-0.674124 24.780454 0.913054 36.846419-0.008534 1.64691 12.552358 12.936353 16.537369 18.500008 28.577735 4.30074 9.309737 14.207802 42.333276 14.207802 51.259018 0 4.164209-3.660749 8.174819-3.985011 12.37316-0.605858 7.918823 0.947187 15.957111-0.733857 23.799135-1.143451 5.341792-15.999777 36.701354-19.720258 41.684751-21.486633 28.799598-84.436155 62.556993-120.207389 54.535772-12.134231-2.722095-29.849183-14.497931-42.461274-18.952269-4.761534-1.681043-22.920213-8.183352-25.744707-0.870387-33.893927-32.537146-48.23826-53.938447-65.500952-98.259962-2.687962-47.205741 17.194427-81.355664 61.413543-98.259962z" fill="#FBE5CF" p-id="3551"></path><path d="M933.217907 528.299826l-20.462648 2.039438c10.444654 11.315042 22.442353 21.341569 32.827276 32.673677 2.858627 3.123156 3.754614 7.628694 6.092715 10.282523 3.831413 4.360472 9.608399 4.437271 13.866473 10.700651 6.647374 9.787597 9.872929 32.451814 11.110245 44.586044 0.273063 2.670896-3.029291 7.159367-2.619697 12.074499 0.537592 6.493776 5.179661 10.785983 4.266607 20.539446-0.861855 9.181739-7.714026 28.543602-12.87662 36.436825-2.611164 3.985011-21.315969 26.964957-23.969799 29.251858-5.913517 5.077262-53.375255 32.639544-60.056762 34.107257-16.46057 3.601016-68.692375 1.69811-84.615352-4.113009-5.375925-1.962639-7.022835-7.253232-10.956647-9.514534-19.481328-11.169977-27.246553-12.134231-40.268238-33.4246-12.782755-20.889308-23.440739-52.999794-25.360713-77.353587-0.571725-7.176433 4.701801-11.408907 4.249541-18.209879-5.427124 0.136531-10.948114-0.221864-16.375238 0 15.479251-7.918823 30.437975-14.873392 45.038305-24.567124 14.677128-1.228783 4.445805 2.884226 4.095942 10.239857-0.639991 13.38008-2.431966 50.422763 0.580259 60.824751 0.50346 1.732242 15.692581 28.006009 17.945349 31.180365 5.008997 7.074035 34.149923 30.028381 41.471422 32.204351 12.339028 3.677815 46.898545 2.039438 59.979962-0.145065 14.753927-2.457566 40.191439-16.469103 49.731573-28.048675 53.588585-65.040159 6.024449-123.586542-52.197672-160.407361-5.887918-3.729015-13.482478-0.307196-11.076112-11.357708 1.203183-0.298662 2.705029 0.196264 4.095943 0 2.935426-0.409594 6.570575 0.810655 9.727864-0.452261l2.551431-3.643682c25.138849-5.188194 30.241711-4.189808 53.221658 4.095943z" fill="#FAE2CA" p-id="3552"></path><path d="M184.010232 696.156683c4.411672-0.435194 9.668132-0.179197 14.216334 0 4.735934 0.187731 11.374775-2.713562 10.342256 4.078876-19.455728 3.13169-34.900846 23.543138-44.38978 39.542915-15.777913 26.606562-17.868551 54.015246-6.920437 83.429235 10.188658 27.383084 33.475799 38.689593 61.37941 40.976495 40.729031 3.336487 58.640248-9.241471 83.5999-39.577047-2.969559-11.775836 5.435657-27.263619 4.744467-36.146696-0.324262-4.121542-3.601016-8.106554-4.189808-12.543825-0.853321-6.502309 1.186117-13.397146-0.639992-19.814123-0.290129-1.023986-8.831877-17.663753-9.702264-18.952269-10.06066-14.805127-32.357948-25.241248-47.01801-34.85818 4.113009-3.839946 14.660062-2.252769 20.462647-2.039438 25.428978 0.938654 51.216352 7.082568 77.788781 4.095942-0.69119 0.162131-2.909826 3.379153-12.279295 4.095943-12.065965 0.93012-24.712188-0.665591-36.846419 0.008534 1.783442 9.702265 15.55605 13.235015 19.617859 17.220026 4.957797 4.863932 20.223718 42.393008 21.256237 50.38863 2.764761 21.461034-0.887454 46.523084-12.782755 64.860961-18.175746 28.040142-28.176673 32.97234-57.957591 44.389781-3.882612 1.493312-6.416977 5.819652-9.616932 6.766838-23.645537 6.988702-91.074995-12.023299-105.743591-32.272616-26.845492-37.076816-29.60172-90.7166-8.12362-130.720308 3.79728-7.065501 9.5316-17.330958 18.252545-16.580036l-12.287828-8.166286c1.262916-0.486393 5.051663-7.176433 12.279295-4.095943l16.375238-4.095942c2.705029-0.179197 5.503923 0.26453 8.191886 0z" fill="#FAD9BF" p-id="3553"></path><path d="M265.894955 700.252626c-5.802586-0.21333-16.349638-1.800508-20.462647 2.039438 14.660062 9.616932 36.957351 20.053053 47.01801 34.85818 0.870388 1.288515 9.412135 17.928283 9.702264 18.952269 1.826108 6.416977-0.21333 13.311814 0.639992 19.814123 0.580259 4.437271 3.865546 8.430816 4.189808 12.543825 0.69119 8.891609-7.714026 24.37086-4.744467 36.146696-24.959652 30.335577-42.870868 42.913534-83.5999 39.577047-27.895077-2.286901-51.182219-13.59341-61.37941-40.976495-10.948114-29.413989-8.857476-56.822674 6.920437-83.429235 9.488934-16.00831 24.925519-36.411225 44.38978-39.542915 1.032519-6.792439-5.606322-3.891146-10.342256-4.078876-4.53967-0.179197-9.804663-0.435194-14.216334 0l30.881702-4.275141 50.994488 8.36255z m-50.704359 29.132393c-5.136995 1.535979-31.402228 29.960115-33.4246 36.163762-16.452037 50.439829 29.175059 86.083065 74.776556 62.497261 15.786446-8.166286 23.858867-35.506704 21.648765-52.052607-3.217022-24.10633-38.89439-53.801916-63.000721-46.608416z" fill="#FAC9AC" p-id="3554"></path><path d="M863.621012 528.299826c-2.406366 11.050512 5.188194 7.628694 11.076112 11.357708 58.222121 36.829353 105.786257 95.375735 52.197671 160.407361-9.540134 11.579572-34.986178 25.591109-49.731572 28.048675-13.081417 2.184503-47.640935 3.814347-59.979963 0.145065-7.321498-2.17597-36.462424-25.138849-41.471421-32.204351-2.252769-3.182889-17.450423-29.456656-17.945349-31.180365-3.003691-10.401988-1.211716-47.444671-0.580259-60.824751 0.349862-7.355631 10.572652-11.46864-4.095943-10.239857 11.895301-7.893223 21.95596-22.092492 36.846419-24.567123-0.938654 5.222327 0.853321 11.502773-0.648524 17.757618-2.500232 10.419055-10.453187 19.199732-11.801435 33.253936-1.604244 16.6995 1.015452 37.059749 10.495853 51.250485 3.191422 4.7786 24.814587 26.2567 29.260392 28.048675 18.269612 7.364164 54.356575 9.437735 70.834211-1.45918 26.700427-17.663753 41.351956-35.489638 36.889085-69.417697-3.31942-25.232714-23.210343-42.486874-40.976495-57.283467l-57.215201-26.717494c12.42436-6.365778 21.990093-12.671823 36.846419-16.375238z" fill="#FAD2B7" p-id="3555"></path><path d="M826.774593 544.675064l57.215201 26.717494c17.766152 14.796593 37.648541 32.050753 40.976495 57.283467 4.462871 33.92806-10.188658 51.753944-36.889085 69.417697-16.477637 10.896915-52.5646 8.81481-70.834211 1.45918-4.454338-1.791975-26.068969-23.278608-29.260392-28.048675-9.488934-14.190735-12.100098-34.550984-10.495853-51.250485 1.348248-14.054204 9.301204-22.834881 11.801435-33.253936 1.501846-6.246313-0.290129-12.535292 0.648524-17.757618 1.314115-7.295898 23.671136-19.703192 31.316896-23.824734 1.971172-1.066652 4.386072-0.153598 5.529523-0.733857z m2.713562 33.433133c-36.76962 8.226019-37.810672 83.642566 1.228783 99.778874 39.978109 16.520303 80.587675-11.118778 67.907319-55.61949-7.116701-24.985251-43.357261-49.927836-69.136102-44.159384z" fill="#F9CAAD" p-id="3556"></path><path d="M175.826879 696.156683l-16.375238 4.095943 2.474632-3.652216 13.900606-0.443727z" fill="#FAC9AC" p-id="3557"></path><path d="M879.99625 524.203883l-2.551431 3.643682c-3.157289 1.254382-6.800972 0.042666-9.727864 0.452261l2.568497-3.626616c3.097557-1.390914 7.022835 0.085332 9.710798-0.469327z" fill="#FAD2B7" p-id="3558"></path><path d="M534.904534 611.020805c19.575193-2.3893 60.551688 8.60148 58.657314 33.808594-1.919973 25.505777-35.054444 56.250948-59.578902 59.459437-69.084902 9.036674-110.914718-52.5134-38.911456-83.949762 10.768916-4.701801 28.116941-7.88469 39.833044-9.309736z" fill="#4E2F28" p-id="3559"></path><path d="M625.313938 801.746676c-33.987792 25.582576-97.491973 46.736414-137.179952 26.299366s1.041052-64.570832 27.400151-76.713596c29.524921-13.59341 71.738732-18.150147 101.272187-2.84156 21.734097 11.272376 22.331422 35.080044 8.499081 53.247256z m-78.189842-35.199509c-11.929433 2.022372-51.574747 22.032759-51.933141 34.013392 11.127311 12.68889 31.171832 11.699037 46.949744 10.137458 13.508078-1.339715 63.606579-17.313892 67.634256-30.634239 5.350325-17.663753-51.899009-15.342719-62.659392-13.516611z" fill="#4E2E25" p-id="3560"></path><path d="M215.190596 729.385019c24.097797-7.1935 59.783699 22.502086 63.000721 46.608416 2.210102 16.537369-5.862318 43.886321-21.648765 52.052607-45.601497 23.585804-91.228593-12.057432-74.776556-62.497261 2.022372-6.203647 28.287605-34.627783 33.4246-36.163762z" fill="#FABB9A" p-id="3561"></path><path d="M829.488155 578.108197c25.770307-5.768453 62.010868 19.174132 69.136102 44.159384 12.680356 44.500712-27.92921 72.148326-67.907319 55.61949-39.039455-16.136308-37.998403-91.544322-1.228783-99.778874z" fill="#FABC9D" p-id="3562"></path><path d="M547.124096 766.547167c10.760383-1.826108 68.009717-4.147142 62.659392 13.516611-4.03621 13.320347-54.126178 29.294524-67.634255 30.634239-15.777913 1.561578-35.822433 2.551431-46.949745-10.137458 0.358395-11.989166 39.995175-31.99102 51.933142-34.013392z" fill="#F39173" p-id="3563"></path></svg>