<?xml version="1.0" standalone="no"?><!DOCTYPE svg PUBLIC "-//W3C//DTD SVG 1.1//EN" "http://www.w3.org/Graphics/SVG/1.1/DTD/svg11.dtd"><svg t="1772951601472" class="icon" viewBox="0 0 1024 1024" version="1.1" xmlns="http://www.w3.org/2000/svg" p-id="6506" xmlns:xlink="http://www.w3.org/1999/xlink" width="200" height="200"><path d="M157.316292 15.5392c41.736533-7.048533 80.810667 15.1296 115.2 36.2496 21.640533 13.2864 44.032 29.4912 64.093867 45.090133 10.3168 8.021333 17.1008 21.2224 31.197867 23.688534l61.832533-11.0336c62.0032-4.599467 124.074667-4.642133 185.463467 3.6352 12.834133 1.732267 26.820267 8.533333 40.192 7.304533 6.2976-0.9216 28.535467-23.304533 36.224-29.2864 30.011733-23.364267 69.896533-51.6352 104.900266-66.1504 73.0112-30.276267 111.095467 7.150933 135.415467 73.472 33.792 92.151467 30.8736 190.114133 32.213333 285.7472 0.256 18.039467 37.8112 102.5792 45.115734 131.874133 80.170667 321.271467-177.5616 474.274133-459.426134 492.330667-194.935467 12.484267-474.734933-61.499733-536.004266-275.729067C-9.126374 652.8-1.198908 577.297067 21.013359 497.937067 30.553626 463.863467 62.818159 396.330667 60.078959 366.1056c-6.459733-71.432533 0.768-165.4272 19.165867-235.741867 9.659733-36.923733 35.447467-107.630933 78.062933-114.824533zM31.048559 677.205333c-1.9712 27.818667 11.4688 55.790933 21.8368 80.068267 2.773333 6.5024 4.6848 9.403733 7.278933 14.557867 21.4016 42.5216 38.459733 66.397867 76.586667 96.290133 198.9376 156.0064 569.941333 155.008 762.368-12.509867 24.413867-21.256533 38.570667-46.2592 56.337067-72.8576 0.3328-0.494933 4.1984-1.8944 6.766933-5.8624 12.996267-20.0448 29.585067-68.8896 29.627733-92.398933l7.441067-38.058667c0.256-55.005867-10.871467-109.678933-27.349333-162.218666-8.661333-27.6224-31.266133-70.7328-34.619734-96.401067-5.000533-38.3488 2.619733-87.082667-0.136533-127.240533-3.328-48.5376-22.826667-156.3392-51.370667-196.113067-13.6704-19.0464-31.658667-27.562667-55.227733-23.4496-40.362667 7.04-112.904533 63.4624-146.346667 90.2144-8.081067 6.468267-13.431467 16.964267-25.514666 18.4576l-80.034134-14.6688c-65.0752-5.026133-128.5888-2.5088-192.6912 7.330133-9.0368 1.390933-19.549867 5.0176-28.757333 6.766934-41.787733-32.187733-86.459733-72.260267-134.417067-94.958934-29.568-13.994667-60.270933-24.593067-84.258133 4.522667-34.414933 41.770667-45.380267 141.6448-49.373867 194.466133-3.370667 44.672 2.107733 94.404267-3.626666 138.308267-3.473067 26.615467-26.0608 71.0656-34.6112 100.0448-17.058133 57.8048-24.004267 105.335467-23.543467 165.6832 0.042667 5.981867-2.679467 16.9984 3.626667 20.027733z" fill="#4A2A21" p-id="6507"></path><path d="M991.850692 684.484267c0.068267-40.558933-30.455467-83.4304-72.789333-87.3472v-1.8944c-13.192533-2.4832-29.960533-2.747733-43.6736-1.749334l-16.0512 0.392534-2.1504 3.242666c-1.186133 0.170667-2.4576-0.187733-3.6352 0-32.3328 5.162667-48.836267 17.621333-76.424533 29.115734-10.589867 4.411733-26.811733 11.537067-36.394667 14.557866-6.229333 1.962667-11.733333 2.816-18.193067 3.6352-3.84 0.4864-8.32-0.8448-12.356266 0.392534l-2.2016 3.242666c-8.328533 0.2048-17.194667 0.4864-25.472 0l-2.2016-3.242666-12.356267-0.401067c-38.621867-14.4384-52.309333-36.923733-84.821333-55.296-47.624533-26.914133-113.800533-24.388267-158.865067 6.3232-30.045867 20.48-39.6544 34.3296-76.586667 48.9728-16.776533-1.476267-36.394667 2.090667-52.7104-0.059733-15.470933-2.039467-38.766933-10.9312-52.829866-18.133334-24.849067-12.731733-51.473067-27.042133-80.068267-29.115733-1.2032-0.085333-2.432 0.059733-3.6352 0l-2.141867-3.242667c-16.085333 0-33.3056-2.286933-48.810666 1.348267v1.8944c-39.9872 3.9936-73.608533 40.32-76.424534 80.068267-6.306133-3.029333-3.584-14.045867-3.626666-20.027734-0.4608-60.347733 6.485333-107.8784 23.543466-165.6832 8.5504-28.9792 31.138133-73.429333 34.6112-100.0448 5.725867-43.904 0.256-93.636267 3.626667-138.308266 3.985067-52.829867 14.958933-152.704 49.373867-194.466134 23.9872-29.115733 54.690133-18.517333 84.258133-4.522666 47.965867 22.698667 92.629333 62.7712 134.417067 94.958933 9.216-1.757867 19.720533-5.384533 28.757333-6.766933 64.1024-9.838933 127.616-12.356267 192.6912-7.330134l80.034133 14.6688c12.0832-1.493333 17.425067-11.989333 25.514667-18.4576 33.442133-26.752 105.984-83.182933 146.346667-90.2144 23.560533-4.113067 41.557333 4.4032 55.227733 23.4496 28.544 39.773867 48.034133 147.575467 51.370667 196.113067 2.756267 40.157867-4.872533 88.891733 0.136533 127.240533 3.345067 25.668267 25.949867 68.778667 34.619733 96.401067 16.477867 52.539733 27.605333 107.2128 27.349334 162.218667l-7.441067 38.058666zM143.876292 287.786667c6.2464 1.5104 7.236267-2.389333 10.914134-5.4528 17.134933-14.267733 32.034133-34.816 49.058133-49.2032 23.2704-19.669333 51.968-32.9216 74.615467-52.9408-5.905067-18.551467-21.7344-26.658133-34.577067-37.905067-5.768533-5.051733-10.333867-11.588267-16.4608-16.290133-24.8064-19.054933-50.8672-27.9808-66.065067 6.408533-8.439467 19.089067-15.8464 63.522133-17.408 84.497067-1.7152 23.0656 1.092267 47.658667-0.068266 70.8864z m731.511467-3.6352v-74.606934c0-5.410133-6.0672-38.2208-7.970133-46.626133-5.230933-23.0912-15.854933-61.568-46.813867-51.8144-22.007467 6.9376-58.8288 42.299733-74.4192 60.2112-2.193067 2.517333-6.673067 4.701867-5.4016 8.925867 21.947733 18.389333 49.015467 30.353067 70.9888 49.237333 17.152 14.7456 33.553067 37.888 50.798933 51.106133 4.650667 3.566933 6.690133 4.471467 12.817067 3.5584zM320.985626 390.289067c-5.896533 1.288533-17.3312 10.615467-20.770134 15.624533-35.515733 51.7376 58.120533 111.3344 103.936 74.8288 4.625067-3.6864 10.820267-11.3152 12.074667-17.041067 11.392-52.266667-50.397867-83.208533-95.240533-73.403733z m338.568533 0.1024c-33.570133 5.6832-76.4416 44.731733-56.6016 80.674133 23.7056 42.948267 111.5392 12.322133 118.869333-29.329067 7.441067-42.299733-24.516267-57.736533-62.267733-51.345066zM455.104026 415.232c-11.485867 7.543467-0.520533 12.791467 1.1776 20.5312 3.7632 17.143467-7.253333 32.119467-6.5024 35.438933 0.605867 2.679467 8.823467 10.513067 12.3648 9.412267 16.0256-4.992 16.955733-49.297067 7.517866-61.858133l-14.549333-3.524267z m43.6224-0.059733c-4.983467 1.390933-5.230933 8.260267-5.5808 12.6208-0.674133 8.448-1.211733 40.849067 1.826133 45.704533 2.577067 4.1216 6.545067 4.096 10.88 3.4048 3.131733-0.9216 7.8848-9.813333 8.618667-13.218133 2.397867-11.1104 3.549867-53.879467-15.752534-48.512z m56.3968 0c-26.205867-4.855467-30.071467 38.331733-21.1456 55.722666 4.693333 9.147733 17.826133 15.197867 21.009066 4.155734 1.826133-6.340267-4.642133-21.435733-3.643733-32.759467 0.802133-9.028267 5.879467-17.220267 3.780267-27.118933zM191.714159 585.685333c17.732267 9.5744 36.846933-4.7616 55.9616-6.664533 23.7568-2.363733 59.758933-1.117867 82.8672 4.317867 20.3264 4.778667 38.903467 15.812267 58.973867 21.3248 35.703467-5.5296 0.750933-42.734933-14.481067-54.903467-35.0208-27.989333-87.0144-38.280533-130.397867-28.3648-20.539733 4.693333-54.536533 21.504-57.181866 44.842667-0.8448 7.424 1.749333 12.9024 4.258133 19.447466z m529.792-67.831466c-33.681067 4.078933-88.157867 28.928-103.936 59.835733-3.746133 7.338667-6.997333 15.035733-2.525867 23.2192 2.952533 3.976533 6.613333 3.754667 11.101867 3.703467 12.680533-0.1536 42.564267-17.314133 58.9312-21.2736 22.766933-5.512533 59.400533-6.656 82.8672-4.317867 21.444267 2.133333 52.1216 24.4224 62.1568-3.575467 2.986667-8.3456-2.491733-18.397867-7.5776-25.5232-19.780267-27.690667-69.0432-35.933867-101.026133-32.059733z" fill="#F7C07B" p-id="6508"></path><path d="M143.876292 287.786667c1.169067-23.227733-1.646933-47.829333 0.068267-70.8864 1.5616-20.974933 8.968533-65.399467 17.408-84.497067 15.197867-34.389333 41.258667-25.463467 66.065067-6.408533 6.126933 4.701867 10.692267 11.2384 16.4608 16.290133 12.8512 11.246933 28.672 19.3536 34.577066 37.905067-22.647467 20.0192-51.345067 33.271467-74.615466 52.9408-17.024 14.3872-31.9232 34.935467-49.058134 49.2032-3.677867 3.063467-4.667733 6.9632-10.914133 5.4528z" fill="#F9C5B2" p-id="6509"></path><path d="M875.387759 284.151467c-6.126933 0.913067-8.1664 0-12.817067-3.5584-17.245867-13.218133-33.646933-36.352-50.798933-51.106134-21.973333-18.8928-49.041067-30.848-70.9888-49.237333-1.271467-4.232533 3.208533-6.408533 5.4016-8.925867 15.5904-17.911467 52.411733-53.2736 74.4192-60.2112 30.958933-9.762133 41.582933 28.7232 46.813867 51.8144 1.902933 8.3968 7.970133 41.216 7.970133 46.626134V284.16z" fill="#F8C6B4" p-id="6510"></path><path d="M721.506159 517.853867c31.9744-3.874133 81.245867 4.369067 101.026133 32.059733 5.085867 7.125333 10.5728 17.186133 7.5776 25.5232-10.0352 27.997867-40.712533 5.717333-62.1568 3.575467-23.466667-2.338133-60.091733-1.194667-82.8672 4.317866-16.366933 3.968-46.250667 21.128533-58.9312 21.2736-4.497067 0.0512-8.157867 0.273067-11.101866-3.703466-4.471467-8.183467-1.220267-15.872 2.525866-23.2192 15.778133-30.907733 70.254933-55.7568 103.936-59.835734z" fill="#4E2E27" p-id="6511"></path><path d="M191.714159 585.685333c-2.5088-6.545067-5.102933-12.023467-4.258133-19.447466 2.645333-23.338667 36.642133-40.149333 57.181866-44.842667 43.383467-9.915733 95.377067 0.366933 130.397867 28.3648 15.232 12.168533 50.184533 49.373867 14.481067 54.903467-20.0704-5.512533-38.647467-16.546133-58.973867-21.3248-23.108267-5.435733-59.101867-6.6816-82.8672-4.317867-19.106133 1.902933-38.229333 16.238933-55.9616 6.664533z" fill="#4F2F27" p-id="6512"></path><path d="M320.985626 390.289067c44.8512-9.8048 106.641067 21.137067 95.240533 73.403733-1.245867 5.725867-7.441067 13.354667-12.074667 17.041067-45.815467 36.5056-139.451733-23.082667-103.936-74.8288 3.438933-5.009067 14.865067-14.336 20.770134-15.624534z" fill="#F7ECDA" p-id="6513"></path><path d="M659.554159 390.391467c37.751467-6.391467 69.7088 9.045333 62.267733 51.345066-7.330133 41.6512-95.172267 72.2688-118.869333 29.329067-19.84-35.9424 23.031467-74.990933 56.6016-80.674133z" fill="#F7ECD9" p-id="6514"></path><path d="M555.123226 415.172267c2.0992 9.898667-2.978133 18.090667-3.780267 27.118933-1.006933 11.323733 5.469867 26.4192 3.643733 32.759467-3.1744 11.042133-16.3072 4.992-21.009066-4.155734-8.925867-17.390933-5.060267-60.578133 21.1456-55.722666z" fill="#53362A" p-id="6515"></path><path d="M455.104026 415.232l14.549333 3.524267c9.4464 12.561067 8.507733 56.866133-7.517867 61.858133-3.5328 1.1008-11.758933-6.7328-12.3648-9.412267-0.750933-3.328 10.2656-18.295467 6.5024-35.438933-1.698133-7.739733-12.663467-12.9792-1.1776-20.5312z" fill="#53342B" p-id="6516"></path><path d="M498.726426 415.172267c19.3024-5.376 18.1504 37.393067 15.752533 48.512-0.733867 3.4048-5.486933 12.296533-8.618667 13.218133-4.334933 0.6912-8.302933 0.725333-10.88-3.4048-3.037867-4.855467-2.500267-37.256533-1.826133-45.704533 0.349867-4.360533 0.5888-11.229867 5.5808-12.6208z" fill="#4F3429" p-id="6517"></path><path d="M667.942426 644.445867c0.213333 0.0768 0.418133 2.56 2.3808 3.165866 4.010667 1.2288 8.157867 0.2304 12.177066 0.469334 8.277333 0.4864 17.152 0.2048 25.472 0 2.4064-0.059733 4.898133 0.221867 7.278934 0 0.418133 11.630933-9.335467 19.0976-10.8544 30.993066-7.953067 62.250667 8.132267 126.6944 71.7056 150.178134 31.4624 11.6224 86.254933 16.452267 119.304533 11.707733 4.701867-0.674133 8.746667-3.140267 12.765867-5.435733l32.6656-43.758934 14.626133-9.0368c-17.774933 26.606933-31.9232 51.601067-56.337067 72.8576-192.426667 167.517867-563.4304 168.516267-762.368 12.509867-38.1184-29.892267-55.185067-53.768533-76.586666-96.290133 3.319467-8.209067 7.9872 5.504 9.0624 7.313066 14.455467 24.098133 28.3904 33.5104 55.3984 42.871467 36.497067 12.654933 82.1248 10.692267 117.5552-4.6336 65.2032-28.2112 84.6592-106.786133 58.180266-169.275733 1.8432-1.570133 34.5344 1.041067 42.103467 0.093866 5.0176-0.631467 4.9152-3.626667 5.213867-3.7376 36.932267-14.6432 46.5408-28.4928 76.586666-48.9728 45.064533-30.711467 111.232-33.245867 158.865067-6.3232 32.503467 18.372267 46.190933 40.8576 84.821333 55.296zM492.206959 597.905067c-56.6528 7.995733-79.300267 57.489067-23.313067 87.278933 26.658133 14.1824 60.765867 15.368533 86.135467-2.619733 6.818133-4.829867 23.253333-21.888 24.968533-29.6192 10.487467-47.232-52.693333-59.997867-87.7824-55.04z m128.9472 105.2928c-6.2208 38.596267-38.9888 51.234133-74.325333 38.7072-13.909333-4.932267-24.123733-15.044267-37.188267-21.239467-9.378133-0.887467-26.376533 15.982933-38.0928 20.352-33.723733 12.5696-71.099733 0.5632-74.5728-38.493867-26.897067-14.916267-29.354667 15.018667-19.601067 34.158934 24.32 47.744 90.6496 48.682667 129.092267 17.220266 25.838933 14.165333 48.776533 25.472 79.5392 21.512534 28.1344-3.626667 68.445867-38.212267 58.376533-69.179734-7.3472-10.112-13.2864-7.4752-23.2192-3.029333z" fill="#F9EFDD" p-id="6518"></path><path d="M158.434159 597.137067c1.211733 0.059733 2.432-0.085333 3.6352 0-3.626667 9.088-14.446933 7.296-23.099733 11.4688-29.2096 14.088533-50.8672 44.5952-58.948267 75.716266-4.923733 18.9696-7.022933 32.384 0.034133 51.242667 7.944533 21.2224 27.776 44.091733 48.170667 53.725867 16.7168 7.901867 29.090133 7.0144 46.481067 8.081066 3.703467 0.2304 7.2704 3.524267 11.008 3.5328 9.2928 0.034133 47.9488-14.139733 56.32-20.078933 10.862933-7.714133 23.927467-28.040533 28.407466-40.738133 4.949333-14.0288 3.447467-25.693867 8.046934-39.227734-5.2224-11.9552-2.286933-26.837333-9.096534-38.186666-4.608-7.68-21.614933-21.162667-29.090133-29.141334-5.026133-5.376-10.1888-8.081067 1.8176-7.278933 14.062933 7.202133 37.358933 16.093867 52.829867 18.133333 16.315733 2.1504 35.933867-1.416533 52.7104 0.059734-0.298667 0.119467-0.187733 3.114667-5.213867 3.7376-7.560533 0.9472-40.260267-1.664-42.103467-0.093867 26.478933 62.4896 7.022933 141.064533-58.180266 169.275733-35.4304 15.3344-81.066667 17.288533-117.5552 4.6336-26.999467-9.361067-40.942933-18.773333-55.3984-42.871466-1.083733-1.800533-5.742933-15.522133-9.0624-7.313067-2.594133-5.154133-4.5056-8.055467-7.278934-14.557867 7.7312-5.265067-0.989867-14.5152-0.042666-23.5264 0.477867-4.497067 3.515733-8.584533 3.84-14.523733 1.783467-32.597333-1.143467-63.240533 23.3472-89.472l42.001066-32.605867c11.767467-0.4096 24.669867-0.554667 36.394667 0z" fill="#FAE1C9" p-id="6519"></path><path d="M919.061359 597.137067c42.333867 3.908267 72.849067 46.788267 72.789333 87.3472-0.034133 23.517867-16.622933 72.354133-29.627733 92.398933-2.568533 3.968-6.434133 5.367467-6.766933 5.8624l-14.626134 9.0368-32.6656 43.758933c-4.0192 2.295467-8.064 4.7616-12.765866 5.435734-33.041067 4.744533-87.8336-0.0768-119.304534-11.707734-63.573333-23.492267-79.658667-87.927467-71.7056-150.178133 1.518933-11.895467 11.272533-19.362133 10.8544-30.993067 1.698133-0.1536 3.464533 0.349867 5.12-0.392533l2.158934-3.242667c6.468267-0.8192 11.963733-1.672533 18.193066-3.6352 12.1344-0.759467 6.698667 1.851733 1.826134 7.287467-23.364267 26.043733-20.138667 81.450667-7.330134 112.861867 8.328533 20.4288 21.614933 32.2816 40.6528 43.050666 44.561067 25.198933 102.254933 18.542933 142.4384-11.272533 1.109333-0.8192 0.375467-4.5568 1.4848-5.418667 11.409067-8.8064 27.042133-14.293333 35.2-28.672 5.12-38.997333 10.436267-83.421867-12.381866-117.742933-4.241067-6.382933-21.589333-27.1104-27.246934-30.984533-4.906667-3.362133-14.1056-2.8416-18.1504-10.965334l21.828267-1.8176z" fill="#F8E7D2" p-id="6520"></path><path d="M107.481626 597.137067c4.744533-0.477867 9.762133 0.170667 14.557866 0l-42.001066 32.605866c-24.4992 26.231467-21.572267 56.874667-23.3472 89.472-0.324267 5.9392-3.370667 10.026667-3.84 14.523734-0.9472 9.0112 7.773867 18.261333 0.042666 23.5264-10.359467-24.277333-23.808-52.2496-21.8368-80.068267 2.816-39.748267 36.437333-76.074667 76.424534-80.068267z" fill="#F8EAD5" p-id="6521"></path><path d="M242.137626 626.2528c-12.014933-0.802133-6.843733 1.902933-1.8176 7.278933 7.466667 7.9872 24.482133 21.461333 29.090133 29.141334 6.8096 11.349333 3.8656 26.231467 9.096533 38.186666-4.608 13.5424-3.0976 25.207467-8.046933 39.227734-4.48 12.6976-17.544533 33.024-28.407467 40.738133-8.362667 5.9392-47.0272 20.104533-56.32 20.078933-3.7376-0.017067-7.304533-3.3024-11.008-3.5328-17.399467-1.066667-29.764267-0.187733-46.481066-8.081066-20.394667-9.634133-40.226133-32.503467-48.170667-53.725867-7.057067-18.858667-4.957867-32.273067-0.034133-51.242667 8.072533-31.121067 29.730133-61.627733 58.948266-75.716266 8.6528-4.1728 19.4816-2.3808 23.099734-11.4688 28.5952 2.0736 55.210667 16.384 80.068266 29.115733z m9.386666 74.3424c0-41.437867-33.5872-75.025067-75.025066-75.025067s-75.025067 33.5872-75.025067 75.025067 33.5872 75.025067 75.025067 75.025067 75.025067-33.5872 75.025066-75.025067z" fill="#F9D3B7" p-id="6522"></path><path d="M853.550959 597.137067l51.012267 30.8736c7.125333 12.808533 19.7632 22.4256 26.1888 35.677866 10.897067 22.468267 11.485867 65.032533-2.688 86.2208-5.76 8.610133-35.848533 34.0224-45.3376 38.365867-22.894933 10.478933-49.834667 10.6752-73.975467 4.693333-27.7504-6.869333-53.248-30.037333-57.045333-59.409066-1.885867-14.626133-1.9712-39.8848-0.068267-54.536534 0.989867-7.620267 14.848-26.948267 20.181333-34.4064 2.261333-3.165867 23.3216-19.2 5.2992-18.3552 27.588267-11.4944 44.091733-23.953067 76.424534-29.115733z m61.320533 102.3744c0-39.296-31.854933-71.150933-71.150933-71.150934s-71.150933 31.854933-71.150933 71.150934 31.854933 71.150933 71.150933 71.150933 71.150933-31.854933 71.150933-71.150933z" fill="#F9D1B4" p-id="6523"></path><path d="M919.061359 597.137067l-21.828267 1.8176c4.0448 8.123733 13.243733 7.6032 18.1504 10.965333 5.6576 3.874133 23.005867 24.6016 27.246934 30.984533 22.818133 34.321067 17.493333 78.7456 12.381866 117.742934-8.157867 14.3872-23.790933 19.8656-35.2 28.672-1.109333 0.861867-0.384 4.599467-1.4848 5.418666-40.183467 29.815467-97.877333 36.471467-142.4384 11.272534-19.037867-10.769067-32.324267-22.621867-40.6528-43.050667-12.808533-31.4112-16.034133-86.818133 7.330134-112.861867 4.872533-5.4272 10.308267-8.0384-1.826134-7.287466 9.582933-3.0208 25.8048-10.146133 36.394667-14.557867 18.0224-0.8448-3.037867 15.189333-5.2992 18.3552-5.333333 7.458133-19.191467 26.794667-20.181333 34.4064-1.902933 14.660267-1.826133 39.918933 0.068266 54.536533 3.797333 29.380267 29.294933 52.539733 57.045334 59.409067 24.149333 5.973333 51.080533 5.7856 73.975466-4.693333 9.4976-4.343467 39.5776-29.755733 45.3376-38.365867 14.173867-21.188267 13.585067-63.752533 2.688-86.2208-6.4256-13.252267-19.063467-22.869333-26.1888-35.677867l-51.012266-30.8736c1.1776-0.187733 2.449067 0.170667 3.6352 0 5.512533-0.7936 17.2288-3.566933 18.193066-3.6352 13.713067-0.9984 30.481067-0.733867 43.6736 1.749334v1.8944z" fill="#F9DFC6" p-id="6524"></path><path d="M158.434159 597.137067c-11.7248-0.554667-24.6272-0.4096-36.394667 0-4.795733 0.170667-9.813333-0.477867-14.557866 0v-1.8944c15.505067-3.6352 32.725333-1.339733 48.810666-1.348267l2.141867 3.242667z" fill="#F9D3B7" p-id="6525"></path><path d="M875.387759 593.501867c-0.964267 0.068267-12.689067 2.850133-18.193067 3.6352l2.1504-3.242667 16.0512-0.392533z" fill="#F9D1B4" p-id="6526"></path><path d="M682.500292 648.0896c-4.0192-0.238933-8.174933 0.759467-12.177066-0.469333-1.954133-0.605867-2.167467-3.089067-2.3808-3.165867l12.356266 0.401067 2.2016 3.242666zM722.538692 644.445867l-2.158933 3.242666c-1.664 0.7424-3.4304 0.238933-5.12 0.392534-2.3808 0.221867-4.872533-0.059733-7.278933 0l2.2016-3.242667c4.036267-1.237333 8.507733 0.093867 12.356266-0.392533z" fill="#F9DFC6" p-id="6527"></path><path d="M492.206959 597.905067c35.0976-4.957867 98.269867 7.808 87.7824 55.04-1.7152 7.7312-18.1504 24.7808-24.968533 29.6192-25.3696 17.979733-59.4688 16.802133-86.135467 2.619733-55.9872-29.789867-33.339733-79.274667 23.313067-87.278933z" fill="#4D2E26" p-id="6528"></path><path d="M621.154159 703.197867c9.9328-4.437333 15.880533-7.082667 23.2192 3.029333 10.069333 30.958933-30.250667 65.553067-58.376533 69.179733-30.762667 3.968-53.700267-7.338667-79.5392-21.512533-38.442667 31.4624-104.772267 30.523733-129.092267-17.220267-9.7536-19.140267-7.296-49.0752 19.601067-34.158933 3.4816 39.057067 40.849067 51.063467 74.5728 38.493867 11.716267-4.369067 28.714667-21.230933 38.0928-20.352 13.064533 6.1952 23.287467 16.3072 37.188266 21.239466 35.336533 12.526933 68.104533-0.119467 74.325334-38.7072z" fill="#4F2D24" p-id="6529"></path><path d="M251.524292 700.5952c0 41.437867-33.5872 75.025067-75.025066 75.025067s-75.025067-33.5872-75.025067-75.025067 33.5872-75.025067 75.025067-75.025067 75.025067 33.5872 75.025066 75.025067z m-106.990933-40.917333c-0.622933 0.597333-7.850667 12.962133-8.7296 14.9248-9.258667 20.642133-9.403733 45.952 8.106667 62.609066 5.2992 5.034667 23.927467 12.7488 30.890666 12.740267 1.9968 0 21.998933-4.445867 23.7568-5.3248 9.890133-4.9152 27.4944-33.339733 28.484267-44.407467 0.196267-2.1504-8.8576-24.618667-10.8544-28.014933-7.739733-13.201067-23.8336-23.364267-38.382933-27.221333-1.809067-0.162133-31.957333 13.44-33.28 14.6944z" fill="#FAC8A8" p-id="6530"></path><path d="M914.871492 699.511467c0 39.296-31.854933 71.150933-71.150933 71.150933s-71.150933-31.854933-71.150933-71.150933 31.854933-71.150933 71.150933-71.150934 71.150933 31.854933 71.150933 71.150934z m-84.386133-47.1808c-20.087467 4.5056-34.397867 32.136533-30.848 51.490133 7.2704 39.620267 53.1968 54.331733 79.4624 22.5792 6.0672-7.338667 11.844267-19.456 10.8544-29.064533-1.152-11.195733-10.9568-31.598933-20.411733-37.9392-9.2928-6.229333-28.151467-9.514667-39.057067-7.074134z" fill="#FAC7A6" p-id="6531"></path><path d="M144.533359 659.677867c1.314133-1.2544 31.4624-14.856533 33.28-14.6944 14.549333 3.857067 30.6432 14.020267 38.382933 27.221333 1.988267 3.396267 11.042133 25.864533 10.8544 28.014933-0.989867 11.0592-18.594133 39.483733-28.484266 44.407467-1.757867 0.8704-21.76 5.316267-23.7568 5.3248-6.9632 0.008533-25.591467-7.697067-30.890667-12.740267-17.518933-16.6656-17.365333-41.975467-8.106667-62.609066 0.878933-1.962667 8.106667-14.327467 8.7296-14.9248z" fill="#FBBC98" p-id="6532"></path><path d="M830.485359 652.330667c10.897067-2.440533 29.755733 0.836267 39.057067 7.074133 9.463467 6.340267 19.259733 26.743467 20.411733 37.9392 0.989867 9.608533-4.7872 21.725867-10.8544 29.064533-26.2656 31.752533-72.192 17.041067-79.4624-22.5792-3.549867-19.3536 10.769067-46.993067 30.848-51.490133z" fill="#FBBD9A" p-id="6533"></path></svg>