<?xml version="1.0" standalone="no"?><!DOCTYPE svg PUBLIC "-//W3C//DTD SVG 1.1//EN" "http://www.w3.org/Graphics/SVG/1.1/DTD/svg11.dtd"><svg t="1772951595598" class="icon" viewBox="0 0 1024 1024" version="1.1" xmlns="http://www.w3.org/2000/svg" p-id="6143" xmlns:xlink="http://www.w3.org/1999/xlink" width="200" height="200"><path d="M691.592533 645.435733c0.349867 0.085333 0.366933 3.362133 5.8368 4.164267 5.8624 0.861867 12.544-0.6144 18.594134-0.085333-14.549333 59.818667-9.1136 126.5152 44.910933 164.821333 48.5376 34.414933 90.939733 11.5968 140.475733 2.2272 5.256533-0.989867 11.067733 0.6912 16.315734 0.0256 7.133867-0.904533 13.858133-14.088533 18.218666-4.181333-12.689067 15.163733-25.207467 28.1344-38.749866 40.541866-190.301867 174.2848-620.356267 169.352533-796.100267-24.251733 2.773333-9.873067 10.496-8.021333 18.295467-8.2176 33.0496-0.836267 66.167467 16.3328 101.742933 12.194133 19.7632-2.295467 38.109867-11.716267 53.12-24.260266 24.823467-20.744533 49.646933-67.319467 49.2288-99.857067-0.1792-14.071467-10.845867-37.845333-15.650133-51.9936-2.577067-7.586133-8.106667-12.612267 5.026133-11.136 17.988267 2.0224 40.174933-3.498667 57.070933-10.120533 32.170667-12.603733 52.027733-41.070933 84.309334-54.152534 50.116267-20.309333 98.193067-15.854933 143.581866 13.474134 40.746667 26.333867 39.970133 37.4528 93.7728 50.798933z m-204.868266-48.085333c-11.4688 1.9456-35.456 13.687467-41.472 23.688533-8.635733 14.344533-6.0928 24.8064 2.56 38.0928 23.739733 36.445867 79.300267 40.96 113.365333 16.7424 22.570667-16.0512 33.390933-46.370133 8.132267-64.938666-20.864-15.342933-57.728-17.800533-82.5856-13.585067zM621.602133 717.994667c-0.904533 0.9472-20.309333 11.8528-22.306133 12.296533-37.768533 8.413867-58.683733-12.4672-88.925867-27.9808-20.923733 8.866133-37.7856 25.437867-61.149866 28.5696-24.849067 3.328-54.016-8.721067-57.070934-36.4288-0.8192-7.432533 6.638933-16.1792-5.870933-22.664533-18.7904-9.736533-17.885867 16.853333-16.3328 28.552533 2.193067 16.4864 13.056 33.28 26.965333 42.257067 38.306133 24.746667 78.190933 10.146133 113.4592-11.904 35.968 24.584533 85.572267 38.980267 122.248534 8.4736 18.304-15.223467 34.3808-51.652267 12.1856-68.9408-22.510933 5.870933-9.7536 33.6896-23.202134 47.761066z" fill="#FAF0DD" p-id="6144"></path><path d="M919.6544 596.565333c37.7856 3.106133 71.253333 44.2624 73.301333 81.450667 2.295467 41.617067-31.1552 103.492267-57.0112 134.391467-4.360533-9.898667-11.076267 3.285333-18.218666 4.181333-5.248 0.6656-11.067733-1.024-16.315734-0.0256-49.536 9.3696-91.938133 32.187733-140.475733-2.2272-54.016-38.306133-59.460267-105.0112-44.910933-164.821333-6.050133-0.529067-12.731733 0.9472-18.594134 0.085333-5.469867-0.802133-5.486933-4.078933-5.8368-4.164267 25.557333-0.042667 53.649067-7.287467 77.380267-16.290133-1.041067 13.474133-15.889067 18.065067-21.248 29.653333-10.350933 22.3744-9.847467 61.550933-1.288533 84.514134 12.381867 33.2288 47.36 56.917333 82.3296 60.117333 4.1472 0.384 7.509333-3.072 11.477333-3.072 3.976533 0 7.330133 3.456 11.477333 3.072 13.525333-1.2288 42.026667-11.989333 54.570667-18.645333 9.693867-5.1456 26.5728-19.950933 31.6672-29.431467 8.3968-15.624533 8.0384-60.6976 6.306133-79.547733-2.901333-31.496533-34.705067-50.679467-49.032533-77.2096l24.430933-2.030934z" fill="#FAE6D0" p-id="6145"></path><path d="M109.2352 596.565333c4.437333-0.418133 9.6-0.1792 14.139733 0 4.7104 0.187733 11.3152-2.696533 10.2912 4.061867-16.904533 2.833067-23.3216 22.382933-32.503466 34.696533-7.4752 10.0352-18.551467 15.675733-22.664534 30.276267-3.0208 10.7008-3.3536 36.0704-1.962666 47.3088 0.674133 5.410133 3.089067 4.522667 4.1984 5.828267-13.448533 40.0896 35.9168 80.904533 71.338666 85.4528 15.7696 2.0224 61.149867 2.978133 75.477334-1.7664 45.0816-14.933333 70.7584-73.326933 64.887466-118.237867-2.005333-15.3344-14.6944-30.848-16.221866-46.8992 11.8016 4.514133 20.155733 2.4832 30.788266 3.9936 4.974933 0.708267 5.504 4.113067 5.8624 4.155733-13.1328-1.476267-7.6032 3.549867-5.026133 11.136 4.804267 14.148267 15.4624 37.9136 15.650133 51.9936 0.418133 32.5376-24.413867 79.104-49.2288 99.857067-15.010133 12.544-33.348267 21.956267-53.12 24.260267-35.584 4.138667-68.693333-13.0304-101.742933-12.194134-7.799467 0.196267-15.522133-1.655467-18.295467 8.2176-3.310933-3.643733-9.429333-6.536533-14.071466-12.407466-25.326933-32-55.0912-93.5168-55.159467-134.203734-0.068267-43.357867 33.902933-81.425067 77.380267-85.521066z" fill="#FBE6D0" p-id="6146"></path><path d="M919.6544 596.565333l-24.430933 2.030934c14.327467 26.530133 46.139733 45.713067 49.032533 77.2096 1.732267 18.858667 2.090667 63.931733-6.306133 79.547733-5.0944 9.480533-21.9648 24.285867-31.6672 29.431467-12.544 6.656-41.045333 17.425067-54.570667 18.645333-4.1472 0.375467-7.509333-3.072-11.477333-3.072-3.968 0-7.330133 3.456-11.477334 3.072-34.9696-3.2-69.947733-26.888533-82.3296-60.117333-8.558933-22.9632-9.0624-62.139733 1.288534-84.514134 5.358933-11.588267 20.215467-16.1792 21.248-29.653333 10.4448-3.959467 23.9616-11.400533 36.650666-16.290133 7.227733 1.092267-2.286933 12.3904-3.968 14.3616-15.36 18.013867-31.291733 31.6672-36.010666 57.668266-1.851733 10.1888 3.848533 37.128533 8.2432 47.2576 22.784 52.548267 99.3792 55.6032 133.623466 13.141334 2.423467-3.003733 10.922667-14.711467 11.562667-16.9472 2.909867-10.154667 2.3552-40.874667 0.64-52.437334-18.628267-31.163733-39.611733-58.1376-75.400533-71.1936l10.1888-8.149333c2.628267-0.3328 5.538133 0.366933 8.1408 0 7.1168-0.989867 15.402667-3.9936 16.290133-4.0704 12.612267-1.066667 28.7232-0.8704 40.7296 1.954133v2.116267z" fill="#FAD8BD" p-id="6147"></path><path d="M211.0464 608.785067c-8.106667 1.194667 4.872533 11.511467 6.033067 12.296533 13.8496 9.4208 36.036267 21.845333 42.1632 39.287467 1.160533 3.3024 0.315733 7.6032 1.493333 10.7264 2.2016 5.845333 6.485333 10.760533 7.3472 17.1008 1.749333 12.868267-6.690133 44.509867-12.8256 56.4224-2.133333 4.138667-8.482133 13.525333-11.562667 16.9472-16.674133 18.5344-50.491733 25.6768-74.632533 21.5552-12.219733-2.090667-48.512-16.221867-55.995733-25.454934-1.809067-2.2272-14.429867-26.3936-15.317334-29.474133-2.3296-8.046933-5.538133-27.861333-4.983466-36.0704 1.083733-15.9744 25.326933-52.6336 36.753066-65.083733 12.1088-13.192533 30.4384-15.991467 40.797867-30.472534 15.274667 3.456 27.153067 7.253333 40.721067 12.219734z m-37.922133 29.303466c-28.970667 5.0432-55.338667 36.650667-51.592534 66.346667 5.930667 47.035733 59.6992 60.8 97.774934 40.891733l19.797333-33.245866c-3.293867-17.749333-0.5376-37.546667-11.682133-52.471467-11.912533-15.957333-34.909867-24.891733-54.289067-21.521067z" fill="#F9CFB2" p-id="6148"></path><path d="M854.493867 596.565333l-10.1888 8.149334c35.797333 13.056 56.772267 40.021333 75.400533 71.1936 1.7152 11.554133 2.2784 42.274133-0.64 52.437333-0.64 2.235733-9.1392 13.943467-11.562667 16.9472-34.244267 42.461867-110.839467 39.406933-133.623466-13.141333-4.394667-10.129067-10.094933-37.0688-8.2432-47.2576 4.718933-26.001067 20.650667-39.662933 36.010666-57.668267 1.681067-1.9712 11.1872-13.269333 3.968-14.3616 16.520533-6.357333 30.327467-13.952 48.8704-16.290133z m-17.706667 45.3632c-19.669333 4.565333-41.0112 31.2832-42.658133 51.037867-0.5632 6.715733 8.712533 32.418133 13.508266 38.007467 2.304 2.688 25.966933 15.223467 29.141334 15.6928 7.005867 1.0496 29.329067-6.536533 36.1216-11.554134 20.087467-14.848 26.402133-41.2672 13.653333-62.685866-7.6288-12.808533-35.4304-33.8176-49.7664-30.498134z" fill="#F9CBAD" p-id="6149"></path><path d="M145.885867 592.494933l2.4064 3.626667 17.962666 0.443733c1.322667 0.247467 2.7904-0.290133 4.0704 0-10.359467 14.481067-28.689067 17.28-40.797866 30.472534-11.426133 12.450133-35.669333 49.109333-36.753067 65.083733-0.554667 8.209067 2.653867 28.023467 4.983467 36.0704 0.896 3.089067 13.5168 27.246933 15.317333 29.474133 7.483733 9.233067 43.776 23.364267 55.995733 25.454934 24.132267 4.1216 57.9584-3.0208 74.632534-21.5552 3.080533-3.421867 9.429333-12.808533 11.562666-16.9472 6.135467-11.921067 14.574933-43.554133 12.8256-56.4224-0.861867-6.3488-5.1456-11.264-7.3472-17.1008-1.1776-3.1232-0.3328-7.424-1.493333-10.7264-6.126933-17.442133-28.3136-29.866667-42.1632-39.287467-1.160533-0.785067-14.139733-11.101867-6.033067-12.296533 9.5232 3.490133 19.848533 8.823467 28.509867 12.219733 3.5328 19.037867 29.2608 27.2896 34.816 44.5952-0.802133 11.0848 6.664533 30.1824 6.050133 38.690133-0.469333 6.5024-11.2896 45.789867-14.421333 51.080534-4.949333 8.337067-28.16 27.323733-37.213867 32.017066-35.626667 18.474667-91.605333 7.005867-122.7776-16.5376-4.753067-11.426133-15.522133-19.370667-19.370666-31.530666-2.858667-9.002667 0.290133-13.2096-5.905067-20.573867-1.1008-1.314133-3.524267-0.418133-4.1984-5.828267-1.390933-11.2384-1.058133-36.599467 1.962667-47.3088 4.113067-14.600533 15.189333-20.241067 22.664533-30.276266 9.181867-12.3136 15.598933-31.863467 32.503467-34.696534 1.024-6.7584-5.5808-3.874133-10.2912-4.061866-4.5312-0.1792-9.7024-0.418133-14.139734 0v-2.116267c10.973867-3.2512 24.840533-2.432 36.650667-1.954133z" fill="#FBDAC1" p-id="6150"></path><path d="M276.206933 637.294933c1.527467 16.059733 14.216533 31.5648 16.221867 46.8992 5.870933 44.910933-19.805867 103.304533-64.887467 118.237867-14.327467 4.744533-59.707733 3.7888-75.477333 1.7664-35.421867-4.548267-84.778667-45.3632-71.338667-85.4528 6.1952 7.364267 3.0464 11.5712 5.905067 20.573867 3.857067 12.151467 14.626133 20.104533 19.370667 31.530666 31.172267 23.543467 87.150933 35.012267 122.7776 16.5376 9.053867-4.693333 32.264533-23.688533 37.213866-32.017066 3.140267-5.282133 13.952-44.578133 14.421334-51.080534 0.6144-8.4992-6.852267-27.5968-6.050134-38.690133-5.5552-17.3056-31.291733-25.557333-34.816-44.5952 12.561067 4.923733 26.1888 12.288 36.650667 16.290133z" fill="#F9DCC2" p-id="6151"></path><path d="M486.724267 597.3504c24.8576-4.215467 61.7216-1.7664 82.5856 13.585067 25.258667 18.577067 14.4384 48.896-8.132267 64.938666-34.065067 24.2176-89.634133 19.694933-113.365333-16.7424-8.6528-13.2864-11.1872-23.7568-2.56-38.0928 6.016-9.992533 30.0032-21.7344 41.472-23.688533z" fill="#513129" p-id="6152"></path><path d="M621.602133 717.994667c13.448533-14.071467 0.682667-41.890133 23.202134-47.761067 22.1952 17.297067 6.1184 53.717333-12.1856 68.9408-36.676267 30.506667-86.272 16.110933-122.248534-8.4736-35.268267 22.050133-75.153067 36.650667-113.4592 11.904-13.909333-8.9856-24.772267-25.7792-26.965333-42.257067-1.5616-11.6992-2.4576-38.280533 16.3328-28.552533 12.5184 6.485333 5.051733 15.232 5.870933 22.664533 3.054933 27.707733 32.2304 39.7568 57.070934 36.4288 23.364267-3.131733 40.226133-19.694933 61.149866-28.5696 30.250667 15.5136 51.165867 36.394667 88.925867 27.9808 1.9968-0.443733 21.4016-11.349333 22.306133-12.296533z" fill="#533329" p-id="6153"></path><path d="M165.060267 19.157333c37.614933-4.923733 99.985067 33.1264 131.328 54.280534 24.925867 16.827733 46.788267 38.3744 72.064 54.229333 17.262933-6.289067 34.909867-5.717333 52.258133-7.645867 19.8912-2.210133 45.3376-7.278933 65.0496-8.251733 56.430933-2.773333 115.959467 5.282133 170.743467 16.128C703.317333 92.586667 756.6848 41.659733 813.610667 24.226133c52.4544-16.068267 85.341867 8.695467 108.177066 55.04 23.893333 48.4864 38.929067 136.362667 42.581334 189.550934 2.56 37.3248-4.5056 82.312533 0.1536 117.947733 3.746133 28.680533 30.523733 82.3808 39.671466 115.080533 44.859733 160.4096 17.297067 297.3184-121.3696 397.934934-200.994133 145.8432-581.444267 142.327467-771.626666-22.135467C-27.118933 758.033067-16.699733 604.817067 36.804267 444.7232c4.488533-13.422933 17.809067-37.717333 19.490133-49.7408 4.855467-34.730667-2.2528-81.117867 0.085333-118.016 3.242667-51.285333 15.453867-133.410133 34.466134-181.367467 12.8256-32.341333 36.6336-71.517867 74.2144-76.4416zM31.854933 682.0864c0.068267 40.6784 29.824 102.1952 55.159467 134.203733 4.650667 5.870933 10.760533 8.7552 14.071467 12.407467 175.744 193.604267 605.806933 198.536533 796.100266 24.251733 13.5424-12.407467 26.0608-25.378133 38.749867-40.541866 25.864533-30.890667 59.3152-92.7744 57.0112-134.391467 6.971733-4.770133 3.950933-15.069867 4.053333-22.4256 1.160533-80.264533-12.322133-132.002133-37.504-206.7968-5.026133-14.933333-17.536-35.037867-19.421866-49.809067-3.310933-25.821867 1.3056-58.581333 0.110933-85.632-2.875733-64.887467-15.726933-179.447467-49.681067-235.392-31.104-51.242667-68.590933-31.675733-112.145066-7.534933-41.053867 22.749867-78.600533 55.048533-113.7152 85.973333-67.268267-15.735467-141.653333-20.334933-211.464534-16.128-24.721067 1.493333-53.239467 10.094933-77.277866 12.305067-31.752533 2.9184-25.472-5.085867-44.637867-20.352-27.392-21.819733-63.7952-47.675733-94.370133-64.452267-38.587733-21.1712-76.9792-38.340267-106.734934 6.0416-24.0896 35.933867-42.88 146.6112-45.533866 190.6688-2.397867 39.7568 5.077333 88.328533 0.110933 126.353067-3.336533 25.5488-27.178667 73.7792-35.6096 102.8608-17.7408 61.243733-21.8112 102.075733-21.333333 165.981867 0.0512 6.690133-2.9952 19.0208 4.061866 22.408533z" fill="#4D2D23" p-id="6154"></path><path d="M992.955733 678.016c-2.056533-37.188267-35.515733-78.336-73.301333-81.450667v-2.116266c-11.997867-2.816-28.1088-3.0208-40.721067-1.954134l-13.824 0.443734-2.466133 3.626666c-2.6112 0.366933-5.521067-0.3328-8.1408 0-18.542933 2.3296-32.349867 9.9328-48.8704 16.290134-12.689067 4.881067-26.205867 12.330667-36.650667 16.290133-23.722667 9.002667-51.8144 16.247467-77.380266 16.290133-53.802667-13.346133-53.0176-24.465067-93.7728-50.798933-45.3888-29.329067-93.4656-33.792-143.581867-13.474133-32.2816 13.0816-52.130133 41.5488-84.309333 54.152533-16.904533 6.621867-39.082667 12.142933-57.070934 10.120533-0.3584-0.042667-0.887467-3.447467-5.8624-4.155733-10.632533-1.5104-18.986667 0.520533-30.788266-3.9936-10.461867-4.002133-24.098133-11.3664-36.650667-16.290133-8.661333-3.396267-18.978133-8.7296-28.509867-12.219734-13.568-4.9664-25.454933-8.763733-40.721066-12.219733-1.28-0.290133-2.756267 0.247467-4.0704 0-5.12-0.9472-9.3184-3.626667-20.360534-4.0704-11.818667-0.477867-25.6768-1.297067-36.650666 1.954133v2.116267c-43.4688 4.096-77.448533 42.1632-77.371734 85.521067-7.057067-3.387733-4.010667-15.7184-4.061866-22.408534-0.4864-63.906133 3.592533-104.738133 21.333333-165.981866 8.4224-29.0816 32.264533-77.303467 35.6096-102.8608 4.9664-38.033067-2.5088-86.6048-0.110933-126.353067 2.653867-44.0576 21.444267-154.734933 45.533866-190.6688 29.7472-44.381867 68.1472-27.2128 106.734934-6.0416 30.574933 16.776533 66.978133 42.632533 94.370133 64.452267 19.157333 15.266133 12.8768 23.2704 44.637867 20.352 24.046933-2.210133 52.5568-10.811733 77.277866-12.305067 69.8112-4.215467 144.196267 0.384 211.464534 16.128 35.1232-30.916267 72.669867-63.223467 113.7152-85.973333 43.554133-24.1408 81.041067-43.707733 112.145066 7.534933 33.954133 55.936 46.813867 170.504533 49.681067 235.392 1.194667 27.050667-3.413333 59.810133-0.110933 85.632 1.8944 14.762667 14.395733 34.875733 19.421866 49.809067 25.181867 74.8032 38.673067 126.5408 37.504 206.7968-0.1024 7.3472 2.909867 17.655467-4.053333 22.4256zM145.885867 295.202133c13.858133-0.093867 18.568533-16.247467 26.376533-24.533333 11.229867-11.912533 27.861333-26.453333 40.746667-36.6336 21.512533-16.9984 46.421333-29.678933 67.217066-46.9504 1.425067-4.736-3.592533-7.168-6.0416-9.992533-35.490133-40.7808-99.925333-103.671467-120.029866-14.1312-1.902933 8.4992-8.260267 43.528533-8.260267 48.750933v83.4816z m728.968533-4.0704v-79.4112c0-1.271467-3.310933-19.310933-4.1472-24.354133-6.485333-38.8864-19.4048-94.464-69.051733-61.064533-16.571733 11.153067-41.7536 35.447467-55.082667 50.798933-2.517333 2.901333-7.534933 5.1456-6.109867 10.1632 18.0992 13.2864 38.946133 23.330133 56.840534 36.846933 23.816533 17.988267 42.5728 41.966933 65.339733 60.910934 4.1216 3.4304 5.2224 7.7824 12.219733 6.109866z m-551.1424 61.764267c-26.248533 5.7344-35.2256 43.434667-20.923733 64.375467 21.614933 31.6416 86.365867 55.5776 109.815466 16.366933 14.813867-24.772267-1.3056-51.959467-22.468266-67.054933-18.414933-13.141333-44.117333-18.56-66.423467-13.687467z m333.934933-0.008533c-4.949333 1.083733-33.5616 15.965867-37.4784 19.5328-19.080533 17.3824-24.448 51.106133-4.061866 69.538133 17.5616 15.880533 51.140267 10.837333 71.5008 1.9712 16.221867-7.057067 33.928533-22.442667 36.5568-40.814933 6.186667-43.2896-28.288-58.641067-66.517334-50.244267zM299.400533 462.976c-23.355733 4.096-42.282667 26.385067-49.8176 47.9232-9.591467 27.409067-5.5296 50.5856 12.535467 73.275733 41.966933 52.701867 123.613867 24.832 132.104533-38.570666 7.3984-55.2704-42.606933-91.784533-94.8224-82.619734z m315.008 104.891733c21.4272 10.8544 36.317867-10.5472 56.763734-18.2016 22.519467-8.4224 47.633067-10.914133 70.545066-5.2736 10.0096 2.466133 18.824533 8.379733 28.680534 10.999467 23.0144-10.077867 25.693867-21.5296 4.113066-35.643733-26.043733-17.024-78.933333-17.1008-107.4944-6.818134-21.717333 7.816533-58.752 28.194133-52.608 54.9376z" fill="#F8C27D" p-id="6155"></path><path d="M299.400533 462.976c52.215467-9.1648 102.229333 27.349333 94.8224 82.619733-8.490667 63.402667-90.1376 91.272533-132.104533 38.570667-18.065067-22.690133-22.126933-45.866667-12.535467-73.275733 7.534933-21.538133 26.461867-43.8272 49.8176-47.9232z m75.5968 43.963733c0-12.9536-10.504533-23.458133-23.458133-23.458133s-23.458133 10.504533-23.458133 23.458133 10.504533 23.458133 23.458133 23.458134 23.458133-10.504533 23.458133-23.458134z" fill="#503029" p-id="6156"></path><path d="M145.885867 295.202133v-83.4816c0-5.2224 6.3488-40.260267 8.260266-48.750933 20.096-89.540267 84.5312-26.6496 120.029867 14.1312 2.4576 2.824533 7.466667 5.256533 6.0416 9.992533-20.7872 17.271467-45.696 29.952-67.217067 46.9504-12.885333 10.180267-29.5168 24.721067-40.746666 36.6336-7.808 8.285867-12.5184 24.439467-26.376534 24.533334z" fill="#FBC6B6" p-id="6157"></path><path d="M874.8544 291.131733c-6.997333 1.672533-8.098133-2.679467-12.219733-6.109866-22.766933-18.944-41.5232-42.922667-65.339734-60.910934-17.8944-13.5168-38.741333-23.569067-56.840533-36.846933-1.425067-5.0176 3.592533-7.261867 6.109867-10.1632 13.320533-15.351467 38.510933-39.6544 55.082666-50.798933 49.646933-33.408 62.5664 22.178133 69.051734 61.064533 0.8448 5.051733 4.1472 23.0912 4.1472 24.354133v79.4112z" fill="#FAC6B7" p-id="6158"></path><path d="M657.646933 352.887467c38.229333-8.3968 72.704 6.954667 66.517334 50.244266-2.628267 18.363733-20.3264 33.749333-36.5568 40.814934-20.360533 8.8576-53.9392 13.909333-71.5008-1.9712-20.386133-18.432-15.0272-52.164267 4.061866-69.538134 3.9168-3.566933 32.529067-18.449067 37.4784-19.5328z" fill="#F7EFDD" p-id="6159"></path><path d="M323.712 352.896c22.2976-4.872533 48.008533 0.546133 66.423467 13.687467 21.162667 15.104 37.282133 42.2912 22.468266 67.054933-23.4496 39.210667-88.200533 15.274667-109.815466-16.366933-14.301867-20.9408-5.3248-58.641067 20.923733-64.375467z" fill="#F8EFDD" p-id="6160"></path><path d="M614.408533 567.867733c-6.144-26.743467 30.890667-47.121067 52.608-54.9376 28.5696-10.282667 81.4592-10.205867 107.4944 6.818134 21.5808 14.114133 18.901333 25.565867-4.113066 35.643733-9.856-2.619733-18.670933-8.533333-28.680534-10.999467-22.912-5.640533-48.034133-3.157333-70.545066 5.2736-20.4544 7.6544-35.336533 29.056-56.763734 18.2016z" fill="#543429" p-id="6161"></path><path d="M166.2464 596.565333l-17.962667-0.443733-2.4064-3.626667c11.050667 0.443733 15.240533 3.1232 20.360534 4.0704z" fill="#F9CFB2" p-id="6162"></path><path d="M878.9248 592.494933c-0.887467 0.0768-9.173333 3.080533-16.290133 4.0704l2.466133-3.626666 13.824-0.443734z" fill="#F9CBAD" p-id="6163"></path><path d="M351.5392 506.939733m-23.458133 0a23.458133 23.458133 0 1 0 46.916266 0 23.458133 23.458133 0 1 0-46.916266 0Z" fill="#F0E6D5" p-id="6164"></path><path d="M173.124267 638.088533c19.387733-3.370667 42.376533 5.563733 54.289066 21.521067 11.144533 14.933333 8.388267 34.730667 11.682134 52.471467l-19.797334 33.245866c-38.084267 19.899733-91.844267 6.144-97.774933-40.891733-3.746133-29.696 22.621867-61.303467 51.592533-66.346667zM836.7872 641.928533c14.327467-3.319467 42.1376 17.6896 49.7664 30.498134 12.7488 21.418667 6.434133 47.837867-13.653333 62.685866-6.792533 5.026133-29.115733 12.603733-36.1216 11.554134-3.1744-0.477867-26.837333-13.0048-29.141334-15.6928-4.795733-5.589333-14.071467-31.291733-13.508266-38.007467 1.646933-19.754667 22.997333-46.481067 42.658133-51.037867z" fill="#FABE9D" p-id="6165"></path></svg>