<?xml version="1.0" standalone="no"?><!DOCTYPE svg PUBLIC "-//W3C//DTD SVG 1.1//EN" "http://www.w3.org/Graphics/SVG/1.1/DTD/svg11.dtd"><svg t="1772951660686" class="icon" viewBox="0 0 1030 1024" version="1.1" xmlns="http://www.w3.org/2000/svg" p-id="3546" xmlns:xlink="http://www.w3.org/1999/xlink" width="201.171875" height="200"><path d="M978.288437 304.582829h46.643242c5.225873 0 8.503689 19.726187-0.271034 22.24172-7.792225 2.23603-22.732969-0.550538-32.03282 0.135517-5.124235 0.372672-9.062696 3.040662-12.789413 3.294756-16.363672 1.109545-41.298792 4.082448-39.850455-17.142895l44.737535-53.546137c-12.433681-2.007345-43.882084 5.33598-49.946468-6.352357-3.972341-7.656708 1.981935-15.160959 9.664053-16.245096 14.110703-1.990405 33.362581 0.804632 48.455782 0.220216 5.200463-0.203275 9.282911-3.354045 12.780942-3.404864 10.400926-0.143987 17.837419 10.494094 14.042945 20.581638l-41.434309 50.225972z" fill="#4E2E26" p-id="3547"></path><path d="M929.587031 327.544483c0.626766 0.669115 3.658958 9.054227 3.379454 10.350108l-25.443309 31.007973 28.814293 0.152457c4.361952 8.647676 3.210058 17.676493-7.834574 19.226468-7.436493 1.050256-41.815451 0.914739-46.795699-1.600794-2.303788-1.168834-6.66574-6.055914-6.106733-9.299851l25.485658-34.192622-22.622862-1.507626c-7.148519-10.358577-3.853763-17.024318 8.054789-17.896708 8.291944-0.609826 38.469876-1.118015 43.068983 3.760595z" fill="#4D2D24" p-id="3548"></path><path d="M144.274739 70.468817c4.294194-0.559007 7.656708-1.084136 12.120298-0.635236 41.510538 4.167146 108.481323 53.698594 141.657568 80.293797 4.01469 3.218528 7.013002 8.258065 11.281787 11.230968 12.509909 8.681555 26.239471 0.398081 40.172308-1.456808 73.094458-9.757221 149.271927-10.477155 221.849727 6.589512 12.543788-3.667428 19.446683-15.355765 28.91593-22.792258 30.991034-24.350703 93.5067-69.45244 132.018925-73.839801 42.111894-4.802382 65.344582 26.374988 80.386964 60.98263 25.909148 59.576642 34.345079 143.207543 37.072358 207.383292 0.90627 21.35239-2.6934 47.270008-0.084698 67.631431 3.337105 26.019256 29.610455 78.964036 37.766881 110.192225 35.336046 135.313681 6.377767 256.474309-108.726947 340.028983-175.096377 127.106435-471.107758 132.306898-649.448073 9.647113C-3.616609 774.318478-22.317949 634.736013 20.556228 487.090289c8.173366-28.145178 33.625145-78.023888 31.312887-103.645062-6.479404-71.823987 2.473184-184.912887 30.576013-252.603606 11.315666-27.247378 30.050885-56.214127 61.829611-60.372804zM26.205591 655.182134c0.550538 4.632986-0.753813 9.697932 0.067759 14.381737 3.142299 17.81201 23.986501 87.992854 38.529164 94.980447 0.609826 6.23378 5.878048 12.823292 9.579355 17.761191 65.259884 86.942597 199.184516 134.932539 303.888305 146.426071 155.548056 17.066667 361.669347-29.915368 455.277684-164.178793 0.304913-0.44043 3.12536-0.90627 4.675335-3.235467 20.742564-31.338296 36.682746-71.629181 37.140116-109.336774 5.573135-2.67646 3.167709-12.416741 3.210057-17.701902 0.398081-52.512821-8.376642-96.555831-24.02038-146.434541-7.656708-24.409992-27.636989-62.515666-30.592953-85.197817-4.158677-31.846485 1.956526-72.865773 0.084698-106.228354-2.608701-46.541605-17.80354-136.406286-42.391398-176.332969-28.416212-46.143524-66.750571-23.766286-103.611182-1.549975-34.870207 21.022068-66.056046 47.481754-97.411283 73.263854-14.881456-2.490124-29.737502-7.190868-44.661306-9.36761-74.661373-10.892175-151.507957-8.342763-225.220712 8.817072-28.356923-22.817667-56.180248-47.024384-87.222101-66.276261-22.529694-13.975186-47.473284-27.696278-73.509479-32.642647-15.753846 3.201588-26.688371 12.704715-35.276757 25.807511-22.953184 35.039603-37.563606 129.98617-40.223127 172.064185-2.303788 36.445591 4.412771 80.979851-0.118577 115.672192-3.184648 24.367643-26.070074 70.35024-33.811481 98.063457-14.457965 51.809826-20.581638 98.918908-14.381737 151.262333z" fill="#4C2B22" p-id="3549"></path><path d="M875.363309 651.963606c-6.750438-9.655583-7.495782-22.114673-14.559603-32.083639-12.47603-17.591795-37.953218-32.989909-59.424186-35.463094-5.395269-5.175054-20.446121-4.00622-27.476063-3.354044-42.061075 3.904582-67.707659 20.623987-104.398875 35.522382-26.544384 10.773598-47.888304 15.855484-77.193846 12.865641-47.439404-12.586137-69.367742-52.402713-114.799801-63.718379-35.412275-8.817072-80.878213-2.066634-110.217635 20.429181-27.543821 21.123706-33.167775 34.777039-70.900777 43.280728-28.746534 2.820447-48.328734-1.7956-73.975319-12.865641-34.429777-14.856046-60.643838-30.643772-99.71507-32.168337-53.368271-2.075103-82.783921 18.828387-96.496543 70.76526-6.199901-52.343424-0.076228-99.452506 14.381737-151.262332 7.732936-27.713218 30.626832-73.704285 33.811481-98.063458 4.531348-34.700811-2.185211-79.23507 0.118577-115.672192 2.65952-42.078015 17.269942-137.024582 40.223127-172.064185 8.579917-13.102796 19.522911-22.597452 35.276757-25.80751 26.036195 4.946369 50.979785 18.667461 73.509479 32.642647 31.041853 19.251878 58.865178 43.458594 87.222101 66.276261 73.712754-17.159835 150.550868-19.709247 225.220712-8.817072 14.932275 2.176741 29.779851 6.877486 44.661306 9.36761 31.355236-25.782101 62.541075-52.241787 97.411283-73.263855 36.852142-22.216311 75.194971-44.585079 103.611182 1.549975 24.587858 39.926683 39.782696 129.782895 42.391398 176.33297 1.871828 33.362581-4.243375 74.381869-0.084698 106.228354 2.955964 22.682151 22.936245 60.787825 30.592953 85.197816 15.643739 49.87871 24.418462 93.92172 24.02038 146.434541-0.042349 5.285161 2.371547 15.016973-3.210057 17.701902zM125.920662 238.64536c-1.609264 21.259222 0 45.813201 0 67.546733 0 0.355732 4.751563 6.530223 6.437055 3.226997 33.108486-35.234409 71.383557-64.607709 112.555302-90.059487-16.143457-21.36086-56.569859-67.013135-85.290984-62.812109-15.58445 6.67421-22.69062 21.708122-26.595203 37.741472-2.896675 11.917022-6.25072 33.159305-7.10617 44.356394z m593.953879-81.48804c-14.856046 3.345575-46.524665 30.643772-56.866303 42.831828l-12.806352 19.345046c10.578792 9.308321 23.867924 14.576543 35.242878 22.67368 26.756129 19.057072 45.643805 41.044698 69.299984 62.574955 8.673085 7.893863 13.36536 10.206121 14.559603-4.734624 2.515533-31.448404-2.447775-74.79689-10.519504-105.449131-5.437618-20.649396-12.323573-43.229909-38.910306-37.241754zM282.527444 363.109214c-21.462498 3.718246-37.597486 23.57995-33.743722 45.389711 6.149082 34.827858 63.498164 59.890025 92.558081 39.138991 25.934557-18.523474 19.497502-49.218065-3.269346-67.326518-13.018098-10.350108-39.17287-20.03957-55.545013-17.202184z m299.21297 0.050819c-32.896741 4.649926-75.889495 41.112457-50.607114 74.966286 18.565823 24.858892 63.811547 16.685525 85.358743-1.617733 36.225376-30.770819 13.526286-80.183689-34.751629-73.348553zM205.2489 539.916493c-24.088139 5.979686-25.172275 40.96-0.525128 44.50038 36.49641 5.234342 84.384715-3.862233 122.219355 0 27.467593-4.582167 25.688933-41.527477 0-45.025508-36.48794-4.963309-83.969694 3.235467-121.694227 0.525128z m350.607775 0.00847c-22.851547 9.232093-23.071762 38.563044 2.67646 44.483441 37.84311-3.862233 85.706005 5.225873 122.219355 0 25.485658-3.650488 23.452903-41.39196-3.218528-45.025509l-121.677287 0.533598z" fill="#F7C07A" p-id="3550"></path><path d="M719.874541 157.15732c26.586733-5.996625 33.472688 16.592357 38.910306 37.241754 8.071729 30.652242 13.035037 74.000728 10.519504 105.449131-1.194243 14.940744-5.886518 12.628486-14.559603 4.734624-23.656179-21.530256-42.535385-43.517883-69.299984-62.574955-11.374955-8.097138-24.655616-13.37383-35.242878-22.67368l12.806352-19.345046c10.341638-12.188056 42.010256-39.477783 56.866303-42.831828z" fill="#F8C6B5" p-id="3551"></path><path d="M125.920662 238.64536c0.846981-11.197089 4.201026-32.439371 7.10617-44.356394 3.904582-16.03335 11.010753-31.067262 26.595203-37.741472 28.721125-4.201026 69.147527 41.451249 85.290984 62.812109-41.171745 25.451778-79.438346 54.825079-112.555302 90.059487-1.685492 3.303226-6.437055-2.862796-6.437055-3.226997 0-21.733532-1.609264-46.28751 0-67.546733z" fill="#F8C4B0" p-id="3552"></path><path d="M581.740414 363.160033c48.277916-6.826667 70.977006 42.577734 34.751629 73.348553-21.547196 18.303259-66.79292 26.476625-85.358743 1.617733-25.282382-33.85383 17.710372-70.316361 50.607114-74.966286z" fill="#F6ECDA" p-id="3553"></path><path d="M282.527444 363.109214c16.372142-2.837386 42.518445 6.843606 55.545013 17.202184 22.775318 18.108453 29.212374 48.794574 3.269346 67.326518-29.051447 20.751034-86.400529-4.311133-92.558081-39.138991-3.853763-21.80976 12.281224-41.671464 33.743722-45.389711z" fill="#F6EDDA" p-id="3554"></path><path d="M205.2489 539.916493c37.716063 2.710339 85.206286-5.496907 121.694227-0.525128 25.688933 3.498031 27.467593 40.434872 0 45.025508-37.83464-3.862233-85.722945 5.234342-122.219355 0-24.647146-3.531911-23.563011-38.512225 0.525128-44.50038z" fill="#502E26" p-id="3555"></path><path d="M555.856675 539.924963l121.677287-0.533598c26.671431 3.625079 28.695715 41.375021 3.218528 45.025508-36.51335 5.225873-84.376245-3.862233-122.219355 0-25.748222-5.920397-25.528007-35.251348-2.67646-44.48344z" fill="#502F27" p-id="3556"></path><path d="M592.310736 629.450852c0.271034 0.076228 0.313383 2.68493 4.616046 3.286286 5.369859 0.745343 26.425806-1.202713 27.552292-0.076228 0.406551 7.944682-0.677585 16.109578 0.059288 24.062729 1.914177 20.725624 0.279504 41.485128 3.226998 61.101208 6.310008 42.035666 44.94928 72.14584 85.240165 78.80311 17.981406 2.972903 43.001224 2.710339 60.982631 0.01694 7.529661-1.126485 16.04182-4.243375 24.350703-4.599107 10.036725-5.302101 17.549446-14.67818 25.561885-22.682151 1.448337-1.439868 8.376642-11.230968 9.647114-4.827791-93.599868 134.263424-299.729628 181.245459-455.277684 164.178792-104.695318-11.485062-238.61995-59.483474-303.888305-146.426071-3.709777-4.937899-8.969529-11.527411-9.579355-17.761191 12.264285 5.886518 15.508222 14.102233 22.461936 17.744251 4.480529 2.346137 34.607643 10.477155 40.333234 11.12933 42.543854 4.844731 92.380215-1.956526 120.601621-36.852142 21.157585-26.154773 21.191464-54.562514 19.378925-87.044235-0.287974-5.149644-2.913615-8.825542-3.286286-12.789412-3.015252-32.0667 5.378329-21.250753 27.459123-24.011911 4.065509-0.508189 4.361952-3.201588 4.632986-3.269347 37.733002-8.503689 43.356956-22.157022 70.900777-43.280728 29.339421-22.504285 74.80536-29.246253 110.217635-20.429181 45.43206 11.307196 67.360397 51.132242 114.799801 63.718379zM424.125724 588.312986c-14.568073 2.058164-37.716063 13.068916-42.653962 28.102829-9.689462 29.483408 29.441059 55.392556 54.901307 57.967378 39.977502 4.040099 101.002481-43.704218 56.137899-75.415186-17.236063-12.188056-47.862895-13.551696-68.385244-10.655021z m87.781108 131.222763c22.495815-1.677022 49.353581-9.664053 62.625773-29.059918 7.148519-10.443275 8.114078-21.572605-3.464152-28.695715-12.984218 1.253532-14.610422 13.882018-23.876393 20.657866-13.390769 9.78263-21.877519 9.503127-36.843673 11.391894-13.382299 1.685492-20.242845 2.507064-34.760099-0.719934-9.35914-2.083573-21.775881-8.850951-29.576576-9.172804-12.213466-0.499719-26.341108 8.359702-38.72397 9.765691-20.649396 2.346137-56.010852-0.059289-72.306766-14.381737-4.632986-4.065509-7.453433-14.373267-14.864516-17.481688-7.309446 1.024847-12.509909 4.065509-13.670273 11.620579-3.811414 24.816543 48.836923 49.006319 70.367179 46.050356-0.821572 38.529165 2.303788 98.444599 44.906932 114.300083 15.101671 5.615484 27.60311 5.818759 42.848767 0.813102 27.14574-8.90177 38.825608-35.954342 44.026071-62.117585l3.303226-52.97019z" fill="#F8EEDC" p-id="3557"></path><path d="M801.37952 584.416873c21.470968 2.473184 46.948156 17.871299 59.424186 35.463094 7.063821 9.960496 7.809165 22.428056 14.559603 32.083639-0.45737 37.716063-16.397552 77.998478-37.140116 109.336774-1.549975 2.337667-4.361952 2.795037-4.675335 3.235468-1.270471-6.403176-8.198776 3.379454-9.647114 4.827791-8.01244 8.00397-15.525161 17.38005-25.561885 22.682151-8.300414 0.355732-16.821042 3.472622-24.350703 4.599107-17.981406 2.6934-43.001224 2.947494-60.982631-0.01694-40.282415-6.65727-78.921687-36.767444-85.240165-78.80311-2.947494-19.616079-1.312821-40.384053-3.226998-61.101208-0.736873-7.953151 0.347262-16.118048-0.059288-24.062729-1.126485-1.126485-22.182432 0.821572-27.552292 0.076228-4.302663-0.601356-4.345012-3.210058-4.616046-3.286286 29.314012 2.989843 50.657932-2.092043 77.193846-12.865641 9.680993-1.118015 7.046882 2.464715 3.769066 8.596857-6.631861 12.408271-14.525724 13.280662-16.566948 31.685558-4.158677 37.572076 3.184648 82.936377 39.435434 101.94263 35.818825 18.786038 94.294392 8.952589 119.568304-23.351265 16.46531-21.039007 17.913648-45.991067 14.559603-72.179719-2.058164-16.084169-28.738065-54.172903-41.84086-64.302796-4.861671-3.760596-12.069479-4.285724-15.99947-9.740281-1.287411-7.13158 3.10842-4.717684 8.01244-4.810852 6.589512-0.127047 14.661241-0.719934 20.928899 0z" fill="#F7E4CF" p-id="3558"></path><path d="M122.702134 584.416873c-0.770753 7.893863-11.629049 14.24622-17.634144 19.455153-2.413896 2.092043-6.055914 2.371547-7.428023 3.735187-2.2445 2.22756-25.307792 38.080265-27.086452 42.069545-10.67196 23.952622-5.539256 63.413466 10.27388 84.376244 40.985409 54.350769 140.141472 41.942498 157.055682-26.408866 8.088668-32.668056 2.320728-50.446187-14.059884-77.990009-2.159801-3.625079-9.579355-9.664053-1.405989-13.068916 25.646584 11.070041 45.237254 15.686088 73.975319 12.865641-0.279504 0.059289-0.575947 2.761158-4.632986 3.269347-22.080794 2.761158-30.482845-8.063259-27.459123 24.01191 0.372672 3.963871 2.998313 7.639768 3.286286 12.789413 1.804069 32.473251 1.77019 60.889462-19.378925 87.044235-28.221406 34.895616-78.049297 41.696873-120.601621 36.852142-5.734061-0.652175-35.852705-8.783193-40.333234-11.12933-6.953714-3.642018-10.206121-11.849264-22.461936-17.744251-14.542663-6.987593-35.386865-77.159967-38.529164-94.980447-0.830041-4.683805 0.482779-9.748751-0.067759-14.381737 13.712622-51.936873 43.128271-72.840364 96.496543-70.765261z" fill="#F8E2CA" p-id="3559"></path><path d="M801.37952 584.416873c-6.259189-0.719934-14.330918-0.127047-20.9289 0-4.90402 0.093168-9.308321-2.320728-8.01244 4.810852 3.921522 5.454557 11.1378 5.979686 15.999471 9.740282 13.102796 10.129892 39.774227 48.218627 41.84086 64.302795 3.354045 26.188652 1.905707 51.140711-14.559603 72.179719-25.273912 32.303854-83.749479 42.137304-119.568304 23.351266-36.242316-19.006253-43.594111-64.370554-39.435434-101.942631 2.041224-18.396427 9.935087-19.277287 16.566947-31.685558 3.277816-6.132142 5.911927-9.714872-3.769065-8.596857 36.682746-14.898395 62.3378-31.6178 104.398875-35.522382 7.029942-0.652175 22.089264-1.821009 27.476063 3.354045z m-75.050984 35.911994c-15.855484 3.481092-32.524069 34.26038-34.226501 49.39593-2.371547 21.157585 9.384549 44.856112 27.704747 55.773698 15.448933 9.198213 47.61727 3.56579 60.787825-9.071167 38.639272-37.063888-4.827792-106.948288-54.274541-96.089991z" fill="#F8D2B5" p-id="3560"></path><path d="M222.408734 616.576741c-8.173366 3.404864-0.745343 9.435368 1.405989 13.068917 16.380612 27.543821 22.140083 45.321952 14.059884 77.990008-16.91421 68.351365-116.070273 80.759636-157.055682 26.408867-15.804665-20.962779-20.93737-60.423623-10.27388-84.376245 1.77866-3.98928 24.841952-39.841985 27.086452-42.069545 1.372109-1.35517 5.014127-1.634673 7.428023-3.735186 6.005095-5.208933 16.871861-11.56129 17.634144-19.455153 39.071232 1.524566 65.285294 17.303821 99.71507 32.168337z m-78.286451 0.533598c-10.25694 2.303788-31.643209 21.301572-37.089297 30.432027-10.070604 16.888801-10.25694 46.050356 1.278941 62.227692 15.423524 21.623424 43.61952 30.982564 68.165029 20.081919 38.579983-17.134425 40.756725-78.244103 7.258627-101.934161-9.731811-6.877486-27.874144-13.450058-39.60483-10.807477z" fill="#F8D4B7" p-id="3561"></path><path d="M511.906832 719.535749l-3.303226 52.97019c-5.200463 26.163242-16.880331 53.207345-44.026071 62.117585-15.245658 5.005658-27.755567 4.802382-42.848767-0.813102-42.603143-15.855484-45.736973-75.770918-44.906932-114.300083-21.530256 2.955964-74.178594-21.233813-70.367179-46.050356 1.160364-7.55507 6.352357-10.587262 13.670273-11.620579 7.402614 3.09995 10.23153 13.407709 14.864516 17.481688 16.295914 14.322448 51.65737 16.736344 72.306766 14.381737 12.382862-1.405988 26.510505-10.273879 38.72397-9.765691 7.800695 0.321853 20.217436 7.089231 29.576576 9.172804 14.517254 3.226998 21.3778 2.413896 34.760099 0.719934 14.966154-1.888768 23.461373-1.609264 36.843672-11.391894 9.265972-6.775848 10.892175-19.395864 23.876394-20.657866 11.57823 7.12311 10.612672 18.25244 3.464152 28.695715-13.263722 19.395864-40.121489 27.382895-62.625773 29.059918z m-80.420844-6.462465l-31.888833 11.205558c5.208933 17.261472 1.888768 35.463093 6.835136 54.054326 3.12536 11.747626 7.029942 20.691745 17.456278 27.569231 28.433151 18.752159 51.343987-2.041224 58.441687-30.72847 1.143424-4.607577 3.337105-17.219123 3.769066-21.970687 0.990968-10.976873-0.567477-22.656741 0.076228-33.709842l-32.176807-6.428586v53.071828l-11.256377 7.360265-11.256378-7.360265v-53.071828z" fill="#502E25" p-id="3562"></path><path d="M424.125724 588.312986c20.522349-2.896675 51.149181-1.533036 68.385244 10.655021 44.864582 31.719438-16.168867 79.463755-56.137899 75.415186-25.460248-2.574822-64.590769-28.48397-54.901307-57.967378 4.937899-15.033912 28.085889-26.053135 42.653962-28.102829z" fill="#502F27" p-id="3563"></path><path d="M726.328536 620.328867c49.446749-10.858296 92.913813 59.026104 54.274541 96.089992-13.179024 12.636956-45.347361 18.26938-60.787825 9.071166-18.328668-10.909115-30.076294-34.607643-27.704747-55.773697 1.693962-15.13555 18.371017-45.914839 34.226501-49.395931z" fill="#FABD9A" p-id="3564"></path><path d="M144.122283 617.110339c11.730687-2.634111 29.881489 3.929992 39.60483 10.807477 33.498098 23.681588 31.321356 84.791266-7.258627 101.934161-24.537039 10.900645-52.741505 1.541505-68.165029-20.081919-11.535881-16.177337-11.349545-45.338892-1.278941-62.227692 5.446088-9.130455 26.832357-28.128238 37.089297-30.432027z" fill="#FABC99" p-id="3565"></path><path d="M431.485988 713.073284v53.071828l11.256378 7.360264 11.256377-7.360264V713.073284l32.176807 6.428585c-0.643706 11.053102 0.923209 22.732969-0.076228 33.709843-0.43196 4.743093-2.625641 17.36311-3.769066 21.970687-7.10617 28.687246-30.008536 49.480629-58.441687 30.728469-10.434806-6.877486-14.339388-15.830074-17.456278-27.56923-4.937899-18.591232-1.617734-36.801323-6.835136-54.054326l31.888833-11.205558z" fill="#F4B09B" p-id="3566"></path></svg>