<?xml version="1.0" standalone="no"?><!DOCTYPE svg PUBLIC "-//W3C//DTD SVG 1.1//EN" "http://www.w3.org/Graphics/SVG/1.1/DTD/svg11.dtd"><svg t="1772951647470" class="icon" viewBox="0 0 1024 1024" version="1.1" xmlns="http://www.w3.org/2000/svg" p-id="2446" xmlns:xlink="http://www.w3.org/1999/xlink" width="200" height="200"><path d="M995.380826 670.817403c-7.741406-10.959934-8.562978-25.299322-16.651646-36.725095-15.880893-22.428056-38.054855-35.005724-64.277386-40.604268-0.313383-0.067758-0.652175-3.176179-5.302101-3.743656-12.128768-1.473747-26.383457 1.134955-38.842548 0.059288 1.194243-13.043507-14.457965-32.778164-25.909148-38.503755-15.618329-7.800695-27.645459-5.039537-43.983722-5.683242 16.278974-9.714872 9.613234-22.529694 0.076229-35.048073-31.287477-41.087047-104.686849-39.18981-144.867627-12.306633-15.770786 10.553383-49.717783 50.268321-37.419619 69.579487 14.297039 10.070604 30.872457-10.104483 46.050356-16.744814 27.111861-11.849264 47.913714-13.882018 77.295484-12.840232 15.897833 22.69062 24.579388 53.385211 47.820545 69.960629-2.041224 6.038974-7.004533 8.842481-12.162646 11.764566-8.546038 4.853201-30.26263 14.669711-39.342267 17.693432-21.242283 7.063821-45.720033 8.698495-67.275699 2.905145-37.529727-10.079074-63.167841-48.481191-101.874871-63.718379-30.525194-12.01019-71.722349-13.390769-103.196163-3.769065-57.281323 17.507097-82.216443 77.388652-150.677915 71.942564-17.38005-1.380579-35.649429-7.665178-51.496444-14.728999-3.176179-1.414458-21.276162-11.993251-22.063854-11.044632-0.770753 4.45512 1.075666 10.985343-0.00847 14.728999-0.254094 0.88086-8.766253 11.273317-11.036162 14.728999s-15.398114 21.572605-16.719404 21.970687c-5.657833 2.269909-15.321886-5.369859-16.202746-9.469248-0.550538-2.557883 22.114673-41.612175 25.561885-45.643804 5.607014-6.547163 17.286882-11.12933 23.783226-18.540414 12.391332-14.144582 25.858329-39.825045 27.721688-58.78048 33.946998-2.718809 60.813234 2.032754 90.830239 17.701903 12.89952 6.733499 21.005128 19.556791 37.775352 15.296476 6.411646-15.56751-4.387361-36.801323-14.508784-49.633085-39.545542-50.124334-128.885095-61.211315-169.353846-7.377204-8.935649 11.883143-8.554508 17.540976-3.599669 31.372175-15.364235-0.601356-42.603143 7.300976-51.030604 20.742564-2.947494 4.709214-2.727279 8.308883-4.150207 12.391332-1.287411 3.709777-2.23603 4.836261-3.675897 11.044632H141.954325c-7.089231 0-15.330356-0.770753-22.072324 0l-8.749314 0.406551-2.286848 3.277816c-45.84708 9.528536-78.218693 43.458594-77.244665 92.049892-6.386237-3.074541-3.616609-14.212341-3.667428-20.259785-0.559007-63.091613 2.68493-106.86359 20.124268-167.626005 8.647676-30.127113 35.16665-82.970256 38.72397-108.523672 5.878048-42.179653-2.854326-99.139123-0.160926-143.758081 2.955964-49.065608 19.472093-140.827527 44.873052-183.371381 13.416179-22.461935 28.534789-32.236096 55.739818-27.484533 33.972407 5.928867 98.893499 52.597519 127.462167 74.932407 7.851514 6.132142 37.445029 34.72622 42.484566 35.073482l55.223159-11.222498c70.545045-5.77641 142.851811-6.69115 213.202052 3.684367 10.951464 1.617734 30.338859 9.841919 40.113019 6.860546 41.222564-35.564731 89.585178-76.990571 139.472357-99.72354 54.630273-24.901241 75.372837-5.031067 96.437254 44.856113 31.643209 74.940877 40.892242 187.606286 34.954905 267.086981-2.752688 36.894491 10.417866 53.588486 21.208403 85.401092 26.25641 77.337833 46.948156 147.544086 37.572077 229.345508zM145.647162 280.520099c6.318478 1.516096 7.309446-2.422366 11.036162-5.522316 20.91196-17.413929 38.131084-39.443904 60.618429-57.154276 19.472093-15.330356 41.993317-26.823888 60.703126-42.518445 2.007345-6.792787-33.277883-41.41737-40.544979-47.456344-29.678213-24.655616-61.990538-42.74713-79.065674 5.234342-3.12536 8.783193-12.747064 47.244599-12.747064 53.520728V280.520099z m671.85072-176.214392c-3.481092 0.999438-23.859454 15.991001-28.204467 19.641489-8.063259 6.775848-45.601456 43.289198-43.856675 51.242349 20.615517 21.35239 49.040199 34.370488 71.603772 53.715534 15.245658 13.068916 28.983689 30.508255 44.06842 44.254756 9.918147 9.037287 15.288007 11.679868 16.651646-5.420679 2.574822-32.210687-3.57426-89.339553-11.900083-120.838776-6.835136-25.83292-15.830074-51.953813-48.362613-42.586203zM328.442596 340.14756c-44.52579 7.699057-45.787792 63.955533-11.239437 87.154342 26.103954 17.524036 79.311299 27.103391 95.200661-6.792787 7.156989-15.262597 6.098263-21.852109-0.016939-36.93684-12.120298-29.873019-53.037949-48.769165-83.944285-43.424715z m338.419719-0.00847c-21.936807 3.836824-55.697469 22.563573-60.796294 45.923309-14.220811 65.065079 55.64665 68.58005 96.369495 41.239503 46.355269-31.126551 22.165492-97.250356-35.573201-87.162812z" fill="#F6C07A" p-id="2447"></path><path d="M817.497882 104.305707c32.532539-9.36761 41.535947 16.753284 48.362613 42.586204 8.334293 31.507692 14.483375 88.628089 11.900083 120.838776-1.372109 17.100546-6.733499 14.457965-16.651646 5.420678-15.093201-13.746501-28.822763-31.18584-44.06842-44.254756-22.563573-19.345045-50.979785-32.363143-71.603772-53.715534-1.744781-7.953151 35.793416-44.466501 43.856675-51.242349 4.336543-3.642018 24.723375-18.633581 28.204467-19.641489z" fill="#F7C8B5" p-id="2448"></path><path d="M145.647162 280.520099V186.623788c0-6.276129 9.621704-44.737535 12.747064-53.520728 17.066667-47.981472 49.387461-29.889959 79.065674-5.234342 7.275567 6.038974 42.552324 40.672026 40.544979 47.456344-18.70981 15.694557-41.231034 27.17962-60.703126 42.518445-22.487345 17.710372-39.706468 39.731878-60.618429 57.154276-3.726716 3.09995-4.717684 7.038412-11.036162 5.522316z" fill="#F7C7B4" p-id="2449"></path><path d="M741.566037 538.26488c-29.39024-1.041787-50.183623 0.990968-77.295484 12.840232-15.186369 6.640331-31.753317 26.815418-46.050355 16.744814-12.306634-19.311166 21.640364-59.026104 37.419619-69.579488 40.172308-26.883176 113.580149-28.780414 144.867626 12.306634 9.537006 12.526849 16.202746 25.341671-0.076228 35.048073-23.029413-0.914739-37.656774-6.614921-58.856708-7.360265z" fill="#4E2E27" p-id="2450"></path><path d="M215.540032 545.633615c-4.954839-13.831199-5.33598-19.489032 3.599669-31.372176 40.468751-53.842581 129.808304-42.74713 169.353846 7.377205 10.121423 12.831762 20.92043 34.065575 14.508785 49.633085-16.770223 4.251844-24.884301-8.571447-37.775352-15.296477-30.017006-15.669148-56.891712-20.412242-90.83024-17.701902-13.80579 1.101075-23.554541 10.011315-35.056542 11.095451-8.562978 0.804632-14.966154-3.387924-23.800166-3.735186z" fill="#4E2C26" p-id="2451"></path><path d="M328.442596 340.14756c30.906336-5.34445 71.823987 13.551696 83.944285 43.424715 6.123672 15.084731 7.173929 21.674243 0.016939 36.93684-15.889363 33.896179-69.096708 24.316824-95.200661 6.792787-34.548354-23.190339-33.286352-79.455285 11.239437-87.154342z" fill="#F6EEDB" p-id="2452"></path><path d="M666.862315 340.13909c57.738693-10.096013 81.92847 56.027792 35.573201 87.162812-40.722845 27.349016-110.590306 23.834045-96.369495-41.239503 5.107295-23.359735 38.859487-42.086485 60.796294-45.923309z" fill="#F6EDDA" p-id="2453"></path><path d="M800.422745 545.633615c16.329793 0.643706 28.365393-2.108983 43.983722 5.683242 11.451183 5.717122 27.103391 25.451778 25.909148 38.503755-0.262564 2.845856-9.418428 24.621737-11.036162 25.773631-1.990405 1.414458-10.172242 2.828916-14.712059 7.360265-7.182399-0.533598-15.076261 0.787692-22.072325 0-3.819884-0.43196-11.442713-2.2445-14.712059-3.684367-2.68493-1.185773-15.415054-8.91871-18.396427-11.044632-23.241158-16.575418-31.922713-47.270008-47.820546-69.960629 21.199934 0.753813 35.827295 6.453995 58.856708 7.360265z m-25.756691 14.737469c11.383424 23.503722 48.5066 57.42531 69.723474 27.238908-9.503127-34.336609-41.38349-27.16268-69.723474-27.238908z" fill="#8DD3EA" p-id="2454"></path><path d="M843.601835 4.929429c31.1689 2.66799 50.657932 16.245095 66.598114 42.349049 36.886022 60.398213 52.631398 172.648602 55.909215 242.278908 1.507626 31.998941-4.361952 73.170687-0.160927 103.255451 2.202151 15.770786 21.640364 53.088768 27.738627 71.654591 68.681687 209.145012 25.028288 379.684632-175.994177 483.219586-166.575749 85.790703-376.838776 93.150968-551.706468 27.950372C143.648287 930.035931 31.397898 840.493102 5.996939 705.67067c-13.179024-69.952159-3.252407-147.179884 16.321323-215.370323 9.596294-33.438809 41.332672-97.06402 38.639272-126.86081-6.852076-75.982663 1.575385-179.085658 23.046353-253.238842C104.178973 40.53651 133.958825-15.254127 216.581819 16.202746c45.652275 17.38005 93.972539 58.136774 133.297866 87.501605 4.87861 3.642018 7.529661 10.976873 14.551133 11.214028 14.466435 0.643706 30.245691-5.623954 44.297105-7.394144 64.235037-8.071729 134.195666-8.46134 198.506931 0 15.372705 2.024285 32.668056 6.818197 48.015352 10.087543C708.847162 67.733069 770.414209 20.539289 843.593365 4.929429zM31.618113 685.546402c0.923209 46.168933 23.300447 85.48579 47.820546 121.507891 72.086551 105.906501 214.862134 163.746832 340.333896 180.347659 219.359603 29.017568 546.065575-58.856708 575.608271-316.584549 9.376079-81.801423-11.315666-151.999206-37.572076-229.345509-10.799007-31.804136-23.969562-48.498131-21.208404-85.401092 5.937337-79.489165-3.320165-192.146104-34.954904-267.086981-21.064417-49.887179-41.815451-69.757353-96.437254-44.856112-49.87871 22.732969-98.241323 64.158809-139.472358 99.72354-9.77416 2.981373-29.161555-5.242812-40.113019-6.860546-70.35024-10.367047-142.665476-9.460778-213.202051-3.684367l-55.22316 11.222498c-5.039537-0.347262-34.633052-28.94134-42.484565-35.073482-28.568668-22.334888-93.48129-69.00354-127.462167-74.932407-27.205029-4.751563-42.323639 5.022597-55.739818 27.484532-25.400959 42.535385-41.917089 134.305773-44.873053 183.371382-2.6934 44.618958 6.038974 101.578428 0.160927 143.758081-3.55732 25.544946-30.076294 78.396559-38.72397 108.523672C30.635615 558.423027 27.400148 602.195004 27.950686 665.286617c0.050819 6.055914-2.710339 17.193714 3.667427 20.259785z" fill="#482820" p-id="2455"></path><path d="M774.666054 560.371084c28.339983 0.076228 60.220347-7.089231 69.723474 27.238908-21.208404 30.186402-58.34005-3.735186-69.723474-27.238908z" fill="#DDEEF2" p-id="2456"></path><path d="M737.88167 637.683507c8.342763 2.295318 7.953151 9.697932 7.5466 16.685525-1.177304 20.242845-13.136675 41.535947-11.12933 62.405559 7.529661 78.549016 73.89909 105.355964 144.503425 93.261075 8.90177-1.524566 54.76579-19.455153 59.576642-25.053697 6.496344-7.58048 18.811447-53.088768 20.124268-64.539951 5.581605-48.54048-11.967841-63.091613-38.376709-97.648437-7.072291-9.257502-8.520629-18.506534-20.386832-23.783225l14.70359-5.513846c26.214061 5.590074 48.396493 18.176212 64.277386 40.604268 8.088668 11.417304 8.91024 25.765161 16.651646 36.725095-29.551166 257.727841-356.248668 345.602117-575.608271 316.584549-125.471762-16.600827-268.255815-74.441158-340.333896-180.347659 16.287444-3.58273 22.927775 9.477717 34.141803 15.533631 5.945806 3.210058 28.4755 12.171117 34.616113 13.212903 17.79507 3.023722 69.223755-1.880298 86.917188-7.309446 58.221472-17.871299 93.142498-77.803672 87.018825-137.337965-1.490687-14.542663-10.028255-30.389677-7.275566-46.109644 68.453002 5.437618 93.396592-54.443937 150.677915-71.942565 31.473813-9.621704 72.670968-8.241125 103.196162 3.769066 38.7155 15.237188 64.345145 53.630835 101.874872 63.718379 21.555666 5.79335 46.041886 4.150207 67.275699-2.905145z m-242.778627 51.547262c0.313383 0.076228 0.677585 3.167709 5.302101 3.743656 18.879206 2.337667 26.527444-0.635236 42.518445-7.419553 4.641456-1.973466 8.859421-1.626203 14.635831-5.615484 31.533102-21.80129 38.995004-59.381836 0.152457-77.295484-30.237221-13.949777-88.069082-12.814822-110.497138 14.728999-24.232126 29.762911 11.959371 61.279074 39.503192 71.214161 3.066071 1.101075 6.21684 0.135517 8.385112 0.660645z m-107.193912-25.240033c-4.963309-0.711464-8.766253-5.945806-14.229281-2.540943-24.367643 15.186369 12.077949 52.580579 32.922151 53.783292 2.583292 46.617833 8.147957 98.85115 24.096608 143.410819 9.325261 26.053135 31.795666 60.762415 59.551233 69.266104 13.958246 4.277254 31.643209 3.692837 45.499818-0.999437 60.847113-20.581638 71.66306-119.280331 80.666468-173.317717l0.533598-32.608768c3.955401-9.257502 14.966154-10.146832 21.530257-15.271067 10.443275-8.156427 35.683309-34.963375 12.577667-41.874739-15.338825-4.590637-16.389082 11.722217-27.315136 19.768536-14.034475 10.333168-43.314607 15.635269-60.432093 16.837981-35.513912 2.490124-146.417601 4.150207-169.396195-22.216311-3.226998-3.709777-4.133267-9.723342-6.013565-14.22928z" fill="#F7EDDA" p-id="2457"></path><path d="M141.971265 589.812142c0.186336 13.450058-14.330918 14.610422-21.979157 20.336014-8.486749 6.360827-35.17512 42.010256-39.994441 52.021571-14.042945 29.153085-6.801257 51.394806-0.669115 80.56483 0.88086 4.184086-0.355732 9.155864 0.711464 14.017536 3.709777 16.829512 32.083639 31.541572 47.1599 37.478908 36.039041 14.178462 88.179189 15.703027 119.678412-9.189744 28.289165-22.368768 39.028883-46.990505 42.365989-82.733101-3.370984-26.891646-16.89727-47.388586-25.875269-71.984914 15.847014 7.063821 34.124864 13.34842 51.496443 14.729-2.752688 15.719967 5.77641 31.566981 7.275567 46.109644 6.115203 59.534293-28.797353 119.466667-87.018826 137.337965-17.693433 5.429148-69.122117 10.333168-86.917187 7.309446-6.140612-1.041787-28.670306-10.002845-34.616113-13.212903-11.214028-6.055914-17.854359-19.116361-34.141803-15.533631-24.520099-36.022101-46.897337-75.338958-47.820546-121.507891-0.965558-48.591299 31.397585-82.529826 77.244665-92.049893 5.564665-1.160364 10.417866-3.608139 11.036162-3.684367 6.741969-0.770753 14.983093 0 22.072324 0z" fill="#F7E4CE" p-id="2458"></path><path d="M914.451794 593.49651l-14.70359 5.513846c11.866203 5.276691 13.314541 14.525724 20.386832 23.783225 26.408867 34.556824 43.949843 49.107957 38.376708 97.648437-1.312821 11.451183-13.627924 56.959471-20.124268 64.539951-4.802382 5.607014-50.666402 23.529132-59.576642 25.053697-70.604334 12.103358-136.973763-14.71206-144.503424-93.261075-1.998875-20.878081 9.952026-42.171183 11.12933-62.405559 0.406551-6.987593 0.796162-14.390207-7.5466-16.685525 9.079636-3.015252 30.787758-12.840232 39.342266-17.693433 5.158114-2.922084 10.121423-5.725591 12.162647-11.764565 2.981373 2.125922 15.703027 9.858859 18.396427 11.044632-12.247345-0.618296-29.491878 34.412837-29.601985 42.391397l1.888767 5.700182c1.456807 2.295318 4.988718 2.625641 5.640893 3.455683 7.970091 10.096013 1.253532 35.18359 4.285724 49.099487 25.112986 59.695219 123.938726 53.342862 117.010422-21.411679-0.372672-4.057039-3.091481-17.718842-4.243375-21.513317-1.677022-5.513846-9.562415-15.880893-9.562415-19.065542 0-5.090356 11.629049-15.304946 13.314541-22.665211 5.911927-25.858329-20.776443-26.781538-25.341671-5.107295-1.558445 1.76172-13.36536-1.177304-14.542663-3.531911-1.422928-2.845856 0.474309-10.112953-7.360265-11.044631 1.617734-1.151894 10.773598-22.927775 11.036162-25.773632 12.45909 1.075666 26.71378-1.533036 38.842548-0.059288 4.649926 0.567477 4.988718 3.675897 5.302101 3.743656z" fill="#F8D4B7" p-id="2459"></path><path d="M222.900297 615.585773c-3.447213 4.02316-26.103954 43.085922-25.561886 45.643805 0.88086 4.099388 10.544913 11.739156 16.202746 9.469247 1.32129-0.398081 14.407146-18.455715 16.719405-21.970686 6.064384 19.616079 16.710935 39.537072 14.618891 60.686187-5.166584 52.08933-74.906998 69.842051-112.16569 38.800198-27.357486-22.792258-20.098859-50.192093-16.49072-81.073019 6.852076 4.45512 9.664053 5.505376 16.668586 0.101638 11.917022-9.206683 23.842514-29.669744 27.476062-44.280165 2.049694 1.143424 8.224185 0.830041 11.036162 3.684367-0.575947 0.787692 0.42349 3.294756-0.702994 4.920959-8.368172 12.120298-27.14574 47.447874 2.176741 38.893367 5.158114-1.499156 19.057072-25.81598 22.690621-32.50713 3.54885-6.530223 7.504251-9.376079 5.259752-18.675931 7.851514-0.719934 14.356328-0.846981 22.072324-3.684367z" fill="#F9BE9A" p-id="2460"></path><path d="M156.683324 589.812142c-3.303226 14.186931-5.268222 14.542663-14.712059 25.773631-10.299289 12.247345-24.223656 22.26713-25.748222 40.502631-38.27507 4.853201-28.111299 76.931282-12.780943 99.325459 19.455153 28.416212 86.629214 37.893929 115.621373 23.867924 60.313515-29.170025 58.619553-96.826865 22.224781-145.291117 1.084136-3.743656-0.762283-10.273879 0.00847-14.728999 0.787692-0.948619 18.887676 9.630174 22.063854 11.044632 8.977998 24.596328 22.504285 45.093267 25.875269 71.984913-3.328635 35.734127-14.076824 60.364334-42.365989 82.733102-31.490753 24.901241-83.639371 23.376675-119.678411 9.189743-15.084731-5.937337-43.450124-20.649396-47.159901-37.478908-1.067196-4.853201 0.169396-9.833449-0.711464-14.017535-6.140612-29.170025-13.382299-51.403275 0.669115-80.564831 4.819322-10.002845 31.507692-45.660744 39.994441-52.021571 7.648238-5.734061 22.165492-6.885955 21.979157-20.336013h14.712059z" fill="#F8D6B8" p-id="2461"></path><path d="M116.223043 656.096873c-0.304913 3.616609 0.415021 7.478842 0 11.044632-3.608139 30.880926-10.866766 58.280761 16.49072 81.073019 37.258693 31.041853 106.999107 13.289132 112.16569-38.800198 2.092043-21.140645-8.546038-41.070108-14.618891-60.686187 2.269909-3.447213 10.782068-13.848139 11.036162-14.728999 36.394773 48.464251 38.088734 116.112622-22.224781 145.291116-28.992159 14.026005-96.16622 4.548288-115.621373-23.867923-15.330356-22.394177-25.494127-94.472258 12.780943-99.32546z" fill="#F8D2B5" p-id="2462"></path><path d="M274.39674 538.26488c-1.863358 18.963904-15.330356 44.635897-27.721687 58.78048-6.496344 7.411084-18.176212 11.993251-23.783226 18.540413-7.715997 2.837386-14.212341 2.955964-22.072324 3.684368-5.827229 0.533598-13.179024-1.041787-18.396427 0-14.872986-11.925492-26.25641-18.862266-22.072324-40.502631 1.414458-4.082448 1.194243-7.690587 4.150207-12.391331 8.427461-13.450058 35.666369-21.343921 51.030603-20.742564 8.825542 0.347262 15.237188 4.539818 23.800166 3.735186 11.502002-1.084136 21.250753-9.994376 35.056542-11.095451z m-25.748221 22.106204c-13.907428 1.32976-31.084202-2.67646-44.322515 1.651612-28.348453 9.257502-22.572043 44.627428 11.400364 33.498098 12.738594-4.175616 25.892208-24.206716 32.922151-35.14971z" fill="#88D2EE" p-id="2463"></path><path d="M182.431546 619.270141c-1.363639 0.271034-10.561853 6.716559-11.036162 7.360264-2.811977-2.854326-8.986468-2.532473-11.036162-3.684367-3.176179-1.77866-5.945806-11.713747-18.396427-7.360265 9.443838-11.230968 11.408834-11.5867 14.712059-25.773631 1.448337-6.208371 2.388486-7.343325 3.675898-11.044632-4.184086 21.640364 7.199338 28.577138 22.072324 40.502631zM119.89894 589.812142c-0.618296 0.067758-5.471497 2.524003-11.036162 3.684368l2.286849-3.277817 8.749313-0.406551z" fill="#F8D2B5" p-id="2464"></path><path d="M387.909131 663.990736c1.880298 4.505939 2.786567 10.519504 6.013565 14.229281 22.978594 26.366518 133.882283 24.697965 169.396195 22.216311 17.117486-1.202713 46.397618-6.496344 60.432092-16.837982 10.926055-8.046319 11.976311-24.359173 27.315137-19.768536 23.105641 6.919835-2.142862 33.726782-12.577668 41.874739-6.564103 5.124235-17.574855 6.013565-21.530256 15.271067l-0.533598 32.608768c-9.003408 54.037386-19.819355 152.736079-80.666468 173.317717-13.856609 4.683805-31.541572 5.276691-45.499818 0.999437-27.755567-8.503689-50.225972-43.212969-59.551233-69.266104-15.948652-44.559669-21.513317-96.792986-24.096608-143.410819-20.844202-1.211183-57.289793-38.596923-32.922151-53.783292 5.463027-3.404864 9.265972 1.829479 14.22928 2.540943zM498.78741 784.965029c-18.70981-1.439868-37.546667 5.310571-53.512258 14.568073l-1.812539 5.607014c7.715997 28.534789 18.421836 78.515136 47.896774 92.193879 40.392523 18.752159 63.464285-14.974624 76.524731-48.735285 3.404864-8.800132 12.518379-35.62402 12.069479-43.373896-0.4489-7.902333-11.747626-12.00172-18.582763-14.796758-11.180149-4.573697-24.808073-7.690587-36.835202-9.155864v68.12268c0 1.626203-8.961059 9.426898-12.874111 9.426898s-12.874111-7.800695-12.874111-9.426898v-64.438313z" fill="#4D2C25" p-id="2465"></path><path d="M542.923589 685.546402l-16.507659-14.356328c-6.038974 3.752126-13.179024 6.030505-15.855484 13.306072l-15.457403 4.734623c-2.176741-0.525128-5.319041 0.44043-8.385112-0.660645-27.543821-9.926617-63.743788-41.451249-39.503192-71.21416 22.428056-27.535352 80.259917-28.670306 110.497138-14.729 38.842548 17.913648 31.389115 55.494194-0.152457 77.295484-5.77641 3.99775-9.994376 3.650488-14.635831 5.615484z" fill="#4C2C24" p-id="2466"></path><path d="M542.923589 685.546402c-15.982531 6.784318-23.639239 9.757221-42.518445 7.419553-4.624516-0.575947-4.988718-3.667428-5.302101-3.743656l15.457403-4.734623c2.68493-7.275567 9.824979-9.553945 15.855484-13.306071l16.507659 14.356327z" fill="#4D2C25" p-id="2467"></path><path d="M866.631248 626.638875c1.177304 2.354607 12.984218 5.293631 14.542663 3.531911 4.565227-21.674243 31.253598-20.751034 25.341671 5.107295-1.677022 7.351795-13.314541 17.574855-13.314541 22.665211 0 3.176179 7.885393 13.543226 9.562415 19.065542 1.151894 3.802945 3.870703 17.456278 4.243375 21.513317 6.928304 74.746071-91.905906 81.098428-117.010422 21.411679-3.032192-13.915897 3.684367-39.003474-4.285723-49.099488 20.03957-0.220215 34.573763-30.71153 36.784383-47.862895 6.996063 0.787692 14.889926-0.533598 22.072325 0-3.226998 3.226998-20.708685 28.289165-21.538727 31.838015-3.159239 13.551696 5.78488 20.598577 17.972937 14.297039 5.632423-2.913615 24.223656-33.718313 25.629644-42.459156z" fill="#F8BA96" p-id="2468"></path><path d="M807.77454 619.270141c3.269347 1.439868 10.892175 3.252407 14.71206 3.684367-2.21062 17.151365-16.744814 47.64268-36.784384 47.862895-0.652175-0.830041-4.192556-1.160364-5.640894-3.455683l-1.888767-5.700182c0.110108-7.978561 17.35464-43.009694 29.601985-42.391397z" fill="#F39D77" p-id="2469"></path><path d="M859.279453 615.585773c7.834574 0.940149 5.928867 8.198776 7.360265 11.044632-1.405988 8.732374-19.997221 39.545542-25.629644 42.459157-12.188056 6.301538-21.132175-0.745343-17.972937-14.297039 0.830041-3.54885 18.311729-28.619487 21.538726-31.838015 4.539818-4.539818 12.721654-5.945806 14.71206-7.360265z" fill="#F39974" p-id="2470"></path><path d="M160.359222 622.954508c-3.633548 14.610422-15.559041 35.081952-27.476063 44.280165-7.004533 5.403739-9.81651 4.361952-16.668586-0.101637 0.415021-3.56579-0.304913-7.436493 0-11.044632 1.524566-18.2355 15.448933-28.255285 25.748222-40.502631 12.45062-4.345012 15.211778 5.581605 18.396427 7.360265z" fill="#F59E7B" p-id="2471"></path><path d="M200.827973 619.270141c2.23603 9.299851-1.710902 12.137237-5.259752 18.67593-3.633548 6.69115-17.540976 31.007974-22.690621 32.50713-29.330951 8.546038-10.544913-26.773069-2.176741-38.893366 1.126485-1.626203 0.127047-4.133267 0.702994-4.92096 0.474309-0.643706 9.672523-7.089231 11.036163-7.360265 5.208933-1.041787 12.560728 0.533598 18.396426 0z" fill="#F59977" p-id="2472"></path><path d="M248.648519 560.371084c-7.029942 10.942994-20.183557 30.974094-32.922151 35.14971-33.972407 11.12086-39.748817-24.240596-11.400364-33.498098 13.238313-4.319603 30.415087-0.321853 44.322515-1.651612z" fill="#E2EFF6" p-id="2473"></path><path d="M498.78741 784.965029v64.438313c0 1.626203 8.961059 9.426898 12.874111 9.426898s12.874111-7.800695 12.874111-9.426898v-68.12268c12.02713 1.465277 25.655054 4.573697 36.835202 9.155864 6.835136 2.795037 18.133863 6.894425 18.582763 14.796758 0.44043 7.749876-8.664615 34.573763-12.069479 43.373895-13.060447 33.752192-36.132208 67.478974-76.524731 48.735286-29.474938-13.687213-40.180778-63.65909-47.896774-92.193879l1.812539-5.607014c15.974061-9.257502 34.810918-16.00794 53.512258-14.568073z" fill="#F3AA8E" p-id="2474"></path></svg>