<?xml version="1.0" standalone="no"?><!DOCTYPE svg PUBLIC "-//W3C//DTD SVG 1.1//EN" "http://www.w3.org/Graphics/SVG/1.1/DTD/svg11.dtd"><svg t="1772951682602" class="icon" viewBox="0 0 1024 1024" version="1.1" xmlns="http://www.w3.org/2000/svg" p-id="5368" xmlns:xlink="http://www.w3.org/1999/xlink" width="200" height="200"><path d="M984.495935 696.895947c-5.547725-3.658958-16.787163-9.249032-23.080232-11.535881 0.287974-2.481654-0.42349-5.35292 0-7.690587 11.612109-64.09952-3.904582-127.34359-20.166617-189.452705-5.048007-19.277287-20.200496-51.792887-18.2355-70.087676 7.843044-73.094458 10.096013-145.680728-4.717684-218.504152-6.284599-30.923275-19.760066-87.891216-55.697469-94.311331-14.127643-2.524003-44.720596 10.087543-58.949876 16.516129-33.277883 15.025443-69.850521 40.52804-99.765889 61.770322-6.182961 4.387361-9.494657 12.535318-17.38005 13.390769-26.163242-0.821572-51.386336-11.103921-77.092208-15.406584-63.108553-10.570323-125.09909-7.868453-188.300811-3.836823-3.870703 0.245624-7.885393 4.133267-11.180149 3.447212-34.531414-31.931183-72.11196-67.047014-112.589181-91.389247-56.120959-33.743722-81.47957-26.112423-107.151563 33.955467-28.348453 66.310141-39.155931 153.777866-44.339454 224.890389-0.957089 13.145145 2.278379 29.36483-0.45737 41.84933-3.074541 13.983656-21.860579 44.263226-28.280695 60.177998-23.461373 58.136774-44.153118 121.304615-40.316294 184.684202-1.456807 0.381141-9.672523 5.251282-14.390207 6.894425-4.421241 1.533036-10.468685-0.033879-12.535319 0.796162 0.736873-10.731249-1.007907-22.25019-0.169396-32.854392 6.928304-87.442316 38.131084-139.684103 67.529793-217.089694 9.613234-25.307792 3.955401-45.660744 5.547726-71.375086 4.048569-65.649495 27.298197-198.769495 69.325393-249.901737 42.467626-51.674309 102.8489-14.898395 146.053399 15.626799 29.093797 20.547758 51.437155 45.711563 79.548454 66.581174 11.747626 3.455682 19.853234-2.820447 30.067824-3.455682 77.210786-4.793912 156.945575 2.303788 231.07335 22.360297 44.873052-33.277883 109.777204-82.37737 166.05909-90.601555 56.163309-8.207246 80.59024 45.338892 92.481853 90.491448 19.472093 73.941439 16.228156 142.868751 12.306634 218.131481-2.701869 51.725128 15.245658 83.741009 26.205591 131.824119 11.476592 50.353019 15.474342 101.273515 12.535318 153.066402-0.4489 7.961621-1.888768 13.627924-3.963871 21.047477z" fill="#502E23" p-id="5369"></path><path d="M961.415703 677.669479c-13.975186-11.654458-16.617767-31.566981-30.906336-44.09383-17.684963-15.499752-35.708718-17.676493-57.560827-21.293101-0.338792-0.059289-0.855451-3.345575-5.556195-3.904583-9.189744-1.092605-19.641489 0.821572-29.059917 0.059289-1.76172-25.799041-25.197684-31.17737-46.151994-34.616113 0.499719-7.258627-6.386237-13.424648-11.637518-17.202183-36.538759-26.26488-101.857932-30.770819-139.751861-5.34445-24.91818 16.719404-42.967345 61.321423 5.242812 37.936278 9.537006-1.092605 9.960496 5.632423 13.475467 11.518941 8.173366 13.695682 9.003408 24.249065 13.441588 38.478346-40.443342 0.863921-58.500976-36.996129-89.635996-54.596394-48.142399-27.213499-107.634342-24.799603-154.06584 5.124235-5.759471 3.718246-9.096576 9.460778-14.153052 12.764003-17.35464 11.332605-35.59861 23.300447-57.526948 21.318511 7.038412-16.770223 9.3422-46.160463 34.616113-46.151993 7.487312 3.599669 16.380612 7.385674 24.833482 7.622829 15.719967-4.345012-5.200463-36.809793-13.424649-44.026071-8.664615-7.58895-37.605955-22.512754-48.684466-24.393052-32.176807-5.454557-85.333333 0.982498-105.025641 30.025475-19.336576 0.660645-46.28751 7.944682-49.997287 30.770819-11.798445 3.845294-27.476063-4.675335-36.352424-3.98928-5.598544 0.43196-23.495252 4.048569-29.229313 5.708651-20.361423 5.886518-51.343987 33.116956-53.647775 55.968503-1.32129 0.160926-2.744218-0.287974-3.845294 0-3.828354-63.379586 16.854921-126.538958 40.316295-184.684201 6.420116-15.914773 25.214624-46.194342 28.280695-60.177999 2.744218-12.47603-0.499719-28.704185 0.457369-41.84933 5.183524-71.112523 15.991001-158.580248 44.339454-224.890389 25.671993-60.067891 51.030604-67.699189 107.151564-33.955467 40.477221 24.342233 78.049297 59.458065 112.589181 91.389247 3.294756 0.686055 7.309446-3.201588 11.180149-3.447212 63.193251-4.031629 125.183788-6.733499 188.30081 3.836824 25.705873 4.311133 50.928966 14.593482 77.092209 15.406584 7.885393-0.855451 11.205558-9.003408 17.380049-13.39077 29.915368-21.242283 66.488007-46.74488 99.76589-61.770322 14.22928-6.428586 44.822233-19.040132 58.949875-16.516129 35.937403 6.420116 49.41287 63.388056 55.697469 94.311331 14.805227 72.823424 12.560728 145.401224 4.717684 218.504153-1.964996 18.294789 13.187494 50.801919 18.235501 70.087675 16.262035 62.100645 31.778726 125.353184 20.166617 189.452705zM207.568755 296.900711c21.462498-15.923242 39.952093-36.199967 61.711034-51.750537 20.581638-14.720529 44.491911-24.333763 65.149777-38.859487 0.753813-2.913615-3.752126-10.23153-5.80182-13.145145-7.292506-10.367047-28.602548-34.633052-38.29201-42.467626-33.811481-27.349016-52.07239-20.92043-66.538825 18.21856-5.200463 14.068354-16.219686 59.847676-16.219686 72.239008v55.765227z m665.379785 34.607643c-2.795037-11.747626 3.311696-22.114673 4.01469-32.524069 2.049694-30.135583-0.779222-70.079206-8.800132-99.223822-2.176741-7.902333-7.072291-24.257535-14.339388-27.967312-26.764599-13.670273-73.772043 29.000629-90.491448 48.167808-2.320728 2.65952-7.021472 4.91249-5.674772 9.37608 31.575451 26.933995 63.786137 50.048106 92.287047 80.937502 6.310008 6.843606 10.375517 21.758941 22.995534 21.225343zM371.747548 355.359338c-49.336642 9.570885-49.133366 59.66981-10.24 85.680596 19.717717 13.187494 61.465409 16.89727 76.296046-4.294194 18.870736-26.950935 0.46584-56.120959-25.070637-70.019917-14.627361-7.961621-24.833482-8.512159-40.993879-11.374955z m300.093829 19.285757c-12.687775 1.821009-39.105112 12.332043-46.888866 22.334888-14.009065 17.998346-15.719967 47.159901 3.684367 61.541638 38.520695 28.543259 123.362779-19.649959 92.287047-65.361522-11.612109-17.075136-29.314012-21.343921-49.082548-18.506534z" fill="#F7C17C" p-id="5370"></path><path d="M207.568755 296.900711V241.135484c0-12.391332 11.019222-58.170653 16.219686-72.239008 14.466435-39.130521 32.727345-45.559107 66.538826-18.21856 9.697932 7.843044 30.999504 32.109049 38.292009 42.467626 2.049694 2.913615 6.547163 10.23153 5.80182 13.145145-20.649396 14.517254-44.568139 24.138958-65.149776 38.859487-21.750471 15.559041-40.240066 35.835765-61.711034 51.750537z" fill="#F8C5B4" p-id="5371"></path><path d="M872.94854 331.508354c-12.620017 0.533598-16.685525-14.381737-22.995533-21.225343-28.50091-30.889396-60.720066-54.003507-92.287047-80.937502-1.3467-4.47206 3.354045-6.725029 5.674772-9.37608 16.719404-19.175649 63.726849-61.846551 90.491448-48.167808 7.267097 3.709777 12.162647 20.073449 14.339388 27.967312 8.02091 29.144615 10.849826 69.088238 8.800132 99.223821-0.702994 10.400926-6.818197 20.776443-4.01469 32.52407z" fill="#F8C7B7" p-id="5372"></path><path d="M371.747548 355.359338c16.160397 2.862796 26.366518 3.413333 40.993879 11.374955 25.528007 13.898958 43.932903 43.060513 25.070637 70.019917-14.830637 21.182994-56.586799 17.481687-76.296046 4.294194-38.893366-26.010786-39.088172-76.109711 10.24-85.680596z" fill="#F6EEDA" p-id="5373"></path><path d="M671.841377 374.645095c19.768536-2.837386 37.470438 1.431398 49.082548 18.506534 31.075732 45.711563-53.766352 93.904781-92.287047 65.361522-19.404334-14.381737-17.693433-43.543292-3.684367-61.541637 7.783755-10.002845 34.201092-20.505409 46.888866-22.334889z" fill="#F6EDD9" p-id="5374"></path><path d="M184.488524 839.205691c6.860546 5.463027 10.350108 9.282911 19.234938 15.381174 28.399272 19.514442 45.84708 28.356923 76.922812 42.3067 7.55507 3.396394 12.45909 4.946369 19.234938 7.690587 135.034177 54.816609 261.183524 65.412341 403.848999 26.925525 8.215715-2.21909 14.034475-6.005095 19.234938-7.690587 27.797916-9.011878 54.350769-17.36311 80.768106-30.770819 8.867891-4.497469 15.067792-10.392457 23.080232-15.381174 40.05373-24.985939 69.283044-45.211844 95.556393-87.137403 4.632986-7.394144 7.715997-16.719404 12.137238-24.401522 0.745343 1.134955 17.583325 17.888238 19.234938 19.234938-50.158213 95.370058-162.688106 151.787461-264.266535 176.121224-187.818031 45.000099-449.145542-0.347262-578.123804-154.895881-15.57598-18.658991-33.489628-47.244599-38.385178-71.2311 1.245062-0.542068 18.481125-18.091514 19.234938-19.234938 12.171117 46.558544 46.389148 88.61115 82.614524 119.424318 4.217965 3.58273 9.138925 3.210058 9.689462 3.650488z" fill="#522F24" p-id="5375"></path><path d="M961.415703 685.360066c6.284599 2.295318 17.524036 7.876923 23.080232 11.535881 26.120893 17.219123 55.782167 55.824516 28.94134 84.706567-14.017535 15.093201-44.220877 16.355203-59.712159 3.752126-1.643143-1.33823-18.489595-18.091514-19.234938-19.234938-7.004533-10.70584-12.89105-35.708718-18.481125-48.828453-2.532473-5.954276-5.598544-14.356328-12.289694-16.558478 0.372672-1.109545-3.167709-20.691745-3.845293-23.080232 7.944682-3.074541 11.188619-2.65952 19.175649-2.032754 13.526286 1.058726 29.593515 5.073416 42.357518 9.723342z m-38.461406 7.699057c10.799007 20.784913 19.107891 57.501538 36.386303 73.221506 3.531911 3.210058 19.099421 11.510471 23.232688 11.502001 10.604202 0 25.307792-14.398677 25.256973-25.129925-0.135517-28.229876-57.645525-61.727974-84.875964-59.593582z" fill="#4BB3DA" p-id="5376"></path><path d="M92.184537 716.130885c-0.745343 1.134955-17.981406 18.69287-19.234938 19.234938-1.448337 0.626766-5.632423-0.635236-8.757783 0.686055-21.902928 9.299851-41.341141 12.382862-56.790075-10.146833-22.953184-33.455749 12.442151-61.346832 38.605393-77.270074 3.015252-1.837949 3.54885-5.454557 3.862233-5.581605 2.066634-0.830041 8.114078 0.736873 12.535319-0.796162 4.717684-1.634673 12.9334-6.513284 14.390207-6.894425 1.101075-0.287974 2.524003 0.160926 3.845293 0 16.287444-1.973466 61.092738-5.886518 48.184748 19.345046-1.507626 2.939024-7.334855 6.013565-9.79957 9.426898-12.577667 17.422399-17.642614 37.953218-26.849297 51.996162z m15.381175-65.378462c-24.155897-4.277254-82.3689 20.530819-87.823458 44.847643-4.209495 18.786038 3.074541 27.459123 20.598577 32.244566 39.333797-5.090356 48.049231-49.023259 67.216411-77.092209z" fill="#42B1D9" p-id="5377"></path><path d="M961.415703 677.669479c-0.42349 2.337667 0.287974 5.208933 0 7.690587-12.772473-4.658395-28.831232-8.673085-42.357518-9.723341-7.987031-0.626766-11.230968-1.033317-19.17565 2.032754-3.074541-10.883706-12.975749-24.393052-17.405459-34.522945-3.963871-9.071166-9.011878-20.979719-9.520066-30.863986 21.843639 3.608139 39.875864 5.78488 57.560827 21.293101 14.288569 12.526849 16.92268 32.439371 30.906336 44.09383z" fill="#F6E7D1" p-id="5378"></path><path d="M672.950922 639.208073c17.871299 57.298263 35.361456 126.937039 38.630803 186.369694 1.973466 35.818825-7.317916 70.197783-7.859984 105.94038-142.657006 38.486816-268.814822 27.899553-403.848999-26.925525 1.753251-30.813168-2.320728-63.870835-0.169396-94.39603 4.361952-61.965128 34.158743-129.893002 57.85727-186.369694 21.936807 1.981935 40.172308-9.985906 57.526948-21.318511 5.056476-3.303226 8.393581-9.054227 14.153052-12.764003 46.431497-29.923838 105.923441-32.337734 154.06584-5.124235 31.135021 17.600265 49.192655 55.460314 89.635997 54.596394z m-142.301273 38.469876c38.469876-7.622829 76.025012-51.581141 28.289164-76.380745-26.400397-13.712622-59.737568-15.406584-87.103523-3.608139-43.678809 18.836857-15.423524 68.520761 20.352953 76.13512 7.224748 5.979686-36.51335 19.878644-44.034541 19.345046-4.920959-0.347262-28.611017-7.233218-32.871332-9.757221-9.78263-5.79335-11.679868-38.791729-30.626832-19.040132-0.702994 23.224218 17.024318 40.333234 38.427527 45.85555l3.387924 4.302663c1.228122 38.961125 3.13383 84.122151 24.003441 118.297833 17.303821 28.331514 48.447312 41.561356 80.251447 27.60311 25.561886-11.214028 40.5111-36.93684 49.091017-62.447907 8.334293-24.799603 12.162647-51.902994 16.533069-77.685096 12.332043-4.616046 30.71153-10.544913 37.597486-22.029975 13.932837-23.241158-6.437055-38.664682-14.169992-21.860579-2.202151 4.785443-0.957089 7.690587-6.284599 12.950339-15.296476 15.093201-71.434376 8.622266-82.843209-11.679867z" fill="#F8EFDC" p-id="5379"></path><path d="M803.724785 893.048271c-26.417337 13.407709-52.97019 21.750471-80.768106 30.770819l0.076229-36.462531c10.468685-56.341175 0.042349-116.62928-12.50144-172.267461-9.274442-41.146336-23.918743-81.073019-33.726782-122.033019 15.508222 4.370422 49.370521 4.760033 61.643275 13.348421 3.210058 2.2445 7.267097 12.179586 13.289132 17.481687 7.817634 6.894425 24.46928 12.425211 28.255285 21.742002 4.124797 26.163242 13.79732 51.318577 18.997784 77.151497 10.392457 51.64043 12.272754 97.123309 8.690024 149.221108-0.542068 7.893863-1.821009 13.644864-3.963871 21.047477z" fill="#A5DBF0" p-id="5380"></path><path d="M203.723462 854.586865c1.575385-22.978594-2.21062-48.421902 0.084698-71.070174 2.439305-24.02885 13.162084-63.489694 20.073449-87.611712 7.766816-27.120331 19.268817-53.037949 27.806385-79.887245 24.740314-9.33373 35.285227-30.847047 61.736444-34.421307 14.398677-1.948056 29.601985-0.499719 44.136178-3.929992l-37.639834 91.202912c-27.984251 74.026137-44.263226 148.374127-39.282978 228.024218-31.075732-13.958246-48.52354-22.792258-76.922812-42.3067z" fill="#A3DBF0" p-id="5381"></path><path d="M792.180434 573.821141c20.954309 3.438743 44.398743 8.817072 46.151994 34.616113 1.414458 20.784913-4.192556 22.665211-19.234938 34.616112l-23.105641 1.948057c3.523441 13.051977 7.682117 26.146303 10.68043 39.325326 5.911927 25.993846 12.764003 55.65512 16.270505 81.801423 1.524566 11.366485 0.406551 23.1734 3.845293 34.616113v76.922812c-8.00397 4.997188-14.212341 10.883706-23.080231 15.381174 2.134392-7.402614 3.421803-13.153615 3.963871-21.047477 3.58273-52.0978 1.693962-97.580678-8.690025-149.221108-5.200463-25.84139-14.872986-50.988255-18.997784-77.151497-3.786005-9.316791-20.437651-14.856046-28.255285-21.742002-6.022035-5.302101-10.070604-15.237188-13.289131-17.481687-12.272754-8.579917-46.135054-8.977998-61.643276-13.348421 9.80804 40.96 24.443871 80.886683 33.726783 122.033019 12.543788 55.63818 22.970124 115.926286 12.501439 172.267461l-0.076229 36.462531c-5.200463 1.685492-11.019222 5.479967-19.234937 7.690587 0.542068-35.734127 9.824979-70.113085 7.859983-105.94038-3.269347-59.432655-20.759504-129.071431-38.630802-186.369694-4.43818-14.22928-5.268222-24.782663-13.441588-38.478346-3.514971-5.894988-3.938462-12.611547-13.475468-11.518941 0.42349-0.203275 1.075666-4.361952 6.377767-6.962184 30.635302-15.025443 69.731944 13.653333 86.044797 5.141175 2.735749-1.431398 5.556195-6.708089 9.985906-9.232093 18.642051-10.638081 25.248503-7.360265 43.746567-4.328073z m-24.350703 12.196526c-4.760033 1.050256-11.010753 4.997188-13.975186 9.130455-3.862233 13.466998 29.610455 30.965624 40.248536 32.49866 5.962746 0.863921 12.730124 0.143987 18.752159-0.474309l8.275004-7.089231 1.431398-13.170554c-11.010753-16.47378-35.640959-25.104516-54.731911-20.90349z" fill="#47B3D8" p-id="5382"></path><path d="M199.878168 577.666435c-1.397519 8.562978 2.388486 15.177899 3.845294 23.080232-14.551133 8.224185-29.771381 8.740844-40.282415 23.173399-22.317949 30.643772-28.382333 66.648933-7.690588 99.799769 9.503127 15.228718 19.031663 22.351828 36.437122 27.027163-2.955964 15.982531-6.25072 40.0622-7.614359 55.849925-0.931679 10.782068 0.45737 21.83517-0.076228 32.608768-0.550538-0.44043-5.471497-0.067758-9.689463-3.650488-36.233846-30.813168-70.451878-72.865773-82.614524-119.424318 9.206683-14.042945 14.271629-34.573763 26.849297-51.996162 2.464715-3.413333 8.291944-6.479404 9.79957-9.426898 12.90799-25.231563-31.905773-21.318511-48.184748-19.345046 2.303788-22.851547 33.286352-50.081985 53.647775-55.968503 5.734061-1.660083 23.630769-5.276691 29.229313-5.708652 8.876361-0.686055 24.553978 7.826104 36.352424 3.989281z" fill="#F8E3CC" p-id="5383"></path><path d="M249.875455 546.895616c27.967312-0.957089 36.49641 2.549413 51.818296 26.332639 25.011348-9.062696 61.787262-12.374392 85.638247-0.169396 2.854326 1.465277 4.260314 4.328073 4.844731 4.607576-25.273912 0-27.577701 29.38177-34.616113 46.151993-23.698528 56.476691-53.495318 124.404566-57.85727 186.369694-2.151332 30.525194 1.922647 63.591332 0.169396 94.39603-6.775848-2.752688-11.671398-4.302663-19.234938-7.690587-4.980248-79.650091 11.298726-153.998081 39.282978-228.024218l37.639834-91.202912c-14.534194 3.430273-29.737502 1.981935-44.136178 3.929992-26.451216 3.57426-36.996129 25.087577-61.736444 34.421307-8.537568 26.849297-20.03957 52.766915-27.806385 79.887245-6.911365 24.130488-17.642614 63.582862-20.073449 87.611712-2.295318 22.639801 1.490687 48.08311-0.084698 71.070174-8.876361-6.098263-12.374392-9.918147-19.234938-15.381174 0.533598-10.773598-0.855451-21.83517 0.076228-32.608768 1.363639-15.779256 4.658395-39.867395 7.614359-55.849925 3.337105-18.049165 11.612109-43.365426 17.193714-61.651746 7.868453-25.756691 19.920993-50.818859 25.121456-76.812704-13.018098 2.142862-20.979719-4.793912-30.779289-11.544351-1.456807-7.902333-5.242812-14.508784-3.845294-23.080232 3.718246-22.826137 30.660711-30.110174 49.997287-30.770819z m-5.014127 12.306634c-14.449495 2.557883-23.444433 11.645988-29.305542 24.748784 6.547163 29.170025 74.763011 5.513846 68.901902-15.847014-2.464715-8.977998-30.813168-10.460215-39.59636-8.90177z" fill="#43B1D8" p-id="5384"></path><path d="M934.490178 766.128172c-4.421241 7.673648-7.512721 17.007378-12.137237 24.401522-26.26488 41.925558-55.502663 62.159934-95.556394 87.137403v-76.922812c8.613797-6.386237 18.853797-2.481654 28.221406-4.46359 20.344483-4.319603 52.631398-41.959438 52.52976-62.820579-0.033879-6.928304-7.453433-19.929462-7.758346-27.18809-0.177866-4.175616 3.802945-5.149644 3.929992-5.522315 6.69962 2.202151 9.757221 10.595732 12.289694 16.558478 5.581605 13.119735 11.476592 38.122614 18.481125 48.828453z" fill="#F8E9D4" p-id="5385"></path><path d="M872.95701 612.282548c0.516658 9.884268 5.556195 21.792821 9.520066 30.863986 4.429711 10.129892 14.322448 23.630769 17.405459 34.522945 0.677585 2.388486 4.226435 21.970687 3.845294 23.080232-0.127047 0.372672-4.107858 1.3467-3.929992 5.522315 0.304913 7.258627 7.724467 20.259785 7.758346 27.18809 0.101638 20.861141-32.185277 58.500976-52.52976 62.820579-9.36761 1.990405-19.60761-1.922647-28.221406 4.46359-3.438743-11.434243-2.320728-23.249628-3.845294-34.616113 31.245128-0.948619 52.309545-24.884301 50.166683-55.909214-1.482217-21.521787-31.710968-63.22713-54.011976-67.165592 15.042382-11.950902 20.649396-13.831199 19.234937-34.616112 9.426898 0.762283 19.870174-1.151894 29.059918-0.059289 4.700744 0.559007 5.217403 3.845294 5.556195 3.904583z" fill="#F9D2B6" p-id="5386"></path><path d="M922.954297 693.059123c27.230438-2.134392 84.740447 31.363706 84.875964 59.593582 0.050819 10.731249-14.652771 25.121456-25.256973 25.129925-4.133267 0-19.700778-8.291944-23.232688-11.502001-17.278412-15.719967-25.587295-52.436592-36.386303-73.221506z" fill="#ADDDEE" p-id="5387"></path><path d="M107.565712 650.752423c-19.167179 28.06895-27.891084 72.001853-67.216411 77.092209-17.524036-4.785443-24.808073-13.458528-20.598577-32.244566 5.446088-24.316824 63.66756-49.124897 87.823457-44.847643z" fill="#A5DCEF" p-id="5388"></path><path d="M392.185199 577.666435c-0.584417-0.279504-1.990405-3.150769-4.844731-4.607576-23.850984-12.204996-60.626898-8.88483-85.638247 0.169396-15.321886-23.783226-23.859454-27.289727-51.818296-26.332639 19.692308-29.042978 72.848834-35.488503 105.025641-30.025475 11.078511 1.880298 40.019851 16.804103 48.684466 24.393052 8.232655 7.207808 29.153085 39.681059 13.424649 44.026071-8.45287-0.237155-17.34617-4.02316-24.833482-7.622829z" fill="#533127" p-id="5389"></path><path d="M792.180434 573.821141c-18.489595-3.032192-25.104516-6.301538-43.746567 4.328073-4.429711 2.524003-7.241687 7.809165-9.985906 9.232093-16.312854 8.503689-55.409495-20.166617-86.044797-5.141175-5.302101 2.600232-5.954276 6.758908-6.377767 6.962184-48.210157 23.385145-30.160993-21.208404-5.242812-37.936278 37.893929-25.426369 103.213102-20.92043 139.751861 5.34445 5.251282 3.777535 12.145707 9.943557 11.637519 17.202184z" fill="#543126" p-id="5390"></path><path d="M530.649649 677.677949c11.408834 20.302134 67.555203 26.781538 82.843209 11.679867 5.32751-5.251282 4.082448-8.164897 6.284599-12.950339 7.732936-16.795633 28.102829-1.380579 14.169992 21.860579-6.885955 11.485062-25.265443 17.413929-37.597486 22.029975-4.378892 25.782101-8.198776 52.885492-16.533069 77.685096-8.571447 25.511067-23.529132 51.233879-49.091017 62.447907-31.804136 13.958246-62.947626 0.728404-80.251447-27.60311-20.869611-34.175682-22.783788-79.345178-24.003441-118.297833l-3.387924-4.302663c-21.403209-5.522316-39.130521-22.631332-38.427527-45.85555 18.938495-19.751596 20.844202 13.255252 30.626832 19.040132 4.260314 2.524003 27.950372 9.401489 32.871332 9.757221 7.521191 0.533598 51.267758-13.36536 44.034541-19.345046-35.776476-7.614359-64.031762-57.298263-20.352953-76.13512 27.374425-11.798445 60.703127-10.104483 87.103523 3.608139 47.735848 24.791133 10.180711 68.749446-28.289164 76.380745z m42.306699 42.29823c-23.232688-1.439868-42.476096-12.154177-60.110239-26.629082l-62.820579 22.936245c5.115765 34.074045-0.101638 74.576675 19.616079 105.076459 13.78038 21.318511 37.521257 30.245691 59.161621 14.076824 34.692341-25.926088 36.183027-76.262167 44.153118-115.468916z" fill="#553228" p-id="5391"></path><path d="M819.10596 643.053366c22.301009 3.946931 52.52976 45.643805 54.011977 67.165592 2.142862 31.024913-18.921555 54.960596-50.166684 55.909214-3.506501-26.154773-10.358577-55.816046-16.270504-81.801423-2.998313-13.170554-7.156989-26.27335-10.68043-39.325326l23.105641-1.948057z" fill="#F8BA99" p-id="5392"></path><path d="M767.829731 586.017667c19.099421-4.201026 43.721158 4.429711 54.731911 20.903491l-1.431398 13.170554-8.275004 7.089231c-6.022035 0.618296-12.789413 1.33823-18.752159 0.474309-10.638081-1.533036-44.110769-19.040132-40.248536-32.49866 2.964433-4.133267 9.215153-8.088668 13.975186-9.130455z" fill="#C5E5EF" p-id="5393"></path><path d="M203.723462 600.746667c9.79957 6.750438 17.761191 13.687213 30.779288 11.54435-5.200463 25.993846-17.253002 51.056013-25.121455 76.812705-5.590074 18.286319-13.856609 43.602581-17.193714 61.651745-17.405459-4.675335-26.933995-11.798445-36.437122-27.027163-20.691745-33.150835-14.627361-69.155997 7.690588-99.799768 10.511034-14.432556 25.731282-14.957684 40.282415-23.1734z" fill="#F8BF9E" p-id="5394"></path><path d="M244.861328 559.20225c8.783193-1.558445 37.131646-0.076228 39.59636 8.90177 5.861108 21.36086-62.354739 45.017039-68.901902 15.847014 5.861108-13.094326 14.856046-22.182432 29.305542-24.748784z" fill="#BAE2ED" p-id="5395"></path><path d="M572.956348 719.976179c-7.970091 39.19828-9.469247 89.542829-44.153118 115.468916-21.631894 16.168867-45.381241 7.241687-59.161621-14.076824-19.717717-30.499785-14.500314-71.002415-19.616079-105.07646l62.820579-22.936244c17.634144 14.474905 36.877552 25.189214 60.110239 26.629081z" fill="#F4A389" p-id="5396"></path></svg>