<?xml version="1.0" standalone="no"?><!DOCTYPE svg PUBLIC "-//W3C//DTD SVG 1.1//EN" "http://www.w3.org/Graphics/SVG/1.1/DTD/svg11.dtd"><svg t="1772951618357" class="icon" viewBox="0 0 1024 1024" version="1.1" xmlns="http://www.w3.org/2000/svg" p-id="7758" xmlns:xlink="http://www.w3.org/1999/xlink" width="200" height="200"><path d="M813.7216 921.821867c-18.397867 1.954133-27.025067-14.711467-38.673067-24.5504-3.7888-3.2-8.712533-4.7104-12.398933-7.995734-26.427733-23.6288-46.702933-52.3008-71.296-77.576533 0.938667-23.927467-2.56-50.688-10.043733-73.5744-5.205333-15.914667-26.222933-53.435733-42.9824-56.951467-4.667733-8.123733-17.1776-2.210133-25.9328-4.693333-4.48-1.271467-6.673067-8.209067-14.6688-5.316267l-0.187734-2.2272c19.037867-18.986667 42.5216-13.525333 65.262934-4.078933 4.608 8.823467 12.7232 13.073067 18.176 20.573867 22.8096 31.377067 33.314133 74.0608 34.722133 112.273066 0.648533 5.819733 3.950933 5.418667 4.1984 5.8368 18.269867 30.9504 51.310933 55.04 75.886933 81.3568 4.488533 0.989867 40.823467-20.420267 47.8976-24.8832 13.3888-8.448 28.501333-19.0976 39.3728-27.9296 45.832533-37.230933 96.187733-106.325333 97.8944-167.227733 7.893333-9.847467 3.370667-26.427733 4.164267-38.664533 3.268267-50.372267-3.592533-92.296533-17.390933-141.8496-7.168-25.770667-39.799467-100.855467-39.7568-119.278934 0.008533-4.5312 4.096-9.617067 4.224-16.136533 1.604267-79.650133-4.206933-189.4656-34.798934-263.3216-29.858133-72.0896-66.2272-62.421333-125.866666-27.8528-36.983467 21.435733-72.251733 51.114667-104.5504 79.0528l-6.1184 2.039467c-10.2656-2.7136-22.587733-6.638933-32.8704-8.1664-67.438933-10.018133-144.2048-12.6464-211.882667-4.1472-14.1568 1.774933-39.842133 11.357867-52.599467 7.569066-36.420267-32.5376-78.498133-67.319467-122.0608-90.0096C206.600533 25.941333 174.08 10.862933 146.935467 49.066667c-25.890133 36.437333-42.743467 136.0384-47.189334 181.2224-4.48 45.508267 1.5104 100.061867-3.968 142.865066-4.5824 35.780267-37.9648 101.341867-47.931733 143.7696-9.745067 41.463467-13.312 77.4144-9.096533 119.381334 5.154133 51.285333 13.815467 79.872 40.789333 122.368 2.909867 4.5824 5.384533 13.457067 10.368 20.224 31.2064 42.325333 78.9248 76.9536 126.967467 97.6128l5.444266-1.365334c14.805333-17.194667 34.414933-32.059733 49.006934-49.092266 10.436267-12.177067 16.3328-20.113067 20.317866-34.747734 3.0464-11.204267 5.905067-24.516267 8.157867-36.7104l4.224 8.021334 14.250667-3.498667 1.92 3.6352c-1.2288 9.0112-0.443733 23.022933 0 32.631467l-16.238934 30.6688c-27.562667 23.176533-52.036267 57.361067-79.5392 79.5392-8.6528 6.980267-18.7904 14.404267-30.6688 12.16-0.110933-0.273067-2.901333-0.426667-3.584-2.525867-2.5088-7.688533-0.042667-15.138133 3.618134-21.905067-7.5264-0.708267-15.4112-4.992-21.819734-8.840533C-6.528 777.437867-16.418133 609.595733 47.778133 427.118933c5.512533-15.675733 21.6576-44.0576 23.6032-57.975466 4.522667-32.324267-1.9712-76.014933-0.1792-110.301867 2.7136-51.831467 14.805333-133.649067 33.6896-182.485333 35.0976-90.786133 84.744533-92.6208 163.677867-47.146667 37.469867 21.5808 73.9584 51.703467 106.538667 79.9488 8.8064-1.911467 20.352-5.9904 28.782933-7.082667 61.047467-7.918933 121.796267-7.133867 183.381333-4.078933l69.461334 12.3392c9.386667-1.194667 20.2752-18.090667 28.433066-24.738133C719.1808 57.873067 800.725333 2.0736 844.381867 3.831467c54.135467 2.184533 78.711467 69.777067 90.7264 113.425066 11.246933 40.891733 18.670933 88.046933 21.2992 129.6128 2.525867 39.970133-4.736 88.132267 0.1536 126.293334 2.141867 16.7168 17.792 44.407467 23.5264 62.1312 59.016533 182.493867 47.761067 338.884267-124.16 449.186133-25.728 16.512-26.2912 7.569067-42.1888 37.3504z" fill="#4F2B21" p-id="7759"></path><path d="M348.740267 660.778667c22.212267-8.3968 47.249067-14.139733 65.408 5.973333 13.508267 14.958933 4.932267 32.2816 34.602666 30.993067 16.768-0.725333 38.280533-14.429867 46.8224-28.8-18.235733-1.5872-43.170133-15.880533-51.063466-32.5632-15.069867-31.837867 8.328533-49.092267 37.563733-56.405334 4.1216-1.032533 28.936533-5.2224 31.658667-5.009066 5.384533 0.426667 22.306133 3.524267 28.091733 4.881066 6.5536 1.536 29.892267 14.318933 33.271467 19.746134 20.1984 32.452267-13.8752 58.1376-41.659734 68.48-3.498667 1.3056-13.124267-0.853333-9.309866 6.946133 4.317867 8.840533 33.1008 26.615467 42.8032 26.530133 5.051733-0.042667 11.477333-5.469867 18.048-4.394666 0.520533-10.717867 4.881067-20.5824 12.552533-28.2368l0.187733 2.2272c7.995733-2.8928 10.197333 4.0448 14.6688 5.316266 8.7552 2.4832 21.265067-3.4304 25.9328 4.693334-14.8736-3.1232-27.3664 2.304-28.7232 18.414933-1.3568 16.085333 32.6656 28.765867 16.6144 49.015467l-16.145066 1.621333c-10.333867-28.8-31.5648-30.020267-53.307734-9.9072 9.540267 5.930667 25.8816 27.818667 12.253867 36.7616-12.928 8.490667-22.212267-18.3552-26.555733-18.389333-3.362133 2.5344-5.154133 5.6064-7.005867 9.2928-20.266667 40.362667-6.485333 76.014933 13.124267 113.0496 24.661333 46.574933 57.890133 77.192533 87.7568 118.2208 5.495467 7.552 7.901867 10.069333 6.058666 20.462933-1.911467 0.042667-5.930667 4.215467-10.171733 4.104533-14.020267-0.3584-12.919467-8.814933-18.193067-14.370133-10.692267-11.255467-20.949333-22.536533-31.2832-34.0992-13.380267-0.452267-27.0848-1.220267-40.465066-0.682667-14.5152 0.580267-17.134933 1.2288-32.529067 0.256-26.8544-1.698133-55.261867 3.7888-81.015467-3.805866l-47.351466 50.875733c-3.131733 1.8688-7.953067-2.372267-12.270934-2.2784-2.9696-9.301333-3.652267-11.8272 2.1248-20.3264 28.484267-41.873067 61.056-71.261867 87.611734-118.357333 5.9904-10.624 14.318933-20.804267 18.500266-32.4864 9.531733-26.624 11.025067-67.6352-8.302933-89.864534l-20.650667 20.2752c-9.361067-1.493333-17.8432-11.221333-12.1088-20.411733 2.304-3.694933 24.183467-19.8912 18.491734-24.328533-9.472 0.119467-14.592-9.736533-23.048534-11.682134-21.777067-5.009067-28.9536 25.838933-36.471466 27.818667l-13.738667-4.0704c-8.593067-22.016 22.8352-37.5808 19.7632-54.186667-4.744533-25.608533-35.0976-15.044267-48.64-0.887466-6.7072 7.0144-18.7648 29.329067-22.331733 38.852266-2.952533 7.876267-9.3696 27.0592-10.1376 32.6912l-1.92-3.6352-14.250667 3.498667-4.224-8.021333c3.592533-19.490133 5.768533-33.339733 15.530667-51.771734 9.309867-17.578667 23.389867-26.922667 33.416533-42.043733z m195.7888 61.166933l-34.670934-28.305067c-11.3664 8.789333-23.355733 20.642133-38.749866 20.164267-1.664 6.417067 1.629867 6.724267 4.104533 10.1632 11.357867 15.812267 24.465067 31.163733 28.535467 51.003733l28.3648-47.069866 12.416-5.956267z m16.3072 228.4288l-51.182934-89.540267-3.882666-16.520533-23.074134 50.3552-36.0704 49.5872c3.2512 3.780267 11.861333 1.809067 17.664 2.722133 2.389333 0.375467 3.8656 3.387733 4.770134 3.387734h91.776z" fill="#533026" p-id="7760"></path><path d="M458.871467 881.032533c-26.555733 47.095467-59.118933 76.484267-87.611734 118.357334-5.777067 8.490667-5.0944 11.016533-2.1248 20.3264-5.589333 0.119467-9.813333 3.7888-14.318933 4.010666-79.223467 3.8912-132.1216-34.286933-161.066667-105.984 11.8784 2.244267 22.016-5.179733 30.6688-12.16 27.502933-22.178133 51.976533-56.354133 79.5392-79.5392l16.238934-30.6688c0.853333 18.4064 4.667733 20.6336 18.2784 32.708267 32.366933 28.731733 78.114133 46.037333 120.405333 52.9408z" fill="#F7C27E" p-id="7761"></path><path d="M813.7216 921.821867c-29.986133 56.157867-95.1808 104.482133-161.143467 101.870933-4.130133-0.162133-8.507733-4.010667-10.171733-3.976533 1.8432-10.3936-0.554667-12.9024-6.058667-20.462934-29.866667-41.028267-63.095467-71.645867-87.7568-118.2208 22.664533 1.8176 47.291733-6.562133 68.113067-15.505066 15.4368-6.6304 71.7056-38.587733 74.6496-53.8368 24.593067 25.275733 44.8768 53.947733 71.296 77.576533 3.677867 3.293867 8.610133 4.795733 12.398933 7.995733 11.648 9.847467 20.2752 26.504533 38.673067 24.5504zM980.957867 664.8576c0.878933-31.2832-11.272533-49.297067-32.631467-69.341867-1.962667-1.8432-2.653867-7.850667-8.157867-8.157866 0.546133-1.083733-0.546133-2.9952 0-4.078934 0.1024-0.196267 3.2-0.085333 3.831467-2.3296l-0.059733-7.406933c-13.269333-21.12-31.4368-24.362667-51.473067-34.338133-28.168533-14.0288-60.680533-30.199467-93.184-33.493334-8.7296-0.887467-14.993067 5.316267-22.920533 0.256-9.5488-33.408-38.929067-57.301333-73.5744-59.8528-34.645333-2.551467-67.208533 16.785067-81.544534 48.4352-14.336 31.650133-7.406933 68.881067 17.3568 93.243734 24.763733 24.362667 62.1056 30.6944 93.5168 15.837866 3.336533 10.1376-5.9136 15.6416-8.1408 20.437334l-2.312533-3.831467c-6.826667-3.5328-14.3616 3.5328-18.082133 3.831467-8.6784 0.6912-24.610133 1.297067-32.631467 0-0.221867-0.034133-0.887467-2.688-3.0464-3.2-42.026667-10.0608-63.163733-44.706133-102.946133-60.074667-39.5264-15.274667-83.950933-13.610667-122.513067 4.0448-28.9536 13.2608-46.404267 41.079467-81.4848 51.072-6.638933 1.8944-17.681067 2.261333-24.4736 4.078933-7.8336-0.750933-16.9984 1.1264-24.4736 0-0.699733-0.1024-6.7072-2.679467-12.2368-4.078933-1.271467-0.324267-2.7904 0.3072-4.078933 0-0.674133-0.1536-5.461333-6.903467-12.228267-4.087467v-4.061866l12.808533-1.544534c32.8448 12.356267 69.922133 2.594133 92.416-24.354133 22.493867-26.939733 25.480533-65.169067 7.4496-95.274667-18.030933-30.114133-53.137067-45.525333-87.5008-38.417066-34.372267 7.108267-60.484267 35.1744-65.1008 69.9648-8.832 0.682667-15.112533-3.797333-23.125333-4.369067-29.346133-2.090667-72.516267 6.306133-101.504 13.047467-8.004267 1.860267-18.909867 10.6752-28.7744 11.383466-2.696533 1.604267-8.456533 15.317333-9.762133 19.4304-1.672533 5.239467-8.174933 22.587733-0.8448 25.659734-6.9888 5.2224-17.373867 13.568-22.331734 20.497066-6.980267 9.762133-9.1648 24.4224-18.4576 32.529067-4.215467-41.966933-0.64-77.917867 9.096534-119.381333 9.966933-42.427733 43.349333-107.989333 47.931733-143.7696 5.486933-42.811733-0.512-97.3568 3.968-142.865067 4.445867-45.184 21.2992-144.785067 47.189333-181.2224 27.144533-38.203733 59.656533-23.125333 94.506667-4.974933 43.5712 22.690133 85.640533 57.472 122.0608 90.0096 12.757333 3.7888 38.4512-5.794133 52.599467-7.569067 67.677867-8.4992 144.443733-5.870933 211.882666 4.1472 10.274133 1.527467 22.6048 5.4528 32.8704 8.1664l6.1184-2.039467c32.298667-27.938133 67.566933-57.617067 104.5504-79.0528 59.648-34.568533 96.008533-44.2368 125.866667 27.8528 30.592 73.847467 36.4032 183.662933 34.798933 263.3216-0.128 6.528-4.215467 11.605333-4.224 16.136534-0.042667 18.423467 32.5888 93.508267 39.7568 119.278933 13.789867 49.553067 20.650667 91.477333 17.390934 141.8496-0.7936 12.245333 3.7376 28.817067-4.164267 38.664533zM157.038933 185.6c-2.1248 25.6256 1.553067 53.632 0 79.5392 7.005867 1.672533 8.106667-2.679467 12.2368-6.1184 10.8288-9.0112 19.822933-21.4784 30.506667-30.6688 20.693333-17.792 57.915733-45.866667 82.474667-56.328533 4.206933-1.792 6.6048 1.3312 5.393066-6.869334-1.390933-9.4464-28.433067-37.4016-36.974933-44.637866-29.866667-25.309867-60.032-45.986133-79.419733 1.809066-8.465067 20.881067-7.697067 34.4064-10.077867 55.176534-0.512 4.48-4.087467 7.3984-4.138667 8.098133z m713.787734 83.618133V185.6c0-0.964267-3.1232-2.449067-3.396267-4.7616-3.217067-27.4688-9.053867-93.909333-49.8432-81.083733-21.111467 6.638933-56.072533 41.949867-71.168 59.3408-2.773333 3.191467-7.364267 5.0176-6.1184 10.171733 1.041067 3.694933 41.3696 27.255467 48.768 32.827733 24.576 18.517333 46.097067 41.531733 69.512533 61.0048 4.130133 3.438933 5.2224 7.790933 12.2368 6.1184z m-539.767467 57.770667c-22.997333 5.026133-31.044267 33.1264-26.5216 53.725867 10.6752 48.5888 113.834667 65.194667 117.7856 8.9856 3.191467-45.312-51.293867-71.441067-91.272533-62.702934z m322.338133 0.119467c-16.750933 2.833067-47.488 26.231467-51.0976 42.717866-19.515733 89.0368 132.821333 58.094933 116.9408-12.2624-6.8096-30.148267-39.2704-34.952533-65.8432-30.446933z" fill="#F7C27D" p-id="7762"></path><path d="M638.336 681.173333c16.759467 3.515733 37.777067 41.0368 42.9824 56.951467 7.483733 22.877867 10.9824 49.646933 10.043733 73.5744-2.944 15.240533-59.2128 47.2064-74.6496 53.8368-20.821333 8.942933-45.448533 17.322667-68.113066 15.505067-19.6096-37.034667-33.3824-72.686933-13.124267-113.0496 1.851733-3.6864 3.643733-6.749867 7.005867-9.2928 4.343467 0.034133 13.6192 26.871467 26.555733 18.389333 13.627733-8.942933-2.722133-30.830933-12.253867-36.7616 21.742933-20.113067 42.973867-18.8928 53.307734 9.9072l16.145066-1.621333c16.0512-20.2496-17.9712-32.930133-16.6144-49.015467 1.3568-16.110933 13.8496-21.5296 28.7232-18.414933z" fill="#F7EFDC" p-id="7763"></path><path d="M320.187733 762.752c0.768-5.632 7.185067-24.814933 10.1376-32.6912 3.566933-9.514667 15.624533-31.829333 22.331734-38.852267 13.5424-14.1568 43.895467-24.721067 48.64 0.887467 3.072 16.605867-28.356267 32.162133-19.7632 54.186667l13.738666 4.0704c7.5264-1.979733 14.702933-32.836267 36.471467-27.818667 8.456533 1.9456 13.585067 11.8016 23.048533 11.682133 5.691733 4.437333-16.1792 20.6336-18.491733 24.328534-5.7344 9.1904 2.747733 18.9184 12.1088 20.411733l20.650667-20.2752c19.328 22.229333 17.834667 63.240533 8.302933 89.864533-4.181333 11.682133-12.509867 21.8624-18.500267 32.4864-42.2912-6.903467-88.0384-24.2176-120.405333-52.9408-13.610667-12.0832-17.425067-14.301867-18.2784-32.708266-0.443733-9.608533-1.2288-23.620267 0-32.631467z" fill="#F6EEDC" p-id="7764"></path><path d="M670.967467 624.068267c-4.334933 5.102933-2.8672 12.450133-4.829867 17.6128-3.882667 10.197333-11.8784 6.784-3.328 23.176533-22.7328-9.4464-46.225067-14.907733-65.262933 4.078933-7.68 7.6544-12.032 17.518933-12.552534 28.2368-6.570667-1.0752-12.996267 4.352-18.048 4.394667-9.7024 0.085333-38.485333-17.6896-42.8032-26.530133-3.8144-7.799467 5.802667-5.649067 9.309867-6.946134 27.784533-10.3424 61.858133-36.036267 41.659733-68.48-3.3792-5.4272-26.7264-18.210133-33.271466-19.746133-5.7856-1.3568-22.7072-4.4544-28.091734-4.881067-2.722133-0.213333-27.528533 3.976533-31.658666 5.009067-29.243733 7.304533-52.6336 24.558933-37.563734 56.405333 7.893333 16.682667 32.827733 30.976 51.063467 32.5632-8.541867 14.370133-30.062933 28.066133-46.8224 28.8-29.6704 1.288533-21.0944-16.034133-34.602667-30.993066-18.158933-20.113067-43.195733-14.370133-65.408-5.973334 2.2016-3.328 6.929067-8.3712 7.594667-10.743466 2.986667-10.581333-3.1232-24.149333 4.642133-34.1248 35.080533-9.992533 52.5312-37.8112 81.4848-51.072 38.562133-17.664 82.986667-19.328 122.513067-4.0448 39.773867 15.377067 60.919467 50.013867 102.946133 60.074666 2.158933 0.520533 2.824533 3.165867 3.0464 3.2z" fill="#F8EDD7" p-id="7765"></path><path d="M83.618133 579.208533c11.460267 15.3088-2.9952 27.690667-7.3216 39.5776-9.344 25.6512-15.803733 40.482133-7.995733 67.541334 12.561067 43.528533 61.474133 87.381333 107.195733 92.6464 32.9984 3.797333 49.9712-3.831467 78.165334-15.453867 4.804267-1.979733 9.156267 0.1536 15.735466-4.6592 4.727467-3.456 14.1824-13.9776 17.604267-19.106133 8.533333-12.782933 31.2832-62.907733 33.1264-77.0048 1.5872-12.16-0.989867-26.197333 0.0768-38.647467 8.1408 3.328 14.267733-3.566933 16.3072-4.113067 6.792533-1.8176 17.834667-2.184533 24.4736-4.078933-7.765333 9.975467-1.655467 23.543467-4.642133 34.1248-0.6656 2.363733-5.393067 7.415467-7.594667 10.743467-10.026667 15.121067-24.106667 24.456533-33.416533 42.043733-9.762133 18.432-11.9296 32.2816-15.530667 51.771733-2.2528 12.194133-5.111467 25.506133-8.157867 36.7104L287.573333 774.997333l-3.874133 14.481067c-5.845333 4.0448-15.325867 0.648533-22.562133 1.902933-34.6112 6.016-51.541333 14.336-89.992534 12.330667-6.545067-0.341333-11.357867-3.8144-16.221866-4.1728-13.3632-0.989867-27.016533 0.384-40.413867 0.119467l-18.568533-30.8736-16.392534-10.112c-26.973867-42.496-35.6352-71.074133-40.789333-122.368 9.2928-8.106667 11.477333-22.766933 18.4576-32.529067 4.949333-6.929067 15.342933-15.2832 22.331733-20.497067 0.699733-0.520533 0.930133-2.346667 4.078934-4.078933z" fill="#F8DFC8" p-id="7766"></path><path d="M980.957867 664.8576c-1.706667 60.910933-52.061867 129.9968-97.8944 167.227733l-27.349334-11.392c-39.9872-3.114667-78.1568-17.8688-117.3504-21.0688l-18.449066 3.908267c-0.247467-0.418133-3.549867-0.017067-4.1984-5.8368-1.408-38.212267-11.912533-80.887467-34.722134-112.273067-5.4528-7.5008-13.576533-11.741867-18.176-20.573866-8.558933-16.392533-0.5632-12.9792 3.328-23.176534 1.962667-5.154133 0.494933-12.509867 4.829867-17.6128 8.021333 1.297067 23.953067 0.6912 32.631467 0l-19.242667 46.958934c3.063467 14.5664 17.024 26.385067 22.8096 37.162666 7.586133 14.114133 15.0784 42.0608 24.814933 52.6848 2.013867 2.2016 18.0736 14.728533 20.590934 16.119467 8.618667 4.770133 49.629867 16.4608 59.1104 16.810667 3.2512 0.119467 7.68-3.242667 12.194133-2.850134 29.585067 2.5856 42.786133 9.2416 71.313067-9.9584 11.4176-7.68 50.167467-39.057067 57.2928-48.759466 6.766933-9.207467 11.357867-25.105067 12.305066-36.608 0.878933-10.7264-2.688-53.2736-5.009066-64.6656-2.4832-12.1856-12.1856-22.3744-11.460267-35.447467 21.358933 20.0448 33.5104 38.058667 32.631467 69.341867z" fill="#F8E7D0" p-id="7767"></path><path d="M79.5392 758.673067l16.392533 10.112 18.568534 30.8736c13.3888 0.273067 27.042133-1.109333 40.413866-0.119467 4.864 0.3584 9.6768 3.831467 16.221867 4.1728 38.4512 2.005333 55.3728-6.3232 89.992533-12.330667 7.236267-1.2544 16.7168 2.141867 22.562134-1.902933l3.874133-14.481067 4.0704 16.3072c-3.976533 14.634667-9.8816 22.570667-20.317867 34.747734-14.592 17.024-34.193067 31.889067-49.006933 49.092266l-5.444267 1.365334c-48.042667-20.6592-95.752533-55.287467-126.967466-97.6128-4.983467-6.7584-7.458133-15.6416-10.368-20.224z" fill="#F8EEDC" p-id="7768"></path><path d="M883.063467 832.093867c-10.871467 8.832-25.984 19.4816-39.3728 27.9296-7.074133 4.462933-43.409067 25.864533-47.8976 24.8832-24.567467-26.325333-57.617067-50.414933-75.886934-81.3568l18.449067-3.908267c39.1936 3.2 77.3632 17.954133 117.3504 21.0688l27.349333 11.392z" fill="#F8F0DE" p-id="7769"></path><path d="M560.836267 950.3744H469.060267c-0.904533 0-2.3808-3.012267-4.770134-3.387733-5.794133-0.913067-14.4128 1.058133-17.664-2.722134l36.0704-49.5872 23.074134-50.3552 3.882666 16.520534 51.182934 89.540266z" fill="#F5EEDB" p-id="7770"></path><path d="M544.529067 721.9456l-12.416 5.956267-28.3648 47.069866c-4.0704-19.84-17.1776-35.2-28.535467-51.003733-2.474667-3.447467-5.777067-3.754667-4.104533-10.1632 15.394133 0.477867 27.383467-11.374933 38.749866-20.164267l34.670934 28.305067z" fill="#F4ECDA" p-id="7771"></path><path d="M779.562667 528.733867c0-45.755733-37.0944-82.850133-82.850134-82.850134s-82.850133 37.0944-82.850133 82.850134 37.0944 82.850133 82.850133 82.850133 82.850133-37.0944 82.850134-82.850133z m-18.850134-2.551467c-19.720533-2.474667-42.530133-13.841067-51.072-32.5632-5.000533-10.9568-3.319467-27.528533-14.190933-32.708267-2.645333 20.676267-8.661333 40.994133-27.0848 52.462934l-34.107733 14.830933c5.597867 6.971733 14.4384 6.519467 21.845333 10.786133 25.949867 14.941867 27.554133 26.427733 37.358933 52.394667 1.536 4.0704 0.4864 9.344 6.0416 8.200533 5.674667-26.5472 15.9744-50.312533 41.966934-62.037333 9.719467-4.386133 22.075733 0.853333 19.242666-11.3664z" fill="#543027" p-id="7772"></path><path d="M407.876267 528.989867c0-45.576533-36.949333-82.525867-82.525867-82.525867s-82.525867 36.949333-82.525867 82.525867 36.949333 82.525867 82.525867 82.525866 82.525867-36.949333 82.525867-82.525866z m-62.353067-19.985067c-3.063467-3.063467-12.9536-22.144-15.300267-27.528533-2.9952-6.869333 0.162133-18.0992-10.018133-20.565334-1.160533 8.712533-2.816 20.778667-5.956267 28.7232-10.052267 25.4208-30.933333 27.690667-51.1488 42.666667l25.941334 10.760533c17.962667 12.177067 26.9568 31.6672 31.163733 52.4544 13.4912-9.642667 12.612267-31.556267 24.4992-42.786133 8.379733-7.9104 28.885333-18.176 40.763733-18.397867 1.015467-8.661333 0.725333-6.647467-5.239466-8.917333-9.1648-3.498667-28.228267-9.9328-34.705067-16.401067z" fill="#573127" p-id="7773"></path><path d="M157.038933 185.6c0.059733-0.6912 3.626667-3.6096 4.138667-8.098133 2.389333-20.770133 1.6128-34.295467 10.077867-55.176534 19.3792-47.803733 49.544533-27.118933 79.419733-1.809066 8.541867 7.236267 35.584 35.191467 36.974933 44.637866 1.211733 8.200533-1.186133 5.077333-5.393066 6.869334-24.558933 10.453333-61.781333 38.528-82.474667 56.328533-10.683733 9.1904-19.6864 21.6576-30.506667 30.6688-4.130133 3.438933-5.230933 7.790933-12.2368 6.1184 1.553067-25.898667-2.1248-53.9136 0-79.5392z" fill="#F8C6B4" p-id="7774"></path><path d="M870.826667 269.218133c-7.0144 1.672533-8.106667-2.679467-12.2368-6.1184-23.415467-19.473067-44.936533-42.487467-69.512534-61.0048-7.406933-5.5808-47.735467-29.1328-48.768-32.827733-1.245867-5.154133 3.345067-6.980267 6.1184-10.171733 15.095467-17.390933 50.056533-52.701867 71.168-59.3408 40.789333-12.8256 46.6176 53.614933 49.8432 81.083733 0.273067 2.321067 3.396267 3.805867 3.396267 4.7616v83.618133z" fill="#F7C8B5" p-id="7775"></path><path d="M83.618133 579.208533c16.384-9.002667 38.903467-8.516267 57.105067-8.149333l-20.394667 24.465067c-8.2432 21.376-24.7808 39.842133-32.631466 61.184-5.495467 14.941867 8.183467 40.567467 18.4064 53.085866 1.979733 2.423467 19.268267 19.703467 22.254933 22.391467 1.6384 1.476267 29.474133 17.245867 31.3856 17.664 13.6448 3.003733 30.685867 1.032533 44.0832 0.989867 4.0448-0.008533 7.4752 3.217067 11.613867 2.9184 3.848533-0.2816 33.425067-6.980267 34.833066-8.081067 1.0752-0.8448 0.0512-4.864 1.408-6.306133 1.928533-2.056533 6.536533-2.295467 9.429334-4.983467 17.066667-15.9232 23.031467-29.696 29.525333-52.164267 5.265067-18.2272 13.755733-46.5408 2.116267-62.318933l2.9696-3.976533c1.288533 0.3072 2.798933-0.324267 4.078933 0l2.542933 3.626666 9.693867 0.452267c7.4752 1.1264 16.64-0.750933 24.4736 0-2.039467 0.546133-8.1664 7.441067-16.3072 4.113067-1.066667 12.450133 1.5104 26.487467-0.0768 38.647466-1.8432 14.097067-24.593067 64.221867-33.1264 77.0048-3.421867 5.128533-12.8768 15.650133-17.604267 19.106134-6.5792 4.8128-10.9312 2.679467-15.735466 4.6592-28.194133 11.6224-45.166933 19.2512-78.165334 15.453866-45.7216-5.265067-94.634667-49.109333-107.195733-92.6464-7.808-27.0592-1.348267-41.890133 7.995733-67.541333 4.334933-11.895467 18.7904-24.2688 7.3216-39.5776z" fill="#F7C8AE" p-id="7776"></path><path d="M331.0592 326.9888c39.978667-8.738133 94.464 17.390933 91.272533 62.702933-3.959467 56.209067-107.1104 39.611733-117.7856-8.9856-4.522667-20.590933 3.524267-48.699733 26.5216-53.725866z" fill="#F8EEDA" p-id="7777"></path><path d="M653.397333 327.108267c26.564267-4.497067 59.0336 0.298667 65.8432 30.446933 15.889067 70.365867-136.456533 101.2992-116.9408 12.2624 3.618133-16.4864 34.3552-39.876267 51.0976-42.717867z" fill="#F8EDD9" p-id="7778"></path><path d="M948.3264 595.515733c-0.7168 13.073067 8.977067 23.261867 11.460267 35.447467 2.321067 11.392 5.896533 53.9392 5.009066 64.6656-0.9472 11.502933-5.546667 27.400533-12.305066 36.608-7.125333 9.7024-45.8752 41.070933-57.2928 48.759467-28.526933 19.2-41.728 12.544-71.313067 9.9584-4.522667-0.392533-8.942933 2.9696-12.194133 2.850133-9.480533-0.3584-50.491733-12.040533-59.1104-16.810667-2.517333-1.390933-18.568533-13.917867-20.590934-16.119466-9.736533-10.624-17.237333-38.570667-24.814933-52.6848-5.794133-10.7776-19.746133-22.596267-22.8096-37.162667l19.242667-46.958933c3.720533-0.298667 11.255467-7.364267 18.082133-3.831467l2.312533 3.831467c-4.949333 10.666667-17.3824 33.911467-8.157866 40.789333v4.078933c-4.394667 1.570133-4.676267 5.495467-4.232534 9.915734 2.107733 20.923733 23.645867 65.297067 41.045334 77.6704 8.849067 6.289067 51.985067 21.009067 63.1808 22.468266 9.386667 1.220267 44.654933 1.7152 52.3776-0.512 9.762133-2.816 60.817067-44.817067 67.968-54.4 10.9824-14.728533 17.851733-39.304533 16.401066-57.3696-0.7424-9.309867-2.8672-22.7072-4.232533-32.4608-2.176-15.5136-16.580267-30.225067-8.174933-46.890666 5.495467 0.3072 6.1952 6.314667 8.157866 8.157866z" fill="#F8D9C0" p-id="7779"></path><path d="M940.168533 583.287467c-0.546133 1.083733 0.546133 2.9952 0 4.078933-8.413867 16.6656 5.998933 31.377067 8.174934 46.890667 1.365333 9.7536 3.490133 23.150933 4.232533 32.4608 1.450667 18.065067-5.418667 42.641067-16.401067 57.3696-7.150933 9.582933-58.205867 51.584-67.968 54.4-7.722667 2.2272-42.9824 1.7408-52.3776 0.512-11.204267-1.4592-54.331733-16.1792-63.1808-22.468267-17.408-12.373333-38.9376-56.746667-41.045333-77.6704-0.443733-4.4288-0.1536-8.3456 4.232533-9.915733 19.549867-3.7376 10.0096 9.8816 12.9024 21.777066 0.6656 2.7392 15.496533 31.837867 17.792 35.234134 2.491733 3.694933 26.274133 23.236267 28.996267 24.029866 4.693333 1.365333 10.308267-0.273067 15.1552 1.160534 3.438933 1.015467 5.674667 5.597867 9.5488 6.766933 45.806933 13.806933 95.138133-4.343467 123.707733-41.975467 17.954133-23.6544 11.818667-48.904533 11.511467-76.936533l-23.8336-63.863467c9.565867 2.602667 18.858667 6.101333 28.552533 8.157867z" fill="#F7CFB5" p-id="7780"></path><path d="M243.549867 518.135467a82.46272 82.46272 0 0 0 1.092266 28.023466l-24.516266 4.539734c-25.079467-2.286933-55.748267-2.218667-80.580267 4.8896l-15.1296 11.374933c11.5968-1.646933 20.113067 0.930133 30.762667 4.027733 5.9392 1.723733 7.048533-2.5088 5.947733 8.209067-12.014933-1.9712-21.265067 14.737067-28.561067 16.3328-3.490133 0.768-8.3712-0.512-12.2368 0l20.394667-24.465067c-18.2016-0.366933-40.721067-0.861867-57.105067 8.149334-3.1488 1.732267-3.3792 3.5584-4.078933 4.078933-7.330133-3.072-0.8192-20.411733 0.8448-25.659733 1.314133-4.113067 7.074133-17.826133 9.762133-19.4304 9.864533-0.708267 20.770133-9.5232 28.7744-11.383467 28.9792-6.741333 72.149333-15.146667 101.504-13.047467 8.0128 0.571733 14.293333 5.051733 23.125334 4.369067z" fill="#F5B076" p-id="7781"></path><path d="M296.2944 606.225067l-12.808533 1.544533v4.061867c6.766933-2.807467 11.562667 3.933867 12.228266 4.087466l-2.9696 3.976534c11.639467 15.786667 3.157333 44.091733-2.116266 62.318933-6.493867 22.468267-12.458667 36.2496-29.525334 52.164267-2.884267 2.696533-7.5008 2.935467-9.429333 4.983466-1.3568 1.442133-0.3328 5.461333-1.408 6.306134-1.408 1.1008-30.984533 7.799467-34.833067 8.081066-4.138667 0.298667-7.569067-2.926933-11.613866-2.9184-13.397333 0.042667-30.446933 2.013867-44.0832-0.989866-1.911467-0.418133-29.7472-16.187733-31.3856-17.664-2.986667-2.688-20.2752-19.968-22.254934-22.391467-10.222933-12.5184-23.901867-38.144-18.4064-53.085867l10.769067 7.586134 5.546667 0.571733c-0.768 4.693333 0.0768 7.936 2.039466 12.1856 2.312533 5.000533 18.082133 26.146133 22.357334 30.711467 9.079467 9.7024 38.468267 28.612267 51.063466 30.5152 13.141333 1.979733 22.656-2.167467 33.390934-3.182934 3.882667-0.366933 7.355733 2.9696 10.8544 2.525867 11.460267-1.442133 36.821333-24.328533 42.692266-34.7648 12.6464-22.5024 17.629867-66.312533 8.917334-91.016533 1.629867-2.8672-0.324267-11.460267 7.936-11.869867 4.155733 2.466133 8.516267 4.5568 13.0304 6.254933z" fill="#F5B296" p-id="7782"></path><path d="M940.168533 583.287467c-9.693867-2.056533-18.986667-5.5552-28.552533-8.157867-11.502933-3.131733-14.805333-4.164267-28.552533-4.078933l-2.4064-3.626667c-5.632-0.366933-12.6208-1.3568-17.988267-0.452267l-16.170667-10.3424-67.473066-18.449066c1.237333-10.8032 0.341333-21.751467-2.653867-32.213334 7.918933 5.060267 14.1824-1.134933 22.920533-0.256 32.494933 3.293867 65.015467 19.464533 93.184 33.493334 20.036267 9.975467 38.203733 13.226667 51.473067 34.338133l0.059733 7.406933c-0.64 2.244267-3.7376 2.1248-3.831466 2.3296z" fill="#F4AE73" p-id="7783"></path><path d="M744.849067 596.1728l7.2448 3.933867 0.452266 7.645866c-5.8624 11.118933-10.1632 24.644267-16.315733 36.7104-3.293867 6.459733-7.330133 12.757333-8.430933 20.138667l-11.963734 0.256c-9.224533-6.877867 3.208533-30.122667 8.157867-40.789333 2.218667-4.795733 11.477333-10.299733 8.1408-20.437334 4.4544-2.107733 8.712533-4.608 12.7232-7.466666z" fill="#E7473D" p-id="7784"></path><path d="M312.029867 619.989333l-9.693867-0.452266-2.542933-3.626667c5.5296 1.399467 11.537067 3.976533 12.2368 4.078933z" fill="#F5B296" p-id="7785"></path><path d="M760.712533 526.1824c2.8416 12.219733-9.5232 6.980267-19.242666 11.3664-25.992533 11.733333-36.292267 35.498667-41.966934 62.037333-5.5552 1.143467-4.497067-4.130133-6.0416-8.200533-9.8048-25.9584-11.409067-37.4528-37.358933-52.394667-7.406933-4.266667-16.247467-3.8144-21.845333-10.786133l34.107733-14.830933c18.423467-11.4688 24.430933-31.786667 27.0848-52.462934 10.871467 5.179733 9.1904 21.751467 14.190933 32.708267 8.541867 18.7136 31.351467 30.088533 51.072 32.5632z" fill="#F4ECDB" p-id="7786"></path><path d="M779.025067 538.180267l67.473066 18.449066 16.170667 10.3424c-0.3072 0.0512-0.913067 2.9696-2.9184 3.328-28.2112 5.0688-64.878933 10.786133-86.818133 29.294934-3.780267-0.238933-14.762667-0.836267-15.957334 0.4096 0.64 4.471467-3.720533 6.391467-4.437333 7.748266l-0.452267-7.645866-7.2448-3.933867a82.82624 82.82624 0 0 0 34.176-57.992533z" fill="#F09666" p-id="7787"></path><path d="M132.565333 595.515733c7.296-1.595733 16.5376-18.304 28.561067-16.3328 1.1008-10.717867 0-6.4768-5.947733-8.209066-10.6496-3.089067-19.165867-5.674667-30.762667-4.027734l15.1296-11.374933c24.832-7.108267 55.509333-7.176533 80.580267-4.8896l24.516266-4.539733a82.469547 82.469547 0 0 0 22.459734 41.2672c-5.316267 10.794667-10.8032 21.725867-16.247467 32.5632l-20.394667-12.2368c6.126933-13.9008 4.753067-21.9136-12.194133-20.386134 1.604267 7.8848-6.357333 12.663467-8.200533 16.3072-9.233067-10.197333-15.453867-4.053333-24.4736-8.157866-0.366933-0.162133-0.443733-3.0208-2.4576-3.6608-8.6272-2.7648-15.0528 0.785067-19.950934 7.765333l-26.2144 62.728533c1.28 4.795733 7.637333 6.1184 7.842134 6.587734 0.836267 1.928533-0.8704 7.108267 1.962666 12.194133 3.242667 5.819733 14.062933 12.1856 18.321067 18.500267 28.740267 2.901333 39.0144 19.831467 65.194667-0.2816 20.923733-16.068267 13.2352-22.3488 20.565333-42.658134 2.184533-6.0416 7.133867-9.9584 8.157867-12.2368 13.892267 12.6464 5.632 38.007467-3.9936 51.072-19.1232 25.941333-52.369067 41.412267-83.054934 25.787734-20.036267-10.197333-48.904533-34.577067-47.786666-58.589867 0.580267-12.5184 14.0288-25.6768 0.238933-34.5856 0.580267-1.1008-0.324267-3.515733 0.733867-5.512533 4.992-9.361067 16.341333-16.162133 7.424-27.118934z" fill="#F19674" p-id="7788"></path><path d="M345.5232 509.0048c6.4768 6.4768 25.540267 12.910933 34.705067 16.401067 5.9648 2.2784 6.254933 0.256 5.239466 8.917333-11.8784 0.2304-32.384 10.487467-40.763733 18.397867-11.895467 11.229867-11.008 33.143467-24.4992 42.786133-4.215467-20.7872-13.2096-40.277333-31.163733-52.4544l-25.941334-10.760533c20.215467-14.976 41.096533-17.245867 51.1488-42.666667 3.140267-7.936 4.795733-20.002133 5.956267-28.7232 10.180267 2.466133 7.022933 13.696 10.018133 20.565333 2.346667 5.384533 12.2368 24.465067 15.300267 27.528534z" fill="#F4EBDB" p-id="7789"></path><path d="M283.264 599.9616c-8.260267 0.4096-6.314667 9.002667-7.936 11.869867-6.8608 12.1088-10.581333 19.874133-16.315733 32.631466-1.024 2.2784-5.973333 6.1952-8.157867 12.2368-3.336533 3.268267-9.361067 2.7392-12.2368 4.078934l-4.078933-12.2368c7.6032-7.432533 11.554133-19.072 16.315733-28.552534 5.444267-10.837333 10.9312-21.768533 16.247467-32.5632a82.5088 82.5088 0 0 0 16.162133 12.535467z" fill="#E94A3E" p-id="7790"></path><path d="M132.565333 595.515733c8.917333 10.9568-2.432 17.757867-7.424 27.118934-1.058133 1.9968-0.1536 4.411733-0.733866 5.512533-5.137067 9.7024-18.688 26.2912-20.394667 36.7104l-5.546667-0.571733-10.769066-7.586134c7.850667-21.341867 24.379733-39.808 32.631466-61.184 3.857067-0.512 8.746667 0.768 12.2368 0z" fill="#E95242" p-id="7791"></path><path d="M883.063467 571.050667c13.7472-0.085333 17.0496 0.9472 28.552533 4.078933l23.8336 63.863467c0.3072 28.032 6.442667 53.282133-11.511467 76.936533-28.5696 37.632-77.909333 55.7824-123.707733 41.975467-3.874133-1.169067-6.109867-5.742933-9.5488-6.766934-4.846933-1.4336-10.453333 0.2048-15.1552-1.160533-2.722133-0.7936-26.496-20.334933-28.996267-24.029867-2.295467-3.387733-17.1264-32.494933-17.792-35.234133-2.8928-11.886933 6.647467-25.506133-12.9024-21.777067v-4.078933l11.963734-0.256c1.1008-7.381333 5.137067-13.678933 8.430933-20.138667 15.3856 5.418667 4.087467 15.189333 4.113067 22.442667 0.034133 9.864533 12.194133 38.075733 18.423466 46.788267 2.466133 3.456 19.7888 21.4272 22.2208 22.647466 7.552 3.797333 14.976 0.4608 21.981867 2.491734 3.490133 1.015467 5.742933 5.956267 9.2928 7.022933 12.322133 3.703467 51.234133-3.157333 63.982933-8.285867 1.5616-0.631467 24.763733-18.926933 26.368-20.539733 1.646933-1.646933 2.141867-6.2976 4.727467-9.4208 2.909867-3.524267 8.695467-6.698667 10.453333-10.0608 11.9808-22.903467 3.5584-74.2656-10.794666-95.479467-3.1488-4.6592-5.700267-4.676267-7.620267-6.5536-1.152-1.1264-3.771733-3.874133-4.078933-4.078933-10.1632-6.741333-24.234667-5.367467-32.622934-18.3552 4.1984-4.010667 14.404267-1.9968 20.386134-2.030933z" fill="#F6BB9E" p-id="7792"></path><path d="M104.0128 664.8576c1.706667-10.4192 15.2576-27.008 20.394667-36.7104 13.789867 8.9088 0.341333 22.0672-0.238934 34.5856-1.117867 24.0128 27.758933 48.384 47.786667 58.589867 30.685867 15.624533 63.940267 0.1536 83.054933-25.787734 9.6256-13.064533 17.8944-38.4256 3.9936-51.072 5.7344-12.757333 9.454933-20.522667 16.315734-32.631466 8.712533 24.704 3.729067 68.5056-8.917334 91.016533-5.8624 10.436267-31.232 33.314133-42.692266 34.7648-3.498667 0.443733-6.971733-2.8928-10.8544-2.525867-10.734933 1.015467-20.2496 5.1712-33.390934 3.182934-12.5952-1.902933-41.984-20.8128-51.063466-30.5152-4.2752-4.565333-20.0448-25.710933-22.357334-30.711467-1.9712-4.258133-2.807467-7.5008-2.039466-12.1856z" fill="#F3A387" p-id="7793"></path><path d="M883.063467 571.050667c-5.9904 0.034133-16.187733-1.9712-20.386134 2.030933 8.388267 12.996267 22.468267 11.613867 32.622934 18.3552-16.324267-3.3536-19.217067 14.148267-24.4736 24.4736-10.410667-4.4032-15.342933-15.496533-16.785067-26.146133l-3.6096-2.4064c-6.6816-1.8176-11.3152 2.653867-16.315733 4.078933-3.0976 0.887467-7.031467-0.964267-12.228267 1.954133-3.4816 1.954133-14.3104 16.785067-16.315733 14.370134l-0.622934-9.617067c-0.145067-2.688-2.679467-1.954133-3.464533-2.628267-2.013867-1.723733-6.877867-4.189867-9.847467-3.933866-1.6384 0.426667-9.429333 10.026667-10.5472 12.091733l-2.423466-3.6352c-1.8688-0.7936-3.822933-0.324267-5.7344-0.443733 21.9392-18.5088 58.5984-24.226133 86.818133-29.294934 2.005333-0.3584 2.6112-3.2768 2.9184-3.328 5.367467-0.904533 12.3648 0.0768 17.988267 0.452267l2.4064 3.626667z" fill="#F09D7F" p-id="7794"></path><path d="M899.3792 595.515733c1.92 1.877333 4.471467 1.902933 7.620267 6.5536 14.3616 21.213867 22.775467 72.576 10.794666 95.479467-1.757867 3.362133-7.543467 6.545067-10.453333 10.0608-2.5856 3.131733-3.080533 7.773867-4.727467 9.4208-1.604267 1.604267-24.8064 19.908267-26.368 20.539733-12.7488 5.128533-51.6608 11.989333-63.982933 8.285867-3.549867-1.066667-5.8112-6.007467-9.2928-7.022933-7.005867-2.030933-14.429867 1.3056-21.981867-2.491734-2.432-1.220267-19.754667-19.191467-22.2208-22.647466-6.229333-8.721067-18.389333-36.923733-18.423466-46.788267-0.0256-7.253333 11.272533-17.024-4.113067-22.442667 6.152533-12.066133 10.453333-25.591467 16.315733-36.7104 0.7168-1.3568 5.077333-3.268267 4.437334-7.748266 1.194667-1.245867 12.177067-0.648533 15.957333-0.4096 1.92 0.119467 3.8656-0.349867 5.7344 0.443733l2.423467 3.6352c-4.096 7.6288-22.459733 45.585067-23.8336 51.6096-2.858667 12.484267 2.926933 14.8224 3.438933 17.732267 0.238933 1.3568-5.640533 7.2448-3.746133 13.6448 0.836267 2.816 4.497067 4.5568 5.597866 6.9632 1.834667 4.010667 2.338133 8.891733 4.292267 11.997866 1.373867 2.193067 19.4816 16.657067 22.434133 18.346667 18.363733 10.504533 55.227733 13.7984 74.5728 5.2992 9.762133-4.292267 43.400533-33.629867 47.061334-42.666667 0.8448-2.0992 3.7888-14.173867 3.968-16.384 0.349867-4.3776-2.9184-7.799467-3.1488-11.562666-0.861867-14.2336-0.554667-25.787733-4.9664-39.927467-1.646933-5.2736-6.382933-6.0672-7.389867-15.0528-0.298667-2.6624 0.2048-5.469867 0-8.157867z" fill="#F1AE91" p-id="7795"></path><path d="M210.065067 603.6736c-1.0752 2.133333-0.8448 6.877867-3.140267 10.999467-4.155733 7.4752-22.536533 33.1776-21.102933 39.543466l9.9584 10.615467c2.389333 0.017067 16.3328-20.693333 18.3552-24.456533l2.56 3.4304 17.834666 4.727466 4.078934 12.2368c-11.0336 5.1456-9.028267 16.136533-16.290134 22.459734-14.173867 12.347733-45.508267 5.3504-55.04-10.2656-3.259733-5.333333-1.408-14.609067-10.248533-16.264534l28.552533-61.184c9.019733 4.104533 15.232-2.039467 24.4736 8.157867z" fill="#F16F57" p-id="7796"></path><path d="M238.6176 660.778667c2.875733-1.339733 8.900267-0.810667 12.2368-4.078934-7.330133 20.309333 0.349867 26.581333-20.565333 42.658134-26.180267 20.113067-36.4544 3.1744-65.194667 0.2816-4.258133-6.314667-15.0784-12.680533-18.321067-18.500267-2.833067-5.085867-1.134933-10.2656-1.962666-12.194133l12.2368-12.2368c8.840533 1.655467 6.9888 10.9312 10.248533 16.264533 9.531733 15.616 40.866133 22.613333 55.04 10.2656 7.261867-6.3232 5.256533-17.314133 16.290133-22.459733z" fill="#F18165" p-id="7797"></path><path d="M185.591467 595.515733l-28.552534 61.184-12.2368 12.2368c-0.2048-0.469333-6.5536-1.792-7.842133-6.587733l26.2144-62.728533c4.898133-6.980267 11.323733-10.530133 19.950933-7.765334 2.013867 0.648533 2.090667 3.498667 2.4576 3.6608z" fill="#EB443A" p-id="7798"></path><path d="M230.459733 607.752533c-3.4048 7.722667-11.946667 24.4992-16.315733 32.631467-2.0224 3.754667-15.965867 24.4736-18.3552 24.456533l-9.9584-10.615466c-1.442133-6.365867 16.9472-32.068267 21.102933-39.543467 2.286933-4.130133 2.056533-8.874667 3.140267-10.999467 1.8432-3.643733 9.8048-8.4224 8.200533-16.3072 16.938667-1.527467 18.312533 6.485333 12.194134 20.386134z" fill="#EA4B3E" p-id="7799"></path><path d="M250.8544 619.989333c-4.7616 9.472-8.712533 21.12-16.315733 28.552534l-17.834667-4.727467-2.56-3.4304c4.369067-8.132267 12.910933-24.900267 16.315733-32.631467l20.394667 12.2368z" fill="#F18165" p-id="7800"></path><path d="M895.300267 591.4368c0.3072 0.2048 2.926933 2.952533 4.078933 4.078933 0.2048 2.688-0.298667 5.495467 0 8.157867-7.287467 2.030933-6.101333 12.253867-8.157867 16.315733-6.1952 12.219733-11.3152 17.928533-16.315733 32.631467-10.7008 8.328533-11.1616 10.052267-20.164267-2.474667-0.776533-3.4304 12.996267-28.16 16.085334-34.235733 5.256533-10.325333 8.149333-27.8272 24.4736-24.4736z" fill="#EB4136" p-id="7801"></path><path d="M760.704 673.015467c5.333333-1.937067 8.6272-3.464533 12.2368-8.157867 7.68 3.566933 2.6624 14.8224 4.650667 21.8624 0.8448 2.986667 10.897067 16.349867 14.165333 18.466133 15.061333 9.728 52.1728 11.835733 68.1216 3.780267 6.519467-3.293867 33.083733-24.5504 34.858667-30.404267 2.0224-6.6816 5.563733-29.525333 4.667733-36.138666-1.109333-8.192-8.405333-13.8752-8.174933-22.434134 2.056533-4.061867 0.8704-14.2848 8.157866-16.315733 1.006933 8.9856 5.742933 9.7792 7.389867 15.0528 4.411733 14.139733 4.104533 25.693867 4.9664 39.927467 0.2304 3.754667 3.498667 7.185067 3.1488 11.562666-0.1792 2.210133-3.114667 14.2848-3.968 16.384-3.652267 9.0368-37.290667 38.3744-47.061333 42.666667-19.3536 8.4992-56.209067 5.205333-74.5728-5.2992-2.961067-1.6896-21.060267-16.162133-22.434134-18.346667-1.954133-3.114667-2.4576-7.995733-4.292266-11.997866-1.1008-2.4064-4.770133-4.1472-5.597867-6.9632-1.8944-6.4 3.985067-12.279467 3.746133-13.6448z" fill="#F39D80" p-id="7802"></path><path d="M801.4848 595.515733c1.8432 8.994133-1.604267 14.276267-4.727467 21.794134-4.573867 10.990933-17.4592 39.2704-23.825066 47.547733-3.6096 4.693333-6.903467 6.2208-12.2368 8.157867-0.512-2.909867-6.2976-5.239467-3.438934-17.732267 1.373867-6.024533 19.7376-43.9808 23.8336-51.6096 1.109333-2.0736 8.9088-11.665067 10.5472-12.091733 2.978133-0.247467 7.8336 2.210133 9.847467 3.933866z" fill="#E65043" p-id="7803"></path><path d="M834.116267 591.4368c-4.599467 20.352-18.653867 38.1184-27.869867 55.927467-1.655467 3.191467 0 7.773867-0.682667 9.335466-0.529067 1.220267-9.480533 1.553067-8.3712 14.318934 2.500267 28.5952 67.387733 24.337067 77.038934-9.0368 1.024-3.5584 0.059733-7.569067 0.674133-9.361067 5.000533-14.702933 10.120533-20.411733 16.315733-32.631467-0.2304 8.558933 7.0656 14.242133 8.174934 22.434134 0.896 6.613333-2.645333 29.457067-4.667734 36.138666-1.7664 5.853867-28.3392 27.1104-34.858666 30.404267-15.9488 8.055467-53.060267 5.947733-68.1216-3.780267-3.268267-2.107733-13.320533-15.479467-14.165334-18.466133-1.988267-7.04 3.029333-18.295467-4.650666-21.8624 6.365867-8.277333 19.2512-36.5568 23.825066-47.547733 3.1232-7.517867 6.562133-12.8 4.727467-21.794134 0.785067 0.674133 3.319467-0.068267 3.464533 2.628267l0.622934 9.617067c2.005333 2.414933 12.834133-12.416 16.315733-14.370134 5.1968-2.9184 9.130667-1.066667 12.228267-1.954133z" fill="#F08367" p-id="7804"></path><path d="M870.826667 615.9104c-3.089067 6.0672-16.861867 30.805333-16.085334 34.235733 9.002667 12.526933 9.463467 10.811733 20.164267 2.474667-0.605867 1.792 0.3584 5.8112-0.674133 9.361067-9.6512 33.373867-74.538667 37.632-77.038934 9.0368-1.117867-12.765867 7.8336-13.098667 8.3712-14.318934l16.3072 8.157867c6.8096-26.8032 29.294933-48.494933 28.561067-77.499733l3.6096 2.4064c1.442133 10.6496 6.3744 21.742933 16.785067 26.146133z" fill="#EF6F57" p-id="7805"></path><path d="M850.432 587.357867c0.725333 29.0048-21.76 50.696533-28.561067 77.499733l-16.3072-8.157867c0.682667-1.5616-0.964267-6.144 0.682667-9.335466 9.207467-17.800533 23.2704-35.575467 27.869867-55.927467 5.000533-1.425067 9.634133-5.896533 16.315733-4.078933z" fill="#E9473B" p-id="7806"></path></svg>