<?xml version="1.0" standalone="no"?><!DOCTYPE svg PUBLIC "-//W3C//DTD SVG 1.1//EN" "http://www.w3.org/Graphics/SVG/1.1/DTD/svg11.dtd"><svg t="1772951624220" class="icon" viewBox="0 0 1024 1024" version="1.1" xmlns="http://www.w3.org/2000/svg" p-id="8150" xmlns:xlink="http://www.w3.org/1999/xlink" width="200" height="200"><path d="M676.3776 640.674133c0.341333 0.093867 0.392533 3.387733 5.819733 4.138667 13.073067 1.8176 29.2608-1.4336 42.837334-0.085333-10.1376 21.521067-26.7264 46.148267-24.260267 70.869333 4.573867 45.7984 27.963733 96.426667 72.772267 113.774933 54.5024 21.102933 90.555733-2.6624 143.889066-5.998933l2.363734-8.2176 7.978666 3.933867c-3.592533 7.6544-10.820267 12.2368-16.401066 18.184533-134.9632 143.8208-415.1296 166.331733-595.985067 113.706667-86.212267-25.088-172.228267-68.5824-226.961067-140.0064l29.568 4.898133c38.9888 14.7712 78.9248 32.554667 120.6016 17.553067 51.515733-18.542933 93.883733-74.7776 92.962134-129.8176-0.0512-3.0976-2.7648-6.178133-3.003734-8.951467-0.315733-3.754667 2.653867-6.980267 2.3296-10.692267-1.245867-14.327467-18.321067-27.741867-27.554133-39.236266h8.106667c75.511467 0.068267 73.335467-29.115733 126.941866-57.5488 44.1088-23.3984 95.1296-26.3936 140.765867-5.384534 36.369067 16.7424 53.469867 47.2832 97.2288 58.88zM526.336 689.3312c34.218667 2.2016 76.612267-44.7744 48.8192-75.170133-26.222933-28.672-117.947733-26.7264-133.418667 17.041066-5.367467 24.405333 32.2048 58.222933 56.2432 58.1376 1.6896 26.274133-42.4704 32.008533-62.190933 27.707734-5.444267-1.186133-18.7392-10.734933-21.051733-15.445334-4.548267-9.284267 1.348267-21.640533-12.279467-28.407466l-14.139733 14.071466c0.110933 30.5408 20.923733 47.470933 48.580266 55.031467 0.273067 25.813333-1.015467 58.9312 14.5408 80.7424 21.000533 29.44 57.4208 39.944533 91.281067 26.615467 16.657067-6.5536 32.315733-26.026667 38.510933-42.589867 7.8592-21.009067 5.6832-42.769067 6.186667-64.768 28.398933-5.725867 66.858667-44.228267 38.314667-68.8128-18.3296 6.0928-11.332267 13.44-14.7712 25.4464-3.208533 11.1872-26.9824 22.775467-37.981867 22.792533-13.166933 0.0256-51.498667-14.097067-46.6432-32.392533z" fill="#F9F0DD" p-id="8151"></path><path d="M923.716267 596.0704c35.9168 4.744533 68.1472 45.883733 68.932266 81.1008 0.964267 43.460267-32.0768 113.143467-64.878933 141.917867l-7.978667-3.933867-2.363733 8.2176c-53.341867 3.336533-89.386667 27.101867-143.889067 5.998933-44.8-17.348267-68.1984-67.985067-72.772266-113.774933-2.466133-24.712533 14.122667-49.339733 24.260266-70.869333v-4.053334c7.304533-0.546133 13.397333-1.8688 20.2752-4.053333 8.644267 2.312533-0.1792 11.861333-2.056533 16.187733-14.071467 32.384-20.718933 58.478933-8.226133 93.431467 6.024533 16.8448 36.3776 56.251733 53.521066 60.014933 6.1952 1.365333 12.578133 0.110933 18.8416 1.4336 5.614933 1.186133 13.098667 6.2464 17.681067 6.6304 7.3984 0.6144 56.618667-9.565867 67.584-12.1088 7.0912-1.646933 30.0032-15.982933 35.2768-21.486933 15.581867-16.264533 35.524267-66.491733 31.496533-88.593067-1.8432-10.112-15.300267-53.162667-20.010666-61.073066-6.357333-10.683733-23.074133-25.770667-35.985067-26.888534-3.933867-11.8272 12.9792-9.053867 20.283733-8.0896z" fill="#F9EBD5" p-id="8152"></path><path d="M108.6976 596.0704c1.3312-0.136533 2.7136 0.0768 4.053333 0-1.373867 8.840533-12.1088 9.745067-15.377066 13.0048-4.616533 4.608-10.5984 20.736-15.1296 27.4432-10.9056 16.1536-24.832 21.589333-22.135467 46.6432 2.935467 27.3152 10.6752 44.100267 8.072533 73.207467-1.3824 15.4624 10.1632 33.2544 22.775467 41.9328 26.0096-3.2512 50.1504 16.059733 73.258667 20.002133 32.494933 5.546667 67.524267 1.365333 94.344533-17.646933 18.5344-13.141333 35.549867-36.104533 44.0064-57.3696 9.198933-23.1168 8.072533-48.256-0.119467-71.3216-4.1216-11.5968-12.509867-19.848533-15.325866-31.3088 4.0448 0.119467 8.123733-0.170667 12.168533 0 0.0256 2.7904 3.328 3.1488 4.053333 4.053333 9.233067 11.4944 26.308267 24.9088 27.554134 39.236267 0.324267 3.712-2.645333 6.929067-2.3296 10.692266 0.238933 2.773333 2.952533 5.853867 3.003733 8.951467 0.9216 55.04-41.4464 111.274667-92.962133 129.8176-41.6768 15.0016-81.6128-2.781867-120.6016-17.553067l-29.568-4.898133c-0.494933-0.648533-3.848533-1.194667-5.9136-4.061867-21.930667-30.455467-52.923733-92.305067-50.858667-129.749333 2.2016-39.893333 37.2224-77.141333 77.038933-81.1008z" fill="#F7EBD7" p-id="8153"></path><path d="M923.716267 596.0704c-7.296-0.964267-24.2176-3.729067-20.283734 8.0896 12.910933 1.117867 29.6192 16.213333 35.985067 26.888533 4.7104 7.9104 18.167467 50.961067 20.010667 61.073067 4.027733 22.101333-15.914667 72.328533-31.496534 88.593067-5.2736 5.504-28.194133 19.84-35.2768 21.486933-10.965333 2.542933-60.1856 12.7232-67.584 12.1088-4.5824-0.384-12.066133-5.435733-17.681066-6.6304-6.263467-1.322667-12.6464-0.068267-18.8416-1.4336-17.143467-3.771733-47.496533-43.170133-53.521067-60.014933-12.501333-34.952533-5.845333-61.047467 8.226133-93.431467 1.877333-4.3264 10.7008-13.883733 2.056534-16.187733 14.293333-4.539733 33.092267-14.344533 48.657066-20.2752 13.2608-0.878933 8.644267 2.176 1.3824 7.466666-9.1648 6.6816-18.7648 13.661867-25.147733 23.509334-4.642133 7.159467-16.452267 36.6848-16.9472 44.2112-0.213333 3.2768 3.720533 23.185067 4.923733 27.502933 14.1568 50.8416 54.775467 71.424 105.966934 62.7712 17.698133-2.9952 58.282667-33.2544 63.061333-50.474667 1.4336-5.162667-0.213333-10.666667 0.6656-15.547733 3.191467-17.604267 3.515733-29.7472-0.750933-48.1024-2.798933-12.023467-12.228267-20.360533-19.8144-28.962133-2.756267-3.1232-3.140267-8.0896-4.5824-9.480534-2.978133-2.858667-30.353067-17.800533-37.077334-21.8112-6.0928-3.6352-13.149867-0.759467-10.8544-11.3664 17.015467-3.157333 29.124267-4.113067 46.6176-4.0448 6.638933 0.0256 18.944-2.961067 22.314667 4.0448z" fill="#FADEC4" p-id="8154"></path><path d="M854.784 596.0704c-2.286933 10.606933 4.7616 7.722667 10.8544 11.3664 6.724267 4.010667 34.0992 18.952533 37.077333 21.8112 1.442133 1.3824 1.826133 6.357333 4.5824 9.480533 7.586133 8.6016 17.015467 16.938667 19.8144 28.962134 4.266667 18.3552 3.9424 30.498133 0.750934 48.1024-0.887467 4.8896 0.759467 10.385067-0.6656 15.547733-4.778667 17.220267-45.3632 47.479467-63.061334 50.474667-51.191467 8.6528-91.810133-11.9296-105.966933-62.7712-1.2032-4.317867-5.137067-24.226133-4.923733-27.502934 0.494933-7.5264 12.305067-37.051733 16.9472-44.2112 6.391467-9.847467 15.982933-16.827733 25.147733-23.509333 7.261867-5.290667 11.869867-8.3456-1.3824-7.466667 20.48-7.799467 38.536533-16.136533 60.8256-20.2752z m-51.857067 141.056c3.268267 3.2768 21.12 11.306667 26.299734 12.228267 22.289067 3.9424 53.845333-1.262933 64.119466-23.492267 2.261333-4.881067 10.1376-26.786133 10.171734-30.4896s-12.885333-33.066667-16.136534-36.616533c-17.749333-19.387733-52.599467-30.993067-75.264-14.114134-27.0592 20.155733-30.805333 49.058133-17.339733 78.318934 1.066667 2.3296 7.253333 13.277867 8.149333 14.165333z" fill="#F9CEB2" p-id="8155"></path><path d="M278.997333 636.612267c-13.499733-1.3312-7.364267 3.310933-4.676266 10.752 15.163733 41.9328 20.224 71.185067-5.563734 110.788266-4.795733 7.3728-25.258667 29.1328-33.006933 31.872-3.2768 1.160533-7.569067 0.3072-10.683733 1.4848-20.573867 7.7824-38.084267 10.496-60.834134 6.5024-9.582933-1.681067-16.4608-9.216-21.700266-10.734933-4.8128-1.399467-10.1632 0.128-14.976-1.245867-1.28-0.366933-20.693333-11.9808-22.843734-13.6448-21.956267-16.930133-18.193067-48.64-24.669866-72.840533-0.7424-15.010133 22.749867-65.109333 32.631466-77.192533 8.9856-10.9824 26.9824-18.3552 40.618667-22.237867 1.032533-6.6816-5.461333-3.899733-10.112-4.0448-9.898667-0.3072-20.625067-0.554667-30.429867 0-1.348267 0.0768-2.722133-0.136533-4.053333 0 3.387733-7.04 15.6416-3.976533 22.314667-4.0448 50.414933-0.512 79.581867 14.993067 123.5968 34.517333 9.028267 4.002133 15.325867 4.6592 24.388266 10.077867z m-41.386666 120.8064c1.664-1.681067 2.141867-6.254933 4.701866-9.361067 3.797333-4.599467 8.482133-6.664533 11.5968-12.859733 3.191467-6.340267 7.133867-25.207467 7.8336-32.5888 0.5888-6.2208-2.389333-32.981333-3.669333-38.9888-0.682667-3.208533-11.357867-24.4992-13.525333-27.025067-9.147733-10.6752-24.9344-9.8048-35.822934-12.834133-5.819733-1.6128-9.915733-6.434133-16.904533-7.424-15.9232-2.2528-37.026133 1.220267-50.594133 10.231466-17.117867 11.374933-37.981867 48.7424-40.558934 68.8896-5.307733 41.361067 31.906133 75.682133 70.7072 79.189334 8.6016 0.776533 33.066667 1.288533 40.1408-0.750934 1.4848-0.426667 25.002667-15.3856 26.094934-16.4864z" fill="#FAD7BE" p-id="8156"></path><path d="M112.750933 596.0704c9.8048-0.554667 20.5312-0.3072 30.429867 0 4.650667 0.145067 11.144533-2.6368 10.112 4.0448-13.636267 3.882667-31.633067 11.255467-40.618667 22.237867-9.8816 12.0832-33.373867 62.1824-32.631466 77.192533 6.4768 24.200533 2.705067 55.9104 24.669866 72.840533 2.158933 1.664 21.563733 13.277867 22.843734 13.6448 4.8128 1.373867 10.1632-0.1536 14.976 1.245867 5.239467 1.518933 12.117333 9.053867 21.700266 10.734933 22.749867 3.9936 40.2688 1.28 60.834134-6.5024 3.114667-1.1776 7.406933-0.324267 10.683733-1.4848 7.748267-2.730667 28.2112-24.4992 33.006933-31.872 25.787733-39.6032 20.727467-68.864 5.563734-110.788266-2.696533-7.4496-8.823467-12.091733 4.676266-10.752 2.551467 1.518933 5.5296 2.5344 8.106667 4.053333 2.816 11.460267 11.204267 19.712 15.325867 31.3088 8.200533 23.0656 9.3184 48.2048 0.119466 71.3216-8.456533 21.265067-25.472 44.228267-44.0064 57.3696-26.820267 19.012267-61.8496 23.1936-94.344533 17.646933-23.108267-3.950933-47.249067-23.253333-73.258667-20.002133-12.612267-8.6784-24.157867-26.4704-22.775466-41.9328 2.602667-29.1072-5.137067-45.892267-8.072534-73.207467-2.696533-25.053867 11.229867-30.4896 22.135467-46.6432 4.5312-6.715733 10.513067-22.8352 15.1296-27.4432 3.268267-3.259733 14.0032-4.164267 15.377067-13.0048z" fill="#FAE3CB" p-id="8157"></path><path d="M526.336 689.3312c-4.855467 18.295467 33.476267 32.4096 46.6432 32.392533 10.999467-0.017067 34.773333-11.605333 37.981867-22.792533 3.438933-12.0064-3.5584-19.362133 14.7712-25.4464 28.544 24.584533-9.915733 63.086933-38.314667 68.8128-0.503467 21.998933 1.672533 43.758933-6.186667 64.768-6.1952 16.554667-21.845333 36.027733-38.510933 42.589867-33.860267 13.329067-70.280533 2.824533-91.281067-26.615467-15.556267-21.802667-14.267733-54.920533-14.5408-80.7424-27.656533-7.560533-48.469333-24.490667-48.580266-55.031467l14.139733-14.071466c13.627733 6.766933 7.7312 19.1232 12.279467 28.407466 2.304 4.7104 15.607467 14.2592 21.051733 15.445334 19.720533 4.3008 63.889067-1.4336 62.190933-27.707734-24.0384 0.085333-61.610667-33.723733-56.2432-58.1376 15.470933-43.767467 107.195733-45.713067 133.418667-17.041066 27.793067 30.395733-14.609067 77.371733-48.8192 75.170133z m-4.0448 36.488533v58.794667c0 5.469867-14.737067 7.389867-20.2752 6.084267v-60.8256l-40.354133 12.3648c-5.486933 42.205867 5.418667 95.505067 58.5472 88.925866 43.400533-5.367467 46.336-53.828267 42.436266-88.925866l-40.354133-16.418134z" fill="#533228" p-id="8158"></path><path d="M164.224 21.0688c36.1472-6.237867 92.526933 26.129067 122.786133 45.943467 28.014933 18.346667 53.777067 41.2416 79.650134 62.4128l60.424533-11.741867c66.6368-5.248 132.6592-5.742933 198.528 4.053333 9.924267 1.476267 21.870933 5.725867 32.042667 7.688534 33.006933-29.6448 67.5328-58.5984 106.530133-80.136534 44.151467-24.379733 95.803733-49.339733 135.287467-2.722133 41.2672 48.725333 60.458667 161.041067 64.725333 223.172267 2.551467 37.162667-4.488533 81.962667 0.1536 117.444266 4.795733 36.718933 37.751467 100.181333 47.744 142.830934 64.7424 276.241067-143.803733 435.3536-394.5728 467.413333-305.595733 39.074133-703.488-101.563733-601.088-483.498667C26.1888 477.533867 55.808 419.140267 59.989333 387.1744c4.778667-36.548267-2.2784-83.114667 0.1536-121.4976 3.362133-53.162667 18.397867-143.8464 43.741867-191.445333 12.561067-23.594667 32.520533-48.366933 60.3648-53.1712zM31.658667 677.162667C29.5936 714.5984 60.586667 776.448 82.517333 806.912c2.065067 2.8672 5.410133 3.413333 5.9136 4.061867 54.7328 71.424 140.7488 114.9184 226.961067 140.0064 180.855467 52.625067 461.021867 30.114133 595.985067-113.706667 5.5808-5.947733 12.808533-10.530133 16.401066-18.184533 32.802133-28.7744 65.8432-98.4576 64.878934-141.917867 6.9376-4.744533 3.933867-15.010133 4.036266-22.3232 0.853333-58.888533-4.411733-100.9152-21.230933-157.141333-8.174933-27.3152-32.4608-75.008-35.447467-98.3552-3.293867-25.710933 1.297067-58.325333 0.110934-85.256534-2.858667-64.503467-16.221867-178.269867-49.467734-234.368-33.4848-56.4992-77.986133-29.013333-122.4192-2.039466-26.282667 15.957333-53.640533 36.8128-77.738666 56.072533-9.2416 7.381333-14.3616 18.525867-28.3136 20.360533-13.397333-1.399467-27.136-2.491733-40.4736-4.138666-70.417067-8.6784-139.477333-12.526933-210.850134-3.9168-15.854933 1.911467-44.962133 13.243733-58.965333 6.109866-3.908267-1.988267-9.463467-10.734933-14.011733-14.370133-34.466133-27.528533-87.2192-67.3536-127.744-83.106133-24.3456-9.454933-46.762667-14.967467-66.9184 6.186666-31.453867 33.006933-50.039467 143.1296-54.7072 188.586667-4.855467 47.266133 1.962667 106.222933-4.138667 149.947733-3.114667 22.306133-27.648 71.168-35.5072 98.295467C32.776533 553.216 26.9056 596.9152 27.630933 654.848c0.093867 7.313067-2.8928 17.5872 4.036267 22.3232z" fill="#4C2C23" p-id="8159"></path><path d="M992.648533 677.162667c-0.785067-35.217067-33.015467-76.347733-68.932266-81.1008-3.370667-7.0144-15.675733-4.0192-22.314667-4.0448-17.493333-0.068267-29.602133 0.887467-46.6176 4.0448-22.289067 4.138667-40.3456 12.475733-60.8256 20.2752-15.573333 5.930667-34.363733 15.735467-48.657067 20.2752-6.877867 2.184533-12.970667 3.5072-20.2752 4.053333-16.008533 1.194667-32.597333-0.8448-48.657066 0-43.758933-11.605333-60.859733-42.146133-97.2288-58.88-45.636267-21.009067-96.648533-18.013867-140.765867 5.384533-53.6064 28.4416-51.4304 57.617067-126.941867 57.5488l-2.5344-3.6096c-3.165867-1.058133-6.442667-0.3072-9.634133-0.443733-4.0448-0.170667-8.1152 0.119467-12.168533 0-2.577067-1.518933-5.563733-2.5344-8.106667-4.053333-9.0624-5.410133-15.36-6.0672-24.388267-10.077867-44.023467-19.524267-73.1904-35.029333-123.5968-34.517333-6.673067 0.068267-18.926933-2.9952-22.314666 4.0448-39.816533 3.950933-74.837333 41.207467-77.038934 81.1008-6.929067-4.744533-3.950933-15.010133-4.036266-22.3232-0.7168-57.9328 5.1456-101.623467 21.239466-157.1328 7.867733-27.127467 32.401067-75.989333 35.5072-98.295467 6.101333-43.7248-0.7168-102.6816 4.138667-149.947733 4.667733-45.457067 23.253333-155.579733 54.7072-188.586667 20.155733-21.1456 42.5728-15.6416 66.9184-6.186667 40.533333 15.744 93.2864 55.569067 127.744 83.106134 4.548267 3.6352 10.103467 12.381867 14.011733 14.370133 14.011733 7.125333 43.118933-4.1984 58.965334-6.109867 71.3728-8.610133 140.433067-4.770133 210.850133 3.9168 13.3376 1.646933 27.076267 2.7392 40.4736 4.138667 13.952-1.834667 19.072-12.9792 28.3136-20.360533 24.098133-19.2512 51.456-40.1152 77.738667-56.072534 44.433067-26.973867 88.9344-54.459733 122.4192 2.039467 33.245867 56.098133 46.609067 169.864533 49.467733 234.368 1.194667 26.9312-3.4048 59.554133-0.110933 85.256533 2.9952 23.355733 27.272533 71.04 35.447466 98.3552 16.827733 56.2176 22.084267 98.2528 21.230934 157.141334-0.1024 7.3216 2.901333 17.578667-4.036267 22.3232zM149.248 296.0128c41.5488-40.072533 83.293867-78.557867 133.8112-107.4688 1.425067-4.992-3.575467-7.227733-6.084267-10.120533-13.806933-15.914667-54.562133-55.867733-73.642666-60.151467-5.1712-1.160533-10.410667-0.989867-15.6672-0.768-23.825067 3.498667-32.0768 54.024533-35.131734 74.3424-0.375467 2.500267-3.285333 4.0192-3.285333 4.821333v99.345067z m725.8112-4.053333v-75.016534c0-1.467733-3.336533-23.099733-4.138667-28.305066-4.8896-31.709867-12.834133-79.488-53.998933-70.3744-16.896 3.7376-56.746667 45.3632-69.597867 60.151466-2.517333 2.901333-7.483733 5.102933-6.084266 10.112 26.120533 18.696533 54.766933 33.604267 79.146666 54.690134 14.711467 12.7232 27.6224 30.276267 42.496 42.658133 4.104533 3.413333 5.1968 7.748267 12.168534 6.084267zM326.2976 353.450667c-31.428267 6.869333-34.6112 52.983467-15.018667 74.504533 10.052267 11.050667 40.337067 24.832 55.057067 26.222933 9.710933 0.9216 33.365333-5.5296 40.541867-12.040533 14.916267-13.533867 13.422933-43.648 1.962666-59.0336-18.107733-24.311467-52.9408-36.130133-82.542933-29.653333z m332.612267 0.110933c-16.8704 2.8416-48.955733 23.816533-51.5584 41.7024-2.909867 20.061867-1.109333 44.6976 20.206933 52.949333 18.798933 7.278933 30.242133 5.853867 48.904533-0.0512 17.826133-5.649067 45.806933-25.173333 48.546134-44.6976 6.280533-44.765867-27.5712-56.3968-66.107734-49.902933zM399.5392 548.164267c0-42.5984-34.525867-77.124267-77.124267-77.124267s-77.124267 34.525867-77.124266 77.124267 34.525867 77.124267 77.124266 77.124266 77.124267-34.525867 77.124267-77.124266zM619.776 579.669333c23.9104 4.292267 43.3152-14.020267 66.568533-16.2048 10.4192-0.981333 30.472533-1.092267 40.644267 0.2304 14.08 1.834667 33.885867 16.836267 46.8224 10.180267 11.707733-6.024533 8.4992-21.128533-0.093867-28.5184-28.168533-24.226133-88.686933-21.051733-121.728-8.1408-18.986667 7.415467-43.264 19.396267-32.2048 42.453333z" fill="#F8C27D" p-id="8160"></path><path d="M399.5392 548.164267c0 42.5984-34.525867 77.124267-77.124267 77.124266s-77.124267-34.525867-77.124266-77.124266S279.816533 471.04 322.414933 471.04s77.124267 34.525867 77.124267 77.124267z m-19.208533-31.931734c0-13.0304-10.564267-23.594667-23.594667-23.594666s-23.594667 10.564267-23.594667 23.594666 10.564267 23.594667 23.594667 23.594667 23.594667-10.564267 23.594667-23.594667z" fill="#4F3028" p-id="8161"></path><path d="M149.248 296.0128V196.667733c0-0.802133 2.909867-2.321067 3.285333-4.821333C155.588267 171.52 163.84 121.002667 187.665067 117.504c5.256533-0.213333 10.496-0.392533 15.6672 0.768 19.072 4.283733 59.8272 44.2368 73.642666 60.151467 2.5088 2.8928 7.5008 5.12 6.084267 10.120533-50.517333 28.910933-92.2624 67.4048-133.8112 107.4688zM875.0592 291.959467c-6.971733 1.664-8.064-2.6624-12.168533-6.084267-14.8736-12.373333-27.784533-29.934933-42.496-42.658133-24.379733-21.085867-53.026133-35.985067-79.146667-54.690134-1.408-5.009067 3.566933-7.210667 6.084267-10.112 12.842667-14.7968 52.701867-56.413867 69.597866-60.151466 41.1648-9.1136 49.109333 38.664533 53.998934 70.3744 0.802133 5.205333 4.138667 26.837333 4.138666 28.305066v75.016534z" fill="#FAC7B8" p-id="8162"></path><path d="M658.909867 353.5616c38.536533-6.493867 72.388267 5.128533 66.107733 49.902933-2.7392 19.524267-30.728533 39.057067-48.546133 44.6976-18.6624 5.9136-30.1056 7.338667-48.904534 0.0512-21.316267-8.251733-23.125333-32.887467-20.206933-52.949333 2.594133-17.8944 34.679467-38.8608 51.5584-41.7024z" fill="#F7EFDD" p-id="8163"></path><path d="M326.2976 353.450667c29.602133-6.468267 64.426667 5.341867 82.542933 29.653333 11.460267 15.3856 12.9536 45.499733-1.962666 59.0336-7.176533 6.510933-30.830933 12.962133-40.541867 12.040533-14.72-1.399467-45.0048-15.172267-55.057067-26.222933-19.584-21.521067-16.401067-67.6352 15.018667-74.504533z" fill="#F7F0DF" p-id="8164"></path><path d="M619.776 579.669333c-11.0592-23.057067 13.218133-35.037867 32.2048-42.453333 33.041067-12.910933 93.559467-16.085333 121.728 8.1408 8.6016 7.389867 11.8016 22.493867 0.093867 28.5184-12.936533 6.656-32.7424-8.3456-46.8224-10.180267-10.180267-1.3312-30.225067-1.211733-40.644267-0.2304-23.253333 2.193067-42.6496 20.5056-66.568533 16.2048z" fill="#53342A" p-id="8165"></path><path d="M725.034667 640.674133v4.053334c-13.576533-1.348267-29.764267 1.902933-42.837334 0.085333-5.4272-0.750933-5.469867-4.053333-5.819733-4.138667 16.059733-0.8448 32.648533 1.194667 48.657067 0z" fill="#FADEC4" p-id="8166"></path><path d="M311.441067 644.727467h-8.106667c-0.725333-0.904533-4.036267-1.262933-4.053333-4.053334 3.191467 0.136533 6.468267-0.6144 9.634133 0.443734l2.5344 3.6096z" fill="#FAE3CB" p-id="8167"></path><path d="M356.736 516.232533m-23.594667 0a23.594667 23.594667 0 1 0 47.189334 0 23.594667 23.594667 0 1 0-47.189334 0Z" fill="#F3EADB" p-id="8168"></path><path d="M802.926933 737.1264c-0.887467-0.887467-7.074133-11.844267-8.149333-14.165333-13.4656-29.2608-9.710933-58.171733 17.339733-78.318934 22.656-16.878933 57.506133-5.2736 75.264 14.114134 3.2512 3.549867 16.170667 33.092267 16.136534 36.616533-0.034133 3.703467-7.9104 25.608533-10.171734 30.4896-10.274133 22.2208-41.8304 27.434667-64.119466 23.492267-5.179733-0.913067-23.031467-8.951467-26.299734-12.228267z" fill="#FABE9D" p-id="8169"></path><path d="M237.610667 757.418667c-1.083733 1.092267-24.610133 16.059733-26.094934 16.4864-7.074133 2.039467-31.5392 1.527467-40.1408 0.750933-38.801067-3.5072-76.014933-37.828267-70.7072-79.189333 2.5856-20.1472 23.441067-57.514667 40.558934-68.8896 13.559467-9.0112 34.6624-12.484267 50.594133-10.231467 6.9888 0.989867 11.0848 5.8112 16.904533 7.424 10.897067 3.0208 26.6752 2.158933 35.822934 12.834133 2.167467 2.525867 12.842667 23.816533 13.525333 27.025067 1.271467 5.998933 4.258133 32.768 3.669333 38.9888-0.699733 7.381333-4.642133 26.24-7.8336 32.5888-3.114667 6.1952-7.799467 8.251733-11.5968 12.859733-2.56 3.106133-3.037867 7.68-4.701866 9.361067zM172.202667 645.393067c-8.430933 1.885867-21.1968 10.965333-27.0848 17.5104-30.429867 33.809067-11.0336 78.498133 34.628266 83.114666 31.0272 3.140267 48.546133-19.003733 53.896534-47.300266 6.0416-31.9744-29.866667-60.373333-61.44-53.3248z" fill="#FACAAC" p-id="8170"></path><path d="M522.2912 725.819733l40.354133 16.418134c3.899733 35.0976 0.9728 83.5584-42.436266 88.925866-53.128533 6.5792-64.034133-46.72-58.5472-88.925866l40.354133-12.3648v60.8256c5.538133 1.3056 20.2752-0.605867 20.2752-6.084267v-58.794667z" fill="#F58769" p-id="8171"></path><path d="M172.202667 645.393067c31.573333-7.048533 67.490133 21.3504 61.44 53.3248-5.3504 28.296533-22.869333 50.440533-53.896534 47.300266-45.6704-4.616533-65.058133-49.3056-34.628266-83.114666 5.888-6.536533 18.653867-15.624533 27.0848-17.5104z" fill="#FBBA98" p-id="8172"></path></svg>