<?xml version="1.0" standalone="no"?><!DOCTYPE svg PUBLIC "-//W3C//DTD SVG 1.1//EN" "http://www.w3.org/Graphics/SVG/1.1/DTD/svg11.dtd"><svg t="1772951673747" class="icon" viewBox="0 0 1024 1024" version="1.1" xmlns="http://www.w3.org/2000/svg" p-id="4616" xmlns:xlink="http://www.w3.org/1999/xlink" width="200" height="200"><path d="M788.143283 273.546971l-3.049104-12.416629 8.317278-39.231804c-36.402913-31.922424-55.459812-72.611022-38.579635-120.846152 24.401301-69.739783 111.597204-95.191331 177.567955-74.58447 57.407851 17.930425 105.134797 71.992732 88.093694 134.609468-15.338687 56.391483-71.493017 86.196474-126.724147 90.185719-17.871137 1.295869-35.623697-5.471448-53.274621-5.378281-10.629515 4.717641-30.982284 24.74009-40.214293 27.382647-3.760562 1.075656-8.24105 0.431956-12.145597 0.279502z m16.770071-25.222866c3.582697 3.726683 28.653107-18.777398 35.140923-19.768357 12.264174-1.871811 27.069267 4.937854 39.384259 5.810237 42.797561 3.023695 98.07951-20.064798 118.322172-59.398238 34.336298-66.724558-23.867708-124.877745-87.246721-137.878786-76.16831-15.626658-171.258004 45.728089-138.785047 130.340723 8.012368 20.877892 23.994754 32.879504 38.554225 48.836481l-5.361341 32.06641z" fill="#502D24" p-id="4617"></path><path d="M804.913354 248.324105l5.361341-32.066409c-14.559471-15.948507-30.541858-27.958589-38.554225-48.836481-32.472957-84.612634 62.625207-145.967381 138.785047-130.340723 63.379013 13.00104 121.583019 71.154228 87.246721 137.878785-20.242662 39.333441-75.51614 62.421933-118.322172 59.398238-12.314992-0.872383-27.120085-7.682048-39.384259-5.810237-6.479346 0.990959-31.558226 23.49504-35.140923 19.768358z m44.610084-109.81009c0-6.64874-5.38675-12.035491-12.03549-12.03549s-12.035491 5.38675-12.035491 12.03549 5.38675 12.035491 12.035491 12.035491 12.035491-5.38675 12.03549-12.035491z m47.887872 0c0-6.64874-5.38675-12.035491-12.035491-12.03549s-12.035491 5.38675-12.035491 12.03549 5.38675 12.035491 12.035491 12.035491 12.035491-5.38675 12.035491-12.035491z m46.431076 0.347259c0-6.411588-5.200416-11.612004-11.612004-11.612004s-11.612004 5.200416-11.612004 11.612004 5.200416 11.612004 11.612004 11.612005 11.612004-5.200416 11.612004-11.612005z" fill="#FAF1DF" p-id="4618"></path><path d="M885.375819 138.514015m-12.035491 0a12.035491 12.035491 0 1 0 24.070982 0 12.035491 12.035491 0 1 0-24.070982 0Z" fill="#5C3A2E" p-id="4619"></path><path d="M837.487948 138.514015m-12.035491 0a12.035491 12.035491 0 1 0 24.070981 0 12.035491 12.035491 0 1 0-24.070981 0Z" fill="#5C3A2F" p-id="4620"></path><path d="M932.221913 138.861274m-11.612004 0a11.612004 11.612004 0 1 0 23.224008 0 11.612004 11.612004 0 1 0-23.224008 0Z" fill="#523126" p-id="4621"></path><path d="M850.929414 959.265034l-13.65321-44.372932c-8.986387-2.303767-5.72554 3.913017-10.078982 8.613718-12.467447 13.449936-30.643494 25.917383-47.92175 32.337441-58.339522 21.699456-131.70435 6.67415-182.565097-27.27254-16.871708 29.313746-34.759785 57.475609-56.205149 83.672493-7.207743 10.316135-14.102106 2.566329-20.564512 1.617719-1.541491-8.698416 0.465835-10.79891 5.0649-17.11733 22.029776-30.270826 36.792521-46.871503 52.944302-81.843031 0.389608-0.838504 3.641985-2.744194 5.217355-6.606392 14.415486-35.310317 24.384362-79.920402 5.674722-115.188371-18.506367-34.886831-58.009202-38.156148-87.737966-14.762745-21.081166 16.592207-26.569553 36.623126-39.180985 58.068491-15.270929 25.976671-30.906056 54.375687-51.11484 76.845888-5.827176 6.479346-14.771215 17.041103-24.09639 10.316135l-3.396363-11.976202c-21.690987-1.541491-45.092859 1.651598-66.563633 0.042348-6.191375-0.465835-29.677945-7.055288-32.269683-5.352871l-6.97059 34.065267 0.152455 73.517283c-3.81138 0.457366-5.945753 5.869525-9.011796 6.547104l-11.595065-5.08184c1.820993-38.020632-4.641414-77.726741 6.97906-114.053426-94.471403-20.581451-165.236023-90.541447-190.281024-183.395132-6.276072-23.274827-13.094207-57.458669-14.627229-80.91983-1.761704-27.018449 3.421772-59.381299 0.093167-85.400319-2.837361-22.173761-27.950119-70.349603-35.86932-97.215597C9.673172 407.953165-9.485364 321.129931 5.404427 275.833798c9.18966-27.93318 30.211538-40.866462 58.847705-43.525958 29.051185-2.701845 73.026039 6.699559 101.687616 14.618759 17.210498 4.75999 33.929751 13.238193 51.394341 15.86381 66.860073-40.155005 140.123265-67.402136 216.799758-82.029365 17.100391-35.437363 78.531365-130.484708 118.229005-135.981565 19.226294-2.659496 34.522632 0.787685 50.716762 10.697273 44.601615 27.28101 92.184575 118.406869 113.130225 166.684348 8.537491 19.68366 16.405873 53.418607 25.968202 69.578857 9.740193 16.456691 34.488753 38.164617 47.405096 54.960099 55.129493 71.704761 93.649839 151.997831 74.211802 244.970091-9.867239 47.201823-33.726477 87.246721-63.887197 123.971483l-0.059288 2.803482c6.411588 6.33536 11.679762 13.670149 16.448221 21.2675 28.89026 46.100757 45.016632 95.758803 31.185558 149.516198l20.649209 61.600369c0.084697 3.862198-5.844116 10.815849-9.079554 11.586595s-6.504755-3.066043-8.105534-3.133801z m-13.64474-474.313525c-14.322319-59.305071-40.891871-94.58151-78.421259-141.673226-9.359055-11.73905-26.112187-26.230763-33.709538-37.944404-12.408159-19.133127-22.410914-59.694679-32.837155-83.181249-18.684231-42.086104-62.464282-124.047711-100.815233-148.288087-34.293949-21.682517-56.052694 1.753235-78.463608 27.145494-25.155107 28.509122-48.8873 66.080858-65.05602 100.442565-82.342745 10.849728-159.230983 44.144249-230.563075 85.146227-19.759887-5.08184-38.638922-13.924241-58.314112-19.200885-22.800522-6.106678-72.721129-16.651495-94.861011-14.610289-27.018449 2.490102-39.528244 20.471345-42.424894 46.278621-6.775786 60.338379 21.623229 146.204533 41.59486 203.925765 4.048532 11.696701 13.746377 27.594391 15.669006 38.926893 7.012939 41.213721-0.32185 93.31952 7.555002 139.174655 4.175578 24.316604 14.178333 56.137391 27.230192 76.845888 2.159782 19.065369 43.813929 65.479507 59.643861 78.539836 4.014653 3.311666 8.503612 4.319564 12.010081 6.767316 61.973037 43.187169 135.532669 50.632065 209.939275 47.853992l5.124188-1.702416c44.254356-39.189455 51.495977-119.626511 111.563325-140.944829 39.138637-13.890362 81.165452 0.601351 96.724352 39.960201 7.792154 2.634087 14.872851-3.862198 21.792624-3.303196 10.47706 0.838504 26.747417 6.564043 37.614084 7.156925 14.59335 0.796155 42.611227-21.199742 54.739886-30.855238 76.659554-60.999018 142.638775-158.138387 120.532772-260.56287-0.94861-4.404261-4.683762-9.232009-6.293012-15.897689z m-197.912254 443.602272c55.20572 21.919669 132.890113 29.076594 174.086895-22.114473 28.492182-35.411954 21.403016-78.641472 5.107249-117.839397-3.48106-8.376566-27.94165-54.519672-34.175373-54.528142-23.554328 21.834972-47.61684 47.710007-76.786601 61.414035-0.872383 8.842401-0.143985 5.462978 4.963264 6.877424 7.004469 1.939569 24.10486 4.903975 27.59439 10.028164 8.308808 12.230295-7.63123 14.788154-17.1258 13.704028-11.484958-1.312809-29.804991-7.377138-42.721334-10.15521-14.940609-3.210029-45.69421-14.000469-59.567633-10.087452-8.520552 2.405404-1.854872 7.876852-1.854871 8.385035v51.182598c0 0.669109-2.422344 1.948039-2.769603 4.057002-2.337646 14.330788-5.446038 26.374749-10.756561 40.011019 9.282827 10.070513 21.818033 14.229152 33.997509 19.065369z" fill="#512F26" p-id="4622"></path><path d="M577.949916 914.909041c-16.151781 34.971528-30.914526 51.572205-52.944302 81.843031-4.599065 6.318421-6.614862 8.418915-5.0649 17.117331-12.831646-1.880281-26.96763 5.268174-39.316502 6.750377-63.616165 7.597351-127.562651 0.567472-190.967072-3.387893-4.023123-0.254092-7.707457-3.879138-11.984673-3.362484l-0.152455-73.517283 6.970591-34.065267c2.591738-1.702416 26.078308 4.887036 32.269683 5.352871 21.470773 1.609249 44.872646-1.58384 66.563632-0.042348l3.396363 11.976202c9.325176 6.733438 18.260745-3.836789 24.096391-10.316135 20.217253-22.470202 35.843911-50.869217 51.114839-76.845888l116.018405 78.480547z" fill="#F8C17D" p-id="4623"></path><path d="M779.275472 955.851731c17.278256-6.428527 35.454303-18.887505 47.92175-32.337441 4.353443-4.700702 1.092596-10.917486 10.078982-8.613718l13.65321 44.372931c-2.600208-0.101637-16.837829 5.734009-22.300807 6.699559-15.143883 2.693375-30.719722 4.802339-45.939833 6.962121l-3.413302-17.074982z" fill="#F5BF7D" p-id="4624"></path><path d="M837.284674 484.951509c-13.991999-11.459549-25.121228-24.511408-43.263397-30.101431-17.921955-5.522266-34.624269-2.447753-52.283662 2.803481-50.386442 14.974488-71.992732 56.035754-109.1918 81.89385-17.845728 12.399689-44.796418 19.505795-66.453526 16.981815-19.573553-2.278358-40.976569-15.22858-61.363216-17.125801-31.956303-2.972876-68.960567 9.325176-93.836173 29.296807-34.971528 28.077165-32.735519 71.09494-85.459607 90.278886-7.275501 2.651026-13.687089 2.278358-20.471345 3.413302-30.431751 1.89722-63.692393-2.608678-93.768416 0.067758-12.975631 1.151884-24.333543 5.979632-35.903198 10.16368-11.061471 3.997714-21.851911 6.860484-31.956304 14.110575-21.030347 15.084595-32.345911 45.753498-29.466201 71.196577-13.051859-20.708497-23.046144-52.529285-27.230192-76.845889-7.876852-45.855135-0.542063-97.960933-7.555002-139.174655-1.931099-11.332503-11.628944-27.230192-15.669006-38.926893-19.971631-57.721231-48.370646-143.587386-41.59486-203.925764 2.896649-25.807277 15.406445-43.78852 42.424894-46.278622 22.148352-2.041206 72.068959 8.503612 94.861011 14.61029 19.67519 5.276644 38.554225 14.110575 58.314112 19.200885 71.332092-41.001978 148.21186-74.288029 230.563075-85.146227 16.17719-34.361707 39.900913-71.941913 65.05602-100.442566 22.410914-25.39226 44.169658-48.819542 78.463608-27.145494 38.342482 24.240376 82.131002 106.201984 100.815233 148.288087 10.426241 23.48657 20.420527 64.056592 32.837155 83.181249 7.60582 11.713641 24.358952 26.205354 33.709538 37.944405 37.529387 47.091716 64.090471 82.368155 78.421259 141.673225zM646.190555 242.674793c3.387893-3.226968-26.306991-67.867971-31.236375-76.236067-5.285113-8.977917-27.272541-40.265111-35.716865-42.755213-33.116656-9.782542-61.735885 54.824582-62.726843 81.461893 27.856952 1.736295 51.927934 10.180619 77.489588 19.776827 2.583269 0.974019 6.140557 0.296441 8.88475 1.346687 7.351728 2.820421 37.529387 21.89426 43.297276 16.405873zM93.413423 444.008819c12.890934-0.067758 14.220682-18.40473 18.887505-27.170904 6.809665-12.780827 14.720396-26.688129 22.571839-38.850665 4.607535-7.139985 30.321645-38.486467 30.338584-41.450874 0.033879-4.700702-2.134373-5.971162-5.691661-8.130944-18.853626-11.484958-85.213985-43.830869-92.845214-8.368096-8.181762 38.012162 13.390648 88.754333 26.730478 123.979953z m425.477044-105.117857c-29.745703 5.09031-60.3045 44.948874-45.06745 74.457423 11.535777 22.334686 46.143106 13.64474 63.091042 1.566901 35.259499-25.121228 32.091819-84.604164-18.023592-76.024324z m99.290681 99.01118c-1.998857-1.998857-22.368565-13.136556-25.434609-13.805665-14.90673-3.252378-32.947262-0.830034-45.423178 8.063186-37.427751 26.688129-32.481427 84.985302 12.577553 99.849683 18.751989 6.182905 33.269112 4.209457 49.979896-6.572512 19.734478-12.738479 25.747989-36.877218 22.648066-59.237314-0.63523-4.573656-11.400261-25.332972-14.364667-28.297378zM273.276676 434.497309c-29.82193 4.200988-51.72466 29.576308-31.346482 57.187638 21.292909 28.839441 98.774028 24.045572 93.700657-22.038246-3.16768-28.754744-37.512448-38.655862-62.354175-35.149392z m35.090104 159.646c-8.334217 3.498-39.646821 21.25903-42.746743 27.196313-6.106678 11.679762 3.345545 24.790909 17.227437 17.227437 14.847442-8.088595 30.279296-20.827074 44.813358-30.245417 14.017408-9.079554 40.968099-15.669006 34.988468-36.047184-3.989244-13.585452-24.070982-5.7086-31.947833-5.268174-21.335258 1.168823-48.285949-3.032164-68.393095-0.143986-20.63227 2.964407-20.437466 24.070982-2.896649 26.806706 3.133801 0.491245 7.986958-2.989816 12.984101-3.091453 9.071084-0.169395 18.387791-0.118576 27.450405 0.160925 3.913017 0.118576 9.384464-2.21907 8.512082 3.404833z" fill="#F8C17D" p-id="4625"></path><path d="M837.284674 484.951509c1.609249 6.66568 5.335932 11.493428 6.293012 15.897689 22.106003 102.424483-43.873218 199.563852-120.532772 260.56287-12.128658 9.655496-40.155005 31.651393-54.739885 30.855238-10.875137-0.592881-27.137025-6.318421-37.614085-7.156925-6.911302-0.550533-14.000469 5.945753-21.792623 3.303196-15.5589-39.36732-57.585715-53.850563-96.724353-39.960201-60.067347 21.318318-67.308969 101.755374-111.563324 140.944829l-5.124189 1.702416c-74.406605 2.778072-147.966238-4.666823-209.939275-47.853992 2.642557-7.512653 10.79044-1.084126 15.321748 0.042349 27.187843 6.741908 36.690884 8.097065 64.158228-0.745337 48.294418-15.55043 86.32352-61.100655 81.038406-113.748515-1.041777-10.392363-10.087452-33.031959-14.483243-43.534429-3.557288-8.495142-15.110004-14.779684-6.140557-26.281581 52.715619-19.175476 50.488079-62.20172 85.459607-90.278886 24.875606-19.971631 61.87987-32.261213 93.836174-29.296807 20.378178 1.89722 41.789663 14.847442 61.363216 17.125801 21.657108 2.52398 48.616268-4.573656 66.453526-16.981815 8.867811 2.21907 5.750949 9.418343 7.012939 15.169292 3.667394 16.744662 6.03892 31.278724 15.262459 46.160045 25.807277 41.679557 80.335419 47.633779 122.048854 26.688129 21.064226-10.578697 40.578491-31.507407 43.280337-55.680025 4.378852-39.223334-3.125332-81.089225-43.322685-96.427912-10.942895-4.175578-33.845054-3.667394-35.081635-17.803379 17.659394-5.251235 34.361707-8.317278 52.283663-2.803481 18.142168 5.590024 29.271398 18.641883 43.263397 30.101431z m-352.366307 75.592368c-10.612576 1.693947-23.334115 3.972305-33.269112 7.970019-49.52253 19.929282-53.300031 67.351318 5.242765 73.347889 32.422138 3.320135 71.247395-31.922424 62.625207-66.046979-2.481632-8.647598-26.857524-16.49904-34.59886-15.262459z m28.204211 156.45291c-0.457366-6.098208 0.813094-12.763888-0.059288-18.71811-0.618291-4.209457-6.835075-26.03596-8.418914-29.110472-3.498-6.792726-11.806808-7.783685-18.73505-6.68262-7.868382 18.184517 7.233152 35.970957 10.316135 54.350278l16.897117 0.169394z" fill="#FBF0DD" p-id="4626"></path><path d="M639.37242 928.553781c17.074982-27.636739 32.489896-54.223231 37.4701-87.085796 1.27046-8.410445-2.413874-17.625515 3.48106-25.519305 12.916343 2.778072 31.236376 8.842401 42.721334 10.15521 9.494571 1.084126 25.434609-1.473734 17.1258-13.704029-3.48106-5.132658-20.589921-8.097065-27.59439-10.028164-5.107249-1.414445-5.835646 1.964978-4.963264-6.877423 29.169761-13.712498 53.232273-39.587533 76.786601-61.414035 6.233724 0 30.694313 46.151576 34.175373 54.528142 16.295767 39.197925 23.384933 82.427443-5.107249 117.839397-41.205252 51.199537-118.889644 44.034142-174.086895 22.114473z" fill="#F7C27E" p-id="4627"></path><path d="M325.433293 658.979116c-8.977917 11.493428 2.583269 17.78644 6.140556 26.281581 4.387322 10.493999 13.441466 33.142066 14.483244 43.534429 5.285113 52.647861-32.735519 98.189616-81.038407 113.748515-27.467345 8.842401-36.970385 7.487244-64.158228 0.745337-4.531307-1.126475-12.67919-7.546532-15.321747-0.042349-3.50647-2.447753-8.003898-3.455651-12.010082-6.767316-15.829931-13.068798-57.492548-59.482936-59.643861-78.539836-2.879709-25.443078 8.435854-56.111982 29.466202-71.196576 10.104392-7.250092 20.894832-10.104392 31.956303-14.110576 17.041103-0.677579-3.015225 14.212212-5.031021 17.15121-14.364667 20.93718-19.912343 51.292704-10.366954 75.024896 3.921486 9.765602 27.399587 40.222763 35.962487 45.931363 36.597717 24.418241 98.613103-3.608106 114.273639-42.518061 16.278827-40.459915-5.496857-78.260334-39.282622-100.713596l29.19517-1.651598c4.150169-0.448896 4.632944-3.413302 4.929385-3.464121 6.784256-1.134944 13.195844-0.762276 20.471345-3.413302z" fill="#FBE6D0" p-id="4628"></path><path d="M577.949916 914.909041l-116.018405-78.480547c12.611433-21.453834 18.09982-41.476283 39.180986-58.06849 29.720294-23.401873 69.223129-20.124086 87.737965 14.762745 18.70964 35.267969 8.740765 79.878053-5.674721 115.18837-1.57537 3.862198-4.836218 5.767888-5.217356 6.606392z" fill="#FAF0DD" p-id="4629"></path><path d="M680.31511 815.94868c-5.894934 7.902261-2.2106 17.108861-3.48106 25.519305-4.971733 32.862565-20.395117 59.449057-37.470099 87.085796-12.179476-4.836218-24.714681-8.994857-33.997509-19.065369 5.310523-13.63627 8.410445-25.688701 10.756561-40.011019 0.347259-2.108964 2.769603-3.387893 2.769603-4.057002v-51.182598c0-0.508184-6.66568-5.979632 1.854871-8.385035 13.873423-3.913017 44.627024 6.877423 59.567633 10.087452z" fill="#F8EEDC" p-id="4630"></path><path d="M741.737615 457.653559c1.236581 14.144454 24.138739 13.627801 35.081634 17.803379 40.197353 15.338687 47.701537 57.204577 43.322685 96.427912-2.701845 24.172618-22.20764 45.101329-43.280336 55.680025-41.713436 20.94565-96.241577 14.991428-122.048854-26.688129-9.21507-14.881321-11.595065-29.415383-15.262459-46.160045-1.26199-5.750949 1.854872-12.950222-7.012939-15.169292 37.199068-25.858095 58.813827-66.919361 109.191799-81.89385z m-28.441364 41.510162c-33.590962 7.343259-42.20468 53.672699-22.808991 79.700189 27.679088 37.13978 81.182392 21.9112 94.073325-18.667292 5.954222-18.743519-9.342116-47.455915-26.713538-55.510631-11.239336-5.208886-32.540715-8.147883-44.542326-5.522266z" fill="#FAD5B9" p-id="4631"></path><path d="M304.961948 662.392418c-0.296441 0.050818-0.779215 3.015225-4.929385 3.464121l-29.19517 1.651598c33.785765 22.453262 55.561449 60.253681 39.282622 100.713596-15.652067 38.909954-77.667453 66.936301-114.273639 42.518061-8.5629-5.71707-32.041-36.16576-35.962487-45.931363-9.536919-23.732192-3.997714-54.087716 10.366953-75.024896 2.015796-2.938997 22.080594-17.828788 5.031022-17.15121 11.569655-4.184048 22.919098-9.011796 35.903198-10.163679 30.076022-2.676436 63.336664 1.820993 93.768416-0.067758zM266.712633 774.286062c21.2675-28.068696 21.462304-55.713904-7.749806-77.836847-32.37132-24.511408-65.216945-0.279501-77.015283 32.583063 2.54939 46.143106 44.262825 73.042978 84.765089 45.253784z" fill="#FAD1B4" p-id="4632"></path><path d="M618.181148 437.902142c2.955937 2.955937 13.729437 23.723722 14.364667 28.297378 3.099922 22.360095-2.922058 46.498835-22.648066 59.237314-16.719253 10.79044-31.227906 12.755418-49.979895 6.572512-45.06745-14.864382-50.005304-73.161555-12.577554-99.849683 12.475917-8.89322 30.507979-11.315563 45.423179-8.063186 3.066043 0.669109 23.435752 11.806808 25.434609 13.805665z m-52.808786 27.111615c0-9.714784-7.868382-17.583166-17.583166-17.583166S530.20603 455.298974 530.20603 465.013757s7.868382 17.583166 17.583166 17.583166 17.583166-7.868382 17.583166-17.583166z" fill="#53332B" p-id="4633"></path><path d="M646.190555 242.674793c-5.767888 5.488387-35.954017-13.585452-43.297275-16.405873-2.744194-1.050247-6.301481-0.381138-8.88475-1.346687-25.561655-9.596208-49.632636-18.040532-77.489589-19.776827 0.990959-26.637311 29.610187-91.244435 62.726844-81.461893 8.444324 2.498571 30.423281 33.777296 35.716864 42.755213 4.929385 8.376566 34.632739 73.009099 31.236376 76.236067z" fill="#FBC6B7" p-id="4634"></path><path d="M93.413423 444.008819c-13.348299-35.22562-34.92071-85.967791-26.730477-123.979953 7.639699-35.462773 73.991589-3.116862 92.845214 8.368096 3.557288 2.168252 5.72554 3.430242 5.691661 8.130944-0.025409 2.964407-25.731049 34.310889-30.338584 41.450874-7.851443 12.162537-15.762173 26.069839-22.571839 38.850666-4.666823 8.757704-5.996571 27.103146-18.887505 27.170904z" fill="#FBC5B8" p-id="4635"></path><path d="M273.276676 434.497309c24.841727-3.498 59.186495 6.394649 62.354175 35.149392 5.07337 46.075348-72.407748 50.877687-93.700657 22.038246-20.378178-27.61133 1.524552-52.98665 31.346482-57.187638zM518.890467 338.890962c50.115411-8.57984 53.283091 50.903096 18.023592 76.024324-16.947936 12.06937-51.555265 20.759316-63.091042-1.566901-15.24552-29.50855 15.321747-69.367114 45.06745-74.457423z" fill="#F9F0DD" p-id="4636"></path><path d="M308.36678 594.143309c0.872383-5.615433-4.599065-3.286256-8.512082-3.404833-9.071084-0.279501-18.379321-0.33032-27.450405-0.160925-5.005612 0.093167-9.8503 3.574227-12.9841 3.091453-17.540817-2.735724-17.735621-23.850768 2.896648-26.806706 20.107146-2.888179 47.066307 1.321278 68.393095 0.143986 7.876852-0.431956 27.958589-8.317278 31.947834 5.268174 5.979632 20.378178-20.971059 26.96763-34.988468 36.047184-14.534062 9.418343-29.965916 22.148352-44.813358 30.245417-13.881893 7.563472-23.334115-5.547675-17.227437-17.227437 3.099922-5.937283 34.412526-23.698313 42.746743-27.196313z" fill="#59342A" p-id="4637"></path><path d="M484.918367 560.543877c7.741336-1.236581 32.117228 6.614862 34.59886 15.262459 8.630658 34.124555-30.203068 69.367114-62.625207 66.046979-58.542795-5.996571-54.765294-53.418607-5.242765-73.347889 9.934997-3.997714 22.648066-6.276072 33.269112-7.970018z" fill="#53322A" p-id="4638"></path><path d="M513.122578 716.996787l-16.897117-0.169394c-3.091453-18.379321-18.192987-36.16576-10.316135-54.350278 6.928242-1.092596 15.23705-0.101637 18.73505 6.68262 1.58384 3.082983 7.800624 24.909485 8.418914 29.110473 0.880852 5.962692-0.398077 12.619902 0.059288 18.71811z" fill="#5E3C30" p-id="4639"></path><path d="M713.296251 499.163721c12.001612-2.625617 33.31146 0.31338 44.542326 5.522266 17.371423 8.054716 32.667761 36.767111 26.713539 55.510631-12.890934 40.578491-66.385768 55.807072-94.073326 18.667292-19.395689-26.02749-10.78197-72.35693 22.808991-79.700189z" fill="#FBBE9D" p-id="4640"></path><path d="M266.712633 774.286062c-40.510734 27.789194-82.215699 0.889322-84.765089-45.253784 11.806808-32.862565 44.652433-57.102941 77.015283-32.583063 29.21211 22.122943 29.017306 49.768152 7.749806 77.836847z" fill="#FBBD9B" p-id="4641"></path><path d="M547.789196 465.013757m-17.583166 0a17.583166 17.583166 0 1 0 35.166332 0 17.583166 17.583166 0 1 0-35.166332 0Z" fill="#EFE8DC" p-id="4642"></path></svg>