<?xml version="1.0" standalone="no"?><!DOCTYPE svg PUBLIC "-//W3C//DTD SVG 1.1//EN" "http://www.w3.org/Graphics/SVG/1.1/DTD/svg11.dtd"><svg t="1772951615630" class="icon" viewBox="0 0 1024 1024" version="1.1" xmlns="http://www.w3.org/2000/svg" p-id="7579" xmlns:xlink="http://www.w3.org/1999/xlink" width="200" height="200"><path d="M644.650667 955.3152c-11.946667 0-24.405333-1.28-36.360534-0.512-85.9136 5.495467-164.923733-2.5856-248.004266-28.5696-30.830933-9.642667-61.064533-22.6816-90.325334-36.164267-21.051733 17.570133-42.786133 37.495467-69.8368 44.996267-82.286933 22.818133-167.296-63.940267-137.915733-145.6128 3.114667-8.669867 25.5488-44.893867 24.942933-47.5136-4.778667-6.4-10.717867-13.380267-14.592-20.258133C7.3472 606.190933 38.946133 489.6256 99.473067 380.586667c9.2672-16.699733 35.114667-49.348267 39.995733-63.837867 10.0096-29.687467 13.294933-72.328533 21.879467-105.0368 14.3616-54.7072 55.543467-182.178133 109.482666-205.8752 35.976533-15.803733 68.650667 3.242667 97.1008 24.362667 37.930667 28.16 67.780267 65.902933 98.7136 101.2736l91.946667 8.046933c58.845867 5.290667 114.304 25.8304 169.1648 46.429867 36.539733-19.618133 77.149867-40.533333 117.128533-52.181334 47.9744-13.986133 100.6336-20.872533 125.184 32.708267 27.5456 60.1344 17.186133 168.174933 5.546667 232.618667-4.693333 25.975467-21.290667 68.334933-19.003733 92.373333 1.9456 20.411733 9.096533 44.714667 11.3664 65.518933 12.219733 111.786667-1.672533 227.106133-90.222934 305.7408-3.447467 3.063467-9.821867 4.548267-11.818666 7.415467-7.330133 10.555733 2.935467 32.802133 2.3808 44.4928-1.655467 35.319467-22.289067 71.901867-52.7104 89.787733-64.989867 38.212267-139.6224 19.7376-170.9568-49.117866zM64.273067 558.839467c-4.846933 44.868267-1.322667 81.3824 16.213333 124.16 8.2944 20.232533 21.213867 40.157867 35.703467 56.576 9.326933-11.5456 16.443733-24.644267 24.456533-37.085867 2.9952-4.650667 3.310933-11.221333 4.386133-12.893867 0.7168-1.117867 13.243733-16.733867 15.3856-19.2256 2.048-2.389333 8.533333-8.6016 11.537067-11.537066 20.0704-19.643733 56.004267-40.849067 84.608-38.459734 3.0976 0.256 17.2032 3.037867 19.2256 3.848534 2.295467 0.913067 28.0832 18.133333 29.969067 20.027733 0.631467 0.631467 9.130667 12.765867 10.3168 14.6944 28.782933 46.907733 20.462933 112.0256-1.058134 160.264533-7.739733 17.339733-18.542933 32.657067-27.690666 49.152 2.449067 8.823467 95.658667 39.381333 110.5408 43.3664 28.407467 7.6032 74.257067 17.493333 102.980266 20.087467 38.212267 3.447467 80.546133-2.466133 119.261867 0.196267l9.480533-6.0416c-2.756267-10.683733-7.9872-20.8384-10.589866-31.547734-11.298133-46.404267-13.653333-94.626133 4.778666-139.502933 14.344533-34.926933 35.9168-48.512 67.362134-65.322667 11.767467 0.930133 24.977067-1.408 36.471466 0.059734 4.7616 0.605867 25.480533 8.9088 28.910934 11.477333 10.478933 7.8336 36.283733 41.6256 42.308266 53.845333 6.8864 13.969067 14.8736 35.7376 19.2256 49.9968 1.348267 4.420267 2.7904 11.392 3.848534 15.3856 2.107733 7.9616 3.5072 18.491733 3.933866 26.8288l21.128534 3.976534c17.245867 0.264533 53.888-52.5312 62.7968-67.950934 9.275733-16.0512 14.0288-30.2848 19.831466-47.470933 18.6112-55.150933 21.469867-108.834133 15.300267-167.2192-3.2256-30.5408-14.208-65.3568-11.6224-96.392533 1.757867-21.1968 11.605333-44.4672 15.4112-65.348267 10.786133-59.195733 21.495467-161.1776 3.165867-218.257067-13.8496-43.136-40.7552-46.062933-81.066667-36.548266-48.384 11.4176-95.581867 38.587733-139.921067 60.305066l-6.365866 0.017067c-38.0928-16.6656-79.9488-32.256-120.763734-41.002667-48.546133-10.410667-99.1488-14.7712-148.616533-16.750933-25.642667-25.992533-46.225067-55.9104-73.480533-80.349867-3.464533-3.106133-8.1152-4.522667-11.690667-7.543466-27.776-23.4752-59.5968-60.1088-97.8944-32.6656-35.003733 25.088-72.2176 131.234133-83.780267 173.892266-9.565867 35.319467-13.457067 81.2032-24.8576 113.595734-9.216 26.197333-38.493867 62.523733-52.394666 89.898666-25.352533 49.937067-40.7296 91.767467-46.7456 147.464534z m92.305066 161.527466c-4.923733 8.0128-28.0832 50.397867-30.574933 52.104534-3.421867 2.346667-9.693867 2.6624-13.5168 1.595733-7.697067-2.133333-4.4544-16.768-7.816533-15.240533-26.205867 32.6656-34.9952 71.6544-12.859734 109.0048 31.0272 52.343467 91.835733 64.452267 139.844267 25.668266 6.8864-5.563733 11.656533-13.568 17.237333-19.3024 4.061867-4.1728 10.8544-7.748267 15.453867-13.397333 36.0448-44.270933 62.609067-117.060267 41.3952-172.288-27.178667-70.766933-88.132267-50.107733-127.829333-2.602667-9.3696 11.2128-14.506667 23.364267-21.316267 34.449067z m499.959467 211.524267c29.184 62.0288 83.336533 91.076267 147.541333 53.316267 37.486933-22.050133 47.4624-64.3328 36.778667-104.951467l-7.406933-4.138667c-5.674667 7.0656-13.789867 14.805333-21.239467 5.870934l-18.039467-74.146134c-0.605867-2.013867-2.909867-2.500267-3.0208-2.858666-9.915733-31.5392-20.676267-66.722133-50.0992-86.434134-27.946667-18.722133-60.9792-4.9664-80.733866 19.063467-41.949867 51.0208-30.165333 138.1888-3.771734 194.286933z" fill="#4D2C23" p-id="7580"></path><path d="M929.595733 735.752533c-0.657067-46.344533-19.4816-64.896-57.685333-84.608-9.224533-4.7616-11.451733-6.749867-23.074133-7.688533-3.1488-6.596267-14.907733-3.882667-21.162667-3.831467-51.080533 0.366933-100.1216 21.341867-151.901867 15.368534-8.1408-1.7408-14.848-2.218667-23.125333-5.717334-47.0272-19.874133-62.370133-73.591467-115.182933-92.4928-34.56-12.3648-70.528-10.624-104.029867 3.933867-12.279467 5.333333-22.229333 13.9776-34.5088 19.336533-31.189333 13.610667-66.747733 13.9008-96.196267-1.979733-33.706667-18.167467-60.245333-43.392-96.145066-57.685333-2.8672-1.143467-8.251733-2.833067-11.537067-3.848534-3.0208-0.930133-5.486933-2.3552-11.537067-3.848533-19.8912-4.8896-41.472-5.845333-61.533866-2.005333v2.005333c-27.4432 1.5872-41.856 27.272533-57.685334 46.148267 6.016-55.697067 21.393067-97.536 46.7456-147.464534 13.9008-27.374933 43.178667-63.709867 52.394667-89.898666 11.400533-32.392533 15.2832-78.276267 24.8576-113.595734 11.562667-42.666667 48.776533-148.8128 83.780267-173.892266C310.3744 6.536533 342.186667 43.178667 369.962667 66.653867c3.575467 3.0208 8.226133 4.437333 11.690666 7.543466 27.255467 24.448 47.837867 54.357333 73.480534 80.349867 49.467733 1.988267 100.0704 6.3488 148.616533 16.750933 40.814933 8.746667 82.679467 24.337067 120.763733 41.002667l6.365867-0.017067c44.3392-21.717333 91.537067-48.887467 139.921067-60.305066 40.311467-9.514667 67.217067-6.587733 81.066666 36.548266 18.321067 57.079467 7.620267 159.069867-3.165866 218.257067-3.805867 20.8896-13.653333 44.16-15.4112 65.348267-2.577067 31.035733 8.3968 65.851733 11.6224 96.392533 6.161067 58.376533 3.3024 112.059733-15.300267 167.2192zM375.799467 174.250667c5.8368-4.744533-21.819733-45.832533-26.862934-51.985067-13.371733-16.324267-32.256-35.037867-55.355733-28.288-11.861333 3.464533-30.190933 41.0624-35.1488 53.2992-5.410133 13.354667-27.5456 88.951467-21.085867 96.2048l85.76-50.7648 52.701867-18.466133z m494.9248 35.362133c-12.398933 2.1504-75.716267 38.152533-75.716267 47.325867 14.318933 15.940267 32.1792 30.114133 46.208 46.071466 16.768 19.089067 29.013333 39.748267 42.752 61.090134 2.525867 3.925333 5.717333 6.980267 9.096533 10.112 6.229333-3.618133 4.616533-8.311467 6.050134-13.166934 10.658133-36.053333 16.315733-89.992533 11.255466-127.189333-2.875733-21.111467-20.5056-27.5712-39.637333-24.251733zM386.039467 324.744533c-9.5232 2.1248-24.6016 12.672-27.7504 22.382934-9.992533 30.8736 9.4976 58.692267 36.650666 71.406933 13.866667 6.493867 34.167467 9.3184 47.607467 1.314133 30.208-17.9968 20.573867-56.558933-3.242667-76.450133-10.6752-8.917333-40.328533-21.546667-53.2736-18.653867z m284.706133 61.7728c-43.093333 7.2704-62.651733 67.473067-19.1488 83.037867 31.189333 11.1616 84.5056-2.688 89.557333-39.560533 5.358933-39.150933-39.552-48.6912-70.408533-43.485867zM413.7984 527.598933c12.5184-26.2144-12.654933-57.258667-35.336533-69.495466-28.288-15.2576-70.4512-16.6912-94.9248 6.5536-9.489067 9.0112-20.5312 34.2016-2.065067 36.625066 14.634667 1.92 13.431467-4.821333 21.333333-9.659733 23.799467-14.549333 58.180267-15.325867 76.893867 7.534933 9.070933 11.0848 9.045333 27.861333 24.9344 31.872l9.156267-3.438933z m264.712533-14.088533c-4.471467 0.631467-13.883733 3.182933-18.261333 4.8128-17.416533 6.485333-60.177067 38.024533-34.5344 54.135467 9.361067 5.879467 20.974933-11.323733 27.076267-15.445334 22.331733-15.0784 55.2192-13.44 75.0336 5.5296 11.332267 10.8544 11.7504 39.620267 32.6656 29.0816 19.549867-18.013867-0.938667-46.250667-17.348267-59.784533-18.449067-15.2064-40.797867-21.700267-64.631467-18.338133z" fill="#F8C17C" p-id="7581"></path><path d="M675.771733 654.984533c0.3328 0.068267 0.682667 3.310933 5.546667 3.908267 10.3424 1.262933 22.306133-0.9984 32.913067-0.0512l-12.0576 26.3936c-6.161067-0.7936-8.192 2.858667-11.016534 4.360533-31.445333 16.810667-53.0176 30.395733-67.362133 65.322667-18.423467 44.8768-16.0768 93.090133-4.778667 139.502933 2.602667 10.7008 7.8336 20.864 10.589867 31.547734l-9.480533 6.0416c-38.715733-2.670933-81.0496 3.242667-119.261867-0.196267-28.7232-2.5856-74.5728-12.475733-102.980267-20.087467-14.882133-3.985067-108.091733-34.551467-110.5408-43.3664 9.147733-16.494933 19.950933-31.812267 27.690667-49.152 21.5296-48.238933 29.841067-113.365333 1.058133-160.264533-1.186133-1.928533-9.6768-14.0544-10.3168-14.6944-1.885867-1.885867-27.6736-19.106133-29.969066-20.027733 3.310933-7.202133 11.0336-11.0336 13.653333-19.029334 2.773333-8.448-0.341333-28.842667 13.2608-27.118933 29.448533 15.872 65.006933 15.581867 96.196267 1.979733 12.279467-5.358933 22.229333-14.0032 34.5088-19.336533 33.501867-14.549333 69.469867-16.290133 104.029866-3.933867 52.8128 18.8928 68.155733 72.618667 115.182934 92.4928 8.285867 3.498667 14.984533 3.985067 23.125333 5.717334zM559.5904 598.101333c-1.476267-1.467733-16.708267-11.6992-19.515733-13.175466-28.4672-14.967467-66.6112-14.327467-94.472534 1.408-6.254933 13.841067-8.379733 23.492267-2.6624 38.0416 4.317867 10.973867 30.8224 30.301867 28.996267 36.352-17.365333 15.940267-44.8768 18.542933-61.678933 0.162133-8.7552-9.5744-6.417067-16.290133-7.4496-27.170133-1.399467-14.728533-12.731733-19.7376-18.730667-7.005867-9.506133 20.181333 8.055467 57.1648 30.011733 63.0528-12.859733 49.186133-1.9456 143.3344 67.396267 134.357333 45.7216-5.922133 61.269333-67.037867 72.96-103.936 3.490133-4.949333 11.784533-3.063467 17.6384-5.435733 14.907733-6.033067 34.645333-22.997333 37.879467-39.2192 1.518933-7.6288-5.367467-16.750933-12.996267-16.836267-10.922667-0.119467-10.112 17.416533-17.211733 25.2672-16.546133 18.286933-55.790933 10.197333-66.116267-11.093333-1.809067-3.729067-5.461333-5.085867 0.4864-8.388267 6.0672-3.370667 18.090667-3.549867 26.862933-7.748266 16.059733-7.688533 30.114133-23.3216 27.178667-42.222934-0.366933-2.3296-7.278933-15.121067-8.584533-16.418133z" fill="#F9F0DE" p-id="7582"></path><path d="M656.5376 931.8912c5.725867-6.912 5.9136-18.193067 9.557333-26.973867 17.2288-41.5488 70.766933-81.6128 115.387734-88.541866 10.581333-1.646933 10.666667 4.078933 9.659733-11.392 0.110933 0.3584 2.423467 0.8448 3.0208 2.858666l18.039467 74.146134c7.4496 8.9344 15.5648 1.2032 21.239466-5.870934l7.406934 4.138667c10.683733 40.618667 0.708267 82.901333-36.778667 104.951467-64.196267 37.76-118.3488 8.712533-147.541333-53.316267z" fill="#F5C07B" p-id="7583"></path><path d="M248.874667 874.197333c-5.572267 5.725867-10.350933 13.738667-17.237334 19.3024-48.008533 38.784-108.817067 26.6752-139.844266-25.668266-22.135467-37.341867-13.346133-76.330667 12.859733-109.0048 3.362133-1.527467 0.119467 13.1072 7.816533 15.240533 3.822933 1.058133 10.103467 0.7424 13.5168-1.595733 2.491733-1.706667 25.6512-44.091733 30.574934-52.104534 44.125867 21.768533 76.586667 59.511467 91.554133 106.504534l0.7424 47.3344z" fill="#F6C07C" p-id="7584"></path><path d="M248.874667 874.197333l-0.7424-47.3344c-14.967467-46.993067-47.428267-84.736-91.554134-106.504533 6.8096-11.0848 11.946667-23.236267 21.316267-34.449067 39.7056-47.505067 100.650667-68.1728 127.829333 2.602667 21.213867 55.236267-5.3504 128.017067-41.3952 172.288-4.599467 5.640533-11.392 9.224533-15.453866 13.397333z" fill="#F9EFDE" p-id="7585"></path><path d="M791.1424 804.974933c1.006933 15.470933 0.913067 9.745067-9.659733 11.392-44.612267 6.929067-98.1504 46.993067-115.387734 88.541867-3.643733 8.789333-3.84 20.0704-9.557333 26.973867-26.3936-56.098133-38.178133-143.266133 3.771733-194.286934 19.754667-24.029867 52.7872-37.7856 80.733867-19.063466 29.422933 19.712 40.183467 54.8864 50.0992 86.434133z" fill="#F8F0DE" p-id="7586"></path><path d="M848.827733 643.447467c-13.7728-1.117867-28.416 0.7936-42.308266 0.008533 6.4512 10.069333 21.000533 13.661867 30.600533 21.307733 21.640533 17.2288 36.437333 52.488533 30.327467 79.982934-0.785067 3.549867-11.127467 30.293333-12.885334 33.271466-1.3568 2.295467-19.080533 20.258133-21.034666 21.333334-10.146133 5.623467-17.2032-9.506133-15.470934 5.614933-4.352-14.2592-12.3392-36.027733-19.2256-49.9968-0.9472-13.320533 2.2016-5.5552 8.772267-3.012267 5.393067 2.082133 9.685333 4.642133 16 2.807467 4.923733-1.4336 13.661867-30.651733 13.6704-36.352 0.042667-19.3536-29.653333-43.153067-48.221867-44.356267-6.8864-0.443733-13.329067 4.616533-20.565333 4.420267l-11.963733 22.656c-3.4304-2.568533-24.149333-10.862933-28.910934-11.477333-11.4944-1.467733-24.704 0.8704-36.471466-0.059734 2.816-1.501867 4.846933-5.154133 11.016533-4.360533l12.0576-26.3936c-10.606933-0.9472-22.570667 1.314133-32.913067 0.0512-4.855467-0.5888-5.213867-3.831467-5.546666-3.908267 51.780267 5.973333 100.821333-15.0016 151.901866-15.368533 6.254933-0.042667 18.005333-2.7648 21.162667 3.831467z" fill="#F9C7AC" p-id="7587"></path><path d="M302.72 578.0736c-13.610667-1.732267-10.496 18.6624-13.2608 27.118933-2.619733 8.004267-10.3424 11.835733-13.653333 19.029334-2.0224-0.802133-16.128-3.584-19.2256-3.848534l-9.463467-34.756266c-10.606933-19.729067-42.871467-36.590933-65.041067-30.139734-2.9696 0.861867-20.718933 18.850133-23.458133 22.690134-10.120533 14.190933-18.065067 38.0672-13.0816 55.185066 2.747733 9.412267 21.9392 16.699733 26.436267 25.480534-3.003733 2.935467-9.489067 9.147733-11.537067 11.537066-10.4704-8.482133-24.925867-5.973333-32.657067-19.268266-3.2768-5.632-12.253867-34.7648-12.731733-41.0624-0.1536-1.9712 2.884267-19.012267 3.694933-21.751467 2.542933-8.567467 33.390933-44.509867 41.796267-50.5088 15.624533-11.153067 31.4368-7.261867 46.0544-17.408 35.899733 14.301867 62.446933 39.517867 96.145067 57.685333z" fill="#F9CCAF" p-id="7588"></path><path d="M121.966933 512.6912l26.914134 1.92c-5.376 2.5856-5.998933 9.890133-8.516267 12.6464-1.501867 1.646933-6.2208 1.399467-8.746667 4.590933-5.691733 7.202133-28.970667 39.7824-31.010133 46.020267-3.6096 11.0592-7.159467 48.256-5.563733 59.810133 1.322667 9.582933 24.584533 49.732267 33.1264 51.601067l16.861866 0.324267c-1.0752 1.672533-1.390933 8.2432-4.386133 12.893866-8.0128 12.4416-15.138133 25.531733-24.456533 37.085867-14.498133-16.418133-27.409067-36.343467-35.703467-56.576-17.536-42.7776-21.060267-79.291733-16.213333-124.16 15.829333-18.884267 30.242133-44.561067 57.685333-46.148267z" fill="#F9E5CF" p-id="7589"></path><path d="M171.963733 658.833067c-4.497067-8.7808-23.697067-16.068267-26.436266-25.480534-4.992-17.117867 2.952533-40.994133 13.0816-55.185066 2.7392-3.84 20.497067-21.828267 23.458133-22.690134 22.1696-6.4512 54.442667 10.410667 65.041067 30.139734L256.571733 620.373333c-28.603733-2.389333-64.5376 18.816-84.608 38.459734z" fill="#FABB9B" p-id="7590"></path><path d="M871.9104 651.144533c38.203733 19.712 57.028267 38.263467 57.685333 84.608-5.794133 17.186133-10.555733 31.419733-19.831466 47.470934-8.900267 15.4112-45.550933 68.215467-62.7968 67.950933l-21.128534-3.976533c-0.426667-8.337067-1.826133-18.875733-3.933866-26.8288 1.885867-7.0912 6.971733 3.072 13.3632 3.959466 17.416533 2.414933 12.8256-5.248 18.193066-10.8288 10.871467-11.323733 14.728533-7.5008 24.2688-27.682133 7.441067-15.744 18.833067-43.0592 17.160534-59.605333-2.8928-28.535467-9.1904-43.52-25.105067-67.1744-3.976533-5.905067-11.281067-8.584533 2.116267-7.8848z" fill="#F8E9D2" p-id="7591"></path><path d="M848.827733 643.447467c11.6224 0.938667 13.8496 2.935467 23.074134 7.688533-13.405867-0.699733-6.0928 1.979733-2.116267 7.8848 15.914667 23.6544 22.212267 38.638933 25.105067 67.1744 1.681067 16.546133-9.710933 43.861333-17.160534 59.605333-9.531733 20.1728-13.3888 16.3584-24.2688 27.682134-5.367467 5.5808-0.776533 13.252267-18.193066 10.8288-6.391467-0.887467-11.477333-11.050667-13.3632-3.959467-1.058133-3.9936-2.491733-10.9568-3.848534-15.3856-1.732267-15.121067 5.3248 0 15.470934-5.614933 1.954133-1.083733 19.669333-19.037867 21.034666-21.333334 1.757867-2.978133 12.091733-29.7216 12.885334-33.271466 6.109867-27.4944-8.686933-62.754133-30.327467-79.982934-9.6-7.645867-24.149333-11.2384-30.600533-21.307733 13.883733 0.776533 28.535467-1.1264 42.308266-0.008533z" fill="#FADDC4" p-id="7592"></path><path d="M183.5008 512.6912l2.389333 3.421867 9.147734 0.426666c3.285333 1.015467 8.669867 2.705067 11.537066 3.848534-14.6176 10.146133-30.429867 6.254933-46.0544 17.408-8.3968 5.998933-39.2448 41.9328-41.796266 50.5088-0.810667 2.730667-3.84 19.780267-3.694934 21.751466 0.477867 6.2976 9.463467 35.4304 12.731734 41.0624 7.722667 13.294933 22.186667 10.786133 32.657066 19.268267-2.141867 2.491733-14.6688 18.107733-15.3856 19.2256l-16.861866-0.324267c-8.541867-1.8688-31.803733-42.018133-33.1264-51.601066-1.595733-11.554133 1.954133-48.750933 5.563733-59.810134 2.039467-6.237867 25.3184-38.818133 31.010133-46.020266 2.517333-3.191467 7.2448-2.944 8.746667-4.590934 2.517333-2.7648 3.140267-10.0608 8.516267-12.6464l-26.914134-1.92v-2.005333c20.061867-3.84 41.642667-2.8928 61.533867 2.005333z" fill="#FAD9BF" p-id="7593"></path><path d="M756.5312 701.1328l11.963733-22.656c7.227733 0.196267 13.678933-4.864 20.565334-4.420267 18.577067 1.2032 48.273067 25.002667 48.221866 44.356267-0.017067 5.700267-8.746667 34.9184-13.6704 36.352-6.306133 1.834667-10.5984-0.725333-16-2.807467-6.570667-2.542933-9.719467-10.308267-8.772266 3.012267-6.024533-12.219733-31.8208-46.0032-42.308267-53.845333z" fill="#F9BB9F" p-id="7594"></path><path d="M375.799467 174.250667l-52.701867 18.466133-85.76 50.7648c-6.459733-7.253333 15.675733-82.850133 21.085867-96.2048 4.957867-12.2368 23.287467-49.834667 35.1488-53.2992 23.0912-6.749867 41.984 11.972267 55.355733 28.288 5.0432 6.161067 32.699733 47.240533 26.862933 51.985067z" fill="#FAC4B5" p-id="7595"></path><path d="M870.724267 209.6128c19.131733-3.310933 36.7616 3.1488 39.637333 24.251733 5.060267 37.1968-0.597333 91.136-11.255467 127.189334-1.4336 4.846933 0.1792 9.5488-6.050133 13.166933-3.3792-3.131733-6.570667-6.186667-9.096533-10.112-13.730133-21.341867-25.984-42.001067-42.752-61.090133-14.020267-15.965867-31.889067-30.139733-46.208-46.071467 0-9.173333 63.317333-45.175467 75.716266-47.325867z" fill="#FAC7B8" p-id="7596"></path><path d="M670.7456 386.517333c30.856533-5.205333 75.767467 4.334933 70.408533 43.485867-5.051733 36.872533-58.368 50.7136-89.557333 39.560533-43.502933-15.5648-23.944533-75.767467 19.1488-83.037866z" fill="#F7EEDC" p-id="7597"></path><path d="M386.039467 324.744533c12.945067-2.884267 42.5984 9.736533 53.2736 18.653867 23.816533 19.8912 33.442133 58.461867 3.242666 76.450133-13.44 8.004267-33.7408 5.179733-47.607466-1.314133-27.1616-12.714667-46.651733-40.533333-36.650667-71.406933 3.140267-9.710933 18.2272-20.258133 27.7504-22.382934z" fill="#F8F0DD" p-id="7598"></path><path d="M678.510933 513.5104c23.8336-3.362133 46.1824 3.131733 64.631467 18.338133 16.4096 13.533867 36.8896 41.770667 17.348267 59.784534-20.906667 10.538667-21.333333-18.2272-32.6656-29.0816-19.8144-18.9696-52.701867-20.608-75.0336-5.5296-6.101333 4.1216-17.7152 21.3248-27.076267 15.445333-25.634133-16.110933 17.117867-47.650133 34.5344-54.135467 4.3776-1.629867 13.789867-4.181333 18.261333-4.8128z" fill="#533229" p-id="7599"></path><path d="M413.7984 527.598933l-9.156267 3.438934c-15.889067-4.010667-15.854933-20.795733-24.9344-31.872-18.722133-22.8608-53.102933-22.084267-76.893866-7.534934-7.901867 4.829867-6.7072 11.579733-21.333334 9.659734-18.474667-2.423467-7.424-27.613867 2.065067-36.625067 24.4736-23.2448 66.6368-21.8112 94.9248-6.5536 22.690133 12.2368 47.863467 43.281067 35.336533 69.495467z" fill="#533228" p-id="7600"></path><path d="M195.037867 516.539733l-9.147734-0.426666-2.389333-3.421867c6.050133 1.4848 8.516267 2.909867 11.537067 3.848533z" fill="#F9CCAF" p-id="7601"></path><path d="M559.5904 598.101333c1.3056 1.297067 8.2176 14.08 8.584533 16.418134 2.944 18.901333-11.1104 34.542933-27.178666 42.222933-8.772267 4.1984-20.795733 4.3776-26.862934 7.748267-5.947733 3.3024-2.295467 4.6592-0.4864 8.388266 10.325333 21.290667 49.570133 29.380267 66.116267 11.093334 7.108267-7.850667 6.289067-25.386667 17.211733-25.2672 7.620267 0.085333 14.5152 9.207467 12.996267 16.836266-3.234133 16.221867-22.971733 33.194667-37.879467 39.2192-5.8624 2.372267-14.1568 0.4864-17.6384 5.435734-11.690667 36.898133-27.229867 98.013867-72.96 103.936-69.341867 8.977067-80.256-85.1712-67.396266-134.357334-21.956267-5.888-39.517867-42.871467-30.011734-63.0528 5.998933-12.731733 17.3312-7.722667 18.730667 7.005867 1.032533 10.88-1.3056 17.5872 7.4496 27.170133 16.802133 18.3808 44.3136 15.7696 61.678933-0.162133 1.826133-6.050133-24.6784-25.378133-28.996266-36.352-5.717333-14.549333-3.592533-24.200533 2.6624-38.0416 27.8528-15.735467 66.005333-16.384 94.472533-1.408 2.807467 1.476267 18.039467 11.707733 19.515733 13.175467z m-68.445867 79.9488c-17.194667 8.8064-31.095467 18.466133-51.575466 15.7184l-5.76 5.777067c-1.792 26.325333-4.778667 93.354667 29.1328 100.9408 42.299733 9.463467 59.52-52.488533 70.161066-82.107733-15.325867-11.127467-36.590933-21.009067-41.9584-40.328534z" fill="#503129" p-id="7602"></path><path d="M491.144533 678.050133c5.367467 19.310933 26.632533 29.201067 41.9584 40.328534-10.6496 29.6192-27.861333 91.5712-70.161066 82.107733-33.911467-7.586133-30.9248-74.615467-29.1328-100.9408l5.76-5.777067c20.48 2.747733 34.3808-6.912 51.575466-15.7184z" fill="#F39377" p-id="7603"></path></svg>