<?xml version="1.0" standalone="no"?><!DOCTYPE svg PUBLIC "-//W3C//DTD SVG 1.1//EN" "http://www.w3.org/Graphics/SVG/1.1/DTD/svg11.dtd"><svg t="1772951562079" class="icon" viewBox="0 0 1024 1024" version="1.1" xmlns="http://www.w3.org/2000/svg" p-id="4265" xmlns:xlink="http://www.w3.org/1999/xlink" width="200" height="200"><path d="M197.58538 150.617744c32.741745-7.17639 66.183209 9.49741 93.779457 25.539755 34.107051 19.83107 62.582215 48.016106 95.43489 68.947954 3.933788-0.614388 7.210522-3.123138 11.16991-3.66926 63.239268-8.763558 136.914594-12.014693 200.665852-3.694859 11.016313 1.433571 34.175316 9.582742 43.46793 6.809464 36.649933-31.768964 80.800517-67.514382 126.359072-85.451091 37.025393-14.583175 64.852036-13.968787 91.424304 18.252435 30.81325 37.375252 48.331833 134.593574 51.216042 182.507282 2.227155 36.871796-4.624974 81.602634-0.093865 116.96406 3.276734 25.573888 30.924181 79.537609 39.226949 110.504455 34.303314 127.937707 11.707499 252.760809-97.875375 334.935165-158.750957 119.046151-413.286664 130.181929-591.518832 51.34404-170.381658-75.356359-235.660351-210.91418-185.297626-393.583592 7.466517-27.075725 36.922995-87.277187 38.646694-107.415451 0.341327-3.99352-3.123138-8.516096-3.18287-13.84079-0.767985-72.975607 7.722512-224.652572 53.281068-283.01087 7.065459-9.053686 22.135024-22.672613 33.304933-25.121631zM85.604687 727.024344c-2.457551 32.366286 16.119144 74.929701 32.869743 102.252888 5.964681 9.727805 9.633941 11.826963 14.608774 18.260968 0.469324 0.605855 0.042666 5.171097 3.464464 9.198749 158.187768 185.980279 567.045721 190.835648 734.227443 16.366606 33.313467-34.764104 64.64724-85.050032 65.730951-135.12263 6.34014-3.046339 3.592461-14.088251 3.643661-20.095598 0.460791-52.368019-2.065025-86.577468-16.323941-137.034058-7.585982-26.836796-31.700699-74.46891-34.798237-96.672199-4.334847-31.060712 1.885829-73.12067 0.16213-106.067211-2.18449-41.607701-11.110178-96.561268-23.816056-136.871928-7.278788-23.090738-26.6576-67.565581-54.970634-69.485544-14.310114-0.972781-58.14497 21.6657-72.361219 29.968468-30.454857 17.783111-60.901181 42.665813-86.28734 67.087724-11.280841 5.802551-26.777064-3.652194-38.527229-5.495357-66.524536-10.410458-141.548101-10.401925-208.004372 0-7.33852 1.151977-23.397932 8.490497-28.807956 6.971594-36.411005-30.659653-74.093451-62.496883-116.6398-84.444177-41.078645-21.187843-66.405071-22.220355-88.437697 22.527549-20.436924 41.513836-32.366286 120.309059-34.764105 166.089477-1.689566 32.178556 4.104451 71.670033 0.102398 102.355285-3.609528 27.621847-29.593008 79.921601-38.382165 111.340706-11.067512 39.534142-16.6738 77.754178-16.32394 118.781623 0.051199 5.998813-2.696479 17.049259 3.64366 20.095598z" fill="#4E2A21" p-id="4266"></path><path d="M530.61765 145.839173c-11.750165 6.937461-19.83107 2.687946-31.931095 0.127997-16.400739-43.032739 7.466517-52.086425 38.040839-72.540415 10.930981-27.178123-11.886696-39.559742-36.163543-32.51135-11.758698 3.413265-11.664833 24.251248-29.584475 25.266695-23.056605 1.314107-28.628761-21.307307-16.682332-38.66376C489.598737-23.8001 602.663142-1.13602 580.621983 77.147214c-5.34176 18.977754-28.108238 33.774258-44.193249 43.450864l-5.811084 25.232562z" fill="#522F25" p-id="4267"></path><path d="M514.703302 183.478953m-23.781925 0a23.781924 23.781924 0 1 0 47.563849 0 23.781924 23.781924 0 1 0-47.563849 0Z" fill="#4F2C23" p-id="4268"></path><path d="M936.514595 737.980925c0.494923-22.809144-8.516096-47.922241-27.314653-62.155556-21.725432-16.443404-41.49677-18.457231-67.633847-18.18417-42.742611 0.443724-57.965774 12.210956-94.9485 25.565355-14.079718 5.085765-38.80029 16.050879-51.130711 18.260968-2.201556 0.392525-4.915102-0.230395-7.304387 0-8.260101 0.81065-17.194323-0.546122-25.565355 0-37.255788-8.592895-37.614181-15.282894-65.893081-34.542242-45.567088-31.035112-89.598207-41.6333-142.324619-18.465764-20.718519 9.104884-34.533709 26.572268-53.468797 37.82751-22.237422 13.217869-44.543109 18.653493-70.646053 15.180496-14.634374-1.954094-39.465877-11.946428-54.782904-18.260968-7.005726-2.884209-37.494716-20.923315-43.826323-18.260968-6.288941 0.281594-12.356019-2.013826-18.260968-3.652193-1.48477-0.409592-3.071939-2.747678-10.956581-3.652194-4.872436-0.554656-25.505623-3.455931-26.828263-3.140204-1.655434 0.401059-2.193023 3.123138-2.389286 3.140204-34.32038 2.133291-57.530582 7.568915-76.11581 38.919755-5.776951 9.736339-10.674986 19.293481-11.528303 30.471923-6.331607-3.046339-3.592461-14.096785-3.64366-20.095598-0.34986-41.027446 5.256428-79.238948 16.32394-118.781623 8.797691-31.419105 34.772638-83.727391 38.382165-111.340706 4.010586-30.685253-1.783431-70.176729-0.102398-102.355285 2.397819-45.780417 14.32718-124.575641 34.764104-166.089477 22.032626-44.756438 47.367586-43.715392 88.437698-22.527549 42.546349 21.947294 80.228795 53.784524 116.639799 84.444177 5.410025 1.518903 21.469437-5.819617 28.807957-6.971594 66.45627-10.401925 141.488369-10.410458 208.004372 0 11.750165 1.843163 27.246388 11.297907 38.527229 5.495357 25.386159-24.413378 55.82395-49.29608 86.28734-67.087724 14.216249-8.302767 58.042572-30.941248 72.361219-29.968468 28.313034 1.919962 47.691846 46.394805 54.970633 69.485544 12.705879 40.31066 21.631567 95.264227 23.816057 136.871928 1.723699 32.946541-4.488444 74.997966-0.16213 106.067211 3.097538 22.203289 27.212256 69.843936 34.798237 96.672199 14.258915 50.45659 16.784731 84.674572 16.32394 137.034058-0.051199 6.007346 2.696479 17.049259-3.64366 20.095598zM191.518301 387.39594c6.707066 1.493303 7.15079-2.082092 10.393392-6.032946 13.721325-16.742065 29.106618-32.076158 46.138811-45.157497 8.115038-6.229209 55.47409-34.738505 56.549268-38.433364 1.800497-5.64042-1.220242-7.321454-3.472997-10.862716-8.481964-13.320267-27.49385-30.32686-40.387459-39.943734-28.953021-21.605968-48.895022-19.626274-60.184395 16.187409-8.567295 27.16959-15.888749 83.659126-12.688813 111.46017 0.51199 4.445778 4.147117 8.080905 3.652193 12.791211z m642.734874 0v-78.51363c0-0.81065-2.756212-2.141824-3.037806-4.266581-2.534349-19.378812-8.755025-70.876449-35.276094-70.663119-21.281708 0.170663-59.023886 38.655227-73.078005 54.842636-2.261288 2.611148-6.749732 4.599375-5.47829 9.104884l58.272967 40.353326c15.521823 14.13945 31.589768 30.32686 47.632114 43.664193 3.694859 3.071939 4.676173 6.980127 10.95658 5.478291z m-475.851813 51.702432c-12.16829 1.894362-29.738072 12.475484-33.774257 24.805903-17.851376 54.63784 76.030479 91.637633 102.406484 47.623581 14.463711-24.131784-8.567295-53.63946-30.949781-63.947521-8.208902-3.780191-29.575942-9.753405-37.690979-8.490496z m277.42165 3.66926c-27.570648 6.058545-57.573248 40.617854-40.737319 68.760224 19.293481 32.263888 75.424624 19.796937 94.829036-7.372653 29.260215-40.95918-11.30644-70.79965-54.091717-61.396105z m-222.08409 164.26338l-104.198449-47.597981c-11.989093-0.691186-17.757511 4.812704-19.617741 16.067945-0.136531 4.31778 2.83301 6.596135 5.580689 9.181683 6.357206 5.998813 52.214422 26.14561 62.360352 29.038352 5.427091 1.544502 6.229209-2.039426 5.290561 7.389719-18.039106 5.555089-50.32006 11.161377-65.713885 20.121197-6.911862 4.027653-13.559195 13.106938-10.623788 21.495037 3.728992 5.538023 8.362499 11.33204 15.376759 9.028086 31.256975-13.798124 69.929267-19.950534 100.076931-35.241962 7.969974-4.044719 11.878162-9.65954 15.197563-17.817243l-3.746059-11.664833z m245.226027 14.079718c12.577882-18.056172 62.087291-22.425151 71.320173-40.054665 5.486824-7.833443-3.003673-17.48445-11.03338-18.525496-37.102191 6.860663-71.192176 29.243148-105.504022 44.415111l-9.121951 12.944808 3.746058 11.664833 115.189162 40.208262c12.449884-3.421798 19.549476-17.271121 8.473431-26.947727-12.407218-10.84565-56.242075-15.35116-73.069471-23.705126z" fill="#F8C37E" p-id="4269"></path><path d="M662.617142 701.467522c5.333227 1.228775 13.584795 7.133724 23.414998 3.251135l2.150357-3.251135c2.389286-0.230395 5.102831 0.392525 7.304387 0 8.01264 2.278354-0.418125 10.461657-1.885828 14.549042-5.384426 14.984234-10.000867 33.50973-8.243036 48.656094 4.027653 34.695839 9.215816 45.823083 32.204156 70.040198 2.48315 2.619681 2.662347 6.85213 4.240982 8.430765 9.599808 9.616874 45.916948 24.481643 59.561475 26.256541 24.857103 3.234069 48.519563-5.290561 73.026805-3.64366 6.783864 0.452258 13.823723-1.800497 16.383673 7.355586-167.173188 174.477576-576.039674 169.622206-734.227443-16.366606-3.421798-4.027653-2.99514-8.592895-3.464464-9.198749h27.399985c30.915648 12.390152 61.157176 18.235368 94.240248 10.256861 6.459604-3.592461 39.508543-15.496223 42.042892-18.252435 1.279974-1.390906 0.981314-4.863903 2.457551-6.579068 2.781811-3.225535 7.253188-3.106071 8.353966-4.462844 16.980994-20.889182 30.958314-66.405071 22.775011-92.405618l-0.059732-34.636107c26.094411 3.48153 48.400098-1.962627 70.646053-15.180496 18.943621-11.255241 32.758811-28.722625 53.468797-37.82751 52.726412-23.167536 96.757531-12.569349 142.324619 18.465764 28.270368 19.259348 28.628761 25.949347 65.893081 34.542242z m-171.644566 47.469984c-32.494283 5.956147-59.399345 35.899015-71.268974 65.679752-4.590841 11.528303-6.843596 17.236988-1.672499 29.183416 21.307307 4.607908 21.076912-18.679093 29.695405-34.021719 10.30806-18.363366 23.449131-29.669806 43.194869-37.15339 18.986287-7.201989 30.045266-6.135344 48.613428 2.619681 15.334093 7.227589 29.311414 24.712039 37.102191 39.585341 4.454311 8.507563 5.580688 29.081018 18.346299 29.174883 15.206096 0.102398 7.98704-21.204909 4.735906-30.343926-10.461657-29.413811-40.669053-60.46599-72.241755-64.724038-2.491683-10.33366 5.776951-6.348673 13.576262-10.17153 16.400739-8.029706 38.82589-28.620227 32.272421-48.451297-10.837117-32.784411-74.084918-34.243582-100.768117-23.68806-15.334093 6.067079-29.285814 21.068378-23.773391 38.689359 5.947614 19.003353 21.776631 28.381299 38.527229 36.325674l3.652193 7.304387z m52.956808 51.13071c-15.376759-4.249515-48.033172 3.123138-65.730952 0l-5.350293 5.597755v10.709119l5.350293 5.597754h62.087291c0.503457 0 5.375892-4.531109 8.712359-4.053252l3.643661-8.763558c0.025599-0.631454-7.739578-8.82329-8.712359-9.096351z" fill="#F9EFDC" p-id="4270"></path><path d="M936.514595 737.980925c-1.083712 50.064065-32.426018 100.358525-65.730951 135.12263-2.559949-9.156083-9.599808-6.903329-16.383672-7.355587-24.507243-1.638367-48.178236 6.877729-73.026806 3.643661-13.644527-1.774898-49.9702-16.639667-59.561475-26.256541-1.578635-1.578635-1.749298-5.811084-4.240982-8.430765-22.98834-24.208582-28.176503-35.335826-32.204155-70.040199-1.757831-15.146364 2.858609-33.67186 8.243035-48.656093 1.467704-4.087385 9.898469-12.270688 1.885829-14.549042 12.33042-2.210089 37.050992-13.175203 51.13071-18.260968 10.350726 7.457984-9.369413 14.907435-12.850943 18.192703-35.062765 33.023339-28.662893 93.933054 9.284081 122.322886 22.894475 17.126057 42.563415 21.913162 71.055645 20.104131 4.420178-0.281594 8.720892-3.720459 14.694106-3.891123 9.727805-0.264528 10.376326 4.821237 23.611261-1.6469 15.820483-7.739578 27.664513-18.081772 34.875035-34.491043 2.67088-6.075612 12.509616-37.076591 12.850943-42.230622 0.179196-2.696479-3.541262-24.524309-4.496976-28.364232-3.592461-14.378379-12.228022-26.956261-18.064706-40.361859l-36.018479-35.199296c26.137077-0.273061 45.908415 1.749298 67.633847 18.184169 18.80709 14.233315 27.809577 39.346413 27.314653 62.155557z" fill="#F9E5CD" p-id="4271"></path><path d="M202.466349 657.641199l2.295421 3.234069 8.66116 0.418125c5.904949 1.638367 11.972027 3.933788 18.260968 3.652193-0.18773 0.076798 0.895982 2.559949-2.065026 3.438865-7.799311 2.329553-13.601861-4.121518-20.889182-2.969541-40.677586 6.451071-69.9634 39.201349-79.290147 78.018706 5.964681 10.743252 2.124757 22.032626 3.728993 32.801477 3.413265 22.868876 14.105318 39.482943 36.308606 47.683312 9.113418 3.370599 29.533276 7.466517 39.15015 8.277168 3.3194 0.281594 26.521069-2.261288 32.135891-2.978074 12.228022-1.570102 36.291541-15.914348 43.81779-25.573888 26.572268-34.107051 19.64334-75.185696-5.375893-107.697045-2.466084-3.208469-12.970407-9.207282-3.686326-12.748545 15.317027 6.306007 40.139997 16.306874 54.782904 18.260968l0.059732 34.636107c8.183303 26.000546-5.794017 71.516436-22.775011 92.405618-1.100778 1.356773-5.572155 1.237309-8.353966 4.462844-1.476237 1.723699-1.177576 5.188163-2.457551 6.579068-2.534349 2.756212-35.583288 14.659973-42.042892 18.252435-33.083071 7.978507-63.3246 2.133291-94.240248-10.273928h-27.399985c-4.974834-6.425471-8.644094-8.516096-14.608774-18.243901l2.244221-31.043646c-4.112984-18.098838-15.888749-35.028632-12.49255-54.091718 3.242602-18.226835 27.903442-63.367265 43.203403-73.641193 7.611581-5.111364 18.329233-3.942321 21.82783-12.868009 0.196263-0.008533 0.733852-2.739145 2.389285-3.140204 1.32264-0.315727 21.947294 2.585548 26.828263 3.140204z" fill="#F9E1C7" p-id="4272"></path><path d="M173.257333 657.641199c-3.498597 8.917155-14.216249 7.756645-21.82783 12.868009-15.291427 10.265395-39.952267 55.405825-43.203402 73.641193-3.396199 19.063085 8.388099 35.99288 12.49255 54.091718l-2.244221 31.043646c-16.742065-27.323187-35.327293-69.886602-32.869743-102.252888 0.853316-11.178443 5.751352-20.735585 11.528303-30.471923 18.585228-31.342306 41.803964-36.786464 76.11581-38.919755z" fill="#F8EAD4" p-id="4273"></path><path d="M841.557562 657.641199l36.018479 35.199296c5.836683 13.405598 14.472244 25.992013 18.064705 40.361859 0.955714 3.83139 4.676173 25.65922 4.496977 28.364232-0.341327 5.15403-10.180063 36.15501-12.850943 42.230622-7.219056 16.409272-19.054552 26.751465-34.875035 34.491043-13.234935 6.468137-13.883456 1.382372-23.611261 1.646901-5.981747 0.16213-10.273928 3.609528-14.694106 3.891122-28.49223 1.80903-48.16117-2.978074-71.055645-20.104131-37.955507-28.389832-44.346846-89.299547-9.284081-122.322886 3.48153-3.285268 23.201669-10.726185 12.850943-18.192703 36.982727-13.354399 52.205889-25.121631 94.9485-25.565355z m35.148097 94.760771c0-38.527229-31.231375-69.758604-69.758605-69.758605s-69.758604 31.231375-69.758604 69.758605 31.231375 69.758604 69.758604 69.758604 69.758604-31.231375 69.758605-69.758604z" fill="#F9D7BC" p-id="4274"></path><path d="M231.683898 664.945586c6.331607-2.662347 36.820597 15.376759 43.826323 18.260968-9.292614 3.541262 1.211709 9.540076 3.686326 12.748545 25.019233 32.51135 31.948161 73.581461 5.375893 107.697045-7.526249 9.65954-31.589768 24.003786-43.81779 25.573889-5.614821 0.716786-28.81649 3.259668-32.135891 2.978073-9.616874-0.81065-30.028199-4.906568-39.15015-8.277167-22.203289-8.200369-32.895342-24.82297-36.308607-47.683313-1.604235-10.768851 2.235689-22.058225-3.728992-32.801477 9.326747-38.817357 38.604028-71.576168 79.290147-78.018706 7.295854-1.151977 13.089871 5.290561 20.889182 2.969541 2.961007-0.887449 1.877296-3.362066 2.065026-3.438865zM170.262193 799.394096c0.64852 0.622921 14.48931 6.937461 16.34954 7.398252 5.427091 1.34824 33.782791 4.838303 39.397612 4.34338 12.245088-1.075178 30.642587-14.275981 38.604027-23.790457 12.432818-14.847703 13.550662-31.939628 10.888316-51.190443-0.861849-6.246275-11.545369-26.896529-16.298341-31.180176-26.802664-24.17445-71.908961-19.054552-93.327199 9.190216-12.68028 16.716466-15.957014 50.268861-6.553469 68.785824 0.930115 1.826097 10.231262 15.752218 10.948047 16.434871z" fill="#F9D2B5" p-id="4275"></path><path d="M191.518301 387.39594c0.494923-4.718839-3.140204-8.345433-3.652193-12.791211-3.199936-27.801044 4.121518-84.29058 12.688813-111.46017 11.289374-35.813683 31.231375-37.793377 60.184395-16.18741 12.893609 9.625407 31.905495 26.623467 40.387459 39.943735 2.252755 3.541262 5.273494 5.222296 3.472997 10.862716-1.083712 3.703393-48.434231 32.212689-56.549268 38.433364-17.040726 13.072805-32.426018 28.415431-46.138811 45.157496-3.234069 3.950854-3.686326 7.526249-10.393392 6.032946z" fill="#F8C7B5" p-id="4276"></path><path d="M834.253175 387.39594c-6.280408 1.501837-7.261721-2.406352-10.956581-5.478291-16.033813-13.337333-32.110291-29.533276-47.632114-43.664193l-58.272967-40.353326c-1.271441-4.50551 3.217002-6.50227 5.47829-9.104884 14.054119-16.187409 51.796297-54.671973 73.078005-54.842636 26.521069-0.213329 32.733212 51.284307 35.276094 70.663119 0.281594 2.124757 3.037806 3.455931 3.037806 4.266581v78.51363z" fill="#F8C8B7" p-id="4277"></path><path d="M358.401362 439.098372c8.115038-1.262908 29.482077 4.710306 37.69098 8.490496 22.382485 10.30806 45.413491 39.815737 30.94978 63.947521-26.376006 44.014053-120.257861 7.005726-102.406484-47.62358 4.027653-12.338953 21.597435-22.911542 33.774257-24.805904z" fill="#F8EFDC" p-id="4278"></path><path d="M635.823012 442.767632c42.785277-9.403545 83.351932 20.436924 54.091717 61.396105-19.404412 27.16959-75.527022 39.628007-94.829036 7.372652-16.83593-28.14237 13.16667-62.701679 40.737319-68.760224z" fill="#F8EEDB" p-id="4279"></path><path d="M413.738922 607.031012l3.746058 11.664833c-3.3194 8.157703-7.227589 13.772524-15.197562 17.817243-30.147663 15.299961-68.82849 21.443838-100.076931 35.241962-7.022793 2.312487-11.647767-3.490064-15.376759-9.028086-2.935408-8.388099 3.711926-17.475917 10.623787-21.495037 15.393825-8.968354 47.674779-14.566109 65.713885-20.121197 0.938648-9.429145 0.136531-5.836683-5.290561-7.389719-10.14593-2.892742-56.003146-23.039539-62.360352-29.038352-2.747678-2.594081-5.717219-4.863903-5.580688-9.181683 1.860229-11.255241 7.628647-16.759131 19.617741-16.067945l104.198448 47.597981z" fill="#532F26" p-id="4280"></path><path d="M658.964949 621.11073c16.827397 8.362499 60.662253 12.868009 73.069471 23.705126 11.076045 9.68514 3.976454 23.525929-8.473431 26.947727l-115.189162-40.208262-3.746058-11.664833 9.121951-12.944808c34.311847-15.171963 68.401831-37.554449 105.504022-44.415111 8.029706 1.032513 16.51167 10.692053 11.03338 18.525496-9.241415 17.629514-58.742291 21.998493-71.320173 40.054665z" fill="#563227" p-id="4281"></path><path d="M688.182497 701.467522l-2.150357 3.251135c-9.82167 3.882589-18.081772-2.02236-23.414998-3.251135 8.362499-0.546122 17.305254 0.81065 25.565355 0z" fill="#F9E5CD" p-id="4282"></path><path d="M213.42293 661.293393l-8.66116-0.418125-2.295421-3.234069c7.884642 0.904515 9.47181 3.242602 10.956581 3.652194z" fill="#F9D2B5" p-id="4283"></path><path d="M487.320383 741.633118c-16.750598-7.944374-32.588148-17.32232-38.527229-36.325673-5.512423-17.620981 8.439298-32.622281 23.773391-38.689359 26.683199-10.555522 89.931001-9.087818 100.768117 23.688059 6.553469 19.83107-15.871682 40.421591-32.272421 48.451298-7.799311 3.822857-16.067945-0.170663-13.576262 10.17153 31.572702 4.249515 61.780097 35.301694 72.241755 64.724038 3.251135 9.139017 10.478724 30.446324-4.735905 30.343926-12.765611-0.085332-13.891989-20.658787-18.3463-29.174883-7.790777-14.873302-21.768098-32.357753-37.102191-39.585341-18.568162-8.755025-29.627141-9.82167-48.613427-2.619681-19.737205 7.483584-32.878275 18.781491-43.194869 37.15339-8.618494 15.342626-8.388099 38.629627-29.695406 34.021719-5.171097-11.946428-2.926875-17.655113 1.6725-29.183416 11.869629-29.780737 38.774691-59.723605 71.268974-65.679752 2.175956-0.401059 4.923635 0.238929 7.304387-0.008534v-1.80903c-3.370599-5.794017-8.123571-4.138584-10.956581-5.478291z" fill="#532F28" p-id="4284"></path><path d="M543.929384 800.068216c0.972781 0.273061 8.737959 8.464897 8.712359 9.096351l-3.643661 8.763558c-3.345-0.469324-8.217436 4.053252-8.712359 4.053253H478.198432l-5.350293-5.597755v-10.709119l5.350293-5.597755c17.697779 3.123138 50.362726-4.249515 65.730952 0z" fill="#593429" p-id="4285"></path><path d="M487.320383 741.633118c2.83301 1.339707 7.585982-0.307194 10.948047 5.478291v1.80903c-2.372219 0.247462-5.119898-0.392525-7.295854 0.008534l-3.652193-7.304388z" fill="#CDBDB1" p-id="4286"></path><path d="M876.705659 752.40197c0 38.527229-31.231375 69.758604-69.758605 69.758604s-69.758604-31.231375-69.758604-69.758604 31.231375-69.758604 69.758604-69.758605 69.758604 31.231375 69.758605 69.758605z m-100.111064 28.637293c4.932168 4.974834 22.578748 11.212576 30.104998 11.86963 17.254055 1.493303 39.423211-8.234502 42.14529-27.527983 3.208469-22.723812-5.000433-40.890915-25.710419-50.96858-16.110611-7.841976-25.283761-6.869196-39.918135 3.592461-14.625841 10.453124-21.879029 24.959501-17.748978 43.135137 0.494923 2.175956 9.779004 18.551095 11.127244 19.907869z" fill="#F9C9A9" p-id="4287"></path><path d="M170.262193 799.394096c-0.708252-0.682653-10.017933-14.608774-10.948047-16.434871-9.395012-18.516963-6.118278-52.069358 6.553469-68.785824 21.418238-28.244768 66.524536-33.364666 93.327199-9.190216 4.752972 4.283648 15.436491 24.933901 16.298341 31.180176 2.67088 19.250815 1.553036 36.34274-10.888316 51.190443-7.969974 9.514476-26.358939 22.715279-38.604028 23.790457-5.606288 0.494923-33.97052-2.99514-39.397611-4.34338-1.868763-0.469324-15.709552-6.775331-16.34954-7.398252z m71.746831-79.017086c-12.868009-12.432818-53.383465-5.717219-60.815849 12.757079-14.310114 35.583288 3.950854 57.112457 41.30904 52.26562 21.50357-2.790344 35.241962-24.276848 30.497523-45.003899-0.409592-1.783431-10.162997-19.216682-10.990714-20.010266z" fill="#FAC4A5" p-id="4288"></path><path d="M776.594595 781.039263c-1.339707-1.356773-10.632321-17.740445-11.127244-19.907868-4.121518-18.175636 3.131671-32.682013 17.748978-43.135137 14.634374-10.461657 23.807524-11.434438 39.918135-3.592461 20.709986 10.086198 28.918888 28.244768 25.710419 50.96858-2.722079 19.302014-24.891235 29.029819-42.14529 27.527982-7.526249-0.64852-25.17283-6.886262-30.104998-11.869629z" fill="#FAB995" p-id="4289"></path><path d="M242.009024 720.37701c0.819184 0.793584 10.581122 18.226835 10.990714 20.010267 4.744438 20.727052-8.993953 42.213555-30.497523 45.003899-37.349653 4.846836-55.619154-16.682333-41.30904-52.265621 7.432385-18.474297 47.956374-25.181363 60.815849-12.757078z" fill="#FAB795" p-id="4290"></path></svg>