<?xml version="1.0" standalone="no"?><!DOCTYPE svg PUBLIC "-//W3C//DTD SVG 1.1//EN" "http://www.w3.org/Graphics/SVG/1.1/DTD/svg11.dtd"><svg t="1772951554629" class="icon" viewBox="0 0 1024 1024" version="1.1" xmlns="http://www.w3.org/2000/svg" p-id="3718" xmlns:xlink="http://www.w3.org/1999/xlink" width="200" height="200"><path d="M165.165107 21.973333c39.3728-7.005867 111.351467 39.799467 143.735467 62.557867 23.9104 16.810667 44.893867 45.533867 75.502933 42.513067 24.3456-2.397867 52.727467-10.478933 77.585067-12.049067 64.571733-4.078933 132.625067 2.5856 195.054933 15.880533 30.045867-26.0096 60.757333-51.669333 94.839467-72.3968 39.0912-23.765333 89.745067-52.736 133.290667-24.507733 47.6672 30.890667 69.3504 140.100267 75.8784 193.092267 6.621867 53.751467-2.218667 112.5888 4.224 162.8672 3.882667 30.336 34.500267 90.2144 43.776 127.394133 36.949333 148.078933 8.149333 279.5776-117.367467 373.768533-188.194133 141.226667-513.169067 145.262933-714.427733 30.114134C8.501641 824.661333-29.898359 675.677867 20.721374 492.885333c8.456533-30.523733 32.017067-75.323733 35.626667-102.9376 3.669333-28.100267-1.425067-64.324267-0.110934-93.841066 2.321067-52.061867 10.8544-119.432533 25.617067-170.001067 12.253867-41.9584 35.925333-95.6928 83.319467-104.123733zM31.959774 685.474133c1.1776 27.502933 12.680533 53.1968 24.448 77.431467 7.0656 14.5408 11.9296 20.215467 20.3776 32.605867 32.494933 47.658667 52.974933 62.7968 101.888 93.730133 7.748267 4.898133 12.347733 7.825067 20.3776 12.228267 30.609067 16.7936 52.4544 25.514667 85.5808 36.676266 6.8352 2.304 11.195733 2.5088 16.298667 4.078934 46.1056 14.139733 95.9232 29.3632 144.494933 32.776533 86.459733 6.084267 174.532267-1.851733 258.961067-24.6272 8.686933-2.346667 14.907733-6.391467 20.3776-8.149333 29.883733-9.634133 57.1648-18.2016 85.5808-32.605867 7.3728-3.7376 13.482667-8.1664 20.3776-12.228267 37.623467-22.144 69.4272-43.869867 97.809066-77.431466 4.6592-5.504 8.055467-10.632533 12.228267-16.298667 3.413333-4.650667 3.413333-7.150933 4.078933-8.149333 0.264533-0.401067 2.295467-1.2544 4.078934-4.078934 2.474667-3.9168 5.2992-7.202133 8.149333-12.228266 24.328533-42.9312 31.086933-65.425067 36.676267-114.107734 0.008533-0.1024 2.107733 0.110933 2.1248 0 5.9392-58.624-4.138667-110.788267-20.352-167.202133-8.183467-28.4928-31.394133-74.632533-34.688-99.797333-4.010667-30.660267 1.792-69.870933 0.110933-101.9904-3.029333-57.7792-17.0752-153.2672-42.871467-205.7216-28.433067-57.821867-65.3056-45.934933-113.578666-19.652267-41.685333 22.698667-79.5648 53.4528-115.2512 84.445867-7.816533 0.810667-16.0256 1.143467-23.8592 0.426666-20.113067-1.8432-44.672-9.8304-65.373867-12.0576-55.697067-5.9904-115.652267-2.8672-171.008 4.061867-14.5664 1.826133-42.641067 12.637867-55.1936 6.144-33.655467-27.434667-70.8864-57.250133-108.526933-78.933333-44.7232-25.770667-88.814933-45.952-118.997334 10.146133-23.552 43.776-37.8624 133.179733-41.258666 182.8864-2.6368 38.621867 4.6592 85.230933-0.1536 122.112-3.4816 26.6752-26.888533 73.352533-35.6352 102.929067-18.824533 63.675733-22.263467 105.7536-21.3504 170.171733 0.093867 6.724267-3.029333 19.003733 4.061866 22.4256z" fill="#502D24" p-id="3719"></path><path d="M993.743241 665.096533c-10.555733-19.217067-16.187733-39.1936-34.56-53.060266-12.731733-9.608533-24.669867-10.9056-38.792534-16.221867-14.165333-5.333333-28.672-5.213867-44.8256-4.078933-3.2 0.221867-6.485333-0.341333-9.915733 0.093866-21.367467 2.756267-41.7024 15.197867-63.445333 16.2048-1.646933-14.600533-14.634667-26.069333-28.526934-28.526933 31.837867-94.250667-109.7728-146.1248-148.8384-57.1392-12.526933 28.526933-4.650667 50.4832 6.203734 77.5168-1.467733 3.336533-1.553067 15.240533-4.078934 20.3776-57.642667-50.926933-125.789867-73.924267-197.0176-31.965867-16.2816 9.591467-29.678933 25.5488-47.505066 31.965867 0.6144-5.205333-0.7424-11.2384 0-16.298667 1.792-12.177067 10.811733-20.3776 12.219733-30.5664 4.078933-29.559467-3.080533-60.066133-26.410667-79.5392-32.008533-26.7264-85.495467-21.794133-112.221866 10.1888-16.827733 20.138667-23.7568 50.312533-16.2304 75.4688-8.081067 1.220267-18.269867 7.108267-24.448 12.228267-5.1968 4.309333-7.816533 7.492267-12.228267 12.228267-24.968533-5.7344-45.303467-11.9808-71.3216-12.202667-6.621867-0.059733-19.072-2.944-22.417067 4.053333-10.4704 0.580267-10.350933 2.141867-16.298666 4.078934-38.724267 12.586667-62.907733 44.0064-61.1328 85.5808-7.099733-3.413333-3.968-15.701333-4.061867-22.4256-0.913067-64.418133 2.517333-106.504533 21.3504-170.171734 8.746667-29.585067 32.1536-76.2624 35.6352-102.929066 4.8128-36.881067-2.491733-83.490133 0.1536-122.112 3.396267-49.698133 17.7152-139.101867 41.258667-182.8864 30.173867-56.098133 74.274133-35.9168 118.997333-10.146134 37.640533 21.691733 74.871467 51.5072 108.526933 78.933334 12.552533 6.493867 40.6272-4.317867 55.1936-6.144 55.355733-6.929067 115.310933-10.052267 171.008-4.061867 20.701867 2.2272 45.252267 10.2144 65.373867 12.0576 7.825067 0.7168 16.034133 0.392533 23.8592-0.426667 35.677867-30.993067 73.557333-61.7472 115.2512-84.445866 48.273067-26.282667 85.1456-38.1696 113.578667 19.652266 25.796267 52.4544 39.842133 147.9424 42.871466 205.7216 1.681067 32.128-4.113067 71.338667-0.110933 101.9904 3.285333 25.173333 26.504533 71.313067 34.688 99.797334 16.2048 56.413867 26.2912 108.578133 20.352 167.202133-0.008533 0.1024-2.107733-0.110933-2.1248 0zM141.997107 226.9952c-1.595733 19.114667 0 41.4976 0 61.1328 0 0.452267 6.016 8.2688 8.149334 4.087467 13.422933-12.074667 25.147733-26.9568 38.638933-38.801067 7.432533-6.528 18.935467-16.221867 26.743467-22.161067 16.341333-12.424533 38.8352-22.6304 54.2208-35.438933 3.259733-2.7136 7.867733-3.601067 6.920533-9.591467-0.059733-6.058667-26.2912-31.1552-32.6912-36.753066-35.9168-31.402667-69.4016-54.331733-87.808 6.1184-5.888 19.328-12.603733 52.6592-14.165333 71.415466z m679.202134-107.323733c-18.389333 4.1216-59.9296 42.760533-72.072534 58.3168-3.140267 4.027733-5.6064 6.109867-3.720533 11.9808 2.432 8.379733 35.328 22.5792 44.475733 28.970666 26.2656 18.3552 47.803733 45.653333 71.415467 67.1488 10.990933 10.001067 16.930133 12.928 18.449067-5.998933 2.6368-32.887467-3.9936-85.469867-13.3376-117.2992-4.590933-15.633067-10.496-31.232-23.355734-41.847467-6.314667-3.182933-15.086933-2.781867-21.853866-1.271466zM324.021641 351.965867c-7.5008 1.6384-23.620267 15.3856-26.461867 22.442666-10.018133 24.814933 2.9184 49.595733 23.8592 64.401067 19.182933 13.568 57.216 21.751467 77.218133 8.149333 40.337067-27.434667 12.398933-74.845867-24.285866-89.6-14.916267-5.998933-34.414933-8.8576-50.321067-5.384533z m334.293333 0.110933c-24.482133 4.206933-63.547733 34.875733-59.332267 61.508267 12.040533 76.049067 137.864533 31.377067 125.149867-27.016534-6.5536-30.088533-38.562133-39.168-65.8176-34.491733z" fill="#F7C27E" p-id="3720"></path><path d="M821.199241 119.671467c6.766933-1.518933 15.547733-1.911467 21.853866 1.271466 12.859733 10.615467 18.7648 26.2144 23.355734 41.847467 9.344 31.829333 15.9744 84.411733 13.3376 117.2992-1.518933 18.926933-7.458133 16.008533-18.449067 5.998933-23.611733-21.495467-45.149867-48.785067-71.415467-67.1488-9.147733-6.4-42.043733-20.590933-44.475733-28.970666-1.885867-5.870933 0.580267-7.953067 3.720533-11.9808 12.1344-15.556267 53.6832-54.1952 72.072534-58.3168zM141.997107 226.9952c1.5616-18.747733 8.285867-52.087467 14.165334-71.415467 18.4064-60.450133 51.899733-37.512533 87.808-6.1184 6.4 5.597867 32.631467 30.6944 32.6912 36.753067 0.9472 5.981867-3.652267 6.869333-6.920534 9.591467-15.3856 12.808533-37.879467 23.0144-54.2208 35.438933-7.808 5.9392-19.319467 15.633067-26.743466 22.161067-13.4912 11.8528-25.207467 26.7264-38.638934 38.801066-2.133333 4.181333-8.149333-3.626667-8.149333-4.087466 0-19.626667-1.595733-42.018133 0-61.1328z" fill="#FAC6B7" p-id="3721"></path><path d="M658.314974 352.0768c27.255467-4.676267 59.264 4.4032 65.8176 34.491733 12.714667 58.3936-113.109333 103.0656-125.149867 27.016534-4.215467-26.632533 34.850133-57.309867 59.332267-61.508267z" fill="#F8EFDD" p-id="3722"></path><path d="M324.021641 351.965867c15.906133-3.464533 35.4048-0.6144 50.321066 5.384533 36.6848 14.754133 64.622933 62.165333 24.285867 89.6-20.002133 13.602133-58.0352 5.418667-77.218133-8.149333-20.9408-14.805333-33.877333-39.586133-23.8592-64.401067 2.850133-7.057067 18.961067-20.804267 26.461866-22.442667z" fill="#F8EFDC" p-id="3723"></path><path d="M626.963507 620.270933c5.179733 4.5824 6.920533 10.2144 12.279467 14.216534 8.285867 6.178133 21.026133 5.034667 26.4192 14.327466 11.818667 20.369067 27.972267 76.296533 33.7152 100.770134 11.989333 51.131733 15.0528 101.589333 13.346133 154.103466l-8.328533 46.685867c-84.4288 22.784-172.501333 30.711467-258.961067 24.6272-48.580267-3.421867-98.397867-18.6368-144.494933-32.776533-0.554667-12.782933 0.8704-25.838933-0.085333-38.6304-3.720533-49.7664-4.394667-87.850667 5.0176-137.787734 7.773867-41.2928 25.642667-80.392533 36.002133-120.900266 15.3088 0.2816 38.613333-7.944533 40.576-24.6272 17.826133-6.417067 31.223467-22.3744 47.505067-31.965867 71.227733-41.9584 139.374933-18.961067 197.0176 31.965867z m-123.349333-27.921066c-9.472 1.553067-20.462933 2.346667-28.8256 4.1216-4.590933 0.9728-25.557333 12.1088-29.329067 15.496533-33.681067 30.2336 16.554667 73.2672 49.1264 77.5168 21.742933 2.833067 55.893333-5.9904 71.3984-22.203733 27.7504-29.013333 10.0096-59.008-24.3968-69.632-4.309333-1.3312-34.833067-5.8112-37.9648-5.2992z m-8.251733 142.8992c-9.506133 1.245867-24.738133 6.690133-32.887467 11.912533-11.153067 7.159467-43.818667 43.8784-27.153067 54.545067 19.336533 12.373333 23.082667-16.529067 30.7456-26.496 16.631467-21.632 56.2688-20.113067 75.264-2.082134 8.302933 7.876267 12.270933 32.64 18.568534 34.4064 22.365867 6.289067 19.5584-15.1808 13.226666-29.5168-12.407467-28.066133-47.8464-46.685867-77.764266-42.769066z" fill="#FAF0DD" p-id="3724"></path><path d="M810.353374 909.6192c-28.416 14.404267-55.697067 22.9632-85.5808 32.605867-2.491733-11.042133 3.601067-20.4544 4.2496-30.3872 3.541333-53.717333 0-122.461867-13.252267-174.5664-7.9872-31.4112-23.313067-61.2608-31.752533-92.544 13.474133 2.5856 30.839467-9.147733 42.6752-8.362667 6.7072 0.443733 11.477333 6.493867 17.0496 7.722667 7.722667 1.706667 15.658667-0.264533 23.406933 1.041066l4.5568 3.592534c13.380267 28.8768 26.555733 61.508267 33.7152 92.6208 9.856 42.871467 12.663467 102.0416 9.173334 146.030933-0.631467 8.0128-5.009067 14.2848-4.2496 22.2464z" fill="#A0DEF5" p-id="3725"></path><path d="M199.050974 901.469867c-9.361067-63.675733-5.205333-126.8224 13.226667-188.501334 6.408533-21.435733 16.9984-42.504533 23.7312-63.8976 17.570133 5.469867 41.710933-15.496533 54.792533-15.4112 6.6816 0.042667 20.1984 14.344533 30.498133 11.1104 4.667733 3.6352-20.3776 65.7152-23.4496 76.3392-17.083733 59.025067-22.229333 128.9984-17.467733 190.728534 0.6912 8.968533 6.0416 16.904533 4.2496 26.3168-33.1264-11.1616-54.971733-19.882667-85.5808-36.676267z" fill="#9FDEF5" p-id="3726"></path><path d="M773.677107 579.515733c13.892267 2.466133 26.88 13.9264 28.526934 28.526934 2.773333 24.644267-9.1904 21.8368-11.938134 31.0528-2.56 8.576 3.618133 9.147733 3.7888 9.7024 9.352533 29.602133 21.521067 59.392 28.526934 89.659733 2.56 11.050667 6.698667 27.374933 8.149333 36.676267 1.3312 8.5504 3.541333 25.856 4.078933 32.605866 2.338133 29.687467-0.170667 60.3904-4.078933 89.659734-6.894933 4.061867-13.0048 8.490667-20.3776 12.228266-0.759467-7.9616 3.618133-14.2336 4.2496-22.2464 3.490133-43.989333 0.682667-103.168-9.173333-146.030933-7.150933-31.112533-20.334933-63.744-33.7152-92.6208l-4.5568-3.592533c-7.748267-1.3056-15.684267 0.6656-23.406934-1.041067-5.572267-1.2288-10.3424-7.278933-17.0496-7.722667-11.835733-0.785067-29.2096 10.948267-42.6752 8.362667 8.448 31.274667 23.765333 61.1328 31.752534 92.544 13.252267 52.104533 16.802133 120.849067 13.252266 174.5664-0.657067 9.9328-6.741333 19.345067-4.2496 30.3872-5.461333 1.7664-11.690667 5.802667-20.3776 8.149333l8.328534-46.685866c1.706667-52.514133-1.3568-102.971733-13.346134-154.103467-5.742933-24.4736-21.896533-80.401067-33.7152-100.770133-5.393067-9.2928-18.133333-8.149333-26.4192-14.327467-5.367467-4.002133-7.099733-9.634133-12.279466-14.216533 2.525867-5.137067 2.602667-17.041067 4.078933-20.3776 2.773333-6.289067 15.812267-6.894933 20.3776-8.149334h8.157867v8.149334c-6.621867 1.288533-14.1824 11.016533-12.1856 18.286933 3.831467 13.943467 55.637333 12.0064 66.884266 1.672533 1.809067-0.657067 1.783467-2.193067 2.3552-3.652266 14.071467-0.5888 25.309867 10.487467 38.775467 12.168533 25.856 3.234133 44.945067-15.761067 18.2784-32.546133-5.3504-3.370667-3.310933-3.712-12.228267-4.078934-2.542933-0.1024-5.905067-0.4096-8.149333 0l4.078933-8.1408c-6.698667 0.401067-13.730133-0.6144-20.3776-0.008533v-2.1248c9.847467-2.304 26.734933-3.712 36.676267-1.954133z" fill="#42B6E0" p-id="3727"></path><path d="M382.440841 603.963733c-0.7424 5.060267 0.6144 11.093333 0 16.298667-1.962667 16.682667-25.2672 24.9088-40.576 24.6272-10.359467 40.507733-28.228267 79.607467-36.002134 120.900267-9.403733 49.937067-8.738133 88.021333-5.0176 137.787733 0.955733 12.791467-0.477867 25.847467 0.085334 38.6304-5.102933-1.570133-9.463467-1.774933-16.298667-4.078933 1.792-9.403733-3.5584-17.348267-4.2496-26.3168-4.7616-61.730133 0.384-131.703467 17.467733-190.728534 3.072-10.624 28.117333-72.704 23.4496-76.3392-10.299733 3.2256-23.816533-11.067733-30.498133-11.1104-13.0816-0.085333-37.230933 20.8896-54.792533 15.4112-6.7328 21.393067-17.322667 42.461867-23.7312 63.8976-18.432 61.687467-22.587733 124.834133-13.226667 188.501334-8.029867-4.4032-12.629333-7.3216-20.3776-12.228267-1.262933-24.746667-5.947733-48.401067-4.078933-73.352533 0.571733-7.6544 2.696533-25.412267 4.078933-36.676267 1.186133-9.719467 5.828267-25.685333 8.149333-36.676267 7.005867-33.152 16.887467-66.090667 32.2816-96.3328 0.930133-5.410133-6.869333-11.793067-11.904-13.704533l-4.078933-28.526933c4.411733-4.736 7.031467-7.918933 12.228267-12.228267 8.192-2.602667 10.862933 7.330133 12.228266 8.149333-7.227733 2.773333-4.744533 15.291733-2.141866 20.48 9.173333 18.295467 49.9968 1.664 63.266133-8.260266 15.8464 17.1776 75.144533 28.919467 77.431467 0 2.039467-25.813333-30.609067-20.104533-48.904534-20.3776 0.349867-0.068267 0.708267-3.498667 5.879467-4.138667 23.287467-2.875733 41.309867 1.595733 59.332267 16.366933z" fill="#43B6DE" p-id="3728"></path><path d="M109.391241 595.8144c8.6016-0.477867 17.851733-0.2816 26.5216 0 4.676267 0.1536 11.1872-2.653867 10.154666 4.061867-11.639467-1.6128-26.094933 13.585067-32.682666 22.340266-3.3024 4.386133-27.127467 42.9312-27.861334 45.4912-4.2496 14.737067-0.554667 63.863467 5.376 79.044267 8.558933 21.896533 46.1568 44.2624 69.538134 40.686933 7.5264-1.152 10.2656-9.1136 18.235733-8.234666-1.373867 11.272533-3.498667 29.021867-4.078933 36.676266 2.619733-22.263467-6.4-5.282133-18.338134-4.096-20.616533 2.039467-33.066667-9.130667-53.000533-10.5216-2.875733-0.2048-6.724267 3.336533-11.5968 2.090667-4.701867-1.2032-11.460267-16.0768-14.8736-7.850667-8.448-12.3904-13.312-18.056533-20.3776-32.605866l12.398933-22.340267c-6.306133-17.220267-11.2128-38.826667-12.586666-56.968533-2.440533-32.375467 27.4176-49.28 40.183466-74.282667 3.643733-7.133867 9.813333-10.632533-3.319466-9.429333 5.947733-1.937067 5.8368-3.498667 16.298666-4.078934z" fill="#FAE1CA" p-id="3729"></path><path d="M920.390707 595.8144c14.122667 5.316267 26.069333 6.613333 38.792534 16.221867 18.372267 13.866667 24.004267 33.8432 34.56 53.060266-5.589333 48.682667-12.356267 71.176533-36.676267 114.107734l-2.030933-4.053334-10.018134 10.385067-0.1792 3.84 4.087467 2.065067c-1.783467 2.816-3.8144 3.677867-4.078933 4.078933l-8.132267 6.1184 4.053333 2.030933c-4.164267 5.666133-7.569067 10.794667-12.228266 16.298667-0.955733-6.050133-6.5792-7.441067-11.835734-8.567467l-0.392533-11.810133c7.0144-2.3296 20.189867-18.3296 26.427733-24.635733 2.781867-2.807467 7.5264-2.909867 9.3952-4.744534 2.8928-2.833067 11.562667-21.316267 11.613867-25.617066 0.068267-6.852267-6.126933-17.774933-6.7328-24.6272-0.750933-8.516267 3.7632-14.3104 3.319467-19.464534-4.0704-47.880533-9.710933-61.994667-41.984-96.520533-5.623467-6.016-11.4176-9.045333 2.039466-8.149333z" fill="#F9EDDB" p-id="3730"></path><path d="M916.311774 799.581867l0.392533 11.810133c5.256533 1.1264 10.88 2.517333 11.835734 8.567467-28.381867 33.5616-60.1856 55.287467-97.809067 77.431466 3.899733-29.269333 6.417067-59.972267 4.078933-89.659733 11.477333 3.464533 22.4 5.632 34.577067 4.002133 8.814933-1.1776 37.640533-9.070933 46.9248-12.151466zM76.785374 795.502933c3.413333-8.234667 10.180267 6.638933 14.8736 7.850667 4.872533 1.245867 8.712533-2.286933 11.5968-2.090667 19.933867 1.390933 32.384 12.561067 53.000533 10.5216 11.938133-1.186133 20.957867-18.167467 18.338134 4.096-1.877333 24.951467 2.816 48.6144 4.078933 73.352534-48.913067-30.941867-69.393067-46.08-101.888-93.730134z" fill="#FAEEDB" p-id="3731"></path><path d="M93.092574 599.893333c13.1328-1.2032 6.9632 2.304 3.319467 9.429334-12.765867 25.002667-42.624 41.9072-40.183467 74.282666 1.373867 18.141867 6.272 39.748267 12.586667 56.968534l-12.398934 22.340266c-11.767467-24.234667-23.278933-49.928533-24.448-77.431466-1.774933-41.5744 22.408533-73.002667 61.1328-85.5808z" fill="#F8ECD9" p-id="3732"></path><path d="M957.066974 779.204267c-2.850133 5.026133-5.674667 8.302933-8.149333 12.228266l-4.087467-2.065066 0.1792-3.84 10.018133-10.385067 2.030934 4.053333zM940.759774 803.6608l-4.053333-2.030933 8.132266-6.1184c-0.6656 0.9984-0.657067 3.5072-4.078933 8.149333z" fill="#FAEEDB" p-id="3733"></path><path d="M382.440841 603.963733c-18.0224-14.7712-36.0448-19.234133-59.332267-16.366933-5.162667 0.64-5.521067 4.0704-5.879467 4.138667-34.568533 6.493867-24.712533-6.6048-47.530666-11.562667-7.099733-1.544533-22.664533-1.757867-29.9008-0.6656-7.534933-25.156267-0.597333-55.330133 16.2304-75.4688 26.717867-31.982933 80.2048-36.9152 112.221866-10.1888 23.330133 19.473067 30.4896 49.979733 26.410667 79.5392-1.408 10.197333-10.427733 18.389333-12.219733 30.5664z m-76.7488-77.312c0-12.014933-9.745067-21.76-21.76-21.76s-21.76 9.745067-21.76 21.76 9.745067 21.76 21.76 21.76 21.76-9.745067 21.76-21.76zM773.677107 579.515733c-9.941333-1.757867-26.837333-0.349867-36.6848 1.954134v2.1248c-12.672 1.152-18.235733 7.330133-26.5472 8.260266-13.047467 1.4592-34.269867-6.510933-53.154133-4.2496-5.102933 0.6144-5.5296 4.0448-5.879467 4.138667-4.565333 1.2544-17.604267 1.860267-20.3776 8.149333-10.8544-27.0336-18.722133-48.989867-6.203733-77.5168 39.0656-88.977067 180.676267-37.111467 148.8384 57.1392z m-85.486933-53.4528c0-12.458667-10.094933-22.5536-22.5536-22.5536s-22.5536 10.094933-22.5536 22.5536 10.094933 22.5536 22.5536 22.5536 22.5536-10.094933 22.5536-22.5536z" fill="#503028" p-id="3734"></path><path d="M875.556574 591.735467l10.325333 20.0704c12.219733 13.678933 38.1952 38.673067 41.992534 55.995733 4.164267 18.986667 1.450667 55.68-6.596267 73.565867-14.7712 32.8192-57.437867 45.073067-90.5472 33.7664-1.450667-9.301333-5.589333-25.6256-8.149333-36.676267 11.579733-6.7072 15.991467 9.403733 30.4128 8.2944 5.495467-0.426667 21.819733-6.9376 26.564266-10.402133 3.6352-2.653867 18.858667-25.5744 19.8656-29.0304 7.9616-27.357867-14.72-55.048533-36.1984-68.599467-19.140267-12.074667-28.433067-12.381867-50.039466-5.4272l-19.131734 15.5136c-0.1792-0.554667-6.357333-1.1264-3.7888-9.7024 2.756267-9.216 14.72-6.4 11.938134-31.0528 21.742933-1.006933 42.069333-13.448533 63.445333-16.2048 3.4304-0.443733 6.715733 0.128 9.915733-0.093867z" fill="#F9CDB1" p-id="3735"></path><path d="M920.390707 595.8144c-13.457067-0.896-7.662933 2.133333-2.039466 8.149333 32.273067 34.5344 37.922133 48.64 41.984 96.520534 0.4352 5.154133-4.078933 10.9568-3.319467 19.464533 0.605867 6.852267 6.8096 17.783467 6.7328 24.6272-0.042667 4.3008-8.721067 22.784-11.613867 25.617067-1.8688 1.834667-6.613333 1.937067-9.3952 4.744533-6.2464 6.306133-19.413333 22.306133-26.427733 24.635733-9.284267 3.080533-38.109867 10.965333-46.9248 12.151467-12.1856 1.629867-23.108267-0.5376-34.577067-4.002133-0.529067-6.749867-2.7392-24.046933-4.078933-32.605867 33.109333 11.306667 75.767467-0.9472 90.5472-33.7664 8.055467-17.885867 10.760533-54.5792 6.596267-73.565867-3.797333-17.322667-29.7728-42.308267-41.992534-55.995733l-10.325333-20.0704c16.1536-1.134933 30.660267-1.262933 44.8256 4.078933z" fill="#FAE0C9" p-id="3736"></path><path d="M203.121374 603.963733l4.078933 28.526934c-10.222933-3.8912-27.067733-2.926933-38.101333-7.586134-18.4832 11.229867-37.444267 17.809067-46.634667 38.9888-13.687467 31.522133-15.214933 67.643733 15.573334 88.704 17.186133 11.758933 36.360533 5.7344 48.7936-10.077866-2.321067 10.990933-6.9632 26.9568-8.149334 36.676266-7.970133-0.878933-10.709333 7.082667-18.235733 8.234667-23.389867 3.584-60.9792-18.781867-69.538133-40.686933-5.930667-15.1808-9.6256-64.3072-5.376-79.044267 0.7424-2.56 24.558933-41.105067 27.861333-45.4912 6.587733-8.7552 21.034667-23.953067 32.682667-22.340267 1.041067-6.715733-5.4784-3.908267-10.154667-4.061866-8.669867-0.2816-17.92-0.477867-26.5216 0 3.345067-6.997333 15.7952-4.113067 22.417067-4.053334 26.018133 0.221867 46.353067 6.4768 71.3216 12.202667z" fill="#FAD2B8" p-id="3737"></path><path d="M317.237641 591.735467c18.295467 0.273067 50.944-5.435733 48.904533 20.3776-4.565333-8.772267-17.493333-12.4928-26.478933-12.561067-17.536-0.128-31.522133 17.152-50.952534 8.482133-20.232533-9.028267-18.389333-14.8736-46.7968-12.16-4.283733 0.4096-11.639467 5.632-14.327466 4.010667-1.365333-0.827733-4.036267-10.760533-12.228267-8.149333 6.178133-5.12 16.375467-11.008 24.448-12.228267 7.227733-1.092267 22.801067-0.8704 29.9008 0.6656 22.818133 4.949333 12.970667 18.056533 47.530667 11.562667z" fill="#56BADF" p-id="3738"></path><path d="M503.614174 592.349867c3.131733-0.512 33.655467 3.968 37.9648 5.2992 34.4064 10.624 52.1472 40.618667 24.3968 69.632-15.505067 16.213333-49.655467 25.0368-71.3984 22.203733-32.571733-4.241067-82.798933-47.274667-49.1264-77.5168 3.780267-3.387733 24.746667-14.523733 29.329067-15.496533 8.362667-1.774933 19.362133-2.568533 28.8256-4.1216z" fill="#533229" p-id="3739"></path><path d="M495.362441 735.249067c29.9264-3.9168 65.365333 14.702933 77.764266 42.769066 6.340267 14.344533 9.147733 35.8144-13.226666 29.5168-6.2976-1.7664-10.2656-26.530133-18.568534-34.4064-19.003733-18.030933-58.641067-19.549867-75.264 2.082134-7.662933 9.966933-11.409067 38.869333-30.7456 26.496-16.674133-10.666667 16-47.394133 27.153067-54.545067 8.149333-5.230933 23.381333-10.666667 32.887467-11.912533z" fill="#593428" p-id="3740"></path><path d="M822.581641 738.449067c-7.005867-30.2592-19.1744-60.0576-28.526934-89.659734l19.131734-15.5136c21.6064-6.954667 30.8992-6.647467 50.039466 5.4272 21.4784 13.550933 44.16 41.2416 36.1984 68.599467-1.006933 3.456-16.2304 26.376533-19.8656 29.0304-4.753067 3.464533-21.0688 9.984-26.564266 10.402133-14.421333 1.109333-18.833067-15.0016-30.4128-8.2944z" fill="#F9BC9D" p-id="3741"></path><path d="M761.448841 591.735467l2.5344 3.626666 9.693866 0.443734c26.666667 16.785067 7.5776 35.780267-18.2784 32.546133-13.4656-1.681067-24.704-12.757333-38.775466-12.168533 0.605867-1.527467-1.348267-5.376 0.546133-7.492267l7.6032-4.736c6.912-1.220267 19.566933-10.589867 28.526933-12.228267 2.244267-0.4096 5.6064-0.1024 8.149334 0z" fill="#C8E9F3" p-id="3742"></path><path d="M724.772574 603.963733l-7.6032 4.736c-1.885867 2.116267 0.059733 5.9648-0.546133 7.492267s-0.546133 2.9952-2.3552 3.652267c-11.246933 10.333867-63.0528 12.270933-66.884267-1.672534-1.9968-7.261867 5.572267-16.9984 12.1856-18.286933 19.328-3.754667 43.246933 7.9616 65.2032 4.078933z" fill="#AEE2F4" p-id="3743"></path><path d="M736.992307 583.586133c6.638933-0.605867 13.678933 0.4096 20.3776 0.008534l-4.078933 8.1408c-8.96 1.629867-21.614933 10.999467-28.526933 12.228266-21.956267 3.8912-45.8752-7.8336-65.2032-4.078933v-8.157867h-8.149334c0.349867-0.093867 0.776533-3.524267 5.879467-4.138666 18.8928-2.261333 40.1152 5.7088 53.154133 4.2496 8.302933-0.930133 13.866667-7.108267 26.5472-8.260267zM773.677107 595.8144l-9.693866-0.443733-2.5344-3.626667c8.917333 0.366933 6.869333 0.708267 12.228266 4.078933z" fill="#5BB9DF" p-id="3744"></path><path d="M207.200307 632.490667c5.034667 1.911467 12.834133 8.2944 11.904 13.704533-15.394133 30.242133-25.2672 63.1808-32.2816 96.3328-12.433067 15.812267-31.607467 21.828267-48.7936 10.077867-30.788267-21.060267-29.2608-57.181867-15.573333-88.704 9.198933-21.179733 28.16-27.758933 46.634667-38.9888 11.042133 4.6592 27.886933 3.694933 38.101333 7.586133z" fill="#FAC0A1" p-id="3745"></path><path d="M288.710707 608.042667v4.078933c-13.277867 9.924267-54.101333 26.5472-63.266133 8.260267-2.602667-5.188267-5.085867-17.706667 2.141867-20.48 2.688 1.621333 10.043733-3.601067 14.327466-4.010667 28.407467-2.7136 26.564267 3.131733 46.7968 12.16z" fill="#DCF0F6" p-id="3746"></path><path d="M288.710707 608.042667c19.421867 8.661333 33.408-8.618667 50.952534-8.482134 8.9856 0.068267 21.922133 3.7888 26.478933 12.561067-2.286933 28.919467-61.585067 17.1776-77.431467 0v-4.078933z" fill="#A8E1F4" p-id="3747"></path><path d="M283.932041 526.651733m-21.76 0a21.76 21.76 0 1 0 43.52 0 21.76 21.76 0 1 0-43.52 0Z" fill="#EEE7DC" p-id="3748"></path><path d="M665.636574 526.062933m-22.5536 0a22.5536 22.5536 0 1 0 45.1072 0 22.5536 22.5536 0 1 0-45.1072 0Z" fill="#F1E9DE" p-id="3749"></path></svg>