<?xml version="1.0" standalone="no"?><!DOCTYPE svg PUBLIC "-//W3C//DTD SVG 1.1//EN" "http://www.w3.org/Graphics/SVG/1.1/DTD/svg11.dtd"><svg t="1772951569671" class="icon" viewBox="0 0 1024 1024" version="1.1" xmlns="http://www.w3.org/2000/svg" p-id="4830" xmlns:xlink="http://www.w3.org/1999/xlink" width="200" height="200"><path d="M154.514202 11.349333c38.784-8.482133 83.447467 16.810667 115.694933 36.497067 21.742933 13.269333 44.177067 29.610667 64.324267 45.2352 11.605333 9.002667 17.655467 23.150933 34.798933 23.816533 8.072533 0.315733 12.253867-3.012267 18.372267-3.822933 85.9648-11.383467 177.5872-12.868267 262.946133 6.084267 12.680533-3.822933 19.396267-16.4608 29.0816-24.4736 29.175467-24.157867 75.8784-57.9328 110.421333-72.183467 37.282133-15.377067 77.4144-21.0944 107.008 11.9296 40.4992 45.201067 61.841067 174.429867 65.604267 233.864533 2.3296 36.8384-4.445867 81.655467 0.136533 116.727467 3.524267 26.9824 30.2848 79.095467 39.227734 110.506667 47.4368 166.570667 22.724267 308.3008-123.4432 411.630933-192.418133 136.021333-505.856 142.5408-705.937067 19.6864C-10.187665 814.532267-30.838332 648.9856 32.351002 455.253333c5.9392-18.2016 22.5792-49.834667 24.721066-66.577066 4.360533-34.005333-1.885867-77.678933-0.093866-113.314134 2.9184-58.129067 16.008533-144.904533 38.4512-198.929066 9.9072-23.850667 32.068267-59.178667 59.0848-65.083734zM31.574468 686.378667c0.8704 46.805333 32.520533 104.311467 62.08 138.7776 82.0992 95.726933 225.237333 148.9152 348.603734 160.8448 171.716267 16.605867 411.016533-39.68 509.610666-193.7152 0.341333-0.529067 4.360533-1.749333 6.792534-5.879467 14.592-24.7808 31.889067-67.8144 33.3824-96.375467l7.458133-49.134933c-2.261333-47.522133-10.496-94.788267-23.7824-140.8768-8.558933-29.6704-35.1744-82.619733-38.391467-107.690667-3.643733-28.4416 1.3568-65.1776 0.093867-95.0528-2.594133-61.525333-17.152-181.2736-51.7888-233.0624-30.762667-45.994667-67.157333-27.281067-106.666667-5.418666-42.871467 23.722667-79.274667 57.301333-117.9136 86.596266l-65.322666-10.385066c-59.1104-5.435733-119.7824-5.4272-178.798934 0l-61.653333 10.478933c-35.2512-27.784533-70.2976-58.180267-109.354667-80.648533-12.672-7.287467-47.0784-25.582933-59.844266-27.8016-48.546133-8.413867-66.013867 44.706133-76.928 82.346666-20.736 71.517867-29.687467 169.463467-26.615467 243.959467 0.904533 21.9136 3.490133 22.664533-4.2752 46.523733-24.823467 76.270933-55.5008 148.010667-54.152533 231.022934l7.458133 45.4912z" fill="#492921" p-id="4831"></path><path d="M992.052335 690.030933c2.449067-46.848-28.936533-84.3008-73.0368-94.9504-0.315733-0.0768-0.674133-3.157333-5.265067-3.712-12.091733-1.4592-33.2544-0.802133-45.866666 0.059734-40.763733 2.7648-67.694933 22.126933-102.254934 36.522666-7.7056 3.208533-21.9136 8.635733-29.218133 10.9568-6.2464 1.988267-11.8272 2.756267-18.261333 3.652267-2.6112 0.366933-5.8624-0.7168-8.6784 0.401067l-2.2784 3.2512c-79.2064 0.2304-83.857067-45.329067-145.041067-68.599467-27.861333-10.5984-68.334933-11.963733-97.058133-3.6864-54.459733 15.701333-81.92 75.989333-145.006934 72.285867-10.3168-0.605867-30.165333-4.411733-40.174933-7.304534-11.605333-3.3536-21.9392-9.864533-32.8704-14.609066-25.173333-10.922667-51.618133-26.513067-80.341333-29.218134-2.397867-0.221867-4.8896 0.128-7.304534 0l-2.141866-3.2512c-6.562133-0.887467-13.2096-0.4096-19.771734-0.401066-8.465067 0.017067-17.962667-1.4592-25.565866 1.749333v1.902933C64.538735 598.4768 30.704068 639.547733 31.574468 686.378667l-7.458133-45.4912c-1.348267-83.012267 29.329067-154.752 54.152533-231.022934 7.765333-23.8592 5.179733-24.610133 4.2752-46.523733-3.072-74.496 5.879467-172.4416 26.615467-243.959467 10.914133-37.640533 28.381867-90.760533 76.928-82.346666 12.765867 2.210133 47.172267 20.514133 59.844267 27.8016 39.057067 22.468267 74.103467 52.864 109.354666 80.648533l61.653334-10.478933c59.025067-5.4272 119.688533-5.435733 178.798933 0l65.322667 10.385066c38.638933-29.2864 75.050667-62.8736 117.9136-86.596266 39.517867-21.8624 75.912533-40.567467 106.666666 5.418666 34.645333 51.797333 49.194667 171.537067 51.7888 233.0624 1.262933 29.866667-3.746133 66.602667-0.093866 95.0528 3.208533 25.070933 29.832533 78.011733 38.391466 107.690667 13.294933 46.08 21.521067 93.354667 23.7824 140.8768l-7.458133 49.134933zM144.786202 284.654933c10.794667 1.237333 12.893867-10.752 18.184533-16.503466 14.506667-15.778133 39.1936-36.206933 56.6016-49.3056 8.507733-6.4 60.16-38.2464 60.194133-41.924267-5.034667-3.882667-6.920533-9.992533-10.743466-14.677333-10.6496-13.0304-47.2832-44.5696-62.08-51.140267-12.8-5.674667-20.6848-8.1664-32.836267 0.187733-21.8112 14.993067-20.599467 58.197333-29.320533 80.238934v93.124266z m678.144-178.346666c-27.639467 4.539733-65.723733 48.708267-82.594134 70.647466 45.346133 33.416533 91.818667 65.2288 129.373867 107.682134 5.768533-3.908267 5.077333-6.724267 5.5552-12.689067 2.525867-31.735467-3.729067-88.618667-11.921067-119.7056-5.0688-19.242667-14.967467-50.116267-40.413866-45.934933zM677.018735 340.002133c-3.643733 0.341333-14.1056 2.7648-18.3552 3.857067-35.234133 9.088-75.281067 47.906133-49.570133 84.539733 28.757333 40.968533 118.818133 5.5296 116.5824-47.0272-0.520533-12.168533-11.707733-30.173867-23.168-35.438933-5.410133-2.4832-19.857067-6.4768-25.489067-5.9392z m-354.517333 3.677867c-24.507733 5.393067-32.341333 33.092267-27.392 55.415467 2.7136 12.2368 22.263467 30.318933 33.3056 36.087466 17.6128 9.198933 51.259733 16.1536 68.258133 4.590934 21.282133-14.481067 27.170133-42.257067 12.782933-63.7184-7.406933-11.0592-35.310933-29.585067-47.9744-32.366934-7.944533-1.749333-31.044267-1.749333-38.980266 0z m76.0576 193.186133c0-44.381867-35.976533-80.3584-80.3584-80.3584s-80.3584 35.976533-80.3584 80.3584 35.976533 80.3584 80.3584 80.3584 80.3584-35.976533 80.3584-80.3584z m376.96-0.247466c0-44.4416-36.027733-80.477867-80.477867-80.477867s-80.477867 36.027733-80.477867 80.477867 36.027733 80.477867 80.477867 80.477866 80.477867-36.027733 80.477867-80.477866z" fill="#F7C17B" p-id="4832"></path><path d="M775.519002 536.618667c0 44.4416-36.027733 80.477867-80.477867 80.477866s-80.477867-36.027733-80.477867-80.477866 36.027733-80.477867 80.477867-80.477867 80.477867 36.027733 80.477867 80.477867z m-94.446934-54.203734c-0.7424-0.750933-17.851733-7.970133-19.5328-7.970133-21.589333 4.0704-33.664 28.970667-14.805333 44.142933 12.398933 9.966933 21.888 5.205333 34.338133-0.750933 4.932267-8.1664 6.519467-28.8768 0-35.421867z" fill="#4D2C25" p-id="4833"></path><path d="M398.559002 536.866133c0 44.381867-35.976533 80.3584-80.3584 80.3584s-80.3584-35.976533-80.3584-80.3584 35.976533-80.3584 80.3584-80.3584 80.3584 35.976533 80.3584 80.3584z m-23.3472-36.266666c0-13.576533-11.008-24.584533-24.584534-24.584534s-24.584533 11.008-24.584533 24.584534 11.008 24.584533 24.584533 24.584533 24.584533-11.008 24.584534-24.584533z" fill="#4C2C24" p-id="4834"></path><path d="M144.786202 284.654933V191.530667c8.7296-22.0416 7.517867-65.245867 29.320533-80.238934 12.16-8.354133 20.036267-5.8624 32.836267-0.187733 14.7968 6.562133 51.4304 38.101333 62.08 51.140267 3.822933 4.6848 5.7088 10.794667 10.743466 14.677333-0.034133 3.677867-51.677867 35.524267-60.194133 41.924267-17.408 13.098667-42.094933 33.527467-56.6016 49.3056-5.290667 5.76-7.389867 17.7408-18.184533 16.503466zM822.930202 106.308267c25.4464-4.181333 35.345067 26.692267 40.413866 45.934933 8.183467 31.086933 14.446933 87.970133 11.921067 119.7056-0.477867 5.9648 0.213333 8.7808-5.5552 12.689067-37.5552-42.453333-84.027733-74.2656-129.373867-107.682134 16.8704-21.9392 54.9632-66.107733 82.594134-70.647466z" fill="#F7C6B4" p-id="4835"></path><path d="M677.018735 340.002133c5.632-0.529067 20.078933 3.456 25.489067 5.9392 11.460267 5.265067 22.647467 23.2704 23.168 35.438934 2.235733 52.548267-87.825067 87.9872-116.5824 47.0272-25.719467-36.6336 14.336-75.451733 49.570133-84.539734 4.2496-1.1008 14.711467-3.515733 18.3552-3.857066zM322.501402 343.68c7.936-1.749333 31.044267-1.7408 38.980266 0 12.672 2.781867 40.567467 21.307733 47.9744 32.366933 14.378667 21.461333 8.4992 49.237333-12.782933 63.7184-16.9984 11.562667-50.6368 4.608-68.258133-4.590933-11.042133-5.768533-30.592-23.842133-33.3056-36.087467-4.949333-22.3232 2.875733-50.0224 27.392-55.415466z" fill="#F6EDDA" p-id="4836"></path><path d="M681.072068 482.414933c6.519467 6.536533 4.932267 27.255467 0 35.421867-12.4416 5.956267-21.9392 10.7264-34.338133 0.750933-18.858667-15.163733-6.784-40.072533 14.805333-44.142933 1.681067 0 18.7904 7.2192 19.5328 7.970133z" fill="#EFE7D8" p-id="4837"></path><path d="M350.618735 500.599467m-24.584533 0a24.584533 24.584533 0 1 0 49.169066 0 24.584533 24.584533 0 1 0-49.169066 0Z" fill="#EEE4D2" p-id="4838"></path><path d="M707.192602 646.203733c3.652267-0.008533 7.304533 0 10.9568 0l3.3792 4.872534c-2.722133 4.1216-6.306133 5.9904-7.1168 11.477333-2.235733 15.0528-1.408 53.504-0.068267 69.632 4.138667 49.937067 38.920533 87.3728 86.869333 99.387733 11.921067 2.986667 31.479467 7.424 43.1104 8.328534 6.075733 0.469333 11.272533-3.6864 17.92-3.950934 11.537067-0.452267 41.2672 3.413333 47.709867-3.413333 5.777067-17.032533 15.249067-25.984 29.038933-36.693333 1.9712-1.536 11.835733-10.043733 12.885334-3.549867-98.594133 154.0352-337.8944 210.321067-509.610667 193.7152-123.3664-11.9296-266.504533-65.1264-348.603733-160.8448l23.688533 0.0512c55.765333 20.206933 122.1888 12.9792 168.1152-25.540267 5.896533-4.949333 19.592533-18.210133 23.202133-24.277333 20.590933-34.594133 8.430933-90.564267 11.426134-129.1776 63.086933 3.712 90.555733-56.576 145.006933-72.285867 28.7232-8.285867 69.1968-6.912 97.058133 3.6864 61.184 23.2704 65.834667 68.829867 145.041067 68.599467z m-216.516267-50.3552c-29.9008 4.189867-64.5376 24.507733-49.314133 58.717867 16.9216 38.007467 78.993067 49.911467 112.349866 26.231467 28.014933-19.882667 38.912-50.338133 7.304534-72.849067-17.015467-12.117333-49.851733-14.976-70.340267-12.100267zM349.296068 697.335467c-0.5376 0.4608-2.653867-0.0512-3.285333 2.0992-0.008533 7.671467-1.8176 17.672533 0.1024 24.823466 0.512 1.92 3.072 2.030933 3.182933 2.295467 17.8432 40.6784 48.375467 50.440533 91.306667 47.470933 0.768 22.109867-4.727467 63.470933 14.677333 78.446934 9.053867 6.9888 22.792533 12.834133 32.785067 5.5552 0 18.3808-1.6128 37.341867 5.5808 54.698666 12.279467 29.6448 61.277867 23.048533 67.464533-9.053866v-133.290667c52.087467 14.276267 118.152533-6.929067 109.192534-70.843733l-15.6928-9.335467c-16.904533 9.540267-9.301333 29.815467-20.317867 41.9584-20.1216 22.178133-70.673067 10.897067-95.163733-0.059733-7.1424-3.191467-13.755733-10.7008-20.590934-12.253867-19.3792-4.4032-32.0256 9.309867-48.6656 15.889067-23.765333 9.3952-68.437333 18.1504-85.8112-5.597867-10.4192-14.250667-7.355733-56.567467-34.756266-32.802133z" fill="#F7EEDB" p-id="4839"></path><path d="M111.915802 595.072l21.905066 1.8176c-42.436267 29.073067-70.1184 66.3552-65.655466 120.448 0.4352 5.265067 2.9184 19.720533 4.164266 25.053867 3.421867 14.600533 21.742933 41.053867 34.6112 49.3824 5.205333 3.370667 27.4944 13.371733 32.930134 14.549333 29.832533 6.442667 72.081067 4.292267 99.712-8.704 45.6448-21.461333 65.143467-80.034133 50.619733-127.018667-3.2256-10.427733-13.2096-18.875733-10.299733-31.6928 10.001067 2.8928 29.858133 6.698667 40.174933 7.304534-2.9952 38.621867 9.1648 94.583467-11.426133 129.1776-3.6096 6.0672-17.297067 19.328-23.202134 24.277333-45.9264 38.519467-112.349867 45.755733-168.1152 25.540267l-23.688533-0.0512C64.086468 790.690133 32.436335 733.192533 31.565935 686.378667c-0.8704-46.830933 32.964267-87.901867 80.341333-91.298134z" fill="#F8E4CE" p-id="4840"></path><path d="M919.007002 595.072c44.1088 10.6496 75.485867 48.1024 73.0368 94.9504-1.493333 28.5696-18.7904 71.594667-33.3824 96.375467-2.432 4.1216-6.4512 5.341867-6.792534 5.879466-1.0496-6.493867-10.914133 2.013867-12.885333 3.549867-13.789867 10.709333-23.261867 19.669333-29.038933 36.693333-6.4512 6.826667-36.1728 2.9696-47.709867 3.413334-6.647467 0.256-11.8528 4.420267-17.92 3.950933-11.630933-0.896-31.189333-5.341867-43.1104-8.328533-47.9488-12.0064-82.730667-49.450667-86.869333-99.387734-1.339733-16.136533-2.167467-54.587733 0.068266-69.632 0.810667-5.4784 4.394667-7.355733 7.1168-11.477333l-3.3792-4.872533v-3.652267c6.434133-0.896 12.014933-1.664 18.261334-3.652267 11.938133-1.322667 6.6304 3.2512 4.5056 9.984-9.352533 29.636267-13.986133 44.0832-8.106667 75.793067 12.842667 69.265067 67.541333 102.0672 136.123733 92.398933 31.2064-4.394667 52.317867-31.0528 79.2576-44.910933 2.773333-2.5856 5.947733-7.953067 6.7328-11.528533 4.155733-19.114667 6.340267-49.408 4.1728-68.693334-1.774933-15.8208-25.2416-65.3312-36.292266-76.919466-5.2224-5.486933-13.832533-7.543467-18.397867-14.472534l14.600533-5.461333z" fill="#F6E5CF" p-id="4841"></path><path d="M867.883802 591.419733l-9.1392 7.304534c8.8064 5.179733 19.985067 5.504 30.0032 10.171733 7.697067 3.584 13.815467 9.659733 19.3024 15.394133-10.222933 0.7936-16.887467 6.144-21.9136 14.609067l-6.894934-0.375467c-0.110933-3.754667-2.158933-4.7616-4.061866-6.929066-1.467733-1.664-1.425067-5.666133-5.828267-6.946134-12.6208-3.669333-24.285867 12.177067-30.6944 21.546667l-7.304533-3.652267-3.541334-16.5376-14.907733-0.085333c-8.917333 17.024-28.475733 26.555733-25.429333 47.880533 0.631467 4.437333 3.6608 4.949333 3.712 5.265067 2.0992 13.0048-4.317867 24.1664 0.657066 41.344 6.016 20.744533 34.346667 40.157867 56.0128 39.236267 12.612267-0.5376 37.691733-10.171733 45.0816-20.829867 14.4896-20.8896 16.733867-46.327467 0.512-67.054933 8.285867-7.569067 13.3632-21.589333 21.9136-29.218134 0.256 1.348267 14.7712 15.189333 17.783467 20.565334 13.661867 24.413867 8.8576 75.127467-7.253333 97.698133-3.447467 4.829867-25.130667 20.514133-31.146667 23.6288-24.004267 12.450133-44.6208 12.6976-70.826667 9.710933-53.060267-10.914133-71.227733-56.0384-69.4016-106.112l11.118934-60.100266c34.56-14.395733 61.4912-33.749333 102.254933-36.522667z" fill="#F8D2B4" p-id="4842"></path><path d="M919.007002 595.072l-14.600534 5.461333c4.565333 6.9376 13.175467 8.994133 18.397867 14.472534 11.042133 11.588267 34.5088 61.098667 36.292267 76.919466 2.167467 19.285333-0.017067 49.578667-4.1728 68.693334-0.776533 3.575467-3.950933 8.951467-6.7328 11.528533-26.939733 13.858133-48.059733 40.507733-79.2576 44.910933-68.5824 9.668267-123.281067-23.133867-136.123734-92.398933-5.879467-31.701333-1.245867-46.1568 8.106667-75.793067 2.1248-6.724267 7.432533-11.306667-4.5056-9.984 7.304533-2.321067 21.512533-7.748267 29.218133-10.9568l-11.118933 60.100267c-1.826133 50.082133 16.349867 95.197867 69.4016 106.112 26.205867 2.986667 46.813867 2.7392 70.826667-9.710933 6.016-3.1232 27.6992-18.798933 31.146666-23.6288 16.1024-22.570667 20.9152-73.284267 7.253334-97.698134-3.012267-5.376-17.527467-19.217067-17.783467-20.565333-2.261333-11.989333 2.474667-8.0384-7.304533-18.261333-5.486933-5.7344-11.605333-11.810133-19.3024-15.394134-10.018133-4.667733-21.1968-4.992-30.0032-10.171733l9.1392-7.304533c12.612267-0.853333 33.7664-1.518933 45.866666-0.059734 4.5824 0.554667 4.949333 3.6352 5.265067 3.712z" fill="#F8E0C8" p-id="4843"></path><path d="M247.041135 624.290133c-12.049067-0.810667-6.869333 1.911467-1.826133 7.304534 10.282667 10.9824 25.1904 26.1632 27.383466 42.001066 1.544533 11.178667 1.399467 39.7312-0.059733 51.063467-3.643733 28.416-33.4592 50.568533-57.130667 63.3856-25.634133 3.438933-46.011733 7.8592-71.6544-0.2048-27.818667-8.746667-40.832-19.5584-51.976533-46.626133-16.648533-40.3968-9.591467-76.1856 20.0704-107.861334 17.6896-18.884267 27.758933-21.845333 51.1488-29.2096 8.891733-2.798933 8.96-0.469333 3.703467-9.0624 28.7232 2.705067 55.176533 18.295467 80.341333 29.218134z m8.456533 73.386667c0-41.890133-33.962667-75.8528-75.8528-75.8528s-75.8528 33.962667-75.8528 75.8528 33.962667 75.8528 75.8528 75.8528 75.8528-33.962667 75.8528-75.8528z" fill="#F8D4B7" p-id="4844"></path><path d="M137.481668 591.419733l2.141867 3.2512c6.5536 1.143467 13.226667 0.0512 19.771733 0.401067 2.414933 0.128 4.906667-0.221867 7.304534 0 5.256533 8.6016 5.188267 6.263467-3.703467 9.0624-23.389867 7.3728-33.4592 10.325333-51.1488 29.2096-29.661867 31.675733-36.718933 67.456-20.0704 107.861333 11.153067 27.0592 24.1664 37.870933 51.976533 46.626134 25.642667 8.064 46.020267 3.652267 71.6544 0.2048 23.671467-12.817067 53.486933-34.9696 57.130667-63.3856 1.450667-11.332267 1.604267-39.8848 0.059733-51.063467-2.193067-15.837867-17.1008-31.018667-27.383466-42.001067-5.0432-5.393067-10.222933-8.106667 1.826133-7.304533 10.9312 4.744533 21.265067 11.255467 32.8704 14.609067-2.909867 12.817067 7.082667 21.265067 10.299733 31.6928 14.523733 46.993067-4.974933 105.557333-50.619733 127.018666-27.639467 12.996267-69.888 15.1552-99.712 8.704-5.435733-1.1776-27.7248-11.178667-32.930133-14.549333-12.868267-8.328533-31.189333-34.781867-34.6112-49.3824-1.2544-5.333333-3.729067-19.7888-4.164267-25.053867-4.4544-54.084267 23.2192-91.374933 65.655467-120.448l-21.905067-1.8176v-1.902933c7.6032-3.208533 17.1008-1.732267 25.565867-1.749333z" fill="#F9DBC0" p-id="4845"></path><path d="M159.395268 595.072c-6.545067-0.349867-13.2096 0.750933-19.771733-0.401067l-2.141867-3.2512c6.562133-0.017067 13.2096-0.494933 19.771734 0.401067l2.141866 3.2512z" fill="#F8D4B7" p-id="4846"></path><path d="M718.149402 642.551467v3.652266c-3.652267 0-7.304533-0.008533-10.9568 0l2.2784-3.2512c2.816-1.117867 6.058667-0.034133 8.6784-0.401066z" fill="#F8E0C8" p-id="4847"></path><path d="M349.296068 697.335467c27.400533-23.765333 24.337067 18.551467 34.756267 32.802133 17.373867 23.748267 62.045867 14.993067 85.8112 5.597867 16.64-6.5792 29.277867-20.292267 48.6656-15.889067 6.8352 1.553067 13.448533 9.0624 20.590933 12.253867 24.490667 10.948267 75.042133 22.237867 95.163734 0.059733 11.016533-12.142933 3.421867-32.418133 20.317866-41.9584l15.6928 9.335467c8.96 63.914667-57.105067 85.12-109.184 70.843733v133.290667c-6.1952 32.1024-55.1936 38.698667-67.473066 9.053866-7.1936-17.3568-5.5808-36.317867-5.5808-54.698666-9.992533 7.278933-23.7312 1.4336-32.785067-5.5552-19.413333-14.976-13.909333-56.337067-14.677333-78.446934-42.9312 2.9696-73.463467-6.792533-91.306667-47.470933v-29.218133zM535.041135 904.9856c1.851733-1.7408 4.027733-12.177067 4.317867-15.7696 3.2256-39.6288-2.449067-83.84-0.4864-123.997867l-30.190934-16.452266-42.350933 18.133333c1.493333 17.6128-2.6624 39.560533-0.256 56.507733 0.827733 5.802667 4.855467 9.284267 9.634133 12.407467l28.416-2.978133c20.5568 11.076267-1.604267 71.739733 19.080534 76.066133 1.416533 0.298667 11.093333-3.2256 11.8272-3.9168z" fill="#4F2D25" p-id="4848"></path><path d="M490.676335 595.848533c20.497067-2.875733 53.333333-0.017067 70.340267 12.100267 31.607467 22.510933 20.7104 52.9664-7.304534 72.849067-33.3568 23.68-95.4368 11.776-112.349866-26.231467-15.223467-34.210133 19.413333-54.528 49.314133-58.717867z" fill="#4E2E26" p-id="4849"></path><path d="M349.296068 726.545067c-0.110933-0.264533-2.670933-0.375467-3.182933-2.295467-1.92-7.150933-0.119467-17.143467-0.1024-24.823467 0.64-2.1504 2.756267-1.6384 3.285333-2.0992v29.218134z" fill="#F8E4CE" p-id="4850"></path><path d="M875.188335 631.594667c1.902933 2.167467 3.950933 3.1744 4.061867 6.929066l6.894933 0.375467c-0.512 0.861867 0 4.078933-1.860267 7.1168-5.0688 8.328533-15.7952 16.622933-12.629333 27.451733 3.1744 10.845867 16.0256 3.566933 21.794133-1.706666 16.2304 20.718933 13.986133 46.165333-0.512 67.054933-7.389867 10.658133-32.469333 20.292267-45.0816 20.829867-21.6576 0.9216-49.9968-18.4832-56.0128-39.236267-4.974933-17.169067 1.442133-28.3392-0.657066-41.344 23.0912 4.002133 26.2144-24.814933 40.174933-36.522667l7.304533 3.652267c-0.392533 0.580267 0 4.1984-1.7408 7.2448-4.8128 8.439467-20.616533 18.030933-0.1024 25.7792 2.312533 0.068267 4.701867 0.136533 6.9376-0.529067 6.135467-1.826133 32.989867-36.8896 31.419734-47.095466z" fill="#F9BF9C" p-id="4851"></path><path d="M875.188335 631.594667c1.570133 10.205867-25.284267 45.269333-31.419733 47.095466-2.235733 0.6656-4.625067 0.597333-6.9376 0.529067-20.514133-7.748267-4.7104-17.339733 0.1024-25.7792 1.7408-3.0464 1.339733-6.664533 1.7408-7.2448 6.408533-9.378133 18.065067-25.216 30.6944-21.546667 4.4032 1.28 4.360533 5.282133 5.828266 6.946134z" fill="#F69F7D" p-id="4852"></path><path d="M831.361135 642.551467c-13.952 11.707733-17.083733 40.516267-40.174933 36.522666-0.0512-0.315733-3.080533-0.827733-3.712-5.265066-3.0464-21.3248 16.512-30.856533 25.429333-47.880534l14.907733 0.085334 3.541334 16.5376z" fill="#F59C7B" p-id="4853"></path><path d="M908.050202 624.290133c9.7792 10.2144 5.0432 6.272 7.304533 18.261334-8.5504 7.6288-13.627733 21.649067-21.9136 29.218133-5.768533 5.2736-18.619733 12.552533-21.794133 1.706667-3.165867-10.8288 7.560533-19.1232 12.629333-27.451734 1.851733-3.0464 1.348267-6.254933 1.860267-7.1168 5.026133-8.465067 11.690667-13.806933 21.9136-14.609066z" fill="#F69E7A" p-id="4854"></path><path d="M255.497668 697.6768c0 41.890133-33.962667 75.8528-75.8528 75.8528s-75.8528-33.962667-75.8528-75.8528 33.962667-75.8528 75.8528-75.8528 75.8528 33.962667 75.8528 75.8528z m-79.5648-49.8688c-39.6544 7.458133-56.6016 58.018133-25.813333 86.1952 19.328 17.681067 53.521067 11.741867 67.857067-9.130667 2.961067-4.3008 10.504533-24.4736 10.112-28.672-0.2048-2.184533-2.423467-4.957867-2.833067-8.0896-0.605867-4.6336 0.648533-9.685333-0.580267-14.0544-1.3312-4.744533-26.2912-26.205867-31.163733-27.5456-5.1456 2.0736-14.062933 0.64-17.5872 1.297067z" fill="#F9C7A6" p-id="4855"></path><path d="M535.041135 904.9856c-0.733867 0.6912-10.410667 4.215467-11.8272 3.9168-20.6848-4.3264 1.476267-64.989867-19.080533-76.066133l-28.416 2.978133c-4.7872-3.1232-8.814933-6.596267-9.634134-12.407467-2.4064-16.9472 1.757867-38.8864 0.256-56.507733l42.350934-18.133333 30.190933 16.452266c-1.962667 40.157867 3.712 84.369067 0.4864 123.997867-0.290133 3.584-2.474667 14.020267-4.317867 15.7696z" fill="#99D4E8" p-id="4856"></path><path d="M175.932868 647.808c3.524267-0.6656 12.450133 0.768 17.5872-1.297067 4.872533 1.339733 29.824 22.801067 31.163734 27.5456 1.2288 4.3776-0.0256 9.429333 0.580266 14.0544 0.4096 3.140267 2.628267 5.905067 2.833067 8.0896 0.384 4.1984-7.159467 24.3712-10.112 28.672-14.336 20.872533-48.529067 26.8032-67.857067 9.130667-30.7968-28.177067-13.8496-78.728533 25.813334-86.1952z" fill="#FABB96" p-id="4857"></path></svg>