<?xml version="1.0" standalone="no"?><!DOCTYPE svg PUBLIC "-//W3C//DTD SVG 1.1//EN" "http://www.w3.org/Graphics/SVG/1.1/DTD/svg11.dtd"><svg t="1772951640589" class="icon" viewBox="0 0 1024 1024" version="1.1" xmlns="http://www.w3.org/2000/svg" p-id="1920" xmlns:xlink="http://www.w3.org/1999/xlink" width="200" height="200"><path d="M986.249503 642.510937l-12.501432-31.609312c-18.074564-29.754425-39.249076-40.146876-72.188148-46.02492-0.304913-0.050819-0.804631-3.108418-5.098823-3.582728-53.978067-5.988152-115.697536 29.839123-164.280337 49.455191-19.683827 3.345573-44.771389 6.216837-64.599203 2.845855-31.787178-5.395266-62.405523-47.380089-94.141883-61.118113-52.860053-22.876943-110.065116-12.738587-155.166827 21.377788-6.538689 4.946366-11.417297 12.332036-17.947517 17.337691-23.207266 17.778121-51.23385 29.186948-81.005215 26.620597-7.428019-0.643705-24.638663-4.243372-31.761769-7.055348-45.643779-18.049154-85.748306-44.957725-137.625861-45.872464-7.783751-0.135517-17.278402-0.838511-24.697951 0l-8.393577 0.389611-2.19368 3.142298c-42.433723 8.70696-65.115861 35.471543-74.102323 77.634233-8.418986-62.600329 1.236592-118.772075 19.311155-180.068055 7.453428-25.273898 30.719983-72.560819 33.625126-93.413479 4.607574-33.049179-1.990404-78.006904-0.152457-113.071897 2.896673-55.240068 17.693423-156.420359 46.575458-203.961374 9.935081-16.346724 20.708673-26.264865 40.002889-30.533647 27.958826 4.77697 52.944751 17.905168 77.100635 32.295367 36.818242 21.936795 70.163865 49.793984 103.297742 76.787252 82.224867-18.802967 167.253239-22.300997 250.070992-10.231525 17.549436 2.557881 35.18357 8.977993 52.580549 10.189176 15.559032-12.416734 30.372721-26.561308 46.211257-38.554552 28.119753-21.310029 87.357569-63.887739 120.71166-69.816603 46.719444-8.300409 67.614453 54.74035 77.879857 90.161074 19.55678 67.461997 27.001738 152.414141 22.097722 221.52775-2.989841 42.179629 24.613253 90.957236 37.080806 132.154367 18.218551 60.211844 27.865658 110.065116 19.311155 173.012707zM153.464397 268.467409c40.172285-39.689506 81.301658-75.660768 130.553574-104.119313 1.236592-4.34501-3.116888-6.293065-5.293628-8.808597-14.500306-16.710925-54.096645-55.536511-74.771439-59.322514-24.935106-4.556755-37.216323 20.073438-42.696287 40.655064-7.80916 29.322465-10.121417 71.061664-11.569753 101.527552-0.482779 10.138357 5.979682 19.345035 3.777533 30.059338z m716.333757-3.531909v-82.92786c0-0.398081-3.006781-3.074539-3.531908-7.046878-3.786003-28.263739-9.943551-87.950455-50.598615-78.820005-18.769088 4.217963-57.611614 43.814301-71.137893 59.407212-2.17674 2.515532-6.538689 4.463587-5.293628 8.808597 22.495802 14.856038 45.855524 29.136129 66.89452 46.04186 18.387947 14.77134 35.437664 34.573744 53.080268 49.251916 3.574258 2.972902 4.522876 6.741965 10.587256 5.293628z m-537.459946 57.162714c-11.950895 2.049693-31.041835 18.125383-33.616656 29.873002-12.560721 57.306701 83.283593 96.081468 111.843775 55.384055 11.629042-16.575408 10.172236-37.961666-1.363638-54.113584-13.272184-18.582752-54.689531-34.946415-76.863481-31.143473z m335.302641 0.059289c-38.2327 5.496903-86.510588 43.661845-57.111895 83.83413 24.7403 33.811462 82.792344 12.755526 104.076963-15.711489 14.872978-19.895572 8.003966-52.309516-14.33938-63.438839-11.086975-5.522313-20.352941-6.453991-32.625688-4.692272zM286.541973 484.472846c-23.588407 3.328633-71.23953 32.007393-57.298231 59.339454 10.468679 20.522338 26.222516 5.310568 39.664097 0.660644 31.185822-10.782062 53.698564-15.779247 86.713863-7.072287 14.220803 3.752124 34.573744 18.591222 43.585617 20.141196 3.819882 0.652175 10.460209-5.522313 11.501995-8.927174 5.547722-18.125383-27.603094-44.906906-42.13728-52.385744-24.257522-12.492962-55.1469-15.533622-82.030061-11.747619z m409.328736-0.00847c-31.143473 4.319601-79.167267 30.39813-83.41064 64.107954l8.893295 9.028812 49.734695-20.285183c26.976329-5.048004 49.446722-3.608137 76.101198 3.726714 16.219677 4.463587 33.523488 20.971237 46.778733 6.242247 9.748746-10.832881-0.974028-33.44726-10.485618-42.535361-20.158136-19.243397-61.041885-23.969548-87.611663-20.285183z" fill="#F7C07B" p-id="1921"></path><path d="M153.464397 268.467409c2.202149-10.714303-4.260312-19.920981-3.777533-30.059338 1.448337-30.474358 3.760593-72.205088 11.569753-101.527552 5.479964-20.590096 17.761181-45.211819 42.696287-40.655064 20.683264 3.777533 60.271132 42.603119 74.771439 59.322514 2.17674 2.515532 6.53022 4.463587 5.293628 8.808597-49.260386 28.450075-90.381289 64.429807-130.553574 104.119313z" fill="#F9C4B2" p-id="1922"></path><path d="M869.798154 264.9355c-6.06438 1.448337-7.012999-2.320727-10.587256-5.293628-17.642604-14.678172-34.700791-34.480576-53.080268-49.251916-21.038996-16.905731-44.407188-31.185822-66.89452-46.04186-1.245061-4.34501 3.116888-6.293065 5.293628-8.808597 13.526279-15.592911 52.368804-55.189249 71.137893-59.407212 40.646594-9.13045 46.804142 50.556266 50.598615 78.820005 0.533598 3.972339 3.531909 6.657267 3.531908 7.046878v82.92786z" fill="#F8C6B5" p-id="1923"></path><path d="M332.338208 322.098214c22.173949-3.802942 63.582826 12.560721 76.863481 31.143473 11.544344 16.151918 13.001151 37.538176 1.363638 54.113584-28.560182 40.688943-124.412966 1.922646-111.843775-55.384055 2.574821-11.74762 21.665761-27.823309 33.616656-29.873002zM667.640849 322.157503c12.272747-1.761719 21.538714-0.830041 32.625688 4.692272 22.351815 11.129324 29.220827 43.543267 14.33938 63.438839-21.28462 28.458545-79.336663 49.51448-104.076963 15.711488-29.398693-40.172285 18.879195-78.337226 57.111895-83.834129z" fill="#F6EDDA" p-id="1924"></path><path d="M286.541973 484.472846c26.883161-3.794473 57.77254-0.745343 82.030061 11.747619 14.525716 7.478838 47.685002 34.260361 42.13728 52.385744-1.041786 3.413331-7.682113 9.587819-11.501995 8.927175-9.011873-1.541505-29.364814-16.389073-43.585617-20.141197-33.0153-8.70696-55.528042-3.701305-86.713863 7.072288-13.45005 4.649923-29.195418 19.861693-39.664097-0.660645-13.941299-27.332061 33.709824-56.01082 57.298231-59.339454z" fill="#4E2D26" p-id="1925"></path><path d="M695.870709 484.464376c26.561308-3.684365 67.453527 1.041786 87.611663 20.285183 9.511591 9.079631 20.234364 31.70248 10.485618 42.535361-13.255245 14.728991-30.559056-1.770189-46.778733-6.242247-26.654476-7.343321-49.124869-8.774718-76.101198-3.726714l-49.734695 20.285183-8.893295-9.028812c4.243372-33.709824 52.275636-59.788353 83.41064-64.107954z" fill="#502E27" p-id="1926"></path><path d="M668.674165 953.073277c2.60023 33.099998-1.651612 74.500405-44.280141 70.680523-27.179604-2.439304-35.767986-33.303273-33.371031-56.595237-8.334288-1.634672-15.000025 3.176177-22.775306 3.684365-221.595508 14.500306-520.317061-66.818292-555.864832-323.106121-8.291939-59.771414 4.514406-131.341266 21.953734-189.630464 8.190301-27.38288 31.211231-71.891705 34.378939-96.183106 4.997185-38.21576-2.61717-86.87479 0.127047-126.903088 3.692835-53.783262 21.987614-162.256054 56.324203-204.808355C138.235687 14.009057 158.580159 0.974028 179.873249 0.042349c39.003452-1.702431 114.469415 48.836896 146.34976 72.721746 10.231524 7.665174 33.938509 32.871313 44.364839 33.557367 7.631294 0.499718 26.214046-5.996622 35.242858-7.182395 83.757902-11.002277 167.397226-9.9859 250.070993 6.665737 28.255269-22.419574 54.892806-47.083646 85.638198-66.174586 54.757289-34.006267 120.127244-68.342857 162.992928 1.778659 33.794522 55.273947 50.429219 161.349785 53.639275 225.135886 1.617733 32.244548-4.040097 71.64608-0.093168 102.425352 2.752687 21.504835 26.789993 70.028348 34.378938 96.183106 49.616118 170.988423 18.371007 314.390692-135.550759 413.241785-56.146337 36.05596-122.719005 62.761255-188.232946 74.669801zM40.536487 646.042846c6.979119 51.936844 17.142885 77.871387 45.872464 119.974788 41.434286 60.728502 93.938607 98.783336 162.264524 128.859613 88.263838 38.859465 232.35216 65.098921 326.544862 47.651123 5.793347-1.075665 13.91589 2.219089 17.710362-3.46415l1.609263-31.905756c-14.441018 12.264278-25.714328 25.409415-47.066707 20.590096-21.27615-4.802379-24.265991-22.267117-30.38119-40.172285-23.164917-1.448337-43.365402-4.497466-61.990503-19.167169-41.476635-32.676508-33.159287-79.607697-33.540428-127.013195-26.679886-1.922646-52.148589-16.617757-61.795697-42.315146-5.954273-15.872415-9.613229-42.238918 14.33091-39.054271 11.603633 1.541505 8.67308 20.522338 13.958239 31.939635 13.992118 30.220264 64.099484 22.893883 90.093315 12.332036 13.221366-5.369856 24.105065-19.709236 37.004578-19.717706 11.002277 0 26.341094 13.729554 38.114123 18.608161 32.397004 13.433111 80.276812 20.098847 93.599815-20.717143 2.286847-7.004529-1.499155-16.092629 7.563536-20.657854 11.629042-5.852635 20.691734 3.108418 21.454016 14.3055 0.787692 11.595163-9.858853 26.950919-10.892169 38.563023s3.370982 18.845316 3.811412 28.22986c2.684928 57.806419-1.168833 118.323176-0.152457 176.603904 0.050819 3.006781-1.592323 8.520624 1.75325 8.800127 34.421288-11.154733 69.774254-20.141196 103.052117-34.573744 109.89572-47.642653 196.135274-128.766445 212.786911-251.248295 8.554503-62.947591-1.092605-112.800863-19.311155-173.012707-12.467553-41.197132-40.070647-89.974738-37.080806-132.154367 4.904017-69.113609-2.540941-154.065753-22.097722-221.52775-10.265404-35.412255-31.168882-98.461483-77.879856-90.161074-33.354092 5.928863-92.591908 48.506573-120.711661 69.816602-15.838535 12.001714-30.643754 26.137818-46.211256 38.554553-17.396979-1.211182-35.031113-7.631294-52.58055-10.189176-82.809283-12.069472-167.837656-8.571443-250.070992 10.231525-33.133877-26.993269-66.479499-54.850457-103.297742-76.787252-24.155884-14.390199-49.150278-27.526866-77.100635-32.295367-19.294216 4.268782-30.076278 14.186923-40.002889 30.533647-28.890505 47.541015-43.687254 148.721306-46.575458 203.961374-1.837948 35.064993 4.76003 80.031187 0.152457 113.071897-2.905143 20.84419-26.171697 68.139581-33.625126 93.413479-18.074564 61.295979-27.721672 117.467725-19.311155 180.068054z m462.273487 77.634232l-50.83577 14.449488-5.590071 5.141171c9.892732 36.521799-8.546033 76.626326 26.366503 103.983796 27.027148 21.182982 80.810409 17.024308 100.146974-12.907982 16.973489-26.273335 11.078505-63.523537 9.469242-93.176325l-51.318549-17.490148V799.549592c0 7.351791-13.88201 15.338817-21.26768 10.705833-1.28741-0.813101-6.96218-6.674206-6.96218-7.173925v-79.395952z m141.1493 10.587257l-31.600843 7.216274c0.279504 48.22707 6.818193 95.725736-35.539301 128.54623l-35.251329 17.812c2.337666 14.407138 13.712614 21.682701 26.586718 12.340506 9.316785-32.845904 43.41622-27.120316 47.515606 5.285158 3.438741 27.205014-2.795036 59.839172 0.499719 87.713301 5.64089 9.909672 16.321314 14.398668 23.774742 3.489559 1.041786-1.533035 4.014688-6.191427 4.014688-6.572568V734.255865z" fill="#4B2B23" p-id="1927"></path><path d="M732.172293 610.757638l-10.502558 65.217499c3.718244 37.224793 23.537588 79.734744 58.856675 96.39485 22.114661 10.42633 59.449561 11.070035 83.292062 7.089227 19.785464-3.303224 43.060489-21.326969 58.992192-32.752736 12.933392-9.282906 21.919855-7.012999 24.553964-28.373846 2.100512-17.032778 1.211182-33.379501 0.118578-49.412843-0.626766-9.181269 0.787692-18.303249-0.745343-27.476047-4.463587-26.671416-29.449512-50.776481-46.956599-69.49475-4.870138-5.20893-9.884262-7.83457 1.761719-7.055348 32.947541 5.878045 54.113584 16.270495 72.188148 46.024921l12.501433 31.609312c-16.651637 122.48185-102.882721 203.605642-212.786911 251.248295-33.277864 14.424078-68.63083 23.419011-103.052118 34.573744-3.345573-0.279504-1.702431-5.793347-1.753249-8.800127-1.016377-58.280728 2.837385-118.797485 0.152456-176.603904-0.43196-9.384544-4.870138-16.397542-3.811412-28.22986s11.688331-26.967859 10.892169-38.563022c-0.762282-11.205552-9.824974-20.158136-21.454016-14.305501-9.062691 4.556755-5.285158 13.653326-7.563536 20.657854-13.323003 40.81599-61.202811 34.150254-93.599815 20.717143-11.773029-4.878608-27.111846-18.608162-38.114122-18.608161-12.899513 0-23.791682 14.34785-37.004578 19.717706-25.993832 10.561847-76.101198 17.888228-90.093316-12.332036-5.285158-11.408827-2.354606-30.38966-13.958239-31.939635-23.952609-3.184647-20.285183 23.181856-14.33091 39.054271 9.638638 25.697388 35.107342 40.3925 61.795697 42.315146 0.389611 47.397029-7.936207 94.336688 33.540428 127.013195 18.625101 14.669702 38.825586 17.718832 61.990503 19.167169 6.115199 17.905168 9.10504 35.369906 30.381191 40.172285 21.360848 4.819319 32.634159-8.325818 47.066706-20.590096l-1.609263 31.905756c-3.802942 5.674769-11.917016 2.388485-17.710362 3.46415-94.192701 17.447798-238.289494-8.791658-326.544862-47.651123-68.325917-30.076278-120.830238-68.131111-162.264524-128.859613 4.954836-7.953147 8.664611 0.88933 12.323566 3.565788 59.864582 43.729603 153.811659 44.949255 202.987347-15.855475 34.31118-42.425253 16.761744-86.747743 17.583315-135.923431 29.771365 2.566351 57.797949-8.834007 81.005215-26.620597 6.53022-5.005655 11.408827-12.391325 17.947517-17.337691 45.101712-34.107905 102.306775-44.254731 155.166827-21.377787 31.736359 13.738024 62.354704 55.722847 94.141883 61.118112 19.827813 3.362513 44.915376 0.499718 64.599202-2.845854z m-240.965952-41.595212c-33.743703 4.76003-63.650585 32.405474-39.477761 66.208466 14.229272 19.895572 50.242883 31.380628 73.949867 28.263739 29.678197-3.90458 74.559693-38.563022 52.893932-70.417959-17.210644-25.307777-59.449561-27.984236-87.374508-24.045776z" fill="#F8EFDC" p-id="1928"></path><path d="M149.932488 564.876705c0.237155 12.975741-13.924359 13.949769-21.089814 19.489021-39.240607 30.355781-56.349613 81.894545-37.182444 128.757975 35.293677 86.315783 188.343054 72.637048 199.33686-23.071748 2.710338-23.579937-4.929427-45.474383-9.858853-67.605984-1.490686-6.708086-3.802942-13.577097 6.411643-11.70527 7.123106 2.811975 24.33375 6.420112 31.761768 7.055347-0.821571 49.175688 16.736335 93.498177-17.583315 135.923431-49.175688 60.80473-143.131235 59.576608-202.987346 15.855475-3.667426-2.676458-7.36873-11.518935-12.323567-3.565788-28.729579-42.103401-38.893345-68.046413-45.872463-119.974788 8.986463-42.162689 31.668601-68.918803 74.102323-77.634233 5.386796-1.109544 9.99437-3.46415 10.587257-3.531908 7.428019-0.838511 16.914201-0.135517 24.697951 0z" fill="#F8E3CC" p-id="1929"></path><path d="M502.809974 723.677078v79.395953c0 0.499718 5.674769 6.360824 6.962179 7.173924 7.38567 4.632983 21.26768-3.354043 21.267681-10.705833v-75.872513l51.318548 17.490147c1.617733 29.644317 7.504247 66.89452-9.469242 93.176325-19.336565 29.932291-73.119827 34.090965-100.146974 12.907983-34.912536-27.35747-16.473771-67.461997-26.366503-103.983796l5.590071-5.141172 50.83577-14.449487z" fill="#F8B39B" p-id="1930"></path><path d="M643.959274 734.264335v255.838929c0 0.381141-2.964432 5.039534-4.014688 6.572569-7.453428 10.917579-18.125383 6.428582-23.774742-3.48956-3.294754-27.874128 2.939022-60.508287-0.499719-87.7133-4.099386-32.413944-38.20729-38.139532-47.515606-5.285158-12.865634 9.342195-24.249052 2.066632-26.586718-12.340506l35.251329-17.812c42.357495-32.820494 35.818805-80.319161 35.539301-128.546231l31.600843-7.216273z" fill="#92D3E3" p-id="1931"></path><path d="M901.559923 564.876705c-11.645982-0.779222-6.640327 1.846417-1.761719 7.055347 17.507087 18.718269 42.493012 42.823334 46.956598 69.49475 1.533035 9.172799 0.118577 18.294779 0.745343 27.476048 1.084135 16.033341 1.981934 32.388534-0.118577 49.412842-2.634109 21.369318-11.620572 19.09094-24.553965 28.373847-15.931703 11.425767-39.206727 29.449512-58.992191 32.752736-23.850971 3.980808-61.177401 3.337103-83.292063-7.089227-35.319087-16.651637-55.138431-59.170058-58.856675-96.394851l10.502559-65.217498c48.591271-19.616068 110.30227-55.451813 164.280337-49.455192 4.294191 0.474309 4.79391 3.531909 5.098823 3.582728z m3.47262 100.180853c0-36.953759-29.9577-66.911459-66.911459-66.911459s-66.911459 29.9577-66.91146 66.911459 29.9577 66.911459 66.91146 66.91146 66.911459-29.9577 66.911459-66.91146z" fill="#F8D6BA" p-id="1932"></path><path d="M287.54988 610.757638c-10.214585-1.871827-7.902328 4.988715-6.411643 11.705271 4.920957 22.1316 12.560721 44.034516 9.858853 67.605983-10.993807 95.708796-164.043183 109.379062-199.33686 23.071749-19.167169-46.863431-2.058163-98.410664 37.182444-128.757975 7.165455-5.539252 21.326969-6.51328 21.089814-19.489022 51.869086 0.914739 91.982082 27.831779 137.625861 45.872464z m-114.105213-10.011309c-29.466452 6.428582-56.222566 49.006292-51.064455 78.15936 7.453428 42.11187 41.002326 57.984285 81.564223 51.140683 32.744266-5.522313 54.570954-47.015888 47.74429-78.142421-1.346699-6.123669-15.906294-31.321339-20.640915-35.827275-13.221366-12.569191-39.816553-19.226457-57.603143-15.347287zM125.226067 564.876705c-0.592886 0.067758-5.20046 2.422364-10.587256 3.531908l2.193679-3.142297 8.393577-0.389611z" fill="#F9D5B9" p-id="1933"></path><path d="M491.206341 569.162426c27.924947-3.938459 70.163865-1.262001 87.374508 24.045776 21.657291 31.863406-23.215735 66.521848-52.893932 70.417959-23.715454 3.116888-59.720595-8.359698-73.949868-28.263739-24.181293-33.802992 5.734058-61.448435 39.477762-66.208466z" fill="#4E2E27" p-id="1934"></path><path d="M838.112614 665.057558m-66.91146 0a66.911459 66.911459 0 1 0 133.822919 0 66.911459 66.911459 0 1 0-133.822919 0Z" fill="#FAC09D" p-id="1935"></path><path d="M173.444667 600.746329c17.79506-3.879171 44.381778 2.778096 57.603143 15.347286 4.734621 4.505936 19.294216 29.695136 20.640915 35.827276 6.826663 31.126533-15.000025 72.611638-47.74429 78.14242-40.561896 6.843602-74.110794-9.028812-81.564223-51.140682-5.158111-29.153069 21.589533-71.730779 51.064455-78.159361z" fill="#FABB98" p-id="1936"></path></svg>